<svg id="Layer_1" data-name="Layer 1" xmlns="http://www.w3.org/2000/svg" viewBox="0 0 335.83 312.67"><defs><style>.cls-1{fill:#fcd6da;}.cls-2{fill:#e8e8e8;}.cls-10,.cls-11,.cls-12,.cls-3,.cls-5,.cls-7,.cls-8,.cls-9{fill:none;}.cls-3,.cls-5{stroke:#232840;}.cls-10,.cls-11,.cls-12,.cls-3,.cls-7,.cls-9{stroke-miterlimit:10;}.cls-4{fill:#ed3248;}.cls-13,.cls-5,.cls-8{stroke-linecap:round;stroke-linejoin:round;}.cls-6{fill:#565b73;}.cls-7{stroke:#565b73;}.cls-8{stroke:#ed3248;}.cls-10,.cls-11,.cls-12,.cls-13,.cls-9{stroke:#008cff;}.cls-10,.cls-11,.cls-12,.cls-9{stroke-linecap:square;stroke-width:2px;}.cls-10{stroke-dasharray:0.02 4.82;}.cls-11{stroke-dasharray:0.02 4.95;}.cls-12{stroke-dasharray:0.02 5.07;}.cls-13{fill:#fff;}</style></defs><title>buildings</title><path class="cls-1" d="M0,247.39l17.33,4.74,17.33,4.74-17.33,4.74L0,266.36v-19Z"/><path class="cls-1" d="M69.3,256.87v9.49L52,261.62l-17.33-4.74L52,252.13l17.33-4.74v9.49Z"/><rect class="cls-2" x="22.61" y="265.92" width="24.08" height="46.25"/><rect class="cls-3" x="22.61" y="265.92" width="24.08" height="46.25"/><path class="cls-2" d="M25.29,249.59a9.37,9.37,0,1,1,18.73,0"/><path class="cls-3" d="M25.29,249.59a9.37,9.37,0,1,1,18.73,0"/><polyline class="cls-2" points="186.79 312.17 200.17 312.17 200.17 276.8 189.47 276.8 189.47 284.96 182.87 284.96"/><polyline class="cls-3" points="186.79 312.17 200.17 312.17 200.17 276.8 189.47 276.8 189.47 284.96 182.87 284.96"/><polyline class="cls-2" points="135.96 312.17 122.58 312.17 122.58 276.8 133.28 276.8 133.28 284.96 139.89 284.96"/><polyline class="cls-3" points="135.96 312.17 122.58 312.17 122.58 276.8 133.28 276.8 133.28 284.96 139.89 284.96"/><polygon class="cls-4" points="162.72 238.71 161.38 238.71 161.38 233.27 162.72 233.27 172.08 235.99 162.72 238.71"/><line class="cls-5" x1="161.38" y1="233.27" x2="161.38" y2="253.68"/><rect class="cls-2" x="254.66" y="295.85" width="66.89" height="8.16"/><rect class="cls-5" x="254.66" y="295.85" width="66.89" height="8.16"/><rect class="cls-5" x="260.01" y="260.48" width="56.19" height="35.37"/><rect class="cls-2" x="249.31" y="304.01" width="77.59" height="8.16"/><rect class="cls-5" x="249.31" y="304.01" width="77.59" height="8.16"/><line class="cls-5" x1="265.36" y1="260.48" x2="265.36" y2="295.85"/><line class="cls-5" x1="281.41" y1="260.48" x2="281.41" y2="295.85"/><line class="cls-5" x1="276.06" y1="260.48" x2="276.06" y2="295.85"/><line class="cls-5" x1="294.79" y1="260.48" x2="294.79" y2="295.85"/><line class="cls-5" x1="300.14" y1="260.48" x2="300.14" y2="295.85"/><line class="cls-5" x1="310.85" y1="260.48" x2="310.85" y2="295.85"/><rect class="cls-2" x="251.98" y="252.31" width="72.24" height="8.16"/><rect class="cls-5" x="251.98" y="252.31" width="72.24" height="8.16"/><polygon class="cls-2" points="324.22 252.31 251.98 252.31 288.1 233.27 324.22 252.31"/><polygon class="cls-5" points="324.22 252.31 251.98 252.31 288.1 233.27 324.22 252.31"/><polygon class="cls-5" points="168.07 312.17 186.79 312.17 180.11 265.92 142.65 265.92 135.96 312.17 154.69 312.17 168.07 312.17"/><line class="cls-5" x1="157.36" y1="276.8" x2="165.39" y2="276.8"/><line class="cls-5" x1="161.38" y1="272.72" x2="161.38" y2="280.88"/><path class="cls-5" d="M184.12,248.59a5.36,5.36,0,0,1-10.7,0v-1.72h-6.69v1.72a5.36,5.36,0,0,1-10.7,0v-1.72h-6.69v1.36a5.35,5.35,0,1,1-10.7,0v-1.36h-5.35v13.6a5.62,5.62,0,0,0,5.35,5.44h45.48a5.62,5.62,0,0,0,5.35-5.44v-13.6h-5.35v1.72Z"/><rect class="cls-5" x="25.29" y="249.59" width="18.73" height="16.32"/><line class="cls-5" x1="34.65" y1="240.07" x2="34.65" y2="233.27"/><line class="cls-5" x1="19.94" y1="265.92" x2="49.37" y2="265.92"/><line class="cls-5" x1="22.61" y1="249.59" x2="46.69" y2="249.59"/><rect class="cls-6" x="27.96" y="305.21" width="2.92" height="6.96"/><line class="cls-5" x1="11.91" y1="312.17" x2="57.39" y2="312.17"/><path class="cls-6" d="M161.49,290h0a8,8,0,0,1,8,8v14.2a0,0,0,0,1,0,0H153.46a0,0,0,0,1,0,0v-14.2a8,8,0,0,1,8-8Z"/><line class="cls-2" x1="113.65" y1="312.17" x2="209.1" y2="312.17"/><line class="cls-3" x1="113.65" y1="312.17" x2="209.1" y2="312.17"/><line class="cls-2" x1="240.38" y1="312.17" x2="335.83" y2="312.17"/><line class="cls-3" x1="240.38" y1="312.17" x2="335.83" y2="312.17"/><polygon class="cls-7" points="85.51 80.83 92.43 73.9 99.24 80.71 106.28 73.9 112.97 80.71 119.83 73.84 126.7 80.71 133.56 73.84 140.43 80.83 140.43 1.19 133.56 7.94 126.7 1.07 119.83 7.94 112.97 1.07 106.1 7.94 99.24 1.07 92.37 7.94 85.51 1.19 85.51 80.83"/><line class="cls-8" x1="95.9" y1="23.04" x2="116.67" y2="23.04"/><line class="cls-8" x1="95.9" y1="34.03" x2="109.74" y2="34.03"/><line class="cls-8" x1="95.9" y1="45.01" x2="113.21" y2="45.01"/><line class="cls-8" x1="95.9" y1="55.99" x2="106.28" y2="55.99"/><line class="cls-8" x1="127.06" y1="23.04" x2="130.52" y2="23.04"/><line class="cls-8" x1="127.06" y1="34.03" x2="130.52" y2="34.03"/><line class="cls-8" x1="127.06" y1="45.01" x2="130.52" y2="45.01"/><line class="cls-8" x1="127.06" y1="55.99" x2="130.52" y2="55.99"/><rect class="cls-2" x="169.19" y="64.12" width="9.72" height="16.2"/><rect class="cls-2" x="188.64" y="47.92" width="9.72" height="32.41"/><rect class="cls-2" x="208.08" y="54.4" width="9.72" height="25.92"/><rect class="cls-2" x="227.52" y="31.72" width="9.72" height="48.61"/><circle class="cls-8" cx="174.06" cy="41.44" r="3.24"/><circle class="cls-8" cx="193.5" cy="25.23" r="3.24"/><circle class="cls-8" cx="212.94" cy="31.72" r="3.24"/><circle class="cls-8" cx="232.39" cy="9.03" r="3.24"/><line class="cls-8" x1="176.55" y1="39.36" x2="191.01" y2="27.31"/><line class="cls-8" x1="196.56" y1="26.26" x2="209.96" y2="30.72"/><line class="cls-8" x1="230.28" y1="11.49" x2="215.05" y2="29.26"/><line class="cls-9" x1="288.98" y1="203.22" x2="288.98" y2="203.21"/><line class="cls-10" x1="288.98" y1="198.39" x2="288.98" y2="157.25"/><polyline class="cls-9" points="288.98 154.84 288.98 154.84 288.97 154.84"/><line class="cls-11" x1="284.01" y1="154.83" x2="37.79" y2="154.83"/><polyline class="cls-9" points="35.31 154.84 35.3 154.84 35.3 154.84"/><line class="cls-10" x1="35.31" y1="159.66" x2="35.31" y2="200.8"/><line class="cls-9" x1="35.31" y1="203.21" x2="35.31" y2="203.22"/><line class="cls-9" x1="162.14" y1="203.22" x2="162.14" y2="203.21"/><line class="cls-12" x1="162.14" y1="198.13" x2="162.14" y2="109"/><line class="cls-9" x1="162.14" y1="106.46" x2="162.14" y2="106.45"/><circle class="cls-13" cx="162.14" cy="154.83" r="3.57"/></svg>