<svg id="Layer_1" data-name="Layer 1" xmlns="http://www.w3.org/2000/svg" viewBox="0 0 335.34 310"><defs><style>.cls-1,.cls-2,.cls-3,.cls-6{fill:none;}.cls-1{stroke:#e8e8e8;}.cls-1,.cls-2,.cls-3,.cls-4,.cls-6{stroke-miterlimit:10;}.cls-2{stroke:#f22f46;}.cls-3,.cls-4{stroke:#565b73;}.cls-4{fill:#fff;}.cls-5{fill:#fcd6da;}.cls-6{stroke:#008cff;stroke-linecap:square;stroke-width:2px;stroke-dasharray:0 5;}</style></defs><title>open-lock</title><path class="cls-1" d="M81.23,148.81h-8V156h-6v-7.21H39.41a19.83,19.83,0,1,1,0-10H95.22a5,5,0,1,1,0,10h-8v12h-6v-12Zm-55-11a8.48,8.48,0,1,0,0,12A8.48,8.48,0,0,0,26.28,137.82Z"/><path class="cls-2" d="M67.24,221.19v-12H39.41a19.83,19.83,0,1,1,0-10H95.22a5,5,0,1,1,0,10h-8v12h-20Zm-41-23a8.48,8.48,0,1,0,0,12A8.48,8.48,0,0,0,26.28,198.2Z"/><rect class="cls-3" x="138.59" y="113.26" width="199.83" height="192.66" rx="6.42" ry="6.42" transform="translate(28.92 448.09) rotate(-90)"/><path class="cls-3" d="M195.69,109.67V75.42a42.81,42.81,0,0,1,85.63,0V98.26h32.11V75.42a74.92,74.92,0,0,0-149.85,0v34.25h32.11Z"/><rect class="cls-4" x="275.97" y="98.26" width="42.81" height="11.42"/><path class="cls-3" d="M240.11,167.62A76.59,76.59,0,0,0,177.54,200a76.67,76.67,0,0,0,125.13,0A76.59,76.59,0,0,0,240.11,167.62Z"/><circle class="cls-5" cx="240.11" cy="199.98" r="24.52"/><circle class="cls-3" cx="240.11" cy="199.98" r="17.52"/><path class="cls-3" d="M243.65,260.64a5.14,5.14,0,1,0-7.07,4.76v17.1h3.86V265.4A5.14,5.14,0,0,0,243.65,260.64Z"/><path class="cls-1" d="M95.5,259.58H39.69a19.83,19.83,0,1,0,0,10H67.53v6H64v6h9.48v-12h8v12h9.16v-6H87.51v-6h8A5,5,0,1,0,95.5,259.58Zm-68.94,11a8.48,8.48,0,1,1,0-12A8.48,8.48,0,0,1,26.56,270.57Z"/><polyline class="cls-6" points="111.51 204.5 159.51 204.5 159.51 269.5 225.51 269.5"/></svg>