<svg id="Layer_1" data-name="Layer 1" xmlns="http://www.w3.org/2000/svg" xmlns:xlink="http://www.w3.org/1999/xlink" viewBox="0 0 345.12 371.02"><defs><style>.cls-1,.cls-11,.cls-12,.cls-13,.cls-14,.cls-15,.cls-16,.cls-17,.cls-18,.cls-19,.cls-20,.cls-3,.cls-4,.cls-5,.cls-7{fill:none;}.cls-2{fill:#fcd6da;}.cls-19,.cls-20,.cls-3,.cls-7{stroke:#565b73;}.cls-11,.cls-12,.cls-14,.cls-19,.cls-20,.cls-3,.cls-4,.cls-5,.cls-7{stroke-miterlimit:10;}.cls-4{stroke:#fff;}.cls-5{stroke:#e8e8e8;}.cls-6{clip-path:url(#clip-path);}.cls-11,.cls-15,.cls-7{stroke-linecap:round;}.cls-8{clip-path:url(#clip-path-2);}.cls-9{clip-path:url(#clip-path-3);}.cls-10{clip-path:url(#clip-path-4);}.cls-11,.cls-12{stroke:#36d576;}.cls-13,.cls-14{stroke:#222840;}.cls-13,.cls-15,.cls-16,.cls-17,.cls-18{stroke-linejoin:round;}.cls-15,.cls-16{stroke:#f47c22;}.cls-17{stroke:#efdc2e;}.cls-18{stroke:#21a4c9;}.cls-19,.cls-20{stroke-linecap:square;}.cls-20{stroke-dasharray:0.02 3.31;}</style><clipPath id="clip-path"><path class="cls-1" d="M288.41,195.38V207l-24.32,9a14.32,14.32,0,0,0-9.41,13.46V237h89.94v-7.5A14.48,14.48,0,0,0,335.05,216l-24.16-9V195.38"/></clipPath><clipPath id="clip-path-2"><path class="cls-1" d="M163.61,57.34V69l-24.32,9a14.32,14.32,0,0,0-9.41,13.46v7.5h89.94v-7.5A14.48,14.48,0,0,0,210.26,78L186.1,69V57.34"/></clipPath><clipPath id="clip-path-3"><path class="cls-1" d="M34.23,195.38V207L9.91,216A14.32,14.32,0,0,0,.5,229.48V237H90.44v-7.5A14.48,14.48,0,0,0,80.87,216l-24.16-9V195.38"/></clipPath><clipPath id="clip-path-4"><path class="cls-1" d="M163.12,195.79v11.62l-24.32,9a14.32,14.32,0,0,0-9.41,13.46v7.5h89.94v-7.5a14.48,14.48,0,0,0-9.57-13.46l-24.16-9V195.79"/></clipPath></defs><title>people-profiles</title><path class="cls-2" d="M280.13,344.11l8.28-3.07V329.12h0.13c-6.79-4.84-11.38-14-11.38-24.43,0-8.55,3.06-16.2,7.87-21.35a18,18,0,0,0,18,18H322c0.11,1.11.17,2.23,0.17,3.37,0,10.47-4.59,19.6-11.38,24.43h0.14V341l8.27,3.09c8.6-7.64,14.22-20.19,14.22-34.38,0-23.29-15.1-42.16-33.73-42.16s-33.73,18.88-33.73,42.16C265.92,323.93,271.54,336.47,280.13,344.11Z"/><path class="cls-2" d="M67.12,149c-5.54-6.78-13.19-11-21.64-11s-16.11,4.19-21.65,11a35.44,35.44,0,0,0-7.74,22.47v21.65H32c-5.46-5.13-9-13.29-9-22.49a35.07,35.07,0,0,1,.45-5.62H67.51a35.07,35.07,0,0,1,.45,5.62c0,9.19-3.53,17.36-9,22.49H74.85V171.48A35.44,35.44,0,0,0,67.12,149Z"/><path class="cls-3" d="M23.44,165a35.07,35.07,0,0,0-.45,5.62c0,15.52,10.07,28.11,22.49,28.11S68,186.17,68,170.65a35.06,35.06,0,0,0-.45-5.62H23.44Z"/><path class="cls-2" d="M299.65,39.35A14.05,14.05,0,0,0,285.6,53.4c0,0.4,0,.8.06,1.19a19.07,19.07,0,0,0,28,0c0-.39.06-0.79,0.06-1.19A14.05,14.05,0,0,0,299.65,39.35Zm5.49,9.94-3.24,3.24V48.34h-4.5v4.19l-3.24-3.24a1.87,1.87,0,0,1,1.32-3.2h8.33A1.87,1.87,0,0,1,305.14,49.29Z"/><path class="cls-4" d="M276.56,316.19a2.81,2.81,0,0,0,4,4"/><path class="cls-4" d="M322.74,316.19a2.81,2.81,0,0,1-4,4"/><path class="cls-5" d="M191.72,342.91a16.86,16.86,0,0,1-33.73,0"/><g class="cls-6"><rect class="cls-5" x="269.3" y="207.75" width="6.75" height="31.48"/><rect class="cls-5" x="322.14" y="207.75" width="6.75" height="31.48"/></g><path class="cls-3" d="M344.62,237v-7.5A14.48,14.48,0,0,0,335.05,216l-24.16-9V195.38"/><path class="cls-3" d="M288.41,195.38V207l-24.32,9a14.32,14.32,0,0,0-9.41,13.46V237"/><path class="cls-2" d="M178.2,293.3c4.22,7.68,9.13,10.58,16.8,9,0.76-.15,1.4-0.05,2.16-0.14-1-14.36-10.65-25.62-22.39-25.62-11.19,0-20.46,10.21-22.19,23.58a17.43,17.43,0,0,0,8.7,2.18C167.76,302.34,175.67,298.35,178.2,293.3Z"/><path class="cls-3" d="M172.61,310.55a2.25,2.25,0,0,1,4.5,0"/><ellipse class="cls-3" cx="174.86" cy="304.69" rx="22.49" ry="28.11"/><ellipse class="cls-3" cx="299.65" cy="32.61" rx="22.49" ry="28.11"/><circle class="cls-3" cx="37.88" cy="176.52" r="5.62"/><circle class="cls-3" cx="53.62" cy="176.52" r="5.62"/><path class="cls-3" d="M43.5,176.52a2.25,2.25,0,1,1,4.5,0"/><path class="cls-2" d="M57.66,9l-2.58-1.8a18.49,18.49,0,0,0-19.23,0L33.27,9l-0.46.37a5.27,5.27,0,0,1,5.91,1.05,9,9,0,0,0,13.5,0,5.27,5.27,0,0,1,5.9-1Z"/><ellipse class="cls-3" cx="45.47" cy="32.61" rx="22.49" ry="28.11"/><path class="cls-2" d="M299.65,139.17c-17.43,0-27,14-27,35.42,0,28.67,13.32,38.79,27,38.79s27-9,27-38.79C326.64,153.16,317.08,139.17,299.65,139.17Zm0,59.59c-12.42,0-22.49-12.58-22.49-28.11a34.1,34.1,0,0,1,1.86-11.2,16.47,16.47,0,0,0,7.77,1.83c6.14,0,13.62-3.77,16-8.54,4,7.26,8.64,10,15.88,8.54a19.39,19.39,0,0,1,2.13-.12,34.41,34.41,0,0,1,1.32,9.5C322.14,186.17,312.07,198.75,299.65,198.75Z"/><path class="cls-3" d="M320.82,161.15a19.39,19.39,0,0,0-2.13.12c-7.24,1.45-11.89-1.28-15.88-8.54-2.39,4.77-9.87,8.54-16,8.54a16.47,16.47,0,0,1-7.77-1.83,34.1,34.1,0,0,0-1.86,11.2c0,15.52,10.07,28.11,22.49,28.11s22.49-12.58,22.49-28.11A34.41,34.41,0,0,0,320.82,161.15Z"/><polygon class="cls-2" points="151.42 131.71 151.42 171.06 155.25 171.06 157.5 158.69 191.25 158.72 193.48 171.06 197.31 171.06 197.31 131.71 151.42 131.71"/><path class="cls-3" d="M191.23,158.69H157.5l-2.25,12.37h-3.37c0,15.52,10.07,28.11,22.49,28.11s22.49-12.58,22.49-28.11h-3.37Z"/><rect class="cls-3" x="161.36" y="306.93" width="11.24" height="6.75"/><rect class="cls-3" x="177.1" y="306.93" width="11.24" height="6.75"/><line class="cls-3" x1="188.35" y1="306.93" x2="190.6" y2="306.93"/><line class="cls-3" x1="159.12" y1="306.93" x2="161.36" y2="306.93"/><line class="cls-7" x1="59.67" y1="176.52" x2="60.79" y2="176.52"/><circle class="cls-3" cx="308.43" cy="32.38" r="5.62"/><line class="cls-7" x1="314.48" y1="32.38" x2="316.6" y2="32.38"/><line class="cls-7" x1="30.86" y1="176.52" x2="31.98" y2="176.52"/><path class="cls-5" d="M56.71,68.58c0,3.1-5,5.62-11.24,5.62s-11.24-2.52-11.24-5.62"/><path class="cls-3" d="M90.44,98.94v-7.5A14.48,14.48,0,0,0,80.87,78L56.71,69V57"/><path class="cls-3" d="M34.23,57V69L9.91,78A14.32,14.32,0,0,0,.5,91.44v7.5"/><path class="cls-2" d="M163.61,69v-12C158.32,53.1,154.39,46.67,153,39a32.65,32.65,0,0,0,21.89-22.66A32.65,32.65,0,0,0,196.75,39c-1.43,7.65-5.36,14.08-10.65,17.91V69l14.84,5.48V32.61C200.94,14.67,189.35.11,175,0h-0.33c-14.33.11-25.92,14.66-25.92,32.6V74.49Z"/><g class="cls-8"><line class="cls-5" x1="142.25" y1="76.95" x2="142.25" y2="99.13"/><path class="cls-5" d="M207.46,76.95V99.13"/><path class="cls-5" d="M198.26,73.47a19.21,19.21,0,0,1,.12,2.1c0,11.66-10.53,21.12-23.51,21.12s-23.51-9.45-23.51-21.12a19.2,19.2,0,0,1,.13-2.21"/></g><path class="cls-3" d="M219.83,98.94v-7.5A14.48,14.48,0,0,0,210.26,78L186.1,69V57.14"/><path class="cls-3" d="M163.61,57.14V69l-24.32,9a14.32,14.32,0,0,0-9.41,13.46v7.5"/><path class="cls-5" d="M310.9,62.14l-11.24,5.32,5.62,5.62,5.62-4.54m-22.49,0L294,73.08l5.62-5.62-11.24-5.32"/><polyline class="cls-5" points="304.42 72.81 301.9 75.33 297.4 75.33 294.88 72.81"/><line class="cls-5" x1="297.4" y1="75.33" x2="296.28" y2="98.94"/><line class="cls-5" x1="301.9" y1="75.33" x2="303.03" y2="98.94"/><path class="cls-3" d="M344.62,98.94v-7.5A14.48,14.48,0,0,0,335.05,78L310.9,69V57.14"/><path class="cls-3" d="M288.41,57.14V69l-24.32,9a14.32,14.32,0,0,0-9.41,13.46v7.5"/><path class="cls-5" d="M310.9,334.22l-11.24,5.32,5.62,5.62,5.62-4.54m-22.49,0,5.62,4.54,5.62-5.62-11.24-5.32"/><path class="cls-3" d="M344.62,371v-7.5a14.48,14.48,0,0,0-9.57-13.46l-24.16-9V329.22"/><path class="cls-3" d="M288.41,329.22V341l-24.32,9a14.32,14.32,0,0,0-9.41,13.46V371"/><path class="cls-3" d="M219.83,371v-7.5a14.48,14.48,0,0,0-9.57-13.46l-24.16-9V329.42"/><path class="cls-3" d="M163.61,329.42V341l-24.32,9a14.32,14.32,0,0,0-9.41,13.46V371"/><circle class="cls-5" cx="299.65" cy="351.91" r="2.25"/><circle class="cls-5" cx="299.65" cy="363.15" r="2.25"/><g class="cls-9"><polyline class="cls-5" points="66.83 204.38 66.83 218.99 24.11 218.99 24.11 204.38"/></g><path class="cls-3" d="M90.44,237v-7.5A14.48,14.48,0,0,0,80.87,216l-24.16-9V195.18"/><path class="cls-3" d="M34.23,195.18V207L9.91,216A14.32,14.32,0,0,0,.5,229.48V237"/><g class="cls-10"><path class="cls-5" d="M174.36,181.18L194.6,205l-20.24,23.85L154.13,205Z"/></g><path class="cls-3" d="M219.34,237.39v-7.5a14.48,14.48,0,0,0-9.57-13.46l-24.16-9V195.59"/><path class="cls-3" d="M163.12,195.59v11.82l-24.32,9a14.32,14.32,0,0,0-9.41,13.46v7.5"/><polyline class="cls-11" points="87.63 8.43 84.23 11.8 82.01 9.55"/><circle class="cls-12" cx="84.82" cy="10.12" r="5.62"/><polyline class="cls-11" points="217.02 280.51 213.62 283.89 211.4 281.63"/><circle class="cls-12" cx="214.21" cy="282.2" r="5.62"/><polyline class="cls-11" points="87.63 280.51 84.23 283.89 82.01 281.63"/><circle class="cls-12" cx="84.82" cy="282.2" r="5.62"/><polyline class="cls-11" points="217.02 8.43 213.62 11.8 211.4 9.55"/><circle class="cls-12" cx="214.21" cy="10.12" r="5.62"/><line class="cls-13" x1="342.98" y1="144.19" x2="335.03" y2="152.14"/><circle class="cls-14" cx="339" cy="148.16" r="5.62" transform="translate(-5.48 283.09) rotate(-45)"/><polygon class="cls-15" points="337.32 14.62 333.38 15.74 334.51 11.8 341.81 4.5 344.63 7.31 337.32 14.62"/><line class="cls-16" x1="339.57" y1="6.75" x2="342.38" y2="9.56"/><line class="cls-15" x1="334.51" y1="11.81" x2="337.32" y2="14.62"/><polygon class="cls-15" points="83.14 152.66 79.2 153.78 80.33 149.85 87.63 142.54 90.44 145.35 83.14 152.66"/><line class="cls-16" x1="85.38" y1="144.79" x2="88.2" y2="147.6"/><line class="cls-15" x1="80.33" y1="149.85" x2="83.14" y2="152.66"/><polygon class="cls-17" points="339.01 276.58 340.69 280.51 344.63 280.51 341.25 283.32 342.94 287.82 339 285.01 335.07 287.82 336.75 283.32 333.38 280.51 337.32 280.51 339.01 276.58"/><circle class="cls-18" cx="214.38" cy="148.01" r="1.69"/><path class="cls-18" d="M218.33,148a4,4,0,0,0-.11-0.91l1.12-.65-1.12-1.95-1.21.65a4.56,4.56,0,0,0-1.67-.91V143h-2.25v1.29a3.81,3.81,0,0,0-1.48.91l-1.07-.65-1.1,1.95,1.13,0.65a3.88,3.88,0,0,0-.11.91,4,4,0,0,0,.11.91l-1.12.65,1.12,1.95,1-.65a3.84,3.84,0,0,0,1.48.91v1.29h2.25v-1.29a4.54,4.54,0,0,0,1.67-.91l1.17,0.65,1.15-1.95-1.11-.65A4,4,0,0,0,218.33,148Z"/><path class="cls-3" d="M90.53,371v-7.5A14.48,14.48,0,0,0,81,350.06L56.8,341V329.42"/><path class="cls-3" d="M34.32,329.42V341l-24.32,9A14.32,14.32,0,0,0,.59,363.52V371"/><path class="cls-2" d="M45.56,273.86c-41.6,0-37.68,92.91,0,92.91S87.16,273.86,45.56,273.86Zm0,58.94c-11,0-20-11.19-20-25s8.95-17.49,20-17.49,20,3.7,20,17.49S56.6,332.79,45.56,332.79Z"/><line class="cls-19" x1="316.6" y1="35" x2="316.6" y2="35.01"/><line class="cls-20" x1="316.6" y1="38.32" x2="316.6" y2="43.33"/><line class="cls-19" x1="316.6" y1="44.99" x2="316.6" y2="45"/><path class="cls-3" d="M65.55,307.81c0,13.8-8.95,25-20,25s-20-11.19-20-25,8.95-17.49,20-17.49S65.55,294,65.55,307.81Z"/><path class="cls-3" d="M303,301.31a18,18,0,0,1-18-18c-4.82,5.16-7.87,12.81-7.87,21.35,0,15.52,10.07,28.11,22.49,28.11s22.49-12.58,22.49-28.11c0-1.14-.06-2.27-0.17-3.37H303Z"/><path class="cls-3" d="M174.86,16.36A32.65,32.65,0,0,1,153,39c2.32,12.43,11.24,21.69,21.89,21.69S194.42,51.45,196.75,39A32.65,32.65,0,0,1,174.86,16.36Z"/><line class="cls-5" x1="312.6" y1="94" x2="329.6" y2="94"/></svg>