<svg xmlns="http://www.w3.org/2000/svg" width="1090" height="1090">

  <defs><clipPath id='clip'>
    <path d="M285.382 65.003c20.033 439.21 18.913 413.202 18.808 416.406-.59 9.252-3.465 16.505-8.524 23.39-4.555 5.846-9.17 9.472-15.22 12.474-4.42 2.03-7.628 2.99-12.408 3.675-.9.1-155.788 14.78-159.937 14.833-11.13-.217-19.863-3.94-27.85-10.963-4.67-4.385-7.355-8.38-9.697-13.444-2.136-5.04-2.994-8.86-3.383-14.09C40.854 45.018 42.323 71.51 42.397 68.036c.314-5.863 1.252-10.165 3.652-15.795 1.643-3.524 2.924-5.68 5.433-8.944 3.45-4.168 6.584-7.037 11.97-10.215 4.113-2.25 7.887-3.746 13.187-4.706 3.19-.573 4.722-.646 6.886-.73 169.163-4.006 161.506-4.047 166.115-3.33 8.814 1.424 15.376 4.823 21.65 10.387 2.988 2.836 4.927 5.067 7.465 8.983 2.804 4.64 4.49 8.523 5.798 14.553.45 2.417.64 3.634.83 6.768"/>
  </clipPath></defs>

  <path d="M285.382 65.003c20.033 439.21 18.913 413.202 18.808 416.406-.59 9.252-3.465 16.505-8.524 23.39-4.555 5.846-9.17 9.472-15.22 12.474-4.42 2.03-7.628 2.99-12.408 3.675-.9.1-155.788 14.78-159.937 14.833-11.13-.217-19.863-3.94-27.85-10.963-4.67-4.385-7.355-8.38-9.697-13.444-2.136-5.04-2.994-8.86-3.383-14.09C40.854 45.018 42.323 71.51 42.397 68.036c.314-5.863 1.252-10.165 3.652-15.795 1.643-3.524 2.924-5.68 5.433-8.944 3.45-4.168 6.584-7.037 11.97-10.215 4.113-2.25 7.887-3.746 13.187-4.706 3.19-.573 4.722-.646 6.886-.73 169.163-4.006 161.506-4.047 166.115-3.33 8.814 1.424 15.376 4.823 21.65 10.387 2.988 2.836 4.927 5.067 7.465 8.983 2.804 4.64 4.49 8.523 5.798 14.553.45 2.417.64 3.634.83 6.768"/>

</svg>