<svg xmlns="http://www.w3.org/2000/svg" width="1090" height="1090"><path opacity=".1" fill="#525F7F" d="M207.88 500.707c-.472 2.26-.255 1.43-.954 3.637-.92 2.127-.54 1.356-1.67 3.382-1.33 1.904-.803 1.224-2.317 2.985-1.685 1.6-1.03 1.04-2.864 2.458-1.96 1.222-1.21.808-3.28 1.82-2.155.793-1.344.542-3.56 1.104l-1.837.27c-2.268.088-1.428.1-3.685-.052-2.222-.39-1.407-.202-3.57-.827-2.075-.852-1.323-.495-3.294-1.568-1.84-1.28-1.184-.768-2.876-2.24-1.524-1.652-.993-1.01-2.333-2.82-1.14-1.95-.756-1.203-1.684-3.27-.707-2.164-.487-1.347-.962-3.582-.24-2.283-.196-1.432-.197-3.735.237-2.3.105-1.45.58-3.72.703-2.22.4-1.41 1.327-3.548 1.14-2.038.68-1.305 2.018-3.216 1.525-1.764.928-1.14 2.62-2.74 1.845-1.42 1.137-.93 3.108-2.15 2.08-1.007 1.293-.674 3.457-1.46 2.225-.555 1.392-.392 3.653-.71 2.272-.078 1.43-.094 3.69.07 2.22.4 1.406.21 3.564.845 2.07.864 1.322.503 3.284 1.583l1.49 1.048 1.37 1.205c1.513 1.654.985 1.01 2.314 2.82l.918 1.587c.918 2.062.618 1.28 1.315 3.435.468 2.226.338 1.39.57 3.663 0 2.292.044 1.442-.195 3.73zm-16.94-441.76c-.417.58-.546.702-1.03 1.088-.625.392-.728.432-1.38.62-.47.09-.303.067-.782.1-43.12 1.237-39.92 1.213-40.885 1.035-.582-.166-.75-.22-1.415-.64-.556-.422-.692-.564-1.092-1.097-.595-.95-.84-1.743-.752-2.952.104-.685.16-.88.45-1.5.37-.624.484-.756.938-1.19.53-.416.674-.497 1.316-.755 1.095-.29-2.504-.107 41.014-1.296.995.022 1.385.162 2.12.53.742.474 1.07.77 1.606 1.64.313.62.375.812.51 1.5.073.76.055.884-.04 1.495-.19.748-.28.92-.577 1.422z"/></svg>