<svg xmlns="http://www.w3.org/2000/svg" viewBox="0 0 1125 2001"><path d="M0 0h1125v2001H0V0z" fill="#f6f9fc"/><path d="M1062 825.3H63c-3.3 0-6-2.7-6-6v-15c0-3.3 2.7-6 6-6h999c3.3 0 6 2.7 6 6v15c0 3.3-2.7 6-6 6zm-999 33h669c3.3 0 6 2.7 6 6v15c0 3.3-2.7 6-6 6H63c-3.3 0-6-2.7-6-6v-15c0-3.3 2.7-6 6-6z" fill="#cfd7df"/><path d="M72.1 702.2c2.4 2.3 5.4 3.8 9 4.4v-23.8c-3.2-.8-5.9-1.6-8.2-2.6-2.3-.9-4.2-2-5.8-3.3-1.5-1.3-2.7-2.9-3.4-4.7-.7-1.9-1.1-4.1-1.1-6.8s.5-5.2 1.4-7.4c1-2.2 2.3-4.2 3.9-5.8 1.6-1.6 3.6-3 5.9-3.9 2.2-1 4.7-1.5 7.2-1.7v-5.9h5v6c4.9.6 8.7 2.4 11.6 5.4 2.9 3 4.9 7.1 6.1 12.4h-7.6c-1.2-5.9-4.6-9.4-10.1-10.4v22.1l5.4 1.4c1.2.3 2.6.8 4.2 1.6s3.2 1.8 4.7 3.1 2.8 3 3.8 4.9c1 2 1.6 4.4 1.6 7.1 0 2.9-.5 5.6-1.5 7.8-1 2.3-2.4 4.2-4.1 5.9-1.7 1.7-3.8 3-6.2 3.9-2.4 1-5 1.6-7.9 1.8v7.4h-5v-7.4c-6-.6-10.8-2.7-14.3-6.3-3.5-3.6-5.6-8.5-6-14.8h7.6c.2 4.1 1.4 7.2 3.8 9.6zm1.6-45.4c-2 1.8-3 4.4-3 7.8 0 1.6.3 2.9.8 4s1.2 2 2.2 2.8c.9.8 2 1.4 3.3 1.9 1.3.5 2.6 1 4.1 1.4v-21.1c-2.9.4-5.4 1.4-7.4 3.2zm16.9 48.9c1.4-.5 2.6-1.2 3.7-2.1 1-.9 1.9-2.1 2.4-3.5.6-1.4.9-3.1.9-5 0-1.7-.3-3.2-.9-4.4-.6-1.2-1.4-2.2-2.4-3-1-.8-2.2-1.5-3.7-2.1s-3-1.1-4.6-1.6v22.6c1.7-.1 3.2-.4 4.6-.9zm22.9-43.7c.8-2.8 2.1-5.1 3.9-7.2 1.8-2 4-3.6 6.6-4.7 2.6-1.1 5.6-1.7 9-1.7 2.8 0 5.4.4 7.8 1.2 2.4.8 4.5 2 6.3 3.5 1.8 1.5 3.2 3.4 4.3 5.7 1 2.3 1.6 4.9 1.6 7.9 0 2.8-.4 5.3-1.3 7.5s-2 4.1-3.5 5.8-3.1 3.3-4.9 4.6c-1.9 1.4-3.8 2.7-5.8 4-2 1.2-4 2.4-5.9 3.6s-3.8 2.4-5.4 3.7c-1.7 1.3-3.1 2.7-4.2 4.3-1.2 1.5-1.9 3.3-2.3 5.3h32.8v6.8h-41.7c.3-3.8 1-7 2-9.7 1-2.7 2.4-5 4-7s3.4-3.7 5.5-5.2c2-1.5 4.2-2.9 6.4-4.2 2.7-1.7 5.1-3.2 7.1-4.6 2-1.4 3.7-2.8 5.1-4.3 1.4-1.4 2.4-3 3.1-4.7.7-1.7 1-3.6 1-5.8 0-1.7-.3-3.3-1-4.7-.7-1.4-1.5-2.6-2.7-3.6-1.1-1-2.4-1.8-3.9-2.3-1.5-.5-3.1-.8-4.8-.8-2.2 0-4.1.5-5.7 1.4-1.6.9-2.9 2.1-3.9 3.6s-1.8 3.2-2.2 5.1c-.4 1.9-.6 3.8-.6 5.7h-7.6c-.3-3.4 0-6.4.9-9.2zm50 0c.8-2.8 2.1-5.1 3.9-7.2 1.8-2 4-3.6 6.6-4.7 2.6-1.1 5.6-1.7 9-1.7 2.8 0 5.4.4 7.8 1.2 2.4.8 4.5 2 6.3 3.5 1.8 1.5 3.2 3.4 4.3 5.7 1 2.3 1.6 4.9 1.6 7.9 0 2.8-.4 5.3-1.3 7.5s-2 4.1-3.5 5.8-3.1 3.3-4.9 4.6c-1.9 1.4-3.8 2.7-5.8 4-2 1.2-4 2.4-5.9 3.6s-3.8 2.4-5.4 3.7c-1.7 1.3-3.1 2.7-4.2 4.3-1.2 1.5-1.9 3.3-2.3 5.3h32.8v6.8h-41.7c.3-3.8 1-7 2-9.7 1-2.7 2.4-5 4-7s3.4-3.7 5.5-5.2c2-1.5 4.2-2.9 6.4-4.2 2.7-1.7 5.1-3.2 7.1-4.6 2-1.4 3.7-2.8 5.1-4.3 1.4-1.4 2.4-3 3.1-4.7.7-1.7 1-3.6 1-5.8 0-1.7-.3-3.3-1-4.7-.7-1.4-1.5-2.6-2.7-3.6-1.1-1-2.4-1.8-3.9-2.3-1.5-.5-3.1-.8-4.8-.8-2.2 0-4.1.5-5.7 1.4-1.6.9-2.9 2.1-3.9 3.6s-1.8 3.2-2.2 5.1c-.4 1.9-.6 3.8-.6 5.7h-7.6c-.3-3.4 0-6.4.9-9.2z" fill="#32325d"/><path d="M987 661.8h75c3.3 0 6 2.7 6 6v15c0 3.3-2.7 6-6 6h-75c-3.3 0-6-2.7-6-6v-15c0-3.3 2.7-6 6-6z" fill="#7795f8"/><path d="M63 540.3h366c3.3 0 6 2.7 6 6v15c0 3.3-2.7 6-6 6H63c-3.3 0-6-2.7-6-6v-15c0-3.3 2.7-6 6-6z" fill="#aab7c4"/><path d="M0 174h1125v273H0V174z" fill="#cfd7df"/><path d="M418.5 336h288c3.3 0 6 2.7 6 6v15c0 3.3-2.7 6-6 6h-288c-3.3 0-6-2.7-6-6v-15c0-3.3 2.7-6 6-6z" opacity=".502" fill="#FFF"/><path d="M253.5 276h618c3.3 0 6 2.7 6 6v15c0 3.3-2.7 6-6 6h-618c-3.3 0-6-2.7-6-6v-15c0-3.3 2.7-6 6-6z" fill="#FFF"/><path d="M0 6h1125v192H0V6z" opacity=".302" fill="#525f7f"/><path d="M0 0h1125v192H0V0z" fill="#FFF"/><path d="M36 114h153c3.3 0 6 2.7 6 6v15c0 3.3-2.7 6-6 6H36c-3.3 0-6-2.7-6-6v-15c0-3.3 2.7-6 6-6zm478.1 19c1.6 0 3.4.7 5.2 2.2 2.3 1.8 3.9 2.7 4.8 2.7 1.3 0 1.9-.7 1.9-2 0-.7-.4-1.3-1.1-1.8-.4-.3-2.6-1.1-6.6-2.5-6.6-2.3-9.9-6.6-9.9-12.8 0-4.7 1.7-8.4 5.2-11.2 3-2.4 6.8-3.6 11.3-3.6 3.9 0 7.2.9 10.1 2.8 2.9 1.8 4.3 4.2 4.3 7.1 0 1.7-.5 3.2-1.6 4.4-1.1 1.2-2.5 1.8-4.2 1.8-1.8 0-3.8-.9-6-2.6-1.4-1.1-2.4-1.6-3.1-1.6-1.2 0-1.8.6-1.8 1.8 0 1.1 1.5 2.1 4.5 3 4.1 1.3 7.3 2.9 9.5 4.7 3 2.5 4.5 6 4.5 10.5 0 4.9-1.7 8.7-5 11.5-3.1 2.6-7.2 3.8-12.2 3.8-5 0-9.1-1.3-12.4-4-2.6-2.1-3.9-4.6-3.9-7.4 0-1.9.6-3.5 1.9-4.8 1.1-1.4 2.7-2 4.6-2zm39.5-14.1h-3.9c-2.2 0-4-.6-5.4-1.8-1.5-1.3-2.3-3-2.3-5.1 0-1.3.4-2.5 1.1-3.7.7-1.2 1.6-2 2.8-2.5 1.1-.5 3.8-.7 8-.7h14.9c3.6 0 6 .2 7.1.7 1.2.5 2.1 1.3 2.9 2.5.7 1.2 1.1 2.4 1.1 3.7 0 2-.8 3.8-2.4 5.3-1.2 1.1-3 1.6-5.7 1.6h-3.4v22.3c0 2.4-.4 4.3-1.2 5.6-1.4 2.2-3.4 3.3-6.1 3.3-2.6 0-4.7-1-6.1-3-.9-1.3-1.3-3.2-1.3-5.8v-22.4zm35.9 25.2c-.7 1.7-1.4 2.9-2.2 3.7-1.5 1.6-3.3 2.4-5.4 2.4-2.6 0-4.6-1-6.1-3.1-.9-1.2-1.3-2.6-1.3-4.2 0-1.3.3-2.6.9-3.9l14-29.8c1.4-2.9 3.6-4.4 6.8-4.4 3.2 0 5.5 1.5 6.9 4.5l14.1 30c.6 1.2.9 2.4.9 3.6 0 1.7-.6 3.3-1.7 4.7-1.5 1.8-3.4 2.7-5.7 2.7-1.9 0-3.5-.6-4.8-1.8-.9-.9-1.9-2.3-2.8-4.4h-13.6zm61.3-11.5l3.5 5.6c1 1.6 1.4 3.1 1.4 4.8 0 2.1-.7 3.8-2.1 5.2-1.4 1.4-3.2 2-5.3 2-2.7 0-4.7-1.1-6.1-3.4l-6.2-10.1v6.1c0 2.1-.7 3.8-2 5.3-1.4 1.4-3.1 2.2-5.2 2.2-2.5 0-4.5-.9-5.8-2.7-1.2-1.6-1.8-3.7-1.8-6.3v-27.6c0-5.7 3-8.5 9.1-8.5h9.4c3.1 0 5.9.9 8.6 2.7 2.6 1.8 4.6 4.1 5.8 6.9.9 2.1 1.4 4.3 1.4 6.5.1 3.9-1.5 7.7-4.7 11.3zm17.5-13.7h-3.9c-2.2 0-4-.6-5.4-1.8-1.5-1.3-2.3-3-2.3-5.1 0-1.3.4-2.5 1.1-3.7.7-1.2 1.6-2 2.8-2.5 1.1-.5 3.8-.7 8-.7h14.9c3.6 0 6 .2 7.1.7 1.2.5 2.1 1.3 2.9 2.5.7 1.2 1.1 2.4 1.1 3.7 0 2-.8 3.8-2.4 5.3-1.2 1.1-3 1.6-5.7 1.6H683v22.3c0 2.4-.4 4.3-1.2 5.6-1.4 2.2-3.4 3.3-6.1 3.3-2.6 0-4.7-1-6.1-3-.9-1.3-1.3-3.2-1.3-5.8v-22.4zM712 136h6.7c2.8 0 4.8.6 6.2 1.7 1.6 1.4 2.4 3.1 2.4 5.2 0 2.2-.8 4-2.4 5.3-1.2 1-3.3 1.6-6.1 1.6h-11.5c-2.7 0-4.6-.2-5.6-.6-2-.8-3.3-2.1-3.9-4-.4-1.2-.6-3.1-.6-5.8v-24.3c0-2 .1-3.4.2-4.1.2-1.4.8-2.6 1.7-3.6 1-1.1 2.4-1.8 4-2.1.8-.1 2.3-.2 4.7-.2h8.8c2.4 0 3.8 0 4.2.1 1.6.2 2.9.6 3.9 1.4 1.8 1.4 2.7 3.1 2.7 5.3 0 2.4-.8 4.2-2.4 5.4-1.4 1.1-3.3 1.7-5.7 1.7H712v3h5.8c1.7 0 3.1.4 4.2 1.3 1.2 1 1.8 2.3 1.8 4 0 3.6-2.2 5.3-6.5 5.3H712v3.4zm47.5-3.4l3.5 5.6c1 1.6 1.4 3.1 1.4 4.8 0 2.1-.7 3.8-2.1 5.2-1.4 1.4-3.2 2-5.3 2-2.7 0-4.7-1.1-6.1-3.4l-6.2-10.1v6.1c0 2.1-.7 3.8-2 5.3-1.4 1.4-3.1 2.2-5.2 2.2-2.5 0-4.5-.9-5.8-2.7-1.2-1.6-1.8-3.7-1.8-6.3v-27.6c0-5.7 3-8.5 9.1-8.5h9.4c3.1 0 5.9.9 8.6 2.7 2.6 1.8 4.6 4.1 5.8 6.9.9 2.1 1.4 4.3 1.4 6.5.1 3.9-1.5 7.7-4.7 11.3z" fill="#2bdd72"/><path d="M375.4 120.3l8.3-12.1c1.6-2.3 3.6-3.4 6.1-3.4 2 0 3.8.7 5.3 2.2 1.5 1.4 2.2 3.2 2.2 5.2 0 1.5-.4 2.8-1.2 3.9l-7.5 10.9 9.2 11.6c.9 1.2 1.4 2.5 1.4 4.1 0 2.1-.7 3.8-2.2 5.3-1.4 1.5-3.2 2.2-5.2 2.2-2.2 0-4-.7-5.1-2.2l-11.2-14v7.7c0 2.2-.4 3.9-1.1 5.1-1.4 2.2-3.4 3.3-6.1 3.3-2.4 0-4.3-.8-5.6-2.5-1.2-1.5-1.9-3.5-1.9-6v-28.7c0-2.4.6-4.3 1.9-5.8 1.3-1.6 3.2-2.4 5.5-2.4 2.2 0 4.1.8 5.6 2.4.8.9 1.4 1.8 1.6 2.7.1.6.2 1.6.2 3.2v7.3zm41.3-6.4v27.8c0 2.4-.6 4.4-1.9 5.9-1.3 1.7-3.2 2.6-5.5 2.6-2.2 0-4-.8-5.5-2.4-1.2-1.3-1.9-3.4-1.9-6.1v-27.8c0-3.1.6-5.4 1.9-6.8 1.4-1.6 3.2-2.4 5.5-2.4 2.2 0 4.1.8 5.5 2.4 1.3 1.5 1.9 3.8 1.9 6.8zm26.6-10c5.4 0 10.4 1.8 15 5.5 3.6 2.9 5.4 5.9 5.4 8.9 0 2.6-1.1 4.7-3.3 6.1-1.2.8-2.6 1.2-4.1 1.2-1.2 0-2.3-.3-3.4-.9-.5-.2-1.6-1.3-3.4-3.3-1.7-1.8-3.8-2.8-6.3-2.8-2.4 0-4.5.8-6.1 2.5-1.6 1.7-2.5 3.8-2.5 6.2 0 2.4.8 4.5 2.5 6.2 1.6 1.7 3.7 2.5 6.1 2.5 2 0 3.9-.7 5.6-2 1.1-1 2.1-2.1 3.2-3.1s2.6-1.5 4.3-1.5c2 0 3.8.7 5.2 2.1 1.5 1.4 2.2 3.1 2.2 5.1 0 2.7-1.6 5.5-4.8 8.3-4.5 3.9-9.7 5.9-15.6 5.9-3.6 0-7.1-.8-10.3-2.3-4.1-2-7.3-4.9-9.8-8.7-2.4-3.8-3.6-8-3.6-12.5 0-6.8 2.5-12.5 7.5-17.3 4.4-3.9 9.8-6 16.2-6.1zm37.8 16.4l8.3-12.1c1.6-2.3 3.6-3.4 6.1-3.4 2 0 3.8.7 5.3 2.2 1.5 1.4 2.2 3.2 2.2 5.2 0 1.5-.4 2.8-1.2 3.9l-7.5 10.9 9.2 11.6c.9 1.2 1.4 2.5 1.4 4.1 0 2.1-.7 3.8-2.2 5.3-1.4 1.5-3.2 2.2-5.2 2.2-2.3 0-4-.7-5.1-2.2l-11.2-14v7.7c0 2.2-.4 3.9-1.1 5.1-1.4 2.2-3.4 3.3-6.1 3.3-2.4 0-4.3-.8-5.6-2.5-1.2-1.5-1.9-3.5-1.9-6v-28.7c0-2.4.6-4.3 1.9-5.8 1.3-1.6 3.2-2.4 5.5-2.4 2.2 0 4.1.8 5.6 2.4.8.9 1.4 1.8 1.6 2.7.1.6.2 1.6.2 3.2v7.3z" fill="#32325d"/><path d="M906 114h123c3.3 0 6 2.7 6 6v15c0 3.3-2.7 6-6 6H906c-3.3 0-6-2.7-6-6v-15c0-3.3 2.7-6 6-6z" fill="#2bdd72"/><path d="M1067.5 102.5l24.9 24.9-24.9 24.9" fill="none" stroke="#2bdd72" stroke-width="12" stroke-linecap="round" stroke-linejoin="round"/><path d="M0 0h1125v2001H0V0z" opacity=".149" fill="#525f7f"/><path d="M0 1011h1125v976.5H0V1011z" fill="#525f7f" opacity=".102"/><path d="M0 1017h1125v984H0v-984z" fill="#FFF"/><path d="M392.5 1906.1c5.9 0 9.9 4.1 9.9 10 0 5.8-4.1 9.9-9.9 9.9h-7.8v11h-3.9v-30.9h11.7zm-7.8 16.5h6.8c4.4 0 6.9-2.4 6.9-6.5 0-4.2-2.5-6.6-6.9-6.6h-6.8v13.1zm21.3 7.9c0-4.1 3-6.5 8.4-6.8l6.7-.4v-2.1c0-2.9-1.8-4.4-5.2-4.4-2.8 0-4.7 1.1-5.2 2.9H407c.5-3.7 4.1-6.2 9.1-6.2 5.6 0 8.8 2.9 8.8 7.7v15.8h-3.5v-3.4h-.3c-1.5 2.5-4 3.8-7.1 3.8-4.7 0-8-2.6-8-6.9zm15.1-2.1v-2.1l-6.2.4c-3.5.2-5.1 1.5-5.1 3.8 0 2.4 2 3.7 4.7 3.7 3.8 0 6.6-2.5 6.6-5.8zm10 16.9v-3.2c.5.1 1 .1 1.5.1 2.1 0 3.3-1 4.2-3.8l.4-1.4-8.6-23.1h4l6.3 19h.3l6.3-19h3.9l-9 24.5c-2 5.4-3.8 6.9-7.9 6.9-.3.1-.9 0-1.4 0zm58.5-8.3h-3.8l-5.2-17.9h-.3l-5.1 17.9h-3.7l-6.5-23.1h3.7l4.5 18.5h.3l5.2-18.5h3.5l5.2 18.5h.3l4.5-18.5h3.7l-6.3 23.1zm10.7-30.4c0-1.4 1.2-2.6 2.6-2.6 1.4 0 2.6 1.2 2.6 2.6 0 1.4-1.2 2.6-2.6 2.6-1.4 0-2.6-1.1-2.6-2.6zm.8 7.3h3.7v23.1h-3.7v-23.1zm15.9-6v6h5.1v3.1H517v13.1c0 2.7 1 3.9 3.4 3.9.7 0 1 0 1.7-.1v3.1c-.7.1-1.4.2-2.2.2-4.8 0-6.7-1.8-6.7-6.2v-14h-3.7v-3.1h3.7v-6h3.8zm11-3.2h3.7v12.8h.3c1.2-2.6 3.6-4.1 7.1-4.1 4.9 0 8 3.1 8 8.6v15h-3.7v-14c0-4.1-1.8-6.1-5.3-6.1-4.1 0-6.4 2.6-6.4 6.5v13.7H528v-32.4zm46.7 32.3v-27.5h-10v-3.5h23.8v3.5h-10v27.5h-3.8zm14.7-11.5c0-7.4 4.1-12 10.7-12s10.7 4.5 10.7 12c0 7.4-4.1 12-10.7 12-6.6-.1-10.7-4.6-10.7-12zm17.5 0c0-5.5-2.5-8.6-6.8-8.6-4.4 0-6.8 3.2-6.8 8.6 0 5.5 2.5 8.6 6.8 8.6 4.4 0 6.8-3.2 6.8-8.6zm28.3 11.5h-3.5v-3.6h-.3c-1.2 2.6-3.6 4-7.2 4-5.2 0-7.9-3.1-7.9-8.6v-15h3.7v14.1c0 4.2 1.5 6.1 5.2 6.1 4.1 0 6.3-2.4 6.3-6.5v-13.7h3.7v23.2zm22.4-16c-.6-2.3-2.6-4.2-6-4.2-4.2 0-6.8 3.3-6.8 8.6s2.7 8.7 6.8 8.7c3.1 0 5.3-1.4 6-4.1h3.7c-.7 4.2-4.1 7.4-9.7 7.4-6.5 0-10.6-4.7-10.6-12 0-7.2 4.1-11.9 10.6-11.9 5.6 0 9 3.4 9.7 7.5h-3.7zm9.4-16.3h3.7v12.8h.3c1.2-2.6 3.6-4.1 7.1-4.1 4.9 0 8 3.1 8 8.6v15h-3.7v-14c0-4.1-1.8-6.1-5.3-6.1-4.1 0-6.4 2.6-6.4 6.5v13.7H667v-32.4zm38.7 32.3v-30.9h3.9v30.9h-3.9zm22.4-30.9c9.2 0 14.6 5.7 14.6 15.5s-5.4 15.5-14.6 15.5h-10.6v-30.9h10.6zm-6.8 27.4h6.5c6.9 0 10.9-4.4 10.9-12s-4.1-12-10.9-12h-6.5v24z" fill="#32325d"/><path d="M631.4 1772.5c-3.7-18.4-14.3-33.7-28.6-43.7m21.7 90.7c1.8-14.7 1.4-29.9-1.7-45.3-4.6-22.7-21.1-39.9-41.6-46.5m12.2-4.5c-13.4-6.6-29.1-9-44.9-5.8-18 3.6-32.9 13.8-42.9 27.5" fill="none" stroke="#ed598b" stroke-width="4.5" stroke-linecap="round" stroke-linejoin="round"/><path d="M570.7 1725.3c-6.6-.9-13.5-.7-20.4.7-33.4 6.7-54.9 39.2-48.2 72.6 1.2 5.8-.6 11.5-4.4 15.5m2-59.7c-7 13.7-9.6 29.7-6.3 46" fill="none" stroke="#ed598b" stroke-width="4.5" stroke-linecap="round" stroke-linejoin="round"/><path d="M615.4 1782.8c-.3-2.3-.7-4.6-1.2-6.8-5.8-28.6-33.6-47.1-62.2-41.3-22 4.4-38 21.9-41.6 42.7" fill="none" stroke="#ed598b" stroke-width="4.5" stroke-linecap="round" stroke-linejoin="round"/><path d="M544 1746.4c3-1.4 6.3-2.5 9.7-3.1 13.5-2.7 26.7 1 36.6 9.1m-83.5 77.2c9.9-8 15.2-21.1 12.5-34.5a44.11 44.11 0 0 1 15.4-42.9" fill="none" stroke="#ed598b" stroke-width="4.5" stroke-linecap="round" stroke-linejoin="round"/><path d="M509.6 1788.5c.1 2.8.4 5.6 1 8.3 2 9.8-1.7 19.4-8.9 25.4m96-1.6c2.2-13.3 2.1-27.2-.8-41.2-3.8-19.1-22.4-31.4-41.5-27.6-19.1 3.8-31.4 22.4-27.6 41.5.9 4.5 1.1 9 .6 13.4" fill="none" stroke="#ed598b" stroke-width="4.5" stroke-linecap="round" stroke-linejoin="round"/><path d="M564.5 1760.1c-2.4-.2-4.8 0-7.3.4-14.3 2.9-23.6 16.8-20.7 31.1 3.9 19.4-3.3 38.4-17.2 50.4m78.7-81.5c3.6 5 6.3 10.8 7.5 17.2 4.8 23.7 2.4 47.2-5.7 68.3m12.6-10c3.6-13.5 5.1-27.7 4.2-42.1m-40.7 61.6c12.7-21.6 17.8-47.8 12.4-74.3-1.6-7.9-6.5-14.2-13.1-17.9" fill="none" stroke="#ed598b" stroke-width="4.5" stroke-linecap="round" stroke-linejoin="round"/><path d="M581.6 1801.9c0-6.3-.6-12.6-1.9-19-1.9-9.6-11.2-15.7-20.8-13.8-7.1 1.4-12.4 7-13.8 13.7" fill="none" stroke="#ed598b" stroke-width="4.5" stroke-linecap="round" stroke-linejoin="round"/><path d="M554.1 1856.3c15.3-19.6 22.3-45.4 17-71.7-1-4.8-5.6-7.9-10.4-6.9-4.8 1-7.9 5.6-6.9 10.4h.1c2 9.8 1.8 19.5-.2 28.7m-27.9 1.2c-2.8 7.1-7.3 13.4-13.2 18.2m33.2-42.3c2.8 20.4-4.8 40-19 53.3m23.6-19.6c-3.4 8.8-8.7 16.9-15.3 23.7m9.1 3.1c15.8-18 23.3-42.8 18.2-68m2.3 70.4c8.8-12.9 14.5-27.9 16.3-43.7m6.7 39c3.2-6.6 5.8-13.4 7.7-20.5" fill="none" stroke="#ed598b" stroke-width="4.5" stroke-linecap="round" stroke-linejoin="round"/><path d="M45 1653h1080v6H45v-6z" fill="#f2f5f7"/><path d="M1074 1599H906c-3.3 0-6-2.7-6-6v-18c0-3.3 2.7-6 6-6h168c3.3 0 6 2.7 6 6v18c0 3.3-2.7 6-6 6zm-393-55.5H339c-3.3 0-6-2.7-6-6v-18c0-3.3 2.7-6 6-6h342c3.3 0 6 2.7 6 6v18c0 3.3-2.7 6-6 6zM339 1569h279c3.3 0 6 2.7 6 6v18c0 3.3-2.7 6-6 6H339c-3.3 0-6-2.7-6-6v-18c0-3.3 2.7-6 6-6z" fill="#cfd7df"/><path d="M1075.8 1479h-119c-2.3 0-4.2-2.7-4.2-6v-18c0-3.3 1.9-6 4.2-6h119c2.3 0 4.2 2.7 4.2 6v18c0 3.3-1.9 6-4.2 6zm-348.3-55.5H339c-3.3 0-6-2.7-6-6v-18c0-3.3 2.7-6 6-6h388.5c3.3 0 6 2.7 6 6v18c0 3.3-2.7 6-6 6zM339 1449h217.5c3.3 0 6 2.7 6 6v18c0 3.3-2.7 6-6 6H339c-3.3 0-6-2.7-6-6v-18c0-3.3 2.7-6 6-6z" fill="#e6ebf1"/><path d="M45 1330.5h1080v6H45v-6z" fill="#f2f5f7"/><path d="M1054.3 1225l18.4 18.4-18.4 18.4" fill="none" stroke="#6772e5" stroke-width="7.5" stroke-linecap="round" stroke-linejoin="round"/><path d="M783 1230H339c-3.3 0-6-2.7-6-6v-18c0-3.3 2.7-6 6-6h444c3.3 0 6 2.7 6 6v18c0 3.3-2.7 6-6 6zm-630.7 0H48.7c-2 0-3.7-2.7-3.7-6v-18c0-3.3 1.7-6 3.7-6h103.6c2 0 3.7 2.7 3.7 6v18c0 3.3-1.7 6-3.7 6zm186.7 25.5h172.5c3.3 0 6 2.7 6 6v18c0 3.3-2.7 6-6 6H339c-3.3 0-6-2.7-6-6v-18c0-3.3 2.7-6 6-6z" fill="#e6ebf1"/><path d="M0 1149h1125v6H0v-6z" fill="#f2f5f7"/><path d="M921 1071h153c3.3 0 6 2.7 6 6v18c0 3.3-2.7 6-6 6H921c-3.3 0-6-2.7-6-6v-18c0-3.3 2.7-6 6-6z" fill="#6772e5"/><path d="M82.6 1079.1c.1 7.5 6.8 9.9 6.8 10-.1.2-1.1 3.5-3.5 7-2.1 3-4.3 6-7.8 6.1-3.4.1-4.5-2-8.4-2-3.9 0-5.1 1.9-8.3 2-3.3.1-5.9-3.2-8-6.2-4.4-6.1-7.7-17.3-3.2-24.8 2.2-3.7 6.2-6.1 10.5-6.2 3.3-.1 6.4 2.1 8.4 2.1s5.8-2.6 9.7-2.3c1.7.1 6.3.6 9.3 4.9-.3.1-5.6 3.1-5.5 9.4zm-6.4-18.3c1.8-2.1 3-5 2.6-7.9-2.6.1-5.7 1.7-7.5 3.7-1.6 1.8-3.1 4.8-2.7 7.6 2.9.3 5.8-1.4 7.6-3.4zm28.9 18.7c.8.2 1.6.4 2.6.5 1 .1 2 .1 3.1.1 4.1 0 7.2-.9 9.5-2.8 2.2-1.9 3.4-4.6 3.4-8.2 0-1.7-.3-3.2-.9-4.5-.6-1.3-1.4-2.3-2.5-3.2-1.1-.8-2.4-1.4-3.9-1.9-1.5-.4-3.2-.6-5-.6-1.5 0-2.7.1-3.7.2s-1.9.2-2.5.4l-.1 20zm-3.2-22.3c1.3-.2 2.8-.4 4.4-.6 1.6-.2 3.3-.3 5.2-.3 2.7 0 5.1.3 7 1 2 .6 3.6 1.6 4.9 2.8 1.1 1.1 1.9 2.3 2.6 3.8.6 1.5.9 3.1.9 5.1 0 2.3-.4 4.3-1.3 6-.8 1.7-2 3.2-3.4 4.4-1.5 1.2-3.2 2-5.2 2.6-2 .6-4.2.9-6.5.9-2.1 0-3.9-.2-5.4-.5v19.1h-3.2v-44.3zm47.2 27.2c-1.7 0-3.5 0-5.4.2-1.9.2-3.6.6-5.2 1.2s-2.9 1.5-3.9 2.6c-1 1.2-1.6 2.7-1.6 4.6 0 2.3.7 3.9 2 5s2.8 1.6 4.4 1.6c1.3 0 2.5-.2 3.5-.5 1-.4 1.9-.8 2.7-1.4.8-.6 1.4-1.3 1.9-2 .5-.8.9-1.5 1.2-2.3.2-.9.3-1.5.3-1.9l.1-7.1zm3.2 9.5c0 1.3 0 2.6.1 3.9 0 1.3.2 2.5.4 3.7h-3l-.5-4.5h-.1c-.4.6-.9 1.2-1.6 1.9-.6.6-1.4 1.2-2.2 1.7-.8.5-1.8.9-2.9 1.2-1.1.3-2.2.5-3.5.5-1.6 0-3-.3-4.2-.8-1.2-.5-2.2-1.2-3-2-.8-.8-1.3-1.8-1.7-2.8-.4-1.1-.6-2.1-.6-3.2 0-3.8 1.6-6.7 4.9-8.7 3.2-2 8.1-3 14.7-2.9v-.9c0-.8-.1-1.8-.2-2.9-.2-1.1-.5-2.1-1.1-3.1-.5-1-1.4-1.8-2.4-2.5-1.1-.7-2.6-1-4.4-1-1.4 0-2.8.2-4.2.6-1.4.4-2.6 1-3.8 1.8l-1-2.3c1.5-1 2.9-1.7 4.5-2.1 1.5-.4 3.2-.6 4.8-.6 2.3 0 4.1.4 5.5 1.1 1.4.8 2.6 1.7 3.4 2.9.8 1.2 1.4 2.5 1.7 4s.4 3 .4 4.4v12.6zm6.3-24.3l8.3 20.7c.5 1.2.9 2.3 1.3 3.6.4 1.2.8 2.3 1.1 3.4h.1c.3-1 .7-2.1 1.1-3.3.4-1.2.9-2.5 1.4-3.8l7.8-20.6h3.4l-9.5 23.4c-1 2.5-1.8 4.7-2.7 6.7-.8 2-1.7 3.8-2.6 5.5-.9 1.6-1.7 3-2.6 4.3-.9 1.2-1.9 2.3-3 3.3-1.3 1.1-2.4 1.9-3.5 2.4s-1.8.8-2.1 1l-1.1-2.6c.8-.4 1.7-.8 2.7-1.4 1-.6 2-1.3 2.9-2.3.8-.8 1.7-1.8 2.7-3.2 1-1.3 1.8-2.9 2.6-4.8.3-.7.4-1.2.4-1.4 0-.3-.1-.8-.4-1.4l-11.8-29.6 3.5.1z" fill="#32325d"/><linearGradient id="a" gradientUnits="userSpaceOnUse" x1="54.951" y1="1516.022" x2="54.076" y2="1515.537" gradientTransform="matrix(1125 0 0 -2001 -60696 3034008)"><stop offset="0" stop-color="#525f7f"/><stop offset=".69" stop-color="#525f7f" stop-opacity="0"/></linearGradient><path d="M0 0h1125v2001H0V0z" opacity=".102" fill="url(#a)"/></svg>