<svg xmlns="http://www.w3.org/2000/svg" width="1090" height="1090"><path opacity=".1" fill="#525F7F" d="M794.812 590.157c-.64 2.386-.358 1.515-1.242 3.822-1.094 2.2-.647 1.406-1.962 3.476-1.514 1.917-.92 1.237-2.6 2.98-1.858 1.55-1.146 1.014-3.124 2.352-2.11 1.112-1.31.743-3.51 1.618-2.277.63-1.425.443-3.735.82-2.345.118-1.477.122-3.81-.02-2.3-.396-1.455-.202-3.7-.85-2.153-.893-1.37-.518-3.427-1.645-1.934-1.35-1.244-.81-3.024-2.366-1.614-1.747-1.048-1.067-2.485-2.984-1.227-2.067-.81-1.275-1.827-3.47l-.65-1.87c-.552-2.376-.39-1.484-.71-3.91-.077-2.455-.094-1.543.072-3.996.398-2.425.205-1.534.846-3.906.873-2.293.508-1.46 1.602-3.65 1.293-2.06.774-1.32 2.277-3.23 1.67-1.74 1.018-1.13 2.853-2.678 1.968-1.34 1.212-.884 3.312-2.003 2.178-.886 1.352-.602 3.618-1.243 2.31-.39 1.448-.293 3.78-.427 2.332.125 1.472.03 3.77.41 2.245.634 1.426.352 3.592 1.23 2.067 1.116 1.322.66 3.267 2 1.79 1.55 1.154.938 2.79 2.68 1.447 1.917.948 1.177 2.186 3.246 1.04 2.2.697 1.364 1.503 3.67l.458 1.943c.332 2.44.254 1.53.342 3.998-.166 2.47-.06 1.557-.468 4zM205.8 458.843c-.383.428-.516.548-1.007.863-.554.286-.713.322-1.19.402-.518.03-.53.02-.95-.05-.466-.135-.566-.166-1.05-.483-.435-.356-.545-.486-.846-.94-.278-.513-.334-.663-.474-1.26-.095-.63-.094-.8-.033-1.44.123-.67.163-.774.387-1.313.35-.667.614-1.057 1.293-1.575.385-.254.525-.344 1.153-.53.55-.097.713-.094 1.255 0h.005c.502.145.55.15 1.05.476.395.322.4.34.668.675.826 1.236.924 2.557.445 3.942-.203.49-.274.656-.705 1.233z"/></svg>