<svg xmlns="http://www.w3.org/2000/svg" width="1090" height="1090">

  <defs><clipPath id='clip'>
    <path d="M829.2 334.23c5.272 1.018 8.006 2.066 11.773 3.95 2.664 1.27 4.236 2.278 6.642 4.04 2.29 1.832 3.264 2.554 5.94 5.482 4.35 5.05 7.203 10.272 9.108 17.343.978 4.114 1.27 6.538 1.35 10.656-.048 3.67-.258 5.904-1.053 9.803-97.464 447.824-91.516 420.83-92.51 424.122-3.034 9.06-7.585 15.466-14.42 21.03-3.036 2.325-5.233 3.658-8.81 5.27-4.253 1.766-8.288 2.858-12.825 3.167-4.942.446-9.053.257-14.994-1.28C120.7 672.076 155.1 682.017 150.078 679.32c-4.26-2.406-7.75-5.34-11.366-10.39-2.974-4.43-4.827-8.62-6.187-14.64-1.366-6.897-1.195-12.603.167-19.086 89.207-398.848 83.12-372.58 85.06-377.6 1.294-3.1 2.34-5.16 4.412-8.297 3.743-5.363 7.41-8.776 12.18-11.808 6.065-3.57 11.438-5.15 18.268-5.095 3.736.156-31.835-5.974 576.59 101.826"/>
  </clipPath></defs>

  <path d="M829.2 334.23c5.272 1.018 8.006 2.066 11.773 3.95 2.664 1.27 4.236 2.278 6.642 4.04 2.29 1.832 3.264 2.554 5.94 5.482 4.35 5.05 7.203 10.272 9.108 17.343.978 4.114 1.27 6.538 1.35 10.656-.048 3.67-.258 5.904-1.053 9.803-97.464 447.824-91.516 420.83-92.51 424.122-3.034 9.06-7.585 15.466-14.42 21.03-3.036 2.325-5.233 3.658-8.81 5.27-4.253 1.766-8.288 2.858-12.825 3.167-4.942.446-9.053.257-14.994-1.28C120.7 672.076 155.1 682.017 150.078 679.32c-4.26-2.406-7.75-5.34-11.366-10.39-2.974-4.43-4.827-8.62-6.187-14.64-1.366-6.897-1.195-12.603.167-19.086 89.207-398.848 83.12-372.58 85.06-377.6 1.294-3.1 2.34-5.16 4.412-8.297 3.743-5.363 7.41-8.776 12.18-11.808 6.065-3.57 11.438-5.15 18.268-5.095 3.736.156-31.835-5.974 576.59 101.826"/>

</svg>