<svg xmlns="http://www.w3.org/2000/svg" viewBox="0 0 49 44.2" enable-background="new 0 0 49 44.2"><path fill="#2D2C2A" d="M14.3 44.2v-10.7h-14.3v-33.5h49v33.5h-23.8l-10.9 10.7zm-13.7-11.3h14.4v9.8l10-9.8h23.4v-32.3h-47.8v32.3zm12.4-10.1c-1.3 0-2.2-.3-2.8-.7l.1-.8c.6.4 1.6.8 2.8.8 1.4 0 2.5-.9 2.5-2.2 0-1.2-.6-1.8-2.3-2.5-2.1-.9-2.9-1.6-2.9-3.2s1.3-2.7 3-2.7c1 0 1.8.2 2.4.5l-.1.8c-.6-.4-1.4-.6-2.3-.6-1.3 0-2.2.8-2.2 1.9 0 1.2.6 1.7 2.4 2.4 2 .8 2.9 1.7 2.9 3.3-.1 1.9-1.6 3-3.5 3zm16.8-.1l-.8-9.9-4.1 10h-.6l-4.1-10-.8 9.9h-.7l.9-11h.9l4.1 10.1 4.1-10.1h.9l.9 11h-.7zm6 .1c-1.3 0-2.2-.3-2.8-.7l.1-.8c.6.4 1.6.8 2.8.8 1.4 0 2.5-.9 2.5-2.2 0-1.2-.6-1.8-2.3-2.5-2.1-.9-2.9-1.6-2.9-3.2s1.3-2.7 3-2.7c1 0 1.8.2 2.4.5l-.1.8c-.6-.4-1.4-.6-2.3-.6-1.3 0-2.2.8-2.2 1.9 0 1.2.6 1.7 2.4 2.4 2 .8 2.9 1.7 2.9 3.3-.1 1.9-1.6 3-3.5 3z"/></svg>