<svg xmlns="http://www.w3.org/2000/svg" viewBox="0 0 62.1 36.8" enable-background="new 0 0 62.1 36.8"><path d="M26.6 19.5c-2.7 0-4.6-2.1-4.6-5.3 0-3.1 1.9-5.3 4.7-5.3 1.1 0 2.1.4 2.9.9l-.1.7c-.8-.6-1.7-1-2.7-1-2.4 0-4 1.9-4 4.7 0 2.8 1.5 4.7 3.9 4.7 1.1 0 2.1-.4 3-1.1l.1.7c-.8.5-1.9 1-3.2 1zm12.9-.1l-1.4-3.6h-4.7l-1.4 3.5h-.7l4.1-10.3h.8l4.1 10.3-.8.1zm-3.7-9.6l-2.1 5.4h4.2l-2.1-5.4zm6.6 9.5v-10.3h.7v9.6h4.2l.1.6h-5zm7 0v-10.3h.7v9.6h4.2l.1.6h-5zm-27.7 17.5c-1.3 0-2.6-.5-3.5-1.4-7.4-6.5-13.5-14.7-17.7-23.7-1.1-2.3-.4-5 1.6-6.5l2.1-1.6c.6-.5 1.4-.7 2.2-.7 1.2 0 2.3.6 3 1.5l2.9 3.9c1.2 1.6.9 4-.8 5.2l-.9.7c2.3 3.8 5.1 7.6 8.2 11l.9-.7c.6-.5 1.4-.7 2.2-.7 1.2 0 2.3.6 3 1.5l2.9 3.9c1.2 1.6.9 4-.8 5.2l-2.1 1.6c-1 .5-2.1.8-3.2.8zm-15.3-32.9c-.6 0-1.1.2-1.6.5l-2.1 1.6c-1.6 1.2-2.2 3.4-1.3 5.3 4.1 8.8 10.2 16.9 17.4 23.4 1.5 1.3 3.8 1.4 5.4.3l2.1-1.6c1.2-.9 1.4-2.6.6-3.8l-2.9-3.8c-.9-1.2-2.6-1.4-3.8-.6l-1.6 1.2-.3-.3c-3.3-3.6-6.3-7.7-8.8-11.9l-.2-.4 1.6-1.2c1.2-.9 1.4-2.6.6-3.8l-2.9-3.8c-.5-.7-1.3-1.1-2.2-1.1zm55.7 25.4h-29.8v-1h28.8v-27.3h-46.5v3.6h-1v-4.6h48.5z" fill="#2D2C2A"/></svg>