<svg xmlns="http://www.w3.org/2000/svg" viewBox="0 0 300 274.32"><defs><style>.cls-1{fill:#e8e8e8;}.cls-2{fill:#36d576;}.cls-3{fill:none;stroke:#e8e8e8;stroke-miterlimit:10;}</style></defs><title>Asset 3</title><g id="Layer_2" data-name="Layer 2"><g id="enterprise-communication"><polygon class="cls-1" points="53.42 177.27 106.84 274.32 0 274.32 53.42 177.27"/><polygon class="cls-1" points="157.84 53.74 237.97 274.32 77.71 274.32 157.84 53.74"/><polygon class="cls-1" points="252.11 146.33 298.61 274.32 205.62 274.32 252.11 146.33"/><ellipse class="cls-2" cx="252.11" cy="143.62" rx="13.54" ry="13.55"/><polygon class="cls-3" points="299.5 0.5 204.73 0.5 204.73 95.33 232.49 95.33 252.11 114.98 271.74 95.33 299.5 95.33 299.5 0.5"/><rect class="cls-1" x="218.62" y="65.32" width="9.63" height="16.06"/><rect class="cls-1" x="237.88" y="49.26" width="9.63" height="32.12"/><rect class="cls-2" x="257.14" y="55.68" width="9.63" height="25.7"/><rect class="cls-1" x="276.41" y="33.2" width="9.63" height="48.19"/><line class="cls-3" x1="214.46" y1="10.32" x2="240.77" y2="10.32"/><line class="cls-3" x1="214.46" y1="16.37" x2="239.01" y2="16.37"/><line class="cls-3" x1="214.46" y1="22.42" x2="240.77" y2="22.42"/><line class="cls-3" x1="214.46" y1="28.47" x2="232.77" y2="28.47"/></g></g></svg>