<svg xmlns="http://www.w3.org/2000/svg" viewBox="0 0 300 300"><defs><style>.cls-1,.cls-4{fill:none;stroke-miterlimit:10;}.cls-1{stroke:#e8e8e8;}.cls-2{fill:#e8e8e8;}.cls-3{fill:#36d576;}.cls-4{stroke:#36d576;}</style></defs><title>Asset 2</title><g id="Layer_2" data-name="Layer 2"><g id="enterprise-communication"><line class="cls-1" x1="6" y1="6" x2="294" y2="294"/><line class="cls-1" x1="54" y1="6" x2="294" y2="246"/><line class="cls-1" x1="102" y1="6" x2="294" y2="198"/><line class="cls-1" x1="150" y1="6" x2="294" y2="150"/><line class="cls-1" x1="198" y1="6" x2="294" y2="102"/><line class="cls-1" x1="246" y1="6" x2="294" y2="54"/><line class="cls-1" x1="6" y1="54" x2="246" y2="294"/><line class="cls-1" x1="6" y1="102" x2="198" y2="294"/><line class="cls-1" x1="6" y1="150" x2="150" y2="294"/><line class="cls-1" x1="6" y1="198" x2="102" y2="294"/><line class="cls-1" x1="6" y1="246" x2="54" y2="294"/><line class="cls-1" x1="294" y1="6" x2="6" y2="294"/><line class="cls-1" x1="294" y1="54" x2="54" y2="294"/><line class="cls-1" x1="294" y1="102" x2="102" y2="294"/><line class="cls-1" x1="294" y1="150" x2="150" y2="294"/><line class="cls-1" x1="294" y1="198" x2="198" y2="294"/><line class="cls-1" x1="294" y1="246" x2="246" y2="294"/><line class="cls-1" x1="246" y1="6" x2="6" y2="246"/><line class="cls-1" x1="198" y1="6" x2="6" y2="198"/><line class="cls-1" x1="150" y1="6" x2="6" y2="150"/><line class="cls-1" x1="102" y1="6" x2="6" y2="102"/><line class="cls-1" x1="54" y1="6" x2="6" y2="54"/><line class="cls-1" x1="6" y1="54" x2="294" y2="54"/><line class="cls-1" x1="6" y1="102" x2="294" y2="102"/><line class="cls-1" x1="6" y1="150" x2="294" y2="150"/><line class="cls-1" x1="6" y1="198" x2="294" y2="198"/><line class="cls-1" x1="6" y1="246" x2="294" y2="246"/><line class="cls-1" x1="246" y1="6" x2="246" y2="294"/><line class="cls-1" x1="198" y1="6" x2="198" y2="294"/><line class="cls-1" x1="150" y1="6" x2="150" y2="294"/><line class="cls-1" x1="102" y1="6" x2="102" y2="294"/><line class="cls-1" x1="54" y1="6" x2="54" y2="294"/><circle class="cls-2" cx="294" cy="294" r="6"/><circle class="cls-2" cx="246" cy="294" r="6"/><circle class="cls-2" cx="198" cy="294" r="6"/><circle class="cls-3" cx="150" cy="294" r="6"/><circle class="cls-2" cx="102" cy="294" r="6"/><circle class="cls-2" cx="54" cy="294" r="6"/><circle class="cls-2" cx="6" cy="294" r="6"/><circle class="cls-2" cx="294" cy="246" r="6"/><circle class="cls-3" cx="246" cy="246" r="6"/><circle class="cls-2" cx="198" cy="246" r="6"/><circle class="cls-3" cx="150" cy="246" r="6"/><circle class="cls-2" cx="102" cy="246" r="6"/><circle class="cls-3" cx="54" cy="246" r="6"/><circle class="cls-2" cx="6" cy="246" r="6"/><circle class="cls-2" cx="294" cy="198" r="6"/><circle class="cls-3" cx="246" cy="198" r="6"/><circle class="cls-3" cx="198" cy="198" r="6"/><circle class="cls-3" cx="150" cy="198" r="6"/><circle class="cls-3" cx="102" cy="198" r="6"/><circle class="cls-3" cx="54" cy="198" r="6"/><circle class="cls-2" cx="6" cy="198" r="6"/><circle class="cls-3" cx="294" cy="150" r="6"/><circle class="cls-3" cx="246" cy="150" r="6"/><circle class="cls-3" cx="198" cy="150" r="6"/><circle class="cls-3" cx="150" cy="150" r="6"/><circle class="cls-3" cx="102" cy="150" r="6"/><circle class="cls-3" cx="54" cy="150" r="6"/><circle class="cls-3" cx="6" cy="150" r="6"/><circle class="cls-2" cx="294" cy="102" r="6"/><circle class="cls-3" cx="246" cy="102" r="6"/><circle class="cls-3" cx="198" cy="102" r="6"/><circle class="cls-3" cx="150" cy="102" r="6"/><circle class="cls-3" cx="102" cy="102" r="6"/><circle class="cls-3" cx="54" cy="102" r="6"/><circle class="cls-2" cx="6" cy="102" r="6"/><circle class="cls-2" cx="294" cy="54" r="6"/><circle class="cls-3" cx="246" cy="54" r="6"/><circle class="cls-2" cx="198" cy="54" r="6"/><circle class="cls-3" cx="150" cy="54" r="6"/><circle class="cls-2" cx="102" cy="54" r="6"/><circle class="cls-3" cx="54" cy="54" r="6"/><circle class="cls-2" cx="6" cy="54" r="6"/><circle class="cls-2" cx="294" cy="6" r="6"/><circle class="cls-2" cx="246" cy="6" r="6"/><circle class="cls-2" cx="198" cy="6" r="6"/><circle class="cls-3" cx="150" cy="6" r="6"/><circle class="cls-2" cx="102" cy="6" r="6"/><circle class="cls-2" cx="54" cy="6" r="6"/><circle class="cls-2" cx="6" cy="6" r="6"/><line class="cls-4" x1="54" y1="54" x2="54" y2="246"/><line class="cls-4" x1="102" y1="198" x2="102" y2="102"/><line class="cls-4" x1="198" y1="102" x2="198" y2="198"/><line class="cls-4" x1="246.24" y1="54.24" x2="246.24" y2="246.24"/><line class="cls-4" x1="150" y1="6" x2="150" y2="294"/></g></g></svg>