<svg xmlns="http://www.w3.org/2000/svg" viewBox="0 0 335 284.62"><defs><style>.cls-1{fill:#e8e8e8;}.cls-11,.cls-12,.cls-13,.cls-2,.cls-3,.cls-4,.cls-5,.cls-6{fill:none;stroke-miterlimit:10;}.cls-10,.cls-2,.cls-6{stroke:#36d576;}.cls-2{stroke-linecap:square;stroke-dasharray:0 5;}.cls-13,.cls-2{stroke-width:2px;}.cls-3{stroke:#fff;}.cls-3,.cls-4,.cls-6{stroke-width:4px;}.cls-4{stroke:#ee3248;}.cls-5{stroke:#222840;}.cls-10,.cls-7{fill:#fff;}.cls-8{fill:#ee3248;}.cls-9{fill:#36d576;}.cls-10,.cls-11,.cls-13{stroke-linecap:round;}.cls-10{stroke-linejoin:round;}.cls-11,.cls-12,.cls-13{stroke:#e8e8e8;}</style></defs><title>Asset 1</title><g id="Layer_2" data-name="Layer 2"><g id="enterprise-communication"><path class="cls-1" d="M266.91,0a68.09,68.09,0,0,1,0,136.18H68.09A68.09,68.09,0,0,1,68.09,0Z"/><line class="cls-2" x1="99.59" y1="231.05" x2="233.12" y2="231.05"/><line class="cls-2" x1="166.36" y1="154.42" x2="166.36" y2="231.05"/><path class="cls-3" d="M242.84,92.43a34,34,0,1,1,48.15,0"/><path class="cls-4" d="M242.84,92.43a33.94,33.94,0,0,1-10-24.07"/><path class="cls-5" d="M252.26,65.28a21,21,0,0,1,29.29,0"/><path class="cls-5" d="M256,69a15.58,15.58,0,0,1,21.78,0"/><path class="cls-5" d="M259.78,72.67a10.21,10.21,0,0,1,14.27,0"/><path class="cls-5" d="M270.29,76.36a4.84,4.84,0,0,0-6.76,0"/><g id="Call_Center_Medium" data-name="Call Center Medium"><rect class="cls-5" x="69.73" y="77.2" width="4.61" height="2.24"/><rect class="cls-5" x="69.73" y="77.2" width="4.61" height="2.24"/><path class="cls-5" d="M77.18,74.4h1.14a2.26,2.26,0,0,0,2.27-2.24V66a2.26,2.26,0,0,0-2.27-2.24H77.18"/><path class="cls-5" d="M57.86,74.4H59V63.75H57.86A2.26,2.26,0,0,0,55.59,66v6.16A2.26,2.26,0,0,0,57.86,74.4Z"/><path class="cls-5" d="M74.34,78.32h1.14a1.69,1.69,0,0,0,1.7-1.68V63.75A6.77,6.77,0,0,0,70.36,57H65.82A6.77,6.77,0,0,0,59,63.75"/></g><path class="cls-3" d="M44,92.43a34,34,0,1,1,48.15,0"/><path class="cls-6" d="M44,92.43A34,34,0,0,1,92.16,44.28"/><path class="cls-3" d="M143.43,92.43a34,34,0,1,1,48.15,0"/><path class="cls-6" d="M143.43,92.43A34,34,0,0,1,167.5,34.31"/><polygon class="cls-5" points="164.38 63.32 158.88 63.32 158.88 73.9 164.38 73.9 169.89 79.19 169.89 73.9 169.89 63.32 169.89 58.03 164.38 63.32"/><path class="cls-5" d="M174.84,61.58a9.68,9.68,0,0,1,0,14.07"/><ellipse class="cls-7" cx="266.91" cy="101.28" rx="6.13" ry="5.92"/><ellipse class="cls-8" cx="266.91" cy="101.28" rx="2.83" ry="2.73"/><ellipse class="cls-7" cx="167.5" cy="101.28" rx="6.13" ry="5.92"/><ellipse class="cls-9" cx="167.5" cy="101.28" rx="2.83" ry="2.73"/><ellipse class="cls-7" cx="68.09" cy="101.28" rx="6.13" ry="5.92"/><ellipse class="cls-9" cx="68.09" cy="101.28" rx="2.83" ry="2.73"/><circle class="cls-10" cx="166.6" cy="231.05" r="3.57"/><circle class="cls-11" cx="54.82" cy="273.29" r="2.58"/><line class="cls-12" x1="48.9" y1="195.12" x2="60.9" y2="195.12"/><rect class="cls-13" x="26.9" y="185.62" width="56" height="98" rx="10" ry="10"/><path class="cls-12" d="M42.24,235.63h2.59a2.57,2.57,0,0,0,2.57-2.57V220.83A2.57,2.57,0,0,1,50,218.26h0a2.57,2.57,0,0,1,2.57,2.57v23.94a2.57,2.57,0,0,0,2.57,2.57h0a2.57,2.57,0,0,0,2.57-2.57V227.85a2.57,2.57,0,0,1,2.57-2.57h0a2.57,2.57,0,0,1,2.57,2.57v5.21a2.57,2.57,0,0,0,2.57,2.57H68"/><circle class="cls-11" cx="273.17" cy="273.29" r="2.58"/><line class="cls-12" x1="267.26" y1="195.12" x2="279.26" y2="195.12"/><rect class="cls-13" x="245.26" y="185.62" width="56" height="98" rx="10" ry="10"/><path class="cls-12" d="M260.6,235.63h2.59a2.57,2.57,0,0,0,2.57-2.57V220.83a2.57,2.57,0,0,1,2.57-2.57h0a2.57,2.57,0,0,1,2.57,2.57v23.94a2.57,2.57,0,0,0,2.57,2.57h0a2.57,2.57,0,0,0,2.57-2.57V227.85a2.57,2.57,0,0,1,2.57-2.57h0a2.57,2.57,0,0,1,2.57,2.57v5.21a2.57,2.57,0,0,0,2.57,2.57h2.59"/></g></g></svg>