<svg xmlns="http://www.w3.org/2000/svg" viewBox="0 0 236 116" enable-background="new 0 0 236 116"><path stroke="#231F20" stroke-width="2" stroke-linejoin="round" stroke-miterlimit="10" stroke-dasharray="2,2" fill="none" d="M43.4 59.4h50.6M152.5 59.4h50.6"/><g stroke="#2D2C2A" stroke-miterlimit="10" fill="none"><circle stroke-width="2" cx="122.6" cy="58.8" r="26.5"/><g stroke-linecap="round" stroke-linejoin="round"><path d="M120.9 55.9s-2.2-5.5-6.6-5.5h-8.1M140 50.4h-8.1c-7.4.3-10.3 16.3-17.6 16.3h-8.1M124.6 62.5s2.9 4.4 7.4 4.2h8.1M137.1 46.3l2.9 4.1-2.9 4.1M137.1 62.6l2.9 4.1-2.9 4.1"/></g></g><g stroke="#231F20" stroke-miterlimit="10" fill="none"><path d="M38 67.4c0 1.9-1.6 3.5-3.5 3.5h-27c-1.9 0-3.5-1.6-3.5-3.5v-16.5c0-1.9 1.6-3.5 3.5-3.5h27c1.9 0 3.5 1.6 3.5 3.5v16.5zM7.4 64.9c0 1.5 1.2 3.7 7.6 3.7h4.4c6.7 0 7.9-2.4 7.9-3.5v-11.9c0-1.5-1.2-3.4-7.9-3.4h-4.4c-6.5 0-7.6 1.7-7.6 3.2v11.9z"/><circle cx="32.7" cy="53.9" r="2.4"/><circle cx="32.7" cy="62.1" r="2.4"/><path stroke-linecap="round" d="M14.5 47.4c0-2.4 3.5-4.7 6.5-4.7s6.5 2.4 6.5 4.7M23.9 43.3l5.3-5.3M18 43.3l-5.3-5.3"/></g><g stroke="#231F20" stroke-linecap="round" stroke-linejoin="round" stroke-miterlimit="10" fill="none"><path d="M232.2 74.9h-25.9v-34.1h16.5l9.4 9.4zM222.8 40.8v9.4h9.4M211 64.3l6.4-5.7 4.4 3 5.7-6.1M211 51.9v17.1h16.7"/></g></svg>