<svg xmlns="http://www.w3.org/2000/svg" viewBox="0 0 236 116" enable-background="new 0 0 236 116"><path stroke="#231F20" stroke-width="2" stroke-linejoin="round" stroke-miterlimit="10" stroke-dasharray="2,2" fill="none" d="M158.5 57.4h31.5M70.9 57.4h26.6"/><g stroke="#2D2C2A" stroke-miterlimit="10" fill="none"><path d="M214.4 67h10.7M214.4 63.7h10.7M214.4 60.4h10.7M214.4 57.1h5.2"/><path stroke-linecap="round" stroke-linejoin="round" d="M206 67h-5.7v-2.4s1.6-2 4.4-2v-1.7s-1.5-.5-1.5-2.6c0-1.4 0-2.8 2.8-2.8s2.8 1.4 2.8 2.8c0 2.1-1.3 2.6-1.3 2.6v1.7c2.8 0 3.9 2 3.9 2v2.4h-5.4z"/><g stroke-linecap="round" stroke-linejoin="round"><path d="M192.5 40.2h40.9v33.8h-40.9zM192.5 50.1h40.8"/><circle cx="215.7" cy="45.2" r=".7"/><circle cx="221.4" cy="45.2" r=".7"/><circle cx="227" cy="45.2" r=".7"/></g></g><g stroke="#2D2C2A" stroke-miterlimit="10" fill="none"><circle stroke-width="2" cx="127.9" cy="57.4" r="27"/><g stroke-linecap="round" stroke-linejoin="round"><path d="M126.2 54.4s-2.2-5.6-6.7-5.6h-8.2M145.6 48.9h-8.2c-7.5.3-10.5 16.6-17.9 16.6h-8.2M130 61.1s3 4.5 7.5 4.3h8.2M142.7 44.7l2.9 4.2-2.9 4.1M142.7 61.3l2.9 4.1-2.9 4.2"/></g></g><g stroke="#2D2C2A" stroke-miterlimit="10" fill="none"><path d="M28.6 29.5h-9.2l-4 4v-4h-5.5v-11.3h18.7zM21.4 32.1v3.9h6.5l3.1 3.1v-3.1h3.1v-7h-2.3"/><circle cx="22.1" cy="27.7" r="19.5"/></g><g stroke-miterlimit="10" fill="none"><g stroke="#231F20"><path d="M16.9 84.7c.8-.8.8-2.1 0-2.8l-2.1-2.1c-.8-.8-2.1-.8-2.8 0l-1.2 1.2c-1 1-1.2 2.6-.4 3.8 3.4 5.1 7.9 9.7 13.1 13.1 1.2.8 2.8.6 3.8-.4l1.2-1.2c.8-.8.8-2.1 0-2.8l-2.1-2.1c-.8-.8-2.1-.8-2.8 0l-.9.6c-2.3-1.9-4.6-4.2-6.5-6.5l.7-.8zM21.4 75.2c6.4 0 11.5 5.2 11.5 11.5M21.4 79.2c4.2 0 7.5 3.4 7.5 7.5M21.6 83c1.9 0 3.5 1.6 3.5 3.5"/></g><circle stroke="#2D2C2A" cx="22.1" cy="87" r="19.5"/></g><path stroke="#231F20" stroke-width="2" stroke-linejoin="round" stroke-miterlimit="10" stroke-dasharray="2,2" fill="none" d="M46.5 28.7h20.8v59.3h-20.8"/></svg>