<svg xmlns="http://www.w3.org/2000/svg" viewBox="0 0 236 116" enable-background="new 0 0 236 116"><path stroke="#231F20" stroke-width="2" stroke-linejoin="round" stroke-miterlimit="10" stroke-dasharray="2,2" fill="none" d="M80.8 59.3h38.8M170.2 59.3h28.3M141.2 24.2h58.7M141.2 94.8h58.7"/><path stroke="#2D2C2A" stroke-width="2" stroke-miterlimit="10" d="M61.4 72.4s14.1-1.8 14.1-15.7c0-8.8-7.2-16-16.3-15.7-3.5-7.4-11.1-12.6-19.9-12.6-11.7 0-21.2 9.1-21.9 20.7-7.3-1.5-14.2 4-14.2 11.5 0 9.8 8.5 11.5 11.5 11.7" fill="none"/><g fill="#2D2C2A"><path d="M39.2 49.1c-7.7 0-14 6.3-14 14s6.3 14 14 14 14-6.3 14-14-6.3-14-14-14zm0 24.3c-5.7 0-10.3-4.6-10.3-10.3 0-5.7 4.6-10.3 10.3-10.3 5.7 0 10.3 4.6 10.3 10.3 0 5.7-4.6 10.3-10.3 10.3z"/><circle cx="42.6" cy="59.6" r="2.9"/><circle cx="42.6" cy="66.6" r="2.9"/><circle cx="35.7" cy="66.6" r="2.9"/><circle cx="35.7" cy="59.6" r="2.9"/></g><g stroke="#2D2C2A" stroke-miterlimit="10" fill="none"><circle stroke-width="2" cx="143.8" cy="59.8" r="22.5"/><g stroke-linecap="round" stroke-linejoin="round"><path d="M142.3 57.3s-1.9-4.6-5.6-4.6h-6.9M158.6 52.6h-6.9c-6.2.3-8.7 13.9-15 13.9h-6.9M145.5 62.9s2.5 3.7 6.2 3.6h6.9M156.1 49.1l2.5 3.5-2.5 3.5M156.1 63l2.5 3.5-2.5 3.4"/></g></g><path stroke="#231F20" stroke-width="2" stroke-linejoin="round" stroke-miterlimit="10" stroke-dasharray="2,2" fill="none" d="M142.5 27.1v7.5M142.5 84.6v7.5"/><g stroke="#231F20" stroke-miterlimit="10" fill="none"><path d="M215.6 24.7v3.3l-6.3 2.3c-1.5.5-2.5 1.8-2.5 3.4v2.5h23.9v-2.5c0-1.6-1.1-2.8-2.6-3.4l-6.2-2.3v-3.6"/><ellipse cx="218.6" cy="18" rx="6.3" ry="7.5"/><path d="M224.8 17.3h-.6c-2.1.4-3.5-.4-4.7-2.4-.7 1.3-2.9 2.4-4.7 2.4-.9 0-1.7-.2-2.4-.6"/></g><g stroke="#231F20" stroke-miterlimit="10" fill="none"><path d="M215.6 60.3v3.3l-6.3 2.3c-1.5.5-2.5 1.8-2.5 3.4v2.5h23.9v-2.5c0-1.6-1.1-2.8-2.6-3.4l-6.2-2.3v-3.6"/><ellipse cx="218.6" cy="53.7" rx="6.3" ry="7.5"/><path d="M224.8 53h-.6c-2.1.4-3.5-.4-4.7-2.4-.7 1.3-2.9 2.4-4.7 2.4-.9 0-1.7-.2-2.4-.6"/></g><g stroke="#231F20" stroke-miterlimit="10" fill="none"><path d="M215.6 96v3.3l-6.3 2.3c-1.5.5-2.5 1.8-2.5 3.4v2.5h23.9v-2.5c0-1.6-1.1-2.8-2.6-3.4l-6.2-2.3v-3.6"/><ellipse cx="218.6" cy="89.4" rx="6.3" ry="7.5"/><path d="M224.8 88.7h-.6c-2.1.4-3.5-.4-4.7-2.4-.7 1.3-2.9 2.4-4.7 2.4-.9 0-1.7-.2-2.4-.6"/></g></svg>