<svg xmlns="http://www.w3.org/2000/svg" viewBox="0 0 236 116" enable-background="new 0 0 236 116"><g stroke="#2D2C2A" stroke-miterlimit="10" fill="none"><circle stroke-width="2" cx="118.7" cy="58" r="26.7"/><g stroke-linecap="round" stroke-linejoin="round"><path d="M117 55s-2.2-5.5-6.7-5.5h-8.2M136.3 49.5h-8.2c-7.4.3-10.4 16.5-17.8 16.5h-8.2M120.7 61.7s3 4.4 7.4 4.3h8.2M133.3 45.4l3 4.1-3 4.1M133.3 61.9l3 4.1-3 4.1"/></g></g><path stroke="#231F20" stroke-width="2" stroke-linejoin="round" stroke-miterlimit="10" stroke-dasharray="2,2" fill="none" d="M38.6 58.6h51M148.6 58.6h51"/><g stroke="#2D2C2A" stroke-linecap="round" stroke-linejoin="round" stroke-miterlimit="10" fill="none"><path d="M211.7 67.5h-7.1c-2 0-3.6-1.6-3.6-3.6v-15.4c0-2 1.6-3.6 3.6-3.6h24.9c2 0 3.6 1.6 3.6 3.6v15.4c0 2-1.6 3.6-3.6 3.6h-8.3M216.4 79.3v-16.6M210.5 73.4l5.9 5.9 6-5.9M201 50.9h32"/><circle cx="205.2" cy="47.9" r=".6"/><circle cx="209.3" cy="47.9" r=".6"/><circle cx="213.5" cy="47.9" r=".6"/></g><g stroke="#2D2C2A" stroke-linecap="round" stroke-linejoin="round" stroke-miterlimit="10" fill="none"><path d="M13.6 67.5h-7.1c-2 0-3.6-1.6-3.6-3.6v-15.4c0-2 1.6-3.6 3.6-3.6h24.9c2 0 3.6 1.6 3.6 3.6v15.4c0 2-1.6 3.6-3.6 3.6h-8.3M18.4 56.8v22.5M24.3 62.7l-5.9-5.9-6 5.9M3 50.9h32"/><circle cx="7.1" cy="47.9" r=".6"/><circle cx="11.3" cy="47.9" r=".6"/><circle cx="15.4" cy="47.9" r=".6"/></g></svg>