<svg id="twiml-diagram" xmlns="http://www.w3.org/2000/svg" viewBox="0 0 594 293.5"><style>.st0{enable-background:new}.st1{fill:#FFF}.st2{fill:#ee3248}.st3{fill:#36d576}.st4{fill:#575b73}.st5{fill:#565b73}.st6{fill:#444}.st7{fill:#94979b}.st8{fill:#b5b7b9}.st9{fill:#020524}</style><title>diagram_incoming_2</title><g class="st0"><path class="st1" d="M146.1 203.6c-2.2 0-3.7-1.8-3.7-4.3s1.5-4.3 3.7-4.3 3.7 1.8 3.7 4.3c.1 2.5-1.5 4.3-3.7 4.3zm0-7.9c-1.7 0-2.9 1.4-2.9 3.5s1.2 3.6 2.9 3.6 2.9-1.4 2.9-3.5-1.1-3.6-2.9-3.6zM155.3 203.4l-.1-.8c-.6.6-1.3 1-2 1-1.1 0-1.7-.7-1.7-1.7v-4.1h.8v3.9c0 .7.3 1.2 1.1 1.2.6 0 1.2-.4 1.8-1v-4.1h.8v5.7h-.7zM159.6 203.5c-.9 0-1.5-.3-1.5-1.4v-3.7h-.9v-.7h.9v-2l.8-.1v2.1h1.3l.1.7h-1.4v3.6c0 .6.2.8.8.8.2 0 .4 0 .5-.1l.1.7c-.1.1-.4.1-.7.1zM163.8 203.5c-.8 0-1.4-.2-2.1-.4v-8.2l.8-.1v3.7c.4-.4 1-.9 1.8-.9 1.2 0 2.3.9 2.3 2.8 0 2.1-1.2 3.1-2.8 3.1zm.4-5.2c-.6 0-1.2.4-1.7 1v3.3c.4.1.7.2 1.3.2 1.1 0 1.9-.7 1.9-2.4.1-1.3-.6-2.1-1.5-2.1zM170.3 203.5c-1.5 0-2.5-1.1-2.5-3s1.1-3 2.5-3c1.5 0 2.6 1.1 2.6 3 0 2-1.2 3-2.6 3zm0-5.2c-1.1 0-1.7.9-1.7 2.3 0 1.3.6 2.3 1.7 2.3 1.2 0 1.8-.9 1.8-2.3 0-1.3-.7-2.3-1.8-2.3zM178.2 203.4l-.1-.8c-.6.6-1.3 1-2 1-1.1 0-1.7-.7-1.7-1.7v-4.1h.8v3.9c0 .7.3 1.2 1.1 1.2.6 0 1.2-.4 1.8-1v-4.1h.8v5.7h-.7zM184.3 203.4v-3.9c0-.7-.3-1.2-1.1-1.2-.6 0-1.2.4-1.8 1v4.1h-.8v-5.7h.6l.1.8c.6-.6 1.3-1 2-1 1.1 0 1.7.6 1.7 1.7v4.1h-.7zM190.8 203.4l-.1-.8c-.4.5-1 .9-1.8.9-1.2 0-2.3-.9-2.3-2.8 0-2.1 1.2-3.1 2.6-3.1.6 0 1.1.1 1.5.3v-3l.8-.1v8.6h-.7zm-.1-4.7c-.4-.2-.9-.3-1.5-.3-1 0-1.8.8-1.8 2.4 0 1.4.7 2.1 1.6 2.1.7 0 1.2-.4 1.7-1v-3.2zM199.6 203.6c-2.2 0-3.8-1.7-3.8-4.3 0-2.5 1.5-4.3 3.8-4.3.9 0 1.7.3 2.3.7l-.1.8c-.6-.5-1.4-.8-2.2-.8-1.8 0-3 1.4-3 3.5s1.1 3.5 2.9 3.5c.9 0 1.7-.3 2.4-.9l.1.8c-.5.6-1.4 1-2.4 1zM207.2 203.4l-.1-.8c-.5.5-1.2.9-2 .9-1 0-1.7-.5-1.7-1.5 0-1.3 1.1-2 3.6-2.2v-.4c0-.8-.5-1.1-1.2-1.1s-1.3.2-2 .5l-.1-.7c.7-.3 1.3-.5 2.1-.5 1.3 0 1.9.6 1.9 1.8v4h-.5zm-.1-3c-2.2.2-2.9.8-2.9 1.5 0 .6.4.9 1 .9s1.3-.3 1.8-.9v-1.5zM209.7 203.4v-8.5l.8-.1v8.6h-.8zM212.5 203.4v-8.5l.8-.1v8.6h-.8z"/></g><g class="st0"><path class="st1" d="M385.7 203.4v-8.3h.8v8.3h-.8zM392.3 203.4v-3.9c0-.7-.3-1.2-1.1-1.2-.6 0-1.2.4-1.8 1v4.1h-.8v-5.7h.6l.1.8c.6-.6 1.3-1 2-1 1.1 0 1.7.6 1.7 1.7v4.1h-.7zM397 203.5c-.8 0-1.4-.2-2.1-.4v-8.2l.8-.1v3.7c.4-.4 1-.9 1.8-.9 1.2 0 2.3.9 2.3 2.8-.1 2.1-1.3 3.1-2.8 3.1zm.4-5.2c-.6 0-1.2.4-1.7 1v3.3c.4.1.7.2 1.3.2 1.1 0 1.9-.7 1.9-2.4 0-1.3-.6-2.1-1.5-2.1zM403.4 203.5c-1.5 0-2.5-1.1-2.5-3s1.1-3 2.5-3c1.5 0 2.6 1.1 2.6 3 0 2-1.1 3-2.6 3zm0-5.2c-1.1 0-1.7.9-1.7 2.3 0 1.3.6 2.3 1.7 2.3 1.2 0 1.8-.9 1.8-2.3 0-1.3-.6-2.3-1.8-2.3zM411.3 203.4l-.1-.8c-.6.6-1.3 1-2 1-1.1 0-1.7-.7-1.7-1.7v-4.1h.8v3.9c0 .7.3 1.2 1.1 1.2.6 0 1.2-.4 1.8-1v-4.1h.8v5.7h-.7zM417.5 203.4v-3.9c0-.7-.3-1.2-1.1-1.2-.6 0-1.2.4-1.8 1v4.1h-.8v-5.7h.6l.1.8c.6-.6 1.3-1 2-1 1.1 0 1.7.6 1.7 1.7v4.1h-.7zM424 203.4l-.1-.8c-.4.5-1 .9-1.8.9-1.2 0-2.3-.9-2.3-2.8 0-2.1 1.2-3.1 2.6-3.1.6 0 1.1.1 1.5.3v-3l.8-.1v8.6h-.7zm-.2-4.7c-.4-.2-.9-.3-1.5-.3-1 0-1.8.8-1.8 2.4 0 1.4.7 2.1 1.6 2.1.7 0 1.2-.4 1.7-1v-3.2zM432.7 203.6c-2.2 0-3.8-1.7-3.8-4.3 0-2.5 1.5-4.3 3.8-4.3.9 0 1.7.3 2.3.7l-.1.8c-.6-.5-1.4-.8-2.2-.8-1.8 0-3 1.4-3 3.5s1.1 3.5 2.9 3.5c.9 0 1.7-.3 2.4-.9l.1.8c-.5.6-1.4 1-2.4 1zM440.4 203.4l-.1-.8c-.5.5-1.2.9-2 .9-1 0-1.7-.5-1.7-1.5 0-1.3 1.1-2 3.6-2.2v-.4c0-.8-.5-1.1-1.2-1.1s-1.3.2-2 .5l-.1-.7c.7-.3 1.3-.5 2.1-.5 1.3 0 1.9.6 1.9 1.8v4h-.5zm-.2-3c-2.2.2-2.9.8-2.9 1.5 0 .6.4.9 1 .9s1.3-.3 1.8-.9v-1.5zM442.9 203.4v-8.5l.8-.1v8.6h-.8zM445.7 203.4v-8.5l.8-.1v8.6h-.8z"/></g><path class="st2" d="M104 218.5h142v1H104z"/><path class="st2" d="M245 223l6.9-4-6.9-4z"/><path class="st3" d="M342 218.5h142v1H342z"/><path class="st3" d="M483 223l6.9-4-6.9-4z"/><circle class="st2" cx="291.2" cy="213.1" r="5" id="_Path_"/><circle class="st2" cx="302.8" cy="213.1" r="5" id="_Path_2"/><circle class="st2" cx="291.2" cy="224.8" r="5" id="_Path_3"/><circle class="st2" cx="302.8" cy="224.8" r="5" id="_Path_4"/><path class="st2" d="M297 194c-13.8 0-25 11.2-25 25s11.2 25 25 25 25-11.2 25-25-11.2-25-25-25zm0 43.3c-10.1 0-18.3-8.2-18.3-18.3 0-10.1 8.2-18.3 18.3-18.3 10.1 0 18.3 8.2 18.3 18.3s-8.2 18.3-18.3 18.3z" id="_Group_"/><path class="st0 st4" d="M29.5 287.8h-.9v3.4h-1.1v-8.3h2.2c1.8 0 2.8.9 2.8 2.4 0 1.6-1.2 2.5-3 2.5zm.1-3.9h-1v2.9h.9c1.1 0 1.8-.5 1.8-1.5s-.6-1.4-1.7-1.4zM40.7 291.2l-1-2.6h-3.4l-.9 2.5h-1.1l3.2-8.3h1.1l3.2 8.2-1.1.2zm-2.7-7l-1.3 3.5h2.7l-1.4-3.5zM50.6 291l-1.1.3-2.5-3.6h-.9v3.5H45v-8.3h2.3c1.7 0 2.7.8 2.7 2.4 0 1.2-.7 2-1.8 2.3l2.4 3.4zm-3.4-7.1h-1.1v2.8h1c1.1 0 1.8-.5 1.8-1.4-.1-.9-.6-1.4-1.7-1.4z"/><g class="st0"><path class="st4" d="M56.6 283.9v7.2h-1.1v-7.2h-2.6v-1h6.3l.2 1h-2.8zM64.9 287.9v3.3h-1.1v-3.3l-2.9-4.8 1.1-.2 2.4 4 2.3-4h1.2l-3 5zM79.7 291.2l-1-2.6h-3.4l-.9 2.5h-1.1l3.2-8.3h1.1l3.2 8.2-1.1.2zm-2.7-7l-1.3 3.5h2.7l-1.4-3.5z"/></g><path class="st0 st4" d="M514.3 287.8h-.9v3.4h-1.1v-8.3h2.2c1.8 0 2.8.9 2.8 2.4 0 1.6-1.2 2.5-3 2.5zm.2-3.9h-1v2.9h.9c1.1 0 1.8-.5 1.8-1.5s-.6-1.4-1.7-1.4zM525.6 291.2l-1-2.6h-3.4l-.9 2.5h-1.1l3.2-8.3h1.1l3.2 8.2-1.1.2zm-2.7-7l-1.3 3.5h2.7l-1.4-3.5zM535.5 291l-1.1.3-2.5-3.6h-.9v3.5h-1.1v-8.3h2.3c1.7 0 2.7.8 2.7 2.4 0 1.2-.7 2-1.8 2.3l2.4 3.4zm-3.5-7.1h-1.1v2.8h1c1.1 0 1.8-.5 1.8-1.4 0-.9-.6-1.4-1.7-1.4z"/><g class="st0"><path class="st4" d="M541.4 283.9v7.2h-1.1v-7.2h-2.6v-1h6.3l.2 1h-2.8zM549.8 287.9v3.3h-1.1v-3.3l-2.9-4.8 1.1-.2 2.4 4 2.3-4h1.2l-3 5zM560.7 291.1h-2v-8.3h2c1.8 0 2.7.9 2.7 2.1 0 .8-.4 1.4-1.2 1.7.9.3 1.5.9 1.5 2 0 1.8-1.1 2.5-3 2.5zm0-7.3h-.9v2.5h.8c1.1 0 1.7-.5 1.7-1.3 0-.7-.5-1.2-1.6-1.2zm0 3.5h-.9v2.9h1c1.2 0 1.9-.5 1.9-1.4-.1-1-.7-1.5-2-1.5z"/></g><path class="st0 st5" d="M267.6 6.9v3.3h-1.1V6.9l-3-4.9 1.1-.2 2.4 4 2.3-4h1.2l-2.9 5.1z"/><g class="st0"><path class="st5" d="M276.6 10.3c-2.3 0-3.8-1.7-3.8-4.3 0-2.6 1.5-4.3 3.8-4.3s3.8 1.7 3.8 4.3-1.5 4.3-3.8 4.3zm0-7.6C275 2.7 274 4 274 6s1 3.3 2.7 3.3c1.6 0 2.7-1.3 2.7-3.3s-1.2-3.3-2.8-3.3zM286.2 10.3c-2 0-3.2-1.3-3.2-3.3V1.9h1.1v5c0 1.4.6 2.4 2.1 2.4 1.4 0 2.1-.9 2.1-2.4v-5h1.1V7c0 2-1.2 3.3-3.2 3.3zM298 10l-1.1.3-2.5-3.6h-.9v3.5h-1.1V1.9h2.3c1.7 0 2.7.8 2.7 2.4 0 1.2-.7 2-1.8 2.3L298 10zm-3.5-7.1h-1.1v2.8h1c1.1 0 1.8-.5 1.8-1.4 0-.9-.6-1.4-1.7-1.4zM309.6 10.2l-1-2.6h-3.4l-.9 2.5h-1.1l3.2-8.3h1.1l3.2 8.2-1.1.2zm-2.7-7l-1.3 3.5h2.7l-1.4-3.5zM315.1 6.8h-.9v3.4h-1.1V1.9h2.2c1.8 0 2.8.9 2.8 2.4 0 1.6-1.2 2.5-3 2.5zm.1-3.9h-1v2.9h.9c1.1 0 1.8-.5 1.8-1.5s-.6-1.4-1.7-1.4zM322.5 6.8h-.9v3.4h-1.1V1.9h2.2c1.8 0 2.8.9 2.8 2.4 0 1.6-1.2 2.5-3 2.5zm.1-3.9h-1v2.9h.9c1.1 0 1.8-.5 1.8-1.5.1-1-.5-1.4-1.7-1.4z"/></g><path class="st6" d="M324 78.5h-54c-2.2 0-4-1.8-4-4v-46c0-2.2 1.8-4 4-4h54c2.2 0 4 1.8 4 4v46c0 2.2-1.8 4-4 4zm-54-52c-1.1 0-2 .9-2 2v46c0 1.1.9 2 2 2h54c1.1 0 2-.9 2-2v-46c0-1.1-.9-2-2-2h-54z"/><path class="st6" d="M285.7 59.5c-.1 0-.2 0-.2-.1l-8.8-5c-.2-.1-.3-.3-.3-.4s.1-.3.3-.4l8.8-5c.2-.1.5-.1.7.2.1.2.1.5-.2.7l-8 4.6 8 4.6c.2.1.3.4.2.7-.1 0-.3.1-.5.1zM308.2 59.5c-.2 0-.3-.1-.4-.3-.1-.2-.1-.5.2-.7l8-4.6-8-4.6c-.2-.1-.3-.4-.2-.7.1-.2.4-.3.7-.2l8.8 5c.2.1.3.3.3.4s-.1.3-.3.4l-8.8 5c-.1.3-.2.3-.3.3zM290.8 69.5h-.2c-.3-.1-.4-.4-.3-.7l11.2-27.5c.1-.3.4-.4.7-.3.3.1.4.4.3.7l-11.2 27.5c-.2.2-.4.3-.5.3zM267 32.5h60v2h-60z"/><path class="st0 st7" d="M220.9 138.9h-.7l-2.4-7.1-2.4 7.1h-.7l-2.5-8.2.8-.2 2.1 7.1 2.3-7h.9l2.3 7 2-7h.8l-2.5 8.3z"/><g class="st0"><path class="st7" d="M228.5 136.1h-3.9c0 1.4.7 2.2 1.8 2.2.8 0 1.4-.3 2-.8l.1.7c-.6.5-1.3.8-2.2.8-1.5 0-2.6-1-2.6-3 0-1.8 1.1-3 2.4-3 1.5 0 2.3 1.3 2.3 2.8.1.2.1.2.1.3zm-2.3-2.4c-.9 0-1.5.7-1.6 1.8h3.1c-.1-1-.6-1.8-1.5-1.8zM232.1 139c-.8 0-1.4-.2-2.1-.4v-8.2l.8-.1v3.7c.4-.4 1-.9 1.8-.9 1.2 0 2.3.9 2.3 2.8-.1 2.1-1.2 3.1-2.8 3.1zm.4-5.2c-.6 0-1.2.4-1.7 1v3.3c.4.1.7.2 1.3.2 1.1 0 1.9-.7 1.9-2.4 0-1.4-.6-2.1-1.5-2.1zM240 138.9V135c0-.7-.3-1.2-1.1-1.2-.6 0-1.2.4-1.8 1v4.1h-.8v-8.5l.8-.1v3.7c.6-.5 1.2-.9 2-.9 1.1 0 1.7.6 1.7 1.7v4.1h-.8zM244.8 139c-1.5 0-2.5-1.1-2.5-3s1.1-3 2.5-3c1.5 0 2.6 1.1 2.6 3s-1.1 3-2.6 3zm0-5.2c-1.1 0-1.7.9-1.7 2.3 0 1.3.6 2.3 1.7 2.3 1.2 0 1.8-.9 1.8-2.3s-.6-2.3-1.8-2.3zM251.1 139c-1.5 0-2.5-1.1-2.5-3s1.1-3 2.5-3c1.5 0 2.6 1.1 2.6 3s-1.1 3-2.6 3zm0-5.2c-1.1 0-1.7.9-1.7 2.3 0 1.3.6 2.3 1.7 2.3 1.2 0 1.8-.9 1.8-2.3s-.7-2.3-1.8-2.3z"/></g><path class="st0 st7" d="M258.8 139l-2.8-3.1v3h-.8v-8.5l.8-.1v5.4l2.5-2.4h1l-2.6 2.5 2.8 3.1-.9.1zM262.3 139c-.8 0-1.5-.2-2-.5l.1-.8c.5.3 1.2.6 2 .6s1.3-.3 1.3-.9c0-.6-.3-.8-1.5-1.1-1.3-.3-1.8-.7-1.8-1.7 0-.9.8-1.5 1.9-1.5.7 0 1.3.2 1.8.4l-.1.8c-.5-.3-1.1-.4-1.7-.4-.8 0-1.2.3-1.2.8s.3.7 1.3 1c1.3.4 2 .8 2 1.8 0 .9-.8 1.5-2.1 1.5zM331.9 131.3v7.5h-.8v-7.5h-2.7v-.7h6.1l.1.7h-2.7z"/><g class="st0"><path class="st7" d="M340 138.9h-.7l-1.4-4.7-1.4 4.7h-.7l-1.9-5.7.8-.1 1.5 4.7 1.4-4.6h.7l1.4 4.6 1.4-4.6h.8l-1.9 5.7zM343.7 131.9c-.3 0-.6-.3-.6-.6s.3-.6.6-.6.6.3.6.6-.3.6-.6.6zm-.4 7v-5.7h.8v5.7h-.8zM354.3 138.9l-.5-7.1-2.9 7.1h-.6l-2.9-7.1-.5 7.1h-.9l.7-8.3h1l2.8 7.2 2.9-7.2h1l.7 8.3h-.8zM357.1 138.9v-8.3h.8v7.5h3.2l.1.7h-4.1z"/></g><path class="st0 st7" d="M370.8 138.8l-.8.2-2.7-3.7h-1.1v3.7h-.8v-8.3h2.1c1.6 0 2.7.8 2.7 2.3 0 1.3-.8 2-2 2.3l2.6 3.5zm-3.3-7.5h-1.2v3.2h1.1c1.2 0 2-.6 2-1.6-.1-1-.7-1.6-1.9-1.6z"/><g class="st0"><path class="st7" d="M376.2 136.1h-3.9c0 1.4.7 2.2 1.8 2.2.8 0 1.4-.3 2-.8l.1.7c-.6.5-1.3.8-2.2.8-1.5 0-2.6-1-2.6-3 0-1.8 1.1-3 2.4-3 1.5 0 2.3 1.3 2.3 2.8.1.2.1.2.1.3zm-2.3-2.4c-.9 0-1.5.7-1.6 1.8h3.1c-.1-1-.6-1.8-1.5-1.8zM379.4 139c-.8 0-1.5-.2-2-.5l.1-.8c.5.3 1.2.6 2 .6s1.3-.3 1.3-.9c0-.6-.3-.8-1.5-1.1-1.3-.3-1.8-.7-1.8-1.7 0-.9.8-1.5 1.9-1.5.7 0 1.3.2 1.8.4l-.1.8c-.5-.3-1.1-.4-1.7-.4-.8 0-1.2.3-1.2.8s.3.7 1.3 1c1.3.4 2 .8 2 1.8 0 .9-.8 1.5-2.1 1.5zM385.2 139c-.6 0-1.1-.1-1.5-.3v2.3l-.8.1v-7.9h.6l.1.8c.4-.5 1-.9 1.8-.9 1.2 0 2.3.9 2.3 2.8.1 2.1-1.1 3.1-2.5 3.1zm.3-5.2c-.7 0-1.2.4-1.7 1v3.1c.4.2.9.3 1.5.3 1 0 1.8-.8 1.8-2.4-.1-1.3-.7-2-1.6-2zM391.5 139c-1.5 0-2.5-1.1-2.5-3s1.1-3 2.5-3c1.5 0 2.6 1.1 2.6 3s-1.1 3-2.6 3zm0-5.2c-1.1 0-1.7.9-1.7 2.3 0 1.3.6 2.3 1.7 2.3 1.2 0 1.8-.9 1.8-2.3s-.6-2.3-1.8-2.3zM399.3 138.9V135c0-.7-.3-1.2-1.1-1.2-.6 0-1.2.4-1.8 1v4.1h-.8v-5.7h.6l.1.8c.6-.6 1.3-1 2-1 1.1 0 1.7.6 1.7 1.7v4.1h-.7zM403.5 139c-.8 0-1.5-.2-2-.5l.1-.8c.5.3 1.2.6 2 .6s1.3-.3 1.3-.9c0-.6-.3-.8-1.5-1.1-1.3-.3-1.8-.7-1.8-1.7 0-.9.8-1.5 1.9-1.5.7 0 1.3.2 1.8.4l-.1.8c-.5-.3-1.1-.4-1.7-.4-.8 0-1.2.3-1.2.8s.3.7 1.3 1c1.3.4 2 .8 2 1.8.1.9-.8 1.5-2.1 1.5zM411.5 136.1h-3.9c0 1.4.7 2.2 1.8 2.2.8 0 1.4-.3 2-.8l.1.7c-.6.5-1.3.8-2.2.8-1.5 0-2.6-1-2.6-3 0-1.8 1.1-3 2.4-3 1.5 0 2.3 1.3 2.3 2.8.1.2.1.2.1.3zm-2.3-2.4c-.9 0-1.5.7-1.6 1.8h3.1c-.1-1-.5-1.8-1.5-1.8z"/></g><g id="_Group_2"><path class="st8" d="M285.7 169.5c-.3 0-.5-.1-.7-.3-.2-.2-.3-.4-.3-.7 0-.1 0-.3.1-.4 0-.1.1-.2.2-.3.4-.4 1-.4 1.4 0 .1.1.2.2.2.3s.1.2.1.4c0 .3-.1.5-.3.7-.2.2-.4.3-.7.3zM284.7 162.7c0-.5.4-1 1-1 .5 0 1 .5 1 1s-.5 1-1 1c-.6 0-1-.5-1-1zm0-5.8c0-.5.4-1 1-1 .5 0 1 .5 1 1s-.5 1-1 1c-.6 0-1-.5-1-1zm0-5.8c0-.5.4-1 1-1 .5 0 1 .5 1 1s-.5 1-1 1c-.6 0-1-.5-1-1zm0-5.8c0-.5.4-1 1-1 .5 0 1 .5 1 1s-.5 1-1 1c-.6 0-1-.5-1-1zm0-5.8c0-.6.4-1 1-1 .5 0 1 .4 1 1 0 .5-.5 1-1 1-.6 0-1-.5-1-1zm0-5.8c0-.5.4-1 1-1 .5 0 1 .5 1 1 0 .6-.5 1-1 1-.6 0-1-.5-1-1zm0-5.8c0-.6.4-1 1-1 .5 0 1 .4 1 1 0 .5-.5 1-1 1-.6 0-1-.5-1-1zm0-5.8c0-.5.4-1 1-1 .5 0 1 .5 1 1 0 .6-.5 1-1 1-.6 0-1-.5-1-1zm0-5.8c0-.5.4-1 1-1 .5 0 1 .5 1 1s-.5 1-1 1c-.6 0-1-.5-1-1zm0-5.8c0-.6.4-1 1-1 .5 0 1 .4 1 1 0 .5-.5 1-1 1-.6 0-1-.5-1-1zM285.7 105.7c-.1 0-.3 0-.4-.1-.1 0-.2-.1-.3-.2-.2-.2-.3-.5-.3-.7 0-.1 0-.3.1-.4 0-.1.1-.2.2-.3.1-.1.2-.2.3-.2.4-.2.8-.1 1.1.2.1.1.2.2.2.3.1.1.1.2.1.4 0 .3-.1.5-.3.7-.2.2-.5.3-.7.3z"/><path class="st8" d="M289.7 105.8l-4-6.9-4 6.9z"/></g><g id="_Group_3"><path class="st3" d="M308.3 102.5c-.3 0-.5-.1-.7-.3-.1-.1-.2-.2-.2-.3-.1-.1-.1-.2-.1-.4 0-.3.1-.5.3-.7.4-.4 1-.4 1.4 0 .2.2.3.4.3.7 0 .1 0 .3-.1.4 0 .1-.1.2-.2.3-.2.2-.4.3-.7.3zM307.3 159.6c0-.5.5-1 1-1s1 .5 1 1c0 .6-.5 1-1 1s-1-.5-1-1zm0-5.8c0-.5.5-1 1-1s1 .5 1 1-.5 1-1 1-1-.5-1-1zm0-5.9c0-.5.5-1 1-1s1 .5 1 1c0 .6-.5 1-1 1-.5.1-1-.4-1-1zm0-5.8c0-.5.5-1 1-1s1 .5 1 1c0 .6-.5 1-1 1s-1-.4-1-1zm0-5.8c0-.5.5-1 1-1s1 .5 1 1c0 .6-.5 1-1 1s-1-.4-1-1zm0-5.8c0-.6.5-1 1-1s1 .4 1 1c0 .5-.5 1-1 1s-1-.4-1-1zm0-5.8c0-.6.5-1 1-1s1 .4 1 1c0 .5-.5 1-1 1s-1-.4-1-1zm0-5.8c0-.6.5-1 1-1s1 .4 1 1c0 .5-.5 1-1 1s-1-.5-1-1zm0-5.8c0-.5.5-1 1-1s1 .5 1 1-.5 1-1 1-1-.5-1-1zm0-5.8c0-.5.5-1 1-1s1 .5 1 1-.5 1-1 1-1-.5-1-1zM308.3 166.3c-.3 0-.5-.1-.7-.3-.1-.1-.2-.2-.2-.3s-.1-.2-.1-.4c0-.3.1-.5.3-.7.4-.4 1-.4 1.4 0 .2.2.3.5.3.7 0 .1 0 .3-.1.4 0 .1-.1.2-.2.3-.1.1-.2.2-.3.2s-.3.1-.4.1z"/><path class="st3" d="M304.3 164.2l4 6.9 4-6.9z"/></g><path class="st9" d="M538.9 260.7c-1.7 0-3.1-1.4-3.1-3.1s1.4-3.1 3.1-3.1 3.1 1.4 3.1 3.1-1.4 3.1-3.1 3.1zm0-5.1c-1.1 0-2.1.9-2.1 2.1s.9 2.1 2.1 2.1 2.1-.9 2.1-2.1-.9-2.1-2.1-2.1zM533 179h12v1h-12z"/><path class="st9" d="M557 269h-36c-6.1 0-11-4.9-11-11v-78c0-6.1 4.9-11 11-11h36c6.1 0 11 4.9 11 11v78c0 6-4.9 11-11 11zm-36-98c-5 0-9 4-9 9v78c0 5 4 9 9 9h36c5 0 9-4 9-9v-78c0-5-4-9-9-9h-36zM54.9 260.7c-1.7 0-3.1-1.4-3.1-3.1s1.4-3.1 3.1-3.1 3.1 1.4 3.1 3.1-1.4 3.1-3.1 3.1zm0-5.1c-1.1 0-2.1.9-2.1 2.1s.9 2.1 2.1 2.1 2.1-.9 2.1-2.1-.9-2.1-2.1-2.1zM49 179h12v1H49z"/><path class="st9" d="M73 269H37c-6.1 0-11-4.9-11-11v-78c0-6.1 4.9-11 11-11h36c6.1 0 11 4.9 11 11v78c0 6-4.9 11-11 11zm-36-98c-5 0-9 4-9 9v78c0 5 4 9 9 9h36c5 0 9-4 9-9v-78c0-5-4-9-9-9H37z"/></svg>