<svg id="rest-api-diagram" xmlns="http://www.w3.org/2000/svg" viewBox="0 0 594 293.5"><style>.st0{enable-background:new}.st1{fill:#FFF}.st2{fill:#36d576}.st3{fill:#ee3248}.st4{fill:#b5b7b9}.st5{fill:#94979b}.st6{fill:#444}.st7{fill:#54595f}.st8{fill:#020524}.st9{fill:#575b73}.st10{fill:#565b73}.st11{fill:none}</style><title>diagram_outbound_2</title><g class="st0"><path class="st1" d="M389.1 204.6c-2.2 0-3.7-1.8-3.7-4.3s1.5-4.3 3.7-4.3 3.7 1.8 3.7 4.3c.1 2.5-1.5 4.3-3.7 4.3zm0-7.9c-1.7 0-2.9 1.4-2.9 3.5s1.2 3.6 2.9 3.6 2.9-1.4 2.9-3.5-1.1-3.6-2.9-3.6zM398.3 204.4l-.1-.8c-.6.6-1.3 1-2 1-1.1 0-1.7-.7-1.7-1.7v-4.1h.8v3.9c0 .7.3 1.2 1.1 1.2.6 0 1.2-.4 1.8-1v-4.1h.8v5.7h-.7zM402.5 204.5c-.9 0-1.5-.3-1.5-1.4v-3.7h-.9v-.7h.9v-2l.8-.1v2.1h1.3l.1.7h-1.4v3.6c0 .6.2.8.8.8.2 0 .4 0 .5-.1l.1.7c0 .1-.3.1-.7.1zM406.8 204.5c-.8 0-1.4-.2-2.1-.4v-8.2l.8-.1v3.7c.4-.4 1-.9 1.8-.9 1.2 0 2.3.9 2.3 2.8 0 2.1-1.2 3.1-2.8 3.1zm.4-5.2c-.6 0-1.2.4-1.7 1v3.3c.4.1.7.2 1.3.2 1.1 0 1.9-.7 1.9-2.4.1-1.3-.6-2.1-1.5-2.1zM413.3 204.5c-1.5 0-2.5-1.1-2.5-3s1.1-3 2.5-3c1.5 0 2.6 1.1 2.6 3 0 2-1.2 3-2.6 3zm0-5.2c-1.1 0-1.7.9-1.7 2.3 0 1.3.6 2.3 1.7 2.3 1.2 0 1.8-.9 1.8-2.3 0-1.3-.7-2.3-1.8-2.3zM421.2 204.4l-.1-.8c-.6.6-1.3 1-2 1-1.1 0-1.7-.7-1.7-1.7v-4.1h.8v3.9c0 .7.3 1.2 1.1 1.2.6 0 1.2-.4 1.8-1v-4.1h.8v5.7h-.7zM427.3 204.4v-3.9c0-.7-.3-1.2-1.1-1.2-.6 0-1.2.4-1.8 1v4.1h-.8v-5.7h.6l.1.8c.6-.6 1.3-1 2-1 1.1 0 1.7.6 1.7 1.7v4.1h-.7zM433.8 204.4l-.1-.8c-.4.5-1 .9-1.8.9-1.2 0-2.3-.9-2.3-2.8 0-2.1 1.2-3.1 2.6-3.1.6 0 1.1.1 1.5.3v-3l.8-.1v8.6h-.7zm-.1-4.7c-.4-.2-.9-.3-1.5-.3-1 0-1.8.8-1.8 2.4 0 1.4.7 2.1 1.6 2.1.7 0 1.2-.4 1.7-1v-3.2zM442.6 204.6c-2.2 0-3.8-1.7-3.8-4.3 0-2.5 1.5-4.3 3.8-4.3.9 0 1.7.3 2.3.7l-.1.8c-.6-.5-1.4-.8-2.2-.8-1.8 0-3 1.4-3 3.5s1.1 3.5 2.9 3.5c.9 0 1.7-.3 2.4-.9l.1.8c-.5.6-1.4 1-2.4 1zM450.2 204.4l-.1-.8c-.5.5-1.2.9-2 .9-1 0-1.7-.5-1.7-1.5 0-1.3 1.1-2 3.6-2.2v-.4c0-.8-.5-1.1-1.2-1.1s-1.3.2-2 .5l-.1-.7c.7-.3 1.3-.5 2.1-.5 1.3 0 1.9.6 1.9 1.8v4h-.5zm-.1-3c-2.2.2-2.9.8-2.9 1.5 0 .6.4.9 1 .9s1.3-.3 1.8-.9v-1.5zM452.7 204.4v-8.5l.8-.1v8.6h-.8zM455.5 204.4v-8.5l.8-.1v8.6h-.8z"/></g><path class="st2" d="M342 218.5h142v1H342z"/><path class="st2" d="M483 223l6.9-4-6.9-4z"/><path class="st3" d="M272 163.5c0-.5.4-1 1-1 .5 0 1 .5 1 1 0 .6-.5 1-1 1-.6 0-1-.5-1-1zm0-6c0-.5.4-1 1-1 .5 0 1 .5 1 1 0 .6-.5 1-1 1-.6 0-1-.5-1-1zm0-6c0-.5.4-1 1-1 .5 0 1 .5 1 1 0 .6-.5 1-1 1-.6 0-1-.5-1-1zm0-6c0-.6.4-1 1-1 .5 0 1 .4 1 1 0 .5-.5 1-1 1-.6 0-1-.5-1-1zm0-6c0-.6.4-1 1-1 .5 0 1 .4 1 1 0 .5-.5 1-1 1-.6 0-1-.5-1-1zm0-6c0-.6.4-1 1-1 .5 0 1 .4 1 1 0 .5-.5 1-1 1-.6 0-1-.5-1-1zm0-6c0-.6.4-1 1-1 .5 0 1 .4 1 1 0 .5-.5 1-1 1-.6 0-1-.5-1-1z"/><path class="st3" d="M269.5 163.5l4 6.9 4-6.9z"/><path class="st2" d="M319.5 128.5c-.3 0-.5-.1-.7-.3-.2-.2-.3-.5-.3-.7 0-.3.1-.5.3-.7.1-.1.2-.2.3-.2.4-.2.8-.1 1.1.2.2.2.3.4.3.7 0 .3-.1.5-.3.7 0 0-.1.1-.2.1 0 0-.1.1-.2.1s-.1 0-.2.1h-.1zM318 157.5c0-.5.5-1 1-1s1 .5 1 1c0 .6-.5 1-1 1s-1-.5-1-1zm0-6c0-.5.5-1 1-1s1 .5 1 1c0 .6-.5 1-1 1s-1-.5-1-1zm0-6c0-.6.5-1 1-1s1 .4 1 1c0 .5-.5 1-1 1s-1-.5-1-1zm0-6c0-.6.5-1 1-1s1 .4 1 1c0 .5-.5 1-1 1s-1-.5-1-1zm0-6c0-.6.5-1 1-1s1 .4 1 1c0 .5-.5 1-1 1s-1-.5-1-1zM319.5 165.7c-.3 0-.5-.1-.7-.3-.2-.2-.3-.4-.3-.7 0-.1 0-.3.1-.4 0-.1.1-.2.2-.3.2-.2.6-.3.9-.3.1 0 .1 0 .2.1.1 0 .1.1.2.1s.1.1.2.1c.1.1.2.2.2.3 0 .1.1.2.1.4 0 .3-.1.5-.3.7-.3.2-.5.3-.8.3z"/><path class="st2" d="M315.5 163.5l4 6.9 4-6.9z"/><path class="st4" d="M296.5 168.5c-.3 0-.5-.1-.7-.3-.1-.1-.2-.2-.2-.3 0-.1-.1-.2-.1-.4 0-.3.1-.5.3-.7.1-.1.2-.2.3-.2.4-.2.8-.1 1.1.2.2.2.3.5.3.7 0 .3-.1.5-.3.7-.2.2-.4.3-.7.3zM295 161.5c0-.5.4-1 1-1 .5 0 1 .5 1 1 0 .6-.5 1-1 1-.6 0-1-.5-1-1zm0-6c0-.5.4-1 1-1 .5 0 1 .5 1 1 0 .6-.5 1-1 1-.6 0-1-.5-1-1zm0-6c0-.5.4-1 1-1 .5 0 1 .5 1 1 0 .6-.5 1-1 1-.6 0-1-.5-1-1zm0-6c0-.6.4-1 1-1 .5 0 1 .4 1 1 0 .5-.5 1-1 1-.6 0-1-.5-1-1zm0-6c0-.6.4-1 1-1 .5 0 1 .4 1 1 0 .5-.5 1-1 1-.6 0-1-.5-1-1zM296.5 131.2c-.1 0-.3 0-.4-.1-.1 0-.2-.1-.3-.2l-.1-.1c0-.1-.1-.1-.1-.2s0-.1-.1-.2v-.2c0-.3.1-.5.3-.7.2-.2.6-.3.9-.3.1 0 .1 0 .2.1.1 0 .1 0 .2.1l.1.1c.1.1.2.2.2.3.1.1.1.2.1.4v.2c0 .1 0 .1-.1.2 0 .1-.1.1-.1.2l-.1.1c-.1 0-.1.1-.1.1-.1 0-.1.1-.2.1s-.1.1-.2.1h-.2z"/><path class="st4" d="M300.5 131.5l-4-6.9-4 6.9z"/><path class="st0 st5" d="M351.2 110v-7.3l-1.7.7-.1-.6 2-.9h.6v8.1h-.8z"/><g class="st0"><path class="st5" d="M367.5 109.9l-.8.2-2.7-3.7h-1.1v3.7h-.8v-8.3h2.1c1.6 0 2.7.8 2.7 2.3 0 1.3-.8 2-2 2.3l2.6 3.5zm-3.3-7.5H363v3.2h1.1c1.2 0 2-.6 2-1.6-.1-1-.7-1.6-1.9-1.6zM368.9 110v-8.3h4.3v.7h-3.5v2.8h2.8l.1.7h-2.9v3.2h3.6v.7h-4.4z"/></g><path class="st0 st5" d="M376.8 110.1c-.9 0-1.7-.2-2.2-.5l.1-.8c.5.3 1.3.6 2.1.6 1 0 1.7-.6 1.7-1.5 0-.8-.4-1.2-1.7-1.8-1.6-.7-2.2-1.2-2.2-2.4s1-2.1 2.4-2.1c.8 0 1.4.2 1.8.4l-.1.8c-.5-.3-1-.5-1.7-.5-1 0-1.5.6-1.5 1.3 0 .8.4 1.1 1.7 1.7 1.5.7 2.2 1.3 2.2 2.5-.1 1.4-1.2 2.3-2.6 2.3z"/><g class="st0"><path class="st5" d="M383.8 102.4v7.5h-.8v-7.5h-2.7v-.7h6.1l.1.7h-2.7zM396.5 110.1l-1.1-2.8h-3.6l-1 2.7h-.8l3.3-8.3h.9l3.2 8.2-.9.2zm-2.8-7.5l-1.5 3.9h3l-1.5-3.9zM400.8 106.5h-1v3.5h-.8v-8.3h2.1c1.7 0 2.7.8 2.7 2.3-.1 1.7-1.3 2.5-3 2.5zm.1-4.1h-1.2v3.3h1.1c1.3 0 2-.6 2-1.7 0-1-.6-1.6-1.9-1.6zM405.4 110v-8.3h.8v8.3h-.8z"/></g><path class="st0 st5" d="M349.6 128v-.6l3-3.2c.9-.9 1.2-1.5 1.2-2.2 0-1-.6-1.5-1.6-1.5-.8 0-1.6.4-2.2 1l-.1-.8c.6-.5 1.4-.9 2.4-.9 1.5 0 2.4.9 2.4 2.2 0 1-.4 1.7-1.4 2.7l-2.5 2.6h3.9l.1.7h-5.2zM370.3 128h-.7l-2.4-7.1-2.4 7.1h-.7l-2.5-8.2.8-.2 2.1 7.1 2.3-7h.9l2.3 7 2-7h.8l-2.5 8.3z"/><g class="st0"><path class="st5" d="M377.9 125.2H374c0 1.4.7 2.2 1.8 2.2.8 0 1.4-.3 2-.8l.1.7c-.6.5-1.3.8-2.2.8-1.5 0-2.6-1-2.6-3 0-1.8 1.1-3 2.4-3 1.5 0 2.3 1.3 2.3 2.8.1.2.1.2.1.3zm-2.3-2.4c-.9 0-1.5.7-1.6 1.8h3.1c-.1-1-.6-1.8-1.5-1.8zM381.4 128.1c-.8 0-1.4-.2-2.1-.4v-8.2l.8-.1v3.7c.4-.4 1-.9 1.8-.9 1.2 0 2.3.9 2.3 2.8 0 2.1-1.2 3.1-2.8 3.1zm.4-5.2c-.6 0-1.2.4-1.7 1v3.3c.4.1.7.2 1.3.2 1.1 0 1.9-.7 1.9-2.4.1-1.4-.6-2.1-1.5-2.1zM389.4 128v-3.9c0-.7-.3-1.2-1.1-1.2-.6 0-1.2.4-1.8 1v4.1h-.8v-8.5l.8-.1v3.7c.6-.5 1.2-.9 2-.9 1.1 0 1.7.6 1.7 1.7v4.1h-.8zM394.2 128.1c-1.5 0-2.5-1.1-2.5-3s1.1-3 2.5-3c1.5 0 2.6 1.1 2.6 3s-1.2 3-2.6 3zm0-5.2c-1.1 0-1.7.9-1.7 2.3 0 1.3.6 2.3 1.7 2.3 1.2 0 1.8-.9 1.8-2.3-.1-1.4-.7-2.3-1.8-2.3zM400.5 128.1c-1.5 0-2.5-1.1-2.5-3s1.1-3 2.5-3c1.5 0 2.6 1.1 2.6 3-.1 1.9-1.2 3-2.6 3zm0-5.2c-1.1 0-1.7.9-1.7 2.3 0 1.3.6 2.3 1.7 2.3 1.2 0 1.8-.9 1.8-2.3-.1-1.4-.7-2.3-1.8-2.3z"/></g><path class="st0 st5" d="M408.1 128.1l-2.8-3.1v3h-.8v-8.5l.8-.1v5.4l2.5-2.4h1l-2.6 2.5 2.8 3.1-.9.1zM411.7 128.1c-.8 0-1.5-.2-2-.5l.1-.8c.5.3 1.2.6 2 .6s1.3-.3 1.3-.9c0-.6-.3-.8-1.5-1.1-1.3-.3-1.8-.7-1.8-1.7 0-.9.8-1.5 1.9-1.5.7 0 1.3.2 1.8.4l-.1.8c-.5-.3-1.1-.4-1.7-.4-.8 0-1.2.3-1.2.8s.3.7 1.3 1c1.3.4 2 .8 2 1.8 0 .9-.8 1.5-2.1 1.5zM351.8 146.1c-.9 0-1.7-.3-2.3-.6l.1-.8c.7.5 1.3.7 2.2.7 1.2 0 1.9-.6 1.9-1.6 0-1.1-.7-1.7-2.4-1.7h-.3l-.1-.7h.6c1.4 0 2.1-.6 2.1-1.5 0-.8-.6-1.4-1.6-1.4-.9 0-1.6.3-2.2.8l-.1-.8c.6-.4 1.3-.7 2.3-.7 1.6 0 2.4.9 2.4 2.1 0 1.1-.7 1.6-1.5 1.9 1 .3 1.7 1 1.7 2.1 0 1.3-1.2 2.2-2.8 2.2zM364.9 138.4v7.5h-.8v-7.5h-2.7v-.7h6.1l.1.7h-2.7z"/><g class="st0"><path class="st5" d="M373 146h-.7l-1.4-4.7-1.4 4.7h-.7l-1.9-5.7.8-.1 1.5 4.7 1.4-4.6h.7l1.4 4.6 1.4-4.6h.8L373 146zM376.7 139c-.3 0-.6-.3-.6-.6s.3-.6.6-.6.6.3.6.6-.3.6-.6.6zm-.4 7v-5.7h.8v5.7h-.8zM387.3 146l-.5-7.1-2.9 7.1h-.6l-2.9-7.1-.5 7.1h-.9l.7-8.3h1l2.8 7.2 2.9-7.2h1l.7 8.3h-.8zM390.1 146v-8.3h.8v7.5h3.2l.1.7h-4.1z"/></g><path class="st0 st5" d="M403.8 145.9l-.8.2-2.7-3.7h-1.1v3.7h-.8v-8.3h2.1c1.6 0 2.7.8 2.7 2.3 0 1.3-.8 2-2 2.3l2.6 3.5zm-3.3-7.5h-1.2v3.2h1.1c1.2 0 2-.6 2-1.6-.1-1-.7-1.6-1.9-1.6z"/><g class="st0"><path class="st5" d="M409.2 143.2h-3.9c0 1.4.7 2.2 1.8 2.2.8 0 1.4-.3 2-.8l.1.7c-.6.5-1.3.8-2.2.8-1.5 0-2.6-1-2.6-3 0-1.8 1.1-3 2.4-3 1.5 0 2.3 1.3 2.3 2.8.1.2.1.2.1.3zm-2.3-2.4c-.9 0-1.5.7-1.6 1.8h3.1c-.1-1-.6-1.8-1.5-1.8zM412.4 146.1c-.8 0-1.5-.2-2-.5l.1-.8c.5.3 1.2.6 2 .6s1.3-.3 1.3-.9c0-.6-.3-.8-1.5-1.1-1.3-.3-1.8-.7-1.8-1.7 0-.9.8-1.5 1.9-1.5.7 0 1.3.2 1.8.4l-.1.8c-.5-.3-1.1-.4-1.7-.4-.8 0-1.2.3-1.2.8s.3.7 1.3 1c1.3.4 2 .8 2 1.8 0 .9-.8 1.5-2.1 1.5zM418.2 146.1c-.6 0-1.1-.1-1.5-.3v2.3l-.8.1v-7.9h.6l.1.8c.4-.5 1-.9 1.8-.9 1.2 0 2.3.9 2.3 2.8.1 2.1-1.1 3.1-2.5 3.1zm.3-5.2c-.7 0-1.2.4-1.7 1v3.1c.4.2.9.3 1.5.3 1 0 1.8-.8 1.8-2.4-.1-1.3-.7-2-1.6-2zM424.5 146.1c-1.5 0-2.5-1.1-2.5-3s1.1-3 2.5-3c1.5 0 2.6 1.1 2.6 3s-1.1 3-2.6 3zm0-5.2c-1.1 0-1.7.9-1.7 2.3 0 1.3.6 2.3 1.7 2.3 1.2 0 1.8-.9 1.8-2.3s-.6-2.3-1.8-2.3zM432.3 146v-3.9c0-.7-.3-1.2-1.1-1.2-.6 0-1.2.4-1.8 1v4.1h-.8v-5.7h.6l.1.8c.6-.6 1.3-1 2-1 1.1 0 1.7.6 1.7 1.7v4.1h-.7zM436.5 146.1c-.8 0-1.5-.2-2-.5l.1-.8c.5.3 1.2.6 2 .6s1.3-.3 1.3-.9c0-.6-.3-.8-1.5-1.1-1.3-.3-1.8-.7-1.8-1.7 0-.9.8-1.5 1.9-1.5.7 0 1.3.2 1.8.4l-.1.8c-.5-.3-1.1-.4-1.7-.4-.8 0-1.2.3-1.2.8s.3.7 1.3 1c1.3.4 2 .8 2 1.8.1.9-.8 1.5-2.1 1.5zM444.5 143.2h-3.9c0 1.4.7 2.2 1.8 2.2.8 0 1.4-.3 2-.8l.1.7c-.6.5-1.3.8-2.2.8-1.5 0-2.6-1-2.6-3 0-1.8 1.1-3 2.4-3 1.5 0 2.3 1.3 2.3 2.8.1.2.1.2.1.3zm-2.3-2.4c-.9 0-1.5.7-1.6 1.8h3.1c-.1-1-.5-1.8-1.5-1.8z"/></g><path class="st6" d="M324 78.5h-54c-2.2 0-4-1.8-4-4v-46c0-2.2 1.8-4 4-4h54c2.2 0 4 1.8 4 4v46c0 2.2-1.8 4-4 4zm-54-52c-1.1 0-2 .9-2 2v46c0 1.1.9 2 2 2h54c1.1 0 2-.9 2-2v-46c0-1.1-.9-2-2-2h-54z"/><path class="st6" d="M285.7 59.5c-.1 0-.2 0-.2-.1l-8.8-5c-.2-.1-.3-.3-.3-.4s.1-.3.3-.4l8.8-5c.2-.1.5-.1.7.2.1.2.1.5-.2.7l-8 4.6 8 4.6c.2.1.3.4.2.7-.1 0-.3.1-.5.1zM308.2 59.5c-.2 0-.3-.1-.4-.3-.1-.2-.1-.5.2-.7l8-4.6-8-4.6c-.2-.1-.3-.4-.2-.7.1-.2.4-.3.7-.2l8.8 5c.2.1.3.3.3.4s-.1.3-.3.4l-8.8 5c-.1.3-.2.3-.3.3zM290.8 69.5h-.2c-.3-.1-.4-.4-.3-.7l11.2-27.5c.1-.3.4-.4.7-.3.3.1.4.4.3.7l-11.2 27.5c-.2.2-.4.3-.5.3zM267 32.5h60v2h-60z"/><g class="st0"><path class="st1" d="M141.1 204.6c-2.2 0-3.7-1.8-3.7-4.3s1.5-4.3 3.7-4.3 3.7 1.8 3.7 4.3c.1 2.5-1.5 4.3-3.7 4.3zm0-7.9c-1.7 0-2.9 1.4-2.9 3.5s1.2 3.6 2.9 3.6 2.9-1.4 2.9-3.5-1.1-3.6-2.9-3.6zM150.3 204.4l-.1-.8c-.6.6-1.3 1-2 1-1.1 0-1.7-.7-1.7-1.7v-4.1h.8v3.9c0 .7.3 1.2 1.1 1.2.6 0 1.2-.4 1.8-1v-4.1h.8v5.7h-.7zM154.6 204.5c-.9 0-1.5-.3-1.5-1.4v-3.7h-.9v-.7h.9v-2l.8-.1v2.1h1.3l.1.7h-1.4v3.6c0 .6.2.8.8.8.2 0 .4 0 .5-.1l.1.7c-.1.1-.4.1-.7.1zM158.8 204.5c-.8 0-1.4-.2-2.1-.4v-8.2l.8-.1v3.7c.4-.4 1-.9 1.8-.9 1.2 0 2.3.9 2.3 2.8 0 2.1-1.2 3.1-2.8 3.1zm.4-5.2c-.6 0-1.2.4-1.7 1v3.3c.4.1.7.2 1.3.2 1.1 0 1.9-.7 1.9-2.4.1-1.3-.6-2.1-1.5-2.1zM165.3 204.5c-1.5 0-2.5-1.1-2.5-3s1.1-3 2.5-3c1.5 0 2.6 1.1 2.6 3 0 2-1.2 3-2.6 3zm0-5.2c-1.1 0-1.7.9-1.7 2.3 0 1.3.6 2.3 1.7 2.3 1.2 0 1.8-.9 1.8-2.3 0-1.3-.7-2.3-1.8-2.3zM173.2 204.4l-.1-.8c-.6.6-1.3 1-2 1-1.1 0-1.7-.7-1.7-1.7v-4.1h.8v3.9c0 .7.3 1.2 1.1 1.2.6 0 1.2-.4 1.8-1v-4.1h.8v5.7h-.7zM179.3 204.4v-3.9c0-.7-.3-1.2-1.1-1.2-.6 0-1.2.4-1.8 1v4.1h-.8v-5.7h.6l.1.8c.6-.6 1.3-1 2-1 1.1 0 1.7.6 1.7 1.7v4.1h-.7zM185.8 204.4l-.1-.8c-.4.5-1 .9-1.8.9-1.2 0-2.3-.9-2.3-2.8 0-2.1 1.2-3.1 2.6-3.1.6 0 1.1.1 1.5.3v-3l.8-.1v8.6h-.7zm-.1-4.7c-.4-.2-.9-.3-1.5-.3-1 0-1.8.8-1.8 2.4 0 1.4.7 2.1 1.6 2.1.7 0 1.2-.4 1.7-1v-3.2zM194.6 204.6c-2.2 0-3.8-1.7-3.8-4.3 0-2.5 1.5-4.3 3.8-4.3.9 0 1.7.3 2.3.7l-.1.8c-.6-.5-1.4-.8-2.2-.8-1.8 0-3 1.4-3 3.5s1.1 3.5 2.9 3.5c.9 0 1.7-.3 2.4-.9l.1.8c-.5.6-1.4 1-2.4 1zM202.2 204.4l-.1-.8c-.5.5-1.2.9-2 .9-1 0-1.7-.5-1.7-1.5 0-1.3 1.1-2 3.6-2.2v-.4c0-.8-.5-1.1-1.2-1.1s-1.3.2-2 .5l-.1-.7c.7-.3 1.3-.5 2.1-.5 1.3 0 1.9.6 1.9 1.8v4h-.5zm-.1-3c-2.2.2-2.9.8-2.9 1.5 0 .6.4.9 1 .9s1.3-.3 1.8-.9v-1.5zM204.7 204.4v-8.5l.8-.1v8.6h-.8zM207.5 204.4v-8.5l.8-.1v8.6h-.8z"/></g><path class="st3" d="M110 218.5h142v1H110z"/><path class="st3" d="M111 215l-6.9 4 6.9 4z"/><path class="st0 st7" d="M273.2 110.2v-6.1l-1.4.6-.1-.5 1.7-.8h.5v6.8h-.7z"/><path class="st4" d="M273.2 99.5c4.1 0 7.5 3.4 7.5 7.5s-3.4 7.5-7.5 7.5-7.5-3.4-7.5-7.5c0-4.2 3.4-7.5 7.5-7.5m0-1c-4.7 0-8.5 3.8-8.5 8.5s3.8 8.5 8.5 8.5 8.5-3.8 8.5-8.5-3.8-8.5-8.5-8.5z"/><path class="st0 st7" d="M294.5 110.2v-.5l2.5-2.6c.7-.8 1-1.2 1-1.9 0-.8-.5-1.3-1.3-1.3-.7 0-1.3.3-1.8.8l-.1-.7c.5-.4 1.1-.7 2-.7 1.2 0 2 .7 2 1.8 0 .8-.3 1.4-1.2 2.3l-2.1 2.2h3.3l.1.6h-4.4z"/><path class="st4" d="M296.5 99.5c4.1 0 7.5 3.4 7.5 7.5s-3.4 7.5-7.5 7.5-7.5-3.4-7.5-7.5c0-4.2 3.4-7.5 7.5-7.5m0-1c-4.7 0-8.5 3.8-8.5 8.5s3.8 8.5 8.5 8.5 8.5-3.8 8.5-8.5-3.8-8.5-8.5-8.5z"/><path class="st0 st7" d="M319.2 110.3c-.7 0-1.4-.2-1.9-.5l.1-.7c.6.4 1.1.6 1.8.6 1 0 1.6-.5 1.6-1.3 0-.9-.6-1.4-2-1.4h-.3l-.1-.6h.5c1.2 0 1.8-.5 1.8-1.3 0-.7-.5-1.1-1.4-1.1-.7 0-1.3.3-1.8.6l-.1-.6c.5-.4 1.1-.6 1.9-.6 1.4 0 2 .8 2 1.7 0 .9-.6 1.4-1.3 1.6.9.2 1.4.8 1.4 1.7.1 1.1-.8 1.9-2.2 1.9z"/><path class="st4" d="M319.5 99.5c4.1 0 7.5 3.4 7.5 7.5s-3.4 7.5-7.5 7.5-7.5-3.4-7.5-7.5c0-4.2 3.4-7.5 7.5-7.5m0-1c-4.7 0-8.5 3.8-8.5 8.5s3.8 8.5 8.5 8.5 8.5-3.8 8.5-8.5-3.8-8.5-8.5-8.5z"/><path class="st8" d="M538.9 260.7c-1.7 0-3.1-1.4-3.1-3.1s1.4-3.1 3.1-3.1 3.1 1.4 3.1 3.1-1.4 3.1-3.1 3.1zm0-5.1c-1.1 0-2.1.9-2.1 2.1s.9 2.1 2.1 2.1 2.1-.9 2.1-2.1-.9-2.1-2.1-2.1zM533 179h12v1h-12z"/><path class="st8" d="M557 269h-36c-6.1 0-11-4.9-11-11v-78c0-6.1 4.9-11 11-11h36c6.1 0 11 4.9 11 11v78c0 6-4.9 11-11 11zm-36-98c-5 0-9 4-9 9v78c0 5 4 9 9 9h36c5 0 9-4 9-9v-78c0-5-4-9-9-9h-36zM54.9 260.7c-1.7 0-3.1-1.4-3.1-3.1s1.4-3.1 3.1-3.1 3.1 1.4 3.1 3.1-1.4 3.1-3.1 3.1zm0-5.1c-1.1 0-2.1.9-2.1 2.1s.9 2.1 2.1 2.1 2.1-.9 2.1-2.1-.9-2.1-2.1-2.1zM49 179h12v1H49z"/><path class="st8" d="M73 269H37c-6.1 0-11-4.9-11-11v-78c0-6.1 4.9-11 11-11h36c6.1 0 11 4.9 11 11v78c0 6-4.9 11-11 11zm-36-98c-5 0-9 4-9 9v78c0 5 4 9 9 9h36c5 0 9-4 9-9v-78c0-5-4-9-9-9H37z"/><circle class="st3" cx="291.2" cy="213.1" r="5" id="_Path_"/><circle class="st3" cx="302.8" cy="213.1" r="5" id="_Path_2"/><circle class="st3" cx="291.2" cy="224.8" r="5" id="_Path_3"/><circle class="st3" cx="302.8" cy="224.8" r="5" id="_Path_4"/><path class="st3" d="M297 194c-13.8 0-25 11.2-25 25s11.2 25 25 25 25-11.2 25-25-11.2-25-25-25zm0 43.3c-10.1 0-18.3-8.2-18.3-18.3 0-10.1 8.2-18.3 18.3-18.3 10.1 0 18.3 8.2 18.3 18.3s-8.2 18.3-18.3 18.3z" id="_Group_"/><path class="st0 st9" d="M29.5 287.8h-.9v3.4h-1.1v-8.3h2.2c1.8 0 2.8.9 2.8 2.4 0 1.6-1.2 2.5-3 2.5zm.1-3.9h-1v2.9h.9c1.1 0 1.8-.5 1.8-1.5s-.6-1.4-1.7-1.4zM40.7 291.2l-1-2.6h-3.4l-.9 2.5h-1.1l3.2-8.3h1.1l3.2 8.2-1.1.2zm-2.7-7l-1.3 3.5h2.7l-1.4-3.5zM50.6 291l-1.1.3-2.5-3.6h-.9v3.5H45v-8.3h2.3c1.7 0 2.7.8 2.7 2.4 0 1.2-.7 2-1.8 2.3l2.4 3.4zm-3.4-7.1h-1.1v2.8h1c1.1 0 1.8-.5 1.8-1.4-.1-.9-.6-1.4-1.7-1.4z"/><g class="st0"><path class="st9" d="M56.6 283.9v7.2h-1.1v-7.2h-2.6v-1h6.3l.2 1h-2.8zM64.9 287.9v3.3h-1.1v-3.3l-2.9-4.8 1.1-.2 2.4 4 2.3-4h1.2l-3 5zM79.7 291.2l-1-2.6h-3.4l-.9 2.5h-1.1l3.2-8.3h1.1l3.2 8.2-1.1.2zm-2.7-7l-1.3 3.5h2.7l-1.4-3.5z"/></g><path class="st0 st9" d="M514.3 287.8h-.9v3.4h-1.1v-8.3h2.2c1.8 0 2.8.9 2.8 2.4 0 1.6-1.2 2.5-3 2.5zm.2-3.9h-1v2.9h.9c1.1 0 1.8-.5 1.8-1.5s-.6-1.4-1.7-1.4zM525.6 291.2l-1-2.6h-3.4l-.9 2.5h-1.1l3.2-8.3h1.1l3.2 8.2-1.1.2zm-2.7-7l-1.3 3.5h2.7l-1.4-3.5zM535.5 291l-1.1.3-2.5-3.6h-.9v3.5h-1.1v-8.3h2.3c1.7 0 2.7.8 2.7 2.4 0 1.2-.7 2-1.8 2.3l2.4 3.4zm-3.5-7.1h-1.1v2.8h1c1.1 0 1.8-.5 1.8-1.4 0-.9-.6-1.4-1.7-1.4z"/><g class="st0"><path class="st9" d="M541.4 283.9v7.2h-1.1v-7.2h-2.6v-1h6.3l.2 1h-2.8zM549.8 287.9v3.3h-1.1v-3.3l-2.9-4.8 1.1-.2 2.4 4 2.3-4h1.2l-3 5zM560.7 291.1h-2v-8.3h2c1.8 0 2.7.9 2.7 2.1 0 .8-.4 1.4-1.2 1.7.9.3 1.5.9 1.5 2 0 1.8-1.1 2.5-3 2.5zm0-7.3h-.9v2.5h.8c1.1 0 1.7-.5 1.7-1.3 0-.7-.5-1.2-1.6-1.2zm0 3.5h-.9v2.9h1c1.2 0 1.9-.5 1.9-1.4-.1-1-.7-1.5-2-1.5z"/></g><path class="st0 st10" d="M267.6 6.9v3.3h-1.1V6.9l-3-4.9 1.1-.2 2.4 4 2.3-4h1.2l-2.9 5.1z"/><g class="st0"><path class="st10" d="M276.6 10.3c-2.3 0-3.8-1.7-3.8-4.3 0-2.6 1.5-4.3 3.8-4.3s3.8 1.7 3.8 4.3-1.5 4.3-3.8 4.3zm0-7.6C275 2.7 274 4 274 6s1 3.3 2.7 3.3c1.6 0 2.7-1.3 2.7-3.3s-1.2-3.3-2.8-3.3zM286.2 10.3c-2 0-3.2-1.3-3.2-3.3V1.9h1.1v5c0 1.4.6 2.4 2.1 2.4 1.4 0 2.1-.9 2.1-2.4v-5h1.1V7c0 2-1.2 3.3-3.2 3.3zM298 10l-1.1.3-2.5-3.6h-.9v3.5h-1.1V1.9h2.3c1.7 0 2.7.8 2.7 2.4 0 1.2-.7 2-1.8 2.3L298 10zm-3.5-7.1h-1.1v2.8h1c1.1 0 1.8-.5 1.8-1.4 0-.9-.6-1.4-1.7-1.4zM309.6 10.2l-1-2.6h-3.4l-.9 2.5h-1.1l3.2-8.3h1.1l3.2 8.2-1.1.2zm-2.7-7l-1.3 3.5h2.7l-1.4-3.5zM315.1 6.8h-.9v3.4h-1.1V1.9h2.2c1.8 0 2.8.9 2.8 2.4 0 1.6-1.2 2.5-3 2.5zm.1-3.9h-1v2.9h.9c1.1 0 1.8-.5 1.8-1.5s-.6-1.4-1.7-1.4zM322.5 6.8h-.9v3.4h-1.1V1.9h2.2c1.8 0 2.8.9 2.8 2.4 0 1.6-1.2 2.5-3 2.5zm.1-3.9h-1v2.9h.9c1.1 0 1.8-.5 1.8-1.5.1-1-.5-1.4-1.7-1.4z"/></g><path class="st11" d="M317 104.5h105"/></svg>
