<svg xmlns="http://www.w3.org/2000/svg" viewBox="-241 259 308 95"><g fill="#FFF"><path d="M-64.13 298.558h-3.912c-.89 0-1.37.326-1.37 1.26v17.644c-1.65 1.5-4.3 2.65-6.41 2.65-3.302 0-4.084-2.085-4.084-5.127v-15.167c0-1-.5-1.26-1.37-1.26h-3.867c-.89 0-1.434.326-1.434 1.26v16.318c0 5.954 2.542 9.886 8.713 9.886 3.194 0 6.236-1.108 8.778-3.15l.065 1.39c.064.717.607 1.108 1.324 1.108h3.542c1.108 0 1.434-.39 1.434-1.543v-24.01c-.02-.976-.52-1.26-1.41-1.26zM-148.33 298.558H-153c-.652 0-1 .435-1 1.108v24.336c0 1 .435 1.37 1.434 1.37h3.89c.933 0 1.39-.392 1.39-1.37v-24.336c0-.717-.39-1.108-1.043-1.108zM-50.18 298.558h-4.673c-.652 0-1 .435-1 1.108v24.336c0 1 .435 1.37 1.434 1.37h3.89c.934 0 1.39-.392 1.39-1.37v-24.336c.002-.717-.367-1.108-1.04-1.108zM-125.1 297.885c-3.195 0-6.41 1.152-8.953 3.194l-.065-1.48c-.043-.825-.543-1.042-1.325-1.042h-3.563c-1 0-1.39.5-1.39 1.39v24.098c0 .89.5 1.325 1.324 1.325h4.02c.934 0 1.325-.434 1.325-1.368v-17.6c1.717-1.5 4.367-2.65 6.52-2.65 3.367 0 4.193 2.15 4.193 5.192v15.014c0 .934.326 1.434 1.325 1.434h3.977c1 0 1.325-.5 1.325-1.434V307.77c0-6.018-2.52-9.885-8.713-9.885z"/><circle cx="-102.09" cy="291.018" r="4.042"/><path d="M-92.27 298.558h-19.62c-.652 0-1.043.217-1.043.934v3.89c0 .65.435 1.042 1.108 1.042h6.388v19.556c0 1 .435 1.37 1.434 1.37h3.846c1 0 1.434-.392 1.434-1.37v-19.556h6.388c.652 0 1.108-.39 1.108-1.043v-3.888c0-.716-.39-.934-1.042-.934z"/><circle cx="-33.602" cy="291.018" r="4.042"/><path d="M-22.738 303.382v-3.89c0-.716-.39-.933-1.043-.933h-19.622c-.652 0-1.043.216-1.043.933v3.89c0 .65.435 1.042 1.108 1.042h6.388v19.556c0 1 .436 1.37 1.435 1.37h3.846c1 0 1.435-.39 1.435-1.37v-19.555h6.388c.675 0 1.11-.39 1.11-1.043zM-21.043 323.11c0-.434-.26-.65-.804-.65h-.89v2.302h.347v-1h.37l.63 1h.39l-.652-1.02c.348-.044.61-.218.61-.63zm-.956.35h-.368v-.74h.478c.24 0 .5.043.5.348 0 .39-.305.39-.61.39z"/><path d="M-21.977 321.634c-1.086 0-1.977.847-1.977 1.956a1.97 1.97 0 0 0 1.977 1.977A1.97 1.97 0 0 0-20 323.59c0-1.11-.89-1.956-1.977-1.956zm0 3.65c-.913 0-1.63-.717-1.63-1.695 0-.935.695-1.674 1.63-1.674.913 0 1.608.717 1.608 1.673.022.956-.695 1.694-1.607 1.694z"/></g></svg>