<svg xmlns="http://www.w3.org/2000/svg" viewBox="0 0 308 95"><g fill="#FFF"><circle cx="190.906" cy="33.179" r="3.492"/><path d="M120.81 56.745V44.5h6.34v-4.986h-6.34v-7.89l-6.05 1.5v6.39h-4.6V44.5h4.6v12.778c0 4.84 2.516 7.745 7.6 7.745 1.79 0 3.484-.242 5.178-.678v-5.083c-1.646.194-2.662.242-3.92.242-1.937 0-2.808-.823-2.808-2.76zM137.05 43.29l-.532-3.776h-5.13v25.17h6.098V52.002c0-4.066 2.226-7.115 6.486-7.115.678 0 1.404.097 2.08.242v-5.81c-.628-.097-1.258-.145-1.887-.145-2.95 0-5.952 1.21-7.114 4.114zM164.698 52.825c0 2.033-.387 4.308-1.84 5.663-.725.726-1.693 1.26-3.097 1.26-3.194 0-4.355-1.84-4.355-4.793V39.513h-6.05V56.31c0 5.373 3.34 9.003 8.712 9.003 3.195 0 6.002-1.452 7.212-3.92l.435 3.29h5.034v-25.17h-6.05v13.312zM180.81 57.18V29.688h-6.1v28.51c0 4.792 2.76 6.777 6.873 6.777 1.21 0 1.452-.097 2.662-.34v-5.08c-.34 0-.484.047-1.016.047-2.083 0-2.42-.967-2.42-2.42zM187.833 39.513h6.147v25.17h-6.147zM220.225 60.037c-1.016 0-1.404-.436-1.404-1.597v-9.342c0-1.694-.096-3.485-.725-5.083-1.452-3.775-5.13-5.13-9.44-5.13-5.614 0-10.116 2.516-10.454 8.18h5.858c.145-2.325 1.79-3.583 4.598-3.583 3.437 0 4.26 1.598 4.26 3.97V49l-7.406.532c-4.792.34-8.52 3.098-8.52 7.89 0 4.114 3.1 7.89 9.1 7.89 3.583 0 6.487-1.743 7.65-3.776.193 1.888 1.645 3.534 4.26 3.534 1.45 0 1.984-.242 3-.678V59.94s-.387.097-.775.097zm-7.31-5.373c0 3.727-2.66 5.76-6.437 5.76-1.888 0-3.582-1.21-3.582-3.146 0-2.033 1.79-3.146 3.63-3.29l6.39-.485v1.16zM96.143 29.687c-5.556.03-9.143 3.76-9.143 9.4 0 4.667 3.045 8.658 4.78 14.727.994 3.475 1.528 7.73 1.808 10.87h5.11c.28-3.14.814-7.395 1.807-10.87 1.735-6.07 4.78-10.06 4.78-14.728.002-5.64-3.585-9.368-9.142-9.4zm.03 14.365a4.182 4.182 0 1 1 0-8.364 4.182 4.182 0 0 1 0 8.364z"/></g></svg>