<svg id="Layer_1" xmlns="http://www.w3.org/2000/svg" viewBox="0 0 308 95"><style>.st0{fill:#FFF}</style><path class="st0" d="M130.3 63.4c-.2-.2-.4-.4-.6-.5-.2 0-.4.1-.6.2v9.3h9.3c.1-.2.2-.4.2-.6 0-.2-.2-.4-.4-.6-2.6-2.5-5.3-5.1-7.9-7.8zM176.3 70.9c.7 0 1.3-.6 1.3-1.4 0-.8-.6-1.4-1.3-1.4-.8 0-1.3.6-1.3 1.4 0 .8.6 1.4 1.3 1.4zm-.6-2.3h.7c.4 0 .7.2.7.5s-.2.5-.5.5l.5.8h-.3l-.5-.8h-.3v.8h-.3v-1.8z"/><path class="st0" d="M176.8 69.1c0-.2-.2-.3-.4-.3h-.4v.6h.3c.3 0 .5 0 .5-.3z"/><path class="st0" d="M176.9 35.7c-.3-.3-.6-.6-.9-.8.1-.1.2-.3.2-.4.3-.5.5-1.1.6-1.7.1-.9-.1-1.7-.4-2.5-.1-.3-.3-.6-.2-.9.1-.2.2-.3.3-.3.2-.1.5 0 .6.1l1.8 1.8v-8.5h-8.7l1.8 1.8c.1.1.2.3.1.5s-.3.5-.6.5-.5-.2-.8-.3c-.7-.3-1.4-.5-2.1-.4-.8.1-1.5.4-2.2.9l-.9-.9 2.1-2.1h-39v39l3.5-3.5c.2-.2.4-.3.6-.3.4 0 .7.4.6.7-.1.3-.3.5-.3.8.1.3.3.4.5.6l8 8c.1.1.3.3.5.3.3 0 .5-.2.8-.3.4-.1.7.3.7.6s-.2.5-.5.7l-3.4 3.4h14.2c.1-.1.2-.3 0-.5-.3-.3-.6-.6-.9-1l-3.7-3.7c-.1-.1-.2-.2-.4-.2s-.3.1-.5.2c-.2 0-.4-.2-.3-.4.1-.2.2-.3.4-.5l2-2 6.2 6.2-1.8 1.8h23.8V48.6l-1.9 1.9c-.1.1-.3.2-.4.2-.2 0-.3-.2-.3-.4s.2-.3.1-.5-.2-.3-.3-.4l-4.1-4.1c-.4-.4-.8-.8-1.1-1.2.7-.7 1.4-1.3 2-2l5.1 5.1.5.5c.1.1.3 0 .4-.1V33.4c-.3.9-1 1.6-1.7 2.3zm-6.6-9.3c.1-.2.3-.4.5-.3.3 0 .5.2.6.4 1 1.1 2.1 2.1 3.1 3.2.2.2.4.4.5.7 0 .3-.2.6-.5.6-.2 0-.5-.1-.7-.2-.4-.3-1-.5-1.5-.4-.3 0-.5.1-.8.2l-.9-.9c.1-.2.2-.5.2-.7 0-.6-.2-1.1-.5-1.6.1-.4-.1-.7 0-1zm-17.5 5.8c-.1-.2-.2-.4-.1-.5.1-.2.4-.2.5 0l1.6 1.6-1.8 1.8c-.1-.2-.3-.3-.4-.5.2-.3.4-.6.4-.9.1-.5 0-1-.2-1.5zm-.9-.3c.1.1.2.2.3.4 0 .2-.1.3-.3.3-.2 0-.4-.2-.6-.2-.3-.1-.7-.1-.9 0l-.5-.5c.1-.2.1-.5.1-.7 0-.3-.2-.5-.3-.7-.1-.2.1-.4.2-.4s.2.1.3.2c.5.4 1.1 1 1.7 1.6zm-3-4.4l1.6 1.6c.2.2 0 .5-.2.5s-.3-.1-.5-.1c-.6-.3-1.3-.3-1.8 0-.1.1-.3.2-.4.2-.2-.1-.3-.3-.4-.4.6-.7 1.2-1.2 1.7-1.8zm-4.3 4.4c0-.1.1-.2.2-.3.7-.7 1.4-1.3 2-2 .8.7 1.5 1.5 2.3 2.3l3.6 3.6-2.1 2.1c-.1.2-.4.2-.6 0-.2-.2 0-.4.1-.6.1-.1 0-.3-.1-.4l-4.1-4.1c-.1-.1-.2-.3-.4-.3s-.4.1-.6.2c-.1-.2-.3-.3-.3-.5zm-2.7 2.7l2.1-2.1c.1-.1.2-.2.4-.3.2 0 .3.1.4.2 0 .2-.1.3-.1.5 0 .1.1.2.2.3l4.2 4.2c.1.1.2.2.3.2.2 0 .3-.1.5-.2.2 0 .4.2.3.4 0 .1-.1.2-.2.3l-2 2c-.1.1-.3.2-.5.2-.1 0-.2-.1-.2-.2-.1-.2.2-.4.1-.7-.1-.1-.1-.2-.2-.2l-1.9-1.9-.7.7-.5-.5.7-.7-1.7-1.7c-.1-.1-.2-.2-.4-.3-.3-.1-.5.3-.8.1-.3.1-.2-.2 0-.3zm17.8 25.8c-.1-.3-.2-.5-.3-.7-.1-.2.1-.5.3-.4.1 0 .2.1.3.2l1.7 1.7c.2.2.4.3.5.6-.1.1-.1.3-.3.3-.3 0-.4-.2-.7-.3-.3-.2-.7-.2-1 0l-.5-.5c.1-.3.1-.6 0-.9zm.5-1.6c-.1 0-.3-.1-.4-.1-.5-.2-1-.4-1.6-.2-.3.1-.6.3-.9.4l-.5-.5 1.9-1.9 1.7 1.7c.2.3 0 .5-.2.6zm-1.2-6.7c.1-.3.2-.7.2-1-.1-.6-.4-1.1-.8-1.6l-4.3-4.3c-.2-.2-.5-.4-.7-.7.2.1.5.2.7.3.8.4 1.7.8 2.5 1.2.1 0 .1.1.2.2l2.2 2.2c.4.4.9.7 1.4.9.4.1.8.1 1.2 0 .2-.1.4-.1.6-.1.2.1.3.3.4.5 0 .3-.2.5-.4.7-.6.7-1.3 1.3-1.9 1.9-.2.2-.4.3-.6.3-.5.2-.9-.2-.7-.5zm-4.7-4.7c1.3 1.3 2.3 2.9 2.6 4.7.2 1 .1 2-.1 3-.3 1-.8 1.8-1.4 2.6-.3-.3-.6-.6-.8-.9 0-.1.1-.3.1-.4.1-.5 0-1-.4-1.3l-7.8-7.8c-.2-.2-.5-.4-.9-.5-.3 0-.6.1-.8.2-.1.1-.2-.1-.2-.1l-.7-.7v-.1c.7-.6 1.5-1.1 2.4-1.3 1-.3 2.2-.4 3.3-.2 1.8.4 3.4 1.5 4.7 2.8zM139 37.5l2-2 .2-.2c.2-.1.4 0 .5.1.1.2-.1.4-.1.6 0 .1.1.2.2.3l4.4 4.4c.3.3.6-.2.9 0 .2.1.1.4 0 .6-.7.7-1.4 1.4-2 2.1-.1.1-.2.2-.4.3-.2 0-.4-.1-.4-.2 0-.2.2-.4.1-.6 0-.1-.1-.2-.1-.2-1.4-1.4-2.8-2.7-4.1-4.1-.1-.1-.2-.3-.4-.3s-.3.1-.5.2c-.2 0-.3-.1-.3-.3-.3-.5-.1-.6 0-.7zm-1.6 1.5l.9-.9c.6.5 1.1 1.1 1.6 1.6l.3.3c.1.3-.2.5-.5.4-.3-.1-.5-.3-.7-.5-.4-.3-.9-.4-1.4-.4l-.4-.4c.1 0 .2-.1.2-.1zm-2.2 2.3l1.7-1.7 3.3 3.3 1.8 1.8c.2.2.4 0 .6 0 .2-.1.4.1.4.3 0 .1-.1.3-.2.3l-2.1 2.1c-.1.1-.2.2-.4.2s-.3-.1-.3-.3c0-.2.1-.3.1-.5 0-.1-.1-.2-.2-.3l-5-5c.2-.1.2-.2.3-.2zm-1.7 1.6l1.1-1.1c.2.1.3.3.5.4-.1.6.2 1.2.5 1.7.1.2.2.3.3.5.1.2-.2.5-.4.4-.1 0-.2-.1-.3-.2-.5-.6-1.1-1.1-1.7-1.7zm15.6 20.5l-4.1 4.1c-.2.2-.4.3-.7.3-.3 0-.6-.3-.6-.6s.3-.6.3-.9c0-.2-.2-.3-.3-.5l-3.6-3.6s-.1-.1-.2-.1l-1.2 1.2-.9-.9 1.2-1.2v-.1l-3.4-3.4c-.2-.2-.3-.4-.6-.4s-.6.2-.9.3c-.4.1-.8-.4-.6-.8.1-.3.3-.5.5-.6l3.9-3.9c.2-.2.4-.3.6-.3.4 0 .7.4.6.7-.1.3-.3.5-.3.8 0 .3.2.4.4.6l8.1 8.1c.1.1.3.2.4.3.3 0 .5-.2.8-.3.3-.1.7.2.7.6.2.2.1.5-.1.6zm-.2-3.6c-1.8-.4-3.5-1.5-4.8-2.9-1.2-1.3-2.2-2.8-2.5-4.5-.2-1.1-.2-2.3.3-3.4.3-.8.7-1.5 1.3-2.2.3.3.6.5.8.8.1.2-.1.3-.1.5-.1.5 0 .9.4 1.3l7.7 7.7c.2.3.5.5.9.6.3.1.7-.1 1-.2.3.3.6.6.9.8-.6.5-1.3 1-2.1 1.3-1.3.4-2.6.5-3.8.2zm8.5 10.5l-.5-.5c.1-.2.2-.4.2-.6-.1-.3-.3-.6-.5-.8l-3.5-3.5c-.2-.2-.5-.5-.9-.5-.2 0-.4.1-.5.2-.2-.2-.4-.3-.5-.5.6-.6 1.4-1 2.2-1.1.9-.1 1.9.3 2.6.8.6.4 1.2.9 1.6 1.5.5.7.8 1.5.8 2.4.1.9-.3 1.9-1 2.6zm3.2-3.1c-.1.1-.2.2-.4.2-.1 0-.3-.1-.3-.2-.1-.2.2-.4.1-.7-.1-.2-.3-.4-.4-.5l-3.8-3.8c-.2-.2-.4-.5-.7-.6-.3-.1-.5.3-.8.1-.2-.1-.2-.5 0-.6l2.2-2.2 3.5 3.5 2.7 2.7c-.7.6-1.4 1.3-2.1 2.1zm2.5-2.6l-.5-.5c.6-.7.6-1.7.3-2.5-.1-.2-.2-.4-.1-.6.1-.2.4-.2.5 0l1.7 1.7-1.9 1.9zm5-5.1c0 .2-.2.3-.3.5l-2.2 2.2c-.2.2-.5.1-.6-.1-.1-.2.3-.5 0-.7l-4.6-4.6-.3-.3c-.2-.1-.4.1-.6.2-.2 0-.3-.2-.3-.3 0-.2.1-.3.2-.4l2.1-2.1 1.8 1.8 3.5 3.5c.1.1.2.2.3.2.2 0 .4-.2.6-.2.3 0 .4.1.4.3zm2.7-3.8c-.8 0-1.7-.3-2.4-.7-.5-.3-1-.7-1.4-1.2.2.6.1 1.3-.1 1.9-.3.6-.7 1-1.2 1.5l-.5-.5c.1-.2.2-.5.1-.7-.1-.3-.3-.5-.5-.7l-1.2-1.2c-.2-.2-.5-.5-.8-.5-.2 0-.4.1-.5.2l-.5-.5c.6-.6 1.3-1.3 2.3-1.4.8-.1 1.5.2 2.1.7-.3-.7-.5-1.4-.5-2.2.1-.8.4-1.6.9-2.2l.5.5c-.1.2-.1.4-.1.6 0 .2.2.3.3.4l4.1 4.1c.2.2.3.3.6.4.2.1.4 0 .6-.1l.5.5c-.6.8-1.4 1.1-2.3 1.1zm5.5 12.2c.9 0 1.7.7 1.7 1.6 0 1-.8 1.6-1.7 1.6-.9 0-1.7-.7-1.7-1.6.1-.9.8-1.6 1.7-1.6zm-5.2-22.7c-.1.5.1 1 .4 1.5.1.3.3.5.5.7.1.1 0 .3 0 .4.7.4 1.2 1 1.7 1.7.5.8.9 1.6.9 2.6 0 .9-.4 1.7-.9 2.4l-.5-.5c0-.2.1-.4.1-.6-.1-.3-.2-.4-.4-.6l-4.1-4.1c-.1-.1-.3-.3-.5-.3s-.4 0-.5.1l-.5-.5c.7-.6 1.6-1 2.5-.9.4 0 .7.1 1 .2-.4-.4-.9-.8-1.3-1.3l1.2-1.2c0 .1.2.2.4.4zm-.1-3.9c0 .2-.2.4-.3.6l-4 4c-.2.2-.4.3-.7.3-.3 0-.6-.2-.6-.5 0-.4.3-.6.3-1 0-.2-.1-.3-.3-.4l-7.1-7.1c1.9 3.6 3.9 7.2 5.9 10.8 0 .1.1.1.1.2l-.4.4c-3.9-1.9-7.8-3.9-11.7-5.8-.6-.3-1.2-.7-1.9-.7-.2 0-.4.2-.6.3-.2.1-.4.2-.6.2-.3-.1-.4-.4-.4-.7.1-.2.2-.3.3-.5l3.8-3.8c2 1 3.9 1.9 5.9 2.9.1 0 .1.1.2.2l.1-.1h-.1c-1-2-2.1-3.9-3.2-5.9l3.9-3.9c.1-.1.3-.2.5-.3.4-.1.7.3.7.6s-.3.6-.3.9c.1.2.2.4.4.6 2.7 2.7 5.4 5.3 8 8 .1.1.3.3.5.3.3 0 .6-.2.9-.3.4 0 .7.4.7.7zm1.4-1.1c-.2.2-.4.3-.6.3-.3 0-.6-.3-.6-.6s.3-.6.3-.9c0-.2-.1-.4-.3-.5l-8.1-8.1c-.2-.1-.3-.3-.6-.3s-.6.3-.9.3c-.2 0-.4-.2-.5-.3-.1-.3 0-.6.2-.8l3.8-3.8c0-.1.1-.1.2 0l11 11c-1.4 1.1-2.7 2.4-3.9 3.7zm3.9 3.1c-.3 0-.4-.2-.6-.3-.5-.4-1.1-.7-1.8-.6l-.5-.5 1.2-1.2c.7.6 1.3 1.3 1.9 1.9.2.3.1.7-.2.7z"/></svg>