<svg id="Layer_1" xmlns="http://www.w3.org/2000/svg" viewBox="-241 259 308 95"><style>.st0{fill:#FFF}</style><ellipse class="st0" cx="-303.5" cy="565.5" rx="6.5" ry="6.5"/><path class="st0" d="M-303.4 548.5c-7.4 0-13.7 4.7-16 11.4.1-.7.1-1.4.1-2.1 0-2.4-1.4-5.1-3.4-6.6-1.9-1.4-3.8-2.2-6.1-2.2h-14.7v33.4h13.7c2.7 0 5.1-1 7.4-2.7 2.1-1.6 3.5-4.3 3.5-6.9v-.4c2.8 6 8.8 9.9 15.4 9.9 9.4 0 16.9-7.6 16.9-17 .1-9.2-7.5-16.8-16.8-16.8zm-31.5 7.8h3.6c1.7 0 3.6.3 3.6 2.5.1 2-1.1 3.2-3.5 3.2h-3.7v-5.7zm6.6 17.9c-.8.6-1.8.6-2.7.6h-4v-6.2h3.6c2.2 0 4.1.6 4.2 3.1.1.9-.4 2-1.1 2.5zm8.1-6.4c-.7-.9-1.6-1.7-3-2.5 1.6-.8 2.6-1.8 3.1-3.1-.2 1.1-.3 2.2-.3 3.3.1.7.1 1.5.2 2.3zm16.7 6.5c-4.9 0-8.8-3.9-8.8-8.8s3.9-8.8 8.8-8.8 8.8 3.9 8.8 8.8c0 4.8-4 8.8-8.8 8.8zm-50.5-13h-6.9V549h-8.6v33.5h8.5v-13.1h6.9v13.1h8.6V549h-8.6l.1 12.3zm64 19.2c-.6 0-1 .4-1 1s.4 1 1 1 1-.4 1-1c.1-.6-.4-1-1-1zm0 1.7c-.4 0-.7-.3-.7-.7s.3-.7.7-.7.7.3.7.7c0 .4-.3.7-.7.7z"/><path class="st0" d="M-289.5 581.3c0-.3-.2-.3-.4-.3h-.4v1.1h.3v-.4l.3.4h.3l-.3-.4c0-.1.2-.2.2-.4zm-.5.1h-.1v-.3h.1c.1 0 .2 0 .2.1 0 .2-.1.2-.2.2z"/><g><path class="st0" d="M-64.9 311.4v-20.6h-10.9v10.3c-5 3.2-9.9 6.4-14.9 9.4-.8-.5-1.7-.9-2.4-1.5 4.9-3.1 9.6-6.4 14.5-9.5-2-1.5-4.2-2.9-6.4-4.3-4.9 3.1-9.8 6.3-14.7 9.4-.7-.6-1.6-1-2.3-1.6 4.9-3.1 9.7-6.3 14.6-9.4-2.2-1.6-4.6-3.1-6.9-4.6-6.3 4-12.5 8.1-18.8 12.1-1.5-4.5-4.7-8.1-9.2-9.5-5.1-1.6-12.2-.4-18.7-.8v30.3c5.2-.2 10.3.3 14.7 0 7.2-.5 11.5-4.9 13.4-10.7 6.3 4.1 12.4 8.5 18.7 12.6 6.1-3.9 12.3-8 18.3-11.7v9.8h20.6v-9.7c-3.2 0-6.6.1-9.6 0zm-59.6-1c-1.5 1.2-3.5 1-6.1 1v-10.9c0-.1 0-.2.1-.2 3.1-.2 5.4.1 6.8 1.7 1.9 2.3 1.5 6.7-.8 8.4zM-41.5 311.4v-20.6h-10.9c-.1 0-.1.1-.1.2v30.1h20.6v-9.7h-9.6z"/></g></svg>