<svg xmlns="http://www.w3.org/2000/svg" viewBox="-241 259 308 95"><g fill="#FFF"><path d="M-149.9 295.006c6.3 0 10.4 4.6 10.4 11.5 0 6.8-4.2 11.5-10.4 11.5-6.1 0-10.4-4.9-10.4-11.5 0-6.7 4.3-11.5 10.4-11.5zm0 21.4c4.5 0 7-3.6 7-10s-2.5-10-7-10-7 3.6-7 9.8c0 6.7 2.4 10.2 7 10.2zM-96 306.106c0 7.1-4 11.5-10.9 11.5h-7s.2-7 .2-11.1c0-4-.2-11.1-.2-11.1h8c6.5 0 9.9 3.6 9.9 10.7zm-3.3 0c0-6-2.8-9.5-8.2-9.5-2.4 0-3.3.2-3.3.2s.2.5.2 1.4c0 1.9-.1 5.5-.1 8.2 0 3 .1 6.2.1 8 0 1-.2 1.6-.2 1.6s.9.2 2.9.2c5.7 0 8.6-3.6 8.6-10.1zM-28.3 295.006c6.3 0 10.4 4.6 10.4 11.5 0 6.8-4.2 11.5-10.4 11.5-6.1 0-10.4-4.9-10.4-11.5 0-6.7 4.2-11.5 10.4-11.5zm0 21.4c4.5 0 7-3.6 7-10s-2.5-10-7-10-7 3.6-7 9.8c0 6.7 2.4 10.2 7 10.2zM-179.9 309.806c0 5.4.2 7.8.2 7.8h-2.3s.3-9 .3-17.6c0-1.5-.1-4.6-.1-4.6h1.6s6.2 8.8 10.3 14.5c.5.6 1.1 1.7 1.5 2.5 0 0-.2-1.5-.2-2.9v-6.3c0-5.7-.3-7.8-.3-7.8h2.3s-.3 8.1-.3 17.6c0 .9.1 4.6.1 4.6h-1.6s-6.1-8.7-10.2-14.4c-.6-.9-1-1.5-1.4-2.4 0 0 .1 1.9.1 2.9v6.1zM-85.6 316.406c2.5-.1 4.4-2.2 4.1-4.6-.3-1.9-1.7-3-4.1-4.4-3.1-1.8-4.9-3.1-5.2-6-.4-3.7 2.7-6.3 6.4-6.5 2.1-.1 4 .5 4.7.7v2.4s-1.8-1.7-4.6-1.7c-1.9 0-4.1 1.2-4.1 3.4 0 1.9 1.5 2.9 4.2 4.5 3.6 2.1 5.4 3.8 5.4 7 0 3.9-3.2 6.8-7.1 6.8-2.1 0-4.1-.4-4.7-.7v-2.6s1.8 1.8 5 1.7zM-61.1 295.406v2.1s-1.6-.5-4.3-.5h-1.5v1.4s-.1 4-.1 5.1c0 6.2.3 14.2.3 14.2H-70s.3-8 .3-14.2c0-1.1-.1-5.1-.1-5.1v-1.4h-1.5c-2.6 0-4.3.5-4.3.5v-2.1h14.5zM8 317.606H4.7s-.2-8.1-.5-13.8v-2.5s-.3 1.2-.9 2.4l-6.1 14.4s-3.4-7.8-6.1-13.6c-.4-.9-.9-2.4-1.3-3.2.1 1.2 0 2.5-.1 3.5-.4 5.7-.5 12.8-.5 12.8h-2.1l1.4-22.2h1.9s4.1 9.2 6.7 14.9c.3.7.7 1.5.9 2.3.3-.8.5-1.6.8-2.2 2.4-5.7 6.1-14.9 6.1-14.9h1.9l1.2 22.1zM-43.2 300.606c0 2.9-1.9 5-5.1 5.8 2.1 3.9 6.4 11.2 6.4 11.2h-3.5s-1.9-3.8-6.7-12.2h.4c3.6 0 5.4-1.5 5.4-4.4 0-2.6-1.6-4.2-4.5-4.2H-53s.2.5.2 1.9v11.4c0 5 .2 7.4.2 7.4h-3.3s.2-8.8.2-13.3c0-3.2-.2-8.9-.2-8.9h6.6c3.9.1 6.1 1.9 6.1 5.3zM-120.7 300.606c0 2.9-1.9 5-5.1 5.8 2.1 3.9 6.4 11.2 6.4 11.2h-3.5s-1.9-3.8-6.7-12.2h.4c3.6 0 5.4-1.5 5.4-4.4 0-2.6-1.5-4.2-4.5-4.2h-2.2s.2.5.2 1.9v11.4c0 5 .2 7.4.2 7.4h-3.3s.2-8.8.2-13.3c0-3.2-.2-8.9-.2-8.9h6.6c4 .1 6.1 1.9 6.1 5.3z"/></g></svg>