<svg id="Layer_1" xmlns="http://www.w3.org/2000/svg" viewBox="-241 259 308 95"><style>.st0{fill:#FFF}</style><path class="st0" d="M-146.4 289.3v19.9c0 6.7-2.9 9.4-9.8 9.4s-9.8-2.7-9.8-9.4v-20.8h-6.7c-.6 0-.8.3-.8.8v20.2c0 11.2 7.1 15 17.4 15 10.3 0 17.4-3.9 17.4-15v-21.1h-6.7c-.8.2-1 .5-1 1zm96.4 4.9c.5 0 .8-.2.9-.6l1.9-4.8c.1-.3 0-.4-.3-.4h-26.8c-2.5 0-3.4.7-3.4 2.5v31c0 1.5.7 2.1 2.6 2.1h24.9c.5 0 .8-.2.9-.6l1.9-4.8c.1-.3 0-.4-.3-.4h-22.8v-6.3c0-2.2 1.3-3.1 4.5-3.1h9.9c.5 0 .8-.2.9-.6l1.9-4.6c.1-.3 0-.4-.3-.4h-16.9v-8.9H-50v-.1zm-47.1 11.1c2.9-1.6 4.1-4.4 4.1-7.8 0-7.8-6.4-9-13-9h-15.1c-2.5 0-3.4.7-3.4 2.5v31c0 1.5.7 2.1 2.6 2.1h18.6c7 0 12-2.7 12-9.8 0-4.3-1.9-8-5.8-9zm-20.2-11.1h11.8c4 0 5 1.5 5 4.6 0 3-1 4.6-5 4.6h-11.8v-9.2zm13.2 24.1h-13.1v-6.5c0-2.2 1.1-3.1 4.5-3.1h8.7c4.2 0 5.3 1.6 5.3 4.9-.1 3.2-1.2 4.7-5.4 4.7zm103.5 5.2l-7.9-13.7c4-1 7.2-3.7 7.2-10.3 0-8.7-5.3-11-14.2-11h-15.2c-2.5 0-3.4.7-3.4 2.5v32.1c0 .6.3.8.8.8h6.5v-10.3c0-2.2 1.3-3.1 4.5-3.1h6.6l7.2 12.9c.2.3.4.6.9.6h6.8c.4 0 .4-.3.2-.5zM-14.5 305h-12.3v-10.7h12.3c4.6 0 5.6 1.8 5.6 5.4 0 3.5-1 5.3-5.6 5.3z"/></svg>