<svg id="Layer_1" xmlns="http://www.w3.org/2000/svg" viewBox="0 0 308 95"><style>.st0{fill-rule:evenodd;clip-rule:evenodd;fill:#FFF}</style><path class="st0" d="M158.8 47.9c-.2 4.1-2.4 6.9-5.4 8.1-1.7.7-4.2.7-5.9 0-2.7-1.1-4.4-3.4-5.3-6.4-.4-1.4-.2-3.6.2-4.8 1.1-3 2.8-5.1 5.9-6.1 4.2-1.4 8.9 1.7 9.6 4.7h3.6c-.9-3.8-4.3-6.8-7.9-8-1.7-.5-4.5-.4-6.1.1-4.4 1.4-7.1 4.1-8.5 8.5-.4 1.2-.7 3.9-.3 5.4 1.1 4.8 3.5 8.1 7.7 9.8 2.4 1 6.1.9 8.3-.1 4.1-1.7 7.4-5.4 7.3-11.2h-3.2zM94.5 43.4H98c-.8-3.9-3.9-6.6-7.6-7.8-1.8-.6-4.8-.7-6.7-.1-3.3 1.1-5.6 3.3-7.1 6.2-.7 1.3-1.9 4.5-1.4 6.8.2 1 .3 2 .6 3 1.2 3.5 3.7 6.3 7.1 7.7 5.7 2.4 11.2-.8 13.5-4.3.6-.9 1.4-2 1.6-3.3h-3.5c-.2.1-.8 1.6-1 1.8-.7 1-2.1 2.1-3.3 2.6-5.7 2.4-10.1-1.9-11.4-5.9-1.7-5.2 2.1-9.9 5.4-11.3 1.2-.5 3.6-.6 5-.2 2.7.9 4.3 2.5 5.3 4.8zM232.8 53.2c-.1-.6 0-1-.2-1.5-1.1-2.6-4.2-2.8-7.3-3.5-1.1-.3-4.9-.6-3.5-2.5.3-1 2.7-1.9 4.5-1.5 1.4.3 2.8 1.1 2.9 2.7h3.5c-.5-2.8-1.6-4.4-4-5.4-4.2-1.7-9.2.3-10.2 3.4-.2.6-.2 1.7-.1 2.4.7 3 3 3.4 6 4.1 1.1.3 2.2.2 3.2.5.8.3 1.3.7 1.9 1.1.1.5.1 1 .1 1.6-.7.7-1.1 1.3-2.1 1.6-3.1 1-6-.7-6.4-3.1h-3.4c.2 3.3 2.5 5.2 5.2 6.1.7.2 1.3.1 2.1.2.7.2 1.7.1 2.3-.1 2.9-.7 4.7-1.5 5.6-4.2 0-.4 0-1.3-.1-1.9zM132.5 41.8c-2.5-1-6.3-.3-7.5 1.4-.2-.3-.1-1-.1-1.4l-.1-.1h-3.2v17.8h3.4V51c0-2.1 0-3.8.8-5 1.1-1.5 4.1-2.1 5.9-.8 1.3.9 1.5 2.8 1.5 5.1h3.3c.1-4.4-.9-7.2-4-8.5zM194.1 41.8c-2.4-1-6.3-.4-7.5 1.3h-.2v-1.4h-3.2v17.8h3.3v-8.6c0-1.9 0-3.7.7-4.8 1-1.5 4-2.4 5.9-1.1 1.4.9 1.6 2.8 1.6 5.2h3.3c.1-4.3-.8-7.1-3.9-8.4zM175.5 49.7c0 1.3.2 3-.2 4.1-.3.9-.8 1.6-1.5 2.1s-1.9 1.3-3.4.9c-1.1-.2-2-.8-2.6-1.6-.7-1.1-.7-2.9-.7-4.8v-8.7h-3.3v8.5c0 1.5-.2 3.2.2 4.5.4 1.6 1.2 3.1 2.4 4 2.2 1.6 7.3 1.9 8.9-.5h.2v1.4h3.3V41.8h-3.4c.1 2.6.1 5.2.1 7.9zM211.8 49.8c0 1.2.2 2.8-.1 3.9-.3 1-.9 1.8-1.6 2.3-.7.5-1.9 1.2-3.3.8-1.3-.3-2.3-1-2.8-2.1-.5-1.2-.4-2.9-.4-4.6v-8.4h-3.3V50c0 1.5-.2 3.3.2 4.5.4 1.5 1.2 3.1 2.3 4 2.3 1.7 7.4 2.1 9.1-.5h.1v1.5h3.3V41.7h-3.4c-.1 2.7-.1 5.4-.1 8.1zM114.1 43.9c-.6-.2-.9-.9-1.4-1.2-.7-.5-1.7-1-2.6-1.2-1.4-.4-3.4-.1-4.5.3-3.5 1.3-5.2 3.6-6.1 7.6-.3 1.3.1 2.9.3 3.8 1 3.4 2.9 5.5 6.2 6.5 3.1 1 6.8-.6 7.9-2.4h.2v2.2h3.2V41.7h-3.2v2.2zm-.4 8.8c-.7 2.1-2.3 3.5-4.6 4-1.2.3-2.3-.2-3-.6-2.1-1.1-4.1-3.9-3.1-7.3.6-1.8 1.8-3.3 3.5-4 .5-.1.9-.2 1.4-.3 3.8 0 7.3 3.9 5.8 8.2z"/><path class="st0" d="M86 51.2h2.1v-6.3H86v6.3zM157.4 47.9h-8.2v3h7.4c.4-.2.8-2.4.8-3z"/><circle class="st0" cx="150.3" cy="44.5" r="1.4"/><circle class="st0" cx="155.4" cy="44.5" r="1.4"/><circle class="st0" cx="83.3" cy="45.7" r="1.4"/><circle class="st0" cx="91.4" cy="45.7" r="1.4"/></svg>