<svg xmlns="http://www.w3.org/2000/svg" viewBox="-241 259 308 95"><g fill="#FFF"><path d="M-142.325 313.765zM-113.083 309.433l-3.88-9.747h-3.61l5.865 13.538c-.09.18-.542 1.173-.632 1.354-.45.993-1.083 1.534-2.256 1.534-.542 0-1.083-.18-1.354-.27l-.993 2.526c.36.27 1.264.632 2.617.632 3.25 0 4.513-2.076 5.235-3.97l6.497-15.434h-3.52l-3.97 9.837zM-141.874 299.235c-3.34 0-4.783 2.076-4.964 2.256l-.09-1.804h-3.25v18.953h3.43v-6.77c.272.36 1.535 1.895 4.423 1.895 4.422 0 6.86-3.61 6.86-7.22 0-5.415-3.61-7.31-6.41-7.31zm-.992 11.732c-2.256 0-3.88-1.715-3.88-4.422 0-2.798 1.714-4.513 3.97-4.513 2.256 0 3.88 1.625 3.88 4.513-.09 2.617-1.714 4.422-3.97 4.422zM-127.614 299.235c-3.88 0-5.776 2.347-5.866 2.527l1.805 1.986c.18-.18 1.715-1.715 3.88-1.715 1.716 0 2.98.722 2.98 2.708v.09h-3.16c-1.625 0-3.52.272-4.874 1.716-.63.632-1.082 1.534-1.082 2.888 0 2.978 2.347 4.332 4.783 4.332 2.8 0 4.153-1.444 4.514-1.895l.09 1.535h3.07v-7.13c0-2.347-.09-3.97-1.445-5.415-1.084-1.084-2.528-1.625-4.694-1.625zm2.798 8.844c-.09.81-.27 1.533-.903 2.165-.54.542-1.443.903-2.616.903s-2.256-.632-2.256-1.895c0-2.076 2.347-2.076 3.88-2.076h1.987v.903h-.09zM-81.134 309.433l-3.88-9.747h-3.61l5.865 13.538c-.09.18-.54 1.173-.63 1.354-.452.993-1.084 1.534-2.257 1.534-.542 0-1.083-.18-1.354-.27l-.994 2.526c.36.27 1.264.632 2.617.632 3.25 0 4.513-2.076 5.235-3.97l6.498-15.434h-3.52l-3.97 9.837zM-95.574 299.235c-3.16 0-4.693 1.986-4.874 2.166V294h-3.43v19.404h3.16l.09-1.625c.18.18 1.533 1.985 4.602 1.985 4.422 0 6.86-3.61 6.86-7.22 0-5.415-3.61-7.31-6.408-7.31zm-.993 11.732c-2.256 0-3.88-1.715-3.88-4.422 0-2.798 1.714-4.513 3.97-4.513 2.256 0 3.88 1.625 3.88 4.513-.09 2.617-1.713 4.422-3.97 4.422zM-47.2 299.235c-2.616 0-3.97 1.444-4.42 1.986V294h-3.43v19.404h3.43v-6.137c0-1.625 0-3.16.992-4.152.632-.632 1.534-.903 2.256-.903.993 0 1.534.27 1.986.632.722.632.812 1.625.812 2.798v7.67h3.43V305.1c0-1.534-.18-3.25-1.354-4.422-1.083-1.082-2.347-1.443-3.7-1.443zM-32.578 299.235c-5.235 0-7.49 3.79-7.49 7.31 0 3.52 2.255 7.31 7.49 7.31s7.49-3.79 7.49-7.31c0-3.52-2.345-7.31-7.49-7.31zm2.708 10.74c-.632.632-1.534.993-2.708.993-1.173 0-2.076-.36-2.708-.993-.812-.812-1.264-1.986-1.264-3.43 0-1.444.45-2.617 1.264-3.43.632-.632 1.534-.993 2.708-.993 1.173 0 2.076.36 2.708.993.812.812 1.264 1.986 1.264 3.43-.09 1.444-.542 2.617-1.264 3.43zM5.78 307.628c0-2.437-.27-4.783-2.076-6.588-1.444-1.444-3.34-1.715-4.603-1.715-4.782 0-7.13 3.52-7.13 7.31 0 3.88 2.348 7.22 7.22 7.22 3.34 0 5.236-1.715 6.138-2.708l-1.895-1.805c-1.083 1.173-2.527 1.805-4.152 1.805-2.707 0-3.79-1.986-3.79-3.52H5.78zm-6.68-5.776c2.618 0 3.34 2.347 3.34 3.34h-6.86c0-.813.813-3.34 3.52-3.34zM-15.07 299.235c-2.977 0-4.42 1.986-4.602 2.166l-.09-1.714h-3.25v13.628h3.43v-6.137c0-1.625 0-3.16.994-4.152.632-.632 1.534-.903 2.256-.903.993 0 1.534.27 1.986.632.722.632.812 1.625.812 2.798v7.67h3.43v-8.212c0-1.534-.18-3.25-1.354-4.422-.993-.992-2.257-1.353-3.61-1.353zM-63.625 299.235c-3.34 0-4.783 2.076-4.964 2.256l-.09-1.804h-3.248v18.953h3.43v-6.77c.27.36 1.534 1.895 4.422 1.895 4.422 0 6.86-3.61 6.86-7.22 0-5.415-3.61-7.31-6.41-7.31zm-.992 11.732c-2.256 0-3.88-1.715-3.88-4.422 0-2.798 1.714-4.513 3.97-4.513 2.256 0 3.88 1.625 3.88 4.513-.09 2.617-1.714 4.422-3.97 4.422zM-178.336 295.173h-2.708s-1.895 0-1.895 1.895v2.708s0 1.895 1.896 1.895h2.617s1.895 0 1.895-1.894v-2.708c.092.09.092-1.895-1.804-1.895zM-170.303 311.33h-2.708s-1.896 0-1.896 1.894v2.617s0 1.896 1.895 1.896h2.707s1.895 0 1.895-1.895v-2.707c0 .09 0-1.804-1.895-1.804zM-178.336 311.33h-2.708s-1.895 0-1.895 1.894v2.708s0 1.895 1.896 1.895h2.708s1.895 0 1.895-1.895v-2.708s0-1.895-1.896-1.895zM-164.978 301.67h2.708s1.895 0 1.895-1.894v-2.617s0-1.896-1.895-1.896h-2.708s-1.895 0-1.895 1.895v2.616s0 1.895 1.895 1.895zM-170.303 303.296h-2.708s-1.896 0-1.896 1.895v2.71s0 1.894 1.895 1.894h2.707s1.895 0 1.895-1.895v-2.71s0-1.894-1.895-1.894zM-178.336 303.296h-2.708s-1.895 0-1.895 1.895v2.71s0 1.894 1.896 1.894h2.708s1.895 0 1.895-1.895v-2.71s0-1.894-1.896-1.894zM-164.978 309.704h2.708s1.895 0 1.895-1.895v-2.71s0-1.894-1.895-1.894h-2.617s-1.895 0-1.895 1.895v2.71c-.092 0-.092 1.894 1.804 1.894zM-170.303 295.173h-2.708s-1.896 0-1.896 1.895v2.617s0 1.895 1.895 1.895h2.707s1.895 0 1.895-1.895v-2.708c0 .182 0-1.804-1.895-1.804zM-162.27 311.33h-2.71s-1.894 0-1.894 1.894v2.708s0 1.895 1.895 1.895h2.71s1.894 0 1.894-1.895v-2.708s0-1.895-1.895-1.895zM8.94 296.888c0-1.173-.994-2.166-2.167-2.166-1.173 0-2.166.993-2.166 2.166s.993 2.166 2.166 2.166 2.166-.902 2.166-2.166zm-2.167 1.715a1.714 1.714 0 0 1-1.715-1.715c0-.903.722-1.715 1.715-1.715.903 0 1.625.722 1.625 1.715 0 .993-.723 1.715-1.625 1.715zM6.773 299.054z"/><path d="M7.675 296.437c0-.18-.09-.36-.27-.542-.182-.09-.452-.09-.633-.09h-.72v2.166h.45v-.902h.36l.452.812h.542l-.542-.903c.18 0 .36-.27.36-.54zm-.993.27h-.27v-.54h.27c.09 0 .362 0 .452.09.09 0 .09.09.09.27 0 .18-.18.18-.542.18z"/></g></svg>