<svg xmlns="http://www.w3.org/2000/svg" viewBox="-241 259 308 95"><g fill="#FFF"><path d="M-44.935 325.102c-.61-1.218-.913-1.472-1.167-2.436l-2.943-8.78a88.967 88.967 0 0 1-.964-3.5c-.05-.255-.1-.56-.15-.864l1.166-.457c.152-.102.913-.457 1.015-.507 1.422-.76 2.843-1.472 4.213-2.233 1.015-.61 3.146-2.03 4.212-2.64.913-.506 1.624-.81 2.64-1.268.506-.203.912-.305 1.268-.812.152-.203.05-.558-.254-.61-.864-.1-1.32-.15-2.183-.15-.863 0-1.725.05-2.588.1-.965.103-1.574.103-2.386.762-.355.254-1.928 1.27-3.045 2.08-1.016.71-1.93 1.422-2.995 2.132-.61.405-1.32.862-2.08 1.318.202-.304.202-.355.253-.457.863-1.268 1.624-2.384 2.537-3.653.457-.61 1.015-1.37 1.42-1.98.762-1.115 2.69-3.856 3.503-4.972.76-1.066 1.675-2.08 2.436-3.096 1.27-1.676 2.284-3.452 3.705-4.974.15-.152.253-.457.15-.61-.15-.202-.405-.253-.66-.15-1.826.405-3.196.557-5.277 1.115-1.066.204-2.03.508-2.385.66-.152.052-.254.356-.203.458.05.152.05.254.406.304.305.05.508-.05.914-.152.152-.05.61-.152.76-.102 0 .152-.253.558-.354.71-1.015 1.573-2.08 3.096-3.146 4.67l-1.37 2.13c-.66.964-2.436 3.45-3.096 4.415-.507.76-1.066 1.573-1.573 2.334-.457.71-1.015 1.42-1.472 2.182-.558.862-1.116 1.775-1.675 2.638-.61.913-1.27 1.827-1.878 2.74-1.27 1.98-2.487 3.958-3.755 5.937-.61 1.015-1.218 2.03-1.878 2.994-.406.608-.76 1.268-.863 1.978-.05.254.05.558.152.71.05.102.406.102.61 0 1.47-.66 2.942-1.37 4.414-1.98.812-.354 1.015-.506 1.827-.862.304-.152.457-.355.457-.558 0-.355-.355-.406-.61-.355-.456.05-.912.304-.862.203 1.776-2.943 3.35-5.836 5.43-8.373.05.152.05.305.1.457.102.61.204 1.218.356 1.827l1.98 9.134c.253.965.506 2.082.81 3.046.356 1.116.56 1.675 1.625 1.827 0 0 1.42.254 2.08.254 2.944-.05 2.437-.71 2.437-.71-.253-.607-.76-1.266-1.065-1.875z"/><path d="M-20.373 301.25c-.457 0-.913.05-1.37.1-.507.052-1.015.052-1.522.103-1.167.102-2.334.152-3.502.304-.66.05-.863.05-1.522.152-.354.05-.76.1-1.115.15-.457.102-1.27.204-1.675.305-1.32.304-2.69.66-3.755 1.522-.913.76-1.827 1.522-2.64 2.436-1.065 1.167-1.978 2.436-2.892 3.755a33.918 33.918 0 0 0-1.98 3.197c-.506.964-.912 1.928-1.37 2.943-.71 1.522-1.318 3.096-1.115 4.82.1.965.406 1.27 1.37 1.016.457-.1.863-.254 1.32-.406 1.318-.61 2.536-1.37 3.754-2.284.71-.558.964-.812 1.37-1.218.61-.61 1.116-1.015 1.776-1.624.863-.76 1.675-1.472 2.537-2.233.1-.052-.05.303-.1.456-.458.812-.864 1.573-1.32 2.334-.304.507-.507 1.066-.812 1.573-.406.812-.863 1.624-1.27 2.436-.1.202-.05.557.052.76.1.102.457.05.71 0 .304-.102.61-.304.913-.507.76-.406 1.472-.863 2.233-1.218.813-.457 1.676-.812 2.538-1.167.355-.152.507-.406.355-.66-.05-.152-.406-.254-.61-.254-.253 0-.506.1-.76.203v-.1c.152-.204.254-.306.304-.458.66-1.016 1.27-2.082 1.928-3.097.457-.76.964-1.522 1.472-2.233.457-.71.913-1.472 1.37-2.182.406-.66.863-1.27 1.32-1.928.557-.812 1.115-1.573 1.623-2.385.913-1.37 2.13-2.537 2.69-4.16.154-.455.052-.505-.303-.455zm-6.19 3.45c-4.112 4.873-12.74 13.246-13.246 13.043-.354-.102-.303-.71-.1-1.27.254-.862.71-1.52 1.116-2.232.406-.76.913-1.52 1.42-2.232.255-.355 1.777-2.74 2.437-3.45.913-1.016 1.98-2.03 2.994-2.69.558-.356.863-.66 1.472-.965.202-.102.71-.254.862-.304 1.015-.356 1.98-.508 2.943-.305.05 0 .152 0 .203.05.202.052-.102.356-.102.356zM-78.783 318.96c.355-.15.507-.405.355-.66-.05-.15-.406-.253-.61-.253-.253 0-.506.102-.76.203v-.1c.152-.204.254-.305.304-.458.66-1.015 1.27-2.08 1.928-3.096.457-.76.964-1.522 1.472-2.233.457-.71.913-1.472 1.37-2.182.406-.66.863-1.268 1.32-1.927.557-.812 1.115-1.573 1.623-2.385.912-1.37 2.13-2.537 2.69-4.16.15-.458.05-.508-.305-.458-.457 0-.913.05-1.37.1-.507.052-1.015.052-1.522.103-1.167.102-2.334.152-3.502.304-.66.05-.862.05-1.52.152-.356.05-.762.1-1.117.15-.457.102-1.27.204-1.675.305-1.32.304-2.69.66-3.755 1.522-.913.76-1.827 1.522-2.64 2.436-1.065 1.167-1.978 2.436-2.892 3.755a33.918 33.918 0 0 0-1.978 3.197c-.507.964-.913 1.928-1.37 2.943-.71 1.522-1.37 3.096-1.116 4.82.1.965.406 1.27 1.37 1.016.457-.1.863-.254 1.32-.406 1.318-.61 2.536-1.37 3.754-2.284.71-.558.964-.812 1.37-1.218.61-.61 1.116-1.015 1.776-1.624.863-.76 1.675-1.472 2.537-2.233.1-.052-.05.303-.1.456-.458.812-.864 1.573-1.32 2.334-.304.507-.507 1.066-.812 1.573-.405.812-.862 1.624-1.268 2.436-.1.202-.05.557.05.76.102.102.458.05.71 0 .305-.102.61-.304.914-.507.76-.406 1.472-.863 2.233-1.218.812-.453 1.674-.81 2.537-1.164zm-10.048-1.217c-.356-.102-.305-.71-.102-1.27.254-.862.71-1.52 1.116-2.232.406-.76.913-1.52 1.42-2.232.255-.355 1.777-2.74 2.437-3.45.914-1.016 1.98-2.03 2.995-2.69.558-.356.863-.66 1.472-.965.203-.102.71-.254.863-.304 1.015-.356 1.98-.508 2.943-.306.05 0 .152 0 .203.05.203.052-.1.356-.1.356-4.112 4.873-12.74 13.246-13.247 13.043zM-96.595 315.104a215.567 215.567 0 0 1 2.943-4.364c.203-.304.406-.61.61-.863l.76-1.066.71-.963c.507-.61 1.015-1.167 1.522-1.725l4.67-6.293c.66-.914 1.318-1.88 2.03-2.74.76-.965 1.52-1.93 2.283-2.894.964-1.167 1.928-2.385 2.893-3.552.66-.812 1.37-1.573 1.98-2.334.1-.152.202-.304.202-.507.05-.355-.1-.457-.304-.457-.304 0-.61.05-.913.102-1.014.152-1.978.305-2.993.457l-3.502.61c-.355.05-.507.253-.507.557 0 .305.355.254.61.254.506 0 .81-.05 1.37-.05-.204.253-.305.456-.458.608-.61.76-1.27 1.522-1.878 2.284l-2.588 3.35c-.66.862-1.37 1.724-2.08 2.587l-1.98 2.588a197.26 197.26 0 0 0-2.994 3.857c-1.27 1.624-2.487 3.3-3.705 4.973a190.105 190.105 0 0 0-4.567 6.597c-.812 1.218-1.522 2.436-2.284 3.705-.304.507-.558 1.015-.812 1.522-.05.152-.1.507.05.61.102.05.356-.052.56-.103.862-.304 1.674-.61 2.536-.913 1.167-.405 2.334-.81 3.45-1.217.762-.304 2.285-.558 2.335-.863 0-.812-.406-.812-1.42-.507-.305.05.202-.863.456-1.32l1.015-1.93zM-60.26 312.01c.76-.71.913-1.32.457-2.234-.203-.507-.558-.66-1.116-.507-.253.1-.557.202-.81.253-1.37.457-2.69.863-4.06 1.218-.71.204-2.132.56-2.234.56-.152 0 .152-.407.254-.458.61-.61 1.27-1.37 1.878-1.928.558-.507 1.015-.913 1.522-1.522 1.37-1.675 2.943-2.64 4.67-3.908.66-.457 1.268-.76 1.724-1.066.406-.254.406-.812-.05-.964-.458-.152-.965-.203-1.473-.304-1.37-.203-2.08-.152-3.145 0-.254.05-.558.152-.76.355-.356.254-.61.61-.914.913-.81.863-1.674 1.725-2.486 2.588-1.218 1.27-2.436 2.487-3.654 3.806-.66.71-1.167 1.472-1.776 2.182-.507.66-.964 1.27-1.167 2.08-.152.71.254 1.422.913 1.37 1.015-.1 1.624-.303 2.64-.506.506-.102 2.03-.507 1.978-.406.152-.05-.254.507-1.015 1.116-.863.71-1.776 1.37-2.64 2.03-.862.66-1.724 1.37-2.638 2.03-.71.558-1.42 1.066-2.13 1.573a145.78 145.78 0 0 1-3.452 2.488c-.507.355-1.116.71-1.522 1.116-.202.254-.66 1.015-.71 2.08 0 .56.153 1.117.66 1.574.458.355.61.305 1.016.102.558-.203 1.015-.61 1.522-.964 1.167-.76 2.284-1.472 3.4-2.233.76-.507 1.472-1.167 2.233-1.675 1.523-1.116 3.046-2.334 4.416-3.654l1.522-1.37c.913-.812 1.827-1.675 2.74-2.385 1.522-1.068 2.892-2.133 4.212-3.35zM-106.948 313.785c.76-1.015 1.573-1.98 2.334-2.943.558-.71 1.066-1.472 1.624-2.13.507-.66 1.116-1.32 1.624-1.98.66-.863 1.32-1.776 1.98-2.588.608-.76 1.268-1.472 1.877-2.233.965-1.166 1.88-2.333 2.843-3.45a225.9 225.9 0 0 1 3.3-3.958c.608-.76 2.942-4.314 3.5-5.075.052-.05.102-.102.102-.203 0-.05.05-.05.05-.102.255-.304.458-.558.66-.863.508-.71.965-1.473 1.473-2.183.304-.558.152-.71-.254-.812-.61-.152-1.167 0-1.776.152a54.81 54.81 0 0 0-3.806 1.218 52.13 52.13 0 0 0-2.994 1.167c-.863.355-1.725.812-2.588 1.218-1.37.61-2.79 1.167-4.16 1.878-1.574.76-3.046 1.675-4.568 2.487a178.71 178.71 0 0 1-4.263 2.385c-1.168.66-2.437 1.218-3.604 1.878-1.928 1.116-3.857 2.334-5.734 3.502-.457.304-.913.66-1.472.76-.304 0-6.496.356-12.18.71h-.556c-4.01.255-7.664.458-8.78.61-1.218.152-1.827.254-2.08.304-1.016.102-1.625.863-2.386 1.42-1.116.813-2.233 1.625-3.4 2.488a162.77 162.77 0 0 0-3.552 2.69c-.152.1-.304.406-.254.507.05.202.406.253.558.253h.1l2.234-.406 4.263-.812 6.445-1.066c6.648-1.37 9.845-1.422 11.063-1.32-.152.1-.355.254-.558.355l-5.328 3.35c-.914.557-1.828 1.014-2.69 1.572a85.267 85.267 0 0 0-3.553 2.334l-3.958 2.74c-.305.204-.66.407-.965.66-.76.56-1.522 1.117-2.233 1.726a7.66 7.66 0 0 0-1.167 1.066c-.152.152-.355.355-.406.61v.15s.05.204.608.103c.203 0 .406 0 .507-.05 2.13 0 6.597-.052 7.257-.407.558-.304 1.878-1.218 2.74-1.878.61-.355 1.116-.76 1.675-1.167 1.27-1.066 2.74-1.725 4.06-2.69 1.928-1.42 3.908-2.69 5.887-3.958l7.917-5.176c.508-.356 1.016-.66 1.523-.914l7.917-.66c.254 0 .507 0 .71-.05h.152c.61-.153 1.167-.458 1.725-.965l2.588-2.587a.917.917 0 0 0 .203-.457c0-.05-.254-.1-.457-.05-.1 0-.253 0-.354.05l-6.293.76h-.05a37.11 37.11 0 0 1 2.283-1.318c1.472-.863 2.943-1.675 4.364-2.537.812-.506 1.573-1.065 2.385-1.572 1.928-1.116 3.857-2.182 5.785-3.3.863-.456 2.64-1.37 2.64-1.318.1-.05-3.96 4.72-5.228 6.242-1.015 1.218-1.98 2.385-2.994 3.603a137.52 137.52 0 0 0-2.284 2.79c-.812 1.016-1.675 2.082-2.487 3.147-.76.964-1.573 1.928-2.334 2.893-.863 1.116-1.675 2.233-2.537 3.3-.812 1.014-1.675 2.03-2.487 3.095-.965 1.27-1.828 2.537-2.792 3.806-.254.355-.507.76-.76 1.116-.052.102-.255.507-.153.61.1.15 2.334-.61 3.4-.965l3.197-1.066c1.116-.405 1.776-.608 2.893-1.065.457-.203.964-.406 1.37-.71.152-.102.304-.457.254-.66-.052-.355-.356-.406-.66-.355-.56.05-.61.05-1.168.152-.61.152-.1-.71.152-1.015.708-.914 1.368-1.93 2.078-2.842z"/></g></svg>