<svg xmlns="http://www.w3.org/2000/svg" viewBox="-241 259 308 95"><g fill="#FFF"><path d="M-58.88 330.095c.174-.153.272-.383.272-.7 0-.34-.098-.602-.306-.766-.208-.165-.514-.253-.94-.253h-1.38v3.555h.56v-1.53h.59l.963 1.53h.59l-1.017-1.564c.26-.043.49-.13.666-.273zm-1.227-.142h-.58v-1.127h.733c.088 0 .186.01.284.022.098.01.175.044.252.077a.36.36 0 0 1 .175.164.52.52 0 0 1 .066.283c0 .142-.022.252-.077.328a.46.46 0 0 1-.208.176.834.834 0 0 1-.295.066c-.098 0-.218.01-.35.01z"/><path d="M-57.24 328.936a3.142 3.142 0 0 0-.657-.963 3.01 3.01 0 0 0-.963-.634c-.372-.154-.766-.23-1.18-.23s-.81.076-1.182.23-.7.37-.974.633a2.98 2.98 0 0 0-.667.963c-.164.372-.24.766-.24 1.192a2.97 2.97 0 0 0 .907 2.177c.284.273.602.48.974.634.372.152.766.23 1.18.23s.81-.078 1.182-.23c.372-.154.69-.362.963-.635s.492-.602.656-.963c.163-.372.24-.777.24-1.214 0-.416-.077-.82-.24-1.192zm-.504 2.23a2.62 2.62 0 0 1-.525.82 2.6 2.6 0 0 1-.787.548c-.306.13-.634.197-.985.197-.36 0-.69-.065-.995-.196s-.57-.317-.8-.547a2.29 2.29 0 0 1-.524-.82 2.703 2.703 0 0 1-.187-1.04c0-.36.066-.7.186-1.016.13-.316.305-.59.524-.82.23-.23.492-.415.8-.546a2.49 2.49 0 0 1 .994-.197c.35 0 .678.066.985.197.306.13.57.317.788.547.23.23.406.504.526.82.13.318.186.657.186 1.018a2.48 2.48 0 0 1-.186 1.04zM-109.452 318.588c-.48.306-.634.733-.405 1.105.164.263.47.36.755.252a.99.99 0 0 0 .208-.11l.372-.24a.545.545 0 0 0 .153-.12c.21-.208.285-.525.11-.8-.25-.394-.744-.372-1.192-.087zM-91.82 283.21c.034.274.23.373.47.34a.596.596 0 0 0 .493-.46c.01-.054 0-.12 0-.185l-.055-.36c-.557.075-.96.272-.907.666zM-63.19 304.247l-.373.022c.033.557.186.973.59.95.274-.01.395-.207.373-.437a.574.574 0 0 0-.427-.525.37.37 0 0 0-.164-.01zM-101.237 325.753c-.372-.252-.755-.01-.93.208l1.04.7c.13-.207.284-.634-.11-.907zM-75.607 287.4a.576.576 0 0 0 .667.012.677.677 0 0 0 .12-.13l.22-.296c-.45-.328-.876-.48-1.117-.153-.142.218-.076.425.11.568zM-106.74 289.917c-.262-.11-.59-.263-.852-.383l-.01.01c.174.22.404.504.58.723l.6.842.646-.81-.963-.383z"/><path d="M-88.187 277.687c-15.916 0-28.813 12.897-28.813 28.813s12.897 28.813 28.813 28.813 28.813-12.897 28.813-28.813-12.897-28.813-28.813-28.813zm26.22 26.363l-.338.088v.022c.284.208.448.547.47.94.044.69-.438 1.128-.974 1.16-.874.056-1.344-.71-1.42-1.913h-.045c-.175.01-.427.12-.405.645.022.35.164.71.306.92l-.656.23a2.784 2.784 0 0 1-.383-1.303c-.066-1.128.58-1.522 1.378-1.576l1.18-.077c.318-.022.635-.055.81-.11l.08.973zm-.874-4.945l.262 1.017-4.78 1.225-.263-1.017 4.78-1.225zm-5.022 13.575c.11-.34.405-.48.71-.394.296.098.47.394.35.744v.01c-.108.34-.415.482-.71.384-.296-.098-.46-.404-.35-.744zm-4.267-22.534c.034.23.187.624.384.864.208.252.372.284.503.175.142-.11.142-.252-.01-.634-.274-.688-.143-1.148.163-1.4.492-.404 1.203-.294 1.74.362.25.306.393.634.447.864l-.667.317a1.695 1.695 0 0 0-.328-.69c-.164-.196-.34-.24-.47-.14-.13.108-.11.262.044.677.24.634.153 1.05-.22 1.367-.49.405-1.17.317-1.782-.427a2.456 2.456 0 0 1-.514-1.006l.71-.328zm.45 6.87a1.006 1.006 0 0 0-.36-.22c-.964-.316-2.572.384-2.19-.262.318-.536.82-.94 1.018-1.794a19.22 19.22 0 0 1 1.532 2.276zm-4.923-10.72c.525-.71 1.41-.58 2.374.142l.023-.033c.11-.142.186-.405-.24-.722a2.076 2.076 0 0 0-.91-.36l.242-.657c.273.033.744.175 1.247.536.908.667.8 1.422.328 2.057l-.71.95c-.187.253-.362.515-.44.69l-.765-.57.153-.305-.022-.01c-.34.087-.71 0-1.028-.242-.535-.394-.568-1.04-.25-1.477zm-4.386-2.024c.132.186.46.46.745.58.295.12.46.077.525-.088.066-.164 0-.284-.306-.558-.57-.48-.667-.94-.514-1.302.24-.59.93-.83 1.706-.514.36.153.656.372.81.547l-.44.602c-.108-.132-.35-.34-.612-.45-.24-.097-.416-.054-.47.1-.066.152.022.283.36.568.515.45.635.853.45 1.313-.24.592-.875.832-1.772.47a2.28 2.28 0 0 1-.92-.644l.44-.624zm-5.764-2.603c.055-.417.088-.778.11-1.084l.907.12-.01.47h.02a1.23 1.23 0 0 1 1.117-.405c.69.09 1.15.625 1.017 1.61l-.263 1.99-1.05-.142.24-1.87c.056-.44-.054-.756-.437-.8a.602.602 0 0 0-.59.317.835.835 0 0 0-.067.263l-.252 1.947-1.05-.142.308-2.274zm11.08 10.49a1.584 1.584 0 0 1-.23-.067c-.513-.13-25.4.83-25.4.83l-.327.088a18.975 18.975 0 0 1 13.443-5.556 18.983 18.983 0 0 1 12.514 4.705zm-26.208 25.848s1.094.897 1.542 1.16c.45.263 1.674.066 1.674.066s.317 2.636.13 2.9a.97.97 0 0 1-.218.207c-5.108-3.412-8.467-9.23-8.467-15.84 0-4.582 1.618-8.794 4.32-12.076.12.656.273 1.696.438 3.205.317 3.084.83 7.722.58 10.74-.263 3.02 0 9.638 0 9.638zm10.25-37.247c1.115-.152 1.563.46 1.673 1.248l.165 1.18c.044.318.098.625.164.81l-.942.13-.11-.327h-.02c-.187.296-.504.493-.91.548-.677.098-1.16-.34-1.235-.875-.12-.875.602-1.4 1.794-1.564l-.01-.045c-.023-.175-.154-.416-.668-.35-.34.044-.69.22-.898.372l-.284-.645c.23-.164.667-.394 1.28-.48zm-7.078.537l1.18 2.735.012-.01c.01-.165.033-.33.066-.47l.23-1.215 1.17-.503-.57 1.74 2.08 1.312-1.193.514-1.313-.952-.11.416.417.974-.975.416-1.947-4.53.952-.427zm-4.037 4.167l.416.48.02-.02c-.163-.504.045-.92.307-1.117.077-.055.12-.087.186-.12l.602.788c-.077.044-.153.087-.252.153-.306.23-.405.558-.252.864.034.066.078.13.12.197l1.03 1.366-.843.634-1.367-1.827c-.306-.394-.503-.656-.7-.875l.733-.524zm-5.02 3.02l4.582 1.76-.71.898-1.17-.46-.832 1.062.744 1.006-.678.864-2.79-4.026.852-1.104zm-1.74 22.763c-.306.066-.602-.11-.667-.47v-.01a.555.555 0 0 1 .438-.69c.317-.066.602.12.667.47.066.36-.13.624-.437.7zm-4.463-10.72c.383-1.575 1.564-2.144 2.866-1.827 1.553.372 2.144 1.696 1.805 3.074-.13.536-.338.908-.47 1.072l-.754-.416c.142-.186.284-.448.383-.82.196-.81-.143-1.564-1.16-1.816-.91-.22-1.62.175-1.84 1.094a2.638 2.638 0 0 0-.065.897l-.842-.044c-.054-.206-.054-.666.077-1.213zm-.514 6.39l1.87-.034c.45-.01.745-.164.745-.558 0-.273-.185-.448-.382-.525a.775.775 0 0 0-.23-.033l-2.013.033-.022-1.06 4.933-.078.022 1.06-1.947.034v.01c.154.11.274.242.362.417.088.153.142.35.142.547.01.678-.448 1.192-1.477 1.214l-1.98.033-.02-1.06zm.438 4.123l3.325-.69.218 1.03-3.325.688-.22-1.028zm1.04 3.883l4.615-1.728.37.985-4.615 1.728-.372-.985zm4.265 6.082c-.33.208-.657.427-.843.558l-.503-.8.394-.294-.01-.023c-.428.022-.81-.23-1.05-.602-.428-.678-.187-1.597.7-2.155.962-.613 1.902-.36 2.34.328.23.36.263.71.153.963l.012.012 1.553-.974.558.897-3.304 2.09zm4.374 2.735c-.055-.077-.098-.142-.186-.23-.273-.273-.602-.328-.886-.142-.055.044-.12.087-.186.153l-1.225 1.204-.743-.755 1.63-1.587c.36-.35.58-.58.777-.8l.634.646-.427.47.023.02c.48-.23.92-.076 1.15.154.065.066.097.11.14.175l-.7.69zm3.873 3.72a2.056 2.056 0 0 1-.263.327l-1.805-1.225c-.22.394.02.8.426 1.072.295.197.57.328.864.405l-.284.666c-.372-.077-.755-.252-1.138-.503-.963-.645-1.138-1.564-.536-2.45.48-.71 1.466-1.203 2.44-.547.896.612.765 1.553.295 2.253zm5.415 2.077l-.7 1.882-.995-.362.656-1.76c.153-.417.11-.745-.252-.876-.272-.098-.502.033-.644.186a.605.605 0 0 0-.12.24l-.678 1.84-.995-.362.8-2.166c.14-.394.25-.733.35-1.028l.863.317-.12.458.022.01c.208-.163.634-.35 1.17-.152.655.218.983.83.644 1.77zm-2.67-6.574l19.55-.252a18.925 18.925 0 0 1-9.988 2.834c-3.49-.01-6.75-.95-9.56-2.58zm5.667 6.268l-.646-.043c.306-.558.59-1.18.788-1.772l.985.098c-.32.635-.723 1.26-1.128 1.718zm3.27 3.327c-.448-.01-.842-.12-1.094-.263l.197-.744c.197.12.59.263.908.263s.45-.098.46-.273c0-.186-.098-.263-.48-.405-.7-.24-.975-.634-.953-1.028.01-.634.558-1.105 1.4-1.094.394.01.744.11.952.22l-.198.72c-.153-.076-.448-.196-.733-.196-.253 0-.406.098-.406.263 0 .164.13.252.547.405.646.23.898.57.898 1.06-.022.623-.525 1.082-1.498 1.072zm10.545-1.99l-.678-1.828-1.64.6.677 1.828-.995.36-1.62-4.396.995-.36.624 1.695 1.64-.602-.624-1.696.995-.362 1.62 4.397-.995.36zm.11-9.146h-3.928s-.58-1.29-1.225-1.607c0 0 .777-.58.645-1.094-.13-.515-.897-.198-1.225-.45-.317-.25-.645-.644-.897-.71-.252-.066 0-1.225.317-1.99.317-.778 1.41-1.03 1.925-.646.514.383 2.32-.263 2.9-.45.58-.196.71-1.16.776-1.804.066-.645.897-.83.71-1.41-.196-.58-.447-.832-.447-.832s1.094-.066 1.16-.58c.066-.514-.383-1.094.066-1.805s.066-1.41-.83-1.542c-.898-.13-1.926-.447-1.478-1.804.448-1.345.897-3.216-1.16-6.3 0 0 1.06-1.073.24-1.806-.82-.722-1.257-1.06-1.443-1.017-.196.044-.24-.48-.82-.142-.58.34-.623-.623-.863-.677-.24-.044-.34.536-.82.48-.48-.043-1.06-1.202-1.5-.918-.437.284.143.963-.196.92s-1.64.097-2.22-.285c-.58-.383-2.363-.92-3.665-.044-1.302.864-2.363 2.024-2.8 1.783-.438-.242-.58-.58-.438-.82.142-.242-.58-.58-.864.338-.284.92-.58.82-.58.536 0-.284-.624-.383-.624.284 0 .678.14 1.882-.285 1.838-.438-.044-.722 1.105-.722 1.64s.383 1.4-.197 1.883c-.58.48-1.017 2.406-.678 3.04.34.624 1.017 1.74.777 2.024-.24.284-.58.82.142 1.685.722.863 3.424 3.806 6.268 4.484l.197 2.658s-.92.24-1.16.044c-.24-.197-.678.142-.678.777 0 .624-.098 1.06-.34 1.444-.24.383 0 .722.045 1.105.043.383-1.926 2.22-2.364 2.166-.438-.044-.963.438-.963-1.203s.044-3.14-.48-3.085c-.537.044-1.346.438-1.84.48-.48.045-1.016-.097-1.016-1.4 0-1.3.044-6.945.197-9.746.142-2.8-.58-7.23-.864-9.89-.284-2.657-.438-3.138.48-3.084 0 0 13.576-.58 17.306-.448 3.73.13 8.423-.383 8.686 0 .252.383 1.028 1.094.448 1.608-.58.514-1.094.963-1.16 1.345-.066.383-1.094 1.225-.13 1.41.962.198 3.98-.316 4.375.646.383.964.71 2.254-.252 2.77s-1.477 1.87-1.41 2.318c.065.448.25 2.833-.515 3.282-.777.448-1.674.83-1.542 1.86.13 1.028 0 1.805-.514 2.57-.514.778-.83 1.346-.71 1.806.13.45-.515 1.74-1.03 2.122s-1.027 1.477-.71 2.057c.305.587 1.727 4.186-.078 4.186zm1.29-3.86c-.252-.712-.58-1.16.197-1.74.777-.58 1.345-1.99 1.225-2.57-.13-.58 0-.58.71-1.61s.832-1.476.646-2.318c-.197-.83 1.028-1.608 1.674-2.636.645-1.028.777-2.122.383-3.15-.383-1.028 1.094-1.094 1.477-1.87.252-.515.514-.373.678-.45.48 1.675.744 3.447.744 5.274 0 6.06-2.834 11.464-7.254 14.954.744-1.664-.24-3.196-.48-3.885zm3.86 10.194c-.82.58-1.815.48-2.45-.416-.633-.897-.447-1.882.45-2.516.84-.602 1.826-.416 2.417.427.71 1.006.317 1.98-.416 2.504zm4.257-3.74c-.295.327-.645.557-.92.644l-.426-.645c.22-.066.59-.273.8-.503.218-.24.23-.405.097-.525-.13-.12-.263-.098-.624.098-.646.372-1.117.306-1.4.044-.47-.427-.47-1.15.097-1.772.263-.295.57-.48.788-.57l.416.625a1.894 1.894 0 0 0-.633.416c-.175.186-.197.372-.066.48.12.11.274.067.657-.14.59-.34 1.017-.307 1.39.02.46.427.47 1.105-.175 1.827zm3.894-2.856l-3.172-1.783c-.383-.22-.722-.394-1.006-.536l.448-.8.438.186.01-.01c-.185-.395-.163-.82.078-1.26.36-.644 1.258-.907 2.2-.382 1.082.602 1.202 1.575.83 2.232-.197.36-.503.558-.766.58l-.01.01 1.476.832-.526.93zm1.564-6.454l-3.238-1.04.317-1.005 3.237 1.038-.317 1.006zm1.27-5.152c-.045.34-.21.602-.406.755-.23.164-.57.22-1.04.142l-1.377-.198-.066.45-.765-.11.066-.448-.633-.088-.13-1.06.918.13.11-.755.765.11-.11.755 1.226.175c.405.055.602-.022.645-.328.023-.142.023-.22.023-.317l.788.11c.033.13.033.393-.01.677z"/><path d="M-74.6 325.468c-.406.284-.274.82.02 1.236.33.47.79.69 1.15.438h.01c.34-.24.318-.722-.032-1.225-.306-.416-.766-.733-1.15-.45zM-66.342 317.537c-.47-.263-.952-.252-1.18.153a.67.67 0 0 0 .152.81.73.73 0 0 0 .153.108l.405.23c.077.044.13.066.208.087a.656.656 0 0 0 .744-.295c.23-.382.02-.808-.482-1.093z"/></g></svg>