<svg id="Layer_1" xmlns="http://www.w3.org/2000/svg" width="308" height="95" viewBox="0 0 308 95"><style>.st0{fill:#FFF}</style><path class="st0" d="M181.8 59.2c2.2 0 4.4-.8 6-2.3l3 3.2c-2 2-4.7 3.5-8.9 3.5-7.3 0-12-4.8-12-11.3 0-6.5 4.9-11.3 11.3-11.3 7.2 0 11.3 5.5 11 13.1h-17c.5 3.1 2.7 5.1 6.6 5.1m5.2-8.8c-.5-3-2.2-5.1-5.8-5.1-3.3 0-5.6 1.9-6.2 5.1h12zM69.8 59l13.1-13.4H70.1v-4.1H89v4.2L75.9 59.1h13.3v4.2H69.8zM103.9 59.2c2.2 0 4.4-.8 6-2.3l3 3.2c-2 2-4.7 3.5-8.9 3.5-7.3 0-12-4.8-12-11.3 0-6.5 4.9-11.3 11.3-11.3 7.2 0 11.3 5.5 11 13.1h-17c.5 3.1 2.7 5.1 6.6 5.1m5.2-8.8c-.5-3-2.2-5.1-5.8-5.1-3.3 0-5.6 1.9-6.2 5.1h12zM142.6 52.3c0-7 5.2-11.3 10.9-11.3 2.9 0 5.6 1.3 7.3 3.3V31.4h4.6v31.8h-4.6v-3c-1.7 2.1-4.4 3.4-7.3 3.4-5.6 0-10.9-4.4-10.9-11.3m18.5 0c0-3.9-2.9-7.1-6.9-7.1-3.9 0-6.9 3.1-6.9 7.1s3 7.1 6.9 7.1c3.9 0 6.9-3.2 6.9-7.1M195.2 58.6l4.2-2.2c1.1 2 3.3 3.2 5.6 3.2 2.6 0 4-1.3 4-2.9 0-1.7-2.5-2.1-5.3-2.7-3.7-.8-7.6-2-7.6-6.5 0-3.4 3.3-6.6 8.4-6.6 4.1 0 7.1 1.6 8.8 4.2l-3.9 2.1c-1-1.5-2.7-2.5-4.9-2.5-2.5 0-3.8 1.2-3.8 2.6 0 1.6 2 2 5.2 2.7 3.6.8 7.7 2 7.7 6.5 0 3-2.6 7.1-8.8 7-4.6.1-7.8-1.7-9.6-4.9M226.2 53.5l-3.7 4v5.7h-4.6V31.4h4.6v20.8l9.8-10.8h5.7l-8.5 9.3 8.7 12.5H233zM128.6 41c-5.5 0-10.1 3.6-10.1 9.5v12.7h4.7V51.1c0-3.6 2.1-5.7 5.6-5.7 3.5 0 5.3 2.1 5.3 5.7v12.1h4.7V50.5c-.1-6-4.7-9.5-10.2-9.5"/></svg>