<svg xmlns="http://www.w3.org/2000/svg" viewBox="-241 259 308 95"><path fill="#FFF" d="M-150.257 302.836c3.883-7.2 10.52-14.897 18.356-17.51 1.623-.423 3.74-.846 5.153.213 1.27.987 1.412 2.54 1.2 3.953-.424 1.694-1.483 3.883-3.53 4.165-.353 0-.635-.14-.847-.353-.565-.565-.424-1.2-.353-1.906.353-1.413 1.624-2.825 3.036-3.037.21-.14.14-.424.14-.635-.212-.353-.424-.565-.777-.635-1.624-.212-2.824.847-3.954 1.624-4.66 3.67-7.98 8.4-10.803 13.132-2.26 4.306-4.165 8.612-4.8 13.625-.354 3.67.846 7.06 4.094 8.896 3.46 1.837 7.908.636 11.368-.352l3.248-.988 6.142-1.836c5.79-1.694 13.06-2.047 18.78.212 3.46 1.412 6.99 3.46 9.25 6.778 0 .14 0 .212-.142.212-4.8-1.27-11.155-2.683-15.956-.353h-.212c-1.483-2.33-3.954-3.67-6.425-4.165-8.12-.777-14.897 3.106-22.663 4.095-3.883.353-8.048.212-10.802-2.824-4.307-4.308-3.742-11.79-1.694-17.086.495-1.84 1.342-3.534 2.19-5.228zm11.296 2.54c2.046-3.74 5.153-8.26 9.46-9.67 1.2-.213 2.33-.142 3.317.634 1.836 1.836 1.2 5.013.565 7.2 0 .142.14.213.212.354 1.624 0 3.036-.847 4.165-1.906 2.54-2.895 5.223-6.636 9.46-6.142.776.14 1.482.565 1.905 1.27 1.06 2.12 0 4.378-1.412 6.002-.565.565-1.27.988-2.047.635-.353-.14-.565-.424-.777-.777-.354-1.483.564-2.824 1.693-3.67.353-.354 1.412-.142 1.06-.848-.213-.353-.566-.353-.848-.353-2.047.847-3.318 2.895-4.518 4.59-1.483 2.33-2.683 4.73-3.46 7.412-.21.988-.564 2.118.142 3.036.423.565 1.058.777 1.693.635 2.047-.777 3.742-2.33 5.224-4.095 3.53-4.165 5.366-9.46 10.096-12.85 1.483-.987 3.53-1.835 5.224-.846.353.14.565.424.847.353.353-.353.424-.847 1.06-.777 1.27 0 2.823 0 4.094.14l.14.142-.352.847-7.272 14.826c-.14.14-.14.353-.14.565.14.212.423.212.564.14 1.06-.634 1.836-1.693 2.542-2.682.635-.846 1.2-1.835 1.694-2.823.212-.353.424-.635.847-.565.425.14.99-.14 1.2.212-.423 1.27-1.2 2.33-1.835 3.53-1.906 3.036-4.518 6.566-8.12 7.484-.634.14-1.41.14-1.835-.353-.777-.565-.777-1.412-.988-2.118-.14-.14-.212-.14-.353-.14-1.484 1.41-3.107 2.823-5.367 2.47-.635-.14-1.27-.635-1.624-1.27-.566-1.06-.354-2.472-.354-3.672 0-.14-.212-.14-.353 0-2.33 2.33-4.942 4.377-8.048 5.013-1.483.212-2.683-.212-3.67-1.27-2.33-3.107-.566-7.06.776-10.097 0-.14 0-.352-.14-.352-.565.212-1.412.353-2.118.424l-.353.353c-1.907 3.53-3.955 7.272-7.414 9.884-1.412 1.058-3.53 1.693-5.154.776-1.694-1.2-1.906-3.318-1.694-5.224.496-2.47 1.414-4.448 2.26-6.425zm5.435-.21c-.988 2.046-2.047 4.094-2.047 6.424.14.424.353.988.847 1.06.565.14.988-.142 1.412-.425 1.906-1.624 3.318-3.883 4.377-6 .14-.213.212-.425.14-.778-1.2-.424-2.258-1.27-3.247-2.26h-.212c-.212 0-.212.213-.353.354.072.002-.917 1.625-.917 1.625zm3.036-4.095c.142 1.06 1.06 2.048 2.048 2.33.212.142.635.213.777 0 .353-.634.565-1.41.777-2.117.212-.988.353-2.26-.635-2.895-.353-.212-.777-.212-1.2 0-1.06.353-1.766 1.412-1.766 2.683zm24.005 8.26c-.353.848-.635 1.837-.424 2.825a1.1 1.1 0 0 0 .566.424c.777 0 1.27-.778 1.836-1.272 2.33-3.248 4.095-6.778 5.72-10.308.21-.777.634-1.412.634-2.26 0-.21-.212-.352-.353-.423-.353-.14-.635.14-.988.212-3.106 2.47-4.8 5.93-6.425 9.106l-.565 1.695zm15.11-9.107c.634-1.412 1.27-2.824 2.117-4.095.353-.424.847-.353 1.412-.424h3.53l.14.14c-.564 1.413-1.2 2.825-1.905 4.096a1.832 1.832 0 0 1-.99.777c-1.41 0-2.894.14-4.306 0-.07-.14 0-.352 0-.494zm3.6 7.13c2.47-5.012 5.365-9.883 9.46-14.19 3.953-3.954 8.4-7.272 13.625-8.26 1.412-.212 3.036-.14 4.165.847.212.212.424.353.777.212 3.742-1.483 9.037-2.047 12.78-.14 2.117 1.058 4.306 2.47 6.353 3.74.212.142.14.425 0 .566-1.2 1.412-2.26 2.683-3.318 4.095-.14.14-.353.14-.424 0l-5.577-3.883c-2.542-1.694-5.577-3.036-9.037-2.47-.354.21-.213.634-.213.987.14 3.46-1.2 6.566-2.824 9.25-1.27 1.905-2.895 3.953-5.154 4.588-.99.212-1.907-.14-2.543-.847-1.624-2.47-.212-5.577.988-7.837 1.412-2.47 3.53-4.73 5.93-6.565l.14-.353c-.21-.212-.634-.14-.846 0-3.743 1.27-6.78 4.59-9.532 7.695-4.942 6.142-8.825 12.78-10.943 20.05-.635 2.824-1.624 6.99 1.2 8.896 2.47 1.27 4.8-.353 6.636-1.906 2.825-2.895 4.73-6.142 5.508-9.884.14-1.06.424-2.683-.635-3.46-.988-.423-1.694.354-2.26.99-1.41 1.693-2.046 3.74-2.258 6l-2.047 1.412c-1.27.847-2.542 2.047-3.53 3.248-.14 0-.14-.14-.212-.212-.14-4.094 1.27-7.624 3.53-10.8 1.836-2.048 4.095-3.884 6.848-3.25 1.2.354 2.047 1.625 2.26 2.825.423 3.883-1.2 7.2-2.896 10.378-2.824 4.377-7.272 8.896-12.85 8.4-2.117-.14-4.164-1.623-5.012-3.67-2.4-4.236-.918-9.602.494-13.767l1.414-2.682zm19.06-7.34c0 .423.213.987.778 1.2.988.352 1.694-.425 2.47-.99 2.543-2.682 4.096-5.788 4.52-9.46 0-.564.21-1.2-.142-1.693-.21 0-.423 0-.634.212a19.61 19.61 0 0 0-4.518 4.518c-1.272 1.834-2.33 3.882-2.472 6.212zm3.672 12c2.047-2.682 4.73-5.718 8.12-5.93.846 0 1.623.425 2.117 1.06 1.483 2.118.212 4.942-.353 7.2 0 .213.142.354.213.425.777.14 1.483 0 2.118-.353l.213-.353c2.47-7.06 6.142-13.626 10.52-19.84 2.682-3.67 6.212-7.27 10.307-9.106.988-.353 2.33-.777 3.248 0 1.06.847.777 2.26.424 3.46-.14.987-1.2 1.058-1.906 1.27h-.14c0-.635.352-1.2.564-1.836 0-.353.14-.635 0-.988-.212-.353-.565-.212-.847-.14-1.412.634-2.47 1.905-3.53 3.105-3.883 4.518-6.778 9.53-9.32 14.685a94.605 94.605 0 0 0-2.47 5.366c0 .14 0 .212.14.212.636 0 .99-.635 1.413-.988 3.46-3.106 6.213-6.778 8.825-10.308.566-.212 1.2-.212 1.837-.353h.14c0 .566-.423.848-.634 1.272-2.895 4.165-6.142 8.12-10.096 11.72l-2.895 2.33c-.635.565-.635 1.412-.988 2.047-.565 1.835-1.06 3.67-1.2 5.718 0 .353.14.635.424.847.777.353 1.412-.424 1.906-.847 3.883-4.518 5.577-9.955 10.378-14.05 1.624-1.27 3.67-2.258 5.72-1.41.352.14.634.564 1.058.423.353-.21.353-.634.777-.634 1.412 0 2.895-.14 4.165 0 .14.14 0 .353 0 .424l-.988 1.906-6 12.002c-.213.565-.636 1.2-.636 1.694.14.212.353.353.635.212 1.06-.635 1.906-1.624 2.683-2.683.777-1.058 1.27-2.117 2.047-3.105.353-.212.847-.14 1.27 0 .213.212-.14.565-.14.777-1.694 3.67-4.165 7.625-8.048 9.53-.847.425-2.118.848-3.106.354-.778-.565-.778-1.483-1.06-2.26-.14-.14-.212-.14-.353 0-1.624 1.413-3.318 3.037-5.507 2.33-1.412-.634-1.483-2.258-1.624-3.67l-.14-.212-.213.14c-1.483 1.837-3.53 4.166-6.142 3.955-.987-.142-1.835-1.06-2.117-1.907-.847-2.895.14-6 .777-8.825 0-.14-.212-.353-.353-.353h-2.118l-.354.424c-1.624 3.105-3.318 6.212-6.142 8.824-1.483 1.27-3.248 2.33-5.224 1.836-1.624-.777-2.118-2.542-2.118-4.165.42-4.1 2.325-7.772 4.725-11.23zm.494 9.602c0 .635.354 1.2.99 1.412.423.14.846 0 1.2-.212 2.046-1.483 3.247-3.883 4.376-6 .14-.213.212-.566-.14-.778-1.06-.565-2.048-1.412-2.896-2.33-.14-.14-.353-.14-.424-.14-.777 1.058-1.27 2.117-1.836 3.317-.633 1.625-1.27 2.966-1.27 4.73zm5.155-9.884c.14 1.06.988 2.12 1.906 2.472.213.14.566.212.636-.14.635-1.413 1.2-3.037.847-4.52-.14-.352-.424-.776-.847-.846-.424-.14-.777 0-1.2.212-.776.564-1.34 1.623-1.34 2.823zm19.556 9.462c0 .565-.21 1.2.213 1.483.212.212.565.212.847.14 1.06-.564 1.694-1.623 2.33-2.54 2.118-3.32 3.742-6.85 5.154-10.52.14-.353.14-.777-.14-.988-.848-.424-1.484.565-2.12.988-2.823 2.824-4.306 6.213-5.718 9.672l-.565 1.765zm4.096-26.405l1.906-2.47.353-.213c5.507-.14 9.743-3.318 13.485-7.2 0 .564-.212.987-.424 1.482-2.47 5.93-8.613 11.155-15.25 11.155h-1.624c-.353-.14-.14-.352 0-.564l1.554-2.19zm6.848 31.205c0-.777.565-1.27 1.27-1.27.707 0 1.272.564 1.272 1.27s-.565 1.27-1.27 1.27c-.636 0-1.272-.493-1.272-1.27zm1.27 1.624c.848 0 1.625-.635 1.625-1.624 0-.847-.778-1.624-1.625-1.624s-1.624.635-1.624 1.624c0 .99.778 1.624 1.625 1.624zm-.28-1.553h.352l.424.777h.353l-.565-.777c.212 0 .424-.212.424-.565s-.212-.565-.635-.565h-.635v1.836h.353l-.072-.707zm0-.212v-.564h.352c.212 0 .424 0 .424.212 0 .353-.212.353-.424.353h-.353z"/></svg>