<svg xmlns="http://www.w3.org/2000/svg" width="478" height="258" preserveAspectRatio="none" stroke-linecap="round" stroke-linejoin="round" fill="none">
  <path vector-effect="non-scaling-stroke" d="M358 1.5v255M239 1.5v255M120 1.5v255M475.6 193H2.4m473.2-64H2.4m473.2-64H2.4" stroke="#f7f9fc" stroke-width="2"/>
  <path vector-effect="non-scaling-stroke" d="M1.5 1.5s6.6 82.9 52 142.1c24.7 32.3 61.1 61.1 112.8 74.7 144.4 38.2 310.3 38.2 310.3 38.2" stroke="#ffb4a1" stroke-width="3"/>
  <path vector-effect="non-scaling-stroke" d="M1.5 1.5s74 52.4 216 104.8c140.4 51.8 259 69.2 259 69.2" stroke-width="3" stroke="#ffa3c3"/>
  <path vector-effect="non-scaling-stroke" d="M476.5 256.5s.1-92.9-31.3-160.1C424.6 52.3 383.4 25.5 338 18.7 221.1 1 1.5 1.5 1.5 1.5" stroke="#fe95de" stroke-width="3"/>
</svg>