<svg xmlns="http://www.w3.org/2000/svg" viewBox="0 0 430 160"><defs><linearGradient id="chart-gradient" x1="100%" x2="0%" y1="0%" y2="0%" gradientUnits="userSpaceOnUse"><stop stop-color="#FE94E0" offset="0%"></stop><stop stop-color="#FFBF8A" offset="100%"></stop></linearGradient></defs><g fill="url(#chart-gradient)" fill-rule="evenodd"><rect width="8" height="89.8680136208379%" x="7" y="10.1319863791621%" rx="4"></rect><rect width="8" height="51.09713989974387%" x="24" y="48.90286010025613%" rx="4"></rect><rect width="8" height="88.94631142377929%" x="41" y="11.053688576220708%" rx="4"></rect><rect width="8" height="41.791341798627606%" x="58" y="58.208658201372394%" rx="4"></rect><rect width="8" height="94.62997327737261%" x="75" y="5.370026722627387%" rx="4"></rect><rect width="8" height="85.58599440248817%" x="92" y="14.414005597511832%" rx="4"></rect><rect width="8" height="80.5381560736622%" x="109" y="19.461843926337806%" rx="4"></rect><rect width="8" height="31.046181511394664%" x="126" y="68.95381848860534%" rx="4"></rect><rect width="8" height="50.02754148284273%" x="143" y="49.97245851715727%" rx="4"></rect><rect width="8" height="90.1998389592518%" x="160" y="9.800161040748193%" rx="4"></rect><rect width="8" height="84.45724089551412%" x="177" y="15.542759104485881%" rx="4"></rect><rect width="8" height="62.39905154007508%" x="194" y="37.60094845992492%" rx="4"></rect><rect width="8" height="33.60148488720766%" x="211" y="66.39851511279234%" rx="4"></rect><rect width="8" height="35.850631152998595%" x="228" y="64.1493688470014%" rx="4"></rect><rect width="8" height="59.66255203901194%" x="245" y="40.33744796098806%" rx="4"></rect><rect width="8" height="77.49564005960869%" x="262" y="22.50435994039131%" rx="4"></rect><rect width="8" height="56.410218841130245%" x="279" y="43.589781158869755%" rx="4"></rect><rect width="8" height="43.19786434440845%" x="296" y="56.80213565559155%" rx="4"></rect><rect width="8" height="47.99584243595139%" x="313" y="52.00415756404861%" rx="4"></rect><rect width="8" height="44.301044568241544%" x="330" y="55.698955431758456%" rx="4"></rect><rect width="8" height="38.359733961250754%" x="347" y="61.640266038749246%" rx="4"></rect><rect width="8" height="38.73092964945856%" x="364" y="61.26907035054144%" rx="4"></rect><rect width="8" height="89.26621927512906%" x="381" y="10.73378072487094%" rx="4"></rect><rect width="8" height="92.5351829214699%" x="398" y="7.464817078530103%" rx="4"></rect><rect width="8" height="56.4667221883274%" x="415" y="43.5332778116726%" rx="4"></rect></g></svg>