<svg xmlns="http://www.w3.org/2000/svg" viewBox="0 0 430 160"><defs><linearGradient id="chart-gradient" x1="100%" x2="0%" y1="0%" y2="0%" gradientUnits="userSpaceOnUse"><stop stop-color="#FE94E0" offset="0%"></stop><stop stop-color="#FFBF8A" offset="100%"></stop></linearGradient></defs><g fill="url(#chart-gradient)" fill-rule="evenodd"><rect width="8" height="100%" x="7" y="0%" rx="4"></rect><rect width="8" height="59.329219446587764%" x="24" y="40.670780553412236%" rx="4"></rect><rect width="8" height="33.48979766803842%" x="41" y="66.51020233196158%" rx="4"></rect><rect width="8" height="17.7978515625%" x="58" y="82.2021484375%" rx="4"></rect><rect width="8" height="8.779149519890261%" x="75" y="91.22085048010973%" rx="4"></rect><rect width="8" height="5%" x="92" y="95%" rx="4"></rect><rect width="8" height="5%" x="109" y="95%" rx="4"></rect><rect width="8" height="5%" x="126" y="95%" rx="4"></rect><rect width="8" height="5%" x="143" y="95%" rx="4"></rect><rect width="8" height="5%" x="160" y="95%" rx="4"></rect><rect width="8" height="5%" x="177" y="95%" rx="4"></rect><rect width="8" height="5%" x="194" y="95%" rx="4"></rect><rect width="8" height="5%" x="211" y="95%" rx="4"></rect><rect width="8" height="5%" x="228" y="95%" rx="4"></rect><rect width="8" height="5%" x="245" y="95%" rx="4"></rect><rect width="8" height="5%" x="262" y="95%" rx="4"></rect><rect width="8" height="5%" x="279" y="95%" rx="4"></rect><rect width="8" height="5%" x="296" y="95%" rx="4"></rect><rect width="8" height="5%" x="313" y="95%" rx="4"></rect><rect width="8" height="5%" x="330" y="95%" rx="4"></rect><rect width="8" height="8.77914951989025%" x="347" y="91.22085048010975%" rx="4"></rect><rect width="8" height="17.7978515625%" x="364" y="82.2021484375%" rx="4"></rect><rect width="8" height="33.48979766803839%" x="381" y="66.51020233196161%" rx="4"></rect><rect width="8" height="59.32921944658772%" x="398" y="40.67078055341228%" rx="4"></rect><rect width="8" height="100%" x="415" y="0%" rx="4"></rect></g></svg>