<svg xmlns="http://www.w3.org/2000/svg" xmlns:xlink="http://www.w3.org/1999/xlink" width="800" height="800" viewBox="0 0 800 800"><defs><path id="a" d="M366.8 755H418l46.4-58 7-23.6 16.6-14.9V626l46-29.2v-59.5l-11-5.5 1-19.1 29.6-51.7h12l47.4-82.9v-20.5l-8.8-4.4-23.5 7.6-8.2 3.3-5.8-4.4 1.2-5.1L556 343h-14.3l-11.9-14.4-8.3-18-8.3-16.6-11.9-17.5-1.2-27.1-3.6-14.1-5.9-5.5-6.3-33.7-7-11.1h-20l-9.6-5h-52.3l3.5-7h-15.4l-16.7-4.6 5.7 18.2-8.5 4.2v-7.6l-27-4.3v-5.4l-10.7-7.5H305v-40.1l-13.2-4.9h-53l-17.2 12.7-19.8 6.4-13.8 6.3V134h-14v8.1l-6.5 14.1-19.5 11.9V206l-59 32.5V337l18.7 16.2 26 22.8 1.7 14 16.9 10.9 1.4 9.7 55.9 3.2 16.7-10.8 33.4-3.2 36.9 14 5.9 52 19.1 26 4.7 22.7 6.4 11.9-.7 18.4v19.5l-17.1 10.9 5.7 43.3 10.6 27 5.9 48.7 5.9 40.1 10.7 17.3 9.5 6z"/></defs><use xlink:href="#a" overflow="visible" fill="#B2ADA1"/><clipPath id="b"><use xlink:href="#a" overflow="visible"/></clipPath><path clip-path="url(#b)" fill="#B2ADA1" d="M89 121h524v634H89z"/><path fill="#B2ADA1" d="M366.8 755H418l46.4-58 7-23.6 16.6-14.9V626l46-29.2v-59.5l-11-5.5 1-19.1 29.7-51.7h11.9l47.4-82.9v-20.5l-8.8-4.4-23.5 7.6-8.2 3.3-5.8-4.4 1.2-5.1L556 343h-14.3l-11.8-14.4-8.4-18-8.3-16.6-11.9-17.5-1.2-27.1-3.6-14.1-5.9-5.5-6.3-33.7-7-11.1h-20l-9.6-5h-52.3l3.5-7h-15.4l-16.7-4.6 5.7 18.2-8.5 4.2v-7.6l-27-4.3v-5.4l-10.7-7.5H305v-40.1l-13.2-4.9h-53l-17.2 12.7-19.8 6.4-13.8 6.3V134h-14v8.1l-6.5 14.1-19.5 11.9V206l-59 32.5V337l18.7 16.2 26 22.8 1.7 14 16.9 10.9 1.4 9.7 56 3.2 16.7-10.8 33.3-3.2 36.9 14 5.9 52 19.1 26 4.7 22.7 6.4 11.9-.7 18.4v19.5l-17.1 10.9 5.7 43.3 10.6 27 5.9 48.7 5.9 40.1 10.7 17.3 9.5 6z"/><defs><path id="c" d="M593.7 565l-.9 13.1-5.8 2.1v8.7l-10.7 1.8-9.3 5.3v4.8s-2.2 8.4-1.8 9.5c.4 1.2-2.8 4.5-2.8 4.5l-9.4.9v9s2.6 8.1 1.3 8.9c-1.3.9-3.6 3-3.6 3l-3.6 8.9 4.4 5.4 1.1 11.6 3 5.1 11.1-4.8 5-4.5 3.9-4.5 4.6-1 2-2.8h2.9l2-21.3 1.6-6.8 6.9-2.3 2.9-6.1 7.4-6.1V565h-12.2z"/></defs><use xlink:href="#c" overflow="visible" fill="#B2ADA1"/><clipPath id="d"><use xlink:href="#c" overflow="visible"/></clipPath><path clip-path="url(#d)" fill="#B2ADA1" d="M547 565h59v105h-59z"/><g><path fill="#B2ADA1" d="M555.7 667.6l11.1-4.8 5-4.5 3.9-4.5 4.6-1 2-2.8h2.9l2-21.3 1.6-6.8 6.9-2.3 2.9-6.1 7.4-6.1V565h-12.3l-.9 13.1-5.8 2.1v8.7l-10.7 1.8-9.3 5.3v4.8s-2.2 8.3-1.8 9.5c.4 1.2-2.8 4.5-2.8 4.5l-9.4.9v9s2.7 8.1 1.3 8.9c-1.3.9-3.6 3-3.6 3l-3.6 8.9 4.4 5.4 1.1 11.6 3.1 5.1z"/></g><g><defs><path id="e" d="M590.6 480l-3.4 10.3 3.4 9.7h1.4v-20z"/></defs><use xlink:href="#e" overflow="visible" fill="#B2ADA1"/><clipPath id="f"><use xlink:href="#e" overflow="visible"/></clipPath><path clip-path="url(#f)" fill="#B2ADA1" d="M587 480h5v20h-5z"/></g><g><path fill="#B2ADA1" d="M589.6 497.7l-2.9-8.5 3.9-9.2h1.4v20"/></g><path fill="#B2ADA1" d="M449 54.1l-7.4 11.7 5 31.6 9.1 12 15.8 2.8s8.5-3.7 15.5-4.8c7-1.1 22.7-1.7 22.7-1.7l6.5 4.9 1 29.3-7.5 10.9-5.9 11.7-18.7 5.1-3.5.1-4.1 17.1 20.2 5.3 8.7.6 13.1 15.4 19.6 21.4 10.2 22.6s8.2 9.4 9.1 12.9c.9 3.5 17.4 32.9 17.4 32.9l3.9 27.2 7 7.7 9.2-5.6 17.8-7.7s32.6-10.9 33.3-13.5 25-25.6 25-25.6l17.7-10.3 14.3-17.3 5-13.4-16-8.3-12.8-7.5-5.8-9.5-15.3 11.1-13.3 2.2-4-2.5-4.3-10.4-4.3-9.6-5.6-2.5s2 11.4-7.5-11.7-14.8 4.8-5-8.9c9.7-13.8-25.1-21.4-4.4-14.1 20.7 7.2-2.2-17.6 14.2.4s6.5 6.8 6.5 6.8l9.8 11.1 6.9-5.4-2.4-23-.2-49.6-10.4-6.5-7.2-4-12.7-7.5 1.8-15.1 8.9-13.6-28.7-10.5-9.6-3.2-28.4-6.1-11.7.5 7.9 10.3 3.8 10.5-20.4-.2-23.5.8-6.7-13s-16.3 5-18.6 6c-2.3 1-7 2.9-7 2.9l-11.6 3.9-10.9 3.9-9.4.3-2.1-11.3z"/></svg>