<svg xmlns="http://www.w3.org/2000/svg" width="800" height="800" viewBox="0 0 800 800"><g fill="#B2ADA1"><path d="M152.1 61c-8.1 0-17.2 5-20.2 10.4-3.1 5.4-10 9.9-15.3 9.8-5.4-.2-11.5 3.1-13.6 7-2.1 3.9-4.4 9.6-5.1 12.4-.7 2.8-2.1 8.5-3 12.5-1 4-5.9 7.3-10.9 7.3s-10.6-1.6-12.3-3.6c-1.7-2-6.6-5.1-10.9-7-4.3-1.9-10.3-3.4-13.5-3.3-3.1 0-9.1.1-13.4.2-4.2.1-12.5 4.6-18.5 10l-.5.4C9 122.6 4.1 132 4.1 138c0 6 1.4 13.2 3 15.9 1.7 2.7 1.7 4.9 0 4.9s-3 3-3 6.7.8 8.6 1.8 10.9c1 2.3 3.2 7.3 4.9 11 1.7 3.8 6.9 6.5 11.6 6 4.6-.5 8.6-3 8.8-5.7.2-2.7 3.4-5.9 7.1-7.3 3.7-1.3 6.9-3.7 7.1-5.3.2-1.6 2.8-1.5 5.9.2 3 1.7 5 5.5 4.3 8.6-.7 3-.7 8.4-.1 12 .6 3.6.4 12.5-.6 19.8-1 7.3-.4 14 1.3 14.9 1.7.9 4 4.7 5.1 8.4 1.1 3.7 2.4 9.7 2.7 13.3.4 3.6 4.1 8.2 8.3 10.3 4.2 2.1 11 3.9 15 3.9s8.8 1.9 10.7 4.3c1.9 2.3 7.1 7.8 11.6 12.2 4.5 4.4 10.7 9.3 13.7 11 3 1.7 7.4 3 9.8 3 2.4 0 4.3-2.5 4.3-5.5s4.4-8 9.7-11c5.3-3 13.4-6.6 18-7.9 4.5-1.4 8.2-4.9 8.2-7.9s2.3-3.3 5.1-.6c2.8 2.7 9.8 4.9 15.6 4.9s13.5 1.1 17.2 2.4c3.7 1.3 6.7 4.9 6.7 7.9s-1.9 8.5-4.3 12.2c-2.4 3.7-9 9.7-14.9 13.4-5.8 3.7-10.6 9.7-10.6 13.4s-3.5 10.6-7.7 15.3c-4.3 4.7-9.4 12.4-11.4 17.1-2 4.7-9.3 8.5-16.2 8.5-6.9 0-13.9 2.9-15.6 6.5-1.7 3.6-4.3 9-5.8 12s-2.8 8.1-2.8 11.2c0 3.1 6.6 5.4 14.6 5.1 8.1-.3 16.9-.9 19.5-1.2 2.7-.3 9 4.1 13.9 9.8 5 5.7 9.5 14.5 10.2 19.5.6 5 5.6 13.3 11.1 18.3s11.9 6.1 14.3 2.4c2.4-3.7 5.3-.2 6.5 7.8l4 26c1.2 8 5.6 20.2 9.6 27.2l8.6 14.9c4 7 7.6 17.4 7.9 23.1.3 5.7 2.8 14 5.5 18.3 2.7 4.4 6.3 7.1 7.9 6.1 1.7-1 5-.5 7.3 1.2s4 6.6 3.7 11c-.3 4.4 2.4 7.4 6.1 6.7 3.7-.7 8.4-1.8 10.4-2.4 2-.7 3.4-3.7 3-6.7-.3-3-2.3-6-4.3-6.7-2-.7-3.9-4.8-4.3-9.2-.3-4.4-2.5-9-4.9-10.4-2.4-1.3-4.1-9-3.9-17.1l.4-13.5c.2-8.1 4.8-19.6 10.2-25.6l2.4-2.6c5.4-6 13.1-11.4 17.1-12.1 4-.7 9-4.2 11-7.9s8.3-11.4 14-17.1l9.8-9.8c5.7-5.7 13.7-9.3 17.7-7.9 4 1.3 10.6 2.4 14.7 2.4 4 0 7.6 5.8 8 12.8.3 7.1 3.6 14.1 7.3 15.6 3.7 1.5 7.5 7.8 8.5 14s6 11.8 11 12.5c5 .7 9.4 5.1 9.8 9.8.3 4.7 1.4 15.1 2.3 23.1l4 35.6c.9 8 3.6 15.7 5.9 17 2.3 1.3 5.1 6 7.2 10.4 2 4.4 2.9 9.6 2.9 11.6v11.6c0 4.4-.9 7.8-2.9 6.8s-3.4-7.6-4.1-14.6h-4.9c-4.9 0-5.7-2.3-5.7-2.3-3.6-7.2-8.5-11-10.8-8-2.4 3-4.3 8.6-4.3 12.7 0 4 2.5 11.1 5.5 15.8 3 4.7 8.2 12.4 11.6 17.1 3.4 4.7 5.8 11 5.5 14-.3 3 1.3 9.9 3.7 15.3 2.4 5.4 7.3 13.3 11 17.7 3.7 4.4 9.2 8.8 12.2 9.8s5 4 4.3 6.7c-.7 2.7 2.1 9 6.1 14.1 4 5 10.4 9.2 14.1 9.2 3.7 0 9.7 2.5 13.4 5.5 3.7 3 11.4 5.5 17.1 5.5 5.7 0 10.1-1.9 9.8-4.3-.3-2.4-.6-7-.6-10.4 0-3.4-1.4-6.1-3-6.1-1.7 0-4.4-1.9-6.1-4.3-1.7-2.3-9.4-4.3-17.1-4.3-7.7 0-14-5.5-14-12.2 0-6.7-.3-15.5-.6-19.6-.3-4-4.2-11.5-8.6-16.5-4.4-5-11.8-11.6-16.5-14.7-4.7-3-8.6-8-8.6-11s1.4-5.8 3.1-6.1c1.7-.3 3.9 1 4.9 3.1 1 2 3.2 2.3 6.2.6 3-1.7 4.4-6.4 4.4-10.4v-24.4c0 .7-1.7-1.2-3.8-4.3-2-3-5.3-7.7-8-10.4s-6.2-11.3-8.1-19.1l-2.7-11.8c-1.9-7.8-1.7-15.9.3-17.9 2-2 7-.4 11 3.7l15.9 15.9c4.7 4.7 11.3 6.3 14.7 3.7 3.4-2.7 5.9-11.5 5.7-19.5l-.4-15.9c-.2-8.1 4.3-14.7 10-14.7s9.8-2.5 9.2-5.5c-.7-3-2.6-9.1-4.3-13.4-1.7-4.4-5.8-7.9-9.2-7.9-3.4 0-6.1-6.3-6.1-14S494.3 452 501 452c6.7 0 17.2-2.2 23.2-4.9s13.2-7.1 15.9-9.8c2.7-2.7 8.7-4.9 13.4-4.9 4.7 0 13.9-3.9 20.3-8.7l18.6-14.3c6.5-4.8 11.1-14.5 11.1-21.6v-38.5c0-8.1-.7-18.5-2.4-23.2-1.7-4.7-3.8-11.6-5.2-15.3-1.3-3.7-.6-10.3 1.4-14.7 2-4.4.4-11.5-3.6-15.9s-8.4-9-9.7-10.4c-1.3-1.4.1-4.7 3.1-7.3 3-2.7 7.2-5.4 9.2-6.1 2-.7 9.4-.7 16.5 0s12.3 6.4 11.6 12.8c-.7 6.4 2.1 14.4 6.1 17.7 4 3.4 8.4 10.5 9.8 15.9 1.3 5.4 5.7 10 9.8 10.4 4 .3 7.3-3.8 7.3-9.2 0-5.4.6-15.8 1.2-23.2.7-7.4.7-17.8 0-23.2-.7-5.4 2.4-11.4 6.7-13.4 4.4-2 14.1-6 21.7-8.8l5.5-2c7.6-2.8 17.3-7 21.7-9.4 4.4-2.4 9-10.8 10.4-18.8l.1-.4c1.3-8 .2-15.3-2.5-16.3s-9.6-1.8-15.3-1.8c-5.7 0-12.3 1.4-14.7 3.1-2.3 1.7-8.9 2.8-14.7 2.4-5.7-.3-11.2-3.6-12.2-7.3-1-3.7.1-8.6 2.4-11 2.4-2.4 7.9-4.8 12.2-5.5 4.4-.7 7.9-3.7 7.9-6.7s-2.5-11-5.5-17.7c-3-6.7-11.3-14.7-18.3-17.8-7.1-3.1-17.4-10.3-22.9-16.2l-3-3.1c-5.6-5.8-13.7-14.2-18.1-18.5-4.4-4.4-11.2-8-15.3-8-4 0-10.1.3-13.4.6-3.4.3-6.1 2.5-6.1 4.9s-3 7.6-6.7 11.6-11.7 10.9-17.7 15.2c-6 4.3-17.6 7.8-25.7 7.8h-5.2c-8.1-.1-14.7-1.1-14.7-2.3 0-1.2-6.5-3.1-14.5-4.2l-24.4-3.4c-8-1.1-14.5.7-14.5 4s-4.7 6.1-10.4 6.1-11.8-3.6-13.6-8.1c-1.8-4.4-5.1-9.4-7.3-10.9-2.3-1.6-10.7-2.1-18.7-1.2l-2.6.3c-8 .9-17 5.8-20.1 10.8-3 5-10.2 10.2-15.9 11.6-5.7 1.4-13.7 0-17.7-3s-12.7-5.7-19.2-5.9c-6.6-.2-14 1.1-16.5 3s-6.8 5.3-9.5 7.7c-2.7 2.4-4.9 2.4-4.9 0s-2.8-4.3-6.1-4.3c-3.4 0-7.8-4.1-9.8-9.1-2-5-6.7-10.8-10.4-12.8S266 94 258.3 92.7c-7.7-1.3-20.2-4.8-27.7-7.7l-17.9-6.9c-7.5-2.9-16.2-6.6-19.4-8.2-3.1-1.6-9.5-4.6-14.1-5.9-4.6-1.4-14.9-3.1-23-3.1h-4.1z"/><path d="M143.4 394c-8.1.3-14.6-1.9-14.6-5.1 0-3.1 1.2-8.2 2.8-11.2 1.5-3 4.1-8.4 5.8-12 1.7-3.6 8.7-6.5 15.6-6.5s14.2-3.9 16.2-8.5c2-4.7 7.1-12.4 11.4-17.1 4.3-4.7 7.7-11.6 7.7-15.3s4.8-9.7 10.6-13.4c5.8-3.7 12.5-9.7 14.9-13.4 2.4-3.7 4.3-9.2 4.3-12.2s-3-6.6-6.7-7.9c-3.7-1.3-11.4-2.4-17.2-2.4-5.7 0-12.8-2.2-15.6-4.9-2.8-2.7-5.1-2.4-5.1.6s-3.7 6.6-8.2 7.9c-4.5 1.3-12.6 4.9-18 7.9-5.3 3-9.7 8-9.7 11s-2 5.5-4.3 5.5c-2.4 0-6.8-1.4-9.8-3-3-1.7-9.2-6.6-13.7-11s-9.8-9.9-11.6-12.2c-1.9-2.3-6.7-4.3-10.7-4.3-4 0-10.8-1.7-15-3.9-4.2-2.1-7.9-6.8-8.3-10.3-.4-3.6-1.6-9.5-2.7-13.2-1.2-3.7-3.5-7.5-5.1-8.4-1.7-.9-2.3-7.6-1.3-14.9 1-7.3 1.2-16.2.6-19.8-.6-3.6-.6-9 .1-12s-1.2-6.9-4.3-8.6-5.7-1.8-5.9-.2c-.2 1.6-3.4 4-7.1 5.3-3.7 1.3-6.9 4.6-7.1 7.3-.2 2.7-4.2 5.2-8.8 5.7-4.6.5-9.9-2.2-11.6-6-1.7-3.8-3.9-8.7-4.9-11-1-2.3-1.8-7.2-1.8-10.9s1.4-6.7 3-6.7 1.7-2.2 0-4.9-3-9.8-3-15.9 4.9-15.5 10.8-20.9l.5-.4c6-5.4 14.3-9.9 18.5-10 4.2-.1 10.2-.2 13.4-.2 3.1-.1 9.2 1.4 13.5 3.3 4.3 1.9 9.1 5 10.8 7 1.7 2 7.2 3.6 12.3 3.6 5 0 10-3.3 10.9-7.2 1-4 2.3-9.6 3-12.4.7-2.9 3-8.4 5.1-12.4 2.1-3.9 8.2-7 13.6-6.9 5.4.1 12.3-4.7 15.3-10.1C134.9 66 144 61 152.1 61h4.8c8.1 0 18.4 1.7 23 3.1 4.6 1.3 10.9 4.1 14.1 5.6 3.1 1.6 11.9 5.4 19.4 8.3l17.8 7c7.5 2.9 20 6.4 27.7 7.8 7.7 1.3 17.1 4.1 20.8 6.1 3.7 2 8.4 7.8 10.4 12.8 2 5 6.4 9.1 9.8 9.1s6.1 1.9 6.1 4.3 2.2 2.4 4.9 0 7-5.8 9.5-7.7c2.5-1.9 9.9-3.2 16.5-3 6.6.2 15.2 2.9 19.2 5.9 4 3 12 4.4 17.7 3 5.7-1.4 12.9-6.6 15.9-11.6s12.1-9.9 20.1-10.8l2.6-.3c8-.9 16.4-.4 18.7 1.2 2.3 1.6 5.6 6.5 7.3 10.9 1.8 4.4 7.9 8.1 13.6 8.1 5.7 0 10.4-2.7 10.4-6.1 0-3.3 6.5-5.1 14.5-4l24.4 3.4c8 1.1 14.5 3 14.5 4.2 0 1.2 6.6 2.2 14.7 2.3h5.2c8.1.1 19.6-3.4 25.7-7.8 6.1-4.3 14-11.2 17.7-15.2 3.7-4 6.7-9.3 6.7-11.6 0-2.3 2.7-4.5 6.1-4.9 3.4-.3 9.4-.6 13.4-.6s10.9 3.6 15.3 7.9c4.4 4.4 12.5 12.7 18.1 18.6l3 3.1c5.6 5.8 15.9 13.1 22.9 16.2 7.1 3.1 15.3 11.1 18.3 17.8 3 6.7 5.5 14.7 5.5 17.7s-3.6 6-7.9 6.7c-4.4.7-9.9 3.2-12.2 5.5-2.4 2.4-3.5 7.3-2.4 11 1 3.7 6.5 7 12.2 7.3 5.7.3 12.3-.8 14.7-2.4s9-3.1 14.7-3.1 12.6.8 15.3 1.8c2.7 1 3.8 8.3 2.5 16.3l-.1.4c-1.3 8-6 16.4-10.4 18.7-4.4 2.3-14.1 6.6-21.7 9.4l-5.5 2c-7.6 2.8-17.3 6.7-21.7 8.8-4.4 2-7.4 8.1-6.7 13.4.7 5.4.7 15.8 0 23.2-.7 7.4-1.2 17.8-1.2 23.2 0 5.4-3.3 9.5-7.3 9.2-4-.3-8.4-5-9.8-10.4-1.3-5.4-5.7-12.5-9.8-15.9-4-3.4-6.8-11.3-6.1-17.7.7-6.4-4.6-12.2-11.6-12.8-7.1-.7-14.5-.7-16.5 0s-6.1 3.4-9.2 6.1c-3 2.7-4.4 6-3.1 7.3 1.3 1.3 5.7 6 9.8 10.4 4 4.4 5.7 11.5 3.7 15.9s-2.6 11-1.2 14.7c1.3 3.7 3.2 10.6 4.8 15.3 1.7 4.7 2.4 15.2 2.4 23.2v38.5c0 7.1-4.6 16.8-11.1 21.6l-19 14.3c-6.5 4.8-15.5 8.7-20.2 8.7-4.7 0-10.7 2.2-13.4 4.9-2.7 2.7-9.8 7.1-15.8 9.8-6.1 2.7-16.5 4.9-23.2 4.9-6.7 0-12.2 6.3-12.2 14.1 0 7.7 2.8 14 6.1 14 3.4 0 7.5 3.6 9.2 7.9 1.7 4.4 3.6 10.4 4.3 13.4.7 3-3.5 5.5-9.2 5.5-5.7 0-10.2 6.6-10 14.7l.4 15.9c.2 8.1-2.4 16.9-5.7 19.5-3.4 2.7-10 1-14.7-3.7-4.7-4.7-11.9-11.8-15.9-15.9-4-4-9-5.7-11-3.7s-2.1 10.1-.2 17.9l2.9 11.8c1.9 7.8 5.7 16.4 8.3 19.1 2.7 2.7 5.4 7.4 7.4 10.4s3.8 4.9 3.8 4.3v24.4c0 4-1.4 8.7-4.4 10.4-3 1.7-5.8 1.4-6.8-.6s-2.9-3.4-4.6-3.1c-1.7.3-2.9 3.1-2.9 6.1 0 3 3.9 8 8.6 11 4.7 3 12.2 9.6 16.5 14.7s8.2 12.5 8.6 16.5c.3 4 .6 12.8.6 19.6 0 6.7 6.3 12.2 14.1 12.2s15.4 1.9 17.1 4.3c1.7 2.3 4.4 4.3 6.1 4.3 1.7 0 3.1 2.7 3.1 6.1 0 3.4.3 8 .6 10.4.3 2.4-4.1 4.3-9.8 4.3-5.7 0-13.4-2.5-17.1-5.5s-9.7-5.5-13.4-5.5c-3.7 0-10-4.1-14.1-9.2-4-5-6.8-11.4-6.1-14.1.7-2.7-1.2-5.7-4.3-6.7-3-1-8.5-5.4-12.2-9.8-3.7-4.4-8.6-12.3-11-17.7-2.4-5.4-4-12.3-3.7-15.3s-2.1-9.4-5.5-14c-3.4-4.7-8.6-12.4-11.6-17.1-3-4.7-5.5-11.8-5.5-15.9 0-4 1.9-9.8 4.3-12.8s7.2 1.1 10.8 8.3c0 0 .8 2.3 5.7 2.3h4.9c.7 7 2.1 13.5 4.1 14.6 2 1 2.9-2.5 2.9-6.8V601c0-2-.9-7.2-2.9-11.6-2-4.4-5.2-9-7.5-10.4-2.4-1.3-4.8-9-5.7-17l-3.9-35.6c-.9-8-1.9-18.4-2.2-23.1s-4.7-9.1-9.8-9.8c-5-.7-10-6.3-11-12.5s-4.8-12.5-8.5-14.1c-3.7-1.5-7-8.5-7.3-15.6-.3-7.1-3.9-12.8-7.9-12.8s-10.6-1.1-14.7-2.4c-4-1.3-12 2.2-17.7 7.9l-9.8 9.8c-5.7 5.7-12 13.4-14 17.1-2 3.7-7 7.3-11 7.9-4 .7-11.7 6.1-17.1 12.1l-2.4 2.6c-5.4 6-10 17.5-10.2 25.6l-.4 13.5c-.2 8.1 1.5 15.8 3.9 17.1 2.4 1.3 4.6 6 4.9 10.4.3 4.4 2.3 8.5 4.3 9.2 2 .7 3.9 3.7 4.3 6.7.3 3-1 6-3 6.7-2 .7-6.7 1.8-10.4 2.4-3.7.7-6.4-2.4-6.1-6.7s-1.3-9.3-3.7-11c-2.4-1.7-5.7-2.2-7.3-1.2-1.7 1-5.3-1.7-7.9-6.1-2.7-4.4-5.2-12.6-5.5-18.3-.3-5.7-3.9-16.1-7.9-23.1l-8.6-14.9c-4-7-8.3-19.2-9.6-27.2l-4-26c-1.2-8-4.2-11.5-6.5-7.8-2.4 3.7-8.8 2.6-14.3-2.4s-10.5-13.3-11.1-18.3c-.6-5-5.2-13.8-10.2-19.6-5-5.7-11.2-10.1-13.9-9.8-3 .4-11.8 1-19.9 1.3z"/><path d="M744.9 247.7c-2.9 1.6-5.2 5.8-5.2 9.2 0 3.4-1.2 8.6-2.7 11.6-1.5 3-3.3 5.7-4 7.7-.7 2-5.5 5.7-10.7 5.7h-5c1.4 7 1.1 9.8-.5 11.6-1.6 1.8-4.4 6.9-6.2 8.8-1.8 1.9-8.4 5.6-14.6 5.6h-1.5c-1.5 0-5.9 3.1-5.4 4.6l.5.8c-4.4 1.9-9.6 4.2-11.6 5.6-2 1.4-2.3 3.3-.5 4.5 1.8 1.2 4.1 2.2 5.2 2.2 1.1 0 3 1.3 4.2 2.9 1.2 1.6 3.5 3.4 5 3.9s4.2-.1 5.9-1.5c1.8-1.4 3.3-3.1 3.5-4 .1-.8 2.2-1.5 4.5-1.5s7.1 1.3 10.7 3c3.5 1.6 7 3 7.7 3 .7 0 1.7-2.9 2.3-6.4.6-3.5 1.8-6.4 2.7-6.4.9 0 3.2-.6 5.1-1.2 1.9-.7 4.4-2 5.5-3 1.1-1 4.3-2.7 7.2-4 2.9-1.2 5.6-3.8 6.2-5.7.5-1.9 1.4-4.8 2-6.4.5-1.6 1-6.4 1-10.7 0-4.2 1.1-8.3 3-9.2 1.9-.8 3-4.7 3-8.7v-13.4c0-3.4-2.4-5.4-6.4-5.4h-3c-.9 0-2.7-3.4-4.7-3.4-1.2.1-2.2-.3-3.2.2"/><path d="M691.9 332.5c-1.5-.5-3.7-2.3-5-4-1.2-1.6-3.1-3-4.2-3s-3.4-1-5.2-2.2c-1.8-1.2-1.5-3.4.5-4.7 2.1-1.4 7.3-4 11.6-6l-.5-.1c-.5-1.5 4-4.6 5.4-4.6h1.5c6.3 0 12.9-3 14.6-4.9 1.8-1.9 4.6-7.1 6.2-8.8 1.6-1.8 1.9-5.3.5-12.3h5c5.2 0 10-3.7 10.7-5.7.7-2 2.5-5.5 4-8.4 1.5-3 2.7-7.9 2.7-11.3 0-3.4 2.3-6.7 5.2-8.3 2.9-1.6 6.3-3.2 7.7 2.8h3c4.1 0 6.4 2 6.4 5.4v13.4c0 4-1.1 7.9-3 8.7-1.9.8-3.2 4.9-3.2 9.2 0 4.2-.3 9-.9 10.7-.6 1.6-1.4 4.5-1.9 6.4-.6 1.9-3.3 4.5-6.2 5.7-2.9 1.2-6.1 3-7.2 4-1.1 1-3.5 2.3-5.4 3-1.9.7-4.2 1.2-5.1 1.2-.9 0-2.1 2.9-2.7 6.4-.6 3.5-1.7 6.4-2.3 6.4-.7 0-4.1-1.3-7.7-3-3.6-1.6-8.3-3-10.7-3-2.3 0-4.3.7-4.5 1.5-.1.8-1.7 2.6-3.5 4-1.7 1.4-4.3 2-5.8 1.5zM760.5 200H756c-1.3 7-2.5 13.5-2.5 15.7 0 2.2-.6 7.6-1.2 12.1-.7 4.5-2.1 8.4-3.2 9.2-1.1.8-.1 1.1 2.2 1.1H774.1c4.2 0 7.9-1.5 8.2-3.8.3-2.3 4.6-9.1 9.7-15.4 0 0 1.2-1.4.7-3.9l-.5-2.4c-2.7-.6-7.9-3.5-11.4-6.7-3.5-3.3-10.7-5.7-15.9-5.7h-4.4z"/><path d="M749.1 236.9c1.1-.8 2.5-5 3.2-9.5.7-4.5 1.2-9.7 1.2-11.9 0-2.2 1.1-8.6 2.5-15.6h9c5.2 0 12.3 2.5 15.9 5.8 3.5 3.3 8.7 6.3 11.4 6.9l.5 2.4c.5 2.5-.7 3.9-.7 3.9-5.1 6.3-9.4 12.9-9.7 15.2-.3 2.3-3.9 3.8-8.2 3.8h-22.9c-2.3.1-3.3-.2-2.2-1zM512.7 458.4c-1.6 1.1-6.3 3.5-10.5 5.4l-1.5 1.5-1.5 1.5c4.1 1.1 8.4 3.3 9.7 5 1.2 1.6 4 3 6.2 3s4.1-1.1 4.2-2.5c.1-1.4 1.7-2.6 3.5-2.7 1.8-.1 3.2-1.5 3.2-2.6 0-1-1.1-1-2.5-7h-5c-1.2 0-3-2.5-4.5-2.5-.4 0-.9.6-1.3.9"/><path d="M519.4 472.3c-.1 1.4-2 2.5-4.2 2.5s-5-1.3-6.2-3c-1.2-1.6-5.6-3.9-9.7-5l1.5-1.5 1.5-1.5c4.2-1.9 8.9-4.8 10.5-5.9 1.6-1.1 4.2 2.1 5.9 2.1h5c1.4 6 2.5 6 2.5 7s-1.5 2.2-3.2 2.3c-2 .2-3.5 1.6-3.6 3zM604 479v11.9c0 2.9-2.5 7-4 9.2-1.5 2.2-4.9 7.1-6.9 10.9l-3.3 1.5-3.1 1.5c-.8-3-4.2-7.6-7.5-10.4l-1.5.5-1.5.5c-3.3-.3-4.4 1.3-2.5 3.5l2.5 3.5 2.5 3.5c2.2.3 5.5 2.8 7.4 4.3 1.9 1.5 4 3.8 4.6 3.8h4.5c1.8 0 4-3.2 4.8-5.8.8-2.6 1.5-5.2 3.5-7.7s6.4-5.7 7.9-6.7l1.5-1.1c.3-2 .5-7 .5-9.4 0-2.4-.9-1.2-2-7.2h-6c.5 0-.1-6.6-1.5-8.3-.5-.6.5-.2.1-.2-.7 0 .1 1.9.1 3.9"/><path d="M590.6 523c-.6 0-2.7-2.3-4.6-3.8-1.9-1.5-5.3-3.5-7.4-3.8l-2.5-3.7-2.5-3.6c-1.9-2.2-.8-3.8 2.5-3.5l1.5-.5 1.5-.5c3.3 2.7 6.6 7.4 7.4 10.4l3-1.5 3-1.5c1.9-3.8 6-8.8 7.5-10.9 1.5-2.2 4-6.3 4-9.2v-10.7c0-3-.2-5.3 1.2-3.6 1.4 1.8.7 8.3.2 8.3h6c1.1 6 2 4.7 2 7.1 0 2.4-.2 6.7-.5 8.7l-1.5 1.3c-1.5 1-6 4.1-7.9 6.6-2 2.5-2.7 5.8-3.5 8.3-.8 2.6-3 5.9-4.8 5.9h-4.6zM583.1 542.6l1 3.5c1 3.5 1 6.9 4.5 9.4l3.5 2.5c-.1 5.2-.2 10.3-.2 11.4 0 1.1-.9 2.3-2.1 2.7-1.2.4-1.8 1.8-1.4 3 .4 1.2 2.4 2.6 4.5 3 2.1.4 4.6 2.5 5.7 4.7 1.1 2.2 2.5 5.3 3.2 6.9.7 1.6 2.2 1.8 3.5.3 1.2-1.5 5.3-4.3 9.2-6.2l-1-1.5c-1-1.5-.7-8.2-.7-8.2.4-8.1-.5-16.4-1.9-18.6-1.4-2.2-5.2-5.3-8.4-6.9-3.2-1.6-6.9-4.4-8.2-6.2-1.3-1.8-3.3-5.1-4.5-7.4-1.2-2.3-3.9-4.7-6.1-5.2h-.3c-2-.1-2.2 5.6-.3 12.8"/><path d="M601.7 589.7c.7 1.6 2.2 1.8 3.5.3 1.2-1.5 5.3-4.3 9.2-6.2l-1-1.5c-1-1.5-.7-8.2-.7-8.2.4-8.1-.5-16.4-1.9-18.6-1.4-2.2-5.2-5.3-8.4-6.9-3.2-1.6-6.9-4.4-8.2-6.2-1.3-1.8-3.3-5.1-4.5-7.4-1.1-2.3-3.9-4.7-6.1-5.2-2.2-.5-2.4 5.3-.5 12.9l1 3.5c1 3.5 1 6.9 4.5 9.4l3.5 2.5c-.1 5.2-.3 10.3-.3 11.4 0 1.1-.9 2.3-2.1 2.7-1.1.4-1.8 1.7-1.4 3 .4 1.2 2.4 2.6 4.5 3 2.1.4 4.6 2.5 5.7 4.7 1 2.1 2.5 5.2 3.2 6.8zM601 533h7v9h-7z"/><path d="M600.9 537.2c0 2.5.8 4.5 1.7 4.5 1 0 2.5-.4 3.5-1 1-.5 1.7-2.5 1.7-4.5 0-1.9-1.6-3.5-3.5-3.5-1.8 0-3.4 2-3.4 4.5"/><path d="M602.6 541.7c-1 0-1.7-2-1.7-4.5s1.6-4.5 3.5-4.5 3.5 1.6 3.5 3.5-.8 3.9-1.7 4.5c-1 .5-2.6 1-3.6 1zM533.2 688.2c4 0 7.2-1.9 7.2-4.6s1.7-5.4 3.7-6.3c2-.8 3.7-6.8 3.7-13.3 0-6.5 2-13 3.1-14.3 1.1-1.4 3.1-9 3.1-17.1V596c0-8.1-3.5-14.7-6.5-14.7s-7.2 1.7-8.7 3.7c-1.5 2-3.3 5.3-3.7 7.2-.4 1.9-2.7 4.7-4.9 6.2s-5.4 2.7-7 2.7c-1.6 0-5.1 3.5-7.7 7.7-2.6 4.2-8.1 10.8-12.2 14.6-4.1 3.8-8.2 8-9.2 9.3-1 1.3-4.5 2.4-7.9 2.4-3.4 0-6.2 3-6.2 6.6 0 3.6 1.5 7.6 3.2 8.8 1.8 1.2 3.3 6.7 3.5 12.1.1 5.5 1.9 11 4 12.4 2 1.4 5.1 2.7 6.8 3 1.7.3 4.2.7 5.5 1.8 1.3 1.1 5.9 1.3 10.3 1.3h5.4c4-.1 10.6 7.1 14.5 7.1zM580.3 634.9c-4.2.8-7.7 3.3-7.7 5.5s-1.4 6-3.2 8.4c-1.8 2.4-3.2 5.8-3.2 7.4 0 1.6-1.8 4-4 5.2-2.2 1.2-4.7 3.9-5.6 5.9-.9 2-2.3 7.1-3.2 11.1-.9 4.1-.4 9.8 1 12.7 1.4 2.9 2.9 5.8 3.2 6.5.3.6 2.7 1.2 5.3 1.2 2.6 0 5.3-1.7 6-3.7.7-2 1.9-3.2 2.7-2.5.8.7 4 2.4 7.2 3.7 3.1 1.4 6.1 2.5 6.7 2.5.5 0 1.2-.4 1.5-1 .3-.6 1.9-.6 3.7 0 1.8.6 3.8-1.2 4.5-3.9.7-2.7.6-6.9-.3-6.9h-6.4c-1.1-6-2.1-9.9-2.2-12.9-.1-3-3.1-6.8-6.7-8.5-3.5-1.6-7.1-4.9-7.9-7.2-.8-2.3.7-6 3.3-8.2 2.7-2.2 11.4-5.5 19.5-5.7 0 0 7.4-1.5 9.9-1.5h2.5c.6 0 1-1.9 1-4.1 0-2.2-4.5-3.9-9.9-4.8-2.7-.4-6.1-.3-9.3-.3-3.2.1-6.3.6-8.4 1.1"/><path d="M563 698.8c-2.6 0-5-.5-5.3-1.2-.3-.7-1.8-3.6-3.2-6.4-1.4-2.9-1.9-8.6-1-12.7.9-4.1 2.3-9.1 3.2-11.1.9-2 3.4-4.7 5.6-5.9 2.2-1.2 4-3.6 4-5.2s1.5-5 3.2-7.4c1.8-2.5 3.2-6.2 3.2-8.4s3.5-4.6 7.7-5.5c4.2-.8 12.1-.8 17.6 0 5.4.8 9.9 1.9 9.9 4.1 0 2.2-.4 4.1-1 4.1h-2.5c-2.5 0-9.9 1.5-9.9 1.5-8.1.2-16.8 2.8-19.5 5-2.7 2.2-4.2 6.2-3.3 8.5.8 2.3 4.4 5.7 7.9 7.4 3.5 1.6 6.6 5.6 6.7 8.6.1 3 1.1 7 2.2 13h6.4c.8 0 1 4.2.3 6.9s-2.7 4.5-4.5 3.9c-1.8-.5-3.4-.6-3.7 0-.3.6-.9 1-1.5 1-.5 0-3.5-1.1-6.7-2.5-3.1-1.4-6.4-3-7.2-3.7-.8-.7-2.1.4-2.7 2.5-.6 1.8-3.3 3.5-5.9 3.5zM628.2 642.8c0 1.4 1.4 3.8 3.2 5.5 1.8 1.6 3.2 3.9 3.2 5s2.1 1.5 3.7 1c1.7-.5 3.7-1.7 3.7-2.5v-4.5c0-1.6-2.1-3.9-3.7-5s-4.8-2-6.6-2c-1.7 0-3.5 1.1-3.5 2.5"/><path d="M638.3 654.2c-1.6.6-3.3.1-3.3-1s-1.6-3.3-3.4-5c-1.8-1.6-3.3-4.1-3.3-5.4 0-1.4 1.4-2.5 3.2-2.5 1.8 0 5.3.9 6.9 2 1.6 1.1 3.7 3.3 3.7 5v4.5c-.1.7-2.2 1.8-3.8 2.4zM659.9 657.9c-1.4 1.5-2.5 3.9-2.5 5.4 0 1.5 2.5 3.9 5.4 5.2 3 1.4 5.4 3.8 5.4 5.5 0 1.6 2.2 4.8 5 6.9 2.7 2.2 6.9 4.5 9.2 5.2 2.3.7 5.4 2.9 6.9 5 1.5 2 3.8 4.6 5.2 5.7 1.4 1.1 3.2 4 4 6.4.8 2.5 1.5 8 1.5 12.4s1.6 8.8 3.5 9.9c1.9 1.1 6.5 2 10.2 2 3.7 0 8.3 1.9 10.3 4.2 2 2.3 4.8 4.2 8.3 4.2 3.5 0 4.7-1 4.7-2.2v-17.6c0-4.1 1.4-8.4 0-9.7-1.4-1.2 0-6.9 0-12.6v-2.5c0-2.5-3.4-10.4-3.9-14.4s-3.9-1.7-5.2-1.7c-1.3 0-12.1-.3-14-.3h-2c-4.9 0-13.6-2.4-19.3-3.5-5.7-1.1-14.9-3.5-20.3-3.5h-3c-.3-6-1.9-11.6-3.7-12.1-.4-.1-.8 0-1.2 0-1.6.1-3.4.9-4.5 2.1"/><path d="M703.5 725.6c-1.9-1.1-3.5-5.6-3.5-9.9 0-4.4-.7-9.9-1.5-12.4-.8-2.4-2.6-5.3-4-6.4-1.4-1.1-3.7-3.7-5.2-5.7s-4.6-4.3-6.9-5c-2.3-.7-6.4-3-9.2-5.2-2.7-2.2-5-5.3-5-6.9 0-1.6-2.4-4.1-5.4-5.5-3-1.4-5.4-3.7-5.4-5.2s1.1-4 2.5-5.4c1.4-1.5 3.9-2.6 5.7-2 1.8.5 3.4 6.1 3.7 12.1h3c5.4 0 14.6 2.4 20.3 3.5 5.7 1.1 14.4 3.5 19.3 3.5h2c2 0 12.3.3 13.6.3 1.3 0 5.1-2.1 5.6 1.9s3.8 11.8 3.8 14.2v2.5c0 5.7-1.4 11.4 0 12.6 1.4 1.2 0 5.6 0 9.7v17.6c0 1.2-1.3 2.2-4.7 2.2-3.5 0-7.2-1.9-9.1-4.2-2-2.3-6.2-4.2-9.9-4.2-3.6-.1-7.8-1-9.7-2.1zM592 409h19v25h-19z"/><path d="M600.4 417.9l-3.9 3.6-3.9 3.6c2.2 1.3 3.9 4.3 3.9 6.6s1.8 2.8 3.9 1.2c2.2-1.6 5.7-4.4 7.3-6.1 1.5-1.7 3.3-4 3.3-5.1v-6.1c0-2.3-1.8-4.2-3.3-4.2-1.5-.1-5.1 2.9-7.3 6.5"/><path d="M600.4 432.8c-2.2 1.6-3.9 1.1-3.9-1.2s-1.8-5.2-3.9-6.6l3.9-3.6 3.9-3.6c2.2-3.6 5.7-6.6 7.3-6.6 1.5 0 3.3 1.9 3.3 4.2v6.1c0 1.1-1.8 3.4-3.3 5.1-1.6 1.8-5.1 4.6-7.3 6.2zM632 438h9v4h-9z"/><path d="M634.4 438H632c4.8 3 8.7 3.7 8.7 2.4 0-1.3-1.7-2.4-3.8-2.4h-2.5z"/><path d="M634.4 438h2.4c2.1 0 3.8 1.1 3.8 2.4 0 1.3-3.9.6-8.7-2.4h2.5z"/></g></svg>