<svg xmlns="http://www.w3.org/2000/svg" xmlns:xlink="http://www.w3.org/1999/xlink" width="800" height="800" viewBox="0 0 800 800"><defs><path id="a" d="M350.2 151c-1.3 0-14.4 4.1-14.4 4.1l-2.2 4.4-4.4 8.6h-7l2.6 5.7 6.1 5.5 10 6.8h11.8l5.2-4.1-.9-10.5 2.6-3.3h8.2v6l3.8 4.7 4.9 5.1 2.7 7.2 15.3-1.7 4.8 5.1-1.7 6.8-11.6.6-3.1 14-13.1 1.7-.4-7.7h-13.1l-1.7-3.8-22.3-.8-4.8-4.9-7 .5-4.4-4.2-11.8.4-.4 8.5-9.2 1.3-.4 3h-10.9l-1.3-5.5h-4.4l1.3 2.3-12.2 8.2h-15.3l-1-5-19.3 1.4-4.1-2.7-8-4.7H198v-6h-14.6l-2-5.4-48.8-1.3-18.3-5.3H98.9l-7.1 6h-9.2l-13.2 7.4-9.2 12.6-5.1 15.7 8.1 7.6 3.1 3.6H27.8l6.1 9 8.1 14h26v7.2l-6.4 4.9-14.4 8.4L42 292h7v8.9l11.3 2.1h8.1l6.1 12h8.1l5.1 11.7-7.1 13.3-13.5 9.1 5.9 9.1v-7.9l12-2 11-1v-9.9l9-3.5h4.1l5.1 11H127v-6.5l-12.5-10.2 14-25.3H194.8l29 23h21.1v23.9l9.1-14.1 10.8 20.2 18.9 22.2 10.5 24.2 14.7 8.1V433h29l-6.2 17c-6.2 18.2 2.1 84.1 10.4 90.1s43.5 58.2 43.5 58.2l24.9 47.8 1.6 5h4.8l-2-2.8V641.5s1.5-8.5.7-9.8c-.9-1.3-.7-8.5-.7-8.5v-17.8c0-1.7 4.7 7.2 4.7 7.2l5.2 4.7 11.8 11.9 2.6 3.4s14 28 14.8 29.7c.9 1.7 1.3 6.4 1.3 6.4l-4.4 3 .4 7.7 13.5 11s3.9 3.8 3.9 6.4c0 2.6-3.1 9.8-3.1 9.8l2.6 4.7h36.7l10.9 5.5s6.1 5.1 6.1 6.4c0 1.3 9.6 5.5 9.6 5.5l16.6.6s2.6 6.6 2.6 8.3v12.3c0 3 10.5 9.5 11.8 9.9 1.3.4 8.3 4.4 8.3 4.4h9.6l2.6-1-7-9.4s4.4-35.1 4.4-39.7c0-4.7-4.4-5-4.4-5l-3.1-3.3s1.3-30.5.4-34c-.9-3.4-.9-9.7-.9-9.7s-7.9 5.5-9.2 6.8c-1.3 1.3-11.4 5.5-12.7 7.6-1.3 2.1-4.4 3-5.7 4.7-1.3 1.7-.9 8.5-.9 9.8 0 1.3-8.7 3.9-10.1 3.5-1.3-.4-5.7-1.2-5.7-1.2h-16.2l-6.1-7.3-2.2-10.7h-3.9l-2.4-8.5v-34l7.7-22.9 9.1-1.3 4.1-9.8 3.1 1.3L550 606l12-2v-9.3l22.5 7.2 6.9.4 4.1 4.7s1.4 10.6 1.4 14.4c0 3.8 15.8 15.7 15.8 15.7l9.2-.4.2-15.3-5.9-5.5v-22.5l7.3-13.2 6.7-18.7 15.6-5.5-3.4-22.1 14-11 1.8-19.1 7.9-3.8 10-1.7s2.6-8.5 2.6-9.8c0-1.3 5.2-5.1 5.2-5.1l7.9 4.3 2.6 4.9 6.1-.6h3.5c1.7 0 3.5.6 3.5.6l3.5-2.2s-4.4-6.4-7-7.7c-2.6-1.3-1.7-4.5-1.7-4.5s0-11.8-1.8-13.5c-1.7-1.7 3.1-4.6 3.1-4.6l5.2 9.4 3.9 10.5 12.2 1.1h8.7l7.4-10.3 11.4-13.7h-17l4.8-6.9-14.9.1s-2.6-6.5-2.6-7.8c0-1.3.9-8.8.9-8.8s-9.2 1.3-11.8 1.3c-2.6 0-1.3 2.2-1.3 2.2l-14 3.8-.4-13.1 8.3-1.3 7.4-4.2 24.9-3.8 17-.9 12.2-13.2 7.4-14s-7-10.2-14.9-10.2-17.9-14.9-17.9-14.9l-12.7-18.7-8.3-25.1-6.6-2.1s-9.2 1.7-10.5 1.7c-1.3 0-4.4 8.9-4.4 8.9l-1.8 4.2-8.6 2.1-6.6-2.4v-11l-4.5-14s-9.5.9-10.8.9c-1.3 0-2.1-9.3-2.1-9.3s-7.8 2.5-9.5 2.5H639v-10.2l-8.2.4-6.3 4.7-.7 23.8-6.9-.9 3.1 17 10.1 2.1 2.6 16.6-6.1 13.6-11.3 9.3-.9 25.1-7.4-1.3-9.2-4.7-3.5-22.5s-9.2-6.8-10.9-6.8c-1.8 0-14.8 3-14.8 3l-7-12.1L551 351h-24.9l-4.8-12.5s-6.1-7.1-7.9-7.1c-1.7 0-8.3-1.6-8.3-1.6l-.9-6.6 4.8 1.6 7-15.8 2.2-6 3.5-9.8 16.6-7.3 4.8-12h7.9l6.5-1.6-2.2-8.9s3.9-.4 8.3-3c4.4-2.5 4.8 3 4.8 3s0 3.4-.4 5.5-.4 8.1-.4 8.1l.4 3.8 9.2 1.4 21-3.3h7.4l6.1-4.8-10 .4S590.3 263 588.6 263c-1.7 0-7.9-1.9-7.9-1.9l3.9-6.3 12.7-5.9 2.6-8.3 6.1-13.8h7l3.5-1.9 2.2-1.6-2.2-2.5h-12.2c-3.1 0-4.8-8.9-4.8-8.9l4.4-7.8 11.8-3.3 16.6 7.5 13.5 5 12.2 7.2 3.5 5.1s-3.1 5.1-3.5 6.8c-.4 1.7-2.6 8.9-2.6 8.9l-1.7 10.5-4.8 10.1h-14l-2.2 4.4.4 3 19.2 1.1 7.4 5 1.7 8.4 18.8 10.6 3.1 7.6 6.6 2.8 3.1-12.9h15.7l8.3-7.4-5.3-6.1s-9.2-11.1-12.2-11.9c-3.1-.9-1.3-3.8-1.3-3.8l2.2-6 3.1 3.4s8.3 9.3 12.7 12.3c4.4 3 4.8-1.7 4.8-1.7s8.4-11.9 9.7-12.3c1.3-.4 8.4-3.8 8.4-3.8V245h-13.7c-2.2 0-3.9-6-3.9-6h-6.1l-21-5.8-.4-6.7 9.2-5.5-2.6-21-9.2-10.3-28.8-3S639.9 168 633.8 168h-21.4l-4.6-5.5h-4.6v4.2l-5 3v8.5l-3.6 7.2s-5.1.9-6.4.9c-1.3 0-1.7-7.7-1.7-7.7l.1-10.6H579l-.9-5h-7.4s-2.2 4.2-3.5 5.9c-1.3 1.7-.9 10.4-1.3 11.7-.4 1.3 0 6.7 0 6.7s3.9 2.5 5.2 7.6c1.3 5.1 3.9 2.9 3.9 2.9l7 2.1 3.1 5.9 6.1.8s1.8 5.9 1.8 7.2c0 1.3-7 6.4-7 6.4v5.1c0 2.1-4.4 1.7-4.4 1.7l-7.4 1.3-8.3-11.9-17.9-.8-1-6.8-8-12.7v-8.9l-7.3-1.7-3.4-5.1 4.6-5.1 7.5-3.8 10.6-3.8V163s-4.6-5.9-5.9-5.9c-1.3 0-16.9 3.8-16.9 3.8L519 165l3 15.7V202l4 10.6 6.4 4.2-2 5.5-5.1 4.2-10.3.5v-8c0-2.6-1.6-3-3.4-4.7-1.7-1.7-3.9-2.5-3.9-2.5s-5.7 2.5-7 3.4c-1.3.8-2.2 4.7-2.2 4.7l.9 2.1 3.5.9v4.7l-3.9-.4-14.6 1.7-1.4 5.5s-7.7-.9-9.4-4.7c-1.7-3.8-.8-4.2-.8-4.2L462 223v4.2h-13.6c-3.5 0-10.1 1.1-10.1 1.1l-9.2 4.8-2.6 9-2.6-1.7-6.6-5.9s-5.7-7.3-7.4-7.3c-1.7 0-2.2 5-2.2 5h-20.5c-2.2 0-.4-5-.4-5l10.5-4.3 3.1-1.7h9.6l2.2.9 1.7 2.4s4.4 2.5 4.8 3.7c.4 1.3 6.6 0 6.6 0l2.6-1.3 1.7-2.8 5.2-8.8h24.8l7 3.3 3.1 2.5 5.5-2.8 4.7-4.5v-16.1l-19.1-17-3-18.7-6.9-.9v8.1l-12 1.3v6.8l-5.1 3.8-5.6-11.3-37.9-1.5h-10.5c-1.3 0-1.3-5.3-1.3-5.3l3.5-5.8-2.6-2.1-7-3.8h-22.2z"/></defs><use xlink:href="#a" overflow="visible" fill="#B2ADA1"/><clipPath id="b"><use xlink:href="#a" overflow="visible"/></clipPath><path clip-path="url(#b)" fill="#B2ADA1" d="M26 151h749v613H26z"/><path fill="#B2ADA1" d="M410.5 645.9l-24.9-48.1s-35.3-52.3-43.6-58.4c-8.3-6-16.6-71.3-10.4-89.5l6.2-16.9H309v-22.6l-14.6-8.1-10.4-24.1-18.6-22.2-11.2-20.2-9.2 14.1V326h-21.1l-29-23h-66.3l-14 25.3 12.5 10.2v6.5h-12.8l-5.1-11H105l-9 3.5v9.9l-11 1-12 2v7.9l-5.9-8.9 12.8-8.9 7.4-13.7-4.6-11.8h-8.1l-6.1-12h-8.1L49 300.9V292h-7l5.1-9.4 14.5-7.7 6.4-5.7V262H42l-8.1-14-6.1-9H66.5l-3.1-3.7-8.1-8.3 5.1-15.5 9.2-12.2 13.2-7.3H92l7.1-6h15.3l18.3 5 48.8 1.5 2 5.5H198v6h21.1l8 4.9 4.1 3.4 19.3-2.1 1 4.8h15.3l12.2-8-1.3-2.5 4.4-.2 1.3 5.7h10.9l.4-2.9 9.2-1.7.4-8.3 11.8-.3 4.4 4.3 7-.4 4.8 5.1 22.3.4 1.7 3.8h13.1l.4 7.7 13.1-2.1 3.1-13.8 11.8-.7 1.7-6.7-4.8-5.1-15.3 1.7-2.6-7.2-5.1-5.1-3.7-4.7v-6h-8.2l-2.6 2.8.9 11-5.2 4.2H341l-10-6.7-6.1-5-2.6-6.3h7l4.4-8.7 2.2-4.4s13.1-3.9 14.4-3.9h22.3l7 3.6 2.6 2-3.5 6.1s0 5.3 1.3 5.3h10.5l38.4 1.5 5.1 11.6 5.1-4.1v-6.8l12-1.3v-8.1l6.4.9 3.9 18.7 18.7 17v16.1l-4.7 4.7-4.9 3-3.3-2.8-7.3-3.3H435l-5.2 8.8-1.7 2.5-2.6 1.5s-6.1 1.4-6.6.1c-.4-1.3-4.8-3.8-4.8-3.8l-1.7-2.1-2.4-1.1h-9.6l-3.1 2.2-10.5 4s-1.8 4.8.4 4.8h20.5s.4-5 2.2-5c1.8 0 7.4 6.8 7.4 6.8l6.6 6.2 2.6 1.8 2.6-8.9 9.2-4.9s6.6-1 10.1-1H462v-4.2l10.9 2.6s-1.1.4.6 4.2c1.7 3.8 9.7 4.7 9.7 4.7l1.8-5.5 14-1.7 3.9.4v-4.7l-3.5-.9-1.5-2.1s1.2-3.8 2.5-4.7c1.3-.9 7.2-3.4 7.2-3.4s2.1.9 3.9 2.5c1.8 1.7 3.5 2.1 3.5 4.7v8.1l10.2-.4 4.9-4.2 1.8-5.5-5.8-4.2-4-10.6v-21.2l-2.9-15.7 9.9-4.2s15.2-3.8 16.5-3.8c1.3 0 5.6 5.9 5.6 5.9v4.7l-10.7 3.8-7.8 3.8-4.7 5.1 3.8 5.1 7.3 1.7v8.9l8 12.7 1.4 6.8 17.7.8 8.2 11.9 7.4-1.3s4.3.4 4.3-1.7v-5.1s7-5.1 7-6.4c0-1.3-1.8-7.2-1.8-7.2l-6.1-.9-3.1-5.9-7-2.1s-2.6 2.1-3.9-3c-1.3-5.1-5.2-7.6-5.2-7.6s-.4-5.5 0-6.8c.4-1.3 0-9.7 1.3-11.4 1.3-1.7 3.5-5.9 3.5-5.9h7.4l.9 5h7.4l-.4 10.6s0 7.2 1.3 7.2 7.1-.6 7.1-.6l3.6-7v-8.5l5-3V162h4.8l4.4 6h21.4c6.1 0 28.8 18.7 28.8 18.7l28.8 2.8 9.2 10.3 2.6 20.9-9.2 5.1.4 7.5 21 5.8h6.1s1.7 6 3.9 6H739v9.6s-7.1 3.4-8.4 3.8c-1.3.4-9.7 12.3-9.7 12.3s-.5 4.7-4.8 1.7c-4.4-3-12.7-12.3-12.7-12.3l-3.1-3.4-2.2 5.9s-1.8 3 1.3 3.8 12.2 11.9 12.2 11.9l5.2 6.2-8.3 7.4h-15.7l-3.1 12.9-6.6-2.7-3.1-7.7-18.8-10.6-1.7-8.5-7.4-5.1-19.2-1.3-.4-2.7 2.2-4.4h14l4.8-10.1 1.7-10.8s2.2-7.1 2.6-8.8c.4-1.7 3.5-6.7 3.5-6.7l-3.5-5.1-12.2-7.2-13.5-5.1-16.6-7.6-11.8 3-4.4 8.5s1.7 8.9 4.8 8.9h12.2l2.2 2.6-2.2 2.1-3.3 1.4h-7l-6.1 13.8-2.6 8.2-12.7 6-3.9 6.4s6.1 2.1 7.9 2.1c1.8 0 13.1 11.9 13.1 11.9l10-1.2-6.1 4.8h-7.4l-21 3.3-9.2-2.2-.4-3.4s0-5.7.4-7.9c.4-2.1.4-5.4.4-5.4s-.4-5.5-4.8-2.9c-4.4 2.5-8.3 3-8.3 3l2.2 8.8-6.5 1.7h-7.9l-4.8 12-16.6 7.3-3.5 9.8-2.2 6-7 15.7-4.8-1.7.9 6.4s6.6 1.3 8.3 1.3c1.7 0 7.9 7.9 7.9 7.9l4.8 12.5H551l10.5 9.1 7 12.8s13.1-3.3 14.8-3.3c1.8 0 10.9 6.6 10.9 6.6l3.5 22.4 9.2 4.7 7.4 1.3.9-25.1 11.3-9.3 6.1-13.6-2.6-16.6-10-2.1-3.1-17 7 .9.9-23.8 6-4.7 8.2-.4v9.9h15.1c1.7 0 9.6-2.5 9.6-2.5s.9 9.8 2.2 9.8c1.3 0 10.6-1.1 10.6-1.1L681 323v11l6.8 2.5 8.4-2.1 1.8-4.2s3.1-8.9 4.4-8.9c1.3 0 10.5-1.7 10.5-1.7l6.6 2.1 8.3 25.1 12.7 18.7s10 14.9 17.9 14.9c7.9 0 14.8 10.2 14.8 10.2l-7.4 14-12.2 13.2-17 .9-24.9 3.8-7.4 4.3-8.3 1.3.4 13.2 14-3.8s-1.3-2.1 1.3-2.1 11.8-1.3 11.8-1.3-.9 7.6-.9 8.9c0 1.3 2.6 8.1 2.6 8.1l14.9-.7-4.8 6.9h17L741 470.7l-7.4 10.3h-8.7l-12.2-1.1-3.9-9.7-5.2-9.7s-4.8 2.8-3.1 4.5c1.8 1.7 1.8 13.5 1.8 13.5s-.9 3.3 1.7 4.6c2.6 1.3 7 8 7 8l-3.5 1.5s-1.8-.6-3.5-.6h-3.5l-6.1.6-2.6-5.6-7.9-3.9s-5.2 4-5.2 5.3c0 1.3-2.6 9.9-2.6 9.9l-10 1.7-7.9 3.9-1.7 19.1-14 11 3.5 22.1-15.3 5.5-7.3 18.7-7.3 13.2V616l5.9 5.5-.7 15.3-8.9.4s-15.6-11.9-15.6-15.7c0-3.8-1.2-14.4-1.2-14.4l-3.9-4.7-7.2-.4-22.4-7.2v9.3l-11.2 1.7-28.9-5.9-2.9-1.3-3.9 9.8-9.4 1.3-7.7 22.9v11.5c0 5.1-.1 22.5-.1 22.5l2.5 8.5h3.9l2.2 10.7 6.1 7.3h16.2s4.4.7 5.7 1.2c1.3.4 10.1-2.8 10.1-4.1 0-1.3-.4-7.8.9-9.5 1.3-1.7 4.4-2.4 5.7-4.5 1.3-2.1 11.4-6.3 12.7-7.6 1.3-1.3 9.2-6.8 9.2-6.8s0 6.4.9 9.8c.9 3.4-.4 34-.4 34l3.1 3.4s4.4.4 4.4 5.1c0 4.7-4.4 39.9-4.4 39.9l7 9.1-2.6 1h-9.6s-7-4-8.3-4.4c-1.3-.4-11.8-7-11.8-9.9v-12.3c0-1.7-2.6-8.5-2.6-8.5l-16.6-.9s-9.6-4.7-9.6-5.9c0-1.3-6.1-5.5-6.1-5.5l-10.9-5.5H469l-2.6-4.7s3.1-6.4 3.1-8.9-3.9-6.8-3.9-6.8l-13.5-11.2-.4-7.8 4.4-3s-.4-4.7-1.3-6.4c-.9-1.7-14.8-29.7-14.8-29.7l-2.6-3.4-11.8-11.9-5.1-4.7s-4.7-8.9-4.7-7.2v17.8s-.2 7.2.7 8.5c.9 1.3-.7 9.8-.7 9.8V648.4l2 2.8H413l-2.5-5.3z"/><defs><path id="c" d="M609 651v8.6c0 1.3 16.2 5.5 16.2 5.5s3 10 3.6 10c.6 0 6.9 5.8 6.9 5.8h11.7s1.3-4.4 0-6.6c-1.3-2.1-5.6-4.4-5.6-4.4h-6.2s-3.1-4.8-3.9-6c-.9-1.3-6.6-6-6.6-7.3 0-1.3 3.1-2.6 0-3.8-3.1-1.3-9.2-2.1-9.2-2.1s-2.8-1.7-4.6-1.7c-.9 0-2.1.2-2.1 1.5"/></defs><use xlink:href="#c" overflow="visible" fill="#B2ADA1"/><clipPath id="d"><use xlink:href="#c" overflow="visible"/></clipPath><path clip-path="url(#d)" fill="#B2ADA1" d="M609 651h41v30h-41z"/><path fill="#B2ADA1" d="M635.8 681h11.7s1.3-4.4 0-6.6c-1.3-2.1-5.6-4.4-5.6-4.4h-6.2s-3.1-4.8-3.9-6c-.9-1.3-6.6-6-6.6-7.3 0-1.3 3.1-2.4 0-3.7-3.1-1.3-9.2-2-9.2-2s-7.1-6-7.1 0v8.6c0 1.3 16.2 5.5 16.2 5.5s3 10 3.6 10c.7.1 7.1 5.9 7.1 5.9z"/><defs><path id="e" d="M669 681v6.2c0 1.7-7.7 4.7-7.7 4.7l-2.4 6H669v4.1s7.4-1.3 9.6 0c2.2 1.3 5-1.7 5-1.7l4.9-3.4 2.9-2.6-1.9-8.5-8.5-.9V681h-12z"/></defs><use xlink:href="#e" overflow="visible" fill="#B2ADA1"/><clipPath id="f"><use xlink:href="#e" overflow="visible"/></clipPath><path clip-path="url(#f)" fill="#B2ADA1" d="M658 681h34v24h-34z"/><path fill="#B2ADA1" d="M669 702.1V698h-10.1l2.4-6s7.7-3 7.7-4.7V681h12v4.1l8.4.9 2.2 8.5-3.2 2.5-5.3 3.4s-2.2 3-4.4 1.7c-2.3-1.3-9.7 0-9.7 0z"/><defs><path id="g" d="M362 109v10.2l-10.1 1.8h-8s-.9 9.9 0 10.9c.4.5.9.6 1.6.3.8-.3 1.9-.4 3.6.3 3.3 1.4 12.2.7 12.2.7l5.6-6.3h6v1.1l2.4 7.1s6.1 12.4 7.6 10.1c1.4-2.3 9.4-2.8 9.4-2.8l7.5-2.3 4.2 5.3s-5.6 8.4 0 8.9c2.5.2 5.4 0 8.1-.1 3.3-.2 6.4-.4 7.9.1 2.8.9 3.3-.5 3.3-1.8 0-1.4 2.4-3.7 6.1-3.7 3.8 0 16.5-3.2 16.5-3.2l-1.9-6.2-5.6-7.9s.9-6.9-.5-7.3c-1.4-.5-7.1 0-7.1 0s-6.6 4.6-6.6 6c0 1.4-3.8 11.4-3.8 11.4l-8.5-2.2-1-6.9-9.4-.5-.5 3.7-16.8-6-3.2-8.7v-12h-19z"/></defs><use xlink:href="#g" overflow="visible" fill="#B2ADA1"/><clipPath id="h"><use xlink:href="#g" overflow="visible"/></clipPath><path clip-path="url(#h)" fill="#B2ADA1" d="M345 109h100v47H345z"/><path fill="#B2ADA1" d="M361.4 133.4l5.6-6.4h6v1.1l2.4 7.1s6.1 12.4 7.6 10.1c1.4-2.3 9.4-2.8 9.4-2.8l7.5-2.3 4.2 5.3s-5.6 8.4 0 8.9 13.2-.9 16 0c2.8.9 3.3-.5 3.3-1.8 0-1.4 2.4-3.7 6.1-3.7 3.8 0 16.5-3.2 16.5-3.2l-1.9-6.3-5.7-7.9s.9-6.9-.5-7.3c-1.4-.5-7.1 0-7.1 0s-6.6 4.6-6.6 5.9c0 1.4-3.8 11.4-3.8 11.4l-8.5-2.2-.9-6.9-9.4-.5-.5 3.7-16.8-5.9-3.3-8.7v-12h-19v10.2l-10.1 1.8h-8s-.9 9.9 0 10.9c1 1 1.9-.3 5.2 1.2 3.3 1.4 12.3.3 12.3.3z"/><defs><path id="i" d="M415 104v6.9s-6 4.1 0 4.1h5.2l-1.4-6h3.8l5.5.1V104H415z"/></defs><use xlink:href="#i" overflow="visible" fill="#B2ADA1"/><clipPath id="j"><use xlink:href="#i" overflow="visible"/></clipPath><path clip-path="url(#j)" fill="#B2ADA1" d="M409 104h19v11h-19z"/><g><path fill="#B2ADA1" d="M418.8 109h3.8l5.5.1V104h-13v6.9s-6 4.1 0 4.1h5.2l-1.5-6z"/></g><g><defs><path id="k" d="M462 85v14l2.1 4.1s5.5-.5 8.4 0c2.8.5 2.5 1.4 5.4 4.1l2.7 2.7s3.2-3.7 6.1.9c2.8 4.6-1.1 5 2.2 4.6 3.3-.5 3.2-2.8 3.2-6.2V97.7s4.8-3.2.6-4.1c-4.2-.9-16.5-.9-16.5-.9l-8-.9V85H462z"/></defs><use xlink:href="#k" overflow="visible" fill="#B2ADA1"/><clipPath id="l"><use xlink:href="#k" overflow="visible"/></clipPath><path clip-path="url(#l)" fill="#B2ADA1" d="M462 85h36v30h-36z"/></g><g><path fill="#B2ADA1" d="M462 85v14l2.1 4.1s5.5-.5 8.4 0c2.8.5 2.5 1.4 5.4 4.1l2.7 2.7s3.2-3.7 6 .9c2.8 4.6-1.1 5 2.2 4.6 3.3-.5 3.2-2.8 3.2-6.2V97.7s4.8-3.2.6-4.1c-4.2-.9-16.5-.9-16.5-.9l-8-.9V85H462z"/></g><g><defs><path id="m" d="M489.1 132c-4.5 0-2.1.8-2.1.8v6.9c0 1.8 2.8 5.3 2.8 5.3h8.2v3l2.3 1.8 5.8-1.8-1.3-3.3c-.9-4.6-.4-5.6-.4-5.6H498v-7h-8.9z"/></defs><use xlink:href="#m" overflow="visible" fill="#B2ADA1"/><clipPath id="n"><use xlink:href="#m" overflow="visible"/></clipPath><path clip-path="url(#n)" fill="#B2ADA1" d="M487 132h16v19h-16z"/></g><g><path fill="#B2ADA1" d="M498 148v-3h-8.2s-2.8-3.4-2.8-5.3v-6.9s-2.4-.8 2.1-.8h8.9v7h6.4s-.9 1.1 0 5.6l.9 4-5.1 1.5-2.2-2.1z"/></g><g><defs><path id="o" d="M490.3 163l-2.8 5.3-1.9 1.5s-8.5-5.9-8.2-.9c.2 5 5.9 5.1 5.9 5.1h8.9l-.2 5.6v3.7l3 8.8h10.3c2.4 0 3.8-8.3 3.8-8.3s-.9-3.9 2.4-3.9 9.4 5.1 5.6.5c-3.8-4.6-8.5-6.3-8.5-6.3H502l-.9-6-6.1-5h-4.7z"/></defs><use xlink:href="#o" overflow="visible" fill="#B2ADA1"/><clipPath id="p"><use xlink:href="#o" overflow="visible"/></clipPath><path clip-path="url(#p)" fill="#B2ADA1" d="M475 163h47v29h-47z"/></g><g><path fill="#B2ADA1" d="M492 179.6v3.7l3 8.8h10.3c2.4 0 3.8-8.3 3.8-8.3s-.9-3.9 2.4-3.9 9.4 5.1 5.6.5c-3.8-4.6-8.5-6.3-8.5-6.3H502l-.9-6-6.1-5h-4.7l-2.8 5.3-1.9 1.5s-8.5-5.9-8.2-.9c.2 5 5.9 5.1 5.9 5.1h8.9l-.2 5.5z"/></g><g><defs><path id="q" d="M521.8 121s-3.8.2-3.5 2.1c.2 1.8-2.6 7.2 0 7.7s3.1 4.7 3.1 4.7l5.6-2.7V121h-5.2z"/></defs><use xlink:href="#q" overflow="visible" fill="#B2ADA1"/><clipPath id="r"><use xlink:href="#q" overflow="visible"/></clipPath><path clip-path="url(#r)" fill="#B2ADA1" d="M515 121h12v11h-12z"/></g><g><path fill="#B2ADA1" d="M521.3 135.2l5.7-2.4V121h-5.2s-3.7.2-3.5 2.1c.2 1.8-2.8 7.2-.2 7.7 2.5.4 3.2 4.4 3.2 4.4z"/></g><g><defs><path id="s" d="M539.7 130.1c-.9 3.2-2 5.5-1.6 6.9.5 1.4 6.9 7.3 6.9 7.3V156H625.4l4.7-6.3-8.9-4.7h-35.8c-2.4 0-16.3.2-16.3.2V142l-3.1-6.9s-5.5 3.7-8.8 4c-3.3.4-6-4-6-4V132h-6v-8.3c-.2 0-4.6 3.2-5.5 6.4"/></defs><use xlink:href="#s" overflow="visible" fill="#B2ADA1"/><clipPath id="t"><use xlink:href="#s" overflow="visible"/></clipPath><path clip-path="url(#t)" fill="#B2ADA1" d="M539 121h88v35h-88z"/></g><g><path fill="#B2ADA1" d="M545 156v-11.7s-7.1-5.9-7.6-7.3c-.5-1.4.9-3.7 1.8-6.9s5.8-6.4 5.8-6.4v8.3h6v3.2s3 4.4 6.3 4c3.3-.4 8.2-4 8.2-4l3.5 6.9v3.2s14-.2 16.3-.2h35.8l8.9 4.7-4.7 6.3H545z"/></g><g><defs><path id="u" d="M625.3 137h-.2.2m88-98.8c-.9.7-5.8.3-10.8 0-5-.3-10.2-.8-11.8-.1-3.2 1.4-19.7-.1-19.7-.1h-35.3l-8 6H592v13h-38.4l8.2 11h-14.6l.5-7.4s-9.9-2.5-13.2-3c-3.3-.5-2.4 2.2-3.3 3.5-1 1.4-5.2 7.9-5.2 7.9l-5.7 7-2.1 7.8 7.7 2.3 8 3.2v7.8l9 5.9 5.4 6.2s5.5-6.2 6-8.4 6.1-.2 6.1-.2l3.7 5.1s4.7-1.4 6.1-2.8c1.4-1.4 6.6-1.4 7.9-2.2 1.3-.9 10.5 2.2 10.5 2.2s.5 3.2 0 6.2-5.6 4.3-7.1 6.2c-1.4 1.8-8.5 2.3-9.4 3.2-.9.9-4.7 8.2-4.7 8.2s0 5-.9 8.2c-.9 3.2 9 0 10.4 0h23.5s22 1.5 24.7 1.8c-1.8-.9-2.6-13.4-2.6-13.4l4.7-14.6h27.3L654 85h29.6l1.4-5h7.5l.5-6.3 10.3.1 3.3 1.6 12.7-8.1 12.2-8.2s6.6-1.3 9.4-1.3c2.8 0 3.3-5 3.3-5l-6.6-5.5s.5-5.5 0-6.9c-.5-1.4-7.1-2.7-7.1-2.7s-5.4-.3-10.2-.3c-3.1 0-6.2.2-7 .8"/></defs><use xlink:href="#u" overflow="visible" fill="#B2ADA1"/><clipPath id="v"><use xlink:href="#u" overflow="visible"/></clipPath><path clip-path="url(#v)" fill="#B2ADA1" d="M515 38h230v101H515z"/></g><g><path fill="#B2ADA1" d="M567.5 126.9s3.8-7.3 4.7-8.2c.9-.9 8-1.4 9.4-3.2 1.4-1.8 6.6-3.2 7-6.2.5-3 0-6.2 0-6.2s-9.2-3.1-10.5-2.2c-1.3.8-6.5.8-7.9 2.2-1.4 1.4-6.1 2.8-6.1 2.8l-3.8-5.1s-5.6-2.1-6.1.2c-.5 2.2-6.1 8.4-6.1 8.4l-5.2-6.2-9-5.9v-7.8l-8-3.2-7.5-2.3 2-7.8 5.6-6.9s4.2-6.4 5.1-7.8c.9-1.4 0-3.7 3.3-3.2s13.2 2.3 13.2 2.3l-.5 7.4h14.6l-8.2-11H592V44h35.7l8-6H671s16.5 1.5 19.8.1c3.3-1.4 20.7 1.4 22.6 0 1.9-1.4 17.4-.4 17.4-.4s6.6 1.3 7.1 2.7c.5 1.4 0 6.9 0 6.9l6.6 5.5s-.5 5-3.3 5-9.4 1.4-9.4 1.4l-12.2 8.2-12.7 8.2-3.3-1.4-10.3-.6-.5 6.3h-7.5l-1.4 5H654l.5 24h-27.3l-4.7 14.6s.9 13.3 2.8 13.3-24.9-1.8-24.9-1.8h-23.5c-1.4 0-11.3 3.2-10.3 0 .9-3 .9-8.1.9-8.1z"/></g></svg>