<svg xmlns="http://www.w3.org/2000/svg" xmlns:xlink="http://www.w3.org/1999/xlink" width="800" height="800" viewBox="0 0 800 800"><defs><path id="a" d="M210.5 208.5L181.6 239h-28.7l-7.5-8.4-14.9 1.4-20 23.6-14.9 13.5 6.2 17.9 12.5 7.3-7.5 10.6H86.9s-27.4 2.7-53.6 27.3c-12.8 17-9.9 42.7-9.9 42.7L11 376.4v20.1l8.6 9s8.1 38 18 58.1l5.1 24.3-1 10.5-8.5 8.8V522H43v6h17v-7.5l10-2.2v-11.2l23.1 3.9H125v-13.9l34.5-12.3 76.5-5.6 48.8 38 18.8 10.1 22.5 26.8 27.4 14.3 5 8.7h63.6l12.5-17H457v-48.5l27-6.7v-11.2l22-6.7v-67l-6-15.6V375h-20.5l-38.7-59.6-31.2-20.3-34.9-13.3L376 245h-13.7l-7.5-16.9.2-11.6-22.4-7s-10.2 30.9-10.2 34.3c0 3.4-7.5 13.2-7.5 13.2v21.2l-13.1-1.1-29.8-22.4v-21.2l11-8.9v-8.9l.9.2-.9-.8v-.5l-1.4-.1-5.9-5.3s-17.7 4.5-33.9 0c-5.4-1.5-10.8-2.3-15.4-2.3-9.2-.1-15.9 1.6-15.9 1.6"/></defs><use xlink:href="#a" overflow="visible" fill="#B2ADA1"/><clipPath id="b"><use xlink:href="#a" overflow="visible"/></clipPath><path clip-path="url(#b)" fill="#B2ADA1" d="M11 207h495v370H11z"/><path fill="#B2ADA1" d="M33.3 522H43v6h17v-7.5l10-2.2v-11.2l23.1 3.9H125v-13.9l34.5-12.3 76.5-5.6 48.8 38 18.8 10.1 22.5 26.8 27.4 14.3 5 8.7h63.6l12.5-17H457v-48.5l27-6.7v-11.2l22-6.7v-67l-6-15.6V375h-20.5l-38.7-59.6-31.2-20.3-34.9-13.3L376 245h-13.7l-7.5-16.9.2-11.6-22.4-7s-10.2 30.9-10.2 34.3c0 3.4-7.5 13.2-7.5 13.2v21.2l-13.1-1.1-29.8-22.4v-21.2l11-8.9v-10.1l-11.4-1.1 11 2.4-7.1-6.7s-17.6 4.5-33.8 0c-16.2-4.5-31.2-.6-31.2-.6L181.6 239h-28.7l-7.5-8.4-14.9 1.4-20 23.6-14.9 13.5 6.2 17.9 12.5 7.3-7.5 10.7H86.9s-27.4 2.7-53.6 27.3c-12.8 17-9.9 42.7-9.9 42.7L11 376.4v20.1l8.6 8.9s8.1 38 18 58.1l5.1 24.3-1 10.5-8.5 8.8.1 14.9z"/><g fill="#B2ADA1"><path d="M456.9 135.8L435.1 152h21.8l10.9-5.4 5.4-5.4 5.5-5.4-10.9-16.3zM510.1 132.8c3.4 5.4 6.7 10.8 10.1 16.2-2.5-8.9-3-10-10.1-16.2zM599.7 219.6c-4.8-4.2-9.6-8.4-14.3-12.6 4.9 7.9 5.8 8.8 14.3 12.6zM526.8 144.4c3.4 5.4 6.7 10.8 10.1 16.2-2.5-9-3-10.1-10.1-16.2zM580.4 213.4c-4.8-4.2-9.6-8.4-14.3-12.6 4.9 7.9 5.8 8.8 14.3 12.6zM578.6 178c-4.8-4.2-9.6-8.4-14.3-12.6 5 7.9 5.8 8.8 14.3 12.6zM659.9 294c1.6 3.3 3.1 6.7 4.7 10 1.8-8 3.2-7.6-4.7-10zM672.6 311.6c1.6 3.3 3.1 6.7 4.7 10 1.8-7.9 3.2-7.5-4.7-10zM674.7 362.9l12.9-.9-6.9-6-6 6.9zM744 353.5c8.5-.4 17.1-.7 25.6-1.1-4.6-3.8-9.3-7.6-13.9-11.4-4 4.2-7.8 8.4-11.7 12.5zM776.4 329.7l9 14.7c.9-3.9 1.9-7.9 2.8-11.8-3.9-1-7.8-2-11.8-2.9z"/></g><g fill="#B2ADA1"><path d="M633.9 665c-3 2.4-6.8 4.8-9.3 7.7-2.5 2.9-4.2 6.8-6.4 10.1-2.5 3.8-2.8 2.9-7.5 2.5-3.8-.4-7.9-1.3-11.7-1.1-6.4.4-19.8 2.7-22.9 9.1-3.5 7-.2 16.8 2.6 23.5 4.6-2.8 9.2-6.4 14.1-8.6 3.8-1.7 8.5-2.2 12.6-3.1 9.7-2.2 16.2-6.4 24.8-11.6 4.3-2.6 10.2-4.9 13.8-8.4 3.4-3.3 4.2-9.9 8-12.7 2.8-2 9-.8 10.9-3.4 2.2-3 1.2-12.7 1.6-16.5-4.7 2.9-9.6 6.9-14.7 8.9-4.8 1.9-10.8 2.5-15.9 3.6zM685 619.8l-7.8-28.8c.4 6.9 1.4 14 1.1 20.9-.2 4.5-.7 12.7-3.4 16.1-1.5 2-8.2 4.7-8.6 7.1-.2 1.2 3 4.6 3.7 5.6l12.9 18.6c2.9-8.8 4.7-19.2 8.9-27.4 1.5-2.9 2.9-3.1 3.4-5.9.8-4.2-.4-9.7-.6-14-3.2 2.7-6.4 5.2-9.6 7.8z"/></g><defs><path id="c" d="M326 98v17.4l6.2 8.6s1.1 17.1-.3 20.8c-.7 1.8-.8 6.7-.7 11.2.2 4.4.4 8.4.4 8.4l21.8-8.6s27.3 4.9 23.6 8.6c-3.7 3.7 10.5 12.2 10.5 12.2s24.6 21.9 28.7 19.5c4.1-2.4 4.1-.1 4.1-.1h10.9s0-10.9-13.7-31.7c-13.7-20.8-5.5-8.5-10.9-8.5-5.5 0-12-4.8-13.3-8.5-1.4-3.7 8.5-6.1 8.5-6.1v-17.3l-13-9.8h-19V102s-31.5-15.9-41.5-18.4c-1.1-.3-1.2-.4-2-.4-6 0-.4 8.5-.4 11.8"/></defs><use xlink:href="#c" overflow="visible" fill="#B2ADA1"/><clipPath id="d"><use xlink:href="#c" overflow="visible"/></clipPath><path clip-path="url(#d)" fill="#B2ADA1" d="M321 81h109v120H321z"/><g><defs><path id="e" d="M415.2 630.5c-.9 2.5-1.6 7.1-1.6 10.3 0 3.1 2.3 5.7 5.1 5.7l4.5.5 4.5.6c-1.4 1.9-2.1 4.7-1.6 6.3.5 1.6 2 4 3.2 5.4 1.2 1.4 3.7 2.6 5.4 2.6 1.8 0 5.6-.6 8.6-1.4 3-.8 6-2.5 6.7-3.8l-1.3-1.7-1.3-1.7c.7-7.2-.3-13.3-2.2-13.4-1.9-.2-5.2-1-7.3-2-2.1-.9-4.7-4-5.8-6.9-1.1-2.8-4.9-5.2-8.6-5.2-3.7.1-7.5 2.2-8.3 4.7"/></defs><use xlink:href="#e" overflow="visible" fill="#B2ADA1"/><clipPath id="f"><use xlink:href="#e" overflow="visible"/></clipPath><path clip-path="url(#f)" fill="#B2ADA1" d="M413 626h38v38h-38z"/></g><g><path fill="#B2ADA1" d="M418.7 646.5c-2.8 0-5.1-2.6-5.1-5.7 0-3.2.7-7.8 1.6-10.3.9-2.5 4.6-4.6 8.3-4.6 3.7 0 7.6 2.3 8.6 5.1 1.1 2.8 3.7 5.9 5.8 6.9 2.1 1 5.4 1.8 7.3 2 1.9.2 2.9 6.2 2.2 13.4l1.3 1.7 1.3 1.7c-.7 1.3-3.7 3-6.7 3.8-3 .8-6.9 1.4-8.6 1.4-1.8 0-4.2-1.2-5.4-2.6-1.2-1.4-2.7-3.9-3.2-5.4-.5-1.6.2-4.4 1.6-6.3l-4.5-.6-4.5-.5z"/></g><path fill="#B2ADA1" d="M417.9 164.1c-.4-.6-7.9-12.4-8.4-12-1.2 1 .2 2.7-2.1 3.7-4.5 1.9-16.2-6.4-12.7-11.3 1.6-2.1 5.3-1.5 6.9-3.2 1.2-1.2.9-2.3.9-4.6 0-3.4 1.4-9.8 0-12.7-1.4-2.8-7.5-5.7-10.1-7.6-3.8-2.7-5.2-2.4-9.9-2.4-2.2 0-11.2 1.2-12.6-.2-2-2.2 1.5-9.5-.2-12-.8-1.2-4.4-2.3-5.7-2.9-3.6-1.8-7.2-3.6-10.8-5.3-4.1-2-8.2-3.9-12.3-5.7-2.4-1-8.4-1.8-6.4-5.2-3.4 1-7.1-.3-10 1.1-.9.4-.4 1.7-1.3 2.3-1.1.8-3.4 1-4.7 1.4-6.1 1.9-7.1 2.1-13.1 0-4.7-1.6-9.7-4.2-14.5-5-5.4-1-11.6-.2-17-.2 1.8 3.8 3.3 9.5 6.1 12.6 2.6 2.9 7 3 10.7 4.8 7.3 3.6 14.1 9.3 20.9 13.8-.5.2-.9.4-1.4.5 5 7.1 10.1 14.3 15.1 21.4 1.7 2.4 5.6 6.1 6.4 9 .6 2.2-.4 6.4-.4 8.7 0 3.7.3 7.4.6 11.1 7.5-3 17-9.3 25.1-8 5.6.9 12.3 2.1 17.4 4.6 5 2.5 1.3 5.2 5.4 9.4 2.9 2.9 6.6 4.9 9.8 7.5 4.8 3.9 9.4 8 14.3 11.6 2.7 2 5.7 4.4 8.9 5.7 3.2 1.3 2.9.1 6-.2 3.5-.3 8.8.7 13 .7-.9-10.9-8-22.4-13.9-31.4-13.7-20.8 13.7 20.9 0 0z"/></svg>