<svg xmlns="http://www.w3.org/2000/svg" xmlns:xlink="http://www.w3.org/1999/xlink" width="800" height="800" viewBox="0 0 800 800"><defs><path id="a" d="M266.8 57l-27.9 8.7-4.9 10.2-24.2 7.1h-27.9s-8.5 10.1 7.3 12.1 18.2 15.3 18.2 22.5c0 7.2-1.3 26.6-1.3 26.6v25.7l-26 10.3v17.5l7.1 1-7.1 11.3v23.6s9.3 3.1 13 3.1c3.6 0 9.6 22.6 9.6 22.6l25.4 48.2s18.2 11.3 27.9 41c9.7 29.8 3.6 113.9 3.6 113.9s-17 57.5-34 68.8c-5.5 7.8 4.5 56.4 4.5 56.4l6.9 2V614.3l-10.6 5.1.8 9.2-1.4 19.5-8.6 10.3s2.4 8.2 6 8.2 7.3 21.6 7.3 21.6l7.4 15.1s4.7 16.7 14.5 16.7c9.7 0 19.4-51.3 40.1-53.4 20.6-2 12.1-49.3 12.1-49.3l12.1-13.4h3.4v-12.3l-7.2-12.3 9.2-8.2 19.8-5.1 17.5-13.3 24.8-8.2v-27.7l31.3-9.2 22.3-20.5 18.4-13.3 11-53.4 42.2-29.8 33.7-5.1V365l12-17.5V331l26-6.2V289l29.3-31.8s12.2-4.1 8.6-24.6c-3.6-20.5-23-9.2-31.5-9.2s-18.2-23.6-18.2-23.6l-42.5-5.1-15.8-17.4s-27.9 0-32.8 9.2c-4.9 9.2-12.1-5.1-12.1-5.1l3.6-38-23.1-18.5-35.2-9.2-15.8-5.1-6.1-19.2-28-15.4h-51l-19.4-19h-24.3z"/></defs><use xlink:href="#a" overflow="visible" fill="#B2ADA1"/><clipPath id="b"><use xlink:href="#a" overflow="visible"/></clipPath><path clip-path="url(#b)" fill="#B2ADA1" d="M174 57h451v661H174z"/><g><path fill="#B2ADA1" d="M252.3 720c9.7 0 19.4-51.3 40.1-53.4 20.6-2 12.1-49.3 12.1-49.3l12.1-13.4h3.4v-12.3l-7.2-12.3 9.2-8.2 19.8-5.1 17.5-13.3 24.8-8.2v-27.7l31.3-9.2 22.3-20.5 18.4-13.3 11-53.4 42.2-29.8 33.7-5.1V365l12-17.5V331l26-6.2V289l29.3-31.8s12.2-4.1 8.6-24.6c-3.6-20.5-23-9.2-31.5-9.2s-18.2-23.6-18.2-23.6l-42.5-5.1-15.8-17.4s-27.9 0-32.8 9.2c-4.9 9.2-12.1-5.1-12.1-5.1l3.6-38-23.1-18.5-35.2-9.2-15.8-5.1-6.1-19.2L361.5 76h-51l-19.4-19h-24.3l-27.9 8.7-4.9 10.2-24.2 7.1h-27.9s-8.5 10.1 7.3 12.1 18.2 15.3 18.2 22.5c0 7.2-1.3 26.6-1.3 26.6v25.7l-26 10.3v17.5l7.1 1-7.1 11.3v23.6s9.3 3.1 13 3.1c3.6 0 9.6 22.6 9.6 22.6l25.4 48.2s18.2 11.3 27.9 41.1 3.6 113.9 3.6 113.9-17 57.5-34 68.8c-5.5 7.8 4.5 56.5 4.5 56.5l6.9 2v24.5l-10.6 5.1.8 9.2-1.4 19.5-8.6 10.3s2.4 8.2 6 8.2 7.3 21.5 7.3 21.5l7.4 15.1c-.1.1 4.7 16.8 14.4 16.8z"/></g><g><defs><path id="c" d="M281.7 712h-13.8s-1.1 16.4-1.1 17c0 .6 7 5.5 8.2 5.5 1.2 0 1.2 5.4 1.2 5.4l.5-.9 30.4 1 .9-6.7 7.9-3.4-2.6-4.8h-8.4l2-5.2-5.7-.9v-7h-19.5z"/></defs><use xlink:href="#c" overflow="visible" fill="#B2ADA1"/><clipPath id="d"><use xlink:href="#c" overflow="visible"/></clipPath><path clip-path="url(#d)" fill="#B2ADA1" d="M269 712h44v25h-44z"/></g><g><path fill="#B2ADA1" d="M276.5 739l30.4 1 .9-6.7 7.9-3.4-2.6-4.8h-8.4l2-5.2-5.7-.9v-7h-33.1s-1.2 16.4-1.2 16.9c0 .6 7 5.5 8.2 5.5 1.2 0 1.2 5.4 1.2 5.4"/></g></svg>