<svg xmlns="http://www.w3.org/2000/svg" width="150" height="30" viewBox="0 0 100 15"><path fill="#B4BBC2" fill-rule="evenodd" d="M78.95 11.75h.52V0h-.52v11.75zm14.5-4.94c-.93-.27-1.89-.61-1.89-1.76a1.72 1.72 0 0 1 3.45 0h.51c0-1.24-1-2.25-2.23-2.25s-2.23 1-2.23 2.23C91.04 6.4 92.13 7 93.29 7.28c1.09.26 2.09.84 2.09 2.1a2.11 2.11 0 0 1-2.1 2.08 2.09 2.09 0 0 1-2.07-2.09h-.52a2.6 2.6 0 1 0 5.2 0c0-1.49-1.14-2.2-2.43-2.56zM63.7 11.46a4.08 4.08 0 0 1 .02-8.14 4.08 4.08 0 0 1-.02 8.14zm4.08-6.19a4.57 4.57 0 0 0-8.66 2.13 4.59 4.59 0 0 0 9.18-.02V0h-.52v5.27zm12.86 1.86a4.05 4.05 0 0 1 8.1 0h-8.1zm4.04-4.33a4.59 4.59 0 1 0 4.27 6.3h-.56a4.08 4.08 0 0 1-7.75-1.45h8.64v-.27a4.59 4.59 0 0 0-4.6-4.58zm5.23 4.85h.52V3.03h-.52v4.62zm-16.4 3.8a4.08 4.08 0 0 1 .01-8.13 4.08 4.08 0 0 1-.01 8.14zm0-8.65a4.59 4.59 0 1 0 4.07 6.7v2.25h.52V7.38a4.59 4.59 0 0 0-4.6-4.58zM25.73 7.4a4.08 4.08 0 0 1-6.18 3.47 4.61 4.61 0 0 0 .02-6.95 4.08 4.08 0 0 1 6.18 3.48h-.02zm-6.6 3.18a4.08 4.08 0 0 1 0-6.36 4.08 4.08 0 0 1 0 6.36zm-2.56.9a4.08 4.08 0 1 1 2.12-7.55 4.65 4.65 0 0 0-.01 6.96h.01c-.61.39-1.34.6-2.12.6zm5.07-8.68c-.92 0-1.8.3-2.53.78a4.6 4.6 0 1 0-.02 7.62 4.6 4.6 0 0 0 7.15-3.82 4.59 4.59 0 0 0-4.6-4.58zM10.8 11.75h.52V0h-.52v11.75zm-5.23-.3a4.08 4.08 0 0 1 .02-8.13 4.08 4.08 0 0 1-.02 8.14zm0-8.65c-1.76 0-3.3 1-4.06 2.47V0H1v7.4a4.59 4.59 0 1 0 4.58-4.6zm30.5 0c-1.32 0-2.47.8-2.97 1.97a3.25 3.25 0 0 0-6.23 1.28v5.7h.52V6.04c0-1.51 1.21-2.72 2.72-2.72a2.72 2.72 0 0 1 2.73 2.72v5.7h.52v-5.7c0-1.51 1.21-2.72 2.72-2.72a2.72 2.72 0 0 1 2.73 2.72v5.7h.52v-5.7a3.25 3.25 0 0 0-3.25-3.24zm17.81 8.66a4.08 4.08 0 1 1 4.08-4.07 4.08 4.08 0 0 1-4.08 4.07zm0-8.66a4.59 4.59 0 1 0 4.08 6.7v.92a4.08 4.08 0 0 1-7.77 1.7h-.56a4.6 4.6 0 0 0 8.85-1.72V7.38a4.59 4.59 0 0 0-4.6-4.58zm-8.75 0a3.55 3.55 0 0 0-3.56 3.54v5.4h.52v-5.4a3.03 3.03 0 0 1 6.06.02v5.39h.52v-5.4a3.54 3.54 0 0 0-3.54-3.55zm-4.93 8.95h.52V3.03h-.52v8.72zm0-9.89h.52V0h-.52v1.86z"/></svg>