<?xml version="1.0" encoding="utf-8"?>
<!-- Generator: Adobe Illustrator 19.2.1, SVG Export Plug-In . SVG Version: 6.00 Build 0)  -->
<svg version="1.1" id="Layer_1" xmlns="http://www.w3.org/2000/svg" xmlns:xlink="http://www.w3.org/1999/xlink" x="0px" y="0px"
	 viewBox="0 0 76 21" width="76" height="21" xml:space="preserve">
<style type="text/css">
	.st0{clip-path:url(#SVGID_2_);}
	.st1{clip-path:url(#SVGID_4_);fill:#B4BBC2;}
	.st2{clip-path:url(#SVGID_6_);}
	.st3{clip-path:url(#SVGID_8_);fill:#B4BBC2;}
	.st4{clip-path:url(#SVGID_10_);}
	.st5{clip-path:url(#SVGID_12_);fill:#B4BBC2;}
	.st6{clip-path:url(#SVGID_14_);}
	.st7{clip-path:url(#SVGID_16_);fill:#B4BBC2;}
	.st8{clip-path:url(#SVGID_18_);}
	.st9{clip-path:url(#SVGID_20_);fill:#B4BBC2;}
	.st10{clip-path:url(#SVGID_22_);}
	.st11{clip-path:url(#SVGID_24_);fill:#B4BBC2;}
	.st12{clip-path:url(#SVGID_26_);}
	.st13{clip-path:url(#SVGID_28_);fill:#B4BBC2;}
</style>
<g>
	<g>
		<defs>
			<path id="SVGID_1_" d="M75.5,6.3c0-0.7-0.3-1.5-0.9-2c-0.6-0.6-1.4-0.9-2.2-0.9c-1.6,0-2.9,1.3-2.9,2.9c0,1.6,0.7,2.4,2.7,3.1
				c2.1,0.8,3,1.7,3,3.1c0,1.7-1.3,3-3,3c-0.8,0-1.5-0.3-2.1-0.9c-0.6-0.7-1-1.6-1.1-2.6l-0.6,0c0.1,1.2,0.5,2.3,1.2,3.1
				c0.7,0.7,1.6,1.1,2.6,1.1c1,0,1.9-0.4,2.6-1.1c0.7-0.7,1.1-1.6,1.1-2.6c0-2.1-2-3.1-3.5-3.7c-1.7-0.6-2.3-1.2-2.3-2.5
				c0-0.6,0.2-1.2,0.7-1.6c0.4-0.4,1-0.7,1.6-0.7c0.6,0,1.3,0.3,1.8,0.7c0.4,0.4,0.7,1,0.7,1.5H75.5"/>
		</defs>
		<clipPath id="SVGID_2_">
			<use xlink:href="#SVGID_1_"  style="overflow:visible;"/>
		</clipPath>
		<g class="st0">
			<defs>
				<rect id="SVGID_3_" x="-3" y="-1.5" width="83" height="23"/>
			</defs>
			<clipPath id="SVGID_4_">
				<use xlink:href="#SVGID_3_"  style="overflow:visible;"/>
			</clipPath>
			<rect x="63.5" y="-1.6" class="st1" width="17.4" height="22.8"/>
		</g>
	</g>
	<g>
		<defs>
			<path id="SVGID_5_" d="M53.5,15.4c-3.1,0-5.6-2.5-5.6-5.6c0-3.1,2.5-5.6,5.6-5.6c2.2,0,4.1,1.3,5,3.2l0.8,0
				c-1-2.3-3.2-3.9-5.8-3.9c-3.5,0-6.3,2.8-6.3,6.4c0,3.5,2.8,6.4,6.3,6.4c2.6,0,4.9-1.6,5.8-3.9l-0.8,0
				C57.7,14.1,55.8,15.4,53.5,15.4"/>
		</defs>
		<clipPath id="SVGID_6_">
			<use xlink:href="#SVGID_5_"  style="overflow:visible;"/>
		</clipPath>
		<g class="st2">
			<defs>
				<rect id="SVGID_7_" x="-3" y="-1.5" width="83" height="23"/>
			</defs>
			<clipPath id="SVGID_8_">
				<use xlink:href="#SVGID_7_"  style="overflow:visible;"/>
			</clipPath>
			<rect x="42.3" y="-1.6" class="st3" width="22.1" height="22.7"/>
		</g>
	</g>
	<g>
		<defs>
			<path id="SVGID_9_" d="M40.6,15.4c-3.1,0-5.6-2.5-5.6-5.6c0-3.1,2.5-5.6,5.6-5.6c3.1,0,5.6,2.5,5.6,5.6
				C46.2,12.9,43.7,15.4,40.6,15.4z M46.2,6.8c-1-2-3.2-3.4-5.6-3.4c-3.5,0-6.3,2.8-6.3,6.4c0,3.5,2.8,6.4,6.3,6.4
				c2.4,0,4.5-1.4,5.6-3.4v3.5h0.7V3.7h-0.7V6.8z"/>
		</defs>
		<clipPath id="SVGID_10_">
			<use xlink:href="#SVGID_9_"  style="overflow:visible;"/>
		</clipPath>
		<g class="st4">
			<defs>
				<rect id="SVGID_11_" x="-3" y="-1.5" width="83" height="23"/>
			</defs>
			<clipPath id="SVGID_12_">
				<use xlink:href="#SVGID_11_"  style="overflow:visible;"/>
			</clipPath>
			<rect x="29.3" y="-1.6" class="st5" width="22.6" height="22.7"/>
		</g>
	</g>
	<g>
		<defs>
			<path id="SVGID_13_" d="M29.1,3.5c-2,0-3.7,1.2-4.3,3c-0.7-1.7-2.4-3-4.3-3c-1.7,0-3.2,0.9-4,2.3v-2h-0.7v12.4h0.7V7.8
				c0.2-2,1.9-3.6,4-3.6c2.1,0,3.8,1.6,4,3.7v8.3h0.7V7.8c0.2-2.1,1.9-3.7,4-3.7c2.1,0,3.9,1.7,4,3.8h0v8.2h0.7V8h0
				C33.6,5.5,31.6,3.5,29.1,3.5"/>
		</defs>
		<clipPath id="SVGID_14_">
			<use xlink:href="#SVGID_13_"  style="overflow:visible;"/>
		</clipPath>
		<g class="st6">
			<defs>
				<rect id="SVGID_15_" x="-3" y="-1.5" width="83" height="23"/>
			</defs>
			<clipPath id="SVGID_16_">
				<use xlink:href="#SVGID_15_"  style="overflow:visible;"/>
			</clipPath>
			<rect x="10.7" y="-1.5" class="st7" width="28.1" height="22.7"/>
		</g>
	</g>
	<g>
		<defs>
			<polyline id="SVGID_17_" points="64,15 59.5,3.7 58.8,3.7 63.6,16 61.8,20.5 62.6,20.5 69.3,3.7 68.5,3.7 64,15 			"/>
		</defs>
		<clipPath id="SVGID_18_">
			<use xlink:href="#SVGID_17_"  style="overflow:visible;"/>
		</clipPath>
		<g class="st8">
			<defs>
				<rect id="SVGID_19_" x="-3" y="-1.5" width="83" height="23"/>
			</defs>
			<clipPath id="SVGID_20_">
				<use xlink:href="#SVGID_19_"  style="overflow:visible;"/>
			</clipPath>
			<rect x="53.8" y="-1.3" class="st9" width="20.5" height="26.8"/>
		</g>
	</g>
	<g>
		<defs>
			<polyline id="SVGID_21_" points="70.9,1 70.5,0 70.2,1 69.2,1 70,1.6 69.7,2.5 70.5,1.9 71.4,2.5 71,1.6 71.9,1 70.9,1 			"/>
		</defs>
		<clipPath id="SVGID_22_">
			<use xlink:href="#SVGID_21_"  style="overflow:visible;"/>
		</clipPath>
		<g class="st10">
			<defs>
				<rect id="SVGID_23_" x="-3" y="-1.5" width="83" height="23"/>
			</defs>
			<clipPath id="SVGID_24_">
				<use xlink:href="#SVGID_23_"  style="overflow:visible;"/>
			</clipPath>
			<rect x="64.2" y="-5" class="st11" width="12.6" height="12.5"/>
		</g>
	</g>
	<g>
		<defs>
			<polyline id="SVGID_25_" points="8.2,8.3 6.6,3.5 5.1,8.3 0,8.3 4.1,11.3 2.6,16.2 6.6,13.2 10.7,16.2 9.2,11.3 13.3,8.3 
				8.2,8.3 			"/>
		</defs>
		<clipPath id="SVGID_26_">
			<use xlink:href="#SVGID_25_"  style="overflow:visible;"/>
		</clipPath>
		<g class="st12">
			<defs>
				<rect id="SVGID_27_" x="-3" y="-1.5" width="83" height="23"/>
			</defs>
			<clipPath id="SVGID_28_">
				<use xlink:href="#SVGID_27_"  style="overflow:visible;"/>
			</clipPath>
			<rect x="-5" y="-1.5" class="st13" width="23.3" height="22.7"/>
		</g>
	</g>
</g>
</svg>
