<svg id="Layer_1" xmlns="http://www.w3.org/2000/svg" viewBox="0 0 124.3 37"><style>.st0{fill:#3b60ad}</style><g id="Intuit_Logo_2_"><path class="st0" d="M85.1 36.4h-3.3c-.7 0-1.2-.4-1.3-1l-.1-1.4c-2.4 1.9-5.3 3-8.3 3-5.9 0-8.3-3.7-8.3-9.4V12.2c0-.9.5-1.2 1.4-1.2h3.7c.8 0 1.3.3 1.3 1.2v14.4c0 2.9.7 4.9 3.9 4.9 2 0 4.5-1.1 6.1-2.5V12.2c0-.9.5-1.2 1.3-1.2h3.7c.8 0 1.3.3 1.3 1.2v22.7c-.1 1.1-.4 1.5-1.4 1.5zM0 12c0-.6.3-1 .9-1h4.4c.6 0 1 .4 1 1v23c0 .9-.4 1.3-1.3 1.3H1.4C.4 36.4 0 36 0 35.1V12zM93 12c0-.6.3-1 .9-1h4.4c.6 0 1 .4 1 1v23c0 .9-.4 1.3-1.3 1.3h-3.7c-.9 0-1.4-.4-1.4-1.3V12zM34.4 36.4h-3.8c-.9 0-1.3-.5-1.3-1.4V20.8c0-2.9-.8-4.9-4-4.9-2 0-4.5 1.1-6.2 2.5v16.7c0 .9-.4 1.3-1.3 1.3H14c-.8 0-1.3-.4-1.3-1.3V12.3c0-.8.4-1.3 1.3-1.3h3.4c.7 0 1.2.2 1.3 1l.1 1.4c2.4-1.9 5.4-3 8.5-3 5.9 0 8.3 3.7 8.3 9.4V35c0 .9-.3 1.4-1.2 1.4zM53 3.8C53 1.7 51.3 0 49.2 0c-2.1 0-3.8 1.7-3.8 3.8 0 2.1 1.7 3.8 3.8 3.8C51.3 7.7 53 6 53 3.8zM58.5 11c.6 0 1 .2 1 .9v3.7c0 .6-.4 1-1 1h-6.1v18.5c0 .9-.4 1.3-1.4 1.3h-3.6c-.9 0-1.4-.4-1.4-1.3V16.5h-6.1c-.6 0-1-.4-1-1v-3.7c0-.7.4-.9 1-.9h18.6z"/><g><path class="st0" d="M117.9 3.8c0-2.1-1.7-3.8-3.8-3.8-2.1 0-3.8 1.7-3.8 3.8 0 2.1 1.7 3.8 3.8 3.8 2.1.1 3.8-1.6 3.8-3.8zM123.3 11c.6 0 1 .2 1 .9v3.7c0 .6-.4 1-1 1h-6.1v18.5c0 .9-.4 1.3-1.4 1.3h-3.6c-.9 0-1.4-.4-1.4-1.3V16.6h-6.1c-.6 0-1-.4-1-1v-3.7c0-.7.4-.9 1-.9h18.6z"/></g></g></svg>