<svg xmlns="http://www.w3.org/2000/svg" viewBox="0 0 137.2 60" enable-background="new 0 0 137.2 60"><path d="M103.1 40.2H100c-1 0-1 0-1.4-.9-.4-.9-.9-1.7-1.4-2.6-.5-.9-.9-1.8-1.4-2.7-.4-.7-.8-1.5-1.2-2.2-.4-.8-.9-1.6-1.3-2.5-.2-.4-.4-.9-.6-1.3 0 0 0-.1-.2-.2v12.4h-4.2V19.5h4.2c.1 0 .2.1.3.2.7 1.5 1.5 2.9 2.2 4.4l2.7 5.4c.3.6.6 1.3 1 2v-12h4.3c.1 6.9.1 13.8.1 20.7zm-76 0V19.5h2.7c1.3 0 2.7-.1 4 0 1.5.1 3 .4 4.4 1.2 1.4.8 2.4 2.1 3 3.6.4.9.5 1.8.7 2.8.2 1.1.2 2.2.2 3.3-.1 1.5-.2 2.9-.7 4.3-.3 1-.8 2-1.5 2.8-.8.9-1.8 1.6-2.9 2.1-.9.4-1.7.5-2.6.7-.3 0-.6.1-.9.1h-6.4c.1-.1.1-.2 0-.2zm4.3-3.5c1-.1 2-.1 3-.2 1.4-.2 2.4-.9 2.9-2.3.4-1.1.5-2.2.6-3.3 0-1.3 0-2.6-.2-3.9-.2-.8-.4-1.6-.9-2.4-.7-1-1.8-1.3-2.9-1.5-.7-.1-1.4 0-2.1-.1-.3 0-.4 0-.4.4v13.3zm102.2 3.6h-4c-.2 0-.3 0-.3-.2-.2-1.3-.5-2.7-.7-4-.2-1.3-.5-2.5-.7-3.8 0-.1 0-.2-.1-.3-.5 2.8-1.1 5.6-1.6 8.4H122c-.1 0-.2-.1-.2-.2-.2-.6-.3-1.1-.4-1.7-.2-.8-.4-1.6-.5-2.4-.3-1.2-.6-2.4-.9-3.7-.4-1.6-.7-3.2-1.1-4.7-.2-.7-.4-1.5-.5-2.2h3.3c.3 0 .4.1.4.4.1.7.3 1.3.4 2l.6 3c.2 1.1.4 2.2.7 3.3.1.4.2.8.2 1.3.6-3.3 1.1-6.6 1.7-9.9h3.8c.1 0 .2.1.2.2.2.8.3 1.6.4 2.4.1.7.3 1.4.4 2.1.2.8.3 1.7.4 2.5.2.9.3 1.7.5 2.6.2-.7.3-1.4.4-2.1.2-.9.3-1.7.5-2.6.2-.8.3-1.5.4-2.3.2-.8.4-1.6.5-2.5 0-.4.2-.3.5-.3h3.3c-1.1 4.7-2.3 9.7-3.4 14.7zm-50.2-4.8c.4.3.7.5 1 .8.4.3.8.7 1.2 1 .2.2.3.4.1.6-.5.5-1.1 1.1-1.6 1.5-.7.6-1.6 1-2.6 1.1-1.5.2-2.9.2-4.4-.4-.9-.4-1.7-1.1-2.3-1.9-.6-.9-1-2-1.1-3.1-.1-.8-.2-1.6-.2-2.5 0-1.1.1-2.3.5-3.3.4-1.1 1-2 1.9-2.8 1-.8 2.1-1.3 3.4-1.4 1.6-.2 3.1.2 4.3 1.1.5.4.9.9 1.2 1.3.7 1.1 1.1 2.4 1.2 3.7.1 1 .1 2 .2 3.1h-9c0 .3 0 .6.1.8.2.6.4 1.2.9 1.6s1.1.6 1.8.6c1.4 0 2.4-.7 3.1-1.8.2.1.3 0 .3 0zm-1.1-4.3v-.4c-.1-.4-.1-.9-.4-1.3-.2-.3-.3-.6-.5-.8-.5-.5-1.1-.6-1.7-.5-.6.1-1.2.4-1.6.9-.5.6-.7 1.3-.8 2.1h5zm29.1 9.3c-1 .1-1.9-.1-2.8-.5-.8-.4-1.6-.9-2.1-1.6-1-1.4-1.3-2.1-1.6-3.9-.1-.7-.2-1.5-.1-2.3.1-1.3.2-2.5.8-3.7.3-.6.7-1.2 1.2-1.7.6-.7 1.4-1.1 2.3-1.5.9-.3 1.8-.5 2.7-.4 1.5.1 2.8.5 3.9 1.5s1.7 2.2 2 3.6c.3 1.3.4 2.6.3 3.9-.1 1.5-.5 3-1.5 4.3-.5.7-1.1 1.3-1.9 1.6-.9.5-2 .8-3.2.7zm2.9-8.1c-.1-.5-.2-1.4-.4-2.2-.3-.9-.8-1.7-1.8-1.9-1.3-.3-2.4.3-2.9 1.6-.4 1-.5 2.2-.5 3.3 0 .8.2 1.6.4 2.3.4 1.1 1.1 1.8 2.3 1.8.9 0 1.6-.4 2-1.1.7-1 .8-2.2.9-3.8zm-54.2-7.2h4.1c.1 0 .2.1.2.2.3.9.5 1.9.7 2.9.2.9.5 1.8.7 2.7.3 1.1.5 2.2.8 3.3 0 .1.1.2.2.3h.1c.8-3.2 1.6-6.4 2.4-9.5h4.3c-.1.5-.2.9-.4 1.3-.2.9-.5 1.7-.7 2.6-.3 1-.5 2-.7 2.9-.3.9-.6 1.8-.9 2.8-.3 1.1-.6 2.3-1 3.4-.2.7-.4 1.3-.6 1.9-.1.2-.2.2-.4.2h-4.3c-.2 0-.2 0-.3-.2-.4-1.3-.7-2.6-1.1-3.8l-.8-2.9c-.3-1.1-.7-2.3-1-3.5-.3-.9-.5-1.8-.8-2.8-.2-.5-.4-1.1-.5-1.6-.1 0 0-.1 0-.2zm-11.8 0v.6c0 .3.1.4.4.2.7-.4 1.5-.7 2.4-.8.5-.1 1.1-.1 1.7-.1V29c-.8-.2-1.6-.1-2.4.1-.7.2-1.3.4-1.7.9-.2.2-.3.4-.3.7v9.5h-4.2v-15h4.1zm-36.5 15L16 29.9c1.7.5 3.4 1.1 5.1 1.6v6.2c0 1.2-1 2.3-2 2.5-.2 0-.5.1-.7.1h-6.2c-.2 0-.2 0-.4-.1zm46.8 0h-4.2v-15h4.2v15zm-48 0H3.1c.2-.4.3-.7.4-1.1.5-1.4 1.1-2.7 1.6-4.1.1-.3.2-.7.4-1 .1-.1.2-.3.4-.3 1.5-.6 3-1.3 4.6-1.9 1.3-.5 2.6-1.1 3.9-1.6h.2c-1.4 3.4-2.7 6.7-4 10zM.3 23.8v-1.9c0-.7.4-1.3.9-1.8s1.3-.7 2-.7h8.7c-.2.2-.3.5-.4.7-.7 1-1.3 2.1-2 3.1-.4.7-.9 1.3-1.3 2-.1.1-.2.3-.3.4-.2.4-.5.4-.7.4-.9-.3-1.9-.6-2.8-.9-.8-.2-1.6-.5-2.4-.7-.6-.2-1.2-.4-1.7-.6zm18.5-4.3c-.2.6-.5 1.3-.7 1.8-.3.7-.5 1.3-.8 2-.5 1.3-1.1 2.7-1.6 4-.1.3-.2.5-.3.8 0 .2-.1.2-.3.2-1.3-.4-2.7-.9-4-1.3-.7-.2-1.4-.4-2-.6-.2 0-.2-.1-.1-.3.6-.9 1.2-1.9 1.8-2.9.7-1.1 1.5-2.2 2.2-3.3.2-.5.6-.5 1-.5h4.6s.1.1.2.1zM.3 25c2.2.7 4.5 1.4 6.8 2.1-.3.7-.5 1.3-.8 2-.3.8-.6 1.6-.9 2.3-.2.5-.4 1-.7 1.5 0 .1-.2.2-.2.2-1 .4-2 .8-3 1.3-.4.2-.7.4-1.2.5V25zm54.1-1.3v-4.2h4.2v4.2h-4.2zM19.9 20c.5.5 1 .9 1.1 1.6V26c0 .4-.2.4-.4.4-.9.4-1.8.7-2.7 1.1-.4.2-.8.3-1.2.5.1-.3.2-.5.2-.6 1.1-2.5 2-5 3-7.4zM6.2 32.3c.6-1.6 1.3-3.2 1.9-4.8 1.8.6 3.7 1.1 5.5 1.7v.1c-2.4 1-4.8 2-7.4 3 .1.1.1 0 0 0zm-4.3 7.8C1 39.7.4 39 .3 38.2c-.1-.4 0-.7 0-1.1 0-.3-.2-.5 0-.8 0-.1.1-.2.2-.2l1.1-.5c.8-.3 1.6-.7 2.4-1 0 0 .1 0 .2-.1-.9 1.9-1.6 3.8-2.3 5.6zm15.5-11c1.2-.5 2.4-1 3.7-1.5v2.7c-1.3-.5-2.4-.8-3.7-1.2z"/></svg>