<?xml version="1.0" encoding="utf-8"?>
<!-- Generator: Adobe Illustrator 18.1.0, SVG Export Plug-In . SVG Version: 6.00 Build 0)  -->
<svg version="1.1" xmlns="http://www.w3.org/2000/svg" xmlns:xlink="http://www.w3.org/1999/xlink" x="0px" y="0px"
	 viewBox="0 0 137.2 55.6" enable-background="new 0 0 137.2 55.6" xml:space="preserve">
<g id="Layer_1" display="none">
</g>
<g id="Layer_2">
	<g>
		<g>
			<path fill="#2D2C2A" d="M41.2,50.2c0.1,1.2,1,2,2.2,2c0.9,0,2.1-0.3,2.1-1.4c0-1.1-1.1-1.3-2.3-1.5C42.1,49,41,48.7,41,47.3
				c0-1.3,1.3-1.7,2.4-1.7c1.4,0,2.5,0.6,2.5,2.1h-0.5c0-1.2-0.9-1.7-2-1.7c-0.9,0-1.9,0.3-1.9,1.3c0,1.1,1.1,1.2,2.2,1.5
				c1.3,0.2,2.4,0.6,2.4,2c0,1.4-1.4,1.9-2.6,1.9c-1.5,0-2.7-0.8-2.7-2.4H41.2z"/>
			<path fill="#2D2C2A" d="M46.9,45.8h0.5v1.4h0c0.2-0.8,1.1-1.5,2.1-1.5c1.3,0,1.9,0.7,2,1.4h0c0.4-0.9,1-1.4,2.1-1.4
				c1.2,0,2.1,0.7,2.1,2.3v4.6h-0.5v-4.6c0-1.7-1.2-1.8-1.6-1.8c-1.2,0-2.1,0.9-2.1,2.5v4h-0.5v-4.6c0-1.7-1.1-1.8-1.6-1.8
				c-1,0-2.1,0.7-2.1,2.5v4h-0.5V45.8z"/>
			<path fill="#2D2C2A" d="M61.9,51.2c0,0.4,0,0.8,0.4,0.8c0.1,0,0.2,0,0.4,0v0.4c-0.1,0-0.3,0.1-0.4,0.1c-0.8,0-0.9-0.4-0.9-1v-0.4
				h0c-0.3,0.8-1.2,1.5-2.5,1.5c-1.3,0-2.2-0.5-2.2-1.9c0-1.6,1.4-1.9,2.5-2c2.2-0.2,2.3-0.3,2.3-1.4c0-0.3-0.3-1.3-1.9-1.3
				c-1.2,0-2,0.6-2.1,1.8H57c0.1-1.5,1-2.2,2.6-2.2c1.2,0,2.3,0.4,2.3,1.7V51.2z M61.4,48.7c-0.4,0.4-1.5,0.4-2.4,0.5
				c-1.2,0.1-1.8,0.5-1.8,1.6c0,0.8,0.6,1.5,1.8,1.5c2.3,0,2.5-1.9,2.5-2.3V48.7z"/>
			<path fill="#2D2C2A" d="M63.6,47.3L63.6,47.3c0.3-0.9,1.4-1.6,2.6-1.5v0.5c-0.5-0.1-1.3,0.1-1.9,0.7c-0.5,0.5-0.7,0.9-0.8,1.9
				v3.7h-0.5v-6.7h0.5V47.3z"/>
			<path fill="#2D2C2A" d="M68.9,46.2h-1.5v4.7c0,1.1,0.5,1.2,1.4,1.2v0.4c-1,0.1-2-0.1-1.9-1.6v-4.7h-1.2v-0.4H67v-2.1h0.5v2.1h1.5
				V46.2z"/>
			<path fill="#2D2C2A" d="M69.7,49.2c0,1.6,0.8,3,2.5,3c1.3,0,2.2-0.8,2.4-2H75c-0.3,1.6-1.3,2.4-2.9,2.4c-2,0-3-1.5-3-3.4
				c0-1.8,0.9-3.6,3-3.6c2.1,0,3,1.7,2.9,3.6H69.7z M74.6,48.8c0-1.4-0.9-2.7-2.4-2.7c-1.5,0-2.4,1.4-2.5,2.7H74.6z"/>
			<path fill="#2D2C2A" d="M76.4,47.3L76.4,47.3c0.3-0.9,1.4-1.6,2.6-1.5v0.5c-0.5-0.1-1.3,0.1-1.9,0.7c-0.5,0.5-0.7,0.9-0.8,1.9
				v3.7h-0.5v-6.7h0.5V47.3z"/>
			<path fill="#2D2C2A" d="M79.3,43.2h0.5v6.2l4.1-3.6h0.7l-2.9,2.5l3.1,4.2h-0.7l-2.9-3.8l-1.5,1.3v2.5h-0.5V43.2z"/>
			<path fill="#2D2C2A" d="M85.1,49.2c0,1.6,0.8,3,2.5,3c1.3,0,2.2-0.8,2.4-2h0.5c-0.3,1.6-1.3,2.4-2.9,2.4c-2,0-3-1.5-3-3.4
				c0-1.8,0.9-3.6,3-3.6c2.1,0,3,1.7,2.9,3.6H85.1z M90,48.8c0-1.4-0.9-2.7-2.4-2.7c-1.5,0-2.4,1.4-2.5,2.7H90z"/>
			<path fill="#2D2C2A" d="M90.6,45.8h0.6l2.5,6.1l2.3-6.1h0.6l-2.9,7.4c-0.3,0.7-0.5,1.2-0.8,1.4c-0.4,0.3-0.8,0.3-1.6,0.3v-0.4
				c0.7,0,1.1-0.1,1.4-0.4c0.2-0.2,0.4-0.7,0.7-1.6L90.6,45.8z"/>
		</g>
		<path fill="#2D2C2A" d="M92.1,19.8c-1.2-1.9-2.9-3.4-5-4.4c0-0.5,0.1-0.9,0.1-1.1c0-3.7-1.3-6.9-4-9.6c-2.6-2.6-5.8-4-9.6-4
			c-2.7,0-5.3,0.8-7.5,2.3c-2.3,1.5-3.9,3.6-5,6.1c-1.2-1.1-2.7-1.6-4.4-1.6c-1.9,0-3.5,0.7-4.8,2c-1.3,1.3-2,2.9-2,4.8
			c0,1.3,0.4,2.6,1.1,3.6c-2.3,0.5-4.2,1.7-5.6,3.6c-1.5,1.8-2.2,3.9-2.2,6.3c0,2.8,1,5.2,3,7.2c2,2,4.4,3,7.2,3h28.7
			c3.3,0,6-1.2,8.4-3.5c2.3-2.3,3.5-5.1,3.5-8.4C93.9,23.8,93.3,21.7,92.1,19.8z M72.5,21v6c0,1.2-0.9,2.2-1.9,2.2s-1.9-1-1.9-2.2
			v-6c-0.6-0.5-1-1.3-1-2.2c0-1.6,1.3-2.9,2.9-2.9c1.6,0,2.9,1.3,2.9,2.9C73.5,19.7,73.1,20.4,72.5,21z"/>
	</g>
</g>
</svg>
