<?xml version="1.0" standalone="no"?><!DOCTYPE svg PUBLIC "-//W3C//DTD SVG 1.1//EN" "http://www.w3.org/Graphics/SVG/1.1/DTD/svg11.dtd" ><svg xmlns="http://www.w3.org/2000/svg"><metadata>Generated by Glyphter</metadata><defs><font id="twilio" horiz-adv-x="0"><font-face units-per-em="1024" ascent="1024" descent="0" font-family="twilio" font-weight="normal" /><missing-glyph horiz-adv-x="0" /><glyph unicode="&#x0041;" d="M409.6,77C409.6,77,409.6,384.2,409.6,384.2C409.6,384.2,614.4,384.2,614.4,384.2C614.4,384.2,614.4,77,614.4,77C614.4,77,870.4,77,870.4,77C870.4,77,870.4,486.6,870.4,486.6C870.4,486.6,1024,486.6,1024,486.6C1024,486.6,512,947.4,512,947.4C512,947.4,0,486.6,0,486.6C0,486.6,153.6,486.6,153.6,486.6C153.6,486.6,153.6,77,153.6,77C153.6,77,409.6,77,409.6,77C409.6,77,409.6,77,409.6,77" class="icon-twilio-home"/><glyph unicode="&#x0042;" d="M0,512C0,794.758,229.242,1024,512,1024C794.758,1024,1024,794.758,1024,512C1024,229.242,794.758,0,512,0C229.242,0,0,229.242,0,512C0,512,0,512,0,512M779.13,422.957C828.327,422.957,868.174,462.803,868.174,512C868.174,561.197,828.327,601.043,779.13,601.043C729.934,601.043,690.087,561.197,690.087,512C690.087,462.803,729.934,422.957,779.13,422.957C779.13,422.957,779.13,422.957,779.13,422.957M512,422.957C561.197,422.957,601.043,462.803,601.043,512C601.043,561.197,561.197,601.043,512,601.043C462.803,601.043,422.957,561.197,422.957,512C422.957,462.803,462.803,422.957,512,422.957C512,422.957,512,422.957,512,422.957M244.87,422.957C294.066,422.957,333.913,462.803,333.913,512C333.913,561.197,294.066,601.043,244.87,601.043C195.673,601.043,155.826,561.197,155.826,512C155.826,462.803,195.673,422.957,244.87,422.957C244.87,422.957,244.87,422.957,244.87,422.957" class="icon-twilio-more"/><glyph unicode="&#x0043;" d="M353.228,135.106C328.42,110.298,288.727,110.298,263.918,135.106C263.918,135.106,92.742,306.282,92.742,306.282C-28.818,427.842,-31.299,626.308,87.78,750.349C87.78,750.349,90.261,752.829,90.261,752.829C90.261,752.829,90.261,752.829,92.742,755.31C92.742,755.31,92.742,755.31,95.223,757.791C95.223,757.791,97.704,760.272,97.704,760.272C221.745,876.87,420.21,876.87,541.77,755.31C541.77,755.31,712.946,584.134,712.946,584.134C737.754,559.326,737.754,519.633,712.946,494.824C688.138,470.016,648.445,470.016,623.637,494.824C623.637,494.824,452.46,666.001,452.46,666.001C378.036,740.425,256.476,740.425,182.051,668.482C107.627,594.057,110.108,472.497,184.532,398.073C184.532,398.073,355.709,226.896,355.709,226.896C378.036,199.607,378.036,159.914,353.228,135.106C353.228,135.106,353.228,135.106,353.228,135.106M936.22,276.513C936.22,276.513,933.739,274.032,933.739,274.032C933.739,274.032,933.739,274.032,931.258,271.551C931.258,271.551,931.258,271.551,928.777,269.07C928.777,269.07,926.296,266.589,926.296,266.589C802.255,149.991,603.79,149.991,482.23,271.551C482.23,271.551,313.535,442.727,313.535,442.727C288.727,467.535,288.727,507.229,313.535,532.037C338.343,556.845,378.036,556.845,402.844,532.037C402.844,532.037,574.02,360.86,574.02,360.86C648.445,286.436,770.005,286.436,844.429,358.38C918.854,432.804,916.373,554.364,841.949,628.789C841.949,628.789,670.772,799.965,670.772,799.965C645.964,824.773,645.964,864.466,670.772,889.274C695.58,914.082,735.273,914.082,760.082,889.274C760.082,889.274,931.258,718.098,931.258,718.098C1052.818,596.538,1055.299,400.553,936.22,276.513C936.22,276.513,936.22,276.513,936.22,276.513" class="icon-twilio-authy"/><glyph unicode="&#x0044;" d="M412.273,72.5C412.273,72.5,346.98,92.441,346.98,92.441C346.98,92.441,609.546,952.14,609.546,952.14C609.546,952.14,674.838,932.199,674.838,932.199C674.838,932.199,412.273,72.5,412.273,72.5C412.273,72.5,412.273,72.5,412.273,72.5M229.831,732.049C229.831,732.049,0,504.493,0,504.493C0,504.493,229.831,274.661,229.831,274.661C229.831,274.661,277.617,322.447,277.617,322.447C277.617,322.447,95.572,504.493,95.572,504.493C95.572,504.493,277.617,684.261,277.617,684.261C277.617,684.261,229.831,732.049,229.831,732.049M794.169,732.049C794.169,732.049,746.383,684.263,746.383,684.263C746.383,684.263,928.428,504.494,928.428,504.494C928.428,504.494,746.383,322.449,746.383,322.449C746.383,322.449,794.169,274.663,794.169,274.663C794.169,274.663,1024,504.494,1024,504.494C1024,504.494,794.169,732.049,794.169,732.049" class="icon-twilio-dev-tools"/><glyph unicode="&#x0045;" d="M148.645,70C148.645,70,148.645,305.945,148.645,305.945C148.645,305.945,0,305.945,0,305.945C0,305.945,0,954.793,0,954.793C0,954.793,1024,954.793,1024,954.793C1024,954.793,1024,305.945,1024,305.945C1024,305.945,467.171,305.945,467.171,305.945C467.171,305.945,148.645,70,148.645,70C148.645,70,148.645,70,148.645,70M70.783,376.728C70.783,376.728,219.429,376.728,219.429,376.728C219.429,376.728,219.429,209.207,219.429,209.207C219.429,209.207,445.935,376.728,445.935,376.728C445.935,376.728,955.576,376.728,955.576,376.728C955.576,376.728,955.576,884.009,955.576,884.009C955.576,884.009,70.783,884.009,70.783,884.009C70.783,884.009,70.783,376.728,70.783,376.728C70.783,376.728,70.783,376.728,70.783,376.728M200.553,622.111C200.553,567.631,259.539,533.561,306.728,560.812C328.624,573.459,342.12,596.817,342.12,622.111C342.12,676.59,283.134,710.661,235.945,683.409C214.049,670.762,200.553,647.404,200.553,622.111M441.217,622.111C441.217,567.631,500.203,533.561,547.392,560.812C569.287,573.459,582.783,596.817,582.783,622.111C582.783,676.59,523.797,710.661,476.608,683.409C454.713,670.762,441.217,647.404,441.217,622.111M679.521,622.111C679.521,567.631,738.507,533.561,785.696,560.812C807.592,573.459,821.088,596.817,821.088,622.111C821.088,676.59,762.101,710.661,714.912,683.409C693.017,670.762,679.521,647.404,679.521,622.111" class="icon-twilio-ip-messaging"/><glyph unicode="&#x0046;" d="M148.645,70C148.645,70,148.645,305.945,148.645,305.945C148.645,305.945,0,305.945,0,305.945C0,305.945,0,954.793,0,954.793C0,954.793,1024,954.793,1024,954.793C1024,954.793,1024,305.945,1024,305.945C1024,305.945,467.171,305.945,467.171,305.945C467.171,305.945,148.645,70,148.645,70C148.645,70,148.645,70,148.645,70M70.783,376.728C70.783,376.728,219.429,376.728,219.429,376.728C219.429,376.728,219.429,209.207,219.429,209.207C219.429,209.207,445.935,376.728,445.935,376.728C445.935,376.728,955.576,376.728,955.576,376.728C955.576,376.728,955.576,884.009,955.576,884.009C955.576,884.009,70.783,884.009,70.783,884.009C70.783,884.009,70.783,376.728,70.783,376.728C70.783,376.728,70.783,376.728,70.783,376.728" class="icon-twilio-messaging"/><glyph unicode="&#x0047;" d="M904.363,634.953C904.363,634.953,904.363,712.612,904.363,712.612C904.363,712.612,724.616,712.612,724.616,712.612C724.616,712.612,765.134,1013.419,765.134,1013.419C765.134,1013.419,688.166,1023.786,688.166,1023.786C688.166,1023.786,646.252,712.612,646.252,712.612C646.252,712.612,445.014,712.612,445.014,712.612C445.014,712.612,485.561,1013.633,485.561,1013.633C485.561,1013.633,408.591,1024,408.591,1024C408.591,1024,366.648,712.612,366.648,712.612C366.648,712.612,164.007,712.612,164.007,712.612C164.007,712.612,164.007,634.953,164.007,634.953C164.007,634.953,356.187,634.953,356.187,634.953C356.187,634.953,323.062,389.03,323.062,389.03C323.062,389.03,120,389.03,120,389.03C120,389.03,120,311.368,120,311.368C120,311.368,312.601,311.368,312.601,311.368C312.601,311.368,272.086,10.579,272.086,10.579C272.086,10.579,349.054,0.211,349.054,0.211C349.054,0.211,390.967,311.368,390.967,311.368C390.967,311.368,592.206,311.368,592.206,311.368C592.206,311.368,551.661,10.367,551.661,10.367C551.661,10.367,628.631,0,628.631,0C628.631,0,670.572,311.371,670.572,311.371C670.572,311.371,860.358,311.371,860.358,311.371C860.358,311.371,860.358,389.032,860.358,389.032C860.358,389.032,681.032,389.032,681.032,389.032C681.032,389.032,714.156,634.955,714.156,634.955C714.156,634.955,904.363,634.955,904.363,634.955C904.363,634.955,904.363,634.953,904.363,634.953M602.666,389.03C602.666,389.03,401.428,389.03,401.428,389.03C401.428,389.03,434.554,634.953,434.554,634.953C434.554,634.953,635.792,634.953,635.792,634.953C635.792,634.953,602.666,389.03,602.666,389.03C602.666,389.03,602.666,389.03,602.666,389.03" class="icon-twilio-phone-numbers"/><glyph unicode="&#x0048;" d="M729.488,1024C697.15,1024,668.933,1006.414,653.833,980.297C554.571,1008.681,448.606,1007.034,348.521,973.043C219.914,929.365,118,837.156,54.91,715.829C-3.327,594.502,-13.034,456.19,30.644,327.583C66.616,221.668,135.523,132.239,226.482,70.082C234.499,30.112,269.791,0,312.123,0C360.368,0,399.478,39.11,399.478,87.353C399.478,135.597,360.368,174.709,312.123,174.709C286.462,174.709,263.388,163.643,247.403,146.025C86.617,270.585,29.332,495.117,122.851,684.28C173.808,788.622,263.59,868.697,372.784,905.096C464.186,934.9,558.839,935.398,647.423,906.626C659.665,873.166,691.787,849.283,729.488,849.283C777.733,849.283,816.841,888.395,816.841,936.639C816.841,984.882,777.733,1024,729.488,1024C729.488,1024,729.488,1024,729.488,1024M574.189,388.246C574.189,373.687,571.761,361.555,566.91,351.848C562.056,339.716,557.203,330.009,547.495,322.73C540.216,315.45,530.511,308.169,518.377,303.318C506.244,298.464,494.111,296.038,479.552,296.038C450.434,296.038,428.595,303.318,411.609,320.301C394.623,337.287,387.344,356.699,387.344,383.391C387.344,383.391,387.344,407.657,387.344,407.657C387.344,407.657,445.581,407.657,445.581,407.657C445.581,407.657,445.581,388.244,445.581,388.244C445.581,361.553,457.713,349.42,479.552,349.42C491.685,349.42,498.964,351.846,503.818,359.126C508.671,363.979,511.097,373.687,511.097,383.391C511.097,397.951,506.244,407.657,498.964,419.789C491.685,429.496,477.126,441.628,460.14,453.761C450.434,458.614,443.154,465.894,433.448,473.173C423.742,480.453,416.462,487.733,411.609,497.439C404.329,507.145,399.476,514.425,394.623,526.557C389.77,536.263,387.344,548.396,387.344,560.529C387.344,572.662,389.77,584.794,392.197,594.5C394.623,604.207,401.903,613.913,409.182,623.619C416.462,630.898,426.168,638.178,438.301,643.031C450.434,647.884,462.566,650.311,477.126,650.311C489.258,650.311,501.391,647.884,513.524,643.031C525.656,638.178,532.936,633.325,542.642,626.045C549.922,618.766,557.201,609.06,559.626,599.353C562.054,589.647,566.908,577.515,566.908,565.382C566.908,565.382,566.908,536.263,566.908,536.263C566.908,536.263,511.097,536.263,511.097,536.263C511.097,536.263,511.097,555.676,511.097,555.676C511.097,565.382,508.671,575.088,503.818,582.368C498.964,589.647,491.685,592.074,479.552,592.074C469.846,592.074,462.566,589.647,457.713,584.794C452.86,579.941,450.434,572.662,450.434,562.955C450.434,555.676,450.434,548.396,452.86,543.543C455.287,538.69,457.713,531.41,462.566,526.557C467.419,521.704,472.272,516.851,479.552,509.571C486.832,502.29,494.111,497.439,503.818,490.159C513.524,482.88,523.23,475.598,530.509,468.318C537.789,461.039,545.069,451.335,552.348,444.055C557.201,436.773,562.054,427.069,566.91,417.361C571.763,410.085,574.189,397.953,574.189,388.246C574.189,388.246,574.189,388.246,574.189,388.246M671.251,300.891C671.251,300.891,671.251,638.18,671.251,638.18C671.251,638.18,734.339,638.18,734.339,638.18C734.339,638.18,734.339,303.318,734.339,303.318C734.339,303.318,671.251,303.318,671.251,303.318C671.251,303.318,671.251,300.891,671.251,300.891C671.251,300.891,671.251,300.891,671.251,300.891M1020.673,504.72C1020.673,480.455,1013.393,461.043,1001.26,448.91C986.701,436.777,969.715,429.498,945.45,429.498C945.45,429.498,904.199,429.498,904.199,429.498C904.199,429.498,904.199,300.891,904.199,300.891C904.199,300.891,841.109,300.891,841.109,300.891C841.109,300.891,841.109,638.18,841.109,638.18C841.109,638.18,945.45,638.18,945.45,638.18C969.715,638.18,989.128,630.9,1001.26,618.768C1015.819,606.635,1020.673,587.223,1020.673,562.957C1020.673,562.957,1020.673,504.72,1020.673,504.72C1020.673,504.72,1020.673,504.72,1020.673,504.72M960.009,560.531C960.009,577.517,952.729,584.796,938.17,584.796C938.17,584.796,904.199,584.796,904.199,584.796C904.199,584.796,904.199,478.028,904.199,478.028C904.199,478.028,938.17,478.028,938.17,478.028C952.729,478.028,960.009,485.308,960.009,502.292C960.009,502.292,960.009,560.531,960.009,560.531C960.009,560.531,960.009,560.531,960.009,560.531" class="icon-twilio-sip-trunking"/><glyph unicode="&#x0049;" d="M432.208,512.5C432.208,452.783,496.854,415.458,548.571,445.317C572.574,459.175,587.359,484.785,587.359,512.5C587.359,572.217,522.713,609.542,470.996,579.683C446.993,565.825,432.208,540.215,432.208,512.5M1024,545.747C1024,545.747,887.261,545.747,887.261,545.747C870.944,725.123,724.022,866.589,545.247,879.46C545.247,879.46,545.247,1024.5,545.247,1024.5C545.247,1024.5,478.753,1024.5,478.753,1024.5C478.753,1024.5,478.753,878.222,478.753,878.222C306.401,859.244,168.115,718.958,152.263,545.747C152.263,545.747,0,545.747,0,545.747C0,545.747,0,479.253,0,479.253C0,479.253,152.243,479.253,152.243,479.253C167.909,305.912,304.766,165.548,478.753,146.735C478.753,146.735,478.753,0.5,478.753,0.5C478.753,0.5,545.247,0.5,545.247,0.5C545.247,0.5,545.247,145.525,545.247,145.525C725.802,158.275,871.157,299.788,887.281,479.253C887.281,479.253,1024,479.253,1024,479.253C1024,479.253,1024,545.747,1024,545.747C1024,545.747,1024,545.747,1024,545.747M545.247,212.247C545.247,212.247,545.247,304.154,545.247,304.154C545.247,304.154,478.753,304.154,478.753,304.154C478.753,304.154,478.753,213.707,478.753,213.707C342.165,231.844,234.205,341.755,219.054,479.253C219.054,479.253,303.654,479.253,303.654,479.253C303.654,479.253,303.654,545.747,303.654,545.747C303.654,545.747,219.054,545.747,219.054,545.747C234.205,683.245,342.165,793.158,478.753,811.293C478.753,811.293,478.753,720.846,478.753,720.846C478.753,720.846,545.247,720.846,545.247,720.846C545.247,720.846,545.247,812.753,545.247,812.753C688.28,800.218,804.546,687.683,820.432,545.747C820.432,545.747,720.346,545.747,720.346,545.747C720.346,545.747,720.346,479.253,720.346,479.253C720.346,479.253,820.432,479.253,820.432,479.253C804.548,337.317,688.282,224.783,545.247,212.247C545.247,212.247,545.247,212.247,545.247,212.247" class="icon-twilio-support"/><glyph unicode="&#x004a;" d="M247.964,259.543C247.964,259.543,0,259.543,0,259.543C0,259.543,0,328.422,0,328.422C0,328.422,247.964,328.422,247.964,328.422C314.547,328.422,371.946,431.74,427.049,530.466C491.336,645.265,555.623,764.655,661.238,769.247C661.238,769.247,851.803,769.247,851.803,769.247C851.803,769.247,851.803,700.368,851.803,700.368C851.803,700.368,661.238,700.368,661.238,700.368C596.951,698.072,539.552,594.753,484.448,496.027C420.161,378.933,353.578,259.543,247.964,259.543C247.964,259.543,247.964,259.543,247.964,259.543M817.363,854.197C817.363,854.197,1024,734.807,1024,734.807C1024,734.807,817.363,613.121,817.363,613.121C817.363,613.121,817.363,854.197,817.363,854.197M851.803,254.951C851.803,254.951,661.238,254.951,661.238,254.951C555.623,259.543,489.04,378.933,424.753,493.731C369.65,592.457,312.251,695.776,245.668,695.776C245.668,695.776,0,695.776,0,695.776C0,695.776,0,764.655,0,764.655C0,764.655,247.964,764.655,247.964,764.655C355.874,764.655,422.457,642.969,486.744,528.17C541.848,429.444,596.951,328.422,663.534,323.83C663.534,323.83,851.803,323.83,851.803,323.83C851.803,323.83,851.803,254.951,851.803,254.951C851.803,254.951,851.803,254.951,851.803,254.951M817.363,411.076C817.363,411.076,1024,289.39,1024,289.39C1024,289.39,817.363,170,817.363,170C817.363,170,817.363,411.076,817.363,411.076" class="icon-twilio-taskrouter"/><glyph unicode="&#x004b;" d="M742.995,169.5C742.995,169.5,0,169.5,0,169.5C0,169.5,0,855.342,0,855.342C0,855.342,742.995,855.342,742.995,855.342C742.995,855.342,742.995,648.16,742.995,648.16C742.995,648.16,1024,824.384,1024,824.384C1024,824.384,1024,200.458,1024,200.458C1024,200.458,742.995,376.681,742.995,376.681C742.995,376.681,742.995,169.5,742.995,169.5C742.995,169.5,742.995,169.5,742.995,169.5M71.442,240.942C71.442,240.942,671.553,240.942,671.553,240.942C671.553,240.942,671.553,507.658,671.553,507.658C671.553,507.658,952.558,331.435,952.558,331.435C952.558,331.435,952.558,695.788,952.558,695.788C952.558,695.788,671.553,519.565,671.553,519.565C671.553,519.565,671.553,783.9,671.553,783.9C671.553,783.9,71.442,783.9,71.442,783.9C71.442,783.9,71.442,240.942,71.442,240.942C71.442,240.942,71.442,240.942,71.442,240.942" class="icon-twilio-video"/><glyph unicode="&#x004c;" d="M801.67,21.5C801.67,21.5,780.292,30.051,780.292,30.051C778.154,32.189,707.608,64.256,679.816,81.358C446.797,226.728,239.432,425.542,79.098,652.147C61.996,677.801,14.965,746.21,14.965,746.21C14.965,746.21,0,767.588,0,767.588C0,767.588,235.157,1002.744,235.157,1002.744C235.157,1002.744,502.38,735.521,502.38,735.521C502.38,735.521,408.317,641.458,408.317,641.458C483.14,555.947,570.789,476.849,658.438,404.164C658.438,404.164,761.052,506.778,761.052,506.778C761.052,506.778,1024,243.83,1024,243.83C1024,243.83,801.67,21.5,801.67,21.5C801.67,21.5,801.67,21.5,801.67,21.5M83.374,759.037C98.338,737.659,119.716,703.454,132.543,688.49C286.463,468.297,489.553,278.034,716.159,134.803C731.123,126.252,765.328,109.149,788.843,98.46C788.843,98.46,934.213,243.83,934.213,243.83C934.213,243.83,758.914,419.128,758.914,419.128C758.914,419.128,662.714,322.928,662.714,322.928C662.714,322.928,641.336,340.03,641.336,340.03C532.309,423.404,427.557,521.742,339.908,624.356C339.908,624.356,320.668,645.734,320.668,645.734C320.668,645.734,348.459,675.663,348.459,675.663C348.459,675.663,410.455,737.659,410.455,737.659C410.455,737.659,235.157,912.957,235.157,912.957C235.157,912.957,83.374,759.037,83.374,759.037C83.374,759.037,83.374,759.037,83.374,759.037" class="icon-twilio-voice"/><glyph unicode="&#x004d;" d="M512,1024C229.306,1024,0,794.694,0,512C0,229.306,229.306,0,512,0C794.694,0,1024,229.306,1024,512C1024,794.694,794.899,1024,512,1024C512,1024,512,1024,512,1024M512,135.006C303.763,135.006,135.006,303.763,135.006,512C135.006,720.237,303.763,888.994,512,888.994C720.237,888.994,888.994,720.237,888.994,512C888.994,303.763,720.237,135.006,512,135.006C512,135.006,512,135.006,512,135.006M533.274,639.642C533.274,557.759,621.913,506.583,692.826,547.525C725.737,566.526,746.01,601.64,746.01,639.642C746.01,721.525,657.371,772.701,586.458,731.759C553.547,712.758,533.274,677.644,533.274,639.642M533.274,384.563C533.274,302.679,621.913,251.504,692.826,292.445C725.737,311.447,746.01,346.56,746.01,384.563C746.01,466.446,657.371,517.621,586.458,476.68C553.547,457.678,533.274,422.565,533.274,384.563M278.194,384.563C278.194,302.679,366.834,251.504,437.747,292.445C470.657,311.447,490.931,346.56,490.931,384.563C490.931,466.446,402.291,517.621,331.378,476.68C298.468,457.678,278.194,422.565,278.194,384.563M278.194,639.437C278.194,557.554,366.834,506.379,437.747,547.32C470.657,566.322,490.931,601.435,490.931,639.437C490.931,721.321,402.291,772.496,331.378,731.555C298.468,712.553,278.194,677.44,278.194,639.437" class="icon-twilio-logo"/><glyph unicode="&#x004e;" d="M463.556,0C463.556,0,56.5,235.329,56.5,235.329C56.5,235.329,56.5,761.11,56.5,761.11C56.5,761.11,512.318,1024,512.318,1024C512.318,1024,919.374,788.671,919.374,788.671C919.374,788.671,463.556,525.781,463.556,525.781C463.556,525.781,463.556,0,463.556,0C463.556,0,463.556,0,463.556,0M120.102,271.371C120.102,271.371,399.953,110.244,399.953,110.244C399.953,110.244,399.953,563.942,399.953,563.942C399.953,563.942,792.169,790.791,792.169,790.791C792.169,790.791,512.318,951.917,512.318,951.917C512.318,951.917,120.102,725.068,120.102,725.068C120.102,725.068,120.102,271.371,120.102,271.371C120.102,271.371,120.102,271.371,120.102,271.371M561.08,0C561.08,0,561.08,468.538,561.08,468.538C561.08,468.538,968.136,703.867,968.136,703.867C968.136,703.867,968.136,235.329,968.136,235.329C968.136,235.329,561.08,0,561.08,0C561.08,0,561.08,0,561.08,0M624.682,432.497C624.682,432.497,624.682,110.244,624.682,110.244C624.682,110.244,904.533,271.371,904.533,271.371C904.533,271.371,904.533,593.623,904.533,593.623C904.533,593.623,624.682,432.497,624.682,432.497C624.682,432.497,624.682,432.497,624.682,432.497" class="icon-twilio-add-ons"/><glyph unicode="&#x004f;" d="M0,57C0,57,131.042,885.373,131.042,885.373C138.062,932.178,177.843,967.274,226.984,967.274C226.984,967.274,926.654,967.274,926.654,967.274C954.735,967.274,982.815,955.574,1001.536,932.178C1020.256,911.113,1027.276,883.033,1022.596,854.956C1022.596,854.956,926.654,255.903,926.654,255.903C919.634,209.102,879.854,174.002,830.717,174.002C830.717,174.002,276.124,174.002,276.124,174.002C276.124,174.002,0,57,0,57C0,57,0,57,0,57M229.324,901.753C215.283,901.753,201.243,890.053,198.903,876.013C198.903,876.013,86.581,164.642,86.581,164.642C86.581,164.642,271.444,239.523,271.444,239.523C271.444,239.523,833.053,239.523,833.053,239.523C847.093,239.523,861.133,251.223,863.477,265.263C863.477,265.263,959.415,864.313,959.415,864.313C961.755,876.013,957.075,885.373,952.399,887.717C950.055,892.393,940.699,899.417,928.995,899.417C928.995,899.417,229.324,899.417,229.324,899.417C229.324,899.417,229.324,901.753,229.324,901.753M512.468,499.267C510.128,499.267,507.788,499.267,507.788,499.267C489.068,501.607,477.367,520.327,479.707,536.707C479.707,536.707,521.828,801.132,521.828,801.132C524.168,819.852,540.548,831.552,559.269,829.212C577.993,826.872,589.689,808.152,587.349,791.771C587.349,791.771,545.229,527.347,545.229,527.347C542.888,510.967,528.848,499.267,512.468,499.267C512.468,499.267,512.468,499.267,512.468,499.267M489.068,330.784C475.027,330.784,463.327,335.464,453.967,344.824C444.607,354.185,439.927,368.225,439.927,379.925C439.927,391.625,444.607,405.665,453.967,415.026C475.027,433.746,507.788,433.746,526.508,415.026C535.868,405.665,540.548,391.625,540.548,379.925C540.548,365.885,535.868,354.185,526.508,344.824C514.808,335.464,503.108,330.784,489.068,330.784C489.068,330.784,489.068,330.784,489.068,330.784" class="icon-twilio-notify"/><glyph unicode="&#x0050;" d="M0.5,51.688C0.5,13.871,41.435,-9.752,74.169,9.157C89.369,17.923,98.725,34.13,98.725,51.688C98.725,89.505,57.79,113.128,25.056,94.22C9.856,85.453,0.5,69.246,0.5,51.688M2.956,366.01C2.956,345.677,19.433,329.175,39.79,329.175C39.79,329.175,332.011,329.175,332.011,329.175C332.011,329.175,332.011,39.41,332.011,39.41C332.011,19.077,348.488,2.576,368.845,2.576C389.203,2.576,405.68,19.077,405.68,39.41C405.68,39.41,405.68,402.844,405.68,402.844C405.68,402.844,39.79,402.844,39.79,402.844C19.433,402.844,2.956,386.342,2.956,366.01C2.956,366.01,2.956,366.01,2.956,366.01M2.956,695.065C2.956,674.708,19.433,658.23,39.79,658.23C39.79,658.23,658.61,658.23,658.61,658.23C658.61,658.23,658.61,39.41,658.61,39.41C658.61,19.077,675.112,2.576,695.445,2.576C715.778,2.576,732.279,19.077,732.279,39.41C732.279,39.41,732.279,731.899,732.279,731.899C732.279,731.899,39.79,731.899,39.79,731.899C19.433,731.899,2.956,715.422,2.956,695.065C2.956,695.065,2.956,695.065,2.956,695.065M39.79,1021.664C19.433,1021.664,2.956,1005.187,2.956,984.83C2.956,964.473,19.433,947.995,39.79,947.995C39.79,947.995,950.831,947.995,950.831,947.995C950.831,947.995,950.831,39.41,950.831,39.41C950.831,19.077,967.333,2.576,987.665,2.576C1007.998,2.576,1024.5,19.077,1024.5,39.41C1024.5,39.41,1024.5,1021.664,1024.5,1021.664C1024.5,1021.664,39.79,1021.664,39.79,1021.664C39.79,1021.664,39.79,1021.664,39.79,1021.664" class="icon-wireless-icon"/><glyph unicode="&#x0051;" d="M1024,46.865C1024,46.865,705.318,365.547,705.318,365.547C763.899,435.844,801.391,524.888,801.391,623.304C801.391,843.57,620.961,1024,400.696,1024C180.43,1024,0,843.57,0,623.304C0,403.039,180.43,222.609,400.696,222.609C499.112,222.609,588.156,257.757,658.453,318.682C658.453,318.682,977.135,0,977.135,0C977.135,0,1024,46.865,1024,46.865C1024,46.865,1024,46.865,1024,46.865M398.352,290.563C213.236,290.563,65.611,440.531,65.611,623.304C65.611,808.421,215.579,958.389,398.352,958.389C581.126,958.389,731.094,808.421,731.094,623.304C733.437,440.531,583.469,290.563,398.352,290.563C398.352,290.563,398.352,290.563,398.352,290.563M297.593,625.648C297.593,548.086,381.551,499.604,448.732,538.385C479.897,556.381,499.112,589.655,499.112,625.648C499.112,703.209,415.154,751.691,347.973,712.91C316.807,694.914,297.593,661.64,297.593,625.648" class="icon-twilio-lookup"/><glyph unicode="&#x0052;" d="M1014.433,593.529C1014.433,593.529,1014.433,658.752,1014.433,658.752C1014.433,658.752,805.72,658.752,805.72,658.752C788.327,756.586,733.975,830.505,651.359,869.639C651.359,869.639,651.359,1024,651.359,1024C651.359,1024,586.136,1024,586.136,1024C586.136,1024,586.136,891.38,586.136,891.38C562.221,895.728,538.306,900.076,512.217,900.076C486.127,900.076,462.212,897.902,438.297,891.38C438.297,891.38,438.297,1024,438.297,1024C438.297,1024,373.074,1024,373.074,1024C373.074,1024,373.074,869.639,373.074,869.639C290.459,830.505,233.932,756.586,218.713,658.752C218.713,658.752,10,658.752,10,658.752C10,658.752,10,593.529,10,593.529C10,593.529,214.365,593.529,214.365,593.529C214.365,593.529,214.365,500.042,214.365,500.042C214.365,500.042,10,500.042,10,500.042C10,500.042,10,434.82,10,434.82C10,434.82,214.365,434.82,214.365,434.82C214.365,434.82,214.365,367.423,214.365,367.423C214.365,358.726,214.365,350.03,216.539,341.333C216.539,341.333,10,341.333,10,341.333C10,341.333,10,276.11,10,276.11C10,276.11,238.28,276.11,238.28,276.11C301.329,143.49,470.909,21.741,492.65,6.522C499.172,2.174,505.694,0,512.217,0C518.739,0,525.261,2.174,531.783,6.522C555.699,21.741,725.278,145.665,786.153,276.11C786.153,276.11,1014.433,276.11,1014.433,276.11C1014.433,276.11,1014.433,341.333,1014.433,341.333C1014.433,341.333,807.894,341.333,807.894,341.333C810.068,350.03,810.068,358.726,810.068,367.423C810.068,367.423,810.068,434.82,810.068,434.82C810.068,434.82,1014.433,434.82,1014.433,434.82C1014.433,434.82,1014.433,500.042,1014.433,500.042C1014.433,500.042,810.068,500.042,810.068,500.042C810.068,500.042,810.068,593.529,810.068,593.529C810.068,593.529,1014.433,593.529,1014.433,593.529C1014.433,593.529,1014.433,593.529,1014.433,593.529M512.217,832.679C633.966,832.679,716.582,767.456,738.323,658.752C738.323,658.752,286.11,658.752,286.11,658.752C307.851,769.631,390.467,832.679,512.217,832.679C512.217,832.679,512.217,832.679,512.217,832.679M512.217,73.919C433.949,132.62,279.588,267.414,279.588,367.423C279.588,367.423,279.588,556.569,279.588,556.569C279.588,556.569,644.837,191.321,644.837,191.321C599.18,143.49,549.176,100.008,512.217,73.919C512.217,73.919,512.217,73.919,512.217,73.919M744.845,367.423C744.845,328.289,720.93,284.807,688.318,241.325C688.318,241.325,336.115,593.529,336.115,593.529C336.115,593.529,742.671,593.529,742.671,593.529C742.671,593.529,742.671,367.423,742.671,367.423C742.671,367.423,744.845,367.423,744.845,367.423" class="icon-twilio-debugger"/><glyph unicode="&#x0053;" d="M967.111,967.111C967.111,967.111,967.111,56.889,967.111,56.889C967.111,56.889,56.889,56.889,56.889,56.889C56.889,56.889,56.889,967.111,56.889,967.111C56.889,967.111,967.111,967.111,967.111,967.111M1024,1024C1024,1024,0,1024,0,1024C0,1024,0,0,0,0C0,0,1024,0,1024,0C1024,0,1024,1024,1024,1024C1024,1024,1024,1024,1024,1024C1024,1024,1024,1024,1024,1024M284.444,568.889C284.444,568.889,341.333,568.889,341.333,568.889C341.333,568.889,455.111,455.111,455.111,455.111C455.111,455.111,682.667,682.667,682.667,682.667C682.667,682.667,739.556,682.667,739.556,682.667C739.556,682.667,739.556,625.778,739.556,625.778C739.556,625.778,455.111,341.333,455.111,341.333C455.111,341.333,284.444,512,284.444,512C284.444,512,284.444,568.889,284.444,568.889" class="icon-twilio-checkbox-checked"/><glyph unicode="&#x0054;" d="M967.111,967.111C967.111,967.111,967.111,56.889,967.111,56.889C967.111,56.889,56.889,56.889,56.889,56.889C56.889,56.889,56.889,967.111,56.889,967.111C56.889,967.111,967.111,967.111,967.111,967.111M1024,1024C1024,1024,0,1024,0,1024C0,1024,0,0,0,0C0,0,1024,0,1024,0C1024,0,1024,1024,1024,1024C1024,1024,1024,1024,1024,1024C1024,1024,1024,1024,1024,1024M284.444,557.511C284.444,557.511,284.444,472.178,284.444,472.178C284.444,472.178,739.556,472.178,739.556,472.178C739.556,472.178,739.556,557.511,739.556,557.511C739.556,557.511,284.444,557.511,284.444,557.511" class="icon-twilio-checkbox-multi"/><glyph unicode="&#x0055;" d="M967.111,967.111C967.111,967.111,967.111,56.889,967.111,56.889C967.111,56.889,56.889,56.889,56.889,56.889C56.889,56.889,56.889,967.111,56.889,967.111C56.889,967.111,967.111,967.111,967.111,967.111M1024,1024C1024,1024,0,1024,0,1024C0,1024,0,0,0,0C0,0,1024,0,1024,0C1024,0,1024,1024,1024,1024C1024,1024,1024,1024,1024,1024C1024,1024,1024,1024,1024,1024" class="icon-twilio-checkbox-unchecked"/><glyph unicode="&#x0056;" d="M6.5,950.85C6.5,950.85,67.453,1011.803,67.453,1011.803C67.453,1011.803,1018.303,60.953,1018.303,60.953C1018.303,60.953,957.35,0,957.35,0C957.35,0,6.5,950.85,6.5,950.85C6.5,950.85,6.5,950.85,6.5,950.85M6.5,73.15C6.5,73.15,957.35,1024,957.35,1024C957.35,1024,1018.303,963.047,1018.303,963.047C1018.303,963.047,67.453,12.197,67.453,12.197C67.453,12.197,6.5,73.15,6.5,73.15C6.5,73.15,6.5,73.15,6.5,73.15" class="icon-twilio-close"/><glyph unicode="&#x0057;" d="M306.693,0C306.693,0,250.252,56.441,250.252,56.441C250.252,56.441,685.654,524.094,685.654,524.094C685.654,524.094,218,967.559,218,967.559C218,967.559,274.441,1024,274.441,1024C274.441,1024,806.598,532.157,806.598,532.157C806.598,532.157,306.693,0,306.693,0" class="icon-twilio-collapsed"/><glyph unicode="&#x0058;" d="M527.992,1024C527.992,1024,79,1024,79,1024C79,1024,79,0,79,0C79,0,945.464,0,945.464,0C945.464,0,945.464,606.528,945.464,606.528C945.464,606.528,527.992,1024,527.992,1024C527.992,1024,527.992,1024,527.992,1024M551.608,890.08C551.608,890.08,811.544,630.144,811.544,630.144C811.544,630.144,551.608,630.144,551.608,630.144C551.608,630.144,551.608,890.08,551.608,890.08C551.608,890.08,551.608,890.08,551.608,890.08M157.784,78.784C157.784,78.784,157.784,945.248,157.784,945.248C157.784,945.248,472.856,945.248,472.856,945.248C472.856,945.248,472.856,551.392,472.856,551.392C472.856,551.392,866.712,551.392,866.712,551.392C866.712,551.392,866.712,78.784,866.712,78.784C866.712,78.784,157.784,78.784,157.784,78.784C157.784,78.784,157.784,78.784,157.784,78.784" class="icon-twilio-docs"/><glyph unicode="&#x0059;" d="M512.013,461.101C512.013,461.101,86.664,886.45,86.664,886.45C86.664,886.45,149.689,941.588,149.689,941.588C149.689,941.588,512.04,579.237,512.04,579.237C512.04,579.237,874.391,941.588,874.391,941.588C874.391,941.588,937.417,886.45,937.417,886.45C937.417,886.45,512.013,461.101,512.013,461.101M0,161.775C0,161.775,1024,161.775,1024,161.775C1024,161.775,1024,83,1024,83C1024,83,0,83,0,83C0,83,0,161.775,0,161.775C0,161.775,0,161.775,0,161.775" class="icon-twilio-download"/><glyph unicode="&#x005a;" d="M516.031,226C516.031,226,0,742.031,0,742.031C0,742.031,56.441,798.472,56.441,798.472C56.441,798.472,516.031,346.945,516.031,346.945C516.031,346.945,967.559,798.472,967.559,798.472C967.559,798.472,1024,742.031,1024,742.031C1024,742.031,516.031,226,516.031,226" class="icon-twilio-dropdown"/><glyph unicode="&#x0061;" d="M796.444,24C796.444,24,778.48,29.988,778.48,29.988C772.491,29.988,706.62,65.918,676.678,77.895C443.135,233.591,239.532,425.216,77.848,652.772C59.883,676.725,11.977,748.585,11.977,748.585C11.977,748.585,0,766.55,0,766.55C0,766.55,227.556,1000.094,227.556,1000.094C227.556,1000.094,491.041,736.608,491.041,736.608C491.041,736.608,401.216,640.795,401.216,640.795C479.064,556.959,562.901,473.123,658.713,401.263C658.713,401.263,760.515,503.064,760.515,503.064C760.515,503.064,1024,239.579,1024,239.579C1024,239.579,796.444,24,796.444,24C796.444,24,796.444,24,796.444,24M77.848,760.561C89.825,736.608,113.778,700.678,125.754,688.702C281.45,461.146,479.064,275.509,712.608,131.789C724.585,125.801,760.515,107.836,784.468,95.86C784.468,95.86,934.175,245.567,934.175,245.567C934.175,245.567,754.526,425.216,754.526,425.216C754.526,425.216,658.713,323.415,658.713,323.415C658.713,323.415,640.749,341.38,640.749,341.38C526.971,425.216,425.17,521.029,335.345,622.83C335.345,622.83,317.38,646.784,317.38,646.784C317.38,646.784,407.205,736.608,407.205,736.608C407.205,736.608,227.556,916.257,227.556,916.257C227.556,916.257,77.848,760.561,77.848,760.561C77.848,760.561,77.848,760.561,77.848,760.561" class="icon-twilio-voice-enabled"/><glyph unicode="&#x0062;" d="M68.267,1024C68.267,1024,68.267,853.333,68.267,853.333C68.267,853.333,768,870.4,768,870.4C768,870.4,0,119.467,0,119.467C0,119.467,119.467,0,119.467,0C119.467,0,870.4,768,870.4,768C870.4,768,853.333,68.267,853.333,68.267C853.333,68.267,1024,68.267,1024,68.267C1024,68.267,1024,1024,1024,1024C1024,1024,68.267,1024,68.267,1024" class="icon-twilio-external-link"/><glyph unicode="&#x0063;" d="M421.271,75.96C421.271,17.561,484.448,-18.92,535.036,10.28C558.471,23.856,572.957,48.884,572.957,75.96C572.957,134.359,509.78,170.84,459.192,141.64C435.757,128.064,421.271,103.036,421.271,75.96M535.036,318.658C535.036,318.658,459.192,318.658,459.192,318.658C459.192,477.929,535.036,553.772,595.71,614.447C648.8,659.953,686.722,705.459,686.722,773.717C686.722,872.314,610.879,948.157,512.283,948.157C512.283,948.157,512.283,948.157,512.283,948.157C413.686,948.157,337.843,872.314,337.843,773.717C337.843,773.717,262,773.717,262,773.717C262,910.235,375.765,1024,512.283,1024C512.283,1024,512.283,1024,512.283,1024C648.8,1024,762.565,910.235,762.565,773.717C762.565,675.121,709.475,614.447,648.8,561.356C595.71,500.682,535.036,440.007,535.036,318.658C535.036,318.658,535.036,318.658,535.036,318.658" class="icon-twilio-help"/><glyph unicode="&#x0064;" d="M512,185.543C238.145,185.543,17.868,483.231,11.903,495.135C11.903,495.135,0,513.003,0,513.003C0,513.003,11.903,530.871,11.903,530.871C23.807,542.774,238.145,840.462,512,840.462C785.855,840.462,1006.132,542.774,1012.097,530.871C1012.097,530.871,1024,513.003,1024,513.003C1024,513.003,1012.097,495.135,1012.097,495.135C1006.132,483.231,785.855,185.543,512,185.543C512,185.543,512,185.543,512,185.543M77.385,512.977C125.024,453.434,309.565,245.06,517.939,245.06C726.312,245.06,904.914,453.434,952.554,512.977C904.914,572.519,720.374,780.893,512,780.893C303.626,780.893,125.024,572.519,77.385,512.977C77.385,512.977,77.385,512.977,77.385,512.977M512,334.374C410.783,334.374,333.398,411.759,333.398,512.977C333.398,614.194,410.783,691.579,512,691.579C613.217,691.579,690.602,614.194,690.602,512.977C690.602,411.759,613.217,334.374,512,334.374C512,334.374,512,334.374,512,334.374M512,632.036C446.519,632.036,392.941,578.458,392.941,512.977C392.941,447.495,446.519,393.917,512,393.917C577.481,393.917,631.059,447.495,631.059,512.977C631.059,578.458,577.481,632.036,512,632.036C512,632.036,512,632.036,512,632.036M95.279,137.591C95.279,137.591,886.708,929.02,886.708,929.02C886.708,929.02,928.799,886.929,928.799,886.929C928.799,886.929,137.37,95.5,137.37,95.5C137.37,95.5,95.279,137.591,95.279,137.591C95.279,137.591,95.279,137.591,95.279,137.591" class="icon-twilio-hide"/><glyph unicode="&#x0065;" d="M512,185C238.14,185,23.814,482.674,11.907,494.581C11.907,494.581,0,512.442,0,512.442C0,512.442,11.907,530.302,11.907,530.302C23.814,542.209,238.14,839.884,512,839.884C785.86,839.884,1006.14,542.209,1012.093,530.302C1012.093,530.302,1024,512.442,1024,512.442C1024,512.442,1012.093,494.581,1012.093,494.581C1006.14,482.674,785.86,185,512,185C512,185,512,185,512,185M77.395,512.442C125.023,452.907,309.581,244.535,517.953,244.535C726.326,244.535,904.93,452.907,958.512,512.442C904.93,571.977,720.372,780.349,512,780.349C303.628,780.349,125.023,571.977,77.395,512.442C77.395,512.442,77.395,512.442,77.395,512.442M512,333.837C410.791,333.837,333.395,411.233,333.395,512.442C333.395,613.651,410.791,691.047,512,691.047C613.209,691.047,690.605,613.651,690.605,512.442C690.605,411.233,613.209,333.837,512,333.837C512,333.837,512,333.837,512,333.837M512,631.512C446.512,631.512,392.93,577.93,392.93,512.442C392.93,446.953,446.512,393.372,512,393.372C577.488,393.372,631.07,446.953,631.07,512.442C631.07,577.93,577.488,631.512,512,631.512C512,631.512,512,631.512,512,631.512" class="icon-twilio-view"/><glyph unicode="&#x0066;" d="M128,80C128,80,128,304,128,304C128,304,0,304,0,304C0,304,0,944,0,944C0,944,1024,944,1024,944C1024,944,1024,304,1024,304C1024,304,441.6,304,441.6,304C441.6,304,128,80,128,80C128,80,128,80,128,80M64,368C64,368,192,368,192,368C192,368,192,208,192,208C192,208,416,368,416,368C416,368,960,368,960,368C960,368,960,880,960,880C960,880,64,880,64,880C64,880,64,368,64,368C64,368,64,368,64,368M128,752C128,702.72,181.312,671.936,224,696.576C243.776,708.032,256,729.152,256,752C256,801.28,202.688,832.064,160,807.424C140.224,795.968,128,774.848,128,752M582.4,745.6C582.4,745.6,390.4,553.6,390.4,553.6C390.4,553.6,345.6,598.4,345.6,598.4C345.6,598.4,179.2,432,179.2,432C179.2,432,268.8,432,268.8,432C268.8,432,345.6,508.8,345.6,508.8C345.6,508.8,390.4,464,390.4,464C390.4,464,390.4,464,390.4,464C390.4,464,435.2,508.8,435.2,508.8C435.2,508.8,582.4,656,582.4,656C582.4,656,806.4,432,806.4,432C806.4,432,896,432,896,432C896,432,582.4,745.6,582.4,745.6" class="icon-twilio-mms-enabled"/><glyph unicode="&#x0067;" d="M0,590.784C0,590.784,1024,590.784,1024,590.784C1024,590.784,1024,433.248,1024,433.248C1024,433.248,0,433.248,0,433.248C0,433.248,0,590.784,0,590.784C0,590.784,0,590.784,0,590.784M433.216,1024C433.216,1024,590.752,1024,590.752,1024C590.752,1024,590.752,0,590.752,0C590.752,0,433.216,0,433.216,0C433.216,0,433.216,1024,433.216,1024C433.216,1024,433.216,1024,433.216,1024" class="icon-twilio-plus-button"/><glyph unicode="&#x0068;" d="M128,128C128,128,128,384,128,384C128,384,0,384,0,384C0,384,0,1024,0,1024C0,1024,1024,1024,1024,1024C1024,1024,1024,384,1024,384C1024,384,441.6,384,441.6,384C441.6,384,128,128,128,128C128,128,128,128,128,128M64,448C64,448,192,448,192,448C192,448,192,262.4,192,262.4C192,262.4,416,448,416,448C416,448,960,448,960,448C960,448,960,960,960,960C960,960,64,960,64,960C64,960,64,448,64,448C64,448,64,448,64,448M192,832C192,832,192,768,192,768C192,768,832,768,832,768C832,768,832,832,832,832C832,832,192,832,192,832M192,640C192,640,192,576,192,576C192,576,640,576,640,576C640,576,640,640,640,640C640,640,192,640,192,640M441.6,0" class="icon-twilio-sms-enabled"/><glyph unicode="&#x0069;" d="M1,512C1,118.424,427.06,-127.522,767.861,69.266C926.032,160.581,1023.483,329.369,1023.483,512C1023.483,905.576,597.421,1151.522,256.62,954.734C98.45,863.419,1,694.631,1,512M409.992,228.851C409.992,228.851,166.17,472.674,166.17,472.674C166.17,472.674,276.283,582.787,276.283,582.787C276.283,582.787,394.262,464.809,394.262,464.809C394.262,464.809,701.006,818.744,701.006,818.744C701.006,818.744,818.985,716.496,818.985,716.496C818.985,716.496,409.992,228.851,409.992,228.851" class="icon-twilio-success"/><glyph unicode="&#x006a;" d="M1024,512C1024,229.216,794.784,0,512,0C229.216,0,0,229.216,0,512C0,794.784,229.216,1024,512,1024C794.784,1024,1024,794.784,1024,512C1024,512,1024,512,1024,512M590.752,866.464C590.752,866.464,433.216,866.464,433.216,866.464C433.216,866.464,433.216,393.856,433.216,393.856C433.216,393.856,590.752,393.856,590.752,393.856C590.752,393.856,590.752,866.464,590.752,866.464C590.752,866.464,590.752,866.464,590.752,866.464M433.216,157.536C433.216,157.536,590.752,157.536,590.752,157.536C590.752,157.536,590.752,315.072,590.752,315.072C590.752,315.072,433.216,315.072,433.216,315.072C433.216,315.072,433.216,157.536,433.216,157.536" class="icon-twilio-exclamation-point"/><glyph unicode="&#x006b;" d="M954.695,516.513C954.695,516.513,954.695,512.127,954.695,512.127C954.695,395.23,909.954,285.351,828.806,202.887C747.658,120.423,639.973,75.024,525.488,75.024C425.04,75.024,331.391,109.019,254.191,173.498C254.191,173.498,348.936,268.244,348.936,268.244C348.936,268.244,110.317,268.244,110.317,268.244C110.317,268.244,110.317,29.625,110.317,29.625C110.317,29.625,204.844,124.152,204.844,124.152C294.326,47.609,407.933,5.5,525.488,5.5C658.834,5.5,784.065,58.356,878.153,153.979C972.241,249.602,1024,376.807,1024,512.127C1024,512.127,1024,516.513,1024,516.513C1024,516.513,954.695,516.513,954.695,516.513C954.695,516.513,954.695,516.513,954.695,516.513M498.073,949.229C598.521,949.229,692.39,915.016,769.59,850.316C769.59,850.316,675.283,756.229,675.283,756.229C675.283,756.229,913.683,756.229,913.683,756.229C913.683,756.229,913.683,994.628,913.683,994.628C913.683,994.628,818.717,899.663,818.717,899.663C729.455,976.425,615.628,1018.753,498.073,1018.753C364.947,1018.753,239.716,965.898,145.628,870.055C51.759,774.432,0,647.227,0,512.127C0,512.127,0,507.74,0,507.74C0,507.74,69.524,507.74,69.524,507.74C69.524,507.74,69.524,512.127,69.524,512.127C69.524,629.024,114.265,738.902,195.194,821.366C276.123,903.83,383.808,949.229,498.073,949.229C498.073,949.229,498.073,949.229,498.073,949.229M741.737,509.714C741.737,510.153,741.737,510.811,741.737,511.249C741.737,511.469,741.737,511.907,741.737,512.127C741.737,512.127,741.737,516.513,741.737,516.513C741.737,516.513,670.019,516.513,670.019,516.513C670.019,516.513,670.019,512.127,670.019,512.127C670.019,511.688,670.019,511.249,670.019,510.591C670.019,510.153,670.019,509.933,670.019,509.495C670.019,422.206,599.179,351.366,511.89,351.366C511.89,351.366,507.504,351.366,507.504,351.366C507.504,351.366,507.504,279.868,507.504,279.868C507.504,279.868,511.89,279.868,511.89,279.868C638.657,279.868,741.737,382.948,741.737,509.714C741.737,509.714,741.737,509.714,741.737,509.714M516.496,667.624C516.496,667.624,516.496,739.122,516.496,739.122C516.496,739.122,512.11,739.122,512.11,739.122C386.879,739.122,284.018,637.138,282.483,512.127C282.483,512.127,282.483,507.74,282.483,507.74C282.483,507.74,353.981,507.74,353.981,507.74C353.981,507.74,353.981,512.127,353.981,512.127C355.297,597.88,426.137,667.843,511.89,667.843C511.89,667.843,516.496,667.843,516.496,667.843C516.496,667.843,516.496,667.624,516.496,667.624" class="icon-twilio-sync"/></font>
</defs>
</svg>
