<svg width="15" height="30" viewBox="0 0 15 30" xmlns="http://www.w3.org/2000/svg"><title>icon-github</title><g fill="none" fill-rule="evenodd"><path d="M7.5 0a7.5 7.5 0 0 0-2.37 14.617c.374.07.51-.163.51-.36 0-.18-.006-.77-.01-1.397-2.085.453-2.526-.885-2.526-.885-.34-.867-.832-1.098-.832-1.098-.68-.465.05-.456.05-.456.754.054 1.15.774 1.15.774.67 1.147 1.755.815 2.183.624.068-.485.262-.816.476-1.003-1.664-.19-3.416-.833-3.416-3.707 0-.818.293-1.488.773-2.013-.078-.19-.334-.952.073-1.985 0 0 .63-.2 2.063.77A7.19 7.19 0 0 1 7.5 3.626c.637.003 1.28.086 1.88.252 1.43-.97 2.06-.77 2.06-.77.408 1.033.15 1.796.073 1.985.48.525.772 1.195.772 2.013 0 2.88-1.755 3.515-3.425 3.7.27.234.51.69.51 1.39 0 1.003-.01 1.81-.01 2.058 0 .2.135.434.515.36A7.5 7.5 0 0 0 7.5 0" fill="#0E99E5"/><path d="M7.5 15a7.5 7.5 0 0 0-2.37 14.617c.374.07.51-.163.51-.36 0-.18-.006-.77-.01-1.397-2.085.453-2.526-.885-2.526-.885-.34-.867-.832-1.098-.832-1.098-.68-.465.05-.456.05-.456.754.054 1.15.774 1.15.774.67 1.147 1.755.815 2.183.624.068-.485.262-.816.476-1.003-1.664-.19-3.416-.833-3.416-3.707 0-.818.293-1.488.773-2.013-.078-.19-.334-.952.073-1.985 0 0 .63-.2 2.063.77a7.19 7.19 0 0 1 1.877-.253c.637.003 1.28.086 1.88.252 1.43-.97 2.06-.77 2.06-.77.408 1.033.15 1.796.073 1.985.48.525.772 1.195.772 2.013 0 2.88-1.755 3.515-3.425 3.7.27.234.51.69.51 1.39 0 1.003-.01 1.81-.01 2.058 0 .2.135.434.515.36A7.5 7.5 0 0 0 7.5 15" fill="#0076B1"/></g></svg>