<svg width="24" height="24" viewBox="0 0 24 24" xmlns="http://www.w3.org/2000/svg"><title>icon-question</title><g fill="#CFA3F6" fill-rule="evenodd"><path d="M12 24c6.627 0 12-5.373 12-12S18.627 0 12 0 0 5.373 0 12s5.373 12 12 12zm0-2c5.523 0 10-4.477 10-10S17.523 2 12 2 2 6.477 2 12s4.477 10 10 10z"/><path d="M15.65 9.716v.154l-.014.14-.014.154-.028.126-.028.14-.028.126-.042.126-.042.126-.07.14-.07.126-.07.126-.084.112-.098.126-.098.112-.112.098-.098.098-.112.084-.112.098-.112.084-.126.084-.126.07-.14.084-.126.07-.126.07-.112.056-.126.056-.126.056-.126.056-.126.056-.14.056-.14.056-.14.042-.14.056-.014.14-.014.154-.014.14-.014.154-.014.14-.014.154-.014.14-.14.028-.14.028-.14.028-.126.028-.14.042-.14.028-.14.028-.14.028-.014-.14-.014-.14v-.126l-.014-.14-.014-.14-.014-.14v-.14l-.014-.14-.014-.126-.014-.14v-.14l-.014-.14-.014-.14-.014-.14v-.126l-.014-.14-.014-.14.126-.042.126-.056.126-.042.126-.042.168-.056.168-.07.154-.056.14-.056.14-.07.126-.056.126-.056.112-.056.112-.07.098-.056.098-.056.084-.07.084-.056.112-.098.098-.112.084-.112.056-.126.056-.126.042-.14.014-.14.014-.154-.014-.154-.028-.154-.042-.14-.056-.126-.084-.112-.098-.112-.112-.098-.098-.056-.112-.056-.112-.056-.126-.042-.126-.042-.14-.028-.14-.014-.154-.014h-.308l-.14.014-.154.014-.14.014-.14.028-.14.028-.14.042-.14.028-.14.056-.14.042-.126.056-.126.056-.126.07-.112.056-.126.056-.112.07-.126.07-.112.07-.112.07-.112.07-.112.084-.112.07-.112.084-.014-.14-.028-.154-.014-.14-.028-.14-.014-.14-.028-.154-.014-.14-.028-.14-.014-.14-.028-.154-.014-.14L9 8.05l.112-.07.126-.084.112-.07.126-.07.126-.056.126-.07.126-.056.126-.07.126-.056.14-.056.14-.042.14-.056.112-.042.126-.042.126-.028.126-.028.126-.028.126-.028.14-.028.126-.014.14-.014.14-.014.14-.014.14-.014H12.542l.14.014h.14l.14.014.14.014.14.028.126.028.126.028.126.028.126.028.154.056.14.056.126.056.14.07.126.07.112.07.112.084.112.084.098.084.098.098.098.098.084.112.07.112.07.112.07.112.07.126.042.126.056.14.042.126.028.14.028.154.014.14.014.154v.154zm-4.732 7.616V15.176H12.864V17.332H10.918z"/></g></svg>