<svg width="26" height="32" viewBox="0 0 26 32" xmlns="http://www.w3.org/2000/svg"><title>icon-api-link-large</title><g fill="none" fill-rule="evenodd"><path d="M1 14.006c0 .548.447.994.997.994h22.006c.55 0 .997-.446.997-.994V1.994A.997.997 0 0 0 24.003 1H1.997A.996.996 0 0 0 1 1.994v12.012zM1.997 0h22.006C25.106 0 26 .895 26 1.994v12.012c0 1.1-.895 1.994-1.997 1.994H1.997A1.997 1.997 0 0 1 0 14.006V1.994C0 .894.895 0 1.997 0z" fill="#0099E5"/><path d="M8.03 4.52H9.03l.04.09.04.1.03.09.04.09.04.09.04.1.03.09.04.09.04.09.04.1.04.09.03.09.04.1.04.09.04.09.03.09.04.1.04.09.04.09.04.09.03.1.04.09.04.09.04.1.03.09.04.09.04.09.04.1.04.09.03.09.04.09.04.1.04.09.03.09.04.1.04.09.04.09.04.09.03.1.04.09.04.09.04.09.04.1.03.09.04.09.04.1.04.09.03.09.04.09.04.1.04.09.04.09.03.09.04.1.04.09.04.09.03.1.04.09.04.09.04.09.04.1.03.09.04.09.04.09.04.1.03.09.04.09.04.1.04.09.04.09.03.09.04.1.04.09.04.09.03.09.04.1.04.09-.1.02-.1.02-.1.02-.1.02-.09.02-.1.03-.1.02-.1.02-.1.02-.1.02-.04-.09-.03-.1-.04-.09-.04-.09-.03-.09-.04-.1-.04-.09-.03-.09-.04-.1-.04-.09-.03-.09-.04-.1-.04-.09-.03-.09-.04-.09-.04-.1-.03-.09-.04-.09-.04-.1-.03-.09-.04-.09-.04-.09-.03-.1-.04-.09H6.96l-.04.09-.03.1-.04.09-.04.1-.03.09-.04.09-.04.1-.03.09-.04.1-.04.09-.03.09-.04.1-.03.09-.04.09-.04.1-.03.09-.04.1-.04.09-.03.09-.04.1-.04.09-.03.1-.04.09H5.08l.04-.09.03-.09.04-.1.04-.09.04-.09.03-.09.04-.1.04-.09.04-.09.03-.09.04-.09.04-.1.04-.09.03-.09.04-.09.04-.09.03-.1.04-.09.04-.09.04-.09.03-.1.04-.09.04-.09.04-.09.03-.09.04-.1.04-.09.04-.09.03-.09.04-.09.04-.1.03-.09.04-.09.04-.09.04-.1.03-.09.04-.09.04-.09.04-.09.03-.1.04-.09.04-.09.04-.09.03-.09.04-.1.04-.09.04-.09.03-.09.04-.1.04-.09.03-.09.04-.09.04-.09.04-.1.03-.09.04-.09.04-.09.04-.09.03-.1.04-.09.04-.09.04-.09.03-.1.04-.09.04-.09.03-.09.04-.09.04-.1.04-.09.03-.09.04-.09.04-.09.04-.1.03-.09.04-.09.04-.09.04-.1.03-.09.04-.09zM7.3 8.75H9.72l-.04-.09-.03-.09-.04-.1-.04-.09-.03-.09-.04-.09-.04-.1-.03-.09-.04-.09-.04-.09-.03-.1-.04-.09-.04-.09-.03-.09-.04-.1-.04-.09-.03-.09-.04-.09-.04-.1-.03-.09-.04-.09-.04-.09-.03-.1-.04-.09-.04-.09-.03-.09-.04-.1-.04-.09-.03-.09-.04-.09-.04-.1-.03-.09-.04-.09-.04.09-.03.09-.04.1-.04.09-.03.09-.04.09-.04.1-.03.09-.04.09-.04.09-.03.1-.04.09-.04.09-.03.09-.04.1-.04.09-.03.09-.04.09-.04.1-.03.09-.04.09-.04.09-.03.1-.04.09-.04.09-.03.09-.04.1-.04.09-.03.09-.04.09-.04.1-.03.09-.04.09zm10.5-2.1v.11l-.01.11-.01.1-.01.1-.02.1-.02.1-.03.09-.02.09-.04.09-.03.08-.05.1-.05.08-.05.09-.06.08-.06.07-.07.08-.07.07-.07.06-.08.06-.07.06-.08.05-.08.05-.08.04-.08.05-.09.04-.09.03-.1.04-.09.03-.1.03-.09.02-.1.03-.09.02-.1.01-.1.02-.1.01-.1.01-.11.01-.1.01h-1.03V11.8H13.27V4.55H15.37l.11.01h.12l.11.01.11.01.1.02.11.02.1.02.09.02.1.02.09.03.09.03.09.04.08.03.08.04.08.05.08.04.07.05.08.05.07.05.07.06.07.07.06.06.06.07.06.08.05.07.05.08.04.08.04.09.04.09.03.09.03.09.02.1.02.1.01.1.01.11.01.11v.11zm-1.01.03v-.11l-.01-.11-.02-.1-.02-.09-.03-.09-.04-.08-.04-.08-.05-.08-.06-.07-.06-.06-.07-.06-.08-.05-.07-.04-.08-.05-.09-.03-.09-.03-.09-.03-.11-.03-.1-.02-.11-.01-.12-.01-.12-.01h-1.06V7.98H15.25l.11-.01.11-.01.11-.01.1-.02.1-.02.09-.02.09-.03.09-.03.08-.03.08-.04.07-.04.07-.05.08-.06.07-.06.06-.08.05-.07.05-.09.04-.09.03-.09.03-.11.02-.1.01-.12v-.12zm2.47 5.12V4.55H20.26V11.8H19.26z" fill="#0099E5"/><path d="M1 30.006c0 .548.447.994.997.994h22.006c.55 0 .997-.446.997-.994V17.994a.997.997 0 0 0-.997-.994H1.997a.996.996 0 0 0-.997.994v12.012zM1.997 16h22.006c1.103 0 1.997.895 1.997 1.994v12.012c0 1.1-.895 1.994-1.997 1.994H1.997A1.997 1.997 0 0 1 0 30.006V17.994C0 16.894.895 16 1.997 16z" fill="#0076B1"/><path d="M8.03 20.52H9.03l.04.09.04.1.03.09.04.09.04.09.04.1.03.09.04.09.04.09.04.1.04.09.03.09.04.1.04.09.04.09.03.09.04.1.04.09.04.09.04.09.03.1.04.09.04.09.04.1.03.09.04.09.04.09.04.1.04.09.03.09.04.09.04.1.04.09.03.09.04.1.04.09.04.09.04.09.03.1.04.09.04.09.04.09.04.1.03.09.04.09.04.1.04.09.03.09.04.09.04.1.04.09.04.09.03.09.04.1.04.09.04.09.03.1.04.09.04.09.04.09.04.1.03.09.04.09.04.09.04.1.03.09.04.09.04.1.04.09.04.09.03.09.04.1.04.09.04.09.03.09.04.1.04.09-.1.02-.1.02-.1.02-.1.02-.09.02-.1.03-.1.02-.1.02-.1.02-.1.02-.04-.09-.03-.1-.04-.09-.04-.09-.03-.09-.04-.1-.04-.09-.03-.09-.04-.1-.04-.09-.03-.09-.04-.1-.04-.09-.03-.09-.04-.09-.04-.1-.03-.09-.04-.09-.04-.1-.03-.09-.04-.09-.04-.09-.03-.1-.04-.09H6.96l-.04.09-.03.1-.04.09-.04.1-.03.09-.04.09-.04.1-.03.09-.04.1-.04.09-.03.09-.04.1-.03.09-.04.09-.04.1-.03.09-.04.1-.04.09-.03.09-.04.1-.04.09-.03.1-.04.09H5.08l.04-.09.03-.09.04-.1.04-.09.04-.09.03-.09.04-.1.04-.09.04-.09.03-.09.04-.09.04-.1.04-.09.03-.09.04-.09.04-.09.03-.1.04-.09.04-.09.04-.09.03-.1.04-.09.04-.09.04-.09.03-.09.04-.1.04-.09.04-.09.03-.09.04-.09.04-.1.03-.09.04-.09.04-.09.04-.1.03-.09.04-.09.04-.09.04-.09.03-.1.04-.09.04-.09.04-.09.03-.09.04-.1.04-.09.04-.09.03-.09.04-.1.04-.09.03-.09.04-.09.04-.09.04-.1.03-.09.04-.09.04-.09.04-.09.03-.1.04-.09.04-.09.04-.09.03-.1.04-.09.04-.09.03-.09.04-.09.04-.1.04-.09.03-.09.04-.09.04-.09.04-.1.03-.09.04-.09.04-.09.04-.1.03-.09.04-.09zm-.73 4.23H9.72l-.04-.09-.03-.09-.04-.1-.04-.09-.03-.09-.04-.09-.04-.1-.03-.09-.04-.09-.04-.09-.03-.1-.04-.09-.04-.09-.03-.09-.04-.1-.04-.09-.03-.09-.04-.09-.04-.1-.03-.09-.04-.09-.04-.09-.03-.1-.04-.09-.04-.09-.03-.09-.04-.1-.04-.09-.03-.09-.04-.09-.04-.1-.03-.09-.04-.09-.04.09-.03.09-.04.1-.04.09-.03.09-.04.09-.04.1-.03.09-.04.09-.04.09-.03.1-.04.09-.04.09-.03.09-.04.1-.04.09-.03.09-.04.09-.04.1-.03.09-.04.09-.04.09-.03.1-.04.09-.04.09-.03.09-.04.1-.04.09-.03.09-.04.09-.04.1-.03.09-.04.09zm10.5-2.1v.11l-.01.11-.01.1-.01.1-.02.1-.02.1-.03.09-.02.09-.04.09-.03.08-.05.1-.05.08-.05.09-.06.08-.06.07-.07.08-.07.07-.07.06-.08.06-.07.06-.08.05-.08.05-.08.04-.08.05-.09.04-.09.03-.1.04-.09.03-.1.03-.09.02-.1.03-.09.02-.1.01-.1.02-.1.01-.1.01-.11.01-.1.01h-1.03V27.8H13.27V20.55H15.37l.11.01h.12l.11.01.11.01.1.02.11.02.1.02.09.02.1.02.09.03.09.03.09.04.08.03.08.04.08.05.08.04.07.05.08.05.07.05.07.06.07.07.06.06.06.07.06.08.05.07.05.08.04.08.04.09.04.09.03.09.03.09.02.1.02.1.01.1.01.11.01.11v.11zm-1.01.03v-.11l-.01-.11-.02-.1-.02-.09-.03-.09-.04-.08-.04-.08-.05-.08-.06-.07-.06-.06-.07-.06-.08-.05-.07-.04-.08-.05-.09-.03-.09-.03-.09-.03-.11-.03-.1-.02-.11-.01-.12-.01-.12-.01h-1.06V23.98H15.25l.11-.01.11-.01.11-.01.1-.02.1-.02.09-.02.09-.03.09-.03.08-.03.08-.04.07-.04.07-.05.08-.06.07-.06.06-.08.05-.07.05-.09.04-.09.03-.09.03-.11.02-.1.01-.12v-.12zm2.47 5.12V20.55H20.26V27.8H19.26z" fill="#0076B1"/></g></svg>