<svg width="8" height="12" viewBox="0 0 8 12" xmlns="http://www.w3.org/2000/svg"><title>icon-select-arrows</title><path d="M6.318 7.257c.084.05.162.11.232.185l-.168-.18a1.02 1.02 0 0 1-.032 1.425l-2.364 2.3L1.518 8.68a1 1 0 0 1-.04-1.41l-.17.18c.072-.076.153-.14.24-.188L3.93 9.644l2.388-2.387zm0-2.526c.084-.047.162-.11.232-.183l-.168.18A1.02 1.02 0 0 0 6.35 3.3L3.986 1 1.518 3.31a1 1 0 0 0-.04 1.407l-.17-.18c.072.077.153.14.24.19L3.93 2.344 6.318 4.73z" fill="#0099E5" fill-rule="evenodd"/></svg>