<svg width="20" height="24" viewBox="0 0 20 24" xmlns="http://www.w3.org/2000/svg"><title>icon-api-link</title><g fill="none" fill-rule="evenodd"><path d="M1 9.99c0 .56.447 1.01.99 1.01h16.02c.54 0 .99-.452.99-1.01V2.01c0-.56-.447-1.01-.99-1.01H1.99C1.45 1 1 1.452 1 2.01v7.98zM1.99 0h16.02A2 2 0 0 1 20 2.01v7.98c0 1.11-.898 2.01-1.99 2.01H1.99A2 2 0 0 1 0 9.99V2.01C0 .9.898 0 1.99 0z" fill="#0099E5"/><path d="M5.656 3.176H6.456l.032.072.032.08.024.072.032.072.032.072.032.08.024.072.032.072.032.072.032.08.032.072.024.072.032.08.032.072.032.072.024.072.032.08.032.072.032.072.032.072.024.08.032.072.032.072.032.08.024.072.032.072.032.072.032.08.032.072.024.072.032.072.032.08.032.072.024.072.032.08.032.072.032.072.032.072.024.08.032.072.032.072.032.072.032.08.024.072.032.072.032.08.032.072.024.072.032.072.032.08L8 6.96l.032.072.024.072.032.08.032.072.032.072.024.08.032.072.032.072.032.072.032.08.024.072.032.072.032.072.032.08.024.072.032.072.032.08.032.072.032.072.024.072.032.08.032.072.032.072.024.072.032.08.032.072-.08.016-.08.016-.08.016-.08.016-.072.016-.08.024-.08.016-.08.016-.08.016-.08.016-.032-.072-.024-.08-.032-.072-.032-.072-.024-.072-.032-.08-.032-.072-.024-.072-.032-.08-.032-.072-.024-.072-.032-.08-.032-.072-.024-.072-.032-.072-.032-.08-.024-.072-.032-.072-.032-.08-.024-.072-.032-.072-.032-.072-.024-.08-.032-.072H4.8l-.032.072-.024.08-.032.072-.032.08-.024.072-.032.072-.032.08-.024.072-.032.08-.032.072-.024.072-.032.08-.024.072-.032.072-.032.08-.024.072-.032.08-.032.072-.024.072-.032.08-.032.072-.024.08L4.128 9H3.296l.032-.072.024-.072.032-.08.032-.072.032-.072.024-.072.032-.08.032-.072.032-.072.024-.072.032-.072.032-.08.032-.072.024-.072.032-.072.032-.072.024-.08.032-.072.032-.072.032-.072.024-.08.032-.072.032-.072.032-.072.024-.072.032-.08.032-.072.032-.072.024-.072.032-.072.032-.08.024-.072.032-.072.032-.072.032-.08.024-.072.032-.072.032-.072.032-.072.024-.08.032-.072.032-.072.032-.072.024-.072.032-.08.032-.072.032-.072.024-.072.032-.08.032-.072.024-.072.032-.072.032-.072.032-.08.024-.072.032-.072L5 4.8l.032-.072.024-.08.032-.072.032-.072.032-.072.024-.08.032-.072.032-.072.024-.072.032-.072.032-.08.032-.072.024-.072.032-.072.032-.072.032-.08.024-.072.032-.072.032-.072.032-.08.024-.072.032-.072zM5.072 6.56H7.008l-.032-.072-.024-.072-.032-.08-.032-.072-.024-.072-.032-.072-.032-.08-.024-.072-.032-.072-.032-.072-.024-.08-.032-.072-.032-.072-.024-.072-.032-.08-.032-.072-.024-.072-.032-.072-.032-.08-.024-.072-.032-.072-.032-.072-.024-.08-.032-.072-.032-.072-.024-.072-.032-.08-.032-.072-.024-.072-.032-.072-.032-.08-.024-.072-.032-.072-.032.072-.024.072-.032.08-.032.072-.024.072-.032.072-.032.08-.024.072-.032.072-.032.072-.024.08-.032.072-.032.072-.024.072-.032.08-.032.072-.024.072-.032.072-.032.08-.024.072-.032.072-.032.072-.024.08-.032.072-.032.072-.024.072-.032.08-.032.072-.024.072-.032.072-.032.08-.024.072-.032.072zm8.4-1.68v.088l-.008.088-.008.08-.008.08-.016.08-.016.08-.024.072-.016.072-.032.072-.024.064-.04.08-.04.064-.04.072-.048.064-.048.056-.056.064-.056.056-.056.048-.064.048-.056.048-.064.04-.064.04-.064.032-.064.04-.072.032-.072.024-.08.032-.072.024-.08.024-.072.016-.08.024-.072.016-.08.008-.08.016-.08.008-.08.008-.088.008-.08.008h-.824V9H9.848V3.2H11.528l.088.008h.096l.088.008.088.008.08.016.088.016.08.016.072.016.08.016.072.024.072.024.072.032.064.024.064.032.064.04.064.032.056.04.064.04.056.04.056.048.056.056.048.048.048.056.048.064.04.056.04.064.032.064.032.072.032.072.024.072.024.072.016.08.016.08.008.08.008.088.008.088v.088zm-.808.024v-.088l-.008-.088-.016-.08-.016-.072-.024-.072-.032-.064-.032-.064-.04-.064-.048-.056-.048-.048-.056-.048-.064-.04-.056-.032-.064-.04-.072-.024L12.016 4l-.072-.024-.088-.024-.08-.016-.088-.008-.096-.008-.096-.008H10.648V5.944H11.432l.088-.008.088-.008.088-.008.08-.016.08-.016.072-.016.072-.024.072-.024.064-.024.064-.032.056-.032.056-.04.064-.048.056-.048.048-.064.04-.056.04-.072.032-.072.024-.072.024-.088.016-.08.008-.096v-.096zM14.64 9V3.2H15.44V9H14.64z" fill="#0099E5"/><path d="M1 21.99c0 .56.447 1.01.99 1.01h16.02c.54 0 .99-.452.99-1.01v-7.98c0-.56-.447-1.01-.99-1.01H1.99c-.54 0-.99.452-.99 1.01v7.98zM1.99 12h16.02A2 2 0 0 1 20 14.01v7.98c0 1.11-.898 2.01-1.99 2.01H1.99A2 2 0 0 1 0 21.99v-7.98C0 12.9.898 12 1.99 12z" fill="#0076B1"/><path d="M5.656 15.176H6.456l.032.072.032.08.024.072.032.072.032.072.032.08.024.072.032.072.032.072.032.08.032.072.024.072.032.08.032.072.032.072.024.072.032.08.032.072.032.072.032.072.024.08.032.072.032.072.032.08.024.072.032.072.032.072.032.08.032.072.024.072.032.072.032.08.032.072.024.072.032.08.032.072.032.072.032.072.024.08.032.072.032.072.032.072.032.08.024.072.032.072.032.08.032.072.024.072.032.072.032.08.032.072.032.072.024.072.032.08.032.072.032.072.024.08.032.072.032.072.032.072.032.08.024.072.032.072.032.072.032.08.024.072.032.072.032.08.032.072.032.072.024.072.032.08.032.072.032.072.024.072.032.08.032.072-.08.016-.08.016-.08.016-.08.016-.072.016-.08.024-.08.016-.08.016-.08.016-.08.016-.032-.072-.024-.08-.032-.072-.032-.072-.024-.072-.032-.08-.032-.072-.024-.072-.032-.08-.032-.072-.024-.072-.032-.08-.032-.072-.024-.072-.032-.072-.032-.08-.024-.072-.032-.072-.032-.08-.024-.072-.032-.072-.032-.072-.024-.08-.032-.072H4.8l-.032.072-.024.08-.032.072-.032.08-.024.072-.032.072-.032.08-.024.072-.032.08-.032.072-.024.072-.032.08-.024.072-.032.072-.032.08-.024.072-.032.08-.032.072-.024.072-.032.08-.032.072-.024.08-.032.072H3.296l.032-.072.024-.072.032-.08.032-.072.032-.072.024-.072.032-.08.032-.072.032-.072.024-.072.032-.072.032-.08.032-.072.024-.072.032-.072.032-.072.024-.08.032-.072.032-.072.032-.072.024-.08.032-.072.032-.072.032-.072.024-.072.032-.08.032-.072.032-.072.024-.072.032-.072.032-.08.024-.072.032-.072.032-.072.032-.08.024-.072.032-.072.032-.072.032-.072.024-.08.032-.072.032-.072.032-.072.024-.072.032-.08.032-.072.032-.072.024-.072.032-.08.032-.072.024-.072.032-.072.032-.072.032-.08.024-.072.032-.072L5 16.8l.032-.072.024-.08.032-.072.032-.072.032-.072.024-.08.032-.072.032-.072.024-.072.032-.072.032-.08.032-.072.024-.072.032-.072.032-.072.032-.08.024-.072.032-.072.032-.072.032-.08.024-.072.032-.072zm-.584 3.384H7.008l-.032-.072-.024-.072-.032-.08-.032-.072-.024-.072-.032-.072-.032-.08-.024-.072-.032-.072-.032-.072-.024-.08-.032-.072-.032-.072-.024-.072-.032-.08-.032-.072-.024-.072-.032-.072-.032-.08-.024-.072-.032-.072-.032-.072-.024-.08-.032-.072-.032-.072-.024-.072-.032-.08-.032-.072-.024-.072-.032-.072-.032-.08-.024-.072-.032-.072-.032.072-.024.072-.032.08-.032.072-.024.072-.032.072-.032.08-.024.072-.032.072-.032.072-.024.08-.032.072-.032.072-.024.072-.032.08-.032.072-.024.072-.032.072-.032.08-.024.072-.032.072-.032.072-.024.08-.032.072-.032.072-.024.072-.032.08-.032.072-.024.072-.032.072-.032.08-.024.072-.032.072zm8.4-1.68v.088l-.008.088-.008.08-.008.08-.016.08-.016.08-.024.072-.016.072-.032.072-.024.064-.04.08-.04.064-.04.072-.048.064-.048.056-.056.064-.056.056-.056.048-.064.048-.056.048-.064.04-.064.04-.064.032-.064.04-.072.032-.072.024-.08.032-.072.024-.08.024-.072.016-.08.024-.072.016-.08.008-.08.016-.08.008-.08.008-.088.008-.08.008h-.824V21H9.848V15.2H11.528l.088.008h.096l.088.008.088.008.08.016.088.016.08.016.072.016.08.016.072.024.072.024.072.032.064.024.064.032.064.04.064.032.056.04.064.04.056.04.056.048.056.056.048.048.048.056.048.064.04.056.04.064.032.064.032.072.032.072.024.072.024.072.016.08.016.08.008.08.008.088.008.088v.088zm-.808.024v-.088l-.008-.088-.016-.08-.016-.072-.024-.072-.032-.064-.032-.064-.04-.064-.048-.056-.048-.048-.056-.048-.064-.04-.056-.032-.064-.04-.072-.024-.072-.024-.072-.024-.088-.024-.08-.016-.088-.008-.096-.008-.096-.008H10.648V17.944H11.432l.088-.008.088-.008.088-.008.08-.016.08-.016.072-.016.072-.024.072-.024.064-.024.064-.032.056-.032.056-.04.064-.048.056-.048.048-.064.04-.056.04-.072.032-.072.024-.072.024-.088.016-.08.008-.096v-.096zM14.64 21V15.2H15.44V21H14.64z" fill="#0076B1"/></g></svg>