<svg width="24" height="24" viewBox="0 0 24 24" xmlns="http://www.w3.org/2000/svg"><title>icon-aside-important</title><g fill="#3AC134" fill-rule="evenodd"><path d="M12 24c6.627 0 12-5.373 12-12S18.627 0 12 0 0 5.373 0 12s5.373 12 12 12zm0-2c5.523 0 10-4.477 10-10S17.523 2 12 2 2 6.477 2 12s4.477 10 10 10z"/><path d="M12.61 13.664l-1.092.238S11 8.212 11 7.644c0-.568.053-.644.42-.644h1.374c.017 0 .3-.08.3.48 0 .562-.484 6.184-.484 6.184zm-1.105 3.486a.406.406 0 0 1-.407-.408v-1.298c0-.226.177-.408.407-.408h1.104c.224 0 .406.18.406.408v1.298a.404.404 0 0 1-.407.408h-1.105z"/></g></svg>