<svg xmlns="http://www.w3.org/2000/svg" width="95" height="26.9" viewBox="0 0 95 26.9"><path d="M0 21.9c.9-1 1.6-2 3.3-1.4.9.4 1.8-.5 2.3-1.5.4-.9-.2-1.4-.9-1.8-1.2-.7-1.3-1.8-.9-3 .7-2.6 3.7-4.6 6.4-4.3.7.1 1.7.1 1.5.9-.1.6-.6 1.9-2 1.2-.7-.4-1.3-.1-1.9.2-1.2.7-1.3 1.9-.2 2.9 1.7 1.4 1.9 2.1.9 4.1-1.2 2.6-4.9 5-8.5 3.1v-.4zm60.9-21.9c.5 1.1.2 2-1 2.5-.6.3-1.3.5-1.7-.3-.4-.6.1-1.1.5-1.5.3-.3.6-.5.9-.7h1.3zm17.2 12.4c1.8 1 3.9.4 6 .2 2-.3 2.9 1.1 2.1 3.1l-2.6 6.2c-.6 1.4-1.7.9-2.6.8-.6-.1-.3-.6-.1-.9l2.4-5.5c.2-.6.8-1.3-.1-1.7-.8-.4-1.6-.1-2 .8-.9 2.1-1.8 4.2-2.8 6.3-.2.5-.4 1.2-1.2 1.1-.6-.1-1.3.3-1.7-.2-.4-.5.2-1 .4-1.5.6-1.6 1.4-3.2 2.1-4.8.3-.6.9-1.3-.2-1.8-.9-.3-1.6 0-2 .9-.9 2.1-1.9 4-2.6 6.2-.5 1.5-1.6 1.2-2.6 1.1-.6 0-.4-.5-.3-.9 1.2-2.7 2.2-5.5 3.6-8 .7-1.4 2.5-1 4.2-1.4zm-44.6 4.9l-3 4.4c-.3.5-.6 1-1.4 1-1.7.2-1.9 0-1.6-1.7.4-2.4.8-4.7 1.3-7.1.2-1.1 1.4-1.7 2.4-1.2.6.3.3.8.2 1.1-.3 1.5-.7 3-.7 4.6l3.3-4.7c.3-.5.6-1 1.3-1.1 1.1-.1 1.8.1 1.4 1.5-.4 1.5-.6 3-.7 4.5 1-1.5 2-2.9 2.9-4.5.7-1.3 1.6-1.8 3.2-1.4-.6 1.4-1.7 2.6-2.5 3.9l-3.5 5.1c-.4.5-.7.9-1.4.9-1.3.1-1.9-.2-1.4-1.7.4-1.2.5-2.4.7-3.6-.3.1-.4.1-.5 0zm22.8 5.4c-3.6.4-4.8-1.2-3.4-4.5 1.4-3.2 3.5-5.5 7.3-5.7.7 0 1.4.2 2.1.3.7.2 1 .5.6 1.3-1.4 3-2.6 6.1-4.1 9.1-1.4 2.9-3.9 4-7.2 3.5-.5-.1-1.6.1-1.3-.9.2-.6.6-1.6 1.9-1.3 2.4.7 3.1.3 4.1-1.8zm3.7-8.2c-1.3-.5-2.1.1-2.8.9-.9 1.2-1.6 2.6-2 4.1-.2.7-.1 1.3.7 1.6.7.2 1.3-.1 1.6-.8.8-1.9 1.7-3.8 2.5-5.8zm-45.2-1.5c1.6-.3 3.1-.8 4 .4.9 1.1 0 2.3-.4 3.4-.7 1.7-1.5 3.5-2.3 5.2-.3.7-2.1 1.1-2.7.7-.5-.4 0-.7.1-1 .8-1.9 1.6-3.7 2.4-5.5.2-.6.7-1.3-.2-1.7-.7-.3-1.5-.1-1.9.8l-2.7 6.3c-.5 1-1.8 1.6-2.8 1.2-.5-.2-.3-.5-.2-.8l5.7-13c.3-.6 2.3-1.1 2.7-.7.4.4 0 .7-.1 1-.5 1.2-1 2.3-1.6 3.7zm32.7 9.6c1-2.2 1.9-4.3 2.8-6.4.2-.6.8-1.2-.1-1.7-.8-.4-1.6-.2-2 .8-.9 2.1-1.9 4.1-2.7 6.3-.5 1.5-1.6 1.2-2.7 1.1-.7 0-.4-.5-.2-.8 1.2-2.7 2.4-5.4 3.5-8.1.2-.5.7-.7 1.2-.8 1.6-.4 3.2-.7 4.8-.3 1.3.4 1.9 1.2 1.3 2.5-.9 2.3-1.9 4.6-3 6.9-.3.8-.6.8-2.9.5zm-26.9.3c-1.8 0-2.7-.9-2.7-2.5 0-3.2 2.9-6.9 5.9-7.7 1.1-.3 2.2-.3 3.1.5.9.8.8 2 .5 3-.9 2.9-2.4 5.3-5.4 6.4-.3.1-.5.2-.8.2-.1.1-.4.1-.6.1zm.1-3.4c0 .6-.1 1.1.4 1.3.7.3 1.2-.1 1.6-.5 1.1-1.2 1.7-2.7 2.2-4.3.2-.5.3-1.1-.3-1.4-.6-.3-1.1 0-1.5.4-1.3 1.3-1.8 3-2.4 4.5zm68 3.4c-2.7 0-3.9-1.4-3.1-3.9.9-3 2.5-5.4 5.6-6.3 1.3-.4 2.6-.4 3.5.8.6.8.2 3.3-.5 4.1-.4.4-.9.4-1.4.5-1.2.2-2.5.4-3.7.5-.7.1-1.2.3-1.2 1 0 .9.5 1.2 1.2 1.2l1.6-.1c.4 0 1-.6 1.1.3.1.6 0 1.2-.8 1.4-.6.3-1.5.6-2.3.5zm0-5.6c1-.1 2-.1 2.8-.4.9-.3 1.1-1.2.9-2-.3-.9-1.1-.7-1.8-.3-.9.6-1.5 1.5-1.9 2.7zm-23.4-5.1c-.7-.1-1.2-.1-1.8-.1.2-1.4.7-2.2 2.3-2.1 1.3.1 2.6 0 3.9 0 .4 0 1.3-.4 1.2.5 0 .6-.2 1.7-1.1 1.6-1.7-.2-2 .9-2.5 2.1-1 2.4-2.2 4.7-3.1 7.2-.5 1.2-1.2 1.5-2.3 1.4-.9-.1-1.1-.2-.7-1.1 1.3-2.8 2.5-5.6 3.7-8.3.1-.4.2-.7.4-1.2zm-19.9.8c-1.3 3.1-2.7 6.1-4 9.1-.5 1.2-1.7.8-2.4.6-1-.3-.1-1.1.1-1.6.9-2.2 2-4.2 2.8-6.4.6-1.7 1.6-2.3 3.5-1.7zm27.7-.3c-1.5 3.4-2.8 6.4-4.2 9.4-.3.6-2.1.9-2.6.6-.4-.3-.1-.6 0-.9l3.6-8.2c.7-1.5 1.9-.6 3.2-.9zm-10.6-2h-12.3c2.4-.7 4.8-.8 7.3-1 1.1-.1 1.4-.4.7-1.4-.7-.9-1.3-1.9-1.7-3 1.8 1.7 3.8 3.4 6 5.4zm9.2-5.5c-.3 1.1-1 1.6-2.1 1.7-.6.1-1.2-.3-1-.9.2-1 1-1.6 2.1-1.7.6-.1.9.3 1 .9zm-23.3 1.8c-.9 0-1.3-.3-1.2-1 .2-1.1 1.1-1.6 2.1-1.7.6 0 1 .4.9.9-.1 1.2-.9 1.6-1.8 1.8zm6.9-4.9c-.4 1-1 1.7-2.1 1.7-.6 0-1.1-.3-1-1 .2-1.1 1-1.6 2.1-1.7.6 0 1 .3 1 1zm9.6 1.8c-.7 0-1.3-.3-1.1-1 .3-1.1 1-1.6 2.1-1.7.6 0 1 .3.9.9-.1 1.3-.9 1.7-1.9 1.8zm9.8 6c-.3 1.1-1 1.7-2.1 1.8-.6.1-1.1-.3-1-1 .2-1.1.9-1.6 1.9-1.7.7 0 1.1.2 1.2.9zm-27.8-.3c-.2 1-.8 1.5-1.9 1.7-.6.1-1.2 0-1.2-.7.1-1.1.9-1.7 1.9-1.9.7-.2 1.1 0 1.2.9z" fill="#fff"/></svg>