<svg xmlns="http://www.w3.org/2000/svg" viewBox="0 0 77 31" enable-background="new 0 0 77 31"><path fill="#fff" d="M14.4 9.5c0-3.2-1.9-5.5-5-5.5S4.3 6.2 4.3 9.5c0 2.7 1.7 5 2.7 8.6C8 21.8 8.2 27 8.2 27h2.6s-.1-5.1 1.2-8.9c.9-3.3 2.4-6 2.4-8.6m-5.1 2.9c-1.9 0-3.5-1.5-3.5-3.4 0-1.8 1.5-3.4 3.5-3.4 1.9 0 3.5 1.5 3.5 3.4 0 1.8-1.6 3.4-3.5 3.4zM18.3 9.8L21 9v3.4h3.8v2.1H21v7.4c0 1 .1 1.7.5 2.1.3.4.8.6 1.5.6.6 0 1.1-.1 1.5-.2l.1 2c-.7.3-1.5.4-2.4.4-2.6 0-3.9-1.6-3.9-4.8v-7.6h-2.2v-2.1h2.2V9.8"/><path fill="#fff" d="M50.5 6.1h2.7v20.8h-2.7zM58.2 8.4c0 .5-.2.9-.5 1.2-.3.3-.8.5-1.3.5s-.9-.2-1.3-.5c-.3-.3-.5-.7-.5-1.2s.2-.9.5-1.2.8-.5 1.3-.5.9.2 1.2.5c.5.4.6.8.6 1.2"/><path fill="#fff" d="M55.1 12.8h2.7V27h-2.7zM48.5 12.8v-.4h-2.7V21c0 1-.4 1.9-1.1 2.6-.7.7-1.6 1.1-2.6 1.1-2.2 0-3.2-1.5-3.2-4.5v-7.8h-2.7v8.2c0 2.1.4 3.6 1.3 4.7s2.1 1.6 3.7 1.6c2 0 3.6-.8 4.6-2.4v2.4h2.7V12.8"/><path fill="#fff" d="M70 13.6c-.9-1-2.3-1.5-4.2-1.5-1.9 0-3.5.4-4.9 1.3l.6 1.8c1.1-.7 2.4-1.1 3.9-1.1 1.1 0 1.9.3 2.5.8.6.6.8 1.3.8 2.3v.3c-2.9 0-5.1.5-6.5 1.4-1.5.9-2.2 2.2-2.2 3.9 0 1.1.4 2.1 1.2 2.9.8.8 1.9 1.2 3.2 1.2 1.8 0 3.3-.6 4.3-2v2h2.7V18c0-1.9-.5-3.4-1.4-4.4M67.7 24c-.7.6-1.6 1-2.6 1-.7 0-1.3-.2-1.8-.6-.4-.4-.7-1-.7-1.8 0-1 .4-1.7 1.3-2.2.9-.6 2.5-.8 4.8-.8v2.3c0 .7-.3 1.4-1 2.1z"/><path fill="#fff" d="M72.2 12.8h.2c.2 0 .3.1.3.3 0 .1-.1.3-.3.3h-.2v-.6m-.2-.1V14h.2v-.6h.2c.1 0 .2.1.3.3 0 .2.1.3.1.3h.2c0-.1-.1-.2-.1-.4 0-.1-.1-.2-.2-.3.1-.1.3-.2.3-.4 0-.1 0-.2-.1-.3-.1-.1-.2-.1-.4-.1-.3.1-.4.1-.5.2m-.1 1.5c-.1-.1-.3-.2-.4-.4-.1-.2-.1-.3-.1-.5s.1-.4.1-.5c.1-.2.2-.3.4-.4s.3-.1.5-.1.3 0 .5.1.3.2.4.4c.1.2.1.3.1.5s-.1.4-.1.5c-.1.2-.2.3-.4.4-.2.1-.3.1-.5.1s-.3 0-.5-.1m-.1-1.9c-.2.1-.4.3-.5.4-.1.2-.2.4-.2.6s.1.4.2.6c.1.2.3.4.4.4.2.1.4.2.6.2.2 0 .4-.1.6-.2.2-.1.4-.3.4-.4.1-.2.2-.4.2-.6 0-.2-.1-.4-.2-.6-.1-.2-.3-.4-.5-.4-.2-.1-.4-.1-.6-.1 0-.1-.2-.1-.4.1"/><path fill="#fff" d="M33.5 12.4c-.9 0-1.7.3-2.4.8s-1.2 1.2-1.6 2.1v-2.9h-2.7v14.5h2.9v-7.5c0-1.4.4-2.5 1.1-3.3.7-.8 1.5-1.2 2.5-1.2.4 0 .7 0 .9.1v-2.6h-.7"/></svg>