<svg xmlns="http://www.w3.org/2000/svg" viewBox="0 0 22.98 22.2" enable-background="new 0 0 22.98 22.2"><path d="M12.12 19.64h-1.25c0-1.61-1.26-2.87-2.87-2.87h-5.67v-16.77h6.06c1.19 0 2.4.58 3.1 1.62.71-1.04 1.92-1.62 3.1-1.62h6.06v16.77h-6.06c-1.17 0-2.47 1.23-2.47 2.87zm-8.54-4.12h4.42c1.49 0 2.77.75 3.49 1.9.68-1.13 1.84-1.9 3.11-1.9h4.81v-14.27h-4.81c-1.2 0-2.48.87-2.48 2.48h-1.25c0-1.61-1.28-2.48-2.48-2.48h-4.81v14.27zm10.09 6.68h-4.36v-.62c0-1.71-1.44-2.48-2.87-2.48h-6.44v-16.74h2.95v1.25h-1.7v14.24h5.2c2.19 0 3.78 1.25 4.07 3.1h1.95c.29-1.86 1.88-3.1 4.07-3.1h5.2v-14.27h-1.7v-1.25h2.95v16.77h-6.45c-1.43 0-2.87.77-2.87 2.48v.62zm-2.8-18.47h1.25v15.91h-1.25z" fill="#fff"/></svg>