<svg xmlns="http://www.w3.org/2000/svg" viewBox="0 0 58.53 58.53" enable-background="new 0 0 58.53 58.53"><circle cx="29.26" cy="29.26" r="29.26" fill="#fff" opacity=".05"/><path d="M40.34 38.95c-.28 0-.5-.22-.5-.5v-18.07c0-.28.22-.5.5-.5s.5.22.5.5v18.07c0 .27-.23.5-.5.5zm-1.81-19.88h-18.07c-.28 0-.5-.22-.5-.5s.22-.5.5-.5h18.07c.28 0 .5.22.5.5s-.23.5-.5.5zm-19.88 19.88c-.28 0-.5-.22-.5-.5v-18.07c0-.28.22-.5.5-.5s.5.22.5.5v18.07c0 .27-.22.5-.5.5zm19.88 1.8h-18.07c-.28 0-.5-.22-.5-.5s.22-.5.5-.5h18.07c.28 0 .5.22.5.5s-.23.5-.5.5zm-18.07-19.87h-3.61c-.28 0-.5-.22-.5-.5v-3.61c0-.28.22-.5.5-.5h3.61c.28 0 .5.22.5.5v3.61c0 .27-.23.5-.5.5zm-3.12-1h2.61v-2.61h-2.61v2.61zm24.8 1h-3.61c-.28 0-.5-.22-.5-.5v-3.61c0-.28.22-.5.5-.5h3.61c.28 0 .5.22.5.5v3.61c0 .27-.22.5-.5.5zm-3.11-1h2.61v-2.61h-2.61v2.61zm-18.57 22.68h-3.61c-.28 0-.5-.22-.5-.5v-3.61c0-.28.22-.5.5-.5h3.61c.28 0 .5.22.5.5v3.61c0 .28-.23.5-.5.5zm-3.12-1h2.61v-2.61h-2.61v2.61zm24.8 1h-3.61c-.28 0-.5-.22-.5-.5v-3.61c0-.28.22-.5.5-.5h3.61c.28 0 .5.22.5.5v3.61c0 .28-.22.5-.5.5zm-3.11-1h2.61v-2.61h-2.61v2.61z" fill="#fff"/></svg>