<svg xmlns="http://www.w3.org/2000/svg" viewBox="0 0 58.53 58.53" enable-background="new 0 0 58.53 58.53"><circle cx="29.26" cy="29.26" r="29.26" fill="#fff" opacity=".05"/><path d="M29.26 36.53c-.8 0-1.45.65-1.45 1.45 0 .8.65 1.45 1.45 1.45.8 0 1.45-.65 1.45-1.45.01-.8-.65-1.45-1.45-1.45zm0 9.94c-9.49 0-17.21-7.72-17.21-17.21 0-9.49 7.72-17.21 17.21-17.21 9.49 0 17.21 7.72 17.21 17.21 0 9.49-7.72 17.21-17.21 17.21zm0-33.42c-8.94 0-16.21 7.27-16.21 16.21s7.27 16.21 16.21 16.21 16.21-7.27 16.21-16.21-7.27-16.21-16.21-16.21zm0 21.8c-.28 0-.5-.22-.5-.5v-4.36c0-.28.22-.5.5-.5 2.13 0 3.86-1.73 3.86-3.86s-1.73-3.86-3.86-3.86-3.86 1.73-3.86 3.86c0 .28-.22.5-.5.5s-.5-.22-.5-.5c0-2.68 2.18-4.86 4.86-4.86s4.86 2.18 4.86 4.86c0 2.51-1.91 4.58-4.36 4.83v3.88c0 .28-.22.51-.5.51z" fill="#fff"/></svg>