<svg xmlns="http://www.w3.org/2000/svg" viewBox="0 0 58.53 58.53" enable-background="new 0 0 58.53 58.53"><circle cx="29.26" cy="29.26" r="29.26" fill="#fff" opacity=".05"/><path d="M43.62 43.93h-29.88c-.28 0-.5-.22-.5-.5s.22-.5.5-.5h29.88c.28 0 .5.22.5.5s-.23.5-.5.5zm-23.7 0h-4.12c-.28 0-.5-.22-.5-.5v-6.18c0-.28.22-.5.5-.5h4.12c.28 0 .5.22.5.5v6.18c0 .28-.22.5-.5.5zm-3.62-1h3.12v-5.18h-3.12v5.18zm10.83 1h-4.12c-.28 0-.5-.22-.5-.5v-13.39c0-.28.22-.5.5-.5h4.12c.28 0 .5.22.5.5v13.39c0 .28-.22.5-.5.5zm-3.62-1h3.12v-12.39h-3.12v12.39zm10.83 1h-4.12c-.28 0-.5-.22-.5-.5v-10.3c0-.28.22-.5.5-.5h4.12c.28 0 .5.22.5.5v10.3c0 .28-.22.5-.5.5zm-3.62-1h3.12v-9.3h-3.12v9.3zm10.84 1h-4.12c-.28 0-.5-.22-.5-.5v-19.57c0-.28.22-.5.5-.5h4.12c.28 0 .5.22.5.5v19.58c0 .27-.23.49-.5.49zm-3.63-1h3.12v-18.57h-3.12v18.57zm2.6-25.78c-1.13 0-2.04-.92-2.04-2.05s.92-2.05 2.04-2.05 2.05.92 2.05 2.05-.93 2.05-2.05 2.05zm0-3.09c-.58 0-1.04.47-1.04 1.05s.47 1.05 1.04 1.05c.58 0 1.05-.47 1.05-1.05s-.48-1.05-1.05-1.05zm-7.73 12.36c-1.13 0-2.05-.92-2.05-2.05s.92-2.05 2.05-2.05 2.04.92 2.04 2.05-.91 2.05-2.04 2.05zm0-3.09c-.58 0-1.05.47-1.05 1.05s.47 1.05 1.05 1.05c.58 0 1.04-.47 1.04-1.05s-.47-1.05-1.04-1.05zm-7.73 0c-1.13 0-2.05-.92-2.05-2.05s.92-2.05 2.05-2.05 2.05.92 2.05 2.05-.92 2.05-2.05 2.05zm0-3.09c-.58 0-1.05.47-1.05 1.05s.47 1.05 1.05 1.05 1.05-.47 1.05-1.05-.47-1.05-1.05-1.05zm-7.73 9.78c-1.13 0-2.05-.92-2.05-2.04s.92-2.05 2.05-2.05 2.05.92 2.05 2.05-.92 2.04-2.05 2.04zm0-3.09c-.58 0-1.05.47-1.05 1.05s.47 1.05 1.05 1.05 1.05-.47 1.05-1.05-.47-1.05-1.05-1.05zm1.17.54c-.14 0-.28-.06-.38-.17-.18-.21-.16-.52.05-.71l5.4-4.68c.21-.18.52-.16.71.05.18.21.16.52-.05.71l-5.4 4.68c-.1.08-.22.12-.33.12zm12.85-3.17l-.19-.04-4.86-1.94c-.26-.1-.38-.39-.28-.65.1-.26.4-.38.65-.28l4.86 1.94c.26.1.38.39.28.65-.07.2-.26.32-.46.32zm2.42-.61c-.11 0-.23-.04-.32-.12-.21-.18-.24-.49-.06-.7l5.75-6.9c.18-.21.49-.24.7-.06.21.18.24.49.06.7l-5.75 6.9c-.09.12-.23.18-.38.18z" fill="#fff"/></svg>