<svg xmlns="http://www.w3.org/2000/svg" viewBox="0 0 58.53 58.53" enable-background="new 0 0 58.53 58.53"><circle cx="29.26" cy="29.26" r="29.26" fill="#fff" opacity=".05"/><path d="M23.97 44.96l-.19-.04c-.19-.08-.31-.26-.31-.46v-4.96h-9.33c-.28 0-.5-.22-.5-.5v-21.84c0-.28.22-.5.5-.5h31.67c.28 0 .5.22.5.5v21.84c0 .28-.22.5-.5.5h-16.31l-5.17 5.31c-.1.1-.23.15-.36.15zm-9.33-6.46h9.33c.28 0 .5.22.5.5v4.23l4.46-4.58c.09-.1.22-.15.36-.15h16.02v-20.84h-30.67v20.84zm14.79-8.28c-.28 0-.5-.22-.5-.5v-8.19c0-.28.22-.5.5-.5s.5.22.5.5v8.19c0 .27-.22.5-.5.5z" fill="#fff"/><circle cx="29.43" cy="32.45" r=".55" fill="#fff"/></svg>