<svg xmlns="http://www.w3.org/2000/svg" viewBox="0 0 58.53 58.53" enable-background="new 0 0 58.53 58.53"><circle cx="29.26" cy="29.26" r="29.26" fill="#fff" opacity=".05"/><path d="M38.18 31.27h-8.14c-.28 0-.5-.22-.5-.5s.22-.5.5-.5h7.99l9.27-6.18c.23-.15.54-.09.69.14.15.23.09.54-.14.69l-9.4 6.26c-.07.06-.17.09-.27.09zm0 3.76h-8.14c-.28 0-.5-.22-.5-.5s.22-.5.5-.5h7.99l9.27-6.18c.23-.15.54-.09.69.14.15.23.09.54-.14.69l-9.4 6.27c-.07.05-.17.08-.27.08zm0 3.13h-8.14c-.28 0-.5-.22-.5-.5s.22-.5.5-.5h7.99l9.27-6.18c.23-.15.54-.09.69.14.15.23.09.54-.14.69l-9.4 6.26c-.07.06-.17.09-.27.09zm-8.14 1.25h-11.28c-.28 0-.5-.22-.5-.5v-12.53c0-.17.08-.32.22-.42l9.4-6.27c.08-.05.18-.08.28-.08h11.28c.22 0 .42.14.48.35s-.02.44-.2.56l-9.17 6.12v12.26c-.01.29-.23.51-.51.51zm-10.78-1h10.28v-12.03c0-.17.08-.32.22-.42l8.02-5.35h-9.47l-9.05 6.03v11.77zm-.5-7.77h-7.52c-.28 0-.5-.22-.5-.5s.22-.5.5-.5h7.52c.28 0 .5.22.5.5s-.22.5-.5.5zm0 2.51h-7.52c-.28 0-.5-.22-.5-.5s.22-.5.5-.5h7.52c.28 0 .5.22.5.5s-.22.5-.5.5zm0 2.5h-7.52c-.28 0-.5-.22-.5-.5s.22-.5.5-.5h7.52c.28 0 .5.22.5.5s-.22.5-.5.5zm0 2.51h-7.52c-.28 0-.5-.22-.5-.5s.22-.5.5-.5h7.52c.28 0 .5.22.5.5s-.22.5-.5.5zm19.42-10.02h-8.14c-.28 0-.5-.22-.5-.5s.22-.5.5-.5h7.99l7.9-5.27h-8.37c-.28 0-.5-.22-.5-.5s.22-.5.5-.5h10.02c.22 0 .42.14.48.35s-.02.44-.2.56l-9.4 6.27c-.08.06-.18.09-.28.09zm-19.42 0h-7.52c-.22 0-.41-.14-.48-.35s.02-.44.2-.56l9.4-6.27c.08-.05.18-.08.28-.08h5.64c.28 0 .5.22.5.5s-.22.5-.5.5h-5.49l-7.9 5.27h5.87c.28 0 .5.22.5.5s-.22.49-.5.49zm5.64 8.77c-.28 0-.5-.22-.5-.5v-1.25c0-.28.22-.5.5-.5s.5.22.5.5v1.25c0 .27-.22.5-.5.5zm0-8.77c-.28 0-.5-.22-.5-.5v-1.25c0-.28.22-.5.5-.5s.5.22.5.5v1.25c0 .27-.22.5-.5.5zm0 7.51c-1.31 0-2.38-1.07-2.38-2.38 0-.28.22-.5.5-.5s.5.22.5.5c0 .76.62 1.38 1.38 1.38s1.38-.62 1.38-1.38-.62-1.38-1.38-1.38c-1.31 0-2.38-1.07-2.38-2.38s1.07-2.38 2.38-2.38c1.31 0 2.38 1.07 2.38 2.38 0 .28-.22.5-.5.5s-.5-.22-.5-.5c0-.76-.62-1.38-1.38-1.38s-1.38.62-1.38 1.38c0 .76.62 1.38 1.38 1.38 1.31 0 2.38 1.07 2.38 2.38 0 1.32-1.07 2.38-2.38 2.38z" fill="#fff"/></svg>