<svg xmlns="http://www.w3.org/2000/svg" viewBox="0 0 58.53 58.53" enable-background="new 0 0 58.53 58.53"><circle cx="29.26" cy="29.26" r="29.26" fill="#fff" opacity=".05"/><circle cx="29.26" cy="31.52" r="1.03" fill="#fff"/><path d="M29.26 36.57c-.28 0-.5-.22-.5-.5v-4.02c0-.28.22-.5.5-.5s.5.22.5.5v4.02c0 .27-.22.5-.5.5zm10.62 6.6h-21.23c-.28 0-.5-.22-.5-.5v-18.05c0-.28.22-.5.5-.5h21.23c.28 0 .5.22.5.5v18.04c0 .28-.23.51-.5.51zm-20.73-1h20.23v-17.05h-20.23v17.05zm17.54-17.05c-.28 0-.5-.22-.5-.5v-4.78c0-3.6-2.79-7.46-6.93-7.46s-6.93 3.86-6.93 7.46v4.78c0 .28-.22.5-.5.5s-.5-.22-.5-.5v-4.78c0-4.09 3.19-8.46 7.93-8.46s7.93 4.38 7.93 8.46v4.78c0 .28-.22.5-.5.5z" fill="#fff"/></svg>