<svg xmlns="http://www.w3.org/2000/svg" viewBox="0 0 137.2 60" enable-background="new 0 0 137.2 60"><path d="M32.6 40.6v-19.4h9.7c7 0 10.4 2.3 10.4 9.4 0 7.8-3.5 10-10.4 10h-9.7zm9.1-3.6c4.6 0 6.9-1 6.9-6.4 0-4.6-2.3-5.8-6.9-5.8h-4.9v12.2h4.9zm12.5-1.5c0-3.4 2.4-5 7.1-5 1.4 0 2.7.1 3.8.3v-1.1c0-1.5-1.4-2.2-4.3-2.2-1.8 0-3.6.3-5.3.8v-3.3c1.8-.5 3.5-.8 5.3-.8 5.6 0 8.4 1.8 8.4 5.4v11h-2.1l-1.8-1.2c-1.4.8-2.9 1.2-4.6 1.2-4.3 0-6.5-1.7-6.5-5.1zm7.1-1.9c-2 0-3 .6-3 1.9 0 1.2.8 1.9 2.5 1.9s3.1-.4 4.3-1.3v-2.2c-1-.2-2.3-.3-3.8-.3zm10.5-12h3.1l.6 2.7h3.8v3.3h-3.3v7.4c0 1.5.7 2.3 2 2.3h1.4v3.3h-3.4c-2.7 0-4.1-1.5-4.1-4.4v-14.6zm8.6 13.9c0-3.4 2.4-5 7.1-5 1.4 0 2.7.1 3.8.3v-1.1c0-1.5-1.4-2.2-4.3-2.2-1.8 0-3.6.3-5.3.8v-3.3c1.8-.5 3.5-.8 5.3-.8 5.6 0 8.4 1.8 8.4 5.4v11h-2.1l-1.8-1.2c-1.4.8-2.9 1.2-4.6 1.2-4.3 0-6.5-1.7-6.5-5.1zm7.1-1.9c-2 0-3 .6-3 1.9 0 1.2.8 1.9 2.5 1.9s3.1-.4 4.3-1.3v-2.2c-1-.2-2.3-.3-3.8-.3zm14.7-12v19.1h-4.1v-19.1h4.1zm1.6 10.8c0-5.6 2.8-8.3 8.3-8.3 5.5 0 8.3 2.8 8.3 8.3 0 5.6-2.8 8.3-8.3 8.3-5.5.1-8.3-2.7-8.3-8.3zm8.3 5.1c2.8 0 4.1-1.7 4.1-5.1 0-3.3-1.4-5-4.1-5-2.8 0-4.1 1.7-4.1 5-.1 3.4 1.3 5.1 4.1 5.1zm9.8-15.9h3.1l.6 2.7h3.8v3.3h-3.4v7.4c0 1.5.7 2.3 2 2.3h1.4v3.3h-3.4c-2.7 0-4.1-1.5-4.1-4.4v-14.6z" fill="#2D2C2A"/><g fill="#2D2C2A"><path d="M23.4 36.4c1.6 0 2.5-1.7 2.2-2.7-.3-1 .5-1 .5-1s.3 0 .3.4v-12.2c0-1.1-.9-1.9-1.9-1.9h-7.6l2.6 13.9c0-.1 2.4 3.4 3.9 3.5zm-16.3-11.1c5.3-2.2 8.9 3.3 8.9 3.3l-2.5-9.7h-8.7c-1.1 0-1.9.9-1.9 1.9v9.4c.4-2 1.7-3.9 4.2-4.9zm0 11.1c1.4 3 3.5 5.3 6.1 5.2 2.3-.1 3.4-2.1 3.4-5.2v-.3c-.1-1.9-.5-5.5-.5-5.5s-3.3-4.7-6.9-4.4c-3.6.3-4.3 4-2.9 7.9.2.9.5 1.6.8 2.3"/><path d="M3.4 37.1l-.3-.6-.3-1.1v5.1c0 1.1.9 1.9 1.9 1.9h2.8c-2.1-1.5-3.3-3.6-4.1-5.3zm16.8-.7c-.5-.5-.8-1-.8-1v1c-.2 2.3-1.4 3.7-2.1 4.6-.3.4-.9.9-1.7 1.3h8.8c1.1 0 1.9-.9 1.9-1.9v-3.4c0 .3 0 .5-.3.8-1.8 2.1-4.6 0-5.8-1.4z"/></g><path fill="#2D2C2A" d="M132.4 19.1v.2h-.7v2.1h-.3v-2.1h-.7v-.2h1.7zm.3 2.3v-2.3h.4l.9 1.9.8-1.9h.4v2.3h-.3v-1.9l-.8 1.9h-.2l-.8-1.9v1.9h-.4z"/></svg>