<svg xmlns="http://www.w3.org/2000/svg" viewBox="0 0 137.2 60" enable-background="new 0 0 137.2 60"><path d="M23.4 36.4c3.2 0 5-2.6 5-7.2s-1.8-7.2-5-7.2-5 2.6-5 7.1c0 4.7 1.7 7.3 5 7.3m0-15.4c4.5 0 7.4 3.3 7.4 8.2 0 4.9-3 8.3-7.4 8.3s-7.4-3.5-7.4-8.3c-.1-4.8 3-8.2 7.4-8.2m36.3 8c0-4.3-2-6.8-5.9-6.8-1.7 0-2.4.1-2.4.1s.1.4.1 1v5.9c0 2.1 0 4.4.1 5.7 0 .7-.1 1.1-.1 1.1s.6.1 2.1.1c4 .1 6.1-2.5 6.1-7.1m2.4-.1c0 5.1-2.9 8.3-7.8 8.3h-5s.1-5.1.1-8c0-2.9-.1-7.9-.1-7.9h5.7c4.6 0 7.1 2.6 7.1 7.6m48.5 7.5c3.2 0 5-2.6 5-7.2s-1.8-7.2-5-7.2-5 2.6-5 7.1c0 4.7 1.7 7.3 5 7.3m0-15.4c4.5 0 7.4 3.3 7.4 8.2 0 4.9-3 8.3-7.4 8.3s-7.4-3.5-7.4-8.3c-.1-4.8 3-8.2 7.4-8.2m-108.7 10.6c0 3.8.2 5.6.2 5.6h-1.7s.2-6.4.2-12.6c0-1.1-.1-3.3-.1-3.3h1.2s4.4 6.3 7.4 10.4c.3.5.8 1.2 1.1 1.8 0 0-.1-1.1-.1-2.1v-4.5c0-4.1-.2-5.6-.2-5.6h1.7s-.2 5.8-.2 12.6c0 .7.1 3.3.1 3.3h-1.2s-4.4-6.2-7.3-10.4c-.5-.6-.7-1.1-1-1.7 0 0 .1 1.4.1 2.1l-.2 4.4zm67.6 4.8c1.8 0 3.2-1.6 2.9-3.3-.2-1.4-1.2-2.2-3-3.2-2.2-1.3-3.5-2.2-3.8-4.3-.3-2.6 1.9-4.5 4.6-4.6 1.5-.1 2.8.4 3.4.5v1.7s-1.3-1.2-3.3-1.2c-1.4 0-2.9.9-2.9 2.5 0 1.4 1.1 2.1 3 3.2 2.6 1.5 3.9 2.7 3.9 5 0 2.8-2.3 4.9-5.1 4.9-1.5 0-2.9-.3-3.4-.5v-1.9c.1-.1 1.4 1.2 3.7 1.2m17.6-15.1v1.5s-1.2-.4-3.1-.4h-1v4.6c0 4.4.2 10.2.2 10.2h-2.5s.2-5.7.2-10.2v-4.6h-1c-1.9 0-3.1.4-3.1.4v-1.5h10.3zm49.5 15.9h-2.4s-.1-5.8-.4-9.9v-1.8s-.2.8-.6 1.7l-4.4 10.3s-2.4-5.6-4.4-9.8c-.3-.6-.7-1.7-.9-2.3 0 .9 0 1.8-.1 2.5-.3 4.1-.4 9.2-.4 9.2h-1.5l1-15.9h1.4s2.9 6.6 4.8 10.7c.2.5.5 1.1.6 1.6.2-.6.4-1.1.6-1.6 1.7-4.1 4.4-10.7 4.4-10.7h1.4l.9 16zm-36.7-12.2c0 2.1-1.3 3.6-3.7 4.2 1.5 2.8 4.6 8.1 4.6 8.1h-2.5s-1.3-2.7-4.8-8.8h.3c2.6 0 3.9-1.1 3.9-3.2 0-1.8-1.1-3-3.2-3h-1.6s.1.4.1 1.4v8.2c0 3.6.2 5.3.2 5.3h-2.4s.2-6.3.2-9.6c0-2.3-.2-6.4-.2-6.4h4.7c2.8.1 4.4 1.4 4.4 3.8m-55.5 0c0 2.1-1.3 3.6-3.7 4.2 1.5 2.8 4.6 8.1 4.6 8.1h-2.5s-1.3-2.7-4.8-8.8h.3c2.6 0 3.9-1.1 3.9-3.2 0-1.8-1.1-3-3.2-3h-1.6s.1.4.1 1.4v8.2c0 3.6.2 5.3.2 5.3h-2.4s.2-6.3.2-9.6c0-2.3-.2-6.4-.2-6.4h4.7c2.8.1 4.4 1.4 4.4 3.8"/></svg>