<svg xmlns="http://www.w3.org/2000/svg" viewBox="0 0 137.2 60" enable-background="new 0 0 137.2 60"><path fill="#292925" d="M1 20.4c.4-.4.7-1 1.3-1 1.2-.1 2.5-.1 3.7 0 .8.2 1.1 1.2 1.1 1.9 0 1.1.2 2.3-.3 3.3-.9 1.1-2.5.6-3.8.7-.9.1-1.8-.5-2-1.4v-3.5zm8.6-1c1.2-.1 2.5-.1 3.7 0 .7 0 1.2.8 1.2 1.4.1 1.1.1 2.2 0 3.2-.1.8-1 1.3-1.7 1.3-1.1 0-2.3.1-3.3-.1-1.1-.5-1-2-1-3.1 0-.9-.1-2.3 1.1-2.7zm7.3.1c1.2-.3 2.5-.1 3.7-.1.9-.1 1.5.9 1.5 1.7 0 1.1.2 2.3-.2 3.4-.5 1.1-1.9.9-2.8.9-.8-.1-1.9.2-2.5-.5-.7-.7-.5-1.8-.5-2.7-.1-1-.2-2.2.8-2.7zm76.7-.1h2.5v5.6c1.6-1.5 4.3-2.3 6.1-.8.7.7.9 1.7.9 2.7v7.6h-2.5v-7.1c0-.7-.2-1.6-1-1.7-1.3-.3-2.5.5-3.5 1.3v7.5h-2.5c0-5.1.1-10.1 0-15.1zm24.8 5.7c1.3-1.3 3.3-2 5.1-1.5 1.2.3 1.9 1.6 1.9 2.8v8.1h-2.5v-7.3c0-.6-.3-1.3-1-1.5-1.3-.4-2.6.5-3.5 1.3v7.5h-2.5v-10.8h2.5v1.4zm-70.8-1.4h2.6c.9 2.6 1.8 5.2 2.8 7.9.9-2.6 1.8-5.2 2.8-7.9h2.5c-1.6 4-3.1 8.1-4.6 12.1-.4 1.1-1.1 2.2-2.2 2.6-1.3.5-2.7.2-4.1-.1l.6-2c.9.1 1.9.4 2.7 0 .7-.4.8-1.2 1.1-1.8-1.5-3.6-2.8-7.2-4.2-10.8zm22.4 0h2.6c.9 2.6 1.8 5.2 2.8 7.8l2.7-7.8h2.5c-1.6 4.1-3.1 8.2-4.7 12.2-.4 1.1-1.2 2.2-2.4 2.6-1.3.3-2.6.1-3.8-.1.2-.7.4-1.3.5-2 1 .1 2.1.5 3-.1.6-.6 1.1-1.5.6-2.4-1.2-3.5-2.5-6.8-3.8-10.2zm-35.3.4c-1.8-1.2-4.3-.6-5.7.9v-1.3h-2.5v14.8h2.5v-5.2c1.6 1.6 4.3 1.8 6 .3 1.3-1.1 1.7-3 1.7-4.7 0-1.8-.5-3.8-2-4.8zm-1 7.4c-.7 1.3-2.6 1.4-3.8.6-.3-.3-.9-.6-.9-1.1v-4.1c.8-.8 1.9-1.5 3.1-1.3 1 .2 1.7 1.1 1.9 2 .3 1.3.3 2.7-.3 3.9zm36.3-3.4c-.1-1.7-.8-3.5-2.4-4.3-1.8-.9-3.9-.3-5.2 1.2v-5.6h-2.5v15h2.5v-1.1c1.7 1.7 4.7 1.7 6.3 0 1.2-1.4 1.4-3.4 1.3-5.2zm-2.7 2.8c-.3 1-1.2 1.7-2.3 1.7-1.1.1-2-.6-2.7-1.3 0-1.5-.1-2.9 0-4.4.5-.7 1.3-1.1 2.1-1.3 1.1-.3 2.3.5 2.7 1.6.5 1.2.5 2.5.2 3.7zm24.8-4.3c-.4-1.6-1.8-3-3.5-3.1-1.5-.2-2.9.5-3.9 1.6v-1.4h-2.5v14.8h2.5v-5.2c1.8 1.8 5.1 1.8 6.6-.3 1.4-1.9 1.4-4.3.8-6.4zm-2.6 4.8c-.5 1.1-1.8 1.4-2.9 1.2-.8-.2-1.4-.7-1.9-1.2v-4.4c.8-.8 1.9-1.5 3.1-1.3 1 .1 1.8 1 1.9 2 .3 1.2.3 2.5-.2 3.7zm23.8-6.4c-1.3-1.4-3.3-1.8-5.1-1.4-1.3.2-2.5 1-3.1 2.1-.9 1.3-1 3-.8 4.5.2 1.6 1.1 3.1 2.5 3.9 2.1 1.1 4.9.8 6.5-.9 1-1 1.4-2.5 1.4-4s-.3-3.1-1.4-4.2zm-2.2 7.1c-1.3 1-3.6.4-4-1.2-.5-1.7-.5-4.3 1.5-5.1 1-.4 2.2-.2 2.9.6.7.8.8 2 .8 3-.2 1-.4 2.1-1.2 2.7zm23.9-7.2c-1.9-2.2-5.8-1.7-7.5.6-1.2 1.7-1.3 4-.7 5.9.6 2 2.6 3.3 4.7 3.3 1.8.1 3.5-.6 4.8-1.9-.4-.4-.9-.8-1.4-1.3-1.2 1.2-3 1.6-4.5.9-.9-.5-1.2-1.5-1.4-2.4h7.3c0-1.9-.1-3.8-1.3-5.1zm-6 3.1c.2-.5.3-1 .6-1.5.8-1.1 2.5-1.3 3.6-.5.6.5.8 1.3 1 2h-5.2zm-128-.1c.5-.8 1.3-1.2 2.3-1.1 1.2.1 2.8-.4 3.5.8.5 1.1.3 2.4.3 3.5 0 .8-.5 1.5-1.3 1.6-1.2.1-2.4.2-3.6 0-.7-.1-1-.7-1.2-1.3v-3.5zm8.6-1c1.1-.3 2.3-.2 3.4-.1.8 0 1.4.8 1.5 1.5.1 1 .1 2 0 3 0 .8-.7 1.4-1.5 1.4-1 .1-2 .1-3.1 0-.8 0-1.4-.7-1.4-1.4-.1-1.1-.1-2.2 0-3.2.2-.5.6-1 1.1-1.2zm7.5 0c1.1-.3 2.3-.1 3.5-.1.8 0 1.5.8 1.5 1.5.1 1 .1 2 0 3 0 .8-.7 1.4-1.5 1.4-1 .1-2 .1-3 0-.8 0-1.4-.7-1.5-1.4-.1-1-.1-2 0-3.1 0-.5.5-1.1 1-1.3zm29.7-.4c-.1-.9-.5-1.9-1.3-2.4-1.1-.7-2.4-.6-3.6-.5-1.5.2-2.9.9-4.1 1.9l1.2 1.6c1.3-1 3-1.8 4.6-1.3.7.2.8 1 .8 1.7-2 .3-4.1.6-5.8 1.9-1.3 1-1.7 3.1-.7 4.4.9 1.1 2.5 1.1 3.8.9 1-.2 1.9-.7 2.7-1.3.1.4.1.8.2 1.3h2.5c-.5-2.9-.1-5.6-.3-8.2zm-6.1 6c-.9-.3-1.1-1.5-.4-2.1 1.1-1 2.7-1.2 4.2-1.4v2.4c-1.1.9-2.5 1.5-3.8 1.1zm-39.7 2.9c.4-.4.7-.9 1.3-1 1.1-.2 2.2-.1 3.3-.1.7 0 1.3.6 1.4 1.3.2 1.1.1 2.2 0 3.3 0 .8-.7 1.4-1.5 1.4-1.1.1-2.3.1-3.4-.1-.6 0-.9-.7-1.1-1.2v-3.6zm8.6-.9c1-.3 2.1-.1 3.2-.1.8-.1 1.6.5 1.7 1.3.2 1.1.1 2.2 0 3.3 0 .8-.7 1.4-1.5 1.4-1.1.1-2.2.1-3.2 0-.7-.1-1.2-.7-1.2-1.4-.1-1.1-.1-2.2 0-3.3.1-.6.5-1.1 1-1.2zm7.5 0c1-.3 2.2-.1 3.2-.1.8-.1 1.6.5 1.7 1.3.1 1.1.1 2.2 0 3.2 0 .8-.7 1.4-1.5 1.4-1.1.1-2.2.1-3.2 0-.8-.1-1.3-.9-1.3-1.6-.1-1-.1-2.1 0-3.1.2-.5.6-.9 1.1-1.1z"/></svg>