<svg xmlns="http://www.w3.org/2000/svg" width="138" height="60" viewBox="-17.2 380.2 138 60"><path d="M10.7 398.4v13.8c0 4.6-2 6.5-6.8 6.5s-6.8-1.9-6.8-6.5v-14.4h-4.6c-.4 0-.6.2-.6.6v14c0 7.7 4.9 10.4 12 10.4s12-2.7 12-10.4v-14.6h-4.6c-.4 0-.6.2-.6.6zm66.7 3.3c.4 0 .6-.1.7-.4l1.3-3.3c.1-.2 0-.3-.2-.3H60.7c-1.7 0-2.4.5-2.4 1.7v21.4c0 1 .5 1.5 1.8 1.5h17.3c.4 0 .6-.1.7-.4l1.3-3.3c.1-.2 0-.3-.2-.3H63.4V414c0-1.5.8-2.2 3.1-2.2h6.9c.4 0 .6-.1.7-.4l1.3-3.2c.1-.2 0-.3-.2-.3H63.4v-6.2h14zm-32.6 7.7c2-1.1 2.8-3 2.8-5.4 0-5.4-4.4-6.2-9-6.2H28.2c-1.7 0-2.4.5-2.4 1.7v21.4c0 1 .5 1.5 1.8 1.5h12.9c4.9 0 8.3-1.9 8.3-6.8 0-3-1.2-5.5-4-6.2zm-13.9-7.7H39c2.7 0 3.5 1 3.5 3.1s-.8 3.1-3.5 3.1h-8.1v-6.2zm9.1 16.7h-9.1v-4.5c0-1.5.8-2.2 3.1-2.2h6c2.9 0 3.7 1.1 3.7 3.4 0 2.2-.8 3.3-3.7 3.3zm71.6 3.5l-5.5-9.5c2.7-.7 5-2.5 5-7.1 0-6-3.7-7.6-9.8-7.6H90.7c-1.7 0-2.4.5-2.4 1.7v22.3c0 .4.2.6.6.6h4.5v-7.2c0-1.5.8-2.2 3.1-2.2h4.5l5 9c.2.3.3.4.7.4h4.7c.3 0 .3-.3.2-.4zm-9.6-12.8h-8.6v-7.4h8.6c3.2 0 3.9 1.2 3.9 3.7s-.7 3.7-3.9 3.7z" fill="#292925"/></svg>