<svg xmlns="http://www.w3.org/2000/svg" viewBox="0 0 137.2 60" enable-background="new 0 0 137.2 60"><path d="M8.7 43.6c.3.2.9.3 1.4.3.6 0 .9-.2.9-.6 0-.4-.3-.5-.9-.8-.9-.3-1.5-.8-1.5-1.7 0-1 .8-1.7 2.1-1.7.6 0 1.1.1 1.4.3l-.3 1c-.2-.1-.6-.3-1.2-.3s-.8.3-.8.5c0 .4.3.5 1 .8 1 .4 1.5.9 1.5 1.7 0 .9-.7 1.8-2.3 1.8-.6 0-1.3-.2-1.6-.3l.3-1zm7.9.3c0 .4 0 .8.1 1h-1.1l-.1-.4c-.3.3-.7.5-1.2.5-.8 0-1.3-.6-1.3-1.3 0-1.1 1-1.6 2.4-1.6v-.1c0-.2-.1-.5-.7-.5-.4 0-.9.1-1.1.3l-.2-.8c.3-.2.8-.4 1.6-.4 1.4 0 1.8.8 1.8 1.8v1.5zm-1.2-.9c-.7 0-1.2.2-1.2.6 0 .3.2.5.5.5s.6-.2.7-.5v-.6zm3-2.1l.6 1.9c.1.3.2.7.2 1 .1-.3.1-.6.2-1l.5-1.9h1.3l-1.5 4.1h-1.3l-1.5-4.1h1.5zm4.4 2.4c0 .5.6.8 1.2.8.4 0 .8-.1 1.1-.2l.2.9c-.4.2-.9.3-1.5.3-1.4 0-2.2-.8-2.2-2.1 0-1 .6-2.2 2.1-2.2 1.3 0 1.8 1 1.8 2v.5h-2.7zm1.5-.9c0-.3-.1-.8-.7-.8-.5 0-.8.5-.8.8h1.5zm3.6-.2v-1.3h1.1l.1.6c.2-.3.5-.6 1.2-.6.5 0 .9.3 1.1.7.2-.2.3-.4.5-.5.2-.1.5-.2.8-.2.8 0 1.4.6 1.4 1.8v2.4h-1.2v-2.2c0-.6-.2-.9-.6-.9-.3 0-.5.2-.6.4l-.1.3v2.4h-1.2v-2.3c0-.5-.2-.9-.6-.9-.3 0-.5.3-.6.5l-.1.3v2.4h-1.2v-2.9zm11.2.6c0 1.5-1.1 2.2-2.2 2.2-1.2 0-2.1-.8-2.1-2.1s.9-2.2 2.2-2.2c1.2.1 2.1.9 2.1 2.1zm-3 .1c0 .7.3 1.2.8 1.2s.8-.5.8-1.2c0-.6-.2-1.2-.8-1.2-.5 0-.8.6-.8 1.2zm3.8-.7v-1.3h1.1l.1.6c.2-.3.6-.7 1.3-.7.8 0 1.5.6 1.5 1.8v2.4h-1.3v-2.3c0-.5-.2-.9-.6-.9-.4 0-.6.2-.6.5l-.1.3v2.3h-1.3v-2.7zm5.8 1.1c0 .5.6.8 1.2.8.4 0 .8-.1 1.1-.2l.2.9c-.4.2-.9.3-1.5.3-1.4 0-2.2-.8-2.2-2.1 0-1 .6-2.2 2.1-2.2 1.3 0 1.8 1 1.8 2v.5h-2.7zm1.5-.9c0-.3-.1-.8-.7-.8-.5 0-.8.5-.8.8h1.5zm2.8-1.5l.6 2c.1.2.1.5.2.8.1-.2.1-.5.2-.8l.5-2h1.4l-1 2.7c-.6 1.6-1 2.3-1.4 2.7-.4.4-.9.5-1.2.6l-.3-1.2c.2 0 .4-.1.6-.2.2-.1.4-.3.5-.5l.1-.2s0-.1-.1-.2l-1.5-3.7h1.4zm4.1 4.1c-.4 0-.7-.3-.7-.8 0-.4.3-.8.7-.8.4 0 .7.3.7.8.1.5-.2.8-.7.8zm3.6-5.7h1.3v4.6h2.2v1.1h-3.5v-5.7zm5.7.4c0 .4-.3.6-.7.6-.4 0-.7-.3-.7-.6 0-.4.3-.6.7-.6.4 0 .7.3.7.6zm-1.3 5.2v-4.1h1.3v4.1h-1.3zm3.4-4l.5 1.9c.1.3.2.7.2 1 .1-.3.1-.6.2-1l.5-1.9h1.3l-1.5 4.1h-1.3l-1.5-4.1h1.6zm4.3 2.4c0 .5.6.8 1.1.8.4 0 .8-.1 1.1-.2l.2.9c-.4.2-.9.3-1.5.3-1.4 0-2.2-.8-2.2-2.1 0-1 .6-2.2 2.1-2.2 1.3 0 1.8 1 1.8 2v.5h-2.6zm1.5-.9c0-.3-.1-.8-.7-.8-.5 0-.8.5-.8.8h1.5zm3.6-3.4h1.3v2.3c.2-.4.7-.6 1.2-.6 1 0 1.7.8 1.7 2.1 0 1.5-.9 2.2-1.9 2.2-.5 0-.9-.2-1.2-.7l-.1.6h-1.1v-5.9zm1.3 4.2v.2c.1.3.4.6.7.6.5 0 .9-.4.9-1.1 0-.6-.3-1.1-.9-1.1-.3 0-.7.3-.7.6v.8zm4.7.1c0 .5.6.8 1.1.8.4 0 .8-.1 1.1-.2l.2.9c-.4.2-.9.3-1.5.3-1.4 0-2.2-.8-2.2-2.1 0-1 .6-2.2 2.1-2.2 1.3 0 1.8 1 1.8 2v.5h-2.6zm1.5-.9c0-.3-.1-.8-.7-.8-.5 0-.8.5-.8.8h1.5zm3.5-2.7v1.1h.9v.9h-.9v1.5c0 .5.1.7.5.7h.4v1c-.2.1-.5.1-.9.1s-.7-.1-.9-.4c-.2-.2-.4-.6-.4-1.2v-1.7h-.5v-.9h.5v-.8l1.3-.3zm3.2 0v1.1h.9v.9h-.9v1.5c0 .5.1.7.5.7h.4v1c-.2.1-.5.1-.8.1-.4 0-.8-.1-1-.4-.2-.2-.4-.6-.4-1.2v-1.7h-.5v-.9h.5v-.8l1.3-.3zm2.8 3.6c0 .5.6.8 1.2.8.4 0 .8-.1 1.1-.2l.2.9c-.4.2-.9.3-1.5.3-1.4 0-2.2-.8-2.2-2.1 0-1 .6-2.2 2.1-2.2 1.3 0 1.8 1 1.8 2v.5h-2.7zm1.5-.9c0-.3-.1-.8-.7-.8-.5 0-.8.5-.8.8h1.5zm2.1-.2v-1.3h1.1v.8c.2-.6.7-.8 1.1-.8h.3v1.1h-.3c-.5 0-.8.3-.9.6v2.4h-1.3v-2.8zm3.8 2.8c-.4 0-.7-.3-.7-.8 0-.4.3-.8.7-.8.4 0 .7.3.7.8.1.5-.2.8-.7.8zm17.9-23.4c.7 0 1.3-.4 1.4-.8l.7-7.9c0-.8-.9-1.4-2.1-1.4-1.1 0-2.1.6-2.1 1.4l.7 7.9c.1.5.7.8 1.4.8zm-4.2 2.5c.4-.6.3-1.3 0-1.6l-6.5-4.5c-.7-.4-1.7.1-2.2 1.1-.6 1-.5 2.1.2 2.5l7.1 3.3c.4.1 1-.2 1.4-.8zm8.5 0c.4.6 1 .9 1.4.8l7.2-3.3c.7-.4.8-1.5.2-2.5-.6-1-1.6-1.5-2.3-1.1l-6.5 4.5c-.4.3-.4 1 0 1.6zm-4.3 7.3c.7 0 1.3.4 1.4.8l.7 7.9c0 .8-.9 1.4-2.1 1.4-1.1 0-2.1-.6-2.1-1.4l.7-7.9c.1-.4.7-.8 1.4-.8zm4.3-2.4c.4-.6 1-.9 1.4-.8l7.2 3.3c.7.4.8 1.5.2 2.5-.6 1-1.6 1.5-2.3 1.1l-6.5-4.5c-.4-.3-.4-1 0-1.6zm-8.5 0c.4.6.3 1.3 0 1.6l-6.5 4.5c-.7.4-1.7-.1-2.2-1.1-.6-1-.5-2.1.2-2.5l7.1-3.3c.4-.1 1 .2 1.4.8zm-33-1.6c0-3-1.3-5.6-5.5-5.6-2.2 0-3.9.6-4.9 1.2l.7 2.4c.9-.5 2.3-1 3.6-1 2.2 0 2.5 1.2 2.5 2v.2c-4.7 0-7.7 1.6-7.7 5 0 2 1.5 4 4.2 4 1.6 0 3-.7 3.8-1.7h.1s.5 2.3 3.5 1.4c-.2-.9-.2-1.9-.2-3.2v-4.7zm-3.5 3.2c0 .2 0 .5-.1.7-.3.9-1.2 1.7-2.4 1.7-1 0-1.8-.6-1.8-1.7 0-1.8 2-2.3 4.2-2.3v1.6zm-70.3-12.8s3.1 12.7 3.6 14.7c.6 2.4 1.6 3.3 4.6 2.7l1.9-7.9c.5-2 .8-3.3 1.1-5.3h.1c.2 2 .5 3.4.9 5.3l1.2 5.4c.4 1.9 1.5 3.1 4.5 2.4l4.6-17.4h-3.7l-1.6 7.5c-.4 2.2-.8 3.9-1.1 5.9h-.1c-.3-2-.6-3.6-1-5.8l-1.6-7.7h-3.9l-1.7 7.7c-.5 2.3-1 4.1-1.3 6h-.1c-.3-1.8-.7-4.1-1.1-6.3 0 0-1-5.4-1.4-7.2h-3.9zm33.1 9.6c0-3-1.3-5.6-5.5-5.6-2.2 0-3.9.6-4.9 1.2l.7 2.4c.9-.5 2.3-1 3.6-1 2.2 0 2.5 1.2 2.5 2v.2c-4.7 0-7.7 1.6-7.7 5 0 2 1.5 4 4.2 4 1.6 0 3-.7 3.8-1.7 0 0 .5 2.3 3.5 1.4-.2-.9-.2-1.9-.2-3.2v-4.7zm-3.5 3.2c0 .2 0 .5-.1.7-.3.9-1.2 1.7-2.4 1.7-1 0-1.8-.6-1.8-1.7 0-1.8 2-2.3 4.2-2.3v1.6zm9.4.9v-13.7h-3.5v17.4h3.5zm46.3-13.7v12.9c0 1.8.3 3 1 3.8.6.7 1.7 1.1 2.9 1.1 1 0 2.1-.2 2.6-.4v-2.8c-.4.1-.8.2-1.3.2-1.2 0-1.6-.8-1.6-2.4v-4.9h3.1v-3.3h-3.2v-4.1h-3.5zm-9.1 4.3v13.1h3.6v-6.7c0-.4 0-.7.1-1 .3-1.4 1.3-2.3 2.9-2.3.4 0 .7 0 1.1.1v-3.4c-.3-.1-.5-.1-.8-.1-1.4 0-2.9.9-3.6 2.8h-.1v-2.5h-3.2zm-34.7 0v13.1h3.6v-7.7c0-.4 0-.7.2-1.1.3-.8 1-1.7 2.2-1.7 1.4 0 2.1 1.2 2.1 3v7.5h3.6v-7.8c0-.3 0-.8.1-1.1.3-.9 1.1-1.6 2.1-1.6 1.5 0 2.2 1.2 2.2 3.3v7.2h3.6v-7.7c0-4.1-2.1-5.7-4.4-5.7-1 0-1.8.3-2.6.7-.6.4-1.2.9-1.7 1.6h-.1c-.6-1.4-1.9-2.3-3.6-2.3-2.2 0-3.2 1.1-3.8 2.1h-.1v-1.8h-3.4zm83.8 12.3c.3 0 .6.3.6.6s-.3.6-.6.6-.6-.3-.6-.6.3-.6.6-.6zm0 .2c-.3 0-.5.2-.5.5s.2.5.5.5.5-.2.5-.5-.2-.5-.5-.5zm-.1.8h-.1v-.6h.4l.1.1c0 .1-.1.1-.1.1.1 0 .1.1.1.1v.1h-.2v-.1c0-.1 0-.1-.1-.1h-.1v.4zm0-.4c.1 0 .2 0 .2-.1s0-.1-.1-.1h-.1v.2z" fill="#2D2C2A"/></svg>