<svg id="Layer_1" xmlns="http://www.w3.org/2000/svg" width="137.2" height="60" viewBox="0 0 137.2 60"><style>.st0{fill:#2d2c2a}</style><path class="st0" d="M91 39.4c1.8 0 3.5-.6 4.8-1.9l2.4 2.6C96.6 41.8 94.4 43 91 43c-5.9 0-9.6-3.9-9.6-9.1 0-5.2 4-9.1 9.1-9.1 5.8 0 9.1 4.4 8.8 10.6H85.6c.5 2.4 2.3 4 5.4 4m4.2-7.1c-.4-2.4-1.8-4.1-4.6-4.1-2.6 0-4.5 1.5-5 4.1h9.6zM.8 39.3l10.5-10.8H1v-3.4h15.2v3.5L5.7 39.3h10.7v3.4H.8zM28.3 39.4c1.8 0 3.5-.6 4.8-1.9l2.4 2.6c-1.6 1.6-3.8 2.8-7.2 2.8-5.9 0-9.6-3.9-9.6-9.1 0-5.2 4-9.1 9.1-9.1 5.8 0 9.1 4.4 8.8 10.6H22.9c.4 2.5 2.2 4.1 5.4 4.1m4.1-7.1c-.4-2.4-1.8-4.1-4.6-4.1-2.6 0-4.5 1.5-5 4.1h9.6zM59.4 33.9c0-5.6 4.2-9.1 8.8-9.1 2.3 0 4.5 1 5.9 2.6V17h3.7v25.6h-3.7v-2.4c-1.3 1.7-3.6 2.8-5.9 2.8-4.5 0-8.8-3.6-8.8-9.1m14.9-.1c0-3.1-2.4-5.7-5.6-5.7-3.1 0-5.6 2.5-5.6 5.7s2.4 5.7 5.6 5.7c3.2.1 5.6-2.5 5.6-5.7M101.7 38.9l3.4-1.8c.9 1.6 2.6 2.6 4.5 2.6 2.1 0 3.2-1.1 3.2-2.3 0-1.4-2-1.7-4.3-2.2-3-.6-6.1-1.6-6.1-5.2 0-2.8 2.6-5.3 6.8-5.3 3.3 0 5.7 1.3 7.1 3.4l-3.1 1.7c-.8-1.2-2.2-2-3.9-2-2 0-3 1-3 2.1 0 1.3 1.6 1.6 4.2 2.2 2.9.6 6.2 1.6 6.2 5.2 0 2.4-2.1 5.7-7.1 5.6-3.8.1-6.4-1.4-7.9-4M126.7 34.8l-2.9 3.3v4.5H120V17h3.8v16.8l7.9-8.7h4.6l-6.9 7.5 7 10h-4.2zM48.1 24.7c-4.4 0-8.2 2.9-8.2 7.7v10.3h3.8v-9.8c0-2.9 1.7-4.6 4.5-4.6s4.2 1.7 4.2 4.6v9.8h3.8V32.4c.1-4.8-3.6-7.7-8.1-7.7"/></svg>