<svg xmlns="http://www.w3.org/2000/svg" viewBox="0 0 76 76" enable-background="new 0 0 76 76"><g fill="#2D2C2A"><path d="M38 1C17.6 1 1 17.6 1 38s16.6 37 37 37 37-16.6 37-37S58.4 1 38 1zm0 72.4C18.5 73.4 2.6 57.5 2.6 38S18.5 2.6 38 2.6 73.4 18.5 73.4 38 57.5 73.4 38 73.4zM24.1 26.5h9v.8h-9zM24.1 34.1h9v.8h-9zM24.1 42.1h9v.8h-9zM42.3 26.5h9v.8h-9zM42.3 34.1h9v.8h-9zM42.3 42.1h9v.8h-9zM61.1 22.8h-4.5v-4.9h-12c-2.7 0-5.6 1.7-6.6 4.6-1-2.9-3.8-4.6-6.6-4.6H19.5v5H15c-.2 0-.4.2-.4.4v32.9c0 .2.2.4.4.4h12.4c4.1 0 7 2.5 7 6.2 0 .2.2.4.4.4h6.6c.2 0 .4-.2.4-.4 0-3.6 2.9-6.2 7-6.2h12.4c.2 0 .4-.2.4-.4v-33c-.1-.2-.3-.4-.5-.4zm-22.7 2.1c0-3.9 3.1-6.2 6.2-6.2h11.1v32.2H44.6c-2.6 0-5 1.8-6.2 4.3V24.9zm-18.1-6.2h11.1c3 0 6.2 2.3 6.2 6.2v30.3c-1.3-2.6-3.9-4.3-7-4.3H20.3V18.7zm40.4 37.1h-12c-4.5 0-7.6 2.7-7.8 6.6h-5.8c-.2-3.9-3.4-6.6-7.8-6.6h-12V23.7h4.1v27.9h11.1c3.9 0 7 3.1 7 7h.8c0-4.1 3.3-7 6.2-7h11.9v-28h4.1v32.2z"/></g></svg>