<svg xmlns="http://www.w3.org/2000/svg" viewBox="0 0 84 83" enable-background="new 0 0 84 83"><g fill="#2D2C2A"><path d="M82.9 1c-.5.1-11.7 1.5-14.8 4.6L59 14.8C52.9 10.5 45.5 8 37.6 8 17.2 8 .6 24.6.6 45s16.6 37 37 37 37-16.6 37-37c0-7-2-13.6-5.4-19.2l9.5-9.5c3.1-3.1 4.5-14.3 4.6-14.8l.1-.5h-.5zM37.6 9.6c7.5 0 14.5 2.4 20.2 6.4l-7.5 7.5c-2.2 0-10.5.5-13.5 1.5-2.1.7-4.8 2.9-6.1 4.2-3.9 3.9-9.6 10.1-9.7 10.1l-.6.7 14.2-.8-.4.4 5.3 5.3-.7.4c-.1.1-13.5 7.1-27.7 8.9-1.6-4.4-4.8-7.8-8.9-9.6.3-19.4 16.1-35 35.4-35zm8.5 39.3l14-14c-.1 2.9-.7 9.7-1.5 12.3-.6 1.7-2.5 4.4-3.9 5.8-3.1 3.1-7.6 7.3-9.4 9l.8-13.1zm-1.2.1l-9.5-9.5 3.9-3.9 9.5 9.5c-1.9 2-3.3 3.4-3.9 3.9zm-9.4-10.7l-13.1.8c1.6-1.8 5.9-6.3 9-9.4 1.3-1.3 3.9-3.4 5.8-4 2.5-.8 9.3-1.3 12.4-1.4l-14.1 14zM73 45c0 19.5-15.9 35.4-35.4 35.4-19.4 0-35.2-15.7-35.4-35.1 3.8 1.8 6.8 5.1 8.2 9.3l.1.3h.3C23 53.4 34.5 48.2 38 46.4c-1.2 2.5-4.1 8.8-6.3 16.5l-.1.5h.5c5.8.3 10.4 5.1 10.4 10.9 0 2.1-.6 4.1-1.7 5.8.3 0 .7-.1 1-.1 1-1.7 1.5-3.6 1.5-5.7 0-6.1-4.7-11.2-10.7-11.7 2.7-9.6 6.6-16.9 6.6-17l.4-.7 5.2 5.2.3-.3.1-.1-.8 14.3.7-.7c.1-.1 6.2-5.8 10.1-9.7 1.5-1.5 3.5-4.2 4.1-6.2 1-3 1.6-11.1 1.6-13.4l7.1-7.1c3.2 5.4 5 11.5 5 18.1zm5.2-29.3L49.4 44.5 39.9 35 68.7 6.2c2.5-2.5 11.5-4 13.8-4.3-.4 2.3-1.8 11.3-4.3 13.8zM73.692 10.778L50.786 34.116l-.57-.56L73.12 10.218z"/></g></svg>