<svg xmlns="http://www.w3.org/2000/svg" viewBox="0 0 75 75" enable-background="new 0 0 75 75"><g fill="#2D2C2A"><path d="M37.5.5C17.1.5.5 17.1.5 37.5s16.6 37 37 37 37-16.6 37-37-16.6-37-37-37zm0 72.4C18 72.9 2.1 57 2.1 37.5S18 2.1 37.5 2.1 72.9 18 72.9 37.5 57 72.9 37.5 72.9zM24.1 34.4c-1.4 0-2.6 1.2-2.6 2.6 0 1.4 1.2 2.6 2.6 2.6 1.4 0 2.6-1.2 2.6-2.6 0-1.5-1.2-2.6-2.6-2.6zM24.1 31.1c-3.2 0-5.8 2.6-5.8 5.8 0 3.2 2.6 5.8 5.8 5.8 3.2 0 5.8-2.6 5.8-5.8 0-3.2-2.6-5.8-5.8-5.8zm0 11.1c-2.9 0-5.2-2.3-5.2-5.2 0-2.9 2.3-5.2 5.2-5.2 2.9 0 5.2 2.3 5.2 5.2 0 2.8-2.4 5.2-5.2 5.2zM34.6 48.2c-.1.1-.1.2 0 .3l3.2 8c0 .1.2.2.3.2.1 0 .2-.1.3-.2l3.2-8v-.3c-.1-.1-.1-.1-.2-.1-2.8-.1-2.9-3.2-2.9-3.4 0-.2-.1-.3-.3-.3s-.3.1-.3.3c0 .1 0 3.2-2.9 3.4-.2-.1-.3 0-.4.1zm3.5-1.9c.4 1 1.2 2.1 2.7 2.3l-2.7 6.9-2.7-6.9c1.5-.2 2.3-1.3 2.7-2.3zM64.5 20.3l-2.4-2.4c-.8-.8-2.3-.6-3.4.4L43.1 34l-1.8 7.2v.1c1.7 5.4 6.5 10.5 14.2 15.3-4.4 5.1-10.8 7.9-17.5 7.9-7 0-13.2-3.1-17.5-7.9 9.4-5.8 14.4-12.1 14.9-18.8.6-7-4-13.1-8.5-17.4-.6-.5-1.1-1-1.6-1.5-4-3.5-7.8-5.5-7.8-5.6l-.4.1c-4.8 8.5-9.5 21-4.9 32.8 2.4 6 6.2 9.3 7.4 10.2 4.4 5.3 11 8.7 18.4 8.7 7 0 13.7-3.1 18.2-8.5.1-.1.1-.3 0-.4-.1-.1-.2-.1-.2-.1-7.7-4.7-12.4-9.8-14.1-15l6.6-1.6 15.7-15.7c.5-.5.8-1 .9-1.6.1-.8-.1-1.4-.6-1.9zM12.8 45.8c-4.5-11.4 0-23.6 4.7-31.9.9.5 4.1 2.5 7.4 5.3.4.4.9.8 1.3 1.2-7.5 4.2-12.1 12.2-12.1 20.7 0 4.6 1.3 8.9 3.6 12.6-1.5-1.6-3.5-4.3-4.9-7.9zm7.3 10.1c-3.3-4-5.2-9.1-5.2-14.7 0-8.4 4.6-16.2 11.9-20.3 4.4 4.2 8.7 10.1 8.1 16.8-.5 6.5-5.5 12.6-14.7 18.4 0-.1-.1-.2-.1-.2zM42.4 40l1.3-5 3.8 3.8-5.1 1.2zm5.9-1.6L44 34.2l13.4-13.4 4.2 4.2-13.3 13.4zm13.9-14L58 20.2l.6-.6 4.2 4.2-.6.6zm2-2.5c-.1.4-.3.8-.7 1.2l-.1.1-4.2-4.2.1-.1c.7-.7 1.7-.9 2.2-.4l2.4 2.4c.3.3.4.6.3 1z"/></g></svg>