<svg xmlns="http://www.w3.org/2000/svg" viewBox="0 0 76 76" enable-background="new 0 0 76 76"><g fill="#2D2C2A"><path d="M38 1C17.6 1 1 17.6 1 38s16.6 37 37 37 37-16.6 37-37S58.4 1 38 1zm0 72.4C18.5 73.4 2.6 57.5 2.6 38S18.5 2.6 38 2.6 73.4 18.5 73.4 38 57.5 73.4 38 73.4zM60.4 20.2c-2.2 0-4 1.8-4 4 0 2 1.5 3.7 3.5 3.9-.4 2.2-2.6 10.9-10.3 10.9-7.7 0-10.6-12.8-11.1-15.3 2.5-.2 4.4-2.3 4.4-4.9 0-2.7-2.2-4.9-4.9-4.9s-4.9 2.2-4.9 4.9c0 2.5 1.9 4.6 4.4 4.9C37.2 26.2 35 39 27.3 39c-7.6 0-10.5-8.8-11.1-10.9 2-.3 3.5-1.9 3.5-3.9 0-2.2-1.8-4-4-4s-4 1.8-4 4c0 2.1 1.6 3.8 3.6 3.9l4.5 26h36.5l4.5-26c2-.2 3.6-1.9 3.6-3.9 0-2.2-1.8-4-4-4zm-47.9 4c0-1.8 1.4-3.2 3.2-3.2 1.8 0 3.2 1.4 3.2 3.2 0 1.8-1.4 3.2-3.2 3.2-1.8 0-3.2-1.4-3.2-3.2zm21.4-5.4c0-2.2 1.8-4.1 4.1-4.1 2.2 0 4.1 1.8 4.1 4.1s-1.8 4.1-4.1 4.1c-2.2 0-4.1-1.8-4.1-4.1zm21.7 34.5H20.4L16.8 32c1.7 3.4 4.9 7.8 10.5 7.8 3.9 0 7-2.9 9.1-8.3.9-2.2 1.4-4.4 1.7-6 .4 1.6 1 3.8 2 6 2.4 5.4 5.7 8.3 9.6 8.3 5 0 7.8-3.4 9.4-6.5l-3.5 20zm4.8-25.9c-1.8 0-3.2-1.4-3.2-3.2 0-1.8 1.4-3.2 3.2-3.2s3.2 1.4 3.2 3.2c-.1 1.8-1.5 3.2-3.2 3.2zM20.1 59.7h35.8v.8H20.1z"/></g></svg>