<svg xmlns="http://www.w3.org/2000/svg" viewBox="0 0 80 76" enable-background="new 0 0 80 76"><g fill="#2D2C2A"><path d="M23.8 34.8h5.6v.8h-5.6zM47.6 55.8h17.2v.8H47.6zM44.8 41.8h5.6v.8h-5.6zM63 41.8h5.6v.8H63zM78.7 26.2H73C68 11.6 54.2 1 37.9 1 17.5 1 .9 17.6.9 38s16.6 37 37 37c5.7 0 11.1-1.3 15.9-3.6.9.3 1.8.5 2.4.5 5.6 0 22.9-12.3 22.9-27.2v-18c0-.3-.1-.5-.4-.5zM37.9 73.4C18.4 73.4 2.5 57.5 2.5 38S18.4 2.6 37.9 2.6c15.4 0 28.5 9.9 33.4 23.6H58.2v-7H12.3v18.5c0 15 17.3 27.2 22.9 27.2 1.4 0 3.7-.8 6.2-2.3 3.4 3.6 7.2 6.4 10.4 7.9-4.3 1.9-9 2.9-13.9 2.9zm-3.5-22c-3.6 0-6.9-.6-9.3-4.7l-.7.4c2.5 4.3 6 5.1 9.7 5.1h.6c1.4 3.6 3.6 7 6.2 9.8-2.3 1.3-4.3 2-5.7 2-5.4 0-22.1-11.9-22.1-26.4V20h44.3v6.2H33.7c-.2 0-.4.2-.4.4v18c0 2.4.4 4.7 1.1 6.8zm43.9-6.7c0 14.5-16.7 26.4-22.1 26.4-.4 0-.9-.1-1.4-.2-.6-.2-1.4-.4-2.1-.8-7-3.1-18.6-13.4-18.6-25.5V27h44.2v17.7z"/></g></svg>