<svg xmlns="http://www.w3.org/2000/svg" viewBox="0 0 75 75" enable-background="new 0 0 75 75"><path fill="#2D2C2A" d="M37.5.5C17.1.5.5 17.1.5 37.5s16.6 37 37 37 37-16.6 37-37-16.6-37-37-37zm0 1.6C57 2.1 72.9 18 72.9 37.5c0 1.3-.1 2.7-.2 4l-5-6h-8.1L37.1 10.9 22.7 26.6H17L11.3 38l-8.8 4.1h-.1c-.2-1.5-.3-3.1-.3-4.7C2.1 18 18 2.1 37.5 2.1zm14.2 60.5L49 61.1 29.7 50.5l-9.9 9-10.2-.2C6 54.7 3.5 49.1 2.5 43.1l.3-.2 9-4.2 5.6-11.2H23l12.6-13.8-6.2 13.4.7.3 7-15.2 21.3 23.3-8.8 6.7.5.6 9-6.6h8.1l5.2 6.3c-1.1 7.7-4.7 14.7-10 19.9l-10.7.2zm-41.4-2.5h1.6l8.1.1h.2l9.7-8.8L47.3 61l4.2 2.3.1.1 10.2-.1c-6.3 5.9-14.8 9.6-24.2 9.6-11 0-20.8-5-27.3-12.8z"/></svg>