<svg xmlns="http://www.w3.org/2000/svg" viewBox="0 0 76 76" enable-background="new 0 0 76 76"><g fill="#2D2C2A"><path d="M68.7 18.1v-.6c0-9.4-8-17.4-17.4-17.4-2.8 0-5.5.7-7.9 2-1.8-.3-3.6-.4-5.4-.4-20.4 0-37 16.6-37 37s16.6 37 37 37 37-16.6 37-37c0-7.6-2.3-14.7-6.3-20.6zm-.8-.5c0 14-14.5 25.7-16.6 27.3-2.1-1.6-16.6-13.2-16.6-27.3 0-9 7.6-16.6 16.6-16.6s16.6 7.6 16.6 16.6zM38 3.4c1.1 0 2.2.1 3.2.2-4.4 3.2-7.3 8.3-7.3 14 0 10.3 7.5 19.3 12.6 24.2l-18.3 5c-.2-1.2-1.3-2.2-2.6-2.2-1.1 0-2.1.7-2.5 1.7L2.6 38v.7C2.6 19.3 18.5 3.4 38 3.4zM27.5 47.3c0 1-.8 1.9-1.9 1.9-1 0-1.9-.8-1.9-1.9 0-1 .8-1.9 1.9-1.9 1.1 0 1.9.8 1.9 1.9zM38 74.2c-19.5 0-35.3-15.8-35.4-35.3L23 47v.2c0 1.5 1.2 2.7 2.7 2.7 1.4 0 2.5-1 2.6-2.3l19-5.2c2.2 2.1 3.8 3.2 3.8 3.3.1.1.2.1.2.1.1 0 .2 0 .2-.1 0 0 1.5-1.1 3.6-3l16.6 6.6c.1-.3.1-.5.2-.8L55.8 42c4.5-4.3 11.3-12.1 12.6-21.2 3.1 5.3 4.9 11.4 4.9 18 .1 19.5-15.8 35.4-35.3 35.4zM51.3 28c5.8 0 10.4-4.7 10.4-10.4S57.1 7.1 51.3 7.1s-10.4 4.7-10.4 10.4S45.6 28 51.3 28zm0-20.1c5.3 0 9.6 4.3 9.6 9.6s-4.3 9.6-9.6 9.6-9.6-4.3-9.6-9.6c0-5.2 4.3-9.6 9.6-9.6zM48.5 15.3c.2 0 .4-.2.4-.4 0-1.6 1.3-2.8 2.8-2.8s2.8 1.3 2.8 2.8c0 1.6-1.3 2.8-2.8 2.8-.2 0-.4.2-.4.4v1.7c0 .2.2.4.4.4s.4-.2.4-.4v-1.3c1.8-.2 3.3-1.8 3.3-3.6 0-2-1.6-3.7-3.7-3.7-2 0-3.7 1.6-3.7 3.7 0 .3.2.4.5.4z"/><circle cx="51.7" cy="22.7" r=".7"/></g></svg>