<svg xmlns="http://www.w3.org/2000/svg" viewBox="0 0 76 79" enable-background="new 0 0 76 79"><g fill="#2D2C2A"><path d="M75 41.5C75 25.8 65.2 12.3 51.3 7v-.4c0-3.3-2.7-6.1-6.1-6.1-2.6 0-4.9 1.7-5.7 4h-1.6c-8.2 0-15.8 2.7-21.9 7.2-2.3-1.1-4.2-1.7-5.7-1.7-1 0-1.7.3-2.3.8-.1.1-.2.2-.3.4-.9 1.4-.4 3.9 1.2 7.2C4 24.7 1 32.8 1 41.5c0 20.4 16.6 37 37 37 9.3 0 17.8-3.5 24.3-9.1 2 .9 3.7 1.4 5 1.4.9 0 1.7-.3 2.2-.8 1.3-1.3.8-4-1-7.6 4.1-5.9 6.5-13.1 6.5-20.9zM45.3 1.3c2.9 0 5.2 2.4 5.2 5.2s-2.4 5.2-5.2 5.2c-2.9 0-5.2-2.4-5.2-5.2s2.3-5.2 5.2-5.2zM38 6.1h1.2v.4c0 3.3 2.7 6.1 6.1 6.1 2.6 0 4.9-1.7 5.7-4 13.1 5.2 22.4 18 22.4 32.9 0 7.1-2.1 13.8-5.8 19.3-.5-.8-1-1.7-1.6-2.6 1.1-.7 1.8-1.9 1.8-3.2 0-2.1-1.7-3.8-3.8-3.8-.9 0-1.8.3-2.4.9-.7-.9-1.3-1.7-2.1-2.6 1-2.6 1.6-5.5 1.6-8.4C61.1 28.4 50.7 18 37.9 18h-1c-2.9.1-5.7.7-8.2 1.8-4.1-3.1-7.9-5.6-11-7.2C23.5 8.5 30.5 6.1 38 6.1zm-9.3 14.6c5 3.8 10.4 8.4 15.8 13.7 5.6 5.4 10.4 10.6 14.2 15.3-3.4 8.2-11.4 13.9-20.8 13.9-12.3 0-22.3-10.3-22.3-22.9 0-9.1 5.2-16.6 13.1-20zm-11.1 9c-3.2-4-5.6-7.5-7.1-10.4 1.9-2.4 4.1-4.5 6.5-6.3 3.1 1.6 6.8 4 10.9 7.1-4.4 2-8 5.4-10.3 9.6zm11.9-9.4c2.3-.9 4.8-1.4 7.5-1.5h1c12.3 0 22.4 10 22.4 22.3 0 2.7-.5 5.3-1.4 7.7-4.1-4.9-8.9-10.1-14-15-5.3-5.2-10.6-9.8-15.5-13.5zm29.8 30c.6.8 1.3 1.6 1.8 2.3-.5.7-.8 1.5-.8 2.4 0 2.1 1.7 3.8 3.8 3.8.4 0 .8-.1 1.2-.2.7 1.1 1.3 2.1 1.8 3-1.7 2.4-3.6 4.6-5.8 6.5-3.2-1.6-7-4-11.3-7.2 4.1-2.5 7.4-6.2 9.3-10.6zm4.8 7.7c-1.7 0-3-1.3-3-3s1.3-3 3-3 3 1.3 3 3c0 1.6-1.4 3-3 3zM8.6 11.6c.1-.1.1-.2.2-.2.4-.4.9-.6 1.7-.6 1.2 0 2.9.5 4.9 1.4-2.1 1.6-4 3.5-5.7 5.5-1.4-2.9-1.8-5-1.1-6.1zM38 76.9C18.5 76.9 2.6 61 2.6 41.5c0-8.1 2.7-15.6 7.3-21.5 1.7 3 4.1 6.6 7.2 10.5-1.5 3-2.4 6.5-2.4 10.2 0 13.1 10.4 23.7 23.1 23.7 4.1 0 8-1.1 11.4-3 4.3 3.2 8.1 5.7 11.4 7.3-6 5.1-14 8.2-22.6 8.2zm30.9-7.5c-.3.4-.9.6-1.6.6-1.1 0-2.6-.4-4.4-1.2 1.8-1.7 3.5-3.6 5-5.6 1.5 3.1 1.9 5.3 1 6.2zM19.4 59.7c-1.4 0-2.5 1.1-2.5 2.5s1.1 2.5 2.5 2.5 2.5-1.1 2.5-2.5-1.1-2.5-2.5-2.5zm0 4.3c-.9 0-1.7-.8-1.7-1.7 0-.9.8-1.7 1.7-1.7s1.7.8 1.7 1.7c0 .9-.8 1.7-1.7 1.7z"/></g></svg>