<svg width="420" height="338" viewBox="0 0 420 338" xmlns="http://www.w3.org/2000/svg"><g fill="none" fill-rule="evenodd"><rect stroke="#EFF1F5" stroke-width="2" fill="#FFF" x="1" y="1" width="418" height="336" rx="4"/><path fill="#1A171B" d="M62 40H22V0h40"/><path d="M22.93 31.4l.14.22c1-.66 2-1.73 2-3.32 0-1.26-.88-2.35-2.63-2.35h-.42v.3h.43c1.57 0 2.33.94 2.33 2.1 0 1.4-.9 2.38-1.85 3.04M50.2 18.07c0 .26.22.5.58.5.5 0 .87-.4.87-.8 0-.23-.17-.5-.57-.5-.5 0-.87.4-.87.8M30.6 29.25h-3.02l.28-.38c2.06-2.97 4.35-4.7 7.88-5.72v.02c0 .03 0 .07.02.1-1.97 1.06-4.24 3.17-5.17 5.98m11.15-1.4c.3 0 .47.18.47.43 0 .8-1.23 1.7-2.8 1.7.75-1.22 1.72-2.12 2.33-2.12m15.44 0c.35 0 .47.2.47.4 0 .8-1.2 1.72-2.8 1.72.65-1.07 1.66-2.12 2.32-2.12m-11-14.27c-.52-.15-1.1-.23-1.74-.24.12-.16.25-.33.4-.5l1.55-2.03c.05.3.12.68.12 1.22 0 .55-.14 1.06-.3 1.54m-3.5 1.15c-.22 0-.36-.13-.36-.4 0-.14.02-.3.04-.43.45-.14.94-.23 1.48-.26-.54.7-.88 1.1-1.17 1.1m-1.73-2.4c.45-.87 1.2-2 2.04-2 .3 0 .45.2.45.44 0 .88-1 1.44-2.48 1.55m-6.16 2.63c-.4 0-.63-.28-.63-.68 0-1.35 1.78-4.25 2.96-4.25.42 0 .58.34.58.67 0 1.3-1.85 4.26-2.9 4.26m18.06-.42c.67 0 1 .23 1 .5 0 .55-.56.9-1.5.9-.8 0-1.43-.23-1.95-.45.83-.63 1.64-.94 2.46-.94m7.66 9.54c-.26 0-.46-.14-.46-.38 0-.37.25-.8.64-1.55.5-1 .82-1.54.82-2.06s-.4-1-1.15-1c-.73 0-1.13.45-1.3.6l-.02-.03 2-3.95h-1.1s-2.23 4.4-3.16 6.2c-.56 1.1-1.43 2.1-2.1 2.1-.25 0-.4-.15-.4-.34 0-.18.1-.4.25-.7l1.7-3.36h.85l.14-.26h-.85l.65-1.3h-1.1l-.66 1.3h-1.62l.72-1.43c.73-1.4 1.52-2.15 2.08-2.15.28 0 .37.14.37.3 0 .14-.14.24-.14.48 0 .27.2.43.5.43.36 0 .6-.3.6-.64 0-.42-.46-.83-1.34-.83-1.73 0-2.87 1.8-3.47 2.97l-.45.86h-.86l-.15.26h.87s-.6 1.2-.95 1.94c-.63 1.3-1.7 2.5-2.3 2.5-.26 0-.36-.16-.36-.33 0-.18.1-.46.25-.74l1.84-3.64H47.8c1-2 1.68-3 2.33-3.6.23.08 1.06.5 2.12.5 1.26 0 1.87-.54 1.87-1.18 0-.48-.5-.84-1.5-.84-1.36 0-2.54.73-2.9.95-.88-.47-1.7-.94-2.57-1.3.06-.2.1-.4.1-.6 0-1.16-.46-1.57-.6-2.73.33-.2.7-.36.7-.72 0-.16-.1-.28-.3-.28-.32 0-.7.36-.7.86L44.6 12.7l-.5.66c-.6.02-1.17.1-1.67.24v-.03c0-.77-.5-.98-1-1l.03-.02c1.27-.13 2.84-.8 2.84-2 0-.47-.28-.82-.8-.82-.72 0-1.33.55-1.66.96l-.03-.03 2.12-4.17h-1.08l-3.16 6.2c-.52 1.04-1.4 2.14-1.97 2.14-.33 0-.42-.2-.42-.4 0-.33.26-.77.38-1l1.8-3.53H38.4l-.4.75h-.05c.04-.22 0-.93-1.06-.93-1.63 0-3.7 2.4-3.7 4.33 0 .85.5 1.32 1.23 1.32 1.02 0 1.66-.82 1.9-1.2l.04.03c-.08.14-.1.3-.1.46 0 .4.3.7.85.7 1.03 0 1.73-.94 2-1.3l.03.03-.52 1.08h.9s1.1-2.13 1.3-2.55c.4 0 .72.25.72.64 0 .3-.05.45-.1.7-1.46.75-2.16 2.07-2.16 3.33 0 1.78 1.28 2.65 2.58 2.65 2.47 0 3.42-2.22 3.6-2.55l-.25-.1c-.2.38-1.1 2.35-3.36 2.35-1.46 0-2.28-1.04-2.28-2.34 0-1.18.63-2.3 1.83-2.97v.17c0 .54.24.87.78.87.65 0 1.15-.56 2.04-1.72h.1c.64 0 1.22.08 1.76.22l-.1.3c-.26.6-.52.96-.94.96-.27 0-.4-.14-.4-.3 0-.2.23-.24.23-.55 0-.17-.1-.32-.37-.32-.3 0-.5.28-.5.6 0 .46.43.8 1.16.8.9 0 1.55-.5 1.86-1.17 1 .4 1.78.9 2.38 1.2-1.03.75-1.77 1.95-2.83 3.96H45l-.16.27h1.63c-2.02 3.8-3.62 6.7-6.9 6.7-1.85 0-3.14-1.18-3.45-2.6.4-.28.8-.52 1.23-.73-.02-.06-.08-.3-.1-.33-.12.03-.67.16-1.2.23.1-2.8 2.87-3.2 3.42-3.27l-.02-.22c-1.4.08-3.7 1.02-3.7 3.53l-.3.02c-2.92 0-4.63-1.6-6.63-1.6-2.36 0-3.62 1.5-3.62 3.04 0 1.95 1.67 2.57 2 2.7l.12-.25c-.35-.18-1.83-.68-1.83-2.48 0-1.7 1.57-2.74 3.3-2.74 1.73 0 3.26 1.33 5.94 1.52l.02.08c-3.42.97-5.6 3.3-7.17 5.5l-.37.52H25.7l-.14.28h1.47c-1.55 2.17-3.05 4.17-5.02 4.92v.33c2.18-.76 3.7-2.95 5.38-5.25h3.13c-.2.74-.34 1.52-.34 2.35C30.16 34 31.2 35 32.78 35c1.54 0 2.4-.93 2.6-1.14-.02-.02-.18-.2-.2-.2-.16.17-.9.9-1.8.9-1.12 0-2.04-.82-2.04-2.62 0-.84.12-1.65.34-2.4h2.35l-.76 1.5c-.16.3-.35.67-.35 1.1 0 .55.45.94 1.28.94 1.86 0 3.02-2.4 3.35-3.18.08.05.44.18.7.26-.13.23-.33.7-.33 1.24 0 .97.64 1.67 1.75 1.67 1.5 0 2.24-.96 2.53-1.27l.03.03-.47 1.04h.93l1.4-2.78c.6-1.2 1.43-2.1 2.16-2.1.3 0 .45.2.45.4 0 .37-.27.86-.78 1.86-.42.84-.74 1.53-.74 2 0 .5.33.8.9.8.9 0 1.33-.75 1.62-1.12l.06.02c-.08.3.05 1.1 1 1.1 1.1 0 1.57-.8 1.83-1.15l.03.05c-.1.6.3 1.12 1.13 1.12.88 0 1.44-.7 1.73-1 .08.25.43 1 1.62 1 1.73 0 2.7-1.62 3-2.27l-.24-.1c-.44.82-1.35 2-2.45 2-.8 0-1.15-.5-1.15-1.18 0-.5.28-1 .42-1.25 2.07.02 3.6-1.12 3.6-2 0-.43-.42-.67-.94-.67-1.9 0-4 2.07-4 3.8 0 .2.04.36.05.4-.23.27-.85.9-1.46.9-.28 0-.45-.17-.45-.44 0-.3.2-.72.43-1.17.48-.98 1.67-3.3 1.67-3.3h-1.1l-1.6 3.16c-.5 1-1.24 1.73-1.8 1.73-.37 0-.5-.23-.5-.43 0-.35.24-.72.5-1.23l1.64-3.25h-1.1l-1.52 3c-.55 1.08-1.28 1.9-1.74 1.9-.27 0-.37-.2-.37-.36 0-.36.25-.7.68-1.56.6-1.2.93-1.8.93-2.32 0-.52-.42-.86-1.06-.86-.75 0-1.4.56-1.76 1h-.05l.36-.8h-.94l-1.35 2.67c-.65 1.28-1.75 2.22-2.8 2.22-.82 0-1.17-.53-1.17-1.2 0-.48.28-.98.42-1.23 2.2 0 3.6-1.17 3.6-2 0-.4-.38-.67-.94-.67-1.37 0-2.84 1.08-3.54 2.33-.24-.07-.64-.24-.73-.3.07-.23.17-.54.17-1.04 0-.4-.13-1-.52-1-.32 0-.5.38-.5.8 0 .73.3 1.07.53 1.3-.3.95-1.57 3-2.75 3-.44 0-.6-.24-.6-.55 0-.23.1-.5.3-.86L36 27.8h-1.1l-.72 1.45h-2.4c.7-2.2 2.22-4.04 4.08-5.35.42 1.67 1.97 2.8 4 2.8 4.14 0 6.32-4.18 7.8-7.07h2l-1.4 2.75c-.3.6-.44.98-.44 1.32 0 .4.34.8.9.8.98 0 1.63-.86 1.9-1.18l.04.02c-.83 1.46-1.54 3.05-3.23 3.05-.24 0-.46-.05-.65-.1l-.12.26c.26.08.56.14.88.14 1.6 0 2.83-.95 4.26-3.67l1.74-3.4h1.6s-.9 1.82-1.38 2.75c-.3.6-.44 1-.44 1.3 0 .42.3.8 1.02.8.86 0 1.62-.88 1.92-1.3l.04.03c-.1.23-.56 1.1-.56 1.1h.97l1.55-3.03c.54-1.08 1.2-1.8 1.8-1.8.34 0 .5.22.5.48 0 .38-.23.8-.7 1.74-.37.7-.72 1.24-.72 1.87 0 .65.5.92 1.03.92 1.1 0 1.62-.95 1.84-1.3v-.53c-.25.5-.93 1.43-1.48 1.43M26.04 7.65h.24c1.63 0 2.6.78 2.9 1.98-1.64-.23-2.77-1.04-3.14-1.98m12.2-3.36c.47 0 .62.28.62.55 0 1.3-2.28 3.08-4.93 4.08 1.96-3.37 3.38-4.64 4.3-4.64m-5.8 7.42c.44-.9.87-1.7 1.28-2.4 2.97-1.04 5.46-3.06 5.46-4.5 0-.4-.3-.82-.97-.82-1.44 0-3.44 1.5-5.72 5.4-.78.18-1.57.3-2.3.3-.24 0-.47-.02-.68-.04-.3-1.34-1.34-2.3-3.23-2.3h-.32c-.03-.13-.05-.27-.05-.4 0-1.5 1.34-2.45 3.35-2.45 1.75 0 2.8.88 3.2 1.16l.15-.22c-.36-.28-1.54-1.2-3.35-1.2-2.27 0-3.65 1.14-3.65 2.77 0 .14.02.27.04.4-1.3.15-2.58.77-3.62 1.72v.4c1.02-1 2.34-1.7 3.7-1.84.4 1.08 1.7 2.04 3.53 2.26.03.18.04.37.04.57 0 2.48-2.6 4.44-3.87 4.98l.1.22c1.26-.47 4.06-2.45 4.06-5.17 0-.2-.03-.38-.05-.56l.5.02c.74 0 1.5-.1 2.23-.27-.32.55-.64 1.15-.97 1.8-2.27 4.5-4.72 6.48-7.1 6.48-.87 0-1.6-.16-2.2-.47v.34c.67.3 1.46.48 2.36.48 2.5 0 5.62-1.82 8.06-6.63" fill="#FEFEFE"/><path d="M64 0h351c2.76 0 5 2.24 5 5v5H64V0z" fill="#1A171B"/><path d="M0 5c0-2.76 2.24-5 5-5h15v10H0V5z" fill="#000"/><path fill="#EFF2F6" d="M312 19h70v12h-70z"/><path fill="#1A171B" d="M22 60h70v20H22z"/><rect fill="#F5F6F8" x="22" y="110" width="50" height="3" rx="1"/><rect fill="#F5F6F8" x="22" y="170" width="50" height="3" rx="1"/><rect fill-opacity=".7" fill="#D6DCE5" x="22" y="100" width="50" height="3" rx="1"/><rect fill="#F5F6F8" x="22" y="120" width="41" height="3" rx="1"/><rect fill="#F5F6F8" x="22" y="130" width="58" height="3" rx="1"/><rect fill="#F5F6F8" x="22" y="140" width="38" height="3" rx="1"/><rect fill="#F5F6F8" x="22" y="150" width="46" height="3" rx="1"/><rect fill="#F5F6F8" x="22" y="160" width="35" height="3" rx="1"/><path fill="#D6DCE5" d="M86.5 100h6l-3 3.5"/><rect fill-opacity=".2" fill="#ADBACC" x="76" y="24" width="28" height="3" rx="1"/><rect fill-opacity=".2" fill="#ADBACC" x="112" y="24" width="28" height="3" rx="1"/><rect fill-opacity=".2" fill="#ADBACC" x="148" y="24" width="28" height="3" rx="1"/><rect fill-opacity=".2" fill="#ADBACC" x="184" y="24" width="28" height="3" rx="1"/><path d="M112 78h141v117H112V78zm145 0h141v117H257V78zM112 199h141v117H112V199zm145 0h141v117H257V199z" fill="#F9FAFB"/><path fill="#F5F6F8" d="M112 60h286v2H112z"/><circle stroke="#BFCBDB" stroke-width="2" cx="393" cy="24" r="3"/><path d="M394.5 25.5L398 29" stroke="#BFCBDB" stroke-width="2"/><path fill="#F5F6F8" d="M182 66h2v8h-2zM254 66h2v8h-2zM326 66h2v8h-2z"/><path d="M304.98 160.7c-.7-4-5.48-25.48-5.88-26.38-.4-.9 10.26-3.3 14.05-5 3.8-1.72 11.16-2.32 13.75-2.32 2.6 0 13.25 2 16.84 3.7 3.6 1.72 8.57 2.52 10.36 3.02 1.8.5-.1 5.4-.5 6.92-.4 1.5-4.28 17.85-4.28 20.05 0 2.2-1.8 2.3-3.1 2.3l-38.65-.3c-1.2 0-2.3-.3-2.6-2z" fill="#E6E3CF"/><path d="M310.76 130.12c.93-.3 1.76-.6 2.4-.88 3.78-1.66 11.15-2.24 13.74-2.24 2.6 0 13.25 1.95 16.84 3.6l.18.1 3.97 31.12c-.54.16-1.15.18-1.67.18-1.3 0-37.46-.3-38.66-.3-.74 0-1.44-.1-1.93-.58l5.12-31z" fill="#F7F7F0"/><path d="M316.73 128.38c-.03-4.84.05-20.38 11.07-20.38 10.63 0 10.26 16.86 9.95 21.04-.6-.14-1.2-.28-1.8-.4.4-4.02 1.12-19.14-8.15-19.14-9.58 0-9.35 14.54-9.28 18.52-.6.1-1.2.23-1.8.36zM316 133h3v2h-3zM335 133h3v2h-3z" fill="#DBC9A1"/><g transform="translate(153 233)"><path d="M6.22 15.9c.43-2.15 2.53-3.54 4.7-3.13 0 0 10.08 2.23 18.58 2.23 8.5 0 18.58-2.23 18.58-2.23 2.17-.42 4.27 1 4.7 3.14l5.24 26.2c.54 2.7-1.26 4.9-4.02 4.9H5C2.24 47 .44 44.8.98 42.1l5.24-26.2z" fill="#FFD890"/><path d="M58.1 42.55L58 42.1l-5.24-26.2c-.43-2.14-2.53-3.55-4.7-3.13 0 0-10.08 2.23-18.58 2.23-8.5 0-18.58-2.23-18.58-2.23-2.17-.4-4.27.98-4.7 3.14L.98 42.1l-.07.45 5-24.64c.44-2.15 2.55-3.55 4.72-3.14 0 0 10.27 2.24 18.88 2.24 8.6 0 18.88-2.24 18.88-2.24 2.16-.42 4.28 1 4.72 3.15l5 24.65z" fill="#E6A95A"/><rect fill="#FFF" x="26" y="18" width="7" height="2" rx="1"/><path d="M29.5 1.66c-4.03.1-7.43 4.67-9.84 11.1l-1.15 3.2 1.04 1.8-1.4 4.6-3.97 1.4-2.17-3.2 1.92-4.2 1.9-1.03s1.42-2.3 1.67-2.94C17.73 11.75 22.96.3 29.36 0h.26c6.4.3 11.63 11.76 11.88 12.4.26.63 1.67 2.93 1.67 2.93l1.9 1.02L47 20.57l-2.17 3.2-3.96-1.42-1.4-4.6 1.02-1.78-1.16-3.2c-2.4-6.44-5.8-11-9.84-11.1z" fill="#DF9D4D" opacity=".8"/><circle fill="#FFD890" cx="15.5" cy="20" r="1"/><circle fill="#FFD890" cx="43.5" cy="20" r="1"/></g><g transform="translate(299 231)"><rect fill="#7CE5B9" y="14" width="56" height="36" rx="4"/><path d="M14.64 50h-8.4C2.78 50 0 47.2 0 43.77v-8.6c1.12-.5 2.33-.8 3.6-.8 6.1 0 11.06 6.65 11.06 14.85 0 .26 0 .52-.02.78zM56 35.17v8.6C56 47.2 53.2 50 49.77 50h-8.4l-.03-.78c0-8.2 4.96-14.84 11.07-14.84 1.27 0 2.48.28 3.6.8z" fill="#68DDA9"/><path d="M19 11.5C19 10.05 21.3 0 28 0s9 11.5 9 11.5" stroke="#76CEA8" stroke-width="2"/><rect fill="#68DDA9" x="16" y="11" width="6" height="3" rx="1"/><path fill="#FFF" d="M17 12h4v1h-4z"/><rect fill="#68DDA9" x="34" y="11" width="6" height="3" rx="1"/><path fill="#FFF" d="M35 12h4v1h-4z"/><path fill="#BBFCEB" d="M26 21l2-2 2 2-2 2M23 24l2-2 2 2-2 2M29 24l2-2 2 2-2 2M26 27l2-2 2 2-2 2"/><circle fill-opacity=".5" fill="#BBFCEB" cx="6.5" cy="43.5" r="1.5"/><circle fill-opacity=".5" fill="#BBFCEB" cx="49.5" cy="43.5" r="1.5"/></g><g><path d="M192.78 126.4c-1.14-10.55-5.38-18.4-10.44-18.4-5.07 0-9.3 7.85-10.44 18.4h.9c1.3-9.73 5.07-16.8 9.54-16.8 4.46 0 8.24 7.07 9.52 16.8h.92z" fill="#E6BAE6"/><path d="M155.48 127.78c-.27-2.04 1.2-3.7 3.26-3.7h47.52c2.07 0 3.53 1.65 3.26 3.7l-3.92 30.4c-.27 2.04-2.15 3.7-4.2 3.7h-37.8c-2.05 0-3.93-1.65-4.2-3.7l-3.92-30.4z" fill="#FFE1F5"/><path d="M155.72 125.97c.5-1.12 1.62-1.88 3.02-1.88h47.52c1.3 0 2.38.65 2.9 1.65-7.3.57-17.28.92-28.3.92-9.5 0-18.23-.26-25.14-.7z" fill="#E7BBE7"/><path d="M185.95 130.63L159.3 157.3l.1.88.07.35 34.44-34.44h-1.4l-4.96 4.94.46.88-2.05.7zm-20.33-6.54l-9.4 9.4-.17-1.26 8.16-8.15h1.42zm14.15 0L157.83 146l-.16-1.25 20.68-20.68h1.42zm27.97.3l-37.48 37.47h-1.4l37.76-37.77c.4.04.78.14 1.12.3zm.45 13.7l-23.8 23.77H183l25.4-25.4-.2 1.62zm-2.1 16.23l-7.55 7.54h-1.42l9.17-9.17-.2 1.63z" fill="#E6BAE6" opacity=".25"/><path fill="#E6BAE6" d="M180 133h6v2h-6z"/></g></g></svg>