<svg width="253" height="461" viewBox="0 0 253 461" xmlns="http://www.w3.org/2000/svg"><g transform="translate(1 1)" fill="none" fill-rule="evenodd"><rect stroke="#F3F5F8" stroke-width="2" fill="#FFF" width="251" height="459" rx="5"/><path d="M24.58 437.14c-.32-.46-.25-1.13.15-1.5l6.1-5.64 6.4 5.75c.4.37.4.98.02 1.37l.5-.5c-.4.4-1.02.4-1.42 0l-.2-.2-1.57 5.45c-.15.53-.73.97-1.28.98l-4.6.07c-.56 0-1.14-.4-1.3-.95l-1.65-5.55-.28.25c-.4.37-1 .3-1.3-.16l.43.64zm6.35.7c.9 0 1.63-.77 1.63-1.73 0-.95-.73-1.72-1.63-1.72-.9 0-1.63.77-1.63 1.73 0 .97.73 1.74 1.63 1.74zm0 2.85c.45 0 .8-.37.8-.82 0-.45-.35-.82-.8-.82-.45 0-.82.37-.82.82 0 .45.38.8.83.8z" fill="#1EA1F3"/><path d="M95.84 430.92h-.02c-2.03-.6-3.87 1.93-4.07 2.54-.2.6-.7 1.63-1.22 2.55-.5.93-1.53 1.54-1.53 2.25 0 .7 8.66 3.46 9.37 3.56.7.12.6-1.4.4-2.33-.2-.9.42-2.14.82-4.68.24-1.54-.43-2.4-1.44-2.98v-.2c0-.9-.54-1.62-1.22-1.62-.48 0-.9.38-1.1.92zm-2.66 10.4c-.1 1 .6 2.12 1.83 2.12s1.33-.7 1.33-.8c0-.1-2.75-1.13-3.15-1.33zM152.65 432.52c-.4.37-.65.9-.65 1.48v8.2s.68.8 1.02.8h-.6s1.22-.64 1.98-1.44l1.27-1.3h6.65c1.1 0 2-.9 2-2V434c0-.63-.3-1.2-.75-1.56l-5.46 5.08-5.45-5zm1.24-.52h8.35l-4.14 3.86-4.2-3.86zM218.96 439.56c-2.2.05-3.96 1.54-3.96 2.54 0 1.02.8 1.12.8 1.12h8.98s2.75.2 2.75-1.32c0-1.53-2.96-2.34-3.77-2.34h-.1c-.42.72-1.32 1.22-2.35 1.22-1 0-1.9-.5-2.34-1.22zm-1.2-4.18c0-.5.2-.92.4-.92s0-3.46 3.05-3.46c3.07 0 3.37 2.95 3.37 3.46 0 .5.3 0 .4.1.1.1 0 1.53-.2 1.53s-.5.6-.8.9c-.3.3-.92 2.45-2.55 2.45s-2.43-2.6-2.65-2.64c-.5-.1-1.02-.9-1.02-1.42z" fill="#8799A5"/><path d="M12.53 24.62C10.58 24.67 9 26 9 26.9c0 .9.73 1 .73 1h7.98s2.46.17 2.46-1.2c0-1.35-2.63-2.08-3.36-2.08h-.07c-.4.65-1.2 1.1-2.1 1.1-.92 0-1.7-.45-2.1-1.1zm-1.08-3.72c0-.45.18-.8.36-.8.2 0 0-3.1 2.74-3.1 2.72 0 3 2.63 3 3.1 0 .44.26 0 .35.08.08.1 0 1.36-.2 1.36-.17 0-.44.54-.7.8-.3.3-.83 2.2-2.28 2.2-1.45 0-2.17-2.33-2.36-2.37-.46-.1-.9-.8-.9-1.27zM22.06 20.83v-1.2c0-.35-.28-.63-.62-.63-.32 0-.6.28-.6.62v1.2H19.6c-.34 0-.62.3-.62.62 0 .33.28.62.62.62h1.2v1.2c0 .35.3.63.62.63.33 0 .62-.3.62-.63v-1.2h1.2c.35 0 .63-.3.63-.63 0-.32-.3-.6-.63-.6h-1.2zM230 28.26c1.12-4.58 5.4-11.7 11.5-13.24 1.23-.3-2.74 3.16-2.74 3.16l2.04-.5s-.5 1.62-1.74 1.82c-1.22.2-2.13 1.12-2.13 1.12s.9.3 1.73-.2c.8-.5-.52 2.2-3.47 2.03-1.94-.1-3.88 5.9-5.2 5.8z" fill="#1EA1F3"/><path d="M121.04 30.6c7.25 0 11.22-6 11.22-11.2v-.5c.76-.57 1.42-1.26 1.95-2.05-.7.3-1.47.52-2.25.62.82-.5 1.44-1.27 1.73-2.18-.77.45-1.62.77-2.5.94-1.22-1.3-3.16-1.6-4.74-.77-1.57.84-2.38 2.63-1.98 4.37-3.17-.16-6.12-1.66-8.12-4.12-1.05 1.8-.5 4.1 1.22 5.26-.63-.02-1.24-.2-1.8-.5v.06c0 1.87 1.33 3.5 3.17 3.86-.58.16-1.2.18-1.78.07.52 1.6 2 2.7 3.68 2.74-1.4 1.1-3.12 1.7-4.9 1.7-.3 0-.62-.02-.93-.06 1.8 1.16 3.9 1.77 6.04 1.77" fill="#1DA1F2"/><path d="M212.27 25c-.76.6-1.73.96-2.8.96-2.46 0-4.47-2-4.47-4.48 0-2.47 2-4.48 4.48-4.48 2.48 0 4.48 2 4.48 4.48 0 1.04-.35 2-.94 2.75l1.04.92h.62l2.54 2.34v.9l-.7.82-.93-.1-2.45-2.34.1-.82-.98-.97zm-2.7-.06c1.87 0 3.37-1.5 3.37-3.36 0-1.85-1.5-3.36-3.36-3.36-1.85 0-3.36 1.5-3.36 3.36 0 1.86 1.5 3.36 3.36 3.36zM228.5 24c-.27 0-.5-.23-.5-.5V18c0-.55.45-1 1-1h4.5c.28 0 .5.22.5.5v.5c0 .27-.22.5-.5.5H230c-.28 0-.5.22-.5.5v4.5c0 .27-.22.5-.5.5h-.5zM234 27c0-.27.22-.5.5-.5h4.5c.27 0 .5-.23.5-.5v-2.5c0-.28.22-.5.5-.5h.5c.27 0 .5.2.5.5V27c0 .55-.44 1-1 1h-5.5c-.27 0-.5-.22-.5-.5V27z" fill="#1EA1F3"/><path fill="#F5F6F8" d="M1 44h249v2H1zM1 221h249v2H1zM1 413h249v2H1z"/><rect fill="#FFB433" x="9" y="54" width="34" height="34" rx="4"/><path d="M26 81c4.24 0 8-3.47 8-9.26C34 65.94 30 60 26 60s-8 5.94-8 11.74S21.76 81 26 81z" fill="#FFF"/><rect fill="#E3E7ED" x="51" y="57" width="84" height="5" rx="1"/><rect fill="#F5F6F8" x="51" y="71" width="160" height="5" rx="1"/><rect fill="#F5F6F8" x="51" y="82" width="130" height="5" rx="1"/><rect fill="#1BB978" x="9" y="231" width="34" height="34" rx="4"/><path d="M26 258c4.24 0 8-3.47 8-9.26 0-5.8-4-11.74-8-11.74s-8 5.94-8 11.74 3.76 9.26 8 9.26z" fill="#FFF"/><rect fill="#E3E7ED" x="51" y="234" width="81" height="5" rx="1"/><rect fill="#F5F6F8" x="51" y="248" width="160" height="5" rx="1"/><rect fill="#F5F6F8" x="51" y="259" width="120" height="5" rx="1"/><path fill="#F5F6F8" d="M1 331h249v2H1z"/><rect fill="#838BFF" x="9" y="341" width="34" height="34" rx="4"/><path d="M26 368c4.24 0 8-3.47 8-9.26 0-5.8-4-11.74-8-11.74s-8 5.94-8 11.74 3.76 9.26 8 9.26z" fill="#FFF"/><rect fill="#E3E7ED" x="51" y="344" width="100" height="5" rx="1"/><rect fill="#F5F6F8" x="51" y="358" width="160" height="5" rx="1"/><rect fill="#F5F6F8" x="51" y="369" width="120" height="5" rx="1"/><rect fill="#838BFF" x="50" y="99" width="192" height="103" rx="5"/><path fill="#767EFF" d="M242 112v87H107"/><path d="M50 198.5L242 154v50c0 2.76-2.24 5-5 5H55c-2.76 0-5-2.24-5-5v-5.5z" fill="#6F77FF"/><rect fill="#767EFF" x="69" y="127" width="67" height="8" rx="2"/><rect fill="#FFF" x="70" y="128" width="65" height="5" rx="1"/><rect fill="#99A2FF" x="70" y="145" width="90" height="5" rx="1"/><rect fill="#99A2FF" x="70" y="154" width="62" height="5" rx="1"/><rect fill="#68C8FF" x="51" y="276" width="120" height="20" rx="3"/><rect fill="#E3E7ED" x="51" y="299" width="100" height="20" rx="3"/><rect fill="#F9FAFB" x="51" y="386" width="191" height="27" rx="3"/><rect fill="#2A9CFF" x="59" y="284" width="18" height="4" rx="1"/><rect fill="#C7CFDB" x="59" y="307" width="18" height="4" rx="1"/><rect fill="#F5F6F8" x="215" y="284" width="8" height="4" rx="1"/><rect fill="#F5F6F8" x="215" y="307" width="8" height="4" rx="1"/><path d="M231 286c1.1 0 2-.9 2-2s-.9-2-2-2-2 .9-2 2 .9 2 2 2zm0-1c.55 0 1-.45 1-1s-.45-1-1-1-1 .45-1 1 .45 1 1 1zM238 290c1.1 0 2-.9 2-2s-.9-2-2-2-2 .9-2 2 .9 2 2 2zm0-1c.55 0 1-.45 1-1s-.45-1-1-1-1 .45-1 1 .45 1 1 1z" fill="#C3CCD2"/><rect fill="#C3CCD2" transform="rotate(30 234.5 286)" x="234" y="281" width="1" height="10" rx=".5"/><path d="M231 309c1.1 0 2-.9 2-2s-.9-2-2-2-2 .9-2 2 .9 2 2 2zm0-1c.55 0 1-.45 1-1s-.45-1-1-1-1 .45-1 1 .45 1 1 1zM238 313c1.1 0 2-.9 2-2s-.9-2-2-2-2 .9-2 2 .9 2 2 2zm0-1c.55 0 1-.45 1-1s-.45-1-1-1-1 .45-1 1 .45 1 1 1z" fill="#C3CCD2"/><rect fill="#C3CCD2" transform="rotate(30 234.5 309)" x="234" y="304" width="1" height="10" rx=".5"/></g></svg>