<svg xmlns="http://www.w3.org/2000/svg" width="70.1" height="37.1" viewBox="0 0 70.1 37.1"><path d="M36.2 11c-5 0-9.4 2.8-11.6 7-2.2-4.1-6.6-7-11.6-7-2.9 0-5.7 1-7.9 2.6v-11c.1-1.5-1.1-2.6-2.5-2.6s-2.6 1.1-2.6 2.6v21.7c.1 7.1 5.9 12.9 13.1 12.9 5 0 9.4-2.8 11.6-7 2.2 4.1 6.6 7 11.6 7 7.2 0 13.1-5.9 13.1-13.1-.1-7.3-6-13.1-13.2-13.1m-23.1 20.9c-4.3 0-7.9-3.5-7.9-7.8s3.5-7.8 7.9-7.8c4.3 0 7.8 3.5 7.8 7.8s-3.5 7.8-7.8 7.8m23.1 0c-4.3 0-7.9-3.5-7.9-7.8s3.5-7.8 7.9-7.8c4.3 0 7.8 3.5 7.8 7.8.1 4.3-3.5 7.8-7.8 7.8m33.4.9l-7.1-8.8 7.1-8.7c.9-1.2.6-2.8-.6-3.6-1.2-.9-3-.6-4 .5l-6.1 7.5-6.1-7.5c-1-1.1-2.7-1.3-4-.5-1.2.9-1.5 2.5-.6 3.6l7.1 8.7-7.1 8.7c-.9 1.2-.6 2.8.6 3.6 1.2.9 3 .6 4-.5l6.1-7.5 6.1 7.5c1 1.1 2.7 1.3 4 .5 1.2-.8 1.5-2.4.6-3.5" fill="#fff"/></svg>