<svg xmlns="http://www.w3.org/2000/svg" width="77" height="77" viewBox="0 0 77 77"><path fill="#fff" d="M77 38.5c0 21.3-17.2 38.5-38.5 38.5s-38.5-17.2-38.5-38.5c0-21.2 17.2-38.5 38.5-38.5s38.5 17.3 38.5 38.5zm-28.8 31.3c13.2-4.3 22.8-16.7 22.8-31.3 0-17.9-14.6-32.5-32.5-32.5s-32.5 14.6-32.5 32.5c0 14.6 9.6 27 22.9 31.3v-6.1c-9.5 2.1-11.5-4.4-11.5-4.4-1.5-3.9-3.7-4.9-3.7-4.9-3-2.1.2-2 .2-2 3.3.2 5.1 3.4 5.1 3.4 3.2 5.4 8.4 3.5 10 2.7.5-2.4 2.3-2.9 2.9-3-8.5-.9-17.7-4-17.7-18.8 0-4.1 1.5-7.5 3.9-10.2-.4-1-1.7-4.8.4-10 0 0 3.2-1 10.4 3.9 3-.8 6.2-1.2 9.5-1.3 3.2 0 6.4.5 9.5 1.3 7.2-4.9 10.4-3.9 10.4-3.9 2.1 5.2.8 9.1.4 10 2.4 2.6 3.9 6 3.9 10.2 0 14.8-9.1 17.8-17.7 18.7 1.5 1.1 3.2 3 3.2 6.8v7.6z"/></svg>