<svg xmlns="http://www.w3.org/2000/svg" viewBox="0 0 66.7 44.8" enable-background="new 0 0 66.7 44.8"><path fill="#fff" d="M58.8 24.8c-.6 0-1.3.1-1.9.2-2.4-9.4-10.2-16.6-20-18.1-.1-1.6.5-4.2 4.6-6.7l-.1-.2s-6.9 2.2-8.4 6.5c.1-1.3-.4-3.4-3.4-4.8 0 0-.2.1-.1.2.6.5 2.5 2.4 1.7 4.9-10.5.9-18.9 8.4-21.4 18.2-.6-.1-1.2-.2-1.9-.2-4.3 0-7.9 3.5-7.9 7.9 0 4.3 3.5 7.9 7.9 7.9 1 0 2-.2 2.9-.6.7 1.7 1.5 3.3 2.6 4.8l6.6-4.4-.1-.1c-1.7-2.2-2.8-5.5-3-8.8-.2-3.6.7-7.2 3-9.3 4.7-4 9.9-2.2 13.1 1.7h.9c3.2-3.8 8.3-5.6 13-1.6 2.3 2.1 3.2 5.6 3 9.1-.2 3.3-1.2 6.6-3 8.9l6.5 4.4c1-1.5 1.9-3.1 2.6-4.8.9.3 1.9.6 2.9.6 4.4 0 7.9-3.5 7.9-7.9-.1-4.3-3.7-7.8-8-7.8m-50.6 9.4c-.9 0-1.6-.7-1.6-1.6 0-.9.7-1.6 1.6-1.6.3 0 .6.1.9.3 0 .8.1 1.7.2 2.5-.4.3-.7.4-1.1.4m50.3 0c-.4 0-.8-.2-1.1-.4.1-.8.2-1.6.2-2.5.3-.2.6-.3.9-.3.9 0 1.6.7 1.6 1.6 0 .9-.7 1.6-1.6 1.6"/></svg>