<?xml version="1.0" encoding="utf-8"?>
<!-- Generator: Adobe Illustrator 18.1.0, SVG Export Plug-In . SVG Version: 6.00 Build 0)  -->
<svg version="1.1" xmlns="http://www.w3.org/2000/svg" xmlns:xlink="http://www.w3.org/1999/xlink" x="0px" y="0px"
	 viewBox="0 0 72 72" enable-background="new 0 0 72 72" xml:space="preserve">
<g id="Main_Nav">
	<g>
		<g>
			<path d="M42.1,39.2c-0.1,0-0.2,0-0.3-0.1L36,34.6l-5.8,4.5c-0.2,0.1-0.4,0.1-0.6,0c-0.2-0.1-0.3-0.4-0.2-0.6l2.6-7.1l-5.1-3.8
				c-0.2-0.1-0.2-0.4-0.2-0.6c0.1-0.2,0.3-0.3,0.5-0.3h6.4l1.9-5.7c0.1-0.4,0.8-0.4,0.9,0l1.9,5.7h6.4c0.2,0,0.4,0.1,0.5,0.3
				c0.1,0.2,0,0.4-0.2,0.6L40,31.4l2.6,7.1c0.1,0.2,0,0.4-0.2,0.6C42.3,39.2,42.2,39.2,42.1,39.2z M36,33.5c0.1,0,0.2,0,0.3,0.1
				l4.7,3.7l-2.1-5.8c-0.1-0.2,0-0.4,0.2-0.6l4.2-3.2H38c-0.2,0-0.4-0.1-0.5-0.3L36,22.7l-1.6,4.7c-0.1,0.2-0.3,0.3-0.5,0.3h-5.3
				l4.2,3.2c0.2,0.1,0.2,0.4,0.2,0.6L31,37.2l4.7-3.7C35.8,33.5,35.9,33.5,36,33.5z"/>
		</g>
		<g>
			<path d="M36,56.1c-0.2,0-0.4-0.1-0.5-0.4l-3.1-10.9c-6.5-1.6-11.1-7.5-11.1-14.2c0-8.1,6.6-14.7,14.7-14.7s14.7,6.6,14.7,14.7
				c0,6.8-4.5,12.6-11.1,14.2l-3.1,10.9C36.4,55.9,36.2,56.1,36,56.1z M36,16.9c-7.5,0-13.7,6.1-13.7,13.7c0,6.4,4.4,11.9,10.6,13.3
				c0.2,0,0.3,0.2,0.4,0.3l2.7,9.5l2.7-9.5c0-0.2,0.2-0.3,0.4-0.3c6.2-1.4,10.6-6.9,10.6-13.3C49.7,23,43.5,16.9,36,16.9z"/>
		</g>
	</g>
</g>
<g id="rollover">
</g>
</svg>
