<?xml version="1.0" encoding="utf-8"?>
<!-- Generator: Adobe Illustrator 18.1.0, SVG Export Plug-In . SVG Version: 6.00 Build 0)  -->
<svg version="1.1" xmlns="http://www.w3.org/2000/svg" xmlns:xlink="http://www.w3.org/1999/xlink" x="0px" y="0px"
	 viewBox="0 0 72 72" enable-background="new 0 0 72 72" xml:space="preserve">
<g id="Main_Nav">
	<g>
		<g>
			<path d="M37.8,45.2h-4.7c-0.3,0-0.5-0.2-0.5-0.5v-6.1c-4.1-1.7-4.1-6.4-4.1-9.2c0-0.3,0.2-0.5,0.5-0.5h12.9
				c0.3,0,0.5,0.2,0.5,0.5c0,2.6,0,7.4-4.1,9.2v6.1C38.3,45,38.1,45.2,37.8,45.2z M33.6,44.2h3.7v-6c0-0.2,0.1-0.4,0.3-0.5
				c3.3-1.2,3.8-4.5,3.8-7.9H29.5c0,3.4,0.5,6.7,3.8,7.9c0.2,0.1,0.3,0.3,0.3,0.5V44.2z"/>
		</g>
		<g>
			<path d="M35.4,27.6c-2.9,0-5.2-2.3-5.2-5.2c0-2.9,2.3-5.2,5.2-5.2c2.9,0,5.2,2.3,5.2,5.2C40.6,25.3,38.3,27.6,35.4,27.6z
				 M35.4,18.2c-2.3,0-4.2,1.9-4.2,4.2c0,2.3,1.9,4.2,4.2,4.2c2.3,0,4.2-1.9,4.2-4.2C39.6,20.1,37.8,18.2,35.4,18.2z"/>
		</g>
		<g>
			<path d="M36,52.3c-9.8,0-17.6-2.8-17.6-6.4c0-2.9,4.8-5.3,12.2-6.1c0.2,0,0.5,0.2,0.6,0.4c0,0.3-0.2,0.5-0.4,0.6
				c-6.5,0.7-11.3,2.9-11.3,5.1c0,2.6,6.7,5.4,16.6,5.4s16.6-2.8,16.6-5.4c0-2.2-4.8-4.4-11.3-5.1c-0.3,0-0.5-0.3-0.4-0.6
				c0-0.3,0.3-0.5,0.6-0.4c7.4,0.8,12.2,3.2,12.2,6.1C53.6,49.5,45.9,52.3,36,52.3z"/>
		</g>
		<g>
			<path d="M36,48.8c-5.5,0-11.1-1.2-11.1-3.4c0-1.8,3.6-2.7,5.7-3c0.3,0,0.5,0.1,0.6,0.4c0,0.3-0.1,0.5-0.4,0.6
				c-3.6,0.6-4.9,1.5-4.9,2.1c0,1,3.9,2.4,10.1,2.4s10.1-1.4,10.1-2.4c0-0.5-1.3-1.5-4.8-2c-0.3,0-0.5-0.3-0.4-0.6
				c0-0.3,0.3-0.5,0.6-0.4c2.1,0.3,5.7,1.2,5.7,3C47.1,47.6,41.5,48.8,36,48.8z"/>
		</g>
	</g>
</g>
<g id="rollover">
</g>
</svg>
