<?xml version="1.0" encoding="utf-8"?>
<!-- Generator: Adobe Illustrator 18.1.0, SVG Export Plug-In . SVG Version: 6.00 Build 0)  -->
<svg version="1.1" xmlns="http://www.w3.org/2000/svg" xmlns:xlink="http://www.w3.org/1999/xlink" x="0px" y="0px"
	 viewBox="0 0 72 72" enable-background="new 0 0 72 72" xml:space="preserve">
<g id="Main_Nav">
	<g>
		<g>
			<path fill="#231F20" d="M42.2,54.8h-25v-3c0-1.8,1.1-3.2,2.8-3.9l6-2.2v-3h1v3.7l-6.7,2.4c-1.3,0.5-2.2,1.6-2.2,2.9v2h23v-2
				c0-1.3-0.9-2.4-2.3-2.9l-6.6-2.4v-4h1v3.3l5.9,2.2c1.8,0.6,2.9,2.2,2.9,3.9V54.8z"/>
		</g>
		<g>
			<path fill="#231F20" d="M29.5,44.1c-3.7,0-6.8-3.6-6.8-8.1s3-8.1,6.8-8.1c3.7,0,6.8,3.6,6.8,8.1S33.2,44.1,29.5,44.1z M29.5,29
				c-3.2,0-5.8,3.2-5.8,7.1s2.6,7.1,5.8,7.1c3.2,0,5.8-3.2,5.8-7.1S32.7,29,29.5,29z"/>
		</g>
		<g>
			<path fill="#231F20" d="M34.1,36.1c-1.5,0-2.7-0.7-3.7-2.1c-1,1.2-3,2-4.7,2c-1,0-1.8-0.2-2.7-0.6l0.5-0.9
				c0.7,0.4,1.4,0.5,2.2,0.5c1.7,0,3.7-1,4.3-2.2l0.4-0.8l0.5,0.8c1.1,1.9,2.3,2.6,4.2,2.2c0.2,0,0.3,0,0.4,0c0.1,0,0.1,0,0.2,0
				l0.1,1c-0.1,0-0.2,0-0.3,0c-0.1,0-0.2,0-0.3,0C34.8,36,34.4,36.1,34.1,36.1z"/>
		</g>
		<g>
			<polygon fill="#231F20" points="42.5,39.2 42.5,32.1 39.8,32.1 39.8,31.1 43.5,31.1 43.5,36.6 48.4,31.1 53.8,31.1 53.8,18.2 
				30.8,18.2 30.8,24 29.8,24 29.8,17.2 54.8,17.2 54.8,32.1 48.9,32.1 			"/>
		</g>
		<g>
			<g>
				<polygon fill="#231F20" points="39.8,24.6 38.5,24.6 38.5,25.9 39.8,25.9 39.8,24.6 				"/>
			</g>
		</g>
		<g>
			<g>
				<polygon fill="#231F20" points="43.6,24.6 42.3,24.6 42.3,25.9 43.6,25.9 43.6,24.6 				"/>
			</g>
		</g>
		<g>
			<g>
				<polygon fill="#231F20" points="47.4,24.6 46.1,24.6 46.1,25.9 47.4,25.9 47.4,24.6 				"/>
			</g>
		</g>
	</g>
</g>
<g id="rollover">
</g>
</svg>
