<?xml version="1.0" encoding="utf-8"?>
<!-- Generator: Adobe Illustrator 18.1.0, SVG Export Plug-In . SVG Version: 6.00 Build 0)  -->
<svg version="1.1" xmlns="http://www.w3.org/2000/svg" xmlns:xlink="http://www.w3.org/1999/xlink" x="0px" y="0px"
	 viewBox="0 0 72 72" enable-background="new 0 0 72 72" xml:space="preserve">
<g id="Main_Nav">
	<g>
		<g>
			<path fill="#2D2C2A" d="M47.3,54.7H24.7c-1.7,0-3-1.4-3-3V20.3c0-1.7,1.4-3,3-3h22.6c1.7,0,3,1.4,3,3v31.5
				C50.3,53.4,49,54.7,47.3,54.7z M24.7,18.3c-1.1,0-2,0.9-2,2v31.5c0,1.1,0.9,2,2,2h22.6c1.1,0,2-0.9,2-2V20.3c0-1.1-0.9-2-2-2
				H24.7z"/>
		</g>
		<g>
			<path fill="#2D2C2A" d="M43.5,29.6H28.5c-1.7,0-3-1.4-3-3V24c0-1.7,1.4-3,3-3h15.1c1.7,0,3,1.4,3,3v2.5
				C46.6,28.2,45.2,29.6,43.5,29.6z M28.5,22c-1.1,0-2,0.9-2,2v2.5c0,1.1,0.9,2,2,2h15.1c1.1,0,2-0.9,2-2V24c0-1.1-0.9-2-2-2H28.5z"
				/>
		</g>
		<g>
			<rect x="22.2" y="42.4" fill="#2D2C2A" width="27.7" height="1"/>
		</g>
		<g>
			<rect x="22.2" y="32.4" fill="#2D2C2A" width="27.7" height="1"/>
		</g>
		<g>
			<rect x="35.5" y="32.9" fill="#2D2C2A" width="1" height="21.4"/>
		</g>
		<g>
			<rect x="25.9" y="37.4" fill="#2D2C2A" width="5" height="1"/>
		</g>
		<g>
			<rect x="40.4" y="37.4" fill="#2D2C2A" width="5" height="1"/>
		</g>
		<g>
			<rect x="40.4" y="46.2" fill="#2D2C2A" width="5" height="1"/>
		</g>
		<g>
			<rect x="40.4" y="48.7" fill="#2D2C2A" width="5" height="1"/>
		</g>
		<g>
			
				<rect x="25.8" y="48.1" transform="matrix(0.7071 0.7071 -0.7071 0.7071 42.6861 -5.8878)" fill="#2D2C2A" width="5.3" height="1"/>
		</g>
		<g>
			
				<rect x="28" y="45.9" transform="matrix(0.7071 0.7071 -0.7071 0.7071 42.6861 -5.8878)" fill="#2D2C2A" width="1" height="5.3"/>
		</g>
		<g>
			<rect x="28" y="35.4" fill="#2D2C2A" width="1" height="5"/>
		</g>
	</g>
</g>
<g id="rollover">
</g>
</svg>
