<?xml version="1.0" encoding="utf-8"?>
<!-- Generator: Adobe Illustrator 18.1.0, SVG Export Plug-In . SVG Version: 6.00 Build 0)  -->
<svg version="1.1" xmlns="http://www.w3.org/2000/svg" xmlns:xlink="http://www.w3.org/1999/xlink" x="0px" y="0px"
	 viewBox="0 0 72 72" enable-background="new 0 0 72 72" xml:space="preserve">
<g id="Main_Nav">
	<g>
		<g>
			<path d="M35.3,52c-0.3,0-0.5-0.2-0.5-0.5V26.2c0-0.3,0.2-0.5,0.5-0.5s0.5,0.2,0.5,0.5v25.2C35.8,51.7,35.6,52,35.3,52z"/>
		</g>
		<g>
			<path d="M42.3,52H29.7c-0.3,0-0.5-0.2-0.5-0.5s0.2-0.5,0.5-0.5h12.6c0.3,0,0.5,0.2,0.5,0.5S42.6,52,42.3,52z"/>
		</g>
		<g>
			<path d="M16.4,38c-0.1,0-0.1,0-0.2,0c-0.3-0.1-0.4-0.4-0.3-0.7l5.6-14c0.2-0.4,0.9-0.4,1,0l5.6,14c0.1,0.3,0,0.6-0.3,0.7
				c-0.3,0.1-0.6,0-0.7-0.3L22,24.9l-5.1,12.8C16.8,37.8,16.6,38,16.4,38z"/>
		</g>
		<g>
			<path d="M32.5,23.9H19.2c-0.3,0-0.5-0.2-0.5-0.5s0.2-0.5,0.5-0.5h13.3c0.3,0,0.5,0.2,0.5,0.5S32.8,23.9,32.5,23.9z"/>
		</g>
		<g>
			<path d="M52.8,23.9H38.1c-0.3,0-0.5-0.2-0.5-0.5s0.2-0.5,0.5-0.5h14.7c0.3,0,0.5,0.2,0.5,0.5S53.1,23.9,52.8,23.9z"/>
		</g>
		<g>
			<path d="M35.3,26.7c-1.8,0-3.4-1.5-3.4-3.4s1.5-3.4,3.4-3.4s3.4,1.5,3.4,3.4S37.1,26.7,35.3,26.7z M35.3,21.1
				c-1.2,0-2.3,1-2.3,2.3s1,2.3,2.3,2.3s2.3-1,2.3-2.3S36.5,21.1,35.3,21.1z"/>
		</g>
		<g>
			<path d="M22,44.3c-3.8,0-6.9-3.1-6.9-6.9c0-0.3,0.2-0.5,0.5-0.5h12.6c0.3,0,0.5,0.2,0.5,0.5C28.8,41.2,25.8,44.3,22,44.3z
				 M16.2,38c0.3,2.9,2.7,5.2,5.7,5.2c3,0,5.5-2.3,5.7-5.2H16.2z"/>
		</g>
		<g>
			<path d="M55.6,38c-0.2,0-0.4-0.1-0.5-0.3L50,24.9l-5.1,12.8c-0.1,0.3-0.4,0.4-0.7,0.3c-0.3-0.1-0.4-0.4-0.3-0.7l5.6-14
				c0.2-0.4,0.9-0.4,1,0l5.6,14c0.1,0.3,0,0.6-0.3,0.7C55.8,37.9,55.7,38,55.6,38z"/>
		</g>
		<g>
			<path d="M50,44.3c-3.8,0-6.9-3.1-6.9-6.9c0-0.3,0.2-0.5,0.5-0.5h12.6c0.3,0,0.5,0.2,0.5,0.5C56.9,41.2,53.8,44.3,50,44.3z
				 M44.3,38c0.3,2.9,2.7,5.2,5.7,5.2s5.5-2.3,5.7-5.2H44.3z"/>
		</g>
	</g>
</g>
<g id="rollover">
</g>
</svg>
