<svg xmlns="http://www.w3.org/2000/svg" viewBox="0 0 86.8 44.9" enable-background="new 0 0 86.8 44.9"><path d="M66.6 0v44.9h20.2v-44.9h-20.2zm15.3 20.6v3.6h-6.9v2.8h8.1v3.8h-12.7v-16.7h12.7v3.8h-8.1v2.7h6.9zm-37.6-20.6v44.9h20.4v-44.9h-20.4zm17.7 30.8h-2.1l-8.6-8.2v8.1h-4.2v-16.7h2.5l8.1 8.3v-8.3h4.3v16.8zm-62-30.8v44.9h20.3v-44.9h-20.3zm13.2 30.8l-5.6-7.5v7.5h-4.6v-16.9h4.6v7.5l5.7-7.5h4.9l-6.2 8.3 6.4 8.6h-5.2zm9-30.8v44.9h20.3v-44.9h-20.3zm17.4 27.4c-1.8 2.6-3.9 3.5-6.9 3.7-3.4 0-6.1-1.1-7.8-4.2-1.5-3.2-1.4-6.3.3-9.3 1.3-1.9 2.8-3 5.1-3.5.8-.1 1.5-.2 2.3-.2 3 .2 5.4 1.5 7.2 4 1.8 3 1.6 6.3-.2 9.5zm-7.7-9.7c-1.9.4-2.8 1.2-3.5 3-.3 1.3-.3 2.2 0 3.5.7 1.6 1.5 2.3 3.1 2.9.9.1 1.4.2 2.3 0 1.4-.6 2-1.4 2.4-2.9.3-1.3.3-2.2-.1-3.5-.7-2.1-1.9-3-4.2-3z" fill-rule="evenodd" clip-rule="evenodd" fill="#fff"/></svg>