<svg xmlns="http://www.w3.org/2000/svg" width="149" height="141" viewBox="0 0 149 141"><path fill="#9BA9BC" fill-rule="evenodd" d="M65.62 62.77c.55-2.1 3.11-2.4 4.4-2.43.49 0 .96.1 1.4.3.91.4 2.45 1.28 2.76 2.62.45 1.93.02 3.55-1.36 4.81-1.38 1.26-3.2 1.15-5.14.5-1.93-.64-2.79-2.97-2.06-5.8zm18.79 3.83c.1-.73.4-1.4.84-1.98.63-.79 1.67-1.82 2.87-1.85a5.02 5.02 0 0 1 4.58 2.4c.95 1.6.48 3.33-.53 5.08-1 1.74-3.63 1.97-6.22.7-1.74-.85-1.73-3.03-1.54-4.35zM31.34 92.2l66.85 14.21 15.29-34.33 7.28-69.26L93.94 0l-4.93 46.92-8.4-39.55-26.38 5.6 8.4 39.56-38 8.08 6.71 31.6zm19.85 48.42h4.62V122.7H51.2v17.92zm30.01-10.6c.52-2.04 2.09-3.16 4.45-3.16 2.4 0 3.96 1.12 4.44 3.17H81.2zm4.45-7.7c-5.21 0-9.03 3.75-9.03 9.34 0 5.7 3.78 9.34 9.65 9.34 2.57 0 5.1-.7 7.23-2.05L91.72 135a11.7 11.7 0 0 1-5.38 1.4c-2.43 0-4.13-.95-4.86-2.68h12.99c.14-.66.2-1.32.2-2.12 0-5.56-3.85-9.28-9.02-9.28zm-29.25-5a2.84 2.84 0 0 1-2.88 2.91 2.85 2.85 0 0 1-2.92-2.92 2.85 2.85 0 0 1 2.92-2.91 2.84 2.84 0 0 1 2.88 2.91zm13.93 5.38h5.04l-4.83 17.92H63.1l-4.83-17.92h4.97l3.54 14.51 3.54-14.51zm69.32 13.47c-2.67 0-4.65-1.77-4.65-4.51 0-2.78 1.98-4.52 4.65-4.52 2.71 0 4.66 1.74 4.66 4.52 0 2.74-1.95 4.51-4.66 4.51zm0-13.86c-5.24 0-9.13 3.79-9.13 9.35 0 5.55 3.89 9.34 9.13 9.34 5.25 0 9.14-3.79 9.14-9.34 0-5.56-3.9-9.35-9.14-9.35zm-29.2.87l-2.2 4.9c-.8-.56-1.66-.8-2.6-.8-1.53 0-2.7.73-3.33 1.91v11.43H97.7V126.2l-.77-3.5h4.76l.49 2.25a5.64 5.64 0 0 1 4.93-2.67c1.15 0 2.33.28 3.33.9zm8.75 13c-2.68 0-4.66-1.78-4.66-4.52 0-2.78 1.98-4.52 4.66-4.52 2.7 0 4.65 1.74 4.65 4.52 0 2.74-1.94 4.51-4.65 4.51zm0-13.87c-5.25 0-9.14 3.79-9.14 9.35 0 5.55 3.9 9.34 9.14 9.34s9.13-3.79 9.13-9.34c0-5.56-3.89-9.35-9.13-9.35zm-93.26 7.72c.52-2.05 2.09-3.17 4.45-3.17 2.4 0 3.96 1.12 4.45 3.17h-8.9zm4.45-7.72c-5.21 0-9.03 3.76-9.03 9.35 0 5.7 3.79 9.34 9.65 9.34 2.58 0 5.11-.7 7.23-2.05L36.47 135a11.7 11.7 0 0 1-5.39 1.4c-2.43 0-4.13-.95-4.86-2.68h13c.13-.66.2-1.32.2-2.12 0-5.56-3.86-9.28-9.03-9.28zm12.05 18.3h4.62v-25.87h-4.62v25.88zm-33.3-4.44c-2.68 0-4.66-1.77-4.66-4.51 0-2.78 1.98-4.52 4.65-4.52 2.71 0 4.66 1.74 4.66 4.52 0 2.74-1.95 4.51-4.66 4.51zm9.23-21.43h-4.62v10.11a7.2 7.2 0 0 0-5.55-2.54c-4.62 0-8.2 3.79-8.2 9.35C0 137.2 3.58 141 8.2 141c2.29 0 4.27-.97 5.66-2.64l.48 2.26h4.83l-.8-3.72v-22.16z"/></svg>