<svg xmlns="http://www.w3.org/2000/svg" width="160" height="90" viewBox="0 0 160 90" xmlns:xlink="http://www.w3.org/1999/xlink"><defs><polygon id="a" points=".028 89.972 159.89 89.972 159.89 .26 .028 .26"/></defs><g fill="none" fill-rule="evenodd"><mask id="b" fill="white"><use xlink:href="#a"/></mask><polyline fill="#FFFFFF" points="0 .26 0 90 159.89 45.59 0 .26" mask="url(#b)"/><polyline fill="#9BA9BC" points="2.598 3.798 2.598 86.204 149.419 45.423 2.598 3.798"/><path fill="#FFFFFF" d="M10 46.6c.79 1.43 2.93 1.26 4.84.1-1.85-12.31 9.6-11.82 3.9.37-.56.7 1.3.9 2.4 0l-.04 2.46c-1.93 1.26-3.96.58-4.75-.28-4.57 2.97-10.6 1.02-9.5-4.58-4.08-8 3.17-11.62 7.56-9.64l-.06 3.24c-3.46-1.62-6.24.75-5.38 3.65 4.66-3.35 7.7 5.15 1.04 4.68"/><path fill="#9BA9BC" d="M10.08 44.03c0 .35.28.64.63.64a.64.64 0 1 0-.63-.64m6.87-1.01c-.13.92 0 1.7.27 1.75.28.03.62-.69.74-1.61.13-.93.01-1.71-.27-1.75-.28-.04-.61.68-.74 1.6"/><path fill="#FFFFFF" d="M32.45 35.62c-15.27-2.35-11.99 21.91 1.75 13.43 3.43 2.16 6.65-.6 6.68-2.68 1.04-.01 1.52.46 1.51 1.16L42.35 50l2.28.04.04-2.58c-.01-.9.64-1.28 1.47-1.32l.04-2.57c-.83-.22-1.9.38-1.98.9-.7-1.05-1.81-1.45-3.06-1.47-2.9-6.02-8.45 1.3-3.53 2.93 1.26.18.49 1.5-.65 1.4-1.18-.06-1.24-1.66-1.17-2.64-.1-2.03-3.78-1.04-3.2 1.86-8.38 6.25-11.11-10.84-.2-8.04l.06-2.89"/><path fill="#9BA9BC" d="M37.93 43.41a.47.47 0 1 0 .93.02.47.47 0 0 0-.93-.02"/><path fill="#FFFFFF" d="M48.26 38.06l-.45 5.64-.86-.02-.04 2.53.6.03-.07 4.12 2.5.04.06-3.11c-.02-.36.65-.59 1.05.5 1.23 3.78 5.5 3.93 7.18 2.3l.04-2.88c-1.33.93-3 1.55-4.08.04 8.38-3.47.8-11.01-3.21-3.2h-.78l.56-5.97-2.5-.02"/><path fill="#9BA9BC" d="M54.03 43.76c-.32.44-.4.92-.19 1.07.21.15.64-.08.96-.52.32-.44.41-.92.2-1.07-.21-.16-.65.08-.97.52"/><path fill="#FFFFFF" d="M63.1 31.8l.68 10.7c-4.02 3.91-4.53 14.62-.3 14.89 4.62-.36 3.28-10.76 3.2-11.64-.54-2.12 1.77-1.21 1.95.29l.19 4.84 2.74.04.06-4.06c.05-1.75 2.12-1.72 2.12.08l-.05 3.3 2.9.04.04-3.24c-.37-5.73-4.68-4.81-5.84-3.29a4.14 4.14 0 0 0-4.4-2.54l-.63-9.44-2.66.04"/><path fill="#9BA9BC" d="M63.3 50.21c-.08 1.59.08 2.88.36 2.9.28.01.58-1.26.66-2.85.08-1.59-.08-2.88-.36-2.9-.29-.01-.58 1.26-.66 2.85"/><path fill="#FFFFFF" d="M82.37 57.12c3.46.32 3.98-3.08 3.75-5.11l3.2-2.2c1.05 2.06 5.65 1.85 7.84.54.92.74 3.26.41 3.99-.2l6.53-3.86c1.95-1.18 2.47.71 1.84 1.37-.98.97-2.82 1.5-3.24 1.6l-.04 2.88c7.37-.24 8.88-9.1 3.53-9.08-2.87-.23-7.59 3.92-9.95 4.5 2.77-6.42-8.3-6.88-5.76 1.07-1.14.5-2.14.1-2.55-.53 2.5-3.2 3.57-8.34-.47-9.08-2.48-.42-5.03 3.81-3.2 8.94-.54.23-1.66.57-1.66.57l.06-3.73-2.72-.05c-.75 2-2.76 3.02-3.12 2.63-.41-1.42 1.5-2.94 5.17-3.11l.05-2.86c-4.76.16-7.88 2.6-8.39 5.4-.17 4.1 3.59 3.9 5.91 2.29l-.01.9c-4.53 1.63-4.5 6.75-.76 7.12"/><path fill="#9BA9BC" d="M82.3 53.55c-.03.38.2.71.53.74.32.03.61-.26.64-.64.04-.38-.2-.7-.52-.74-.32-.02-.6.26-.64.64m7.54-9.9c-.14.88-.03 1.62.24 1.66.27.04.6-.63.74-1.5.14-.88.03-1.62-.24-1.67-.27-.04-.6.64-.74 1.51m6.6 2.54c0 .57.29 1.03.66 1.03.37.01.68-.44.7-1 0-.57-.3-1.03-.67-1.04-.37 0-.68.45-.69 1.01"/><polyline fill="#FFFFFF" points="105.796 37.713 107.205 40.131 101.59 43.596 99.867 41.405 105.796 37.713"/></g></svg>