<svg xmlns="http://www.w3.org/2000/svg" width="181" height="60" viewBox="0 0 181 60" xmlns:xlink="http://www.w3.org/1999/xlink"><defs><polygon id="a" points="27.615 33.858 27.615 .288 .387 .288 .387 33.858 27.615 33.858"/></defs><g fill="none" fill-rule="evenodd"><path fill="#9BA9BC" d="M0 39.02v-.11c0-11.27 8.6-20.8 20.69-20.8 6.01 0 10.02 1.43 13.69 4.07.69.52 1.43 1.5 1.43 2.88 0 1.9-1.54 3.5-3.5 3.5-.9 0-1.6-.4-2.17-.8a15.22 15.22 0 0 0-9.74-3.16c-7.4 0-13 6.5-13 14.2v.1c0 8.28 5.44 14.37 13.63 14.37 3.78 0 7.22-1.2 9.68-3.04V42.7h-7.9a3.09 3.09 0 0 1-3.15-3.05c0-1.72 1.43-3.1 3.15-3.1h11.17c2 0 3.55 1.55 3.55 3.57v10.74c0 2.01-.8 3.45-2.46 4.48a25.49 25.49 0 0 1-14.27 4.37C8.25 59.71 0 50.75 0 39.02m43.85-18.79c0-1.9 1.5-3.45 3.44-3.45 1.95 0 3.5 1.55 3.5 3.45v35.63a3.43 3.43 0 0 1-3.5 3.45c-1.9 0-3.44-1.5-3.44-3.45V20.23zm37.63 23.8v-.12c0-5.35-3.84-9.77-9.28-9.77-5.56 0-9.11 4.36-9.11 9.65v.12c0 5.29 3.84 9.7 9.22 9.7 5.62 0 9.17-4.36 9.17-9.59m-25.32 0v-.11c0-8.68 6.87-15.86 16.15-15.86 9.29 0 16.1 7.06 16.1 15.74v.12c0 8.62-6.87 15.8-16.21 15.8-9.23 0-16.04-7.07-16.04-15.69m49.56 15.58h-.34c-1.89 0-3.15-1.21-3.95-3.05L91.35 33.39c-.18-.52-.4-1.1-.4-1.72a3.47 3.47 0 0 1 3.43-3.34c1.89 0 2.87 1.1 3.44 2.53l7.8 20.11 7.9-20.22c.51-1.2 1.43-2.42 3.26-2.42a3.3 3.3 0 0 1 3.39 3.34c0 .63-.23 1.32-.4 1.66l-10.09 23.22c-.8 1.78-2.06 3.05-3.96 3.05m42.3-15.58v-.11c0-5.35-3.84-9.77-9.28-9.77-5.56 0-9.11 4.36-9.11 9.65v.12c0 5.29 3.84 9.7 9.22 9.7 5.62 0 9.17-4.36 9.17-9.59m-25.33 0v-.11c0-8.68 6.88-15.86 16.16-15.86 9.28 0 16.1 7.06 16.1 15.74v.12c0 8.62-6.87 15.8-16.21 15.8-9.23 0-16.05-7.07-16.05-15.69"/><g transform="translate(152.547 .212)"><mask id="b" fill="white"><use xlink:href="#a"/></mask><path fill="#9BA9BC" d="M19.6 17.97l-.37.54L14 25.9l-5.22-7.38-.38-.54A6.92 6.92 0 0 1 14 7.01a6.93 6.93 0 0 1 5.6 10.96M14 .3A13.65 13.65 0 0 0 2.95 21.9l.37.5 7.09 10.04s.86 1.42 2.75 1.42h1.69c1.89 0 2.75-1.42 2.75-1.42l7.09-10.03.36-.5A13.65 13.65 0 0 0 14 .28" mask="url(#b)"/></g><path fill="#9BA9BC" d="M162.72 40.23v-.03a3.72 3.72 0 0 1 3.8-3.73 3.69 3.69 0 0 1 3.78 3.7v.03a3.72 3.72 0 0 1-3.81 3.72 3.68 3.68 0 0 1-3.77-3.7"/></g></svg>