<svg xmlns="http://www.w3.org/2000/svg" width="269" height="71" viewBox="0 0 269 71" xmlns:xlink="http://www.w3.org/1999/xlink"><defs><polygon id="a" points=".045 .274 34.857 .274 34.857 8.1 22.106 8.1 22.106 42.6 12.751 42.6 12.751 8.1 .045 8.1 .045 .274"/><path id="c" d="M15.21 40.52c-1.63 1.07-3.89 1.6-6.79 1.6-.87 0-1.74-.03-2.59-.1-.86-.05-1.72-.12-2.6-.2V34.9l2.45.23c.83.08 1.67.1 2.5.06a3.3 3.3 0 0 0 2.48-1.3c.53-.75.8-1.58.8-2.5 0-.66-.12-1.3-.36-1.89L.32.74h9l6.97 20.99h.12L23.14.74h8.76L19.03 35.18c-.92 2.5-2.19 4.27-3.82 5.34z"/><path id="e" d="M8.39 1.49V5.4h.12a9.28 9.28 0 0 1 3.93-3.61A12.13 12.13 0 0 1 17.7.66c2.42 0 4.5.45 6.25 1.36 1.75.91 3.2 2.12 4.35 3.62 1.15 1.5 2 3.25 2.56 5.25s.84 4.08.84 6.25c0 2.05-.28 4.03-.84 5.93-.55 1.9-1.4 3.57-2.53 5.04a12.52 12.52 0 0 1-4.23 3.5c-1.69.86-3.66 1.3-5.93 1.3-1.9 0-3.66-.39-5.27-1.16a9.96 9.96 0 0 1-3.96-3.4H8.8v15H.35V1.48h8.04zm11 24.27a6.77 6.77 0 0 0 2.26-2.16c.58-.89.98-1.92 1.22-3.11a18.26 18.26 0 0 0-.03-7.23 9.61 9.61 0 0 0-1.28-3.18 6.44 6.44 0 0 0-5.72-3.11c-1.39 0-2.55.3-3.48.86a6.95 6.95 0 0 0-2.27 2.23 9.2 9.2 0 0 0-1.22 3.14 18.63 18.63 0 0 0 .03 7.29 9.3 9.3 0 0 0 1.25 3.11 6.67 6.67 0 0 0 2.3 2.16c.95.56 2.1.83 3.45.83 1.4 0 2.55-.27 3.49-.83z"/><path id="g" d="M10.68 24.79c1.27 1.22 3.1 1.83 5.48 1.83 1.71 0 3.18-.42 4.41-1.27 1.23-.85 1.99-1.75 2.27-2.7h7.45c-1.2 3.68-3.02 6.3-5.49 7.89-2.46 1.58-5.44 2.37-8.93 2.37-2.43 0-4.61-.39-6.56-1.16a13.6 13.6 0 0 1-4.94-3.29 14.8 14.8 0 0 1-3.13-5.1 18.57 18.57 0 0 1-1.1-6.52c0-2.29.37-4.42 1.13-6.4a15 15 0 0 1 3.22-5.13 15.14 15.14 0 0 1 4.97-3.4 16 16 0 0 1 6.4-1.25c2.63 0 4.91.5 6.86 1.51 1.94 1 3.54 2.36 4.8 4.06a16.66 16.66 0 0 1 2.7 5.81c.56 2.18.76 4.45.6 6.82H8.6c.12 2.72.81 4.7 2.08 5.93zm9.57-16.13C19.23 7.56 17.69 7 15.63 7a7.4 7.4 0 0 0-3.37.68 6.16 6.16 0 0 0-3.28 3.82 9.57 9.57 0 0 0-.38 2.02h13.76c-.4-2.13-1.1-3.75-2.11-4.86z"/><path id="i" d="M.13 17.58v-5.63h5.06V9.58c0-2.73.85-4.96 2.56-6.7 1.71-1.74 4.3-2.6 7.75-2.6.75 0 1.5.02 2.26.08l2.2.15V6.8c-.99-.12-2.02-.18-3.1-.18-1.14 0-1.97.26-2.46.8-.5.53-.75 1.43-.75 2.7v1.83h5.84v5.63h-5.84V42.6H5.2V17.58H.13z"/><path id="k" d="M1.83 10.17c.75-2 1.82-3.7 3.22-5.1a14.43 14.43 0 0 1 5-3.25A17.65 17.65 0 0 1 16.6.66c2.43 0 4.62.38 6.59 1.16 1.97.77 3.65 1.85 5.03 3.26 1.4 1.4 2.47 3.1 3.22 5.1.76 1.99 1.13 4.21 1.13 6.66s-.37 4.67-1.13 6.64a14.36 14.36 0 0 1-3.22 5.07 14 14 0 0 1-5.03 3.23 18.35 18.35 0 0 1-6.59 1.13c-2.42 0-4.6-.38-6.55-1.13a14.06 14.06 0 0 1-5-3.23c-1.4-1.4-2.47-3.1-3.22-5.07A18.46 18.46 0 0 1 .7 16.84c0-2.45.37-4.67 1.13-6.67zM9.5 20.43a9.5 9.5 0 0 0 1.23 3.14 6.48 6.48 0 0 0 2.29 2.22c.95.56 2.14.83 3.57.83a7.2 7.2 0 0 0 3.6-.83 6.42 6.42 0 0 0 2.33-2.22c.58-.93.99-1.98 1.23-3.14a17.92 17.92 0 0 0 0-7.2 9.23 9.23 0 0 0-1.23-3.15 6.78 6.78 0 0 0-2.32-2.22A7 7 0 0 0 16.6 7c-1.44 0-2.63.29-3.58.86a6.85 6.85 0 0 0-2.3 2.22 9.18 9.18 0 0 0-1.22 3.15 18.33 18.33 0 0 0 0 7.2z"/><path id="m" d="M8.36 1.49v5.69h.12a10.3 10.3 0 0 1 3.94-4.71c.87-.57 1.8-1.02 2.8-1.34.99-.31 2.02-.47 3.1-.47.55 0 1.17.1 1.84.3v7.82a16.61 16.61 0 0 0-3.04-.3c-1.55 0-2.86.26-3.93.78a6.8 6.8 0 0 0-2.6 2.1 8.4 8.4 0 0 0-1.4 3.11 16.9 16.9 0 0 0-.4 3.86v13.8H.31V1.5h8.04z"/><path id="o" d="M8.62 1.49v4.15h.11A10.96 10.96 0 0 1 18.15.66c1.94 0 3.72.38 5.33 1.13a7.47 7.47 0 0 1 3.67 3.97 13.06 13.06 0 0 1 3.72-3.56A9.94 9.94 0 0 1 36.44.66c1.63 0 3.14.2 4.53.6 1.4.39 2.58 1.02 3.58 1.89.99.87 1.76 2 2.32 3.4.55 1.41.83 3.1.83 5.08v20.5h-8.46V14.78c0-1.03-.04-2-.12-2.9-.08-.92-.3-1.7-.65-2.38a3.97 3.97 0 0 0-1.58-1.6c-.7-.4-1.64-.6-2.83-.6-1.2 0-2.16.24-2.9.69a4.94 4.94 0 0 0-1.72 1.78c-.42.73-.7 1.56-.83 2.49-.14.93-.21 1.87-.21 2.81v17.08h-8.46v-17.2c0-.9-.02-1.8-.06-2.7-.04-.88-.21-1.7-.51-2.45a3.8 3.8 0 0 0-1.49-1.81 5.66 5.66 0 0 0-3.07-.68c-.4 0-.92.09-1.58.27-.65.17-1.29.5-1.9 1a5.9 5.9 0 0 0-1.58 2.14 8.63 8.63 0 0 0-.66 3.64v17.79H.63V1.49h7.99z"/><polygon id="q" points="7.512 70.955 7.512 0 0 0 0 70.955"/></defs><g fill="none" fill-rule="evenodd"><g transform="translate(0 9.716)"><mask id="b" fill="white"><use xlink:href="#a"/></mask><polygon fill="#9BA9BC" points=".045 42.675 34.932 42.675 34.932 .254 .045 .254" mask="url(#b)"/></g><g transform="translate(28.547 20.926)"><mask id="d" fill="white"><use xlink:href="#c"/></mask><polygon fill="#9BA9BC" points=".255 42.137 31.897 42.137 31.897 .703 .255 .703" mask="url(#d)"/></g><g transform="translate(63.104 20.179)"><mask id="f" fill="white"><use xlink:href="#e"/></mask><polygon fill="#9BA9BC" points=".316 43.422 31.777 43.422 31.777 .643 .316 .643" mask="url(#f)"/></g><g transform="translate(97.66 20.179)"><mask id="h" fill="white"><use xlink:href="#g"/></mask><polygon fill="#9BA9BC" points=".105 32.929 30.936 32.929 30.936 .643 .105 .643" mask="url(#h)"/></g><g transform="translate(128.46 9.716)"><mask id="j" fill="white"><use xlink:href="#i"/></mask><polygon fill="#9BA9BC" points=".045 42.675 19.968 42.675 19.968 .254 .045 .254" mask="url(#j)"/></g><g transform="translate(147.242 20.179)"><mask id="l" fill="white"><use xlink:href="#k"/></mask><polygon fill="#9BA9BC" points=".646 32.929 32.649 32.929 32.649 .643 .646 .643" mask="url(#l)"/></g><g transform="translate(182.55 20.179)"><mask id="n" fill="white"><use xlink:href="#m"/></mask><polygon fill="#9BA9BC" points=".316 32.212 20.238 32.212 20.238 .643 .316 .643" mask="url(#n)"/></g><g transform="translate(205.087 20.179)"><mask id="p" fill="white"><use xlink:href="#o"/></mask><polygon fill="#9BA9BC" points=".586 32.212 47.733 32.212 47.733 .643 .586 .643" mask="url(#p)"/></g><g transform="translate(261.43)"><mask id="r" fill="white"><use xlink:href="#q"/></mask><polygon fill="#9BA9BC" points="-.045 70.955 7.527 70.955 7.527 -.075 -.045 -.075" mask="url(#r)"/></g></g></svg>