<?xml version="1.0" encoding="UTF-8" standalone="no"?>
<svg width="72px" height="72px" viewBox="0 0 72 72" version="1.1" xmlns="http://www.w3.org/2000/svg" xmlns:xlink="http://www.w3.org/1999/xlink">
    <!-- Generator: Sketch 39.1 (31720) - http://www.bohemiancoding.com/sketch -->
    <title>Icon</title>
    <desc>Created with Sketch.</desc>
    <defs></defs>
    <g id="Desktop-v2" stroke="none" stroke-width="1" fill="none" fill-rule="evenodd">
        <g id="Artboard" transform="translate(-117.000000, -2034.000000)" fill="#FA5A8E">
            <g id="iOS" transform="translate(117.000000, 2034.000000)">
                <g id="Icon">
                    <path d="M36,72 C55.882251,72 72,55.882251 72,36 C72,16.117749 55.882251,0 36,0 C16.117749,0 0,16.117749 0,36 C0,55.882251 16.117749,72 36,72 Z" id="Base" opacity="0.199999988"></path>
                    <path d="M24,19.0081112 C24,16.7944925 25.7842933,15 27.990053,15 L44.009947,15 C46.2135924,15 48,16.7912518 48,19.0081112 L48,52.9918888 C48,55.2055075 46.2157067,57 44.009947,57 L27.990053,57 C25.7864076,57 24,55.2087482 24,52.9918888 L24,19.0081112 Z M26,21 L46,21 L46,51 L26,51 L26,21 Z" id="Combined-Shape"></path>
                    <polygon id="Rectangle-6" opacity="0.300000012" points="26 21 46 21 46 51 26 51"></polygon>
                </g>
            </g>
        </g>
    </g>
</svg>