<svg xmlns="http://www.w3.org/2000/svg" viewBox="0 0 29.3 29.3" enable-background="new 0 0 29.3 29.3"><path fill="#fff" d="M14.6 0C6.6 0 0 6.6 0 14.6s6.6 14.6 14.6 14.6c8.1 0 14.6-6.6 14.6-14.6S22.7 0 14.6 0zm6.2 9.2h-.6c-.7 0-1.3-.1-2-.2s-1.4-.1-2.1-.2c-.7-.1-1.3-.1-2-.2-.3 0-.4.1-.5.3 0 .1-.1.2-.1.3v11.4c0 .1 0 .2.1.3.1.2.3.3.5.2 1.5-.6 2.9-1.2 4.4-1.8.2-.1.3-.2.4-.3.1 0 .1-.2.1-.4v-8c0-.1 0-.1.1-.1h.4c.4 0 .9 0 1.3.1v9.2c0 .2-.1.3-.2.5-.2.3-.5.5-.8.6-2.3 1-4.6 2-7 3-.6.2-1.1.5-1.7.7h-.3c-.3-.1-.4-.3-.5-.5V7c.2-.5.5-.7 1-.6.7.1 1.3.2 2 .3 2.2.4 4.3.7 6.5 1.1.5.1.8.3 1 .8v.6z"/></svg>