<svg xmlns="http://www.w3.org/2000/svg" viewBox="0 0 90 90" enable-background="new 0 0 90 90"><path fill="#FFFFFF" d="M45 2c23.7 0 43 19.3 43 43S68.7 88 45 88 2 68.7 2 45 21.3 2 45 2m0-2C20.1 0 0 20.1 0 45s20.1 45 45 45 45-20.1 45-45S69.9 0 45 0z"/><path stroke="#FFFFFF" stroke-miterlimit="10" d="M53.1 33.9" fill="none"/><g stroke="#FFFFFF" stroke-miterlimit="10" fill="none"><path d="M32 24.2v42.9M36.1 24.2v13.5h-4.8M27.8 24.2v13.5h4.8"/></g><g stroke="#FFFFFF" stroke-miterlimit="10" fill="none"><path d="M55.4 50.2v15.5M49.4 65.7h12M51.9 43h7"/><path d="M62.2 43.5c0 3.8-3.1 6.8-6.8 6.8s-6.8-3.1-6.8-6.8V24.2h13.6v19.3z"/></g></svg>
