<svg xmlns="http://www.w3.org/2000/svg" xmlns:xlink="http://www.w3.org/1999/xlink" viewBox="0 0 90 90" enable-background="new 0 0 90 90"><defs><circle id="a" cx="45" cy="45" r="45"/></defs><clipPath id="b"><use xlink:href="#a" overflow="visible"/></clipPath><path stroke="#FFFFFF" stroke-miterlimit="10" d="M4 62.5c13.5.9 14.6 7.3 30.2 7.3 16.8 0 16.8-7.4 33.6-7.4 8.2 0 12.4 1.8 16.6 3.6" fill="none" clip-path="url(#b)"/><defs><circle id="c" cx="45" cy="45" r="45"/></defs><clipPath><use xlink:href="#c" overflow="visible"/></clipPath><defs><circle id="d" cx="45" cy="45" r="45"/></defs><clipPath><use xlink:href="#d" overflow="visible"/></clipPath><defs><circle id="e" cx="45" cy="45" r="45"/></defs><clipPath><use xlink:href="#e" overflow="visible"/></clipPath><path fill="#FFFFFF" d="M45 2c23.7 0 43 19.3 43 43S68.7 88 45 88 2 68.7 2 45 21.3 2 45 2m0-2C20.1 0 0 20.1 0 45s20.1 45 45 45 45-20.1 45-45S69.9 0 45 0z"/><g stroke="#FFFFFF" stroke-miterlimit="10"><path fill="#E2E4DE" d="M62.4 47.8l-5.1 22.5M65.9 32.6l-.5 2.3"/><path d="M43.4 43.1c4.6-6.5 13.2-10.4 22-8.4S80.5 44 81.6 51.8l-38.2-8.7z" fill="none"/></g><circle stroke="#FFFFFF" stroke-miterlimit="10" cx="25.3" cy="24.2" r="5.9" fill="none"/><path stroke="#FFFFFF" stroke-miterlimit="10" fill="none" d="M25.3 18.3v-3.2M25.3 34.1v-3.9M31.5 24.6h3.3M15.7 24.6h4M34.8 24.6M15.7 24.6M29.6 20.2l2.4-2.4M18.5 31.3l2.8-2.8M29.4 28.7l2.6 2.6M18.5 17.8l2.4 2.4"/></svg>
