<svg xmlns="http://www.w3.org/2000/svg" viewBox="0 0 90 90" enable-background="new 0 0 90 90"><path fill="#FFFFFF" d="M45 2c23.7 0 43 19.3 43 43S68.7 88 45 88 2 68.7 2 45 21.3 2 45 2m0-2C20.1 0 0 20.1 0 45s20.1 45 45 45 45-20.1 45-45S69.9 0 45 0z"/><path stroke="#FFFFFF" stroke-miterlimit="10" fill="none" d="M15.4 31.8h59.4v29.9H15.4zM20.5 36.4v20.9"/><path fill="#FFFFFF" d="M48.2 50c0 .5-.1 1-.2 1.4-.2.4-.4.7-.6.9-.2.2-.5.4-.8.5-.3.1-.6.2-.9.2-.8 0-1.4-.2-1.9-.7-.5-.5-.7-1.1-.7-1.9v-1.5h1.4v1.5c0 .4.1.8.3 1.1.2.3.5.4.8.4.4 0 .7-.1.9-.4.2-.2.3-.6.3-1 0-.6-.1-1.3-.4-1.8-.2-.6-.6-1.2-1.2-1.9-.2-.3-.5-.6-.7-1-.2-.4-.5-.8-.7-1.1-.2-.4-.4-.8-.5-1.2-.1-.4-.2-.8-.2-1.2 0-.4.1-.8.2-1.2.1-.4.3-.7.5-.9.2-.3.5-.5.8-.6.3-.1.7-.2 1.1-.2.7 0 1.3.2 1.7.7.4.5.7 1.1.7 1.9v1.6h-1.4v-1.5c0-.5-.1-.8-.3-1.1-.2-.3-.4-.4-.8-.4-.7 0-1.1.4-1.1 1.2 0 .4 0 .7.1 1l.3.9c.1.3.3.6.5.9.2.3.5.7.8 1.1.6.8 1.1 1.5 1.4 2.2.4.6.6 1.3.6 2.1z"/><path stroke="#FFFFFF" stroke-miterlimit="10" fill="none" d="M45.6 37.4v2.8M45.6 52.3v2.8M69.8 36.4v20.9"/></svg>
