<svg xmlns="http://www.w3.org/2000/svg" viewBox="0 0 90 90" enable-background="new 0 0 90 90"><path fill="#FFFFFF" d="M45 2c23.7 0 43 19.3 43 43S68.7 88 45 88 2 68.7 2 45 21.3 2 45 2m0-2C20.1 0 0 20.1 0 45s20.1 45 45 45 45-20.1 45-45S69.9 0 45 0z"/><g stroke="#FFFFFF" stroke-miterlimit="10" fill="none"><path d="M45.8 48.2l12.4-12.9H39.1L24.8 49.5h17.3"/><circle cx="25.4" cy="49.5" r="11.1"/><circle cx="64.5" cy="49.5" r="11.1"/><path d="M64.2 49.5l-7.1-20.1M43.5 47.5l-6.4-18.1"/><circle cx="44.2" cy="49.5" r="2.1"/><path d="M32.5 29.4h8.1M54.8 29.4h8.1s3.1 4.3-2.3 4.3"/></g><path stroke="#FFFFFF" stroke-miterlimit="10" fill="none" d="M3.5 60.6H87"/></svg>
