<svg xmlns="http://www.w3.org/2000/svg" viewBox="0 0 90 90" enable-background="new 0 0 90 90"><path fill="#FFFFFF" d="M45 2c23.7 0 43 19.3 43 43S68.7 88 45 88 2 68.7 2 45 21.3 2 45 2m0-2C20.1 0 0 20.1 0 45s20.1 45 45 45 45-20.1 45-45S69.9 0 45 0z"/><g fill="#FFFFFF"><path d="M32.2 33.1c-2.4 0-4.3 1.9-4.3 4.3s1.9 4.3 4.3 4.3 4.3-1.9 4.3-4.3c0-2.3-1.9-4.3-4.3-4.3zm0 7.5c-1.7 0-3.2-1.4-3.2-3.2 0-1.7 1.4-3.2 3.2-3.2 1.7 0 3.2 1.4 3.2 3.2 0 1.8-1.4 3.2-3.2 3.2z"/><circle cx="33.3" cy="36.4" r=".9"/><circle cx="33.3" cy="38.5" r=".9"/><circle cx="31.2" cy="38.5" r=".9"/><circle cx="31.2" cy="36.4" r=".9"/></g><path stroke="#FFFFFF" stroke-miterlimit="10" fill="none" d="M53.2 21.5l11.2 4.1v42.9H24.5V25.6l11.3-4.1M44.6 27.8L38 25.7l-2.2-4.2 3.2-4.3h11l3.2 4.3-2.2 4.2-6.6 2.1M44.6 27.8M50.7 16.7M39.3 16.7M44.4 27.8M27.7 61.1M28.8 60.3l7.1-6.6M60.4 60.3l-7.1-6.6"/><path stroke="#FFFFFF" stroke-miterlimit="10" fill="none" d="M25.6 68.5h37.5v3.3H25.6zM39 17.2l5.6 10.6v37.7M50 17.2l-5.5 10.4"/></svg>
