<svg xmlns="http://www.w3.org/2000/svg" viewBox="0 0 90 90" enable-background="new 0 0 90 90"><path fill="#FFFFFF" d="M45 2c23.7 0 43 19.3 43 43S68.7 88 45 88 2 68.7 2 45 21.3 2 45 2m0-2C20.1 0 0 20.1 0 45s20.1 45 45 45 45-20.1 45-45S69.9 0 45 0z"/><path stroke="#FFFFFF" stroke-miterlimit="10" d="M78.9 52.5V42.1c0-4-2.7-7.2-6-7.2s-6 3.2-6 7.2v19.2c0 4-2.6 7.2-5.9 7.2-3.2 0-5.9-3.2-5.9-7.2V41.5M55.2 41.5L63.4 31c2.5-3.1 2.8-5.7.8-5.7h-3.7M55.2 41.5L47 31.1c-2.5-3.1-2.8-5.7-.8-5.7h4.2M50.4 24.2v2.5M60.5 24.2v2.5" fill="none"/><circle stroke="#FFFFFF" stroke-miterlimit="10" cx="78.9" cy="55.5" r="2.8" fill="none"/><g stroke="#FFFFFF" stroke-miterlimit="10" fill="none"><path d="M41.9 51.1h1.9M9.8 51.1h1.9"/><path d="M11.7 43.3h3.5v15.4h-3.5zM15.2 41h3.6v20h-3.6zM38.4 43.3h3.5v15.4h-3.5zM34.8 41h3.6v20h-3.6z"/></g><path stroke="#FFFFFF" stroke-miterlimit="10" fill="none" d="M34.8 51.1h-16"/></svg>
