<svg xmlns="http://www.w3.org/2000/svg" viewBox="0 0 72 72" enable-background="new 0 0 72 72"><g><path fill="#2D2C2A" d="M51.8 47.2H17.5c-2.7 0-4.9-2.2-4.9-4.9v-24c0-2.7 2.2-4.9 4.9-4.9h34.3c2.7 0 4.9 2.2 4.9 4.9v24c0 2.7-2.2 4.9-4.9 4.9zM17.5 14.6c-2 0-3.7 1.6-3.7 3.7v24c0 2 1.6 3.7 3.7 3.7h34.3c2 0 3.7-1.6 3.7-3.7v-24c0-2-1.6-3.7-3.7-3.7H17.5zM13.2 21.9h42.9v1.2H13.2zM58.7 55.8H24.3c-2.7 0-4.9-2.2-4.9-4.9v-4.3h1.2v4.3c0 2 1.6 3.7 3.7 3.7h34.3c2 0 3.7-1.6 3.7-3.7v-24c0-2-1.6-3.7-3.7-3.7H56V22h2.6c2.7 0 4.9 2.2 4.9 4.9v24c.1 2.7-2.1 4.9-4.8 4.9zM56.1 30.5H63v1.2h-6.9zM19.2 19.7c-.8 0-1.5-.7-1.5-1.5s.7-1.5 1.5-1.5 1.5.7 1.5 1.5c0 .9-.7 1.5-1.5 1.5zm0-1.7c-.1 0-.2.1-.2.2 0 .3.5.3.5 0-.1-.1-.2-.2-.3-.2zM24.3 19.7c-.8 0-1.5-.7-1.5-1.5s.7-1.5 1.5-1.5 1.5.7 1.5 1.5c0 .9-.7 1.5-1.5 1.5zm0-1.7c-.1 0-.2.1-.2.2 0 .3.5.3.5 0 0-.1-.1-.2-.3-.2zM29.5 19.7c-.8 0-1.5-.7-1.5-1.5s.7-1.5 1.5-1.5 1.5.7 1.5 1.5c0 .9-.7 1.5-1.5 1.5zm0-1.7c-.1 0-.2.1-.2.2 0 .3.5.3.5 0-.1-.1-.2-.2-.3-.2z"/></g></svg>