<svg xmlns="http://www.w3.org/2000/svg" viewBox="0 0 78.3 64.2" enable-background="new 0 0 78.3 64.2"><g><path d="M67.8 64.2H6.1c-3.4 0-6.1-2.7-6.1-6.1V58c0-.3.2-.5.5-.5h73c.3 0 .5.2.5.5v.2c0 3.3-2.8 6-6.2 6zM1 58.5c.2 2.7 2.4 4.8 5.1 4.8h61.7c2.7 0 4.9-2.1 5.1-4.8H1zM4.7 58.5c-.3 0-.5-.2-.5-.5V22.9c0-3.4 2.7-6.1 6.1-6.1h26.8c.3 0 .5.2.5.5s-.2.5-.5.5H10.3c-2.8 0-5.1 2.3-5.1 5.1V58c0 .2-.2.5-.5.5zM69.2 58.5c-.3 0-.5-.2-.5-.5V45.8c0-.3.2-.5.5-.5s.5.2.5.5V58c0 .2-.2.5-.5.5zM63.6 52.8H10.3c-.3 0-.5-.2-.5-.5V22.9c0-.3.2-.5.5-.5h24.8c.3 0 .5.2.5.5s-.2.5-.5.5H10.8v28.5h52.3v-4.5c0-.3.2-.5.5-.5s.5.2.5.5v5c0 .2-.2.4-.5.4zM47.7 28.8h-2.4c-3 0-4.5-1.3-4.5-3.8v-5.6c0-2.4 2-4.3 4.5-4.3h2.4c.3 0 .5.2.5.5v12.7c0 .3-.2.5-.5.5zm-2.3-12.7c-2 0-3.5 1.4-3.5 3.3V25c0 2 1 2.8 3.5 2.8h1.9V16.1h-1.9zM73.8 28.8h-2.4c-.3 0-.5-.2-.5-.5V15.6c0-.3.2-.5.5-.5h2.4c2.5 0 4.5 1.9 4.5 4.3V25c0 2.6-1.4 3.8-4.5 3.8zm-1.8-1h1.9c2.5 0 3.5-.8 3.5-2.8v-5.6c0-1.9-1.5-3.3-3.5-3.3H72v11.7zM73.9 16.1c-.3 0-.5-.2-.5-.5v-3.3C73.4 5.5 68.1 1 59.8 1 49.5 1 45.9 7.1 45.9 12.4v3.3c0 .3-.2.5-.5.5s-.5-.2-.5-.5v-3.3C44.9 3.8 52.4 0 59.8 0c8.9 0 14.6 4.9 14.6 12.4v3.3c0 .2-.2.4-.5.4zM69.9 36.5c-.2 0-.4-.1-.5-.3-.1-.3 0-.5.3-.7 4-1.7 5.8-5.3 5.8-7.4 0-.3.2-.5.5-.5s.5.2.5.5c0 2.2-1.7 6.4-6.4 8.3-.1.1-.1.1-.2.1zM66.2 40.5c-2.2 0-4-1.8-4-4s1.8-4 4-4 4 1.8 4 4-1.8 4-4 4zm0-7c-1.7 0-3 1.4-3 3s1.4 3 3 3 3-1.4 3-3-1.3-3-3-3z"/></g></svg>