<svg xmlns="http://www.w3.org/2000/svg" viewBox="0 0 50 50" enable-background="new 0 0 50 50"><path fill="#2D2C2A" d="M17.4 34.4h8.8v1h-8.8zm0-2.8h15.3v1h-15.3zm0-2.8h15.3v1h-15.3zm0-4.8h15.3v1h-15.3zm0-2.8h15.3v1h-15.3zm0-2.8h15.3v1h-15.3zm0-4.8h15.3v1h-15.3zm0-2.8h15.3v1h-15.3zm0-2.8h15.3v1h-15.3zm-6.8 37v-6.6h1v4.6l5.3-4h23v-27.2h-3.6v-1h4.6v29.2h-23.7z"/><path d="M12.4 14.1h-.7v-4.6c-.2.2-.4.3-.7.5-.3.2-.5.3-.8.4v-.7c.5-.2.8-.4 1.1-.7.3-.3.5-.5.6-.8h.5v5.9zm1.1 9.5v.7h-3.9c0-.2 0-.3.1-.5.1-.3.3-.5.5-.8.2-.3.5-.5.9-.9.6-.5 1.1-.9 1.3-1.2.2-.3.3-.6.3-.9 0-.3-.1-.5-.3-.7-.2-.2-.4-.3-.8-.3-.3 0-.6.1-.8.3s-.3.5-.3.9l-.7-.1c.1-.5.2-1 .6-1.3.3-.3.8-.4 1.3-.4.6 0 1 .2 1.3.5s.5.7.5 1.2c0 .2 0 .5-.1.7-.1.2-.3.5-.5.7-.2.2-.6.6-1.1 1-.4.4-.7.6-.8.7l-.3.4h2.8zm-3.8 9.3l.7-.1c.1.4.2.7.4.9.2.2.4.3.7.3.3 0 .6-.1.9-.4.2-.2.3-.5.3-.9 0-.3-.1-.6-.3-.8-.2-.2-.5-.3-.8-.3-.1 0-.3 0-.5.1l.1-.6h.1c.3 0 .6-.1.8-.2s.4-.4.4-.7c0-.3-.1-.5-.3-.7-.2-.2-.4-.3-.7-.3-.3 0-.5.1-.7.3-.2.2-.3.4-.4.8l-.7-.1c.1-.5.3-.9.6-1.1.3-.3.7-.4 1.2-.4.3 0 .6.1.9.2s.5.3.6.6.2.5.2.8c0 .3-.1.5-.2.7-.1.2-.3.4-.6.5.3.1.6.2.8.5.2.3.3.6.3.9 0 .5-.2.9-.6 1.3-.4.4-.8.5-1.4.5-.5 0-.9-.2-1.3-.5-.3-.4-.4-.8-.5-1.3z"/></svg>