<svg xmlns="http://www.w3.org/2000/svg" viewBox="0 0 49.2 33.3" enable-background="new 0 0 49.2 33.3"><path fill="#2D2C2A" d="M34.1 29.7c-7.2 0-13-5.9-13-13s5.9-13 13-13 13 5.9 13 13-5.8 13-13 13zm0-25.3c-6.7 0-12.2 5.5-12.2 12.2s5.5 12.2 12.2 12.2 12.2-5.5 12.2-12.2S40.8 4.4 34.1 4.4zM8.4 9C6.6 9 5.1 7.6 5.1 5.7s1.5-3.3 3.3-3.3 3.3 1.5 3.3 3.3S10.2 9 8.4 9zm0-5.8C7 3.2 5.9 4.4 5.9 5.7S7 8.2 8.4 8.2s2.5-1.1 2.5-2.5-1.1-2.5-2.5-2.5zM8.4 20c-1.8 0-3.3-1.5-3.3-3.3 0-1.8 1.5-3.3 3.3-3.3s3.3 1.5 3.3 3.3c0 1.8-1.5 3.3-3.3 3.3zm0-5.8c-1.4 0-2.5 1.1-2.5 2.5s1.1 2.5 2.5 2.5 2.5-1.1 2.5-2.5-1.1-2.5-2.5-2.5zM8.4 30.9c-1.8 0-3.3-1.5-3.3-3.3 0-1.8 1.5-3.3 3.3-3.3s3.3 1.5 3.3 3.3c0 1.8-1.5 3.3-3.3 3.3zm0-5.8c-1.4 0-2.5 1.1-2.5 2.5C5.9 28.9 7 30 8.4 30s2.5-1.1 2.5-2.5c0-1.3-1.1-2.4-2.5-2.4zM22.3 11.4L17 6.1h-5.7v-.8h6.1l5.5 5.5zM17.4 27.8h-6.1v-.9H17l5.3-5.3.6.7zM11.3 16.2h10.2v.9H11.3z"/></svg>