<svg xmlns="http://www.w3.org/2000/svg" width="42" height="42" viewBox="0 0 42 42"><path stroke="#231F20" stroke-linecap="round" stroke-miterlimit="10" d="M74.3-48.7c.9-.2 3.8-1.1 3.8-4.5 0-2.5-2.1-4.6-4.7-4.5-1-2.1-3.2-3.6-5.7-3.6-3.4 0-6.1 2.6-6.3 5.9-2.1-.4-4.1 1.2-4.1 3.3 0 3.4 3.6 3.4 3.6 3.4" fill="none"/><g stroke="#231F20" stroke-linecap="round" stroke-linejoin="round" stroke-miterlimit="10" fill="none"><path d="M63.2-48.4h9v6.7h-9zm4.5 4.9v-1.6"/><circle cx="67.7" cy="-45.9" r=".7"/><path d="M65.1-48.4v-1.1c0-1.6 1.1-2.6 2.6-2.6 1.6 0 2.6 1.1 2.6 2.6v1.2"/></g><path d="M27.5 20.3h-4v-4h-5v4h-4v5h4v4h5v-4h4zm8-5c0-1.7-1.4-3-3-3h-23c-1.7 0-3 1.4-3 3v14c0 1.7 1.4 3 3 3h23c1.7 0 3-1.4 3-3v-14zm-19-3v-2c0-1.1.9-2 2-2h5c1.1 0 2 .9 2 2v2" stroke="#000" stroke-width=".75" stroke-linecap="round" stroke-linejoin="round" stroke-miterlimit="10" fill="none"/></svg>