<svg xmlns="http://www.w3.org/2000/svg" width="42" height="42" viewBox="0 0 42 42"><g stroke="#000" stroke-width=".75" stroke-linecap="round" stroke-linejoin="round" stroke-miterlimit="10" fill="none"><circle cx="11.7" cy="30.3" r="2.6"/><circle cx="30.2" cy="30.3" r="2.6"/><path d="M9.2 30.8h-3.2v-7.7l3.1-2.6 3.1-5.1h6.2v-3.1h17.4v18.5h-3.1m-18.5 0h13.5m-12.9-13.4h-1.1l-2 4.1m6.7-6.7v12.9m-12.4 0h29.8m-17.4-15.4v-1.5c0-1.4 1.2-2.6 2.6-2.6 1.4 0 2.6 1.2 2.6 2.6v1.5"/><path d="M31.7 18.4h-3.1v-3h-3v3h-3.1v3.1h3.1v3.1h3v-3.1h3.1z"/></g></svg>