<svg xmlns="http://www.w3.org/2000/svg" viewBox="0 0 72 72" enable-background="new 0 0 72 72"><g><circle cx="34.7" cy="36" r="35" fill="none"/><path fill="#231F20" d="M56.3 50.6H13.1c-.3 0-.5-.2-.5-.5V21.8c0-.3.2-.5.5-.5h43.2c.3 0 .5.2.5.5v28.3c0 .3-.3.5-.5.5zm-42.7-1h42.2V22.3H13.6v27.3zM31.7 40.9s-.1 0 0 0c-.3 0-.4-.2-.5-.3l-3-7.3-3.6 3.7c-.1.1-.2.2-.4.2h-6.7c-.3 0-.5-.2-.5-.5s.2-.5.5-.5H24l4-4.2c.1-.1.3-.2.5-.1s.3.1.4.3l3 7.4 4.7-4.7c.2-.2.5-.2.7 0l3.3 3.3 6.3-7.8c.2-.2.5-.2.7-.1.2.2.2.5.1.7L41 39.2c-.1.1-.2.2-.4.2-.1 0-.3 0-.4-.1l-3.4-3.4-4.9 4.9c.1.1-.1.1-.2.1zM51.8 46.1H17.6c-.3 0-.5-.2-.5-.5V26.3c0-.3.2-.5.5-.5h34.2c.3 0 .5.2.5.5v19.3c0 .3-.2.5-.5.5zm-33.7-1h33.2V26.8H18.1v18.3z"/></g></svg>