<svg xmlns="http://www.w3.org/2000/svg" viewBox="0 0 72 72" enable-background="new 0 0 72 72"><g stroke="#2D2C2A" stroke-miterlimit="10" fill="none"><path d="M36.4 14.5v17.3M36.4 31.8l-15.1 8.6M36.4 31.8l15.1 8.6"/></g><g stroke="#000" stroke-width=".5" stroke-miterlimit="10"><path d="M11.9 25.9c0 1 .6 1.7 1.6 1.7s1.6-.7 1.6-1.7V13.8h.4V26c0 1.2-.9 2.1-2 2.1-1.2 0-2-.9-2-2.1v-2.5h.4v2.4zM22.1 19.8c0 1.2-.6 1.9-1.7 1.9h-1.8v6.1h-.4v-14h2.2c1.1 0 1.7.7 1.7 1.9v4.1zm-1.7-5.7h-1.8v7.2h1.8c.5 0 1.3-.2 1.3-1.6v-4c0-1.3-.8-1.6-1.3-1.6zM27.1 21.4V21h1.4v4.8c0 1.3-.9 2.2-2.1 2.2-1.2 0-2.1-.9-2.1-2.2v-10c0-1.3.9-2.2 2.1-2.2 1.2 0 2.1.9 2.1 2.2v1.5h-.4v-1.5c0-1.1-.6-1.8-1.7-1.8s-1.7.8-1.7 1.8v10c0 1.1.7 1.8 1.7 1.8s1.7-.7 1.7-1.8v-4.4h-1z"/></g><g stroke="#000" stroke-width=".5" stroke-miterlimit="10"><path d="M31.3 50.2c0 1.2-.6 1.9-1.7 1.9h-1.8v6.1h-.4v-14h2.2c1.1 0 1.7.7 1.7 1.9v4.1zm-1.7-5.7h-1.8v7.2h1.8c.5 0 1.3-.2 1.3-1.6v-4c0-1.3-.8-1.6-1.3-1.6zM38.3 58.3h-.7L34 44.5v13.8h-.4V44.1h.6l3.7 13.8V44.2h.4v14.1zM43.7 51.8v-.4h1.4v4.8c0 1.3-.9 2.2-2.1 2.2-1.2 0-2.1-.9-2.1-2.2v-10c0-1.3.9-2.2 2.1-2.2 1.2 0 2.1.9 2.1 2.2v1.5h-.4v-1.5c0-1.1-.6-1.8-1.7-1.8s-1.7.8-1.7 1.8v10c0 1.1.7 1.8 1.7 1.8s1.7-.7 1.7-1.8v-4.4h-1z"/></g><g stroke="#000" stroke-width=".5" stroke-miterlimit="10"><path d="M48.3 22.4V22h1.4v4.8c0 1.3-.9 2.2-2.1 2.2-1.2 0-2.1-.9-2.1-2.2v-10c0-1.3.9-2.2 2.1-2.2 1.2 0 2.1.9 2.1 2.2v1.5h-.4v-1.5c0-1.1-.6-1.8-1.7-1.8s-1.7.8-1.7 1.8v10c0 1.1.7 1.8 1.7 1.8s1.7-.7 1.7-1.8v-4.4h-1zM52.2 28.8v-14h.4v14h-.4zM55.3 14.8h3v.4h-2.6v6.4h2.1v.4h-2.1v6.9h-.4V14.8z"/></g></svg>