<svg xmlns="http://www.w3.org/2000/svg" width="42" height="42" viewBox="0 0 42 42"><g stroke="#000" stroke-width=".75" stroke-linecap="round" stroke-linejoin="round" stroke-miterlimit="10" fill="none"><circle cx="21" cy="21" r="15"/><path d="M32.1 10.9s-.7 3.6-3.3 4.9c-2.6-.7-5.2 1.3-4.6 1.3.7 0 1.3 2.6 1.3 2.6.7.7 2 0 2 0 1.6 1.6-2.6 4.6-2.6 5.2 0 .7 1.6 1 .7 2-1 1-2 1.3-2 1.3 0 3.3-3.3 3.3-3.9 3.3-.7 0-2-2.6-2-3.3l.7-2c0-.7-1.3-2-1.3-2 0-2.6-2-2-3.9-2-2 0-2-2.6-2-2.6s0-4.6 3.3-5.2c3.3-.7 3.3.7 3.3.7 1.3 1.3 3.9 0 5.2 0 0 0 .7-4.6-.7-3.9-1.3.7-2.5.1-2.6-1.3-.2-2 5.7-3.3 5.7-3.3"/></g></svg>