<svg xmlns="http://www.w3.org/2000/svg" viewBox="0 0 70.8 58.7" enable-background="new 0 0 70.8 58.7"><g stroke="#000" stroke-linecap="round" stroke-miterlimit="10" fill="none"><path d="M63.1 48.6h3.6c2 0 3.6-1.6 3.6-3.6V4.1c0-2-1.6-3.6-3.6-3.6H4.1C2.1.5.5 2.1.5 4.1V45c0 2 1.6 3.6 3.6 3.6h20.5M24.6 43.8H5.3V5.3h60.2v38.5h-2.4"/><path d="M44 35.6V24.7c0-1.7-1.4-2.5-2.5-2.5h-1.7c-1.1 0-2.5.8-2.5 2.5V44l-2.5-4.2c-.4-.5-1.1-.9-1.7-.9H31c-.7 0-1.4.4-1.8 1-.4.6-.4 1.4 0 2L37 57.1c.4.7 1.3 1.1 2.1 1.1h13.4c.8 0 1.4-.5 1.7-1.3l3.4-15c0-.9-.4-1.8-1.2-2.1L44 35.6zM16.3 14.6h4.2M16.3 23h4.2M16.3 31.4h4.2M47.7 14.6H52M47.7 23H52M47.7 31.4h4.2M26.4 14.6h4.2M26.4 23h4.2M26.4 31.4h4.2M37.3 14.6h4.2"/></g></svg>