<svg xmlns="http://www.w3.org/2000/svg" width="50.427" height="48.3" viewBox="0 0 50.4274445 48.3000336" enable-background="new 0 0 50.4274445 48.3000336"><g stroke="#2D2C2A" stroke-miterlimit="10" fill="none"><path d="M7.67 37.459l9.074 2.42 8.469-2.42 8.469 2.42 9.074-2.42-1.815-29.037-8.469 2.42-7.339-2.42-7.785 2.42-7.864-2.42zm30.492-21.721c.661 2.222-1.448 4.211-3.685 3.326-.635-.251-1.15-.766-1.401-1.401-.885-2.237 1.104-4.345 3.326-3.685.84.25 1.51.919 1.759 1.759zm-21.608 8.439c.392 2.066-1.386 3.844-3.452 3.452-1.148-.218-2.086-1.156-2.304-2.304-.392-2.066 1.386-3.844 3.452-3.452 1.148.218 2.086 1.156 2.304 2.304z"/><circle cx="36.849" cy="32.624" r="3.154"/><path d="M13.677 24.751m3.71-1.501c11.103-3.515 16.652 3.957 18.613 7.567m.849 1.807-1.276-16.056-3.603-1.207c-10.693-2.786-15.275 3.618-17.443 7.696m-.85 1.694"/></g></svg>