<svg xmlns="http://www.w3.org/2000/svg" viewBox="0 0 50 50" enable-background="new 0 0 50 50"><path fill="#2D2C2A" d="M38.9 38.8h-.9v-5.5c-.2.2-.5.4-.8.6-.3.2-.6.3-.9.4v-.8c.5-.2.9-.5 1.3-.8.4-.3.6-.6.8-.9h.6v7zm-21.1 4v-5.9h-6.3v-21.6h33.4v13.6h-1v-12.6h-31.4v19.6h6.3v4.5l4.3-4.5h6.3v1h-5.9zm-7.2-9.2h-2.4v-21.6h33.4v2.4h-1v-1.4h-31.4v19.6h1.4zm-3.1-3.2h-2.5v-21.5h33.4v2.4h-1v-1.4h-31.4v19.5h1.5zm30.7 12.2c-4 0-7.2-3.2-7.2-7.2s3.2-7.2 7.2-7.2 7.2 3.2 7.2 7.2-3.2 7.2-7.2 7.2zm0-13.4c-3.4 0-6.2 2.8-6.2 6.2 0 3.4 2.8 6.2 6.2 6.2 3.4 0 6.2-2.8 6.2-6.2 0-3.4-2.8-6.2-6.2-6.2z"/></svg>