<svg xmlns="http://www.w3.org/2000/svg" viewBox="0 0 72 72" enable-background="new 0 0 72 72"><g><circle cx="34.7" cy="36" r="35" fill="none"/><path fill="#231F20" d="M34.7 54.9c-.3 0-.5-.2-.5-.5V42.7c0-.3.2-.5.5-.5s.5.2.5.5v11.7c0 .3-.2.5-.5.5zM47.3 54.9c-.3 0-.5-.2-.5-.5.1-1.8-.6-3.6-1.9-5-1.5-1.6-3.7-2.5-6.1-2.5h-8c-4.8 0-8.1 3.1-8.1 7.5 0 .3-.2.5-.5.5s-.5-.2-.5-.5c0-4.9 3.8-8.5 9.1-8.5h8c2.7 0 5.1 1 6.9 2.8 1.5 1.6 2.3 3.6 2.2 5.8-.1.2-.3.4-.6.4zM22.1 61.8c-2.2 0-3.9-1.8-3.9-3.9S20 54 22.1 54s3.9 1.8 3.9 3.9-1.7 3.9-3.9 3.9zm0-6.9c-1.6 0-2.9 1.3-2.9 2.9 0 1.6 1.3 2.9 2.9 2.9s2.9-1.3 2.9-2.9c0-1.6-1.3-2.9-2.9-2.9zM34.7 61.8c-2.2 0-3.9-1.8-3.9-3.9s1.8-3.9 3.9-3.9 3.9 1.8 3.9 3.9-1.7 3.9-3.9 3.9zm0-6.9c-1.6 0-2.9 1.3-2.9 2.9 0 1.6 1.3 2.9 2.9 2.9s2.9-1.3 2.9-2.9c0-1.6-1.3-2.9-2.9-2.9zM47.3 61.8c-2.2 0-3.9-1.8-3.9-3.9s1.8-3.9 3.9-3.9 3.9 1.8 3.9 3.9-1.7 3.9-3.9 3.9zm0-6.9c-1.6 0-2.9 1.3-2.9 2.9 0 1.6 1.3 2.9 2.9 2.9s2.9-1.3 2.9-2.9c0-1.6-1.3-2.9-2.9-2.9zM34.7 43.2c-9.1 0-16.5-7.4-16.5-16.5s7.4-16.5 16.5-16.5 16.5 7.4 16.5 16.5-7.4 16.5-16.5 16.5zm0-32.1c-8.6 0-15.5 7-15.5 15.5s7 15.5 15.5 15.5 15.5-7 15.5-15.5-6.9-15.5-15.5-15.5zM36.4 25.4c-.1 0-.3 0-.4-.1-.2-.2-.2-.5 0-.7l6.3-6.3c.2-.2.5-.2.7 0s.2.5 0 .7l-6.3 6.3c0 .1-.2.1-.3.1zM24.4 27.1h-2.3c-.3 0-.5-.2-.5-.5s.2-.5.5-.5h2.3c.3 0 .5.2.5.5s-.3.5-.5.5zM25.2 23.2H25l-2.1-.9c-.3-.1-.4-.4-.3-.7.1-.3.4-.4.7-.3l2.1.9c.3.1.4.4.3.7-.2.2-.3.3-.5.3zM27.4 19.9c-.1 0-.3 0-.4-.1l-1.6-1.6c-.2-.2-.2-.5 0-.7s.5-.2.7 0l1.6 1.6c.2.2.2.5 0 .7-.1 0-.2.1-.3.1zM30.7 17.6c-.2 0-.4-.1-.5-.3l-.9-2.1c-.1-.3 0-.5.3-.7.3-.1.5 0 .7.3l.9 2.1c.1.3 0 .5-.3.7h-.2zM34.7 16.8c-.3 0-.5-.2-.5-.5V14c0-.3.2-.5.5-.5s.5.2.5.5v2.3c0 .3-.2.5-.5.5zM38.6 17.6h-.2c-.3-.1-.4-.4-.3-.7l.9-2.1c.1-.3.4-.4.7-.3.3.1.4.4.3.7l-.9 2.1c-.1.2-.3.3-.5.3zM44.2 23.2c-.2 0-.4-.1-.5-.3-.1-.3 0-.5.3-.7l2.1-.9c.3-.1.5 0 .7.3.1.3 0 .5-.3.7l-2.1.9h-.2zM47.3 27.1H45c-.3 0-.5-.2-.5-.5s.2-.5.5-.5h2.3c.3 0 .5.2.5.5s-.2.5-.5.5zM46.3 32h-.2l-2.1-.9c-.3-.1-.4-.4-.3-.7.1-.3.4-.4.7-.3l2.1.9c.3.1.4.4.3.7-.1.2-.3.3-.5.3zM23 32c-.2 0-.4-.1-.5-.3-.1-.3 0-.5.3-.7l2.1-.9c.3-.1.5 0 .7.3s0 .5-.3.7l-2.1.9H23zM40.4 37.5H29c-.3 0-.5-.2-.5-.5v-3.4c0-.3.2-.5.5-.5h11.5c.3 0 .5.2.5.5V37c-.1.2-.3.5-.6.5zm-10.9-1H40V34H29.5v2.5zM34.7 29.4c-1.5 0-2.8-1.3-2.8-2.8s1.3-2.8 2.8-2.8 2.8 1.3 2.8 2.8-1.3 2.8-2.8 2.8zm0-4.5c-1 0-1.8.8-1.8 1.8s.8 1.8 1.8 1.8 1.8-.8 1.8-1.8-.8-1.8-1.8-1.8z"/></g></svg>