<svg xmlns="http://www.w3.org/2000/svg" width="72" height="72" viewBox="0 0 72 72"><g stroke="#2D2C2A" stroke-miterlimit="10" fill="none"><circle cx="47.078" cy="25.108" r="19.922"/><path d="M26.108 54.466v2.097M26.108 35.593v2.097M21.914 50.272c0 2.317 1.878 4.194 4.194 4.194s4.194-1.877 4.194-4.194c0-2.316-1.878-4.194-4.194-4.194s-4.194-1.877-4.194-4.194 1.878-4.194 4.194-4.194 4.194 1.877 4.194 4.194M27.212 26.212c-.368-.02-.73-.056-1.104-.056-11 0-19.922 8.92-19.922 19.922C6.186 57.08 15.106 66 26.108 66c11.004 0 19.922-8.92 19.922-19.922 0-.373-.035-.736-.056-1.104"/></g><g stroke="#2D2C2A" stroke-miterlimit="10" fill="none"><path d="M54.774 35.108h-7.29c-3.084 0-3.936-2.046-7.72-2.587V22.23c2.65 0 7.29-4.972 7.29-9.298 0-1.71 2.367-2.347 3.245.777.54 1.927-1.102 5.947-1.102 5.947h7.684c.896 0 1.716.82 1.716 1.716s-.552 2.144-1.716 2.144h-1.35"/><path d="M39.763 34.96h-5.147V20.5l5.147.012zM56.422 23.527c.896 0 1.716.82 1.716 1.716s-.552 2.144-1.716 2.144h-1.94M55.403 27.387c.896 0 1.716.82 1.716 1.716s-.553 2.144-1.717 2.144h-2.636M54.594 31.247c.896 0 1.716.82 1.716 1.716s-.552 2.145-1.716 2.145h-1.35"/></g></svg>