<svg xmlns="http://www.w3.org/2000/svg" viewBox="0 0 72.3 62.5" enable-background="new 0 0 72.3 62.5"><g><path stroke="#000" stroke-linecap="round" stroke-linejoin="round" stroke-miterlimit="10" d="M27.5 55.8c0 3.7-2.7 6.2-6.1 6.2h-9.8c-3.4 0-6.1-1.2-6.1-4.9V5.4C5.5 1.7 8.2.5 11.6.5h9.8c3.4 0 6.1 2.5 6.1 6.1v49.2zM27.5 7.9h39.3c3.7 0 4.9 2.8 4.9 4.5v37.3c0 2.5-2.5 4.9-4.9 4.9H27.5M5.4 55.8H3.6c-1.7 0-3.1-1.4-3.1-3.1V12.4c0-1.7 1.4-3.1 3.1-3.1h1.8" fill="none"/><path stroke="#000" stroke-linecap="round" stroke-linejoin="round" stroke-miterlimit="10" fill="none" d="M38.9 12.6h21.5v12H38.9zM41.1 30.7h-2.5v2.5h2.5v-2.5zM50.9 30.7h-2.5v2.5h2.5v-2.5zM60.7 30.7h-2.4v2.5h2.4v-2.5zM41.1 38.1h-2.5v2.4h2.5v-2.4zM50.9 38.1h-2.5v2.4h2.5v-2.4zM60.7 38.1h-2.4v2.4h2.4v-2.4zM41.1 45.4h-2.5v2.5h2.5v-2.5zM50.9 45.4h-2.5v2.5h2.5v-2.5zM60.7 45.4h-2.4v2.5h2.4v-2.5z"/></g></svg>