<svg xmlns="http://www.w3.org/2000/svg" viewBox="0 0 50 50" enable-background="new 0 0 50 50"><path fill="#2D2C2A" d="M34.7 35.2h5.1v.9h-5.1zM34.7 32.1h5.1v.9h-5.1zM34.7 29.1h5.1v.9h-5.1zM34.7 26.1h5.1v.9h-5.1zM27.1 35.2h5.1v.9h-5.1zM27.1 32.1h5.1v.9h-5.1zM27.1 29.1h5.1v.9h-5.1zM27.1 26.1h5.1v.9h-5.1zM27.1 23.1h5.1v.9h-5.1zM27.1 20h5.1v.9h-5.1zM27.1 17h5.1v.9h-5.1zM27.1 14h5.1v.9h-5.1zM19.5 35.2h5.1v.9h-5.1zM19.5 32.1h5.1v.9h-5.1zM44.7 40.1H14.6v-9.9h.9v9h28.3V10.8H22V10h22.7zM12.7 28c-5.4 0-9.8-4.4-9.8-9.8s4.4-9.8 9.8-9.8 9.8 4.4 9.8 9.8-4.4 9.8-9.8 9.8zm0-18.6c-4.9 0-8.9 4-8.9 8.9s4 8.9 8.9 8.9 8.9-4 8.9-8.9c0-5-4-8.9-8.9-8.9zM9.4 22.6v-8.7l8.7 4.4-8.7 4.3zm.9-7.3v5.9l5.9-2.9-5.9-3z"/></svg>