<svg xmlns="http://www.w3.org/2000/svg" viewBox="0 0 612 792" enable-background="new 0 0 612 792"><path fill="#2D2C2A" d="M282.8 387.4c-2.7-1.3-4-5.3-2.7-7.9 1.3-2.7 5.3-4 8-2.7 2.6 1.3 4 5.3 2.6 8-1.3 2.6-2.6 4-5.3 4-1.3-1.4-1.3-1.4-2.6-1.4zm-22.5-10.6c-2.6-1.3-4-5.3-2.6-7.9 1.3-2.7 5.3-4 7.9-2.7 2.7 1.3 4 5.3 2.7 8-1.3 2.6-4 4-5.3 4-.1-1.4-1.4-1.4-2.7-1.4zm-22.5-10.6c-2.6-1.3-4-5.3-2.6-7.9 1.3-2.7 5.3-4 7.9-2.7 2.6 1.3 4 5.3 2.6 8-1.3 2.6-2.6 4-5.3 4 0-1.4-1.3-1.4-2.6-1.4zm-21.2-10.6c-2.6-1.3-4-5.3-2.6-7.9 1.3-2.7 5.3-4 7.9-2.7 2.6 1.3 4 5.3 2.6 8-1.3 2.6-4 4-5.3 4-1.3-1.4-2.6-1.4-2.6-1.4zM194 345c-2.6-1.3-4-5.3-2.6-7.9 1.3-2.7 5.3-4 7.9-2.7 2.6 1.3 4 5.3 2.6 8-1.3 2.6-4 4-5.3 4-1.2-1.4-2.6-1.4-2.6-1.4zm-22.5-10.6c-2.6-1.3-4-5.3-2.6-7.9 1.3-2.7 5.3-4 7.9-2.7 2.6 1.3 4 5.3 2.6 8-1.3 2.6-2.6 4-5.3 4-1.3-1.4-1.3-1.4-2.6-1.4zM149 323.8c-2.6-1.3-4-5.3-2.6-7.9 1.3-2.7 5.3-4 7.9-2.7 2.6 1.3 4 5.3 2.6 8-1.3 2.6-4 4-5.3 4-1.3-1.4-1.3-1.4-2.6-1.4zm-22.5-10.6c-2.6-1.3-4-5.3-2.6-7.9 1.3-2.7 5.3-4 7.9-2.7 2.6 1.3 4 5.3 2.6 8-1.3 2.6-2.6 4-5.3 4-1.3-1.4-1.3-1.4-2.6-1.4zm-22.6-10.6c-2.6-1.3-4-5.3-2.6-7.9 1.3-2.7 5.3-4 7.9-2.7 2.6 1.3 4 5.3 2.6 8-1.3 2.6-4 4-5.3 4 .1-1.4-1.2-1.4-2.6-1.4zm-22.5-11.9c-2.6-1.3-4-5.3-2.6-7.9 1.3-2.6 5.3-4 7.9-2.6 2.6 1.3 4 5.3 2.6 7.9-1.3 2.6-2.6 4-5.3 4 .1-.1-1.3-.1-2.6-1.4zm-22.5-10.6c-2.6-1.3-4-4-2.6-8 1.3-2.6 5.3-4 9.3-2.6 2.6 1.3 4 5.3 2.6 8-1.3 2.6-2.6 4-5.3 4-1.4-.1-2.7-.1-4-1.4zM276.2 394c-4 0-6.6-2.6-5.3-6.6 0-4 2.6-6.6 6.6-5.3 4 0 6.6 2.7 5.3 6.6 0 2.7-2.6 5.3-6.6 5.3zm-23.9 0c-4 0-6.6-2.6-5.3-6.6 0-4 2.7-6.6 6.6-5.3 4 0 6.6 2.7 5.3 6.6-1.3 2.7-3.9 5.3-6.6 5.3zm-25.1-1.3c-4 0-6.6-2.6-5.3-6.6 0-4 2.6-6.6 6.6-5.3 4 0 6.6 2.6 5.3 6.6 0 2.6-2.7 5.3-6.6 5.3zm-25.2-1.3c-4 0-6.6-2.7-5.3-6.6 0-4 2.6-6.6 6.6-5.3 4 0 6.6 2.6 5.3 6.6 0 2.6-2.6 5.3-6.6 5.3zm-23.9-1.4c-4 0-6.6-2.7-5.3-6.6 0-4 2.6-6.6 6.6-5.3 4 0 6.6 2.6 5.3 6.6-1.3 2.7-3.9 5.3-6.6 5.3zm-25.1 0c-4 0-6.6-2.7-5.3-6.6 0-4 2.6-6.6 6.6-5.3 4 0 6.6 2.6 5.3 6.6 0 2.7-4 5.3-6.6 5.3zm-25.2-1.3c-2.6 0-5.3-2.6-5.3-6.6 0-4 2.6-6.6 6.6-6.6 4 0 6.6 2.6 5.3 6.6 0 4-2.6 6.6-6.6 6.6zm-25.2-1.3c-4 0-6.6-2.6-5.3-6.6 0-4 2.6-6.6 6.6-5.3 2.7 0 5.3 2.6 5.3 6.6 0 2.6-2.6 5.3-6.6 5.3 1.3 0 1.3 0 0 0zm-23.8 0c-4 0-6.6-2.6-5.3-6.6 0-4 2.6-6.6 6.6-5.3 4 0 6.6 2.6 5.3 6.6 0 2.6-4 5.3-6.6 5.3zm-25.2-1.3c-4 0-6.6-2.7-5.3-6.6 0-4 2.6-6.6 6.6-5.3 4 0 6.6 2.6 5.3 6.6 0 2.6-2.6 5.3-6.6 5.3zm-25.2-1.4c-4 0-6.6-2.7-5.3-6.6 0-4 2.6-6.6 6.6-5.3 4 0 6.6 2.6 5.3 6.6 0 2.7-2.6 5.3-6.6 5.3 1.3 0 0 0 0 0zM131.8 621.9c-2.6-1.3-4-5.3-1.3-9.3 1.3-2.6 5.3-4 9.3-1.3 2.6 1.3 4 5.3 1.3 9.3-1.3 1.3-2.6 2.7-5.3 2.7-2.7-.1-2.7-.1-4-1.4zm14.5-19.9c-2.6-1.3-4-5.3-1.3-9.3 1.3-2.7 5.3-4 9.3-1.3 2.6 1.3 4 5.3 1.3 9.3-1.3 1.3-2.6 2.6-5.3 2.6-2.6.1-4 .1-4-1.3zm14.6-19.8c-2.6-1.3-4-5.3-1.3-9.3 1.3-2.7 5.3-4 9.3-1.3 2.6 1.3 4 5.3 1.3 9.3-1.3 1.3-2.6 2.7-5.3 2.7-2.7-.1-4-1.4-4-1.4zm14.6-19.9c-2.6-1.3-4-5.3-1.3-9.3 1.3-2.6 5.3-4 9.3-1.3 2.6 1.3 4 5.3 1.3 9.3-1.3 1.3-2.6 2.7-5.3 2.7-2.7-.1-4-1.4-4-1.4zm14.6-19.9c-2.6-1.3-4-5.3-1.3-7.9 1.3-2.7 5.3-4 9.3-1.3 2.7 2.7 4 5.3 1.3 9.3-1.3 1.3-2.6 2.7-5.3 2.7-2.7-2.8-4-2.8-4-2.8zm14.5-19.9c-2.6-2.7-4-5.3-1.3-9.3 2.6-2.6 5.3-4 9.3-1.3 2.6 1.3 4 5.3 1.3 9.3-1.3 1.3-2.6 2.7-5.3 2.7-2.6-1.4-4-1.4-4-1.4zm14.6-21.2c-2.7-1.3-4-5.3-1.3-9.3 1.3-2.7 5.3-4 9.3-1.3 2.7 1.3 4 5.3 1.3 9.3-1.3 1.3-2.7 2.6-5.3 2.6-2.7.1-4 .1-4-1.3zm13.3-19.8c-2.7-1.3-4-5.3-1.3-9.3 1.3-2.7 5.3-4 7.9-1.3 2.7 1.3 4 5.3 1.3 9.3-1.3 1.3-2.7 2.6-5.3 2.6 0 0-1.3 0-2.6-1.3zm15.9-19.9c-2.7-1.3-4-5.3-1.3-9.3 1.3-2.6 5.3-4 9.3-1.3 2.6 1.3 4 5.3 1.3 9.3-1.3 1.3-2.7 2.6-5.3 2.6-2.7 0-4 0-4-1.3zm14.5-19.9c-2.7-1.3-4-5.3-1.3-9.3 2.6-2.6 5.3-4 9.3-1.3 2.6 1.3 4 5.3 1.3 9.3-1.3 1.3-2.7 2.7-5.3 2.7-2.6-.1-4-.1-4-1.4zm13.3-19.9c-2.6-1.3-4-5.3-1.3-8 1.3-2.6 5.3-4 9.3-1.3 2.6 2.6 4 5.3 1.3 9.3-1.3 1.3-2.6 2.6-5.3 2.6-1.4-1.2-2.7-2.6-4-2.6zm15.9-19.8c-2.6-2.7-4-5.3-1.3-9.3 1.3-2.6 5.3-4 7.9-1.3 2.6 1.3 4 5.3 1.3 9.3-1.3 1.3-2.7 2.6-5.3 2.6-1.3 0-2.6-1.3-2.6-1.3zM217.9 700.1c-2.7-1.3-5.3-4-4-7.9 1.3-4 4-5.3 7.9-4 4 1.3 5.3 4 4 8-1.3 2.7-2.7 4-5.3 4-1.3-.1-2.6-.1-2.6-.1zm6.6-23.9c-4-1.3-5.3-4-4-7.9 1.3-4 4-5.3 7.9-4 2.7 1.3 5.3 4 4 7.9-1.3 2.7-2.6 4-5.3 4h-2.6zm5.3-23.8c-2.7-1.3-5.3-4-4-7.9 1.3-4 4-5.3 7.9-4 4 1.3 5.3 4 4 7.9-1.3 2.7-4 4-6.6 4h-1.3zm6.6-23.9c-4-1.3-5.3-4-4-8 1.3-2.6 4-5.3 7.9-4 2.7 1.3 5.3 4 4 8-1.3 2.6-2.7 4-5.3 4h-2.6zm6.7-23.8c-2.7-1.3-5.3-4-4-7.9 1.3-4 4-5.3 7.9-4 4 1.3 5.3 4 4 8-1.3 2.6-4 4-6.6 4h-1.3zm6.6-23.9c-4-1.3-5.3-4-4-7.9 1.3-4 4-5.3 7.9-4 2.7 1.3 5.3 4 4 7.9-1.3 2.7-2.7 4-5.3 4h-2.6zm6.6-23.8c-4-1.3-5.3-4-4-7.9 1.3-4 4-5.3 7.9-4 4 1.3 5.3 4 4 7.9-1.3 2.7-4 4-6.6 4h-1.3zm5.3-23.9c-4-1.3-5.3-4-4-7.9 1.3-2.7 4-5.3 7.9-4 2.6 1.3 5.3 4 4 7.9-1.3 2.7-2.6 4-5.3 4h-2.6zm6.6-23.8c-4-1.3-5.3-4-4-7.9 1.3-4 4-5.3 8-4 4 1.3 5.3 4 4 7.9-1.3 2.7-2.6 4-5.3 4h-2.7zm6.7-25.2c-2.6-1.3-5.3-4-4-7.9 1.3-4 4-5.3 8-4 4 1.3 5.3 4 4 8-1.3 2.6-2.7 4-5.3 4-1.4 1.2-2.7 1.2-2.7-.1zm6.6-23.8c-4-1.3-5.3-4-4-8 1.3-4 4-5.3 7.9-4 2.7 1.3 5.3 4 4 7.9-1.3 2.7-2.7 4-5.3 4-1.3 1.4-2.6 1.4-2.6.1zm6.6-23.9c-2.7-1.3-5.3-4-4-7.9 1.3-2.7 4-5.3 7.9-4 4 1.3 5.3 4 4 8-1.3 2.6-4 4-6.6 4h-1.3zm6.6-23.8c-4-1.3-5.3-4-4-8 1.3-4 4-5.3 8-4 2.6 1.3 5.3 4 4 7.9-1.3 2.7-2.6 4-5.3 4l-2.7.1zM289.4 380.8c-1.3-2.7 0-6.6 2.6-8 2.7-1.3 6.6 0 8 2.7 1.3 2.6 0 6.6-2.7 7.9-1.3 0-1.3 1.3-2.6 1.3-2.6 0-5.3-1.3-5.3-3.9zm-13.2-21.2c-1.3-2.7 0-6.6 2.7-8 2.6-1.3 6.6-1.3 7.9 2.7 1.3 2.6 1.3 6.6-2.6 7.9h-2.7c-1.3 0-4-1.3-5.3-2.6zm-11.9-21.2c-1.3-2.6 0-6.6 2.7-7.9 2.6-1.3 6.6-1.3 7.9 2.6 1.3 2.7 0 6.6-2.6 8-1.3 0-1.3 1.3-2.7 1.3-2.7-1.4-4-2.7-5.3-4zm-12-22.6c-1.3-2.7 0-6.6 2.7-8 2.7-1.3 6.6 0 8 2.7 1.3 2.6 0 6.6-2.7 7.9-1.3 0-2.6 1.3-2.6 1.3-2.7.1-4-1.2-5.4-3.9zm-11.9-21.2c-1.3-2.7 0-6.6 2.7-8 2.6-1.3 6.6 0 7.9 2.7 1.3 2.6 1.3 6.6-2.7 7.9-1.3 0-1.3 1.3-2.7 1.3-2.5.1-5.2-1.2-5.2-3.9zm-13.2-21.2c-1.3-2.6 0-6.6 2.7-7.9 2.6-1.3 6.6-1.3 7.9 2.6 1.3 2.6 1.3 6.6-2.6 7.9-1.3 0-2.7 1.3-2.7 1.3-1.4-1.2-4-1.2-5.3-3.9zm-12-21.2c-1.3-2.6-1.3-6.6 2.7-7.9 2.7-1.3 6.6-1.3 7.9 2.6 1.3 2.6 1.3 6.6-2.7 7.9-1.3 0-2.7 1.3-2.7 1.3-1.2-1.2-3.8-2.5-5.2-3.9zM203.3 231c-1.3-2.6 0-6.6 2.6-7.9 2.7-1.3 6.6 0 7.9 2.6 1.3 2.6 1.3 6.6-2.6 7.9-1.3 0-2.6 1.3-2.6 1.3-2.6-1.2-4-2.5-5.3-3.9zm-11.9-22.5c-1.3-2.7-1.3-6.6 2.6-7.9 2.6-1.3 6.6 0 7.9 2.6 1.3 2.6 0 6.6-2.6 7.9-1.3 0-1.3 1.3-2.6 1.3-2.7.1-5.3-1.2-5.3-3.9zm-13.3-21.2c-1.3-2.6-1.3-6.6 2.6-7.9 2.6-1.3 6.6 0 7.9 2.6 1.3 2.6 1.3 6.6-2.6 7.9h-2.6c-1.3.1-3.9.1-5.3-2.6zm-11.9-21.2c-1.3-2.6-1.3-6.6 2.6-7.9 2.6-1.3 6.6 0 7.9 2.6 1.3 2.6 0 6.6-2.6 7.9-1.3 0-2.6 1.3-2.6 1.3-1.3-1.2-4-2.6-5.3-3.9zm-11.9-21.2c-1.3-2.6-1.3-6.6 2.6-7.9 2.6-1.3 6.6-1.3 7.9 2.6 1.3 2.6 0 6.6-2.6 7.9-1.3 0-1.3 1.3-2.6 1.3-2.7-1.2-4-2.6-5.3-3.9zm-11.9-22.5c-1.3-2.6-1.3-6.6 2.6-7.9 2.6-1.3 6.6 0 7.9 2.7 1.3 2.6 0 6.6-2.6 7.9-1.3 0-1.3 1.3-2.6 1.3-2.7 0-5.3-1.4-5.3-4zm-13.3-21.2c-1.3-2.7 0-6.6 2.6-7.9 2.6-1.3 6.6 0 7.9 2.7 1.3 2.6 0 6.6-2.6 7.9-1.3 0-1.3 1.3-2.6 1.3-1.3-1.4-4-1.4-5.3-4zM546.5 203.2c-22.5 0-41.1-18.5-41.1-41.1S524 121 546.5 121s41.1 18.5 41.1 41.1c1.3 21.2-17.3 41.1-41.1 41.1zm0-71.5c-15.9 0-29.1 13.2-29.1 29.1s13.2 29.1 29.1 29.1c15.9 0 29.2-13.2 29.2-29.1s-13.3-29.1-29.2-29.1zM546.5 317.2c-22.5 0-41.1-18.5-41.1-41.1S524 235 546.5 235s41.1 18.5 41.1 41.1-17.3 41.1-41.1 41.1zm0-71.6c-15.9 0-29.1 13.2-29.1 29.1 0 15.9 13.2 29.1 29.1 29.1 15.9 0 29.2-13.2 29.2-29.1-.1-15.8-13.3-29.1-29.2-29.1zM546.5 431.1c-22.5 0-41.1-18.5-41.1-41.1s18.6-41 41.1-41 41.1 18.5 41.1 41.1c1.3 22.5-17.3 41-41.1 41zm0-71.5c-15.9 0-29.1 13.2-29.1 29.1s13.2 29.1 29.1 29.1c15.9 0 29.2-13.2 29.2-29.1s-13.3-29.1-29.2-29.1zM546.5 545.1c-22.5 0-41.1-18.5-41.1-41.1 0-22.5 18.6-41.1 41.1-41.1s41.1 18.5 41.1 41.1c1.3 22.5-17.3 41.1-41.1 41.1zm0-71.6c-15.9 0-29.1 13.2-29.1 29.1s13.2 29.1 29.1 29.1c15.9 0 29.2-13.2 29.2-29.1-.1-15.8-13.3-29.1-29.2-29.1zM546.5 659c-22.5 0-41.1-18.5-41.1-41.1 0-22.5 18.6-41.1 41.1-41.1s41.1 18.5 41.1 41.1c1.3 22.6-17.3 41.1-41.1 41.1zm0-71.5c-15.9 0-29.1 13.2-29.1 29.1 0 15.9 13.2 29.1 29.1 29.1 15.9 0 29.2-13.2 29.2-29.1-.1-15.9-13.3-29.1-29.2-29.1zM285.5 417.9l80.8-263.7h144.4v13.2H374.2l-58.3 193.5 74.2-91.4h120.6v11.9H396.8zM510.7 623.2H366.3l-80.8-262.3 111.3 136.5h113.9v11.9H390.1l-74.2-91.4 58.3 193.4h136.5zM300 383.4h210.7v11.9H300z"/><circle fill="#EEEFEC" cx="300" cy="388.7" r="74.2"/><path fill="#2D2C2A" d="M300 469.5c-43.7 0-79.5-35.8-79.5-79.5s35.8-79.5 79.5-79.5 79.5 35.8 79.5 79.5-34.4 79.5-79.5 79.5zm0-148.4c-37.1 0-67.6 30.5-67.6 67.6s30.5 67.6 67.6 67.6 67.6-30.5 67.6-67.6-30.5-67.6-67.6-67.6z"/></svg>