<svg xmlns="http://www.w3.org/2000/svg" viewBox="0 0 50 50" enable-background="new 0 0 50 50"><path fill="#2D2C2A" d="M32.1 42.9h-14.2v-5.4h14.1v5.4zm-13.2-1h12.1v-3.4h-12.1v3.4zm-5.2-5.5c-.8 0-1.4-.6-1.4-1.4 0-.8.6-1.4 1.4-1.4.8 0 1.4.6 1.4 1.4.1.8-.6 1.4-1.4 1.4zm0-1.8c-.2 0-.4.2-.4.4s.2.4.4.4.4-.2.4-.4-.1-.4-.4-.4zm23.6-.7c-.8 0-1.4-.6-1.4-1.4 0-.8.6-1.4 1.4-1.4s1.4.6 1.4 1.4c0 .7-.6 1.4-1.4 1.4zm0-1.9c-.2 0-.4.2-.4.4s.2.4.4.4.4-.2.4-.4-.2-.4-.4-.4zm-8.5-.3c-1.3 0-2.4-1.1-2.4-2.4s1.1-2.4 2.4-2.4 2.4 1.1 2.4 2.4-1.1 2.4-2.4 2.4zm0-3.7c-.8 0-1.4.6-1.4 1.4s.6 1.4 1.4 1.4 1.4-.6 1.4-1.4-.7-1.4-1.4-1.4zm-7.6 3.7c-1.3 0-2.4-1.1-2.4-2.4s1.1-2.4 2.4-2.4 2.4 1.1 2.4 2.4-1 2.4-2.4 2.4zm0-3.7c-.8 0-1.4.6-1.4 1.4s.6 1.4 1.4 1.4 1.4-.6 1.4-1.4-.6-1.4-1.4-1.4zm-.6-7.9h8.7v1h-8.7zm-8.3 5.8c-5.2 0-9.4-4.2-9.4-9.4s4.2-9.4 9.4-9.4 9.4 4.2 9.4 9.4-4.2 9.4-9.4 9.4zm0-17.8c-4.7 0-8.4 3.8-8.4 8.4s3.8 8.4 8.4 8.4 8.4-3.8 8.4-8.4-3.7-8.4-8.4-8.4zm-.5 4.1h1v2.6h-1zm-1.967 5.391l.555.832-2.247 1.498-.555-.832zm5.793-.041l2.246 1.498-.555.832-2.246-1.498zm25.174 25.35h-31.6v-17.5h1v16.5h29.6v-16.5h1zm-3.1-17c-5.2 0-9.4-4.2-9.4-9.4s4.2-9.4 9.4-9.4 9.4 4.2 9.4 9.4-4.2 9.4-9.4 9.4zm0-17.8c-4.7 0-8.4 3.8-8.4 8.4s3.8 8.4 8.4 8.4c4.7 0 8.4-3.8 8.4-8.4s-3.8-8.4-8.4-8.4zm-.5 4.1h1v2.6h-1zm-2.058 5.376l.555.832-2.247 1.498-.555-.832zm5.786-.038l2.246 1.498-.555.832-2.246-1.498z"/></svg>