<svg xmlns="http://www.w3.org/2000/svg" viewBox="0 0 72 72" enable-background="new 0 0 72 72"><g><path fill="#231F20" d="M34.3 53.3H19.2c-.3 0-.5-.2-.5-.5V37.7c0-.3.2-.5.5-.5h15.1c.3 0 .5.2.5.5v15.1c0 .3-.3.5-.5.5zm-14.6-1h14.1V38.2H19.7v14.1zM37.7 34.8c-.1 0-.3 0-.4-.1-.2-.2-.2-.5 0-.7L49 22.3c.2-.2.5-.2.7 0s.2.5 0 .7L38.1 34.6c-.1.1-.2.2-.4.2zM49.3 30.1c-.3 0-.5-.2-.5-.5v-6.5h-6.5c-.3 0-.5-.2-.5-.5s.2-.5.5-.5h7c.3 0 .5.2.5.5v7c0 .3-.2.5-.5.5zM25 21.2c-.3 0-.5-.2-.5-.5v-1.5c0-.3.2-.5.5-.5h1.7c.3 0 .5.2.5.5s-.2.5-.5.5h-1.2v1c0 .2-.2.5-.5.5zM52.8 21.4c-.3 0-.5-.2-.5-.5v-1.2h-1.2c-.3 0-.5-.2-.5-.5s.2-.5.5-.5h1.7c.3 0 .5.2.5.5v1.7c0 .3-.2.5-.5.5zM25 25.5c-.3 0-.5-.2-.5-.5v-1.5c0-.3.2-.5.5-.5s.5.2.5.5V25c0 .3-.2.5-.5.5zM30.8 19.7h-1.2c-.3 0-.5-.2-.5-.5s.2-.5.5-.5h1.2c.3 0 .5.2.5.5s-.2.5-.5.5zM34.8 19.7h-1.2c-.3 0-.5-.2-.5-.5s.2-.5.5-.5h1.2c.3 0 .5.2.5.5s-.2.5-.5.5zM39.5 19.7h-1.2c-.3 0-.5-.2-.5-.5s.2-.5.5-.5h1.2c.3 0 .5.2.5.5s-.2.5-.5.5zM44.1 19.7H43c-.3 0-.5-.2-.5-.5s.2-.5.5-.5h1.2c.3 0 .5.2.5.5s-.3.5-.6.5zM48.2 19.7H47c-.3 0-.5-.2-.5-.5s.2-.5.5-.5h1.2c.3 0 .5.2.5.5s-.3.5-.5.5zM34.8 47.5h-.6c-.3 0-.5-.2-.5-.5s.2-.5.5-.5h.6c.3 0 .5.2.5.5s-.2.5-.5.5zM39.5 47.5h-1.2c-.3 0-.5-.2-.5-.5s.2-.5.5-.5h1.2c.3 0 .5.2.5.5s-.2.5-.5.5zM44.1 47.5H43c-.3 0-.5-.2-.5-.5s.2-.5.5-.5h1.2c.3 0 .5.2.5.5s-.3.5-.6.5zM48.2 47.5H47c-.3 0-.5-.2-.5-.5s.2-.5.5-.5h1.2c.3 0 .5.2.5.5s-.3.5-.5.5zM52.8 47.5h-1.7c-.3 0-.5-.2-.5-.5s.2-.5.5-.5h1.2v-1.2c0-.3.2-.5.5-.5s.5.2.5.5V47c0 .3-.2.5-.5.5zM52.8 42.9c-.3 0-.5-.2-.5-.5v-1.2c0-.3.2-.5.5-.5s.5.2.5.5v1.2c0 .2-.2.5-.5.5zM52.8 38.8c-.3 0-.5-.2-.5-.5v-1.2c0-.3.2-.5.5-.5s.5.2.5.5v1.2c0 .3-.2.5-.5.5zM52.8 34.2c-.3 0-.5-.2-.5-.5v-1.2c0-.3.2-.5.5-.5s.5.2.5.5v1.2c0 .3-.2.5-.5.5zM52.8 29.5c-.3 0-.5-.2-.5-.5v-1.2c0-.3.2-.5.5-.5s.5.2.5.5V29c0 .3-.2.5-.5.5zM25 38.2c-.3 0-.5-.2-.5-.5v-1.2c0-.3.2-.5.5-.5s.5.2.5.5v1.2c0 .3-.2.5-.5.5zM25 34.3c-.3 0-.5-.2-.5-.5v-1.5c0-.3.2-.5.5-.5s.5.2.5.5v1.5c0 .3-.2.5-.5.5zM25 29.9c-.3 0-.5-.2-.5-.5V28c0-.3.2-.5.5-.5s.5.2.5.5v1.5c0 .2-.2.4-.5.4zM52.8 25.5c-.3 0-.5-.2-.5-.5v-1.2c0-.3.2-.5.5-.5s.5.2.5.5V25c0 .3-.2.5-.5.5z"/></g></svg>