<svg xmlns="http://www.w3.org/2000/svg" width="42" height="42" viewBox="0 0 42 42"><path stroke="#231F20" stroke-width=".75" stroke-linecap="round" stroke-miterlimit="10" d="M30.5 25c1.3-.3 5.5-1.6 5.5-6.4 0-3.6-3-6.6-6.7-6.5-1.5-3.1-4.6-5.3-8.3-5.3-4.9 0-8.8 3.8-9.1 8.6-3-.6-5.9 1.7-5.9 4.8 0 5 5.2 4.9 5.2 4.9" fill="none"/><g stroke="#231F20" stroke-width=".75" stroke-linecap="round" stroke-linejoin="round" stroke-miterlimit="10" fill="none"><path d="M14.5 25.5h13v9.7h-13zm6.5 7v-2.4"/><circle cx="21" cy="29.1" r="1.1"/><path d="M17.2 25.5v-1.6c0-2.3 1.5-3.8 3.8-3.8s3.8 1.5 3.8 3.8v1.7"/></g></svg>