<svg xmlns="http://www.w3.org/2000/svg" viewBox="0 0 50 50" enable-background="new 0 0 50 50"><path fill="#2D2C2A" d="M17.3 11.3h-6v-4h6v4zm-5-1h4v-2h-4v2zm12.7 1h-6v-4h6v4zm-5-1h4v-2h-4v2zm12.6 1h-6v-4h6v4zm-5-1h4v-2h-4v2zm-10.3 6.6h-6v-4.1h6v4.1zm-5-1h4v-2.1h-4v2.1zm12.7 1h-6v-4.1h6v4.1zm-5-1h4v-2.1h-4v2.1zm12.6 1h-6v-4.1h6v4.1zm-5-1h4v-2.1h-4v2.1zm-10.3 6.5h-6v-4.1h6v4.1zm-5-1h4v-2.1h-4v2.1zm12.7 1h-6v-4.1h6v4.1zm-5-1h4v-2.1h-4v2.1zm12.6-1.5h-1v-.5h-4v.5h-1v-1.5h6zm-7.6 8.1h-6v-4.1h6v4.1zm-5-1h4v-2.1h-4v2.1zm9.1 17.7l-7-10.6c-.4-.6-.6-1.7-.2-2.5.2-.5.7-.7 1.3-.7 1.2 0 2.3.6 4.2 3.2v-10.8c0-1.2 1.1-2.3 2.4-2.3 1.3 0 2.4 1.1 2.4 2.3v5.5l4.9 2.6c1.4.4 1.9 2.1 1.5 3.5l-1.3 6.4-8.2 3.4zm-6-12.8c-.2 0-.3.1-.4.2-.2.3-.1 1 .2 1.4l6.5 9.9 6.9-2.8 1.2-5.9c.2-1 0-2.1-1-2.4l-5.5-3v-6.1c0-.7-.7-1.3-1.4-1.3s-1.4.6-1.4 1.3v14.2l-.8-1.4c-2.5-3.8-3.5-4.1-4.3-4.1z"/></svg>