<svg xmlns="http://www.w3.org/2000/svg" viewBox="0 0 72 72" enable-background="new 0 0 72 72"><g><circle cx="36" cy="36" r="35" fill="none"/><path fill="#231F20" d="M46.5 56.8c-5.6 0-10.1-4.5-10.1-10.1s4.6-10 10.1-10c5.6 0 10.1 4.5 10.1 10.1s-4.5 10-10.1 10zm0-19.1c-5 0-9.1 4.1-9.1 9.1s4.1 9.1 9.1 9.1 9.1-4.1 9.1-9.1c0-5.1-4.1-9.1-9.1-9.1zM45.2 50.4c-.1 0-.3-.1-.4-.1L42 47.5c-.2-.2-.2-.5 0-.7s.5-.2.7 0l2.4 2.4 5.4-5.8c.2-.2.5-.2.7 0 .2.2.2.5 0 .7l-5.7 6.1c0 .2-.1.2-.3.2zM34.7 55.5H17c-.3 0-.5-.2-.5-.5V18.1c0-.3.2-.5.5-.5h7.4c.3 0 .5.2.5.5s-.2.5-.5.5h-6.9v35.9h17.2c.3 0 .5.2.5.5s-.2.5-.5.5zM49.5 31.9c-.3 0-.5-.2-.5-.5V18.6h-6.9c-.3 0-.5-.2-.5-.5s.2-.5.5-.5h7.4c.3 0 .5.2.5.5v13.3c0 .2-.2.5-.5.5zM42.1 22.3H24.4c-.3 0-.5-.2-.5-.5v-5.2c0-.3.2-.5.5-.5h4c.3-3 2.8-3 4.9-3s4.7 0 4.9 3h4c.3 0 .5.2.5.5v5.2c-.1.3-.3.5-.6.5zm-17.2-1h16.7v-4.2h-3.9c-.3 0-.5-.2-.5-.5 0-2.3-1.4-2.5-3.9-2.5s-3.9.1-3.9 2.5c0 .3-.2.5-.5.5H25v4.2zM46.5 31.9c-.3 0-.5-.2-.5-.5v-9.8h-3.9c-.3 0-.5-.2-.5-.5s.2-.5.5-.5h4.4c.3 0 .5.2.5.5v10.3c0 .2-.2.5-.5.5zM34.7 51.1H20c-.3 0-.5-.2-.5-.5V21c0-.3.2-.5.5-.5h4.4c.3 0 .5.2.5.5s-.2.5-.5.5h-3.9V50h14.3c.3 0 .5.2.5.5s-.3.6-.6.6zM36.9 36.5H24.4c-.3 0-.5-.2-.5-.5s.2-.5.5-.5H37c.3 0 .5.2.5.5s-.3.5-.6.5zM42.1 31.6H24.4c-.3 0-.5-.2-.5-.5s.2-.5.5-.5h17.7c.3 0 .5.2.5.5s-.2.5-.5.5zM42.1 26.7H24.4c-.3 0-.5-.2-.5-.5s.2-.5.5-.5h17.7c.3 0 .5.2.5.5s-.2.5-.5.5zM33.2 41.3h-8.9c-.3 0-.5-.2-.5-.5s.2-.5.5-.5h8.9c.3 0 .5.2.5.5s-.2.5-.5.5z"/></g></svg>