<svg xmlns="http://www.w3.org/2000/svg" viewBox="0 0 50 50" enable-background="new 0 0 50 50"><path fill="#2D2C2A" d="M4.1 39.3h21.8v.9H4.1zM4.1 11.4h21.8v.9H4.1zM4.1 15.4h19.5v.9H4.1zM4.1 19.4h19.4v.9H4.1zM4.1 23.4h19.5v.9H4.1zM4.1 27.4h19.4v.9H4.1zM4.1 31.4h19.4v.9H4.1zM4.1 35.3h19.2v.9H4.1zM27.8 34V17.7l8.1 8.1-8.1 8.2zm.9-14v11.7l5.8-5.9-5.8-5.8zM34.3 43.1V31.9h4.3c.3-4.1.1-8.4-.4-12.5h-4.7V8.1H42.9l.1.3c0 .1.9 2.5 1.1 3.4 2.1 8.8 2.3 18.2.8 27.1-.2 1-.7 3.7-.7 3.7v.4l-9.9.1zm.9-10.3v9.3l8.2-.1c.2-.8.5-2.5.6-3.3 1.5-8.8 1.3-18-.8-26.7-.2-.7-.7-2.3-1-3H34.4v9.3H39l.1.4c.6 4.4.7 9.1.4 13.6v.4h-4.3z"/></svg>