<svg xmlns="http://www.w3.org/2000/svg" viewBox="0 0 72 72" enable-background="new 0 0 72 72"><g><circle cx="33.4" cy="36.3" r="35" fill="none"/><path fill="#231F20" d="M48.5 34.7H34.8c-.3 0-.5-.2-.5-.5V16.4c0-.3.2-.5.5-.5H43c.1 0 .3.1.4.1l5.5 5.5c.1.1.1.2.1.4v12.3c0 .3-.2.5-.5.5zm-13.2-1H48V22.1l-5.2-5.2h-7.5v16.8zM48.5 22.4H43c-.3 0-.5-.2-.5-.5v-5.5c0-.3.2-.5.5-.5s.5.2.5.5v5h5c.3 0 .5.2.5.5s-.2.5-.5.5zM48.5 56.6H34.8c-.3 0-.5-.2-.5-.5V38.3c0-.3.2-.5.5-.5H43c.1 0 .3.1.4.1l5.5 5.5c.1.1.1.2.1.4v12.3c0 .3-.2.5-.5.5zm-13.2-1H48V44l-5.2-5.2h-7.5v16.8zM48.5 44.3H43c-.3 0-.5-.2-.5-.5v-5.5c0-.3.2-.5.5-.5s.5.2.5.5v5h5c.3 0 .5.2.5.5s-.2.5-.5.5zM18.4 19.7c-.3 0-.5-.2-.5-.5v-2.7c0-.3.2-.5.5-.5s.5.2.5.5v2.7c0 .2-.3.5-.5.5zM19.7 23.8h-1.4c-.3 0-.5-.2-.5-.5v-1.4c0-.3.2-.5.5-.5s.5.2.5.5v.9h.9c.3 0 .5.2.5.5s-.2.5-.5.5zM18.4 29.2c-.3 0-.5-.2-.5-.5V26c0-.3.2-.5.5-.5s.5.2.5.5v2.7c0 .3-.3.5-.5.5zM18.4 34.7c-.3 0-.5-.2-.5-.5v-2.7c0-.3.2-.5.5-.5s.5.2.5.5v2.7c0 .3-.3.5-.5.5zM18.4 40.2c-.3 0-.5-.2-.5-.5V37c0-.3.2-.5.5-.5s.5.2.5.5v2.7c0 .3-.3.5-.5.5zM18.4 45.7c-.3 0-.5-.2-.5-.5v-2.7c0-.3.2-.5.5-.5s.5.2.5.5v2.7c0 .2-.3.5-.5.5zM19.7 49.8h-1.4c-.3 0-.5-.2-.5-.5v-1.4c0-.3.2-.5.5-.5s.5.2.5.5v.9h.9c.3 0 .5.2.5.5s-.2.5-.5.5zM25.2 23.8h-2.7c-.3 0-.5-.2-.5-.5s.2-.5.5-.5h2.7c.3 0 .5.2.5.5s-.2.5-.5.5zM30.7 23.8H28c-.3 0-.5-.2-.5-.5s.2-.5.5-.5h2.7c.3 0 .5.2.5.5s-.2.5-.5.5zM34.8 23.8h-1.4c-.3 0-.5-.2-.5-.5s.2-.5.5-.5h1.4c.3 0 .5.2.5.5s-.2.5-.5.5zM25.2 49.8h-2.7c-.3 0-.5-.2-.5-.5s.2-.5.5-.5h2.7c.3 0 .5.2.5.5s-.2.5-.5.5zM30.7 49.8H28c-.3 0-.5-.2-.5-.5s.2-.5.5-.5h2.7c.3 0 .5.2.5.5s-.2.5-.5.5zM34.8 49.8h-1.4c-.3 0-.5-.2-.5-.5s.2-.5.5-.5h1.4c.3 0 .5.2.5.5s-.2.5-.5.5z"/></g></svg>