<svg xmlns="http://www.w3.org/2000/svg" viewBox="0 0 133.6 38.7" enable-background="new 0 0 133.6 38.7"><path d="M92.9 4.4l-3.3 9.8-2-8c-.4-1.6-.9-1.8-1.3-1.8s-.7.9-.8 1.3l-1.9 8.5 2.5 11.2h6.2l7.8-21.1h-7.2zm-41.9.2c-.2-.2-.4-.2-.4-.2h-18.1l2.2 6h5.5v15h6v-15h5.2v-4.7c0-.6-.1-.9-.4-1.1zm14.5 1.7v7.6l-6.5-8.3c-.6-.8-1.5-1.2-2.4-1.2h-5c.2.3.3.6.3 1.2v19.9h6v-11.5l8.2 10.4c.6.7 1.5 1.1 2.4 1.1h3v-19.8c0-.5.2-.9.4-1.2h-4.6c-.9-.1-1.8.8-1.8 1.8zm19.9-1.9h-4.8c-.4 0-1.5 0-1.8 1.8l-1.4 8.1v-.1l-2.5-8c-.5-1.7-1.4-1.8-1.8-1.8-.5 0-1 .5-1 1.2v13.5l2.5 6.3h6.1l4.3-19.9c0-.4.2-.8.4-1.1zm-49.3 30.1v-3.8h-1.4v-.9h3.8v.9h-1.4v3.8h-1zm4.4 0v-4.7h1v1.8h1.8v-1.8h1v4.7h-1v-2h-1.8v2h-1zm6.3 0v-4.7h3.2v.9h-2.2v1h1.6v.8h-1.6v1.2h2.3v.8h-3.3zm8.4 0v-4.7h1l2 3v-3h.9v4.7h-.9l-2-3v3h-1zm6.3 0v-4.7h3.2v.9h-2.2v1h1.6v.8h-1.6v1.2h2.3v.8h-3.3zm5.1 0l1.5-2.5-1.4-2.2h1.2l.8 1.4.8-1.4h1.1l-1.3 2.2 1.5 2.5h-1.1l-1-1.6-1 1.6h-1.1zm7.3 0v-3.8h-1.4v-.9h3.8v.9h-1.4v3.8h-1zm8.4 0l-1.2-4.7h1l.5 2.1c.1.4.2.8.2 1 0-.2.1-.6.2-1l.5-2.1h.9l.6 2.2c.1.5.2.9.2 1 0-.2.1-.5.2-1l.5-2.2h.9l-1.2 4.7h-.9l-.7-3.2-.8 3.3h-.9zm6.5 0v-4.7h3.2v.9h-2.2v1h1.6v.8h-1.6v1.2h2.3v.8h-3.3zm5.4 0v-4.7h1.9c1.1 0 1.7.4 1.7 1.2 0 .3-.1.6-.2.7-.2.2-.4.3-.6.3.7.1 1 .5 1 1.1 0 .4-.2.8-.5 1-.3.2-.7.3-1.2.3h-2.1zm1-2.7h.8c.5 0 .8-.2.8-.6 0-.4-.3-.6-.8-.6h-.8v1.2zm0 2h.8c.5 0 .8-.2.8-.6 0-.4-.3-.6-.9-.6h-.8v1.2z" fill="#2D2C2A"/></svg>