<svg xmlns="http://www.w3.org/2000/svg" viewBox="0 0 133.6 38.7" enable-background="new 0 0 133.6 38.7"><path d="M91.2 11.8c.6.1 1.2.1 1.7.3 2.3.6 3.5 3.4 2.3 5.5-.3.5-.7.8-1.2 1.1-.2.1-.4.2-.7.4.1.1.2.1.3.1 1.6.5 2.3 1.7 2.4 3.2.2 2.2-1.2 3.8-3.4 4-.7.1-1.4.1-2 .1h-6.9v-3h1.3v-8.8h-1.3v-3c2.6.1 5 .1 7.5.1zm-2.2 8.8v2.9c0 .1.1.2.2.2h1.7c.4 0 .8-.2 1-.6.5-.9 0-2.1-1-2.3-.6-.2-1.2-.2-1.9-.2zm0-2.8c.6 0 1.1 0 1.7-.1.7-.1 1.1-.7 1.1-1.4s-.4-1.3-1-1.4c-.6-.1-1.2-.1-1.8-.1v3zm-67.7-6v3h-.6c-.3-.1-.4.1-.4.3-.9 3.1-1.9 6.1-2.9 9.2-.2.7-.4 1.4-.7 2.1 0 .1-.2.2-.3.2h-4.6l-.1-.3c-1.2-3.7-2.4-7.5-3.5-11.2-.1-.3-.2-.3-.5-.3h-.6v-3h6.4v3h-1.3c.7 2.8 1.4 5.6 2.1 8.3h.1l2.3-8.3h-1.3v-3h5.9zm104.3 7h-1.5c-.1 0-.2.1-.2.2v3.8c0 .8.5 1.2 1.4 1h.2v2.4c0 .2 0 .3-.2.3-1.1.2-2.2.3-3.4.1-1.3-.3-1.9-1-1.9-2.3v-5.6h-.4c-.6 0-.5.1-.5-.5v-2.5h1.2v-2c0-.7-.1-.6.6-.7 1-.2 1.9-.4 3-.7v3.4h1.8c-.1 1.1-.1 2.1-.1 3.1zm-94.2-3h4.3l.1 1.5c.3-.3.5-.6.7-.8 1.2-1 2.6-1.2 4.1-.7 1.1.4 1.6 1.3 1.6 2.5v5.3h.9v3h-4.8v-6.7c0-.6-.2-.9-.6-1-.5-.1-.9 0-1.2.4l-.2.3-.1.3v3.7h.7v3h-5.5v-3h.8v-4.8h-.8v-3zm26.2 2.9h-.7v-3h4.7v7.9h.9v3h-4.4v-1.1c-.2.2-.3.4-.5.5-1.1 1-3 1.2-4.3.6-1-.5-1.5-1.3-1.5-2.4l-.1-5v-.4h-.9v-3h4.8v6.4c0 .3 0 .6.1.8.1.4.5.6.9.6s.7-.2.9-.6c.1-.1.1-.3.1-.5v-3.8zm56.2 1.2v-1c0-.6-.4-1-.9-1s-1 .4-1 .9v.4h-3.6c-.1-1.4.6-2.6 1.9-3.2 1.9-.8 3.9-.8 5.8.1 1.2.6 1.8 1.5 1.8 2.8v4.5h.9v3h-4.5c0-.4-.1-.7-.1-1.2-.1.1-.2.2-.2.3-1.2 1.4-3.4 1.4-4.6.8-.9-.5-1.3-1.4-1.4-2.4-.1-2.2 1-3.6 3.3-4l2.4-.2c-.1.2 0 .2.2.2zm0 1.9h-.9c-.9.1-1.3.8-1.2 1.6.1.7.7 1.1 1.4.8.4-.1.6-.4.7-.8v-1.6zm-83.1.1h-6.7c0 .6 0 1.2.3 1.7.2.4.7.6 1.1.6s.9-.2 1.1-.7c.1-.2.1-.4.2-.7h3.7c-.1 1.2-.6 2.2-1.6 2.9-.7.5-1.5.8-2.3.9-1.1.2-2.3.1-3.4-.2-1.5-.5-2.5-1.5-2.9-2.9-.5-1.6-.5-3.2 0-4.8.6-1.9 2-3 4-3.3.9-.1 1.8-.1 2.7.2 2 .6 3.1 1.9 3.5 4 .2.8.2 1.5.3 2.3zm-6.6-2.1h2.6c0-.6 0-1.1-.6-1.4-.5-.3-1-.3-1.4 0-.6.3-.6.8-.6 1.4zm58.7 2.1h-6.7c0 .6 0 1.2.3 1.7s.7.6 1.2.6.9-.3 1.1-.7l.2-.6h3.7c-.2 2.2-1.8 3.7-4 3.9-1.1.1-2.1.1-3.1-.3-1.5-.5-2.5-1.5-3-3-.5-1.6-.5-3.1 0-4.7.6-2 2.1-3 4.1-3.3.9-.1 1.9-.1 2.8.2 1.9.6 2.9 1.9 3.3 3.7.1.9.1 1.7.1 2.5zm-6.5-2.1h2.6c0-1.1-.5-1.7-1.4-1.6-.8.1-1.3.7-1.2 1.6zm31.1 2.1h-6.7c0 .7 0 1.3.4 1.8.3.4.7.5 1.2.5s.8-.3 1-.7l.2-.6h3.7c-.1 1.2-.6 2.2-1.6 2.9-1.2.9-2.5 1.1-3.9 1-.6 0-1.1-.1-1.7-.3-1.5-.4-2.4-1.4-2.9-2.8-.5-1.7-.6-3.4.1-5.1.7-1.8 2.1-2.8 4-3 .9-.1 1.9 0 2.8.2 1.9.6 2.9 2 3.3 3.9 0 .7.1 1.4.1 2.2zm-3.9-2c0-.6-.1-1.2-.6-1.5-.5-.3-1-.3-1.5.1-.4.3-.5.8-.5 1.4h2.6zm-59.9-4.2h1.2v-2.1c0-.4.1-.5.5-.6l3.1-.7v3.4h1.7v3h-1.7v4.2c.1.7.6 1 1.2.9.1 0 .2 0 .4-.1v1.9c0 .9 0 .9-.9 1-.9.1-1.8.2-2.8 0-1.3-.3-1.9-1.1-1.9-2.4v-5.5h-.9c.1-.9.1-1.9.1-3zm19.7 10.9v-3h.9v-4.8h-.9v-3h4.2c0 .5.1 1.1.1 1.7.1-.1.1-.2.1-.3.3-.9 1-1.4 1.9-1.5h1.4c.1 0 .2.1.2.2v3.3c-.5 0-1.1-.1-1.6 0-1.1.2-1.6.8-1.7 1.9v2.4h1.2v3c-1.8.1-3.8.1-5.8.1z" fill="#2C2B29"/></svg>