<svg xmlns="http://www.w3.org/2000/svg" viewBox="0 0 133.6 38.7" enable-background="new 0 0 133.6 38.7"><path fill="#2C2C2A" d="M108.5 8h1.3v14.3c0 .6.1 1.2.6 1.5.6.4 1.4.3 2 .3v1.1c-1 0-2.1.1-2.9-.5-.8-.6-1-1.7-1-2.6v-14.1zm-3 1.9c.6-.3 1.4.1 1.4.8 0 .7-.8 1.2-1.4.8-.6-.3-.6-1.2 0-1.6zm-55.9 3c1.3-.3 2.9-.2 3.9.9.8.8 1 2.1 1 3.2v5.4c0 .4 0 .8.4 1 .6.3 1.4.2 2.1.2v1.7h-7.5v-1.7c.7 0 1.9.2 2-.8.1-1.9 0-3.7 0-5.6 0-.8-.2-1.9-1.1-2.2-1.9-.8-4.1.9-4.1 2.8v4.3c0 .4 0 .9.3 1.2.5.4 1.2.2 1.8.2v1.7h-7.6v-1.7c.6 0 1.2 0 1.9-.1.5-.1.7-.5.7-1v-6.9c-.3-1.1-1.7-.8-2.5-.8v-1.7h5.6v2.3c.5-1 1.6-2.1 3.1-2.4zm55.8.6h1.3v11.8h-1.2c-.1-4-.1-7.9-.1-11.8zm6.3 0h1.4c1.1 3.4 2.3 6.8 3.5 10.3l3.5-10.3h1.3v.1c-1.9 5-3.7 10-5.5 15-.2.6-.5 1.2-1.1 1.5-.7.5-1.6.5-2.5.5v-1c.7-.1 1.6 0 2.1-.7.5-.8.7-1.7 1.1-2.6.2-.5.5-1 .2-1.5-1.3-3.8-2.6-7.6-4-11.3zm-29.1 4.7c-.2-1.7-1-3.4-2.5-4.4-1.6-1-3.5-1.3-5.3-1-1.5.2-3 .8-3.9 2-1 1.1-1.4 2.6-1.5 4-.1 1.8.4 3.6 1.7 4.9 1.5 1.5 3.7 2 5.7 1.8 1.8-.1 3.6-.9 4.7-2.4 1-1.4 1.3-3.2 1.1-4.9zm-3.4 1.3c0 1.2-.2 2.6-1 3.5-1.2 1.4-3.7 1.2-4.6-.5-.9-1.6-.8-3.5-.6-5.2.2-1.3 1-2.7 2.4-2.9 1.1-.2 2.3.2 3 1.1.7 1.2.8 2.7.8 4zm13.8-11.5h-1.2v6.9c-1.4-1.8-4.1-2.1-6-.9-1.2.9-1.7 2.5-1.8 3.9-.1 2-.2 4.3 1.1 6 .8 1.2 2.3 1.6 3.7 1.4 1.2 0 2.3-.7 3.1-1.6v1.5h1.2l-.1-17.2zm-1.8 14.8c-1.1 2.1-4.6 2-5.5-.2-.7-1.6-.6-3.4-.4-5.1.2-1.4 1-2.8 2.5-3 1.1-.2 2.4 0 3.1 1 .8 1.1.9 2.5.9 3.8 0 1.2-.1 2.4-.6 3.5zm-66.1-8.5c-1.5-1.8-4.4-2.1-6.2-.7-.6.4-1 1.1-1.4 1.7v-2.2h-5.4v1.7c.6 0 1.2-.1 1.8.1.5.1.6.7.6 1.2v11.6c0 .4 0 1-.4 1.2-.8.1-1.5.1-2.2.1v1.7h8.2v-1.7c-.8-.1-2.1.4-2.6-.5l-.1-5.2c.9 1.4 2.4 2.3 4.1 2.3 1.4 0 2.7-.6 3.6-1.6 1.1-1.4 1.5-3.2 1.5-4.9 0-1.7-.4-3.5-1.5-4.8zm-2.9 8.4c-.5.6-1.2 1-2 .8-1.2-.1-2.1-1-2.4-2.1-.4-1.4-.5-2.9-.1-4.3.3-1 .9-2 1.9-2.3.8-.3 1.9-.1 2.5.6.9 1 1 2.4 1 3.7.1 1.2-.1 2.6-.9 3.6zm48.4.8c-.8-.1-2.2.3-2.3-.8-.1-4.9 0-9.8 0-14.7h-5.8v1.7c.7 0 1.4-.1 2.1.1.4.1.6.5.6.9v4.3c-.8-1.1-2-2-3.3-2.2-1.4-.3-2.9.2-3.9 1.2-1.4 1.4-2 3.4-2 5.3 0 1.8.5 3.6 1.7 5 1.3 1.4 3.4 1.7 5.1 1 1-.4 1.8-1.3 2.4-2.2v2.2h5.4v-1.8zm-6.2-1.2c-.8 1.4-3.1 1.8-4.1.4-1-1.4-.9-3.1-.8-4.7.1-1.2.5-2.6 1.7-3.1 1.4-.5 3 .3 3.5 1.7.7 1.8.7 4-.3 5.7zm-25.3-1.6v2c0 .4-.2.8-.6 1-.4 0-.7-.4-.6-.8v-6.7c0-1-.5-2-1.3-2.6-1.1-.8-2.5-1-3.9-1-1.3.1-2.7.2-3.9 1-1 .6-1.5 2-1 3.1.6 1.2 2.6 1.4 3.3.2.2-.6.2-1.5-.4-1.9-.2-.1-.7 0-1.1 0 .7-.7 1.7-.8 2.7-.8.7 0 1.6.1 2.1.7.7.8.5 2.3-.5 2.9-1.8 1.1-4.1.8-5.8 2.1-1.2.9-1.3 2.6-.9 3.9.4 1.2 1.7 1.8 2.9 1.9 1.7.1 3.7-.3 4.7-1.8.2.8.7 1.5 1.5 1.7 1.3.3 2.9.2 3.7-1 .8-1.1.7-2.5.8-3.8-.6-.1-1.1-.1-1.7-.1zm-4.9 1.8c-.7 1-2.2 1.6-3.2.9-.8-.8-.6-2.5.4-3 1.1-.6 2.2-1.1 3.4-1.6 0 1.3.1 2.6-.6 3.7zm69.3-5.3c0-1.2-.4-2.4-1.4-3.1-1.4-.9-3.1-.9-4.7-.7-1.1.1-2 .8-2.7 1.7.3.3.6.6.9.8.6-.9 1.6-1.5 2.7-1.5s2.5 0 3.3.9c.8.9.5 2.2.6 3.3h-4.1c-1.1 0-2.2.3-3 1.1-1.3 1.4-1.1 3.8.4 4.9 1.1.8 2.6.7 3.9.7 1.1 0 2-.5 2.8-1.2v1.1h1.3v-8zm-1.8 6.1c-.9 1-2.4 1.1-3.7 1-.9 0-1.9-.5-2.2-1.4-.2-.8-.2-1.9.5-2.5.6-.5 1.4-.7 2.2-.7h3.8c-.1 1.1.2 2.5-.6 3.6z"/></svg>