<svg xmlns="http://www.w3.org/2000/svg" viewBox="0 0 133.6 38.7" enable-background="new 0 0 133.6 38.7"><path d="M76.1 14.4c-1.5 0-2.6.3-3.7.9 0-3.3 0-6.3.1-7.4l-6.9 1.2v.6l.7.1c.9.2 1.2.7 1.5 2 .2 2.5.1 15.8 0 17.9 1.9.4 3.8.7 5.8.7 5.5 0 8.8-3.4 8.8-8.8-.1-4-2.8-7.2-6.3-7.2zm-2.4 15.1c-.4 0-.9 0-1.2-.1-.1-1.5-.2-7.6-.1-13 .6-.2 1-.3 1.6-.3 2.3 0 3.5 2.7 3.5 6 0 4.2-1.6 7.4-3.8 7.4zm-34.3-21.1h-18.2v.9l1 .1c1.3.2 1.9 1 2.1 3 .3 3.7.2 10.5 0 13.7-.2 2-.7 2.9-2.1 3l-1 .2v.8h11.7v-.8l-1.2-.2c-1.3-.1-1.9-1-2.1-3-.1-1.3-.2-3.5-.2-6.2l2.5.1c1.6 0 2.3 1.2 2.6 3h.9v-7.4h-.9c-.3 1.8-1 3-2.6 3l-2.5.1c0-3.5.1-6.8.2-8.8h3.6c2.8 0 4.3 1.8 5.3 4.9l1-.3-.1-6.1zm5.9 5.8c5.2 0 7.8 3.5 7.8 8.2 0 4.5-2.9 8.2-8.1 8.2-5.2 0-7.8-3.5-7.8-8.2 0-4.4 2.9-8.2 8.1-8.2zm-.3 1.1c-2.3 0-2.9 3.1-2.9 7.2 0 3.9 1 7.2 3.1 7.2 2.4 0 3-3.1 3-7.2 0-4-1-7.2-3.2-7.2zm38.7 7.2c0-4.2 2.7-8.3 8-8.3 4.4 0 6.4 3.2 6.4 7.5h-9.6c-.1 3.8 1.8 6.6 5.5 6.6 1.7 0 2.5-.4 3.5-1.1l.4.5c-1 1.5-3.3 2.9-6.2 2.9-4.7 0-8-3.3-8-8.1zm4.7-1.9l4.9-.1c0-2.1-.3-5.2-2.1-5.2-1.7 0-2.6 2.9-2.8 5.3zm22-5.5c-1.2-.5-2.9-.8-4.8-.8-3.8 0-6.2 2.3-6.2 5s1.8 3.8 4.2 4.7c2.6.9 3.3 1.7 3.3 2.9s-.9 2.4-2.6 2.4c-2 0-3.4-1.1-4.6-4.2l-.7.2.1 4.6c1.2.5 3.5.9 5.5.9 4 0 6.6-2.1 6.6-5.3 0-2.2-1.1-3.4-3.8-4.5-2.9-1.1-3.9-1.9-3.9-3.2 0-1.3.9-2.3 2.2-2.3 1.9 0 3.1 1.1 4 3.9l.7-.2v-4.1zm-43.8-.4c-1.8-1-4.9-.5-6.5 3.2l.1-3.6-6.9 1.3v.6l.7.1c.9.1 1.3.6 1.5 2 .2 2.5.1 6.8 0 9-.1 1.2-.5 1.9-1.5 2l-.7.1v.8h9.6v-.8l-1.2-.1c-1-.1-1.3-.7-1.5-2-.2-2-.2-5.9-.1-8.4.5-.7 2.8-1.3 4.9 0l1.6-4.2z" fill-rule="evenodd" clip-rule="evenodd" fill="#2D2C2A"/></svg>