<svg xmlns="http://www.w3.org/2000/svg" viewBox="0 0 133.6 38.7" enable-background="new 0 0 133.6 38.7"><path fill="#262E2E" d="M22.1 10.7h.5v16.4h-.5v-16.4zm-17.3 2.1h8.3c1.4.1 2.7.7 3.7 1.8 1.1 1.2 1.6 2.8 1.6 4.4 0 1.4-.3 2.8-1.1 3.9-.7.9-1.7 1.5-2.8 1.8-.7.2-1.3.2-2 .2h-7.1v-.2h2v-2h1.2v-3.7h-1.2v1.2h-1.2v1.2h-1.2v-1.2h1.2v-1.2h1.2v-2.4h1.2v-1.2l.2-.1h1.1v2.5h-1.2v1.2h1.2v4.2c0 .5.4 1.1.9 1.2.6.2 1.2.1 1.8.1.8 0 1.6-.2 2.2-.7.4-.3.7-.8.9-1.3.4-.9.5-1.8.6-2.8 0-.9 0-1.9-.2-2.8-.2-1-.5-2-1.2-2.8-.6-.6-1.4-1.1-2.2-1.1h-2.5c-.1 0-.2 0-.2.1-.1.3 0 .6 0 .8h-1.2v1.3h-1.3v-1.2h-2.4c-.3-.4-.3-.8-.3-1.2z"/><path fill="#fff" d="M9.7 13.2c0-.1.2-.1.2-.1h2.5c.8 0 1.6.4 2.2 1.1.7.8 1 1.8 1.2 2.8.2.9.2 1.9.2 2.8 0 .9-.2 1.9-.6 2.8-.2.5-.5 1-.9 1.3-.6.5-1.4.7-2.2.7-.6 0-1.2 0-1.8-.1-.5-.2-.9-.7-.9-1.2-.1-.7 0-1.4 0-2.1v-2.1h-1.2v-1.2h1.2v-2.5h-1.1c-.1 0-.1 0-.2.1v1.2h-1.2v-1.2h-1.2c.1-.2.1-.4.1-.4v-1h1.2v1.2h1.3v-1.3h1.2c0-.3-.1-.5 0-.8z"/><path fill="#999" d="M3.5 14h1.2v1.2h-1.2v-1.2z"/><path fill="#636464" d="M4.8 14h1.2v1c0 .1 0 .2.1.2h1.2v1.2h-1.2v-1.2h-1.2c-.1-.4-.1-.8-.1-1.2z"/><path fill="#262E2E" d="M30.8 14.2h.6l3 8.6c.1.4.2.7.5 1 .3.3.7.3 1 .3.3 0 .5 0 .8-.1.2-.1.2-.3.2-.5v-8c0-.3 0-.6-.3-.8-.3-.2-.6-.1-.9-.1v-.3c.8 0 1.6 0 2.3-.1v9.1c0 .2 0 .4.1.6.1.2.2.2.4.2h.7v.2h-8.1v-.2c.4 0 .9 0 1.3-.1.2-.1.4-.2.4-.5l-.3-.9-.6-1.8h-3.3l-.6 1.5c-.1.5-.1 1.1.3 1.4.3.3.7.3 1.1.3v.2h-3.6v-.2c.3 0 .6-.1.9-.3.5-.4.8-1 1.1-1.6 1-2.5 2-5.2 3-7.9zm8.4.2c.8 0 1.6 0 2.4-.1v9.6c0 .1.1.3.2.3.3.1.6 0 .8 0v.2h-3.4v-.2c.3 0 .6 0 .9-.1.2-.1.2-.3.2-.5v-7.7c0-.3 0-.6-.1-.8 0-.2-.1-.3-.3-.4-.3-.1-.5-.1-.8-.1.1-.1.1-.1.1-.2zm15 0l2.2-.1v5.2c.3-.6.7-1.2 1.4-1.4.5-.2 1.2-.1 1.7.1.6.2 1 .8 1.2 1.4.1.4.1.7.1 1.1v3c0 .2.1.4.3.5.2.1.5 0 .7 0v.3h-3.3v-.3h.8c.2-.1.3-.3.3-.5v-2.6c0-.6.1-1.2-.1-1.8-.1-.3-.2-.6-.5-.8-.4-.2-.9-.2-1.3 0s-.7.6-.8 1c-.3.7-.3 1.5-.3 2.2v1.9c0 .2.1.4.3.5h.8v.3h-3.3v-.3h.8c.2-.1.3-.3.3-.5v-8c0-.3-.1-.5-.3-.7-.2-.2-.5-.2-.8-.3-.2-.1-.2-.1-.2-.2zm9.4-.1c.3-.1.6 0 .8.3.2.3.2.8-.1 1-.3.3-.9.2-1.1-.2-.3-.4-.1-1 .4-1.1zm36.2 0c.4-.1.9.2.9.7.1.4-.4.9-.8.8-.4 0-.7-.5-.6-.9 0-.3.2-.6.5-.6zm10.3 0c.3-.1.7.1.8.4.2.4 0 .8-.3 1-.4.2-.8 0-1-.4-.2-.4.1-1 .5-1zm14.6.1l1.7-.1v9.4c0 .2 0 .4.2.5l.9.1v.2h-3.4v-.2c.3 0 .6 0 .9-.1.2-.1.2-.3.2-.4v-8.1c0-.3-.1-.6-.3-.8-.3-.1-.6-.1-.8-.1v-.2c.2-.3.4-.2.6-.2zm-79.6-.1h8.9l.1 3.6h-.2c-.4-.9-.9-1.7-1.4-2.5-.3-.4-.7-.8-1.2-.8h-1v8c0 .4.1.9.4 1.2.5.4 1.1.3 1.6.3v.3h-5.9v-.3c.5 0 1.1.1 1.6-.2.4-.2.5-.7.5-1.1v-8.2h-1.1c-.3 0-.6.2-.8.4-.2.2-.4.5-.5.8-.4.7-.8 1.4-1.1 2.1h-.2c.2-1.2.3-2.4.3-3.6zm41.9.1h6.1c1.1 0 2.2.4 3.1 1.2.7.7 1.2 1.5 1.4 2.5.3 1.2.3 2.5-.2 3.6-.3.8-.9 1.5-1.6 2-.8.5-1.8.7-2.8.7h-6v-.3c.5 0 1 0 1.4-.3.3-.3.4-.7.4-1.1v-6.7c0-.4-.1-.9-.5-1.1-.4-.3-.9-.3-1.4-.3.1-.1.1-.2.1-.2z"/><path fill="#fff" d="M91.2 14.6h1.6c.4 0 .9.1 1.3.4.6.4 1 .9 1.3 1.6.3.7.4 1.4.4 2 .1 1.2.1 2.3-.3 3.5-.2.5-.4 1.1-.9 1.5-.4.4-.9.6-1.4.6-.5 0-.9.1-1.4 0-.3 0-.7-.2-.9-.4-.2-.2-.3-.5-.3-.8v-7.4c0-.2 0-.5.1-.7.2-.2.3-.3.5-.3z"/><path fill="#282F2F" d="M4.8 15.3h1.2v1.2h-1.2v-1.2z"/><path fill="#262E2E" d="M113.1 15.7c.4-.1.8-.3 1.2-.5v2.8h2.2v.4h-2.2v4c0 .5.1 1 .5 1.3.4.4 1.1.2 1.4-.2.3-.4.4-.9.4-1.4h.3c0 .6-.1 1.2-.5 1.7-.6.6-1.6.8-2.4.4-.3-.2-.6-.4-.8-.8-.1-.3-.2-.6-.2-.9v-4.1h-1.3v-.4h1.3c.1-.7.1-1.5.1-2.3z"/><path fill="#fff" d="M30.3 16.4l1.5 4.2h-3c.4-1.4 1-2.8 1.5-4.2z"/><path fill="#888" d="M3.5 16.5h1.2v1.2h-1.2v-1.2z"/><path fill="#999" d="M6 16.5h1.2v1.2h-1.2v-1.2z"/><path fill="#262E2E" d="M62.2 18.1c.8 0 1.6-.1 2.3-.1v5.6c0 .2 0 .4.2.5.4.1.7 0 1.1 0 .2 0 .4 0 .5-.1.1-.1.1-.3.1-.5v-4.1c0-.3-.1-.7-.3-1-.2-.2-.5-.2-.8-.2v-.3l2.3-.1v1.4l.5-.7c.4-.4.9-.7 1.5-.7s1.2.1 1.6.5c.5.4.7 1 .8 1.6v3.5c0 .2 0 .4.2.5l.7.1c-.1-.5.2-.9.5-1.2.3-.2.6-.3 1-.3-.3-.2-.6-.4-.8-.7-.4-.5-.6-1.3-.4-1.9.2-.7.8-1.4 1.5-1.7.4-.2.8-.3 1.2-.3.7 0 1.3.3 1.8.8 0-.3.2-.6.5-.7h.8c.5.1.8.8.6 1.3-.1.2-.3.4-.5.3-.2 0-.5-.3-.4-.5l.2-.7c-.1-.1-.2-.2-.4-.2-.3.1-.5.4-.5.6 0 .3.1.5.2.7.3.5.3 1.1.2 1.6-.2.7-.7 1.3-1.4 1.6-.5.3-1.1.3-1.7.3-.4 0-.8-.2-1.2-.1-.3 0-.6.2-.7.5-.1.2.1.5.3.6.3.2.6.2.9.2h2.1c.6 0 1.2.1 1.6.5.4.3.5.7.5 1.1 0 .4-.1.8-.3 1.1-.3.4-.7.7-1.2.8-.6.2-1.3.2-2 .2-.6 0-1.2-.1-1.8-.3-.3-.1-.7-.3-.9-.6-.2-.2-.2-.5-.2-.8.1-.2.2-.4.4-.6.3-.2.8-.4 1.2-.5-.5-.1-1-.3-1.2-.8h-3.2v-.2c.3 0 .5 0 .8-.1.2-.1.2-.3.2-.5v-3.7c0-.5-.1-.9-.4-1.3-.3-.4-.9-.4-1.3-.2s-.7.5-.9.9c-.3.6-.4 1.2-.4 1.8v2.5c0 .2.1.4.3.5h.8v.3h-6.4v-.2c.3 0 .6 0 .8-.1.2-.1.2-.3.2-.5v-4.1c0-.3.1-.8-.3-1-.3-.1-.6-.1-.8-.1v-.2zm17.9.6c.3-.4.8-.7 1.4-.7.4 0 .8 0 1.1.1.3.1.6.4.8.6.2-.2.3-.4.3-.7h.2c0 .7 0 1.3.1 2h-.2c-.2-.5-.5-1.1-.9-1.4-.5-.4-1.4-.5-2 0-.4.4-.4 1.1 0 1.4.7.6 1.6.7 2.4 1.1.4.2.8.5.9.9.2.5.2 1-.1 1.5-.2.4-.6.7-1 .9-.5.2-1 .2-1.5.1s-1-.4-1.4-.8c-.1.3-.2.6-.3.8h-.2l-.1-2.3h.3c.1.5.3 1 .7 1.4.5.5 1.3.8 2 .6.4-.1.7-.5.7-.9.1-.4-.1-.7-.4-1-.3-.3-.7-.4-1.1-.5-.6-.2-1.1-.4-1.6-.8-.6-.5-.6-1.6-.1-2.3zm18.2-.6c.8 0 1.6-.1 2.3-.1v5.6c0 .2 0 .4.2.5l.8.1v.2h-3.2v-.2c.3 0 .5 0 .8-.1.2-.1.2-.3.2-.5v-4.4c0-.2 0-.5-.2-.6-.3-.2-.6-.2-.9-.2v-.3zm5.5.1c.7-.3 1.7-.3 2.3.1.2.1.4.3.5.4 0-.4.5-.8.9-.8.3 0 .5 0 .7.2.3.3.5.9.2 1.3-.3.3-.8.1-.8-.3 0-.3.2-.5.2-.7 0-.2-.2-.3-.4-.2-.3.1-.4.3-.5.6-.1.3.1.5.2.7.3.6.4 1.2.2 1.8-.2.6-.7 1.1-1.3 1.4-.5.2-1 .3-1.6.2-.4 0-.8-.2-1.2-.1-.3 0-.5.2-.7.4-.1.2-.1.5.1.7.2.2.6.3.9.3h2.2c.5 0 1.1.1 1.5.4.3.2.5.5.6.8.1.5.1 1.1-.2 1.5-.3.4-.7.6-1.1.8-.6.2-1.2.3-1.8.3-.7 0-1.5-.1-2.2-.4-.4-.2-.7-.4-.9-.7-.2-.3-.2-.7.1-.9.4-.4.9-.5 1.4-.7-.3-.1-.7-.2-.9-.5-.3-.3-.4-.8-.3-1.2.1-.4.4-.7.7-.8.2-.1.5-.1.7-.1-.4-.3-.8-.6-1-1-.2-.4-.3-1-.2-1.5.2-.9.9-1.7 1.7-2zm4.8-.1c.8-.1 1.6-.1 2.3-.1v5.6c0 .2 0 .4.2.5.3.1.5.1.8.1v.2h-3.2v-.2c.3 0 .5 0 .8-.1.2-.1.2-.3.2-.5v-4.5c0-.2 0-.5-.2-.6-.3-.2-.6-.2-.9-.2v-.2zm11.3-.1c.6-.1 1.1 0 1.6.2.3.1.5.3.7.5.2.3.3.8.3 1.2v2.8c0 .3 0 .7.1 1 .1.1.2.3.3.3.2 0 .4-.2.5-.3.2-.4.2-.8.2-1.2h.3c0 .5 0 1.1-.3 1.6-.4.5-1.2.7-1.8.3-.3-.2-.5-.6-.5-1-.2.2-.4.5-.6.6-.5.4-1.3.6-2 .5-.4 0-.8-.2-1.1-.4-.3-.3-.5-.6-.5-1 0-.5.4-.9.7-1.2.5-.4 1.2-.5 1.8-.7l1.7-.5c0-.6.1-1.2-.1-1.8-.1-.3-.3-.5-.6-.6-.4-.1-.9-.1-1.3 0-.3.1-.6.2-.6.6 0 .3.3.4.4.7.2.4-.1.9-.5 1-.4.1-.9-.2-1-.6-.1-.5.2-1.1.6-1.4.5-.4 1.1-.5 1.7-.6z"/><path fill="#fff" d="M75.5 18.3c.4-.1.9 0 1.2.3.2.3.3.7.4 1.1 0 .6.1 1.1 0 1.7-.1.4-.1.7-.4 1-.3.3-.8.3-1.2.3-.4-.1-.7-.4-.8-.8-.2-.6-.2-1.2-.2-1.8 0-.5 0-1 .3-1.4.2-.2.4-.4.7-.4zm29 0c.4-.1.9 0 1.2.3.3.3.3.8.4 1.2.1.6.1 1.3 0 2-.1.3-.2.7-.4.8-.3.2-.8.2-1.2.2-.4-.1-.7-.5-.8-.9-.1-.5-.1-1.1-.1-1.6s0-1 .3-1.4c0-.4.3-.6.6-.6z"/><path fill="#888" d="M7.2 19h1.2v1.2h-1.2v-1.2z"/><path fill="#636464" d="M7.2 20.2h1.2v1.2h-1.2v-1.2z"/><path fill="#fff" d="M120 21.4l1.5-.4v1.5c0 .5-.4 1-.8 1.3-.3.2-.7.4-1.1.3-.3 0-.5-.1-.7-.3-.2-.3-.3-.7-.2-1.1.1-.3.2-.6.4-.9.3-.2.6-.3.9-.4z"/><path fill="#262E2E" d="M128.9 22.9c.5-.2 1.1.2 1.2.7.1.5-.4 1.1-.9 1-.5 0-1-.5-.9-1 0-.3.3-.6.6-.7z"/><path fill="#fff" d="M75.2 25.4c.7-.1 1.5-.1 2.2.1.3.1.6.1.8.4.3.4.3 1-.1 1.3-.4.4-1 .5-1.6.6-.5.1-1 .1-1.4 0-.5-.1-1-.2-1.3-.5-.3-.3-.4-.9-.1-1.3.1-.2.3-.3.5-.4.2-.2.6-.2 1-.2zm29.5-.1c.7 0 1.4 0 2.1.3.5.2.6.9.3 1.3-.2.3-.6.5-.9.6-.7.2-1.5.2-2.2.2-.4 0-.9-.1-1.3-.4-.3-.2-.4-.5-.4-.9s.2-.7.6-.9c.6-.1 1.2-.2 1.8-.2z"/></svg>