<svg xmlns="http://www.w3.org/2000/svg" viewBox="0 0 133.6 38.7" enable-background="new 0 0 133.6 38.7"><path d="M63.8 15.2c0 2.4-.2 10-.2 10 0 1.5.5 2.1 1.9 2.1v.7h-5.5v-.7c1.4 0 2.1-.7 2.1-2.1l.5-12.4c-.4-1-.8-1.3-1.9-1.4v-.6h4.1l4.4 11.6 4.5-11.6h3.7v.6c-1.1 0-1.6.5-1.6 1.6l.5 12c0 1.8.3 2.3 1.8 2.3v.7h-6.3v-.7c1.2 0 1.8-.4 1.7-2.3 0 0-.2-8.4-.3-9.8l-3 8.3c-.4 1.1-.8 2.3-1.1 3.6l-1 .1c-.2-.9-.9-2.5-.9-2.5s-2.5-7.1-3.4-9.5zm-5.2 12.8h-.9c-.7 0-1.8.3-3.2.3-5.3 0-9.2-3.2-9.2-9 0-5 3.7-8.8 9.3-8.8 1.3 0 2.8.2 4 .7.2-.2.3-.4.6-.7h.5c-.1.9-.4 3.8-.4 3.8h-.5c-.3-1.7-1.2-2.8-4.1-2.8-3.4 0-6.5 2.7-6.5 7.6 0 5.6 3.2 8.1 6.7 8.1 2.3 0 3.7-1.3 4.6-2.9l.6.2-1.5 3.5zm-15.3-13.9h-.6c-.1-1.5-.6-2-1.8-2h-2.4v12.8c0 2.1.4 2.5 1.8 2.5v.6h-6.1v-.7c1.4 0 1.8-.4 1.8-2.6v-12.7h-2.4c-1.5 0-1.8.4-2.2 2h-.6l.4-3.7.4.1c.2.4.5.4 1.5.4h7.9c1.5 0 1.8 0 2.1-.5h.5l-.3 3.8zm-17.3 14.3c-1.1 0-2-.2-2.7-.4-.7-.2-1.1-.4-1.4-.6-.3.3-.6.7-.6.7l-.4-.1.4-3.8.6.1c.3 1.8 1.5 3.1 4.1 3.1 2 0 3.3-1.6 3.3-3.4 0-1.5-.6-2.2-2.5-3.7-.7-.4-1.2-.7-1.7-1.1-1.9-1.2-3.1-2.5-3.1-4.7 0-2.4 2-4.1 4.7-4.1 1.5 0 2.5.5 2.8.7l.6-.7.4.1-.4 3.5h-.5c0-1.6-1-2.4-2.6-2.4-1.5 0-2.7.8-2.7 2.4 0 1.4 1.1 2.3 2.3 3.1.7.4 1.1.7 1.6 1.1 2.8 2 3.5 3.3 3.5 5.3 0 2.8-2.2 4.9-5.7 4.9zm-9.3-14.3h-.7c0-1.5-.7-2-2-2h-3.7v6.4h2.4c1.2 0 1.5-.7 1.6-1.7h.7v4.6h-.6c-.2-1.2-.4-1.7-1.7-1.7h-2.3v5.3c0 2 .5 2.3 1.8 2.3v.7h-6.1v-.7c1.5 0 1.8-.4 1.8-2.3v-12c0-1.1-.5-1.6-1.8-1.6v-.6h8.5c1.5 0 1.8-.1 2-.6h.6l-.5 3.9zm87.8.9v9.8c0 2.1.5 2.5 1.8 2.5v.7h-9.6v-.7c.7 0 1.4-.2 1.4-.7 0-.3-.1-.9-.2-1.5l-.7-2.4h-5.4c-.1.3-1.1 3-1.1 3.7 0 .7.7.8 1.2.8v.8h-4.5v-.7c.8 0 1.5-.1 2-1.8l4.1-13.3c-.2-.6-.6-.7-1.1-.8v-.6h3.7l4.4 13.9c.4 1.5.8 2.2 1.5 2.5 1-.3 1.2-.7 1.2-2.5v-11.6c-.7-1-.8-1.6-2.2-1.6v-.6h4.1l6.8 11.6v-8.9c0-1.8-.4-2.2-1.8-2.2v-.6h9.1v.6c-.6 0-1.1.2-1.1.8 0 .4.2.8.3 1.3l2.6 5.6 2.5-5.5c.4-.7.5-1.1.5-1.5 0-.5-.3-.7-1.1-.7v-.6h4.3v.6c-1.1 0-1.7 1-2.2 2.1l-3.3 6.8v4.5c0 2 .5 2.4 1.8 2.4v.8h-6.2v-.7c1.3 0 1.8-.5 1.8-2.4v-3.9l-3.6-7.6c-.7-1.5-.9-1.8-1.3-2-.8.3-1.1.9-1.1 2.2v12.5s.1 1 .2 2.1l-1.1.1-7.7-13.3zm-10.1-.8l-2.3 7.4h4.7l-2.4-7.4zm-10.1 7.4h-1.2v3.5c0 1.8.5 2.2 1.9 2.2v.7h-6.3v-.7c1.3 0 1.8-.5 1.8-2.3v-11.4c0-1.8-.5-2.1-1.8-2.1v-.6h4.7c4.6 0 7.2 1.4 7.2 5.1 0 3.9-3.2 5.6-6.3 5.6zm-.8-9.6h-.4v8.4h.7c2.7 0 4.1-1.2 4.1-4.3 0-3.1-1.3-4.1-4.4-4.1zm-27.6 12.7c-3.1 0-5.2-2.2-5.2-5.4 0-3 2.2-5.4 5.2-5.4 2.9 0 5.1 2.3 5.1 5.4 0 3.1-2.3 5.4-5.1 5.4zm0-9.8c-2.1 0-2.8 2-2.8 4.4 0 2.2.7 4.4 2.8 4.4 2.1 0 2.8-2.2 2.8-4.5-.1-2.1-.9-4.3-2.8-4.3zm-35.8 8.8v-.6c.8 0 1-.2 1-.5s-.1-.6-.2-.8c0 0-.2-.7-.3-1.1h-3.2l-.3 1.1c-.1.2-.2.5-.2.8 0 .3.3.6.8.6v.6h-3.2v-.6c.8 0 1.1-.2 1.5-1.1l2.4-7.3c-.1-.3-.3-.6-.8-.6v-.6h2.6c2.1 6.2 2.7 7.8 2.7 7.8.4 1.4.8 1.8 1.5 1.8v.6h-4.3v-.1zm-1.2-7.9l-1.2 4h2.5l-1.3-4z" fill-rule="evenodd" clip-rule="evenodd" fill="#2D2C2A"/></svg>