<svg xmlns="http://www.w3.org/2000/svg" viewBox="0 0 232.11 232.11" enable-background="new 0 0 232.11 232.11"><path d="M116.06 232.11c-31 0-60.14-12.07-82.06-33.99s-34-51.07-34-82.06 12.07-60.14 33.99-82.06 51.07-34 82.07-34c31 0 60.14 12.07 82.06 33.99s33.99 51.06 33.99 82.06-12.07 60.14-33.99 82.06c-21.92 21.93-51.07 34-82.06 34zm0-227.89c-61.67 0-111.84 50.17-111.84 111.84s50.17 111.84 111.83 111.84c61.67 0 111.83-50.17 111.83-111.84.01-61.67-50.16-111.84-111.82-111.84zm.94 182.93c-18.92 0-35.3-6.78-48.67-20.15-13.37-13.34-20.15-29.7-20.15-48.62 0-18.89 6.78-35.26 20.15-48.67 13.37-13.37 29.74-20.15 48.67-20.15 18.89 0 35.23 6.78 48.58 20.15 13.4 13.4 20.2 29.77 20.2 48.67 0 18.92-6.8 35.28-20.2 48.62-13.34 13.37-29.69 20.15-48.58 20.15zm0-134.96c-18.2 0-33.94 6.52-46.8 19.38-12.86 12.89-19.38 28.64-19.38 46.8 0 18.2 6.52 33.93 19.38 46.76 12.86 12.86 28.61 19.38 46.8 19.38v1.32-1.32c18.17 0 33.88-6.52 46.71-19.38 12.89-12.83 19.43-28.56 19.43-46.76 0-18.17-6.54-33.91-19.43-46.8-12.83-12.86-28.55-19.38-46.71-19.38z" fill="#6B6B6B"/><path d="M102.54 85.89l-.99.99.06 2.13c-3.22-1.53-6.11-2.13-8.65-1.78-2.6.46-4.18 1.6-4.73 3.42l2.57 2.58c-.17.39-.33.67-.49.82-1.25 2.24-3.12 4.1-5.6 5.59-.17.06-.27.07-.3.04-.18.18-.3.27-.36.27l-2.81-2.81c-1.13-1.04-2.51-.85-4.16.57-1.41 1.29-2.01 2.41-1.8 3.35.15.63-.08 1.38-.72 2.24-.69 1.03-1.74 1.92-3.15 2.68l-6.39-5.89c1.49-1.69 2.55-2.7 3.17-3.04.48-.28 1.14-.32 1.98-.13.73.25 1.43.19 2.09-.19.51-.22 1.42-1.07 2.74-2.53.04-2.88 1.9-5.66 5.57-8.31 2.69-1.93 6.05-2.91 10.09-2.95 4.18-.02 8.13.96 11.88 2.95zm46.37 62.86c1.35 1.01.74 2.88-1.84 5.59-2.65 2.73-4.59 3.42-5.83 2.07-4.2-4.91-7.18-8.32-8.92-10.24-3.07-3.46-6.53-6.82-10.4-10.07-3.84-3.08-9.3-8.55-16.39-16.4-3.49-3.94-7.01-7.58-10.57-10.91-2.74-2.66-5.7-5.26-8.88-7.79 2.42-1.46 4.31-3.3 5.66-5.53 2.26 2.83 4.92 5.69 7.95 8.59 3.87 3.7 6.79 6.37 8.76 8 7.99 6.76 14.12 12.39 18.4 16.89 2.91 3.03 6.53 6.4 10.87 10.11l11.19 9.69zm5.59-51.58l-2.81 2.81c-.06 0-.18-.09-.36-.27-.03.03-.13.01-.3-.04-2.48-1.49-4.34-3.36-5.59-5.59-.15-.15-.32-.43-.49-.82l2.58-2.57c-.55-1.81-2.12-2.96-4.73-3.42-2.55-.35-5.43.24-8.65 1.77l.06-2.13-.99-.99c3.76-1.98 7.7-2.96 11.84-2.93 4.04.04 7.4 1.03 10.09 2.96 3.67 2.66 5.53 5.43 5.57 8.32 1.32 1.46 2.24 2.31 2.74 2.53.66.38 1.36.44 2.09.19.84-.2 1.51-.15 1.98.13.62.34 1.67 1.35 3.17 3.04l-6.4 5.89c-1.41-.76-2.45-1.65-3.14-2.68-.63-.86-.87-1.6-.72-2.24.21-.94-.39-2.06-1.79-3.36-1.64-1.45-3.03-1.64-4.15-.6zm-4.82 3.84c-3.18 2.53-6.14 5.13-8.89 7.78-3.56 3.33-7.09 6.97-10.58 10.91-7.09 7.85-12.56 13.31-16.4 16.39-3.87 3.25-7.34 6.6-10.41 10.06-1.75 1.91-4.72 5.32-8.93 10.23-1.24 1.35-3.18.66-5.82-2.07-2.57-2.72-3.19-4.58-1.83-5.59l11.21-9.68c4.33-3.71 7.96-7.08 10.87-10.1 4.28-4.5 10.42-10.13 18.41-16.88 1.97-1.63 4.89-4.3 8.76-7.99 3.04-2.9 5.69-5.76 7.96-8.59 1.35 2.23 3.23 4.07 5.65 5.53zm35.32 76.55c-.2-.14-.37-.21-.54-.22-.17 0-.33.02-.5.08-.17.06-.34.16-.51.28l-1.12.76c-.2.13-.39.22-.56.28-.2.03-.4.02-.6-.02-.2-.04-.41-.14-.64-.32-.13-.1-.26-.26-.38-.46-.09-.2-.14-.4-.13-.6.01-.23.05-.46.12-.69.11-.26.26-.51.47-.73.21-.26.41-.45.61-.58.24-.13.47-.2.7-.23.23-.03.45 0 .64.07.2.07.39.19.59.37l-.36.39c-.16-.14-.32-.23-.49-.26-.16-.07-.33-.08-.5-.01-.17.03-.32.09-.45.19-.17.13-.31.26-.41.39-.17.19-.29.39-.37.59-.07.2-.09.38-.07.55.03.17.09.32.19.45.06.1.16.2.29.31.2.1.36.14.49.11.2-.03.37-.09.5-.18.13-.06.3-.17.51-.33l.51-.38c.17-.13.36-.24.56-.33.17-.09.35-.17.55-.23.2-.06.4-.05.6.02.2.04.39.14.59.32.42.34.62.75.61 1.21-.01.5-.23.99-.64 1.47-.17.23-.38.42-.61.58-.27.16-.5.25-.7.28-.27.06-.52.05-.75-.02-.26-.07-.51-.21-.73-.42l.36-.39c.19.14.39.23.59.27.2.04.38.04.55.02.2-.06.39-.14.55-.23.17-.13.32-.27.46-.43.14-.19.24-.39.32-.59.07-.16.11-.33.11-.49 0-.17-.04-.32-.14-.45-.05-.18-.14-.29-.27-.4zm-6.14.66l4.21 3.95-.41.43-5.94-1.02 3.63 3.44-.36.39-4.21-3.95.41-.44 5.99 1.02-3.68-3.44.36-.38zm-1.23 8.02c-.02-.3-.11-.6-.27-.9-.16-.27-.35-.52-.57-.76-.29-.34-.56-.58-.82-.72-.29-.14-.59-.25-.89-.33-.3-.01-.58.03-.85.12s-.52.25-.76.47c-.27.26-.46.52-.57.78-.11.29-.15.59-.13.89.06.3.15.58.27.85.19.3.38.58.57.81.26.27.52.48.78.62.26.17.54.3.83.37.26.04.55.02.85-.07.3-.09.59-.25.86-.47.27-.26.46-.53.57-.83.11-.28.15-.56.13-.83zm.5-.03c.02.4-.04.76-.18 1.09-.14.36-.37.67-.67.92-.34.32-.69.53-1.06.61-.37.12-.72.16-1.05.12-.33-.04-.67-.17-1.03-.38-.29-.17-.6-.42-.92-.72-.29-.34-.51-.68-.67-1.01-.16-.34-.25-.69-.27-1.05-.02-.37.04-.71.18-1.04.11-.33.33-.65.68-.97.34-.29.68-.49 1.01-.62.37-.12.73-.16 1.1-.12.33.08.67.2 1.03.38.33.21.63.47.92.77.29.31.51.63.67.96.15.34.24.69.26 1.06zm-7.71.17l3.7 4.44-.41.34-3.7-4.44.41-.34zm-4.33 3.45l3.36-2.58.29.36-1.48 1.1 3.26 4.22-.46.33-3.21-4.22-1.48 1.15-.28-.36zm1.44 3.27l-2.68-1.87.8 3.16 1.88-1.29zm.39.26l-2.13 1.48.49 1.9-.46.33-1.46-6.06.51-.33 5.12 3.44-.46.33-1.61-1.09zm-15.96 4.8l5.23 3.09v-.05l-2.2-4.49.5-.23 2.53 5.15-.61.28-5.18-3.04 2.2 4.54-.45.24-2.58-5.2.56-.29zm5.1-2.59l2.78 5.06-.45.23-2.83-5.06.5-.23zm2.34-.08c-.01.3.03.6.12.9.09.27.23.55.42.86.16.27.35.52.57.76.22.24.47.41.73.52.26.14.54.22.84.22.3-.02.62-.15.96-.37.2-.13.37-.27.51-.43.14-.19.23-.37.26-.54.07-.26.1-.48.07-.64.01-.2-.04-.43-.13-.7l.51-.28c.09.27.15.55.17.85.03.27 0 .53-.07.79s-.21.51-.42.73c-.17.26-.43.48-.77.67-.37.22-.74.36-1.11.41-.33.02-.66-.04-.99-.18-.33-.11-.62-.32-.88-.62-.29-.27-.53-.58-.72-.92-.28-.47-.47-.91-.56-1.31-.09-.37-.09-.73-.02-1.09.08-.33.23-.62.47-.88.21-.26.48-.48.82-.67.27-.16.52-.27.76-.33.27-.09.52-.12.75-.08.23.04.48.13.74.27.23.11.42.28.58.51l-.46.28c-.32-.34-.68-.53-1.08-.58-.4-.01-.8.11-1.2.36-.27.19-.49.4-.67.63-.08.29-.16.57-.2.86zm-18.4 6.86l3.4 4.28.21-5.46.75-.23 1.83 5.47-.55.18-1.59-4.92-.21 5.51-.45.14-3.45-4.28 1.59 4.87-.5.18-1.78-5.47.75-.27zm-1.71.55l1.32 5.61-.5.13-1.24-5.01-.61 5.45-.5.13-3.05-4.57h-.05l1.24 5.01-.55.13-1.37-5.61.85-.17 3 4.47h.05l.61-5.4.8-.17zm-11.86 4.07l-.55.03c-.15-.47-.39-.79-.72-.97-.33-.18-.74-.24-1.24-.19-.33.02-.62.11-.85.27-.24.16-.43.37-.57.63-.17.26-.28.54-.32.84-.04.26-.03.58.02.95.02.33.08.65.17.95.09.3.23.57.42.81.16.2.39.38.68.52.26.14.59.18.99.13.23-.03.45-.09.65-.18s.37-.22.51-.38.24-.34.31-.54c.11-.2.16-.41.17-.64l.6-.03c-.04.23-.11.49-.22.79-.07.26-.21.49-.42.68-.17.23-.39.4-.66.53-.34.12-.67.21-1 .27-.46.02-.84-.03-1.14-.13-.33-.14-.6-.35-.83-.62-.26-.24-.45-.54-.57-.91-.12-.34-.19-.72-.21-1.15-.08-.53-.07-1 .04-1.39.11-.39.27-.74.48-1.03.24-.26.51-.45.81-.57.3-.16.65-.25 1.05-.27.23-.03.51-.02.84.03.23.04.46.13.69.27.19.14.37.33.53.56.14.19.25.44.34.74zm1.28-1.15c.17-.29.41-.55.72-.77.3-.19.67-.33 1.11-.41.43-.05.83-.04 1.19.04.36.11.67.29.93.53.29.24.51.53.67.87.19.34.31.72.36 1.15.09.43.09.81.02 1.14-.04.4-.15.74-.33 1.03-.18.33-.42.6-.72.82-.31.22-.67.36-1.11.41-.47.05-.86.04-1.19-.04-.36-.11-.69-.29-.98-.53-.26-.24-.46-.53-.62-.86-.19-.34-.31-.71-.36-1.1-.09-.47-.09-.86-.01-1.19.04-.41.15-.77.32-1.09zm.16 1.19c-.01.36.01.68.07.95.06.33.15.65.27.95.12.3.3.56.52.76.19.2.44.34.73.42.26.11.59.13.99.08.4-.09.7-.21.91-.37.27-.19.46-.42.57-.68.14-.23.23-.51.27-.84.01-.33-.01-.66-.07-1-.05-.4-.16-.75-.32-1.05-.12-.3-.3-.54-.53-.71-.23-.21-.49-.35-.78-.42-.26-.07-.56-.08-.89-.03-.37.06-.67.18-.91.37-.27.19-.46.42-.57.68-.12.27-.21.56-.26.89zm21.63-8.15l1.34 3.32c.28.7.33 1.32.14 1.84-.21.49-.66.89-1.33 1.2-.7.28-1.3.29-1.79.05-.49-.21-.87-.67-1.15-1.38l-1.39-3.32.5-.23 1.3 3.22c.28.64.6 1.06.96 1.27.39.18.86.16 1.39-.06.3-.12.52-.27.66-.43.17-.16.29-.34.36-.54.07-.23.08-.46.02-.7-.03-.27-.1-.55-.22-.85l-1.35-3.17.56-.22zm-52.9 4.78l-.9 3.5c-.22.72-.55 1.23-.99 1.51-.47.28-1.07.33-1.79.14s-1.21-.53-1.46-1.04c-.25-.47-.28-1.07-.1-1.79l.95-3.45.49.11-.85 3.36c-.19.69-.2 1.22-.05 1.59.19.37.58.63 1.17.78.26.07.51.1.74.07.23-.03.43-.1.6-.23.2-.13.36-.3.46-.53.14-.26.25-.54.32-.84l.89-3.31.52.13zm1.05 2.97l1.68.35c.16.04.35.06.54.07.2-.03.37-.07.5-.13.13-.03.25-.13.36-.29.1-.1.17-.26.21-.49.04-.23.05-.41.02-.55-.06-.13-.14-.25-.24-.36-.13-.1-.28-.19-.44-.26-.16-.07-.33-.13-.49-.16l-1.73-.35-.41 2.17zm3.85-.43c-.08.36-.2.64-.37.83-.2.19-.47.32-.81.37.16.1.27.22.34.36.06.13.11.27.14.4s.02.3-.01.5l-.14 1.34-.01.2.1.15v.05l-.59-.12c-.06-.13-.07-.27-.04-.4l.15-1.54c0-.17-.02-.3-.09-.4-.06-.1-.13-.19-.19-.25-.1-.07-.21-.12-.34-.16-.13-.04-.25-.06-.35-.06l-1.68-.35-.52 2.57-.54-.12 1.11-5.69 2.22.46c.63.12 1.08.33 1.37.64.27.32.36.72.25 1.22zm-9.9-3.38l-1.72-.6-1.69 5.02-.49-.16 1.69-5.02-1.77-.55.16-.44 3.99 1.31-.17.44zm-4.37-1.97l-1.29 3.34c-.29.72-.68 1.19-1.19 1.41-.5.25-1.1.23-1.79-.05-.69-.29-1.12-.68-1.31-1.18-.22-.54-.18-1.15.1-1.84l1.34-3.34.49.21-1.24 3.2c-.28.65-.37 1.18-.25 1.58.15.4.51.71 1.07.93.26.11.51.16.74.17.23.01.45-.04.65-.13.2-.13.36-.29.46-.48.17-.26.31-.54.42-.83l1.29-3.14.51.15zm15.24 9.35l3.37.45-.06.5-3.86-.56.77-5.7 3.81.51-.06.45-3.27-.45-.31 2.08 2.97.39-.06.5-2.97-.44-.33 2.27zm13.38-1.74l2.88-.01-.01.45-2.88.01.07 2.79-.55-.02-.08-5.77 3.73-.04-.01.45-3.18.05.03 2.09zm-2.12-.76c-.09-.3-.22-.57-.37-.81-.19-.24-.42-.43-.68-.57-.26-.11-.56-.18-.89-.23-.36-.01-.68.05-.95.17-.3.16-.54.33-.71.53-.17.26-.31.54-.42.83-.07.26-.13.58-.18.94-.01.4.01.73.07 1 .09.33.21.62.37.86s.37.43.63.57c.26.17.57.27.94.28.4.01.73-.04 1-.17.27-.12.49-.3.66-.53.21-.23.35-.5.42-.83.11-.3.17-.61.18-.94.04-.4.02-.76-.07-1.1zm.5-.08c.12.4.16.8.11 1.2-.01.43-.09.83-.23 1.19-.11.36-.29.67-.53.93-.24.26-.53.46-.86.62-.34.16-.74.21-1.2.16-.43-.01-.81-.11-1.14-.28-.36-.18-.63-.42-.82-.72-.19-.27-.35-.59-.47-.96-.09-.33-.13-.73-.11-1.2.01-.4.09-.79.23-1.19.14-.36.33-.67.57-.93.24-.26.53-.46.86-.62.34-.16.72-.21 1.15-.16.43.01.83.11 1.19.28.33.18.6.42.82.72.24.31.38.63.43.96zm-49.4-19.28l3.36 2.54-.26.34-1.46-1.09-3.16 4.28-.44-.31 3.16-4.28-1.46-1.09.26-.39zm7.6 5.3l-3.18 4.83-.44-.26 1.51-2.39-2.83-1.87-1.56 2.39-.43-.32 3.18-4.83.44.31-1.35 2.05 2.88 1.88 1.31-2.1.47.31zm4.26 2.47l-.26.39-2.84-1.63-1.05 1.81 2.59 1.47-.26.39-2.59-1.47-1.1 2.01 2.93 1.68-.21.39-3.42-1.94 2.83-4.99 3.38 1.89zm-19.9-14.92l-3.74 3.77 2.22 2.15-.36.34-2.56-2.56 4.05-4.11.39.41zm-1.3-1.38l-4.2 3.95-.39-.36 4.25-3.95.34.36zm-1.25-1.33l-2.76 2.35c-.58.51-1.13.75-1.66.7-.53-.02-1.04-.31-1.52-.89-.51-.58-.73-1.13-.65-1.66.08-.56.4-1.08.94-1.56l2.75-2.3.34.41-2.6 2.21c-.54.48-.86.92-.93 1.31-.05.4.12.83.51 1.31.19.24.39.41.58.51.23.11.44.16.64.17.2-.03.42-.09.65-.18l.76-.52 2.6-2.26.35.4zm-4.2-4.4c-.01.2-.06.38-.17.54-.1.16-.24.31-.41.44-.17.16-.32.26-.46.28-.17.03-.32.04-.45.04s-.25-.04-.34-.11c-.1-.04-.2-.09-.29-.16.19.34.25.67.17 1-.11.29-.31.55-.62.78-.24.19-.47.32-.71.38-.2.06-.42.05-.65-.02-.16-.04-.34-.14-.54-.31-.23-.17-.4-.36-.53-.56l-1.44-1.88 4.63-3.44 1.24 1.63c.22.3.36.56.42.76.12.24.16.46.15.63zm-.67-.67c-.09-.23-.24-.45-.43-.66l-.72-1.02-1.68 1.24.81 1.12c.16.2.32.37.48.51.16.14.31.22.44.26.16.04.31.03.45-.04.1-.03.23-.09.4-.19.17-.13.27-.24.31-.34.07-.13.11-.26.11-.39-.02-.12-.08-.29-.17-.49zm-3.72 2.92c.16.17.32.29.49.36.16.07.31.09.45.06.2-.06.39-.15.56-.28.2-.16.34-.3.41-.44.07-.16.09-.33.06-.5-.03-.2-.09-.38-.18-.55-.09-.17-.22-.35-.38-.56l-.86-1.17-1.88 1.39.86 1.12c.15.21.31.4.47.57zm15.38 9.51c-.16-.17-.34-.34-.53-.51l-.97-.87-3.19 3.63.97.87c.16.14.34.28.53.41.16.1.38.19.64.27.23.04.45.05.65.02.17-.03.35-.09.55-.18.17-.09.34-.22.51-.38.17-.13.32-.27.46-.43.14-.13.27-.29.41-.48.1-.16.19-.36.27-.59.07-.16.11-.36.12-.59.01-.2-.02-.41-.08-.65-.1-.21-.21-.38-.34-.52zm.5-.13c.13.14.22.27.29.41.06.17.11.32.14.45.06.23.07.47.03.7-.07.26-.15.48-.22.64-.07.2-.18.41-.32.64-.14.23-.28.39-.41.48-.14.16-.27.31-.41.43-.14.13-.29.24-.46.33-.14.1-.3.19-.51.28-.2.06-.38.1-.55.13-.2.03-.4.02-.6-.02-.16-.04-.33-.09-.49-.16-.16-.07-.33-.18-.49-.31l-1.94-1.65 3.81-4.31 1.84 1.65c.1.07.2.17.29.31zm17.08 14.23l2.6 1.22-.16.39-2.65-1.22-1.17 2.5-.49-.21 2.44-5.25 3.38 1.59-.21.44-2.84-1.38-.9 1.92zm110.83-133.69c-.13.26-.27.5-.43.72.71-.06 1.35.05 1.93.34.55.32 1 .79 1.35 1.4.39.58.58 1.08.58 1.49.03.48-.06.9-.29 1.25-.19.39-.47.72-.82 1.01-.35.32-.74.61-1.16.87l-5.25 3.23-.63-.96 5.78-3.56c.58-.35.98-.77 1.2-1.25.16-.45.03-1.03-.39-1.73-.22-.35-.51-.64-.87-.87-.35-.22-.75-.37-1.2-.43-.22 0-.45.02-.67.05l-.67.19c-.22.06-.45.16-.67.29-.22.1-.42.21-.58.34l-4.48 2.74-.63-.96 5.78-3.56c.58-.35.96-.77 1.16-1.25.19-.45.08-1.01-.34-1.69-.19-.35-.48-.64-.87-.87-.32-.22-.74-.37-1.25-.43-.22-.03-.43-.02-.63.05-.22.03-.47.1-.72.19-.16.06-.39.16-.67.29l-5.06 3.08-.58-.96 8.33-5.15.58.96-1.25.77.05.05c.61-.06 1.19.06 1.73.39.55.29.98.71 1.3 1.25.26.42.42.77.48 1.06.1.32.13.63.1.91-.03.26-.11.52-.24.75zm-18.98-23.13c.19.29.35.59.48.92.16.32.26.66.29 1.01.06.35.06.71 0 1.06l1.06-1.35.92.72-5.49 6.94c-.39.48-.84.93-1.35 1.35-.48.39-1 .64-1.54.77-.55.16-1.14.16-1.78 0-.61-.16-1.28-.53-2.02-1.11-.58-.45-1.01-.9-1.3-1.35-.29-.48-.46-.93-.53-1.35-.1-.42-.11-.82-.05-1.2.1-.32.22-.61.39-.87l.96.77c-.16.35-.24.66-.24.92 0 .32.06.61.19.87.1.26.26.5.48.72.22.26.47.48.72.67.61.48 1.17.77 1.69.87.55.1 1.04.05 1.49-.14.45-.19.87-.48 1.25-.87.42-.39.79-.8 1.11-1.25-.64.26-1.32.3-2.02.14-.67-.16-1.28-.45-1.83-.87-.61-.48-1.03-1-1.25-1.54-.26-.55-.39-1.12-.39-1.73 0-.58.15-1.17.43-1.78.26-.64.59-1.22 1.01-1.73.42-.55.9-1.03 1.45-1.44.51-.39 1.06-.64 1.64-.77.58-.13 1.16-.13 1.73 0 .58.13 1.19.45 1.83.96.26.14.48.37.67.66zm-17.38-10.8l-.82 1.64h.05c.61-.55 1.22-.85 1.83-.91.58-.06 1.24.08 1.97.43l-.53 1.11c-.58-.29-1.11-.43-1.59-.43-.48.03-.9.16-1.25.38-.39.22-.74.53-1.06.92-.29.39-.55.83-.77 1.35l-2.12 4.29-1.01-.48 4.29-8.81 1.01.51zm2.21 6.56c-.32.48-.56 1-.72 1.54-.13.51-.18 1-.14 1.45.06.45.22.87.48 1.25.22.39.58.72 1.06 1.01.51.32 1.01.48 1.49.48.48.03.93-.05 1.35-.24.45-.22.85-.5 1.2-.82.35-.39.66-.8.92-1.25.32-.45.56-.95.72-1.49.16-.48.21-.95.14-1.4-.03-.48-.16-.92-.38-1.3-.26-.39-.64-.74-1.16-1.06-.51-.29-1.01-.45-1.49-.48-.48-.03-.93.05-1.35.24-.42.22-.82.51-1.2.87-.36.34-.66.75-.92 1.2zm1.79-3.18c.58-.19 1.17-.26 1.78-.19.64.06 1.28.29 1.93.68.64.42 1.14.88 1.49 1.4.35.51.58 1.08.67 1.69.06.58.02 1.19-.14 1.83-.16.61-.43 1.24-.82 1.88-.39.64-.84 1.19-1.35 1.64-.51.42-1.06.72-1.64.91-.58.16-1.17.21-1.78.14-.61-.1-1.2-.32-1.78-.68-.51-.32-.96-.72-1.35-1.2-.35-.48-.59-1-.72-1.54-.13-.58-.13-1.2 0-1.88.13-.64.42-1.35.87-2.12.39-.64.82-1.17 1.3-1.59.48-.46.99-.78 1.54-.97zm10.98 6.98c-.42-.1-.85-.11-1.3-.05-.45.06-.88.22-1.3.48-.42.26-.82.63-1.2 1.11-.42.48-.74.96-.96 1.44-.23.48-.35.98-.39 1.49-.03.48.05.95.24 1.4.16.45.48.87.96 1.25.39.29.82.48 1.3.58.45.1.9.08 1.35-.05.48-.13.93-.34 1.35-.63.42-.29.8-.64 1.16-1.06.39-.51.67-1 .87-1.44.19-.48.29-.96.29-1.45.03-.45-.05-.88-.24-1.3-.19-.42-.5-.8-.92-1.16-.39-.27-.8-.48-1.21-.61zm.43 11.85l6.84-7.03.82.82-1.3 1.3.05.05c.77-.35 1.45-.47 2.02-.34.55.13 1.12.48 1.73 1.06l-.87.87c-.45-.45-.9-.75-1.35-.92-.45-.13-.88-.15-1.3-.05-.45.1-.88.29-1.3.58-.42.29-.82.63-1.2 1.01l-3.32 3.42-.82-.77zm14.06.2c.29.39.55.77.77 1.16.19.42.3.82.34 1.2.03.42-.05.82-.24 1.2-.16.39-.47.75-.92 1.11l-4.05 3.47c-.35.29-.51.53-.48.72 0 .19.22.42.67.67l-.67.58-.34-.24c-.16-.1-.29-.19-.39-.29-.13-.13-.22-.27-.29-.43-.1-.16-.14-.32-.14-.48 0-.13.03-.27.1-.43.03-.13.1-.26.19-.39.1-.06.22-.18.39-.34-.74-.03-1.4-.19-1.98-.48-.61-.29-1.16-.71-1.64-1.25-.26-.32-.48-.67-.67-1.06-.16-.39-.26-.77-.29-1.16 0-.35.08-.72.24-1.11.13-.35.39-.69.77-1.01 1.25-1.06 2.73-.82 4.43.72l1.2 1.06c.06.1.26.26.58.48.22.22.43.37.63.43.19.1.39.1.58 0 .19-.1.35-.21.48-.34.42-.39.66-.83.72-1.35.03-.55-.24-1.14-.82-1.78-.26-.32-.51-.58-.77-.77-.26-.19-.53-.34-.82-.43-.29-.06-.59-.06-.92 0-.32.06-.66.21-1.01.43l-.77-.87c.48-.35.95-.56 1.4-.63.45-.1.9-.1 1.35 0 .45.1.85.29 1.2.58.43.31.82.65 1.17 1.03zm-7.9 2.41c-.22.19-.39.4-.48.63-.06.26-.1.5-.1.72.03.29.1.53.19.72.13.26.27.48.43.67.29.35.63.66 1.01.92.32.26.69.43 1.11.53.39.1.79.11 1.2.05.39-.1.77-.3 1.16-.63l1.16-.96c-.48-.26-.9-.55-1.25-.87-.32-.29-.67-.63-1.06-1.01-.61-.64-1.19-1.03-1.73-1.16-.58-.19-1.12-.06-1.64.39zm-33.9-24.53c-.19.51-.31 1.03-.34 1.54-.03.55.02 1.03.14 1.45.16.48.39.88.67 1.2.32.35.72.63 1.2.82.55.19 1.06.26 1.54.19.51-.1.96-.27 1.35-.53.42-.29.75-.66 1.01-1.11.32-.48.58-1.01.77-1.59.19-.58.29-1.12.29-1.64.03-.48-.05-.93-.24-1.35-.16-.42-.4-.77-.72-1.06-.32-.32-.71-.56-1.16-.72-.51-.16-1-.23-1.45-.19-.45.06-.87.22-1.25.48-.42.26-.77.59-1.06 1.01-.3.42-.56.92-.75 1.5zm1.68-4.62l-.58 1.59c.26-.22.56-.42.92-.58.32-.13.66-.21 1.01-.24.35-.06.69-.08 1.01-.05.35.03.67.1.96.19.74.29 1.33.66 1.78 1.11.42.42.72.9.91 1.45.16.58.21 1.19.14 1.83-.07.64-.23 1.3-.48 1.97-.23.64-.53 1.24-.92 1.78-.39.51-.82.93-1.3 1.25-.51.32-1.08.51-1.69.58-.61.1-1.27.02-1.97-.24-.67-.26-1.24-.63-1.69-1.11-.51-.51-.84-1.12-.96-1.83l-1.88 5.11-1.06-.39 4.72-12.81 1.08.39zm-7.8-2.41l-.24 1.2c-.64-.16-1.19-.18-1.64-.05-.42.13-.79.35-1.11.67-.32.32-.58.72-.77 1.2-.19.51-.34 1.01-.43 1.49l-.92 4.72-1.11-.24 1.88-9.59 1.11.19-.33 1.85c.48-.71 1-1.17 1.54-1.4.54-.19 1.22-.21 2.02-.04zm-8.72.52c-.22-.35-.53-.64-.91-.87-.35-.19-.79-.32-1.3-.39-.48-.06-.93-.02-1.35.14-.39.16-.74.39-1.06.67-.29.26-.53.59-.72 1.01-.23.42-.39.85-.48 1.3l6.36.63c.06-.51.05-.98-.05-1.4-.1-.43-.26-.8-.49-1.09zm-2.12-2.26c1.35.13 2.36.69 3.03 1.69.67 1 .91 2.38.72 4.14l-7.56-.77c-.03.51-.02 1.03.05 1.54.1.48.27.9.53 1.25.22.39.53.71.91.96.39.22.85.37 1.4.43.77.06 1.43-.06 1.97-.38.55-.32.95-.83 1.2-1.54l1.3.1c-.19.48-.42.9-.67 1.25-.29.39-.61.71-.96.96-.39.26-.82.43-1.3.53-.45.13-1 .16-1.64.1-.8-.1-1.46-.29-1.97-.58-.51-.32-.93-.72-1.25-1.2-.32-.51-.55-1.09-.67-1.73-.13-.64-.14-1.32-.05-2.02.06-.67.23-1.33.48-1.98.29-.61.64-1.12 1.06-1.54.45-.45.95-.79 1.49-1.01.58-.2 1.23-.27 1.93-.2zm-6.89 1.97c.06.42.1.8.1 1.16l.14 6.41-1.16.05-.09-6.41c-.03-.9-.24-1.56-.63-1.97-.42-.42-1.08-.63-1.98-.63-.35.03-.67.1-.96.19-.32.13-.58.27-.77.43-.22.19-.42.4-.58.63-.16.22-.29.47-.39.72-.1.35-.16.66-.19.91v.96l.09 5.25-1.11.05-.24-9.83h1.16l.05 1.35c.45-.48.9-.88 1.35-1.2.48-.32 1.06-.48 1.73-.48.61 0 1.17.1 1.69.29.51.19.96.55 1.35 1.06.27.35.41.71.44 1.06zm-9.44-.92l-1.83.19.82 7.27c.03.19.08.34.14.43.06.1.16.18.29.24.16.03.35.03.58 0 .1 0 .26-.03.48-.1l.43-.14.1.92-.53.19c-.22.1-.47.16-.72.19-.58.06-1.03-.03-1.35-.29-.32-.26-.53-.75-.63-1.49l-.77-7.08-1.35.14-.1-.96 1.35-.14-.29-2.7 1.11-.1.34 2.7 1.83-.19.1.92zm-5.3.63c-.64.1-1.14.29-1.49.58-.39.26-.66.59-.82 1.01-.19.42-.29.87-.29 1.35 0 .51.05 1.04.14 1.59l.82 4.72-1.11.19-1.73-9.63 1.16-.19.29 1.78h.05c.16-.8.47-1.41.92-1.83.45-.39 1.08-.64 1.88-.77l.18 1.2zm-7.32 1.73c.29.35.51.79.67 1.3l1.4 5.15c.13.42.29.67.48.77.16.06.45-.06.87-.39l.24.87-.34.24c-.16.1-.32.16-.48.19-.19.06-.35.1-.48.1-.19.03-.35.02-.48-.05-.16-.06-.27-.16-.34-.29-.1-.1-.19-.22-.29-.39-.06-.16-.11-.3-.14-.43-.32.64-.75 1.17-1.3 1.59-.51.42-1.11.72-1.78.91-.42.13-.83.19-1.25.19-.42 0-.8-.08-1.16-.24-.35-.13-.66-.34-.92-.63-.29-.29-.48-.67-.58-1.16-.45-1.61.39-2.86 2.51-3.76l2.17-.91c.26-.13.47-.26.63-.39.16-.13.24-.3.24-.53l-.1-.58c-.16-.55-.48-.95-.96-1.2-.45-.29-1.09-.31-1.93-.05-.39.1-.72.22-1.01.39-.32.16-.56.35-.72.58-.19.22-.34.5-.43.82-.06.32-.06.69 0 1.11l-1.11.29c-.13-.58-.13-1.09 0-1.54.1-.45.29-.85.58-1.2.26-.32.59-.61 1.01-.87.45-.26.93-.45 1.45-.58.45-.13.9-.19 1.35-.19.45 0 .87.06 1.25.19.37.14.69.37.95.69zm-1.25 4.19l-1.35.53c-.84.32-1.45.69-1.83 1.11-.39.45-.48 1-.29 1.64.06.29.19.53.39.72.16.19.35.32.58.39.22.1.48.14.77.14.26 0 .51-.03.77-.1.42-.13.84-.31 1.25-.53.35-.22.67-.5.96-.82.26-.32.43-.67.53-1.06.1-.39.08-.82-.05-1.3l-.43-1.49c-.39.32-.82.58-1.3.77zm-7.76 0c.39.51.74 1.11 1.06 1.78.26.64.42 1.28.48 1.93.1.64.06 1.25-.1 1.83-.13.58-.4 1.09-.82 1.54-.39.48-.92.87-1.59 1.16-.64.29-1.32.42-2.02.38-.71-.03-1.35-.27-1.93-.72l2.12 5.01-1.06.43-5.3-12.57 1.06-.43.67 1.59c.03-.35.13-.71.29-1.06.13-.32.31-.61.53-.87.22-.29.47-.53.72-.72.29-.22.58-.4.87-.53.74-.29 1.4-.42 1.97-.38.61 0 1.17.14 1.69.43.53.28.98.69 1.36 1.2zm-3.42-.53c-.45 0-.9.1-1.35.29-.48.22-.87.51-1.16.87-.32.35-.53.75-.63 1.2-.1.45-.13.93-.1 1.45.1.58.26 1.12.48 1.64.22.51.5.96.82 1.35.32.39.69.71 1.11.96.39.22.82.35 1.3.39.48.03.95-.05 1.4-.24.51-.19.93-.5 1.25-.92.32-.39.53-.82.63-1.3.1-.48.1-.98 0-1.49-.06-.55-.24-1.11-.53-1.69-.22-.55-.51-1.01-.87-1.4-.32-.35-.69-.63-1.11-.82-.37-.2-.79-.29-1.24-.29zm-8.43 7.85c.8 1.25 1.03 2.6.67 4.05-.35 1.51-1.22 2.73-2.6 3.66-1.38.9-2.83 1.22-4.34.96-1.48-.29-2.63-1.06-3.47-2.31-.8-1.25-1.04-2.62-.72-4.09.35-1.51 1.22-2.71 2.6-3.61 1.41-.93 2.87-1.25 4.38-.96 1.48.29 2.62 1.04 3.42 2.26l.06.04zm-17.25 5.05l-1.73-2.12 3.47-2.84 1.73 2.17-3.47 2.79zm3.86-2.16l6.5 8-3.32 2.7-6.5-8 3.32-2.7zm6.79-.15c-.1.45 0 .88.29 1.3l.05.05c.26.42.63.69 1.11.82.48.1.92.02 1.3-.24.39-.26.63-.61.72-1.06.06-.48-.05-.93-.34-1.35-.29-.45-.66-.72-1.11-.82-.48-.13-.92-.06-1.3.19-.41.26-.66.63-.72 1.11zm-19.03 11.03l6.45 8.77-2.12 2.89-4.38-1.54 2.7 3.76-2.12 2.89-10.21-3.71 2.46-3.27 3.95 1.64-2.6-3.52 2.02-2.75 4.14 1.49-2.7-3.37 2.41-3.28zm3.95-3.61l7.42 7.13-2.99 3.08-7.42-7.13 2.99-3.08zm-2.45-2.46l1.97 1.88-3.08 3.23-1.97-1.93 3.08-3.18zm-11.38 19.99l2.94 1.59-1.16 2.07 2.31 1.25c.32.16.61.21.87.14.19-.06.39-.26.58-.58.19-.35.29-.79.29-1.3l2.94 1.59c0 .84-.26 1.73-.77 2.7-1.25 2.28-2.96 2.82-5.11 1.64l-3.13-1.69-.58 1.06-2.89-1.54.58-1.06-2.31-1.25 2.07-3.76 2.26 1.25 1.11-2.11zm21.68-10.84l-9.34-10.12 3.18-2.89 9.34 10.12-3.18 2.89z" fill-rule="evenodd" clip-rule="evenodd" fill="#6B6B6B"/></svg>