<svg xmlns="http://www.w3.org/2000/svg" viewBox="0 0 72 72"><path fill="#fff" d="M0 0h72v72H0z"/><circle cx="36" cy="36" r="35" fill="none" stroke="#00a4e4" stroke-width="1.5" opacity=".2"/><path d="M51.5 45a2.5 2.5 0 0 1-2.5-2.5v-12a2.5 2.5 0 0 1 5 0v12a2.5 2.5 0 0 1-2.5 2.5zM29.38 17.256L27.43 13.81a.365.365 0 0 1 .154-.508.388.388 0 0 1 .523.15l1.966 3.475a13.96 13.96 0 0 1 10.91 0l1.966-3.484a.393.393 0 0 1 .525-.15.37.37 0 0 1 .152.51l-1.946 3.45a11.04 11.04 0 0 1 6.4 9.744H22.976a11.033 11.033 0 0 1 6.403-9.74zm11.867 5.33a1.023 1.023 0 1 0-1.053-1.022 1.036 1.036 0 0 0 1.053 1.02zm-11.432 0a1.022 1.022 0 1 0-1.05-1.022 1.037 1.037 0 0 0 1.05 1.023zM19.5 45a2.5 2.5 0 0 1-2.5-2.5v-12a2.5 2.5 0 0 1 5 0v12a2.5 2.5 0 0 1-2.5 2.5zm28.5.065a2.933 2.933 0 0 1-2.974 2.89H43V53.5a2.5 2.5 0 0 1-5 0v-5.544h-5V53.5a2.5 2.5 0 0 1-5 0v-5.543h-1.947a2.927 2.927 0 0 1-2.973-2.89v-17.06H48z" fill="#00a4e4"/></svg>