<svg xmlns="http://www.w3.org/2000/svg" viewBox="0 0 72 72"><path fill="#fff" d="M0 0h72v72H0z"/><path d="M25.39 2h21.22c6.736 0 10.1 0 13.728 1.146a14.253 14.253 0 0 1 8.516 8.516C70 15.287 70 18.654 70 25.39v21.22c0 6.736 0 10.1-1.146 13.728a14.247 14.247 0 0 1-8.516 8.516C56.713 70 53.346 70 46.61 70H25.39c-6.736 0-10.1 0-13.728-1.146a14.247 14.247 0 0 1-8.516-8.516C2 56.713 2 53.346 2 46.61V25.39c0-6.736 0-10.1 1.146-13.728a14.253 14.253 0 0 1 8.516-8.516C15.287 2 18.654 2 25.39 2" fill="none" stroke="#00a4e4" stroke-width="1.5" opacity=".22"/><path d="M16.623 49.205V29.5h-1.74v19.705h1.74zm-.866-25.635a1.252 1.252 0 0 0-1.14 1.315 1.135 1.135 0 1 0 2.25 0 1.192 1.192 0 0 0-1.11-1.315zM32.5 22.5c-6.224 0-11.123 5.2-11.123 13.765 0 8.143 4.715 13.222 10.83 13.222 5.745 0 11.085-4.536 11.085-13.765C43.3 27.615 38.766 22.5 32.5 22.5zm-.11 1.55c6.225 0 9.1 6.283 9.1 11.788 0 6.476-3.278 12.1-9.17 12.1s-9.135-5.856-9.135-11.75c0-6.088 2.915-12.14 9.21-12.14zM45.808 47.7a10.757 10.757 0 0 0 5.93 1.783c5.3 0 7.883-3.412 7.883-7.212 0-3.915-2.172-5.854-6.26-7.6-3.574-1.473-5.157-2.946-5.157-5.854 0-2.055 1.362-4.77 5.377-4.77a7.64 7.64 0 0 1 4.383 1.24l.663-1.55a9.207 9.207 0 0 0-4.936-1.24c-4.2 0-7.22 2.79-7.22 6.63 0 3.568 2.395 5.74 6.41 7.212 3.573 1.474 5.01 3.18 5.01 6.127 0 3.22-2.284 5.43-5.967 5.43a9.51 9.51 0 0 1-5.452-1.746z" fill="#00a4e4"/></svg>