<svg xmlns="http://www.w3.org/2000/svg" viewBox="0 0 80 80" enable-background="new 0 0 80 80"><path d="M39.82 77.06c-19.63 0-35.6-15.97-35.6-35.6 0-17.14 12.21-31.85 29.02-34.99l.18.98c-16.34 3.05-28.2 17.36-28.2 34.01 0 19.08 15.52 34.6 34.6 34.6 19.08 0 34.6-15.52 34.6-34.6s-15.52-34.6-34.6-34.6v-1c19.63 0 35.6 15.97 35.6 35.6 0 19.63-15.97 35.6-35.6 35.6zm-11.007-57.387l9.018 18.999-.903.429-9.018-18.999zm9.297 7.427h1v11.51h-1zm.5 17.71c-1.85 0-3.35-1.5-3.35-3.35s1.5-3.35 3.35-3.35 3.35 1.5 3.35 3.35-1.5 3.35-3.35 3.35zm0-5.7c-1.29 0-2.35 1.05-2.35 2.35 0 1.29 1.05 2.35 2.35 2.35s2.35-1.05 2.35-2.35c0-1.29-1.06-2.35-2.35-2.35zm-9.25-23.18l-.87-.48 4.61-8.37-8.36-4.61.48-.88 9.24 5.1z" fill="#2D2C2A"/><path d="M50.53 47.67c0-2.03.44-3.47 2.21-7.29 1.29-2.79 2-4.29 2-6.79 0-1.59-.76-2.38-1.97-2.38-1.12 0-1.79.91-1.79 2.15v1.56h-.47v-1.56c0-1.53.94-2.59 2.26-2.59 1.44 0 2.41 1.03 2.41 2.82 0 2.62-.68 4.18-2.03 6.97-1.91 4-2.18 5.29-2.18 7.12v.15h4.32v.44h-4.76v-.6zm12.12-3.14v3.73h-.47v-3.73h-4.15v-.47l3.91-13h.71v13h1.18v.47h-1.18zm-.47-12.68l-3.68 12.2h3.68v-12.2z" fill="#2D2C2A" stroke="#2D2C2A" stroke-width=".5" stroke-miterlimit="10"/></svg>