<svg xmlns="http://www.w3.org/2000/svg" viewBox="0 0 140.9 26.4" enable-background="new 0 0 140.9 26.4"><path fill="#231F20" d="M7.1 26.4l-.1-1 129.3-10.2v-1.6l-129.2-12.6.1-1 130.1 12.7v3.5zm0 0h-.1c-2 0-3.9-1.5-5.2-4.1-1.2-2.5-1.9-5.8-1.8-9.3.2-7.3 3.5-13 7.6-13h.1c2 0 3.9 1.5 5.2 4.1 1.3 2.5 1.9 5.8 1.8 9.2-.2 7.4-3.5 13.1-7.6 13.1zm.5-25.3c-3.5 0-6.5 5.4-6.6 12-.1 3.3.5 6.4 1.7 8.8 1.1 2.2 2.7 3.5 4.3 3.5l.1.5v-.5c3.5 0 6.4-5.4 6.6-12 .1-3.3-.5-6.4-1.7-8.8-1.2-2.2-2.7-3.5-4.4-3.5zm-6.3 17.1h12v1h-12zm135.8 2.3c-1.6 0-2.9-1.7-3.4-4.1l1-.2c.4 2 1.3 3.3 2.4 3.3.7 0 1.3-.5 1.8-1.4.6-1 .9-2.4 1-3.9.1-2.9-1.1-5.4-2.5-5.4-1.2-.1-2.4 1.7-2.7 4.1l-1-.1c.4-3 2-5 3.7-5 2.1.1 3.6 2.9 3.5 6.4 0 1.6-.4 3.2-1.1 4.3-.7 1.3-1.7 2-2.7 2z"/></svg>