<svg xmlns="http://www.w3.org/2000/svg" viewBox="0 0 110.5 71" enable-background="new 0 0 110.5 71"><path fill="#231F20" d="M22.6 69.9l-11.7-11c-6.1-5.8-9.9-13.3-10.7-21.2-.9-8.5 1.7-16.8 7.3-22.7 11.2-11.8 30.9-11.3 43.9 1l23.4 22.1c2.1 2 4.7 3.2 7.1 3.3 1.3.1 3.1-.1 4.3-1.4 1.2-1.3 1.3-3.1 1.2-4.4-.3-2.4-1.6-5-3.7-6.9l-11.6-11.1.7-.7 11.7 11.1c2.2 2.1 3.7 4.9 4 7.5.2 1.5 0 3.6-1.4 5.2-1.5 1.6-3.6 1.8-5.1 1.7-2.7-.1-5.5-1.4-7.8-3.5l-23.4-22.2c-12.7-11.9-31.8-12.4-42.6-1-5.4 5.7-7.9 13.6-7.1 21.8.8 7.7 4.5 15 10.4 20.6l11.7 11.1-.6.7zm59.8-5.5h-1.5c-8-.4-15.7-3.8-21.8-9.5l-23.5-22.2c-1.8-1.7-4.1-2.8-6.3-3.2-2.1-.3-4 .2-5.1 1.3-1.2 1.3-1.3 3.1-1.2 4.4.3 2.4 1.6 5 3.7 6.9l11.7 11.1-.7.7-11.7-11c-2.2-2.1-3.7-4.9-4-7.5-.2-1.5 0-3.6 1.4-5.2 1.3-1.4 3.5-2 6-1.6 2.4.4 4.9 1.6 6.8 3.4l23.4 22.1c5.9 5.6 13.4 8.9 21.1 9.3 8.2.4 16.1-2.7 21.4-8.3 5.4-5.7 7.9-13.6 7.1-21.8-.8-7.7-4.5-15-10.4-20.6l-11.6-11.1.7-.7 11.7 11.1c6.1 5.7 9.9 13.3 10.7 21.2.9 8.5-1.8 16.7-7.3 22.6-5.2 5.5-12.7 8.6-20.6 8.6zm-56.5 6.6c-1.4 0-2.6-.4-3.4-1.3-1.2-1.3-1.5-3.3-.7-5.8.8-2.3 2.4-4.7 4.6-6.8 2.9-2.8 6.5-4.5 9.3-4.5 1.4 0 2.6.4 3.4 1.3 1.2 1.3 1.5 3.3.7 5.8-.8 2.3-2.4 4.7-4.6 6.8-3 2.8-6.5 4.5-9.3 4.5zm9.8-17.4c-2.6 0-5.9 1.6-8.6 4.3-2.1 2-3.6 4.2-4.3 6.4-.8 2-.6 3.7.4 4.7.6.6 1.5 1 2.7 1 2.6 0 5.9-1.6 8.6-4.3 2.1-2 3.6-4.2 4.3-6.4.7-2.1.5-3.7-.4-4.8-.7-.5-1.6-.9-2.7-.9zm39.3-35.2c-1.4 0-2.6-.4-3.4-1.3-1.2-1.3-1.5-3.3-.7-5.8.8-2.3 2.4-4.7 4.6-6.8 2.9-2.8 6.5-4.5 9.3-4.5 1.4 0 2.6.4 3.4 1.3 1.2 1.3 1.5 3.3.7 5.8-.8 2.3-2.4 4.7-4.6 6.8-2.9 2.8-6.5 4.5-9.3 4.5zm9.8-17.4c-2.6 0-5.9 1.6-8.6 4.3-2.1 2-3.6 4.2-4.3 6.4-.7 2.1-.5 3.7.4 4.8.6.6 1.5 1 2.7 1 2.6 0 5.9-1.6 8.6-4.3 2.1-2 3.6-4.2 4.3-6.4.7-2.1.6-3.8-.4-4.8-.6-.7-1.5-1-2.7-1zm-60.644 59.587l7.702 7.282-.687.727-7.702-7.282zm49.728-52.632l7.702 7.282-.687.727-7.702-7.282z"/></svg>