<svg xmlns="http://www.w3.org/2000/svg" viewBox="0 0 80 80" enable-background="new 0 0 80 80"><path d="M73.25 51.71c-1.92 0-3.48-1.56-3.48-3.48s1.56-3.48 3.48-3.48 3.48 1.56 3.48 3.48-1.56 3.48-3.48 3.48zm0-5.96c-1.37 0-2.48 1.11-2.48 2.48 0 1.37 1.11 2.48 2.48 2.48s2.48-1.11 2.48-2.48c0-1.37-1.11-2.48-2.48-2.48zm-69.35 3.23c-1.43 0-2.6-1.17-2.6-2.6 0-1.43 1.17-2.6 2.6-2.6 1.43 0 2.6 1.17 2.6 2.6 0 1.43-1.17 2.6-2.6 2.6zm0-4.2c-.88 0-1.6.72-1.6 1.6s.72 1.6 1.6 1.6c.88 0 1.6-.72 1.6-1.6s-.72-1.6-1.6-1.6zm35.69 26.06l-9.66-50.27-6.26 26.53h-16.79v-1h16l7.15-30.31 9.72 50.59 9.49-35.28 5.28 16.63h16.03v1h-16.76l-4.47-14.08z" fill="#2D2C2A"/><path d="M46.13 12.69c0-1.33.86-2.27 2.17-2.27s2.17.97 2.17 2.27v11.12c0 1.36-.89 2.32-2.14 2.32s-2.11-.89-2.11-2.24v-.7h.42v.7c0 1.2.76 1.83 1.7 1.83s1.72-.63 1.72-1.9v-5.66c-.23.65-1.02 1.23-1.9 1.23-1.17 0-2.01-.7-2.01-2.01v-4.69zm2.06 6.26c.99 0 1.85-.86 1.85-2.14v-4.12c0-1.07-.7-1.85-1.75-1.85-1.04 0-1.75.7-1.75 1.85v4.67c.01 1.12.68 1.59 1.65 1.59zm5.66-6.26c0-1.33.86-2.27 2.17-2.27s2.17.97 2.17 2.27v11.12c0 1.36-.89 2.32-2.14 2.32s-2.11-.89-2.11-2.24v-.7h.42v.7c0 1.2.76 1.83 1.7 1.83s1.72-.63 1.72-1.9v-5.66c-.23.65-1.02 1.23-1.9 1.23-1.17 0-2.01-.7-2.01-2.01v-4.69zm2.06 6.26c.99 0 1.85-.86 1.85-2.14v-4.12c0-1.07-.7-1.85-1.75-1.85-1.04 0-1.75.7-1.75 1.85v4.67c.01 1.12.69 1.59 1.65 1.59zm5.35 5.48h.42v1.67h-.42v-1.67zm3.44-11.74c0-1.33.86-2.27 2.17-2.27s2.17.97 2.17 2.27v11.12c0 1.36-.89 2.32-2.14 2.32s-2.11-.89-2.11-2.24v-.7h.42v.7c0 1.2.76 1.83 1.7 1.83s1.72-.63 1.72-1.9v-5.66c-.23.65-1.02 1.23-1.9 1.23-1.17 0-2.01-.7-2.01-2.01v-4.69zm2.06 6.26c.99 0 1.85-.86 1.85-2.14v-4.12c0-1.07-.7-1.85-1.75-1.85-1.04 0-1.75.7-1.75 1.85v4.67c.01 1.12.69 1.59 1.65 1.59zm5.79 4.13h.42v.78c0 1.12.7 1.85 1.64 1.85 1.02 0 1.64-.7 1.64-1.85v-5.19c0-1.1-.63-1.62-1.54-1.62-.86 0-1.62.73-1.75 1.77h-.42v-8.12h4.17v.39h-3.76v6.78c.26-.7.99-1.23 1.83-1.23 1.15 0 1.88.76 1.88 2.01v5.19c0 1.33-.78 2.27-2.06 2.27-1.23 0-2.06-.99-2.06-2.27v-.76z" fill="#2D2C2A" stroke="#000" stroke-width=".5" stroke-miterlimit="10"/><path fill="#2D2C2A" d="M4.4 44.28h-1v-23.69h18.1v1h-17.1zm27.9 20.72h-28.9v-16.52h1v15.52h27.9zm41.45 0h-29.29v-1h28.29v-12.79h1zm-1-34.23h1v14.47h-1zm-38.2-10.18h7.21v1h-7.21z"/></svg>