<svg xmlns="http://www.w3.org/2000/svg" viewBox="0 0 77.1 94.4" enable-background="new 0 0 77.1 94.4"><path d="M57.1 71.5c2.7-6.3-2.5-11.5-9.4-10.6-2.4-6.1-8.4-11.8-15.3-11.8-8.6 0-17 5.8-17.7 14.2-7.6.7-14.2 7.6-14.2 15.3 0 8.2 7.1 15.3 15.3 15.3h34.1c6.6 0 11.9-5.2 11.9-11.8 0-4-1.5-8.4-4.7-10.6zm9.5-5.9c1.5-2 2.4-4.4 2.4-7.1 0-4.1-1.6-8.5-4.7-10.6 2.7-6.3-2.5-11.5-9.4-10.6-2.4-6.1-8.4-11.8-15.3-11.8-8.6 0-17 5.8-17.7 14.2-7.7.7-14.3 7.6-14.3 15.3m66.7-14.4c1.5-2 2.4-4.4 2.4-7.1 0-4.1-1.6-8.5-4.7-10.6 2.7-6.3-2.5-11.5-9.4-10.6-2.5-6.1-8.5-11.8-15.5-11.8-8.6 0-17 5.8-17.7 14.2-7.5.7-14.2 7.6-14.2 15.3" stroke="#2D2C2A" stroke-linecap="round" stroke-linejoin="round" stroke-miterlimit="10" fill="none"/></svg>