<svg xmlns="http://www.w3.org/2000/svg" viewBox="0 0 59 59" enable-background="new 0 0 59 59"><path fill="#2D2C2A" d="M19.5 11c-9.5 0-19.5-1.9-19.5-5.5s10-5.5 19.5-5.5 19.5 1.9 19.5 5.5-10 5.5-19.5 5.5zm0-10c-10.9 0-18.5 2.4-18.5 4.5s7.6 4.5 18.5 4.5 18.5-2.4 18.5-4.5-7.6-4.5-18.5-4.5zm0 17c-9.7 0-19.5-1.9-19.5-5.5v-7h1v7c0 2.2 7.4 4.5 18.5 4.5s18.5-2.3 18.5-4.5v-7h1v7c0 3.6-9.8 5.5-19.5 5.5zm0 7c-9.7 0-19.5-1.9-19.5-5.5v-7h1v7c0 2.2 7.4 4.5 18.5 4.5s18.5-2.3 18.5-4.5v-7h1v7c0 3.6-9.8 5.5-19.5 5.5zm0 7c-9.7 0-19.5-1.9-19.5-5.5v-7h1v7c0 2.2 7.4 4.5 18.5 4.5s18.5-2.3 18.5-4.5v-7h1v7c0 3.6-9.8 5.5-19.5 5.5zm20 13c-9.5 0-19.5-1.9-19.5-5.5s10-5.5 19.5-5.5 19.5 1.9 19.5 5.5-10 5.5-19.5 5.5zm0-10c-10.9 0-18.5 2.4-18.5 4.5s7.6 4.5 18.5 4.5 18.5-2.4 18.5-4.5-7.6-4.5-18.5-4.5zm0 17c-9.7 0-19.5-1.9-19.5-5.5v-7h1v7c0 2.2 7.4 4.5 18.5 4.5s18.5-2.3 18.5-4.5v-7h1v7c0 3.6-9.8 5.5-19.5 5.5zm0 7c-9.7 0-19.5-1.9-19.5-5.5v-7h1v7c0 2.2 7.4 4.5 18.5 4.5s18.5-2.3 18.5-4.5v-7h1v7c0 3.6-9.8 5.5-19.5 5.5zm-20-20c-9.7 0-19.5-1.9-19.5-5.5v-7h1v7c0 2.2 7.4 4.5 18.5 4.5h1.4v1h-1.4zm19-4.2l-.8-.6c.2-.3.3-.5.3-.7v-7h1v7c0 .4-.2.9-.5 1.3zm-19 11.2c-9.7 0-19.5-1.9-19.5-5.5v-7h1v7c0 2.2 7.4 4.5 18.5 4.5h1v1h-1z"/></svg>