<svg xmlns="http://www.w3.org/2000/svg" viewBox="0 0 27.8 107.3" enable-background="new 0 0 27.8 107.3"><path fill="#231F20" d="M27.8 80.5h-1v-74h-.1l-.1-.3c-.9-2.6-5.4-5.2-11.6-5.2h-.1c-5.6 0-10.5 2.2-11.5 5.1l-.1.4h-.5v74h-1v-75h.8c1.3-3.2 6.4-5.5 12.3-5.5s11.1 2.3 12.4 5.5h.4v75zm-12.9 6.8c-7.1 0-12.7-3.1-12.7-7.1 0-2 1.4-3.8 3.8-5.1 2.4-1.3 5.5-2 8.9-2h.1c7.1 0 12.7 3.1 12.7 7.1 0 4-5.6 7.1-12.7 7.2h-.1zm.1-13.2c-3.3 0-6.3.7-8.5 1.9-2.1 1.2-3.3 2.7-3.3 4.3 0 3.3 5.3 6.1 11.7 6.1h.1c6.5 0 11.7-2.8 11.7-6.2 0-3.4-5.3-6.1-11.7-6.1zm-9.4 27c-3.2 0-5.6-1.4-5.6-3.3 0-1.8 2.5-3.3 5.7-3.3s5.7 1.4 5.7 3.3c0 .9-.6 1.8-1.8 2.4-1.1.5-2.5.9-4 .9zm.1-5.6c-2.8 0-4.7 1.2-4.7 2.3 0 1.1 1.9 2.3 4.6 2.3v.5-.5c1.3 0 2.5-.3 3.4-.8.8-.4 1.2-1 1.2-1.5.1-1.2-1.7-2.3-4.5-2.3zm16.3 11.8c-3.2 0-5.6-1.4-5.6-3.3 0-1.8 2.5-3.3 5.7-3.3s5.7 1.4 5.7 3.3c-.1 1.8-2.6 3.3-5.8 3.3zm.1-5.6c-2.8 0-4.7 1.2-4.7 2.3 0 1.1 1.9 2.3 4.6 2.3v.5-.5c2.8 0 4.7-1.2 4.7-2.3 0-1.1-1.9-2.3-4.6-2.3zm-3.7-4.7c-2 0-3.5-.9-3.5-2.1 0-1.2 1.5-2.1 3.5-2.1s3.5.9 3.5 2.1c0 .6-.4 1.2-1.1 1.6-.6.3-1.5.5-2.4.5zm.1-3.2c-1.4 0-2.5.6-2.5 1.1 0 .5 1.1 1.1 2.5 1.1v.5-.5c.7 0 1.4-.2 1.9-.4.4-.2.6-.5.6-.7-.1-.5-1.1-1.1-2.5-1.1zm2.3-19.3h1v11h-1z"/></svg>