<svg xmlns="http://www.w3.org/2000/svg" viewBox="0 0 85.2 87.3" enable-background="new 0 0 85.2 87.3"><g stroke="#2D2C2A" stroke-linecap="round" stroke-linejoin="round" stroke-miterlimit="10" fill="none"><path d="M84.7 80.9c0 3.3-2.7 5.9-5.9 5.9h-72.4c-3.3 0-5.9-2.7-5.9-5.9v-13h84.2v13z"/><circle cx="75.2" cy="77.3" r="2.4"/><circle cx="75.2" cy="77.3" r="2.4"/><path d="M7.6 74.9h51v4.7h-51zm77.1-17.8c0 3.3-2.7 5.9-5.9 5.9h-72.4c-3.3 0-5.9-2.7-5.9-5.9v-13.1h84.2v13.1z"/><circle cx="75.2" cy="53.5" r="2.4"/><circle cx="75.2" cy="53.5" r="2.4"/><path d="M7.6 51.1h51v4.7h-51zm77.1-18.7c0 3.3-2.7 5.9-5.9 5.9h-72.4c-3.3 0-5.9-2.7-5.9-5.9v-13h84.2v13z"/><circle cx="75.2" cy="28.8" r="2.4"/><circle cx="75.2" cy="28.8" r="2.4"/><path d="M7.6 26.4h51v4.7h-51zm54.1-7.1v-18.8"/></g></svg>