<svg xmlns="http://www.w3.org/2000/svg" viewBox="0 0 80 80" enable-background="new 0 0 80 80"><path d="M36.52 78.24h-34.69v-34.7h34.7v34.7zm-33.69-1h32.7v-32.7h-32.7v32.7zm66.535-67.248l.707.707-25.922 25.922-.707-.707zm.855 15.908h-1v-15.05h-15.05v-1h16.05zm-54.32-20.06h-1v-3.77h4.28v1h-3.28zm62.1.62h-1v-3.39h-3.39v-1h4.39zm-63.1 5.92h1v3.27h-1zm10.76-10.31h2.59v1h-2.59zm9.07 0h2.59v1h-2.59zm10.37 0h2.59v1h-2.59zm10.37 0h2.59v1h-2.59zm9.07 0h2.59v1h-2.59zm-28.52 62.21h1.3v1h-1.3zm9.08 0h2.59v1h-2.59zm10.37 0h2.59v1h-2.59zm9.07 0h2.59v1h-2.59zm13.46 1h-4.39v-1h3.39v-3.39h1zm-1-13.46h1v2.59h-1zm0-9.07h1v2.59h-1zm0-10.37h1v2.59h-1zm0-10.37h1v2.59h-1zm-62.21 19.44h1v2.59h-1zm.11-9.46h1v3.27h-1zm0-9.81h1v3.27h-1zm62.1-9.24h1v2.59h-1z" fill="#2D2C2A"/></svg>