<svg xmlns="http://www.w3.org/2000/svg" viewBox="0 0 126.5 49.8" enable-background="new 0 0 126.5 49.8"><path fill="#2D2C2A" d="M106.5 47.8l-4-4.9c-9.7-11.8-24-18.5-39.2-18.5-15.2 0-29.5 6.8-39.2 18.5l-4 4.9-.8-.6 4-4.9c9.9-12 24.4-18.9 40-18.9 15.5 0 30.1 6.9 40 18.9l4 4.9-.8.6zm-104.5-14.8l-.8-.6 4-4.9c14.4-17.5 35.5-27.5 58.1-27.5 22.5 0 43.7 10 58 27.4l4 4.9-.8.6-4-4.9c-14.1-17.1-35-27-57.2-27-22.3 0-43.1 9.9-57.3 27.1l-4 4.9zm2.7-1c2.7 0 6.2 1.5 9.2 4.1 4.7 3.9 7 9.2 5.1 11.5-.8.9-2.1 1.1-3 1.1-2.7 0-6.2-1.5-9.2-4.1-4.7-3.9-7-9.2-5.1-11.5.8-.9 2-1.1 3-1.1m0-1c-1.6 0-2.9.5-3.8 1.5-2.3 2.8 0 8.6 5.2 12.9 3.3 2.8 7 4.3 9.9 4.3 1.6 0 2.9-.5 3.8-1.5 2.3-2.8 0-8.6-5.2-12.9-3.4-2.7-7.1-4.3-9.9-4.3zm12.841 8.496l.751.66-6.998 7.962-.751-.66zm104.259-7.496c.9 0 2.2.2 3 1.1 1.9 2.3-.4 7.6-5.1 11.5-3 2.5-6.5 4.1-9.2 4.1-.9 0-2.2-.2-3-1.1-1.9-2.3.4-7.6 5.1-11.5 3-2.5 6.5-4.1 9.2-4.1m0-1c-2.8 0-6.5 1.5-9.9 4.3-5.2 4.3-7.5 10.1-5.2 12.9.8 1 2.2 1.5 3.8 1.5 2.8 0 6.5-1.5 9.9-4.3 5.2-4.3 7.5-10.1 5.2-12.9-.9-1-2.2-1.5-3.8-1.5zm-12.811 8.502l7.001 7.958-.751.66-7.001-7.958z"/></svg>