<svg xmlns="http://www.w3.org/2000/svg" viewBox="0 0 73.8 73.8" enable-background="new 0 0 73.8 73.8"><path fill="#2D2C2A" d="M36.8 73.8c-20.3 0-36.8-16.9-36.8-37.7 0-19.8 15.2-35.3 35.3-36.1h1.6c20.3 0 36.9 16.5 36.9 36.7 0 20.5-16.6 37.1-37 37.1zm.1-72.8h-1.6c-19.5.8-34.3 15.9-34.3 35.1 0 20.2 16.1 36.7 35.8 36.7 19.8 0 36-16.2 36-36s-16.1-35.8-35.9-35.8zm-2 72.5c-19-25.3-19-52.7 0-73.3l.7.7c-18.9 20.5-18.9 46.8 0 72.1l-.7.5zm4 0l-.8-.6c19-25.3 19-51.5 0-72.1l.7-.7c9.4 10.2 14.4 22.3 14.4 34.9 0 12.7-4.9 26-14.3 38.5zm-32.9-18.3h61.9v1h-61.9zm-2-35.1h65.5v1h-65.5zm-3.5 17.5h72.7v1h-72.7z"/></svg>