<svg xmlns="http://www.w3.org/2000/svg" viewBox="0 259 612 269" enable-background="new 0 259 612 269"><g><path fill="#2D2C2A" d="M497.8 285H475c-2.4 0-4.5 2-4.5 4.5V339.7c0 2.4 2 4.5 4.5 4.5h22.8c2.4 0 4.5-2 4.5-4.5v-49.8c.4-2.8-1.7-4.9-4.5-4.9zm-11.5 55.9c-.8 0-1.6-.8-1.6-1.6s.8-1.6 1.6-1.6 1.6.8 1.6 1.6c.1.8-.7 1.6-1.6 1.6zm11.9-6.9h-23.7v-44.9h23.7V334zM559.8 396h-34.3c-3.7 0-6.9 3.3-6.9 6.9v75.9c0 3.7 3.3 6.9 6.9 6.9h34.3c3.7 0 6.9-3.3 6.9-6.9v-75.9c0-3.6-2.8-6.9-6.9-6.9zm-17.2 84c-1.2 0-2.4-1.2-2.4-2.4s1.2-2.4 2.4-2.4 2.4 1.2 2.4 2.4c.1 1.6-1.1 2.4-2.4 2.4zm18-10.2h-35.5v-67.7h35.5v67.7zM121.2 289.5H95.5c-2.9 0-5.3 2.4-5.3 5.3v56.7c0 2.9 2.4 5.3 5.3 5.3h25.7c2.9 0 5.3-2.4 5.3-5.3v-56.7c0-3.2-2.5-5.3-5.3-5.3zm-13.1 62.8c-1.2 0-2-.8-2-2s.8-2 2-2 2 .8 2 2c.1 1.2-.8 2-2 2zm13.5-7.7H95.1V294h26.5v50.6zM76.7 397.2H43.2c-3.7 0-6.9 3.3-6.9 6.9V478c0 3.7 3.3 6.9 6.9 6.9h33.5c3.7 0 6.9-3.3 6.9-6.9v-74.3c0-3.6-2.8-6.5-6.9-6.5zm-16.7 82c-1.2 0-2.4-1.2-2.4-2.4s1.2-2.4 2.4-2.4 2.4 1.2 2.4 2.4-1.2 2.4-2.4 2.4zM77.5 469H42.8v-65.7h34.7V469z"/><path fill="#221F1F" d="M509.2 444.1c-1.2-.4-2.4-1.2-3.7-1.6l1.6-3.7c1.2.8 2.4 1.2 3.7 1.6l-1.6 3.7zM498.2 438.8c-2.4-1.2-4.9-2-7.8-2.9l1.2-3.7c2.9.8 5.3 2 7.8 3.3l-1.2 3.3zm-120.4-3.2l-1.2-3.7c2.9-.8 5.3-1.6 8.2-2.4l1.2 4.1c-2.9.3-5.7 1.2-8.2 2zm104.9-2.1c-2.4-.8-5.3-1.6-7.8-2l.8-4.1c2.9.8 5.3 1.6 8.2 2.4l-1.2 3.7zm-89.4-2.4l-.8-4.1c2.9-.8 5.3-1.2 8.2-1.6l.8 4.1c-2.5.4-5.3.8-8.2 1.6zm73.5-1.6c-2.4-.4-5.3-.8-8.2-1.6l.4-4.1c2.9.4 5.7.8 8.2 1.6l-.4 4.1zm-57.2-1.7l-.4-4.1c2.9-.4 5.7-.8 8.2-.8l.4 4.1c-2.9 0-5.3.4-8.2.8zm40.8-.8c-2.9-.4-5.3-.4-8.2-.4v-4.1c2.9 0 5.7.4 8.6.8l-.4 3.7zm-24.4-.8v-4.1c2.9 0 5.7-.4 8.6-.4v4.1c-3.3.4-5.8.4-8.6.4zM366 439.7l-1.6-3.7c1.2-.4 2.4-.8 3.7-1.6l1.6 3.7c-1.3.7-2.5 1.1-3.7 1.6zM218.7 352.3c-2.9 0-5.7 0-8.2-.4l.4-4.1c2.4 0 5.3.4 8.2.4l-.4 4.1zm-16.3-.8c-2.9-.4-5.7-.8-8.2-1.2l.4-4.1c2.4.4 5.3.8 8.2.8l-.4 4.5zm-16.4-2.4c-2.9-.4-5.3-1.2-8.2-1.6l.8-4.1c2.4.4 5.3 1.2 7.8 1.6l-.4 4.1zm-15.9-3.7c-2.9-.8-5.3-1.6-7.8-2.4l1.2-4.1c2.4.8 4.9 1.6 7.8 2.4l-1.2 4.1zm-15.9-4.9c-2.9-.8-5.3-2-7.8-2.9l1.6-3.7c2.4.8 4.9 2 7.8 2.9l-1.6 3.7zm-15.5-6.1c-4.9-2-7.3-3.7-7.3-3.7l2-3.7s2.4 1.2 7.3 3.3l-2 4.1z"/><path fill="#2D2C2A" d="M305.6 486.6c-51 0-92.2-42.4-92.2-94.7 0-49.4 37.9-88.5 88.5-90.6h4.1c51 0 92.6 41.2 92.6 92.2 0 51.5-41.6 93.1-93 93.1zm.4-181.2h-3.7c-48.1 2-84.5 39.2-84.5 86.5 0 49.8 39.6 90.6 88.1 90.6 49 0 88.5-40 88.5-88.9.1-48.6-39.4-88.2-88.4-88.2zM300.3 485.8c-47.3-63.3-47.3-131.8.4-183.6l2.9 2.9c-46.9 50.6-46.9 115.9 0 178.3l-3.3 2.4zM311.7 485.8l-3.3-2.4c46.9-62.4 46.9-127.7 0-178.3l2.9-2.9c47.7 51.8 47.7 120.3.4 183.6zM229.3 438.8h154.2v4.1H229.3zM224.4 351.5h162.8v4.1H224.4zM215.4 395.2h180.7v4.1H215.4z"/><path fill="#221F1F" d="M292.1 352.8l-1.6-3.7c2.4-1.2 4.9-2.4 7.3-3.3l1.6 3.7c-2 1.2-4.4 2.4-7.3 3.3zm15.1-6.6l-1.6-3.7c2.4-1.2 4.9-2 7.8-3.3l1.6 3.7c-2.9 1.3-5.3 2.5-7.8 3.3zm15.1-5.7l-1.6-3.7c2.4-.8 5.3-2 7.8-2.9l1.2 3.7c-2.1.9-4.9 1.7-7.4 2.9zm15.5-5.3l-1.2-4.1c2.4-.8 5.3-1.6 7.8-2.4l1.2 4.1c-2.9.8-5.3 1.6-7.8 2.4zm15.5-4.9l-1.2-4.1c2.4-.8 5.3-1.6 7.8-2l1.2 4.1c-2.9.4-5.3 1.2-7.8 2zm15.5-4.1l-.8-4.1c2.9-.8 5.3-1.2 8.2-1.6l.8 4.1c-2.9.4-5.3.8-8.2 1.6zm15.9-3.2l-.8-4.1c2.9-.4 5.3-.8 8.2-1.6l.8 4.1c-2.9.3-5.3.8-8.2 1.6zm16-2.9l-.4-4.1c2.9-.4 5.3-.8 8.2-1.2l.4 4.1c-2.9.4-5.4.8-8.2 1.2zm16.3-1.6l-.4-4.1c2.9-.4 5.3-.4 8.2-.8l.4 4.1c-2.9 0-5.8.4-8.2.8zm15.9-1.2v-4.1c2.9 0 5.3 0 8.2-.4v4.1c-2.5-.1-5.4.4-8.2.4zm24.5 0h-8.2v-4.1h8.2v4.1zM177.1 461.7h-1.6v-4.1H183.2v4.1h-6.1zm-10.2 0c-2.9 0-5.3-.4-8.2-.4l.4-4.1c2.9 0 5.3.4 8.2.4l-.4 4.1zm24.5-.4l-.4-4.1c2.9 0 5.3-.4 8.2-.8l.4 4.1c-2.5.4-5.4.8-8.2.8zm-40.8-.8c-2.9-.4-5.3-.8-8.2-.8l.4-4.1c2.9.4 5.3.8 8.2.8l-.4 4.1zm57.5-.4l-.4-4.1c2.9-.4 5.3-.8 8.2-1.2l.8 4.1c-3.3.3-6.2.7-8.6 1.2zm-73.9-2.1c-2.9-.4-5.3-.8-8.2-1.6l.8-4.1c2.9.4 5.3 1.2 8.2 1.6l-.8 4.1zm89.8-.8l-.8-4.1c2.9-.4 5.3-1.2 7.8-1.6l.8 4.1c-2.1.4-5 1.2-7.8 1.6zm-106.1-2.4c-2.4-.8-5.3-1.2-8.2-2l1.2-4.1c2.4.8 5.3 1.2 7.8 2l-.8 4.1zm122.4-1.3l-1.2-4.1c2.4-.8 5.3-1.6 7.8-2l1.2 4.1c-2.5.4-5.3 1.2-7.8 2zM102 450.7c-2.4-.8-5.3-1.6-7.8-2.4l1.2-3.7c2.4.8 5.3 1.6 7.8 2.4l-1.2 3.7zm153.8-2.1l-1.2-3.7c2.4-.8 5.3-1.6 7.8-2.9l1.2 3.7c-2.5 1.3-4.9 2.1-7.8 2.9zm15.5-5.7l-1.6-3.7c2.4-1.2 4.9-2 7.3-3.3l1.6 3.7c-2 1.3-4.8 2.5-7.3 3.3zm15.1-6.5l-1.6-3.7c2.4-1.2 4.9-2.4 7.3-3.7l2 3.7c-2.8 1.2-5.2 2.5-7.7 3.7zm14.7-7.8l-2-3.7c2.4-1.2 4.9-2.9 6.9-4.1l2 3.7c-2 1.7-4.4 2.9-6.9 4.1zm13.9-8.1l-2-3.3c2.4-1.6 4.5-2.9 6.9-4.5l2.4 3.3c-2.4 1.2-4.9 2.8-7.3 4.5zm13.4-9.4l-2-3.3c2.4-1.6 4.5-3.3 6.5-4.9l2.4 3.3c-2 1.2-4.4 2.9-6.9 4.9zm13.1-10.2l-2.9-3.3c4.1-3.3 6.1-5.3 6.1-5.3l2.9 2.9s-2 2-6.1 5.7z"/></g></svg>