<svg xmlns="http://www.w3.org/2000/svg" viewBox="0 0 74.2 74.2" enable-background="new 0 0 74.2 74.2"><path fill="#2D2C2A" d="M51.6 74.2h-11.1v-7.6h-35.4v-35.4h-5.1v-11.1h5.1v-7.6h11.1v7.6h35.4v35.4h7.6v11.1h-7.6v7.6zm-10.1-1h9.1v-7.6h7.6v-9.1h-7.6v-35.4h-35.4v-7.6h-9.1v7.6h-5.1v9.1h5.1v35.4h35.4v7.6zm0-16.7h-26.3v-26.3h26.3v26.3zm-25.3-1h24.3v-24.3h-24.3v24.3zm24.381-25.133l.707.707-25.314 25.314-.707-.707zm32.925-30.308l.664.747-22.721 20.198-.664-.747zm-68.206 20.041h10.4v1h-10.4zm.3 10.1h10.1v1h-10.1zm35.4 25.3h10.1v1h-10.1zm0 10.1h10.1v1h-10.1z"/></svg>