<svg xmlns="http://www.w3.org/2000/svg" viewBox="0 0 80 80" enable-background="new 0 0 80 80"><path d="M39.47 53.39c-1.76 0-3.19-1.43-3.19-3.19s1.43-3.19 3.19-3.19 3.19 1.43 3.19 3.19-1.43 3.19-3.19 3.19zm0-5.38c-1.21 0-2.19.98-2.19 2.19s.98 2.19 2.19 2.19 2.19-.98 2.19-2.19-.99-2.19-2.19-2.19zm-.5 4.88h1v8.74h-1zm27.68 25.83h-54.37v-46.36h54.37v46.36zm-53.37-1h52.37v-44.36h-52.37v44.36zm45.37-44.86h-1v-12.01c0-9.42-7.3-19.51-18.18-19.51s-18.18 10.08-18.18 19.51v12.01h-1v-12.01c0-9.91 7.71-20.51 19.18-20.51s19.18 10.61 19.18 20.51v12.01z" fill="#2D2C2A"/></svg>