<svg xmlns="http://www.w3.org/2000/svg" viewBox="0 0 156 85" enable-background="new 0 0 156 85"><g><path fill="#231F20" d="M20.2 43.8c.7-.7.7-1.8 0-2.5l-1.9-1.9c-.7-.7-1.8-.7-2.5 0l-1 1c-.9.9-1 2.3-.3 3.3 3 4.5 7 8.5 11.5 11.5 1.1.7 2.5.6 3.3-.3l1-1c.7-.7.7-1.8 0-2.5l-1.9-1.9c-.7-.7-1.8-.7-2.5 0l-.6.6c-2.1-1.7-4.1-3.7-5.8-5.8l.7-.5zM34.9 45.5h-1c0-5.3-4.4-9.7-9.7-9.7v-1c5.9.1 10.7 4.9 10.7 10.7zM31.3 45.5h-1c0-3.4-2.8-6.2-6.1-6.2v-1c3.9.1 7.1 3.3 7.1 7.2zM27.8 45.5h-1c0-1.4-1.2-2.6-2.6-2.6v-1c2 0 3.6 1.7 3.6 3.6zM90.4 39.9H63.7V20.2h26.7v19.7zm-25.7-1h24.7V21.2H64.7v17.7z"/><circle fill="#231F20" cx="66.5" cy="23" r=".9"/><circle fill="#231F20" cx="69.1" cy="23" r=".9"/><circle fill="#231F20" cx="71.7" cy="23" r=".9"/><circle fill="#231F20" cx="71.3" cy="30.4" r="2.2"/><path fill="#231F20" d="M71.3 32.7c-2.8 0-3.5 1.7-3.5 3.1h7.1c0-1.4-.8-3.1-3.6-3.1zM64.2 24.6h25.7v1H64.2zM78.2 35.3h8.6v1h-8.6zM78.2 32.6h8.6v1h-8.6zM78.2 29.9h8.6v1h-8.6zM78.2 27.3h4.2v1h-4.2z"/><path fill="#221F1F" d="M76.6 53.8c-.7 0-1.4-.1-2-.2l.1-1c.6.1 1.3.1 1.9.2v1zm2.1 0v-1c.6 0 1.3-.1 1.9-.2l.1 1c-.7.1-1.4.1-2 .2zm-6.1-.6c-.7-.1-1.3-.3-2-.5l.3-1c.6.2 1.2.4 1.9.5l-.2 1zm10.1 0l-.2-1c.6-.1 1.3-.3 1.9-.5l.3 1c-.7.2-1.4.4-2 .5zM68.8 52l-1.8-.9.5-.9c.6.3 1.2.6 1.7.8l-.4 1zm17.7 0l-.3-1c.6-.3 1.2-.5 1.7-.8l.5.9c-.6.3-1.2.6-1.9.9zm-21.3-1.9c-.6-.4-1.1-.8-1.6-1.2l.6-.8c.5.4 1 .8 1.6 1.1l-.6.9zm24.9-.1l-.6-.8c.5-.4 1.1-.7 1.6-1.1l.6.8c-.5.4-1 .8-1.6 1.1zM62 47.5c-.5-.5-1-1-1.4-1.5l.8-.7c.4.5.9 1 1.3 1.4l-.7.8zm31.3 0l-.7-.7c.5-.4.9-.9 1.3-1.4l.8.7-1.4 1.4zm-34-3c-.4-.5-.8-1.1-1.1-1.7l.9-.5c.3.5.7 1.1 1.1 1.6l-.9.6zm36.7-.1l-.8-.6c.4-.5.7-1.1 1.1-1.6l.9.5c-.5.6-.9 1.2-1.2 1.7zM57.2 41c-.3-.6-.6-1.2-.8-1.9l.9-.4c.2.6.5 1.2.8 1.8l-.9.5zM98 41l-.9-.4c.3-.6.5-1.2.8-1.8l.9.4c-.2.5-.5 1.2-.8 1.8zm-42.2-3.8c-.2-.7-.3-1.3-.5-2l1-.2c.1.6.3 1.3.4 1.9l-.9.3zm43.7 0l-1-.3c.2-.6.3-1.3.4-1.9l1 .2c-.1.7-.3 1.3-.4 2zm-44.4-4c-.1-.7-.1-1.4-.1-2h1c0 .6 0 1.3.1 1.9l-1 .1zm45.1 0l-1-.1c.1-.6.1-1.3.1-1.9l1-.1v.1c0 .6-.1 1.3-.1 2zm-44.1-3.9l-1-.1c.1-.7.1-1.4.3-2l1 .2c-.2.6-.3 1.2-.3 1.9zm43.1-.2c-.1-.6-.1-1.3-.3-1.9l1-.2c.1.7.2 1.3.3 2l-1 .1zm-42.5-3.7l-1-.3c.2-.6.4-1.3.6-1.9l.9.3c-.1.7-.3 1.3-.5 1.9zm41.8-.1l-.6-1.8.9-.4c.2.6.5 1.3.6 1.9l-.9.3zm-40.4-3.5l-.9-.4c.3-.6.6-1.2 1-1.8l.9.5c-.4.5-.7 1.1-1 1.7zm39-.1c-.3-.6-.6-1.2-.9-1.7l.9-.5c.3.6.7 1.2 1 1.8l-1 .4zm-37-3.2l-.8-.6c.4-.5.8-1.1 1.3-1.6l.8.7c-.5.4-.9.9-1.3 1.5zm35-.1l-1.2-1.5.8-.7c.4.5.9 1 1.3 1.6l-.9.6zm-32.5-2.9l-.7-.7c.5-.5 1-.9 1.5-1.3l.6.8c-.4.4-.9.8-1.4 1.2zm29.9 0c-.5-.4-1-.9-1.5-1.3l.6-.8c.5.4 1 .9 1.5 1.3l-.6.8zm-26.8-2.4l-.6-.8c.6-.4 1.1-.7 1.7-1l.5.9c-.5.2-1.1.6-1.6.9zm23.8-.1c-.5-.4-1.1-.7-1.7-1l.5-.9c.6.3 1.2.7 1.7 1l-.5.9zm-20.4-1.7l-.4-.9c.6-.3 1.3-.5 1.9-.7l.3.9c-.6.2-1.2.4-1.8.7zm17-.1c-.6-.3-1.2-.5-1.8-.7l.3-1c.6.2 1.3.4 1.9.7l-.4 1zm-13.4-1.1l-.2-1c.7-.2 1.3-.3 2-.4l.1 1c-.6.1-1.2.2-1.9.4zm9.7-.1c-.6-.1-1.3-.3-1.9-.3l.1-1c.7.1 1.3.2 2 .4l-.2.9zm-5.8-.5v-1h2v1h-2z"/><path fill="#231F20" d="M93.4 42.6H67.2v-1h25.2V23.5h-1.1v-1h2.1z"/><path fill="#221F1F" d="M24.4 67.5h-1.5l.1-1c.6 0 1.3.1 1.9 0v1h-.5zm2.6-.1l-.1-1c.6-.1 1.3-.2 1.9-.3l.2 1c-.6.1-1.3.2-2 .3zm-6.1-.2c-.7-.1-1.3-.2-2-.4l.2-1c.6.2 1.3.3 1.9.4l-.1 1zm10.1-.6l-.3-1 1.8-.6.4.9c-.6.2-1.3.5-1.9.7zm-14-.3c-.6-.2-1.3-.5-1.9-.8l.4-.9c.6.3 1.2.5 1.8.7l-.3 1zM34.7 65l-.5-.9c.6-.3 1.1-.6 1.7-1l.5.8c-.5.5-1.1.8-1.7 1.1zm-21.4-.4c-.6-.3-1.2-.7-1.7-1.1l.6-.8c.5.4 1.1.7 1.6 1l-.5.9zm24.9-1.7l-.6-.8 1.5-1.2.7.7c-.6.4-1.1.9-1.6 1.3zM10 62.3c-.5-.4-1-.9-1.5-1.4l.7-.7c.5.5.9.9 1.4 1.3l-.6.8zm31.2-2.2l-.7-.7c.4-.5.9-1 1.2-1.5l.8.6c-.4.6-.9 1.1-1.3 1.6zm-34.1-.7c-.4-.5-.9-1.1-1.2-1.6l.8-.6 1.2 1.5-.8.7zm36.5-2.5l-.8-.5c.3-.5.7-1.1 1-1.7l.9.5c-.4.5-.7 1.1-1.1 1.7zm-38.8-.8l-.9-1.8.9-.4c.2.5.5 1.1.8 1.7l-.8.5zm40.7-2.8l-.9-.4c.2-.6.5-1.2.6-1.8l1 .3c-.3.6-.5 1.3-.7 1.9zm-42.4-.9c-.2-.6-.4-1.3-.6-1.9l1-.2c.2.6.3 1.3.6 1.9l-1 .2zm43.5-3l-1-.2c.1-.6.2-1.3.3-1.9l1 .1c0 .7-.1 1.3-.3 2zm-44.5-1c-.1-.7-.2-1.3-.2-2l1-.1c0 .6.1 1.3.2 1.9l-1 .2zm45-3h-1v-2l1-.1c0 .5.1 1 .1 1.5-.1.2-.1.4-.1.6zm-44.3-1h-1c0-.7.1-1.4.1-2l1 .1c0 .6-.1 1.3-.1 1.9zm43-2.9c-.1-.6-.2-1.3-.4-1.9l1-.2c.2.7.3 1.3.4 2l-1 .1zm-42.6-.9l-1-.2c.1-.7.3-1.3.5-2l1 .3c-.2.6-.3 1.2-.5 1.9zm41.7-2.9c-.2-.6-.5-1.2-.7-1.8l.9-.4c.3.6.5 1.2.8 1.9l-1 .3zm-40.6-.9l-.9-.4c.2-.6.5-1.2.8-1.8l.9.5c-.3.6-.5 1.2-.8 1.7zm39-2.6c-.3-.6-.7-1.1-1-1.6l.8-.6c.4.6.8 1.1 1.1 1.7l-.9.5zm-37.2-.8l-.8-.5c.4-.6.7-1.1 1.2-1.7l.8.6c-.5.5-.9 1-1.2 1.6zm35-2.4c-.4-.5-.9-1-1.3-1.4l.5-.5.3-.2c.5.5.9 1 1.4 1.5l-.9.6zm-32.7-.7l-.7-.7c.2-.3.5-.5.7-.8l.7-.7.7.7c-.2.2-.4.4-.7.6-.2.4-.4.7-.7.9zm29.9-2.1L36.8 27l.6-.8c.5.4 1.1.8 1.6 1.2l-.7.8zm-27-.5l-.6-.8c.5-.4 1.1-.8 1.7-1.2l.5.8c-.6.4-1.1.8-1.6 1.2zM35.1 26c-.6-.3-1.1-.6-1.7-.9l.4-.9 1.8.9-.5.9zm-20.5-.4l-.5-.9c.6-.3 1.2-.6 1.8-.8l.4.9c-.6.2-1.1.5-1.7.8zm16.9-1.2c-.6-.2-1.2-.4-1.9-.6l.2-1c.7.2 1.3.4 1.9.6l-.2 1zm-13.3-.2l-.3-1c.7-.2 1.3-.4 2-.5l.2 1c-.7.1-1.3.3-1.9.5zm9.6-.7c-.6-.1-1.3-.2-1.9-.2l.1-1c.7 0 1.4.1 2 .2l-.2 1zm-5.8-.1l-.1-1c.7-.1 1.4-.1 2-.1v1c-.6-.1-1.3 0-1.9.1zM131.6 67.5h-.5v-1h1.9l.1 1h-1.5zm-2.6-.1c-.7-.1-1.3-.2-2-.3l.2-1c.6.1 1.3.2 1.9.3l-.1 1zm6.1-.2l-.2-1c.6-.1 1.3-.2 1.9-.4l.2 1c-.6.2-1.3.3-1.9.4zm-10.1-.6c-.6-.2-1.3-.4-1.9-.7l.4-.9c.6.2 1.2.5 1.8.6l-.3 1zm14-.3l-.3-.9c.6-.2 1.2-.5 1.8-.7l.4.9c-.6.2-1.3.4-1.9.7zM121.3 65c-.6-.3-1.2-.6-1.8-1l.5-.8c.5.3 1.1.7 1.7 1l-.4.8zm21.4-.4l-.5-.9c.6-.3 1.1-.7 1.6-1l.6.8c-.5.4-1.1.7-1.7 1.1zm-24.9-1.7c-.5-.4-1.1-.8-1.6-1.3l.7-.7c.5.4 1 .9 1.5 1.2l-.6.8zm28.2-.6l-.6-.8c.5-.4 1-.9 1.4-1.3l.7.7c-.4.5-.9.9-1.5 1.4zm-31.2-2.2c-.5-.5-.9-1-1.3-1.6l.8-.6 1.2 1.5-.7.7zm34.1-.7l-.8-.6 1.2-1.5.8.6c-.3.4-.8 1-1.2 1.5zm-36.5-2.5c-.4-.6-.7-1.2-1-1.8l.9-.5c.3.6.6 1.1 1 1.7l-.9.6zm38.8-.8l-.9-.5c.3-.6.6-1.1.9-1.7l.9.4c-.2.6-.5 1.2-.9 1.8zm-40.7-2.8c-.2-.6-.5-1.3-.7-1.9l1-.3.6 1.8-.9.4zm42.4-.9l-.9-.3c.2-.6.4-1.2.6-1.9l1 .2c-.3.7-.5 1.3-.7 2zm-43.5-3c-.1-.7-.2-1.3-.3-2l1-.1c.1.6.2 1.3.3 1.9l-1 .2zm44.5-1l-1-.2c.1-.6.2-1.3.2-1.9l1 .1c0 .7-.1 1.4-.2 2zm-45-3v-.5c0-.5 0-1 .1-1.5l1 .1v2l-1.1-.1zm44.3-1c0-.6-.1-1.3-.1-1.9l1-.1c.1.7.1 1.3.1 2h-1zm-43-2.9l-1-.2c.1-.7.2-1.3.4-2l1 .2c-.2.7-.3 1.3-.4 2zm42.6-.9c-.1-.6-.3-1.3-.5-1.9l1-.3c.2.7.4 1.3.5 2l-1 .2zm-41.7-2.9l-.9-.3c.2-.6.5-1.3.8-1.9l.9.4c-.3.6-.6 1.2-.8 1.8zm40.6-.9c-.2-.6-.5-1.2-.8-1.8l.9-.5c.3.6.6 1.2.8 1.8l-.9.5zm-39-2.6l-.9-.5c.3-.6.7-1.2 1.1-1.7l.8.6c-.3.5-.7 1-1 1.6zm37.2-.8c-.3-.5-.7-1.1-1.1-1.6l.8-.6c.4.5.8 1.1 1.2 1.7l-.9.5zm-35-2.4l-.8-.6c.4-.5.9-1 1.4-1.5l.8.7-.1.1c-.4.3-.8.8-1.3 1.3zm32.7-.7l-.7-.7c-.2-.2-.4-.4-.7-.6l.7-.7c.2.2.5.4.7.7.3.3.5.5.7.8l-.7.5zm-29.9-2.1l-.6-.8c.5-.4 1.1-.8 1.6-1.2l.6.8c-.5.4-1.1.8-1.6 1.2zm27-.5c-.5-.4-1-.8-1.6-1.1l.5-.8c.6.4 1.1.8 1.7 1.2l-.6.7zM120.9 26l-.5-.9 1.8-.9.4.9c-.5.3-1.1.6-1.7.9zm20.5-.4c-.6-.3-1.2-.6-1.8-.8l.4-.9c.6.3 1.2.5 1.8.8l-.4.9zm-16.9-1.2l-.3-.9c.6-.2 1.3-.4 1.9-.6l.2 1c-.6.1-1.2.3-1.8.5zm13.3-.2c-.6-.2-1.3-.3-1.9-.5l.2-1c.7.1 1.3.3 2 .5l-.3 1zm-9.6-.7l-.2-1c.7-.1 1.3-.2 2-.2l.1 1c-.6 0-1.2.1-1.9.2zm5.8-.1c-.6-.1-1.3-.1-1.9-.1v-1c.7 0 1.4.1 2 .1l-.1 1z"/><path fill="#231F20" d="M87 68.9l3.1-3-12.3-4.5 4.1 12.3 3.4-3 5.8 5.8 1.8-1.7zM123.322 46.24l2.83 2.828-.71.707-2.827-2.828zM140.64 46.248l.707.707-2.828 2.83-.71-.708z"/><circle fill="#231F20" cx="125" cy="37.1" r="2.8"/><path fill="#231F20" d="M125 39.9c-3.5 0-4.4 2.1-4.4 3.9h8.8c0-1.8-.9-3.9-4.4-3.9z"/><circle fill="#231F20" cx="139.4" cy="37.1" r="2.8"/><path fill="#231F20" d="M139.4 39.9c-3.5 0-4.4 2.1-4.4 3.9h8.8c0-1.8-.9-3.9-4.4-3.9z"/><circle fill="#231F20" cx="132" cy="51.3" r="2.8"/><path fill="#231F20" d="M132 54c-3.5 0-4.4 2.1-4.4 3.9h8.8c0-1.8-.9-3.9-4.4-3.9z"/></g></svg>