<svg xmlns="http://www.w3.org/2000/svg" viewBox="0 0 198 85" enable-background="new 0 0 198 85"><g><path fill="#221F1F" d="M107.5 32.1c-.3 0-.6-.3-.6-.6V31.2c0-6.3-5.1-11.4-11.4-11.4-6.3 0-11.4 5.1-11.4 11.4V31.5c0 .3-.2.6-.6.6-.3 0-.6-.2-.6-.6V31.2c0-6.9 5.6-12.5 12.5-12.5s12.5 5.6 12.5 12.5V31.5c.2.4-.1.6-.4.6zM86.9 59.8c-.1 0-.2 0-.3-.1-.3-.1-.4-.4-.4-.7v-4.5h-4.9c-.4 0-.7-.3-.7-.7v-20c0-.4.3-.7.7-.7h28.9c.4 0 .7.3.7.7v20c0 .4-.3.7-.7.7H92.8l-5.4 5c-.1.2-.3.3-.5.3zm-4.8-6.7H87c.4 0 .7.3.7.7v3.5l4.4-4.1c.1-.1.3-.2.5-.2h16.9V34.6H82.1v18.5zM79.1 51.7h-.2c-5.3-1.5-9.1-6.5-9.1-12 0-6.9 5.6-12.5 12.5-12.5 3.5 0 6.7 1.4 9.1 3.9.2.2.2.6 0 .8-.2.2-.6.2-.8 0-2.2-2.3-5.1-3.6-8.3-3.6-6.3 0-11.4 5.1-11.4 11.4 0 5 3.4 9.5 8.2 10.9.3.1.5.4.4.7 0 .3-.2.4-.4.4zM112.5 51.6c-.2 0-.5-.2-.5-.4-.1-.3.1-.6.4-.7 4.7-1.5 7.8-5.9 7.8-10.8 0-6.3-5.1-11.4-11.4-11.4-3.2 0-6.1 1.3-8.3 3.6-.2.2-.6.2-.8 0-.2-.2-.2-.6 0-.8 2.4-2.5 5.6-3.9 9.1-3.9 6.9 0 12.5 5.6 12.5 12.5 0 5.4-3.5 10.2-8.6 11.9h-.2zM103.6 66.3c-5.5 0-10.3-3.6-12-8.9-.1-.3.1-.6.4-.7.3-.1.6.1.7.4 1.5 4.8 5.8 8 10.9 8 6.3 0 11.4-5.1 11.4-11.4 0-2.8-1-5.4-2.9-7.5-.2-.2-.2-.6 0-.8.2-.2.6-.2.8 0 2 2.3 3.2 5.2 3.2 8.3 0 7-5.6 12.6-12.5 12.6zM87.5 66.3c-6.9 0-12.5-5.6-12.5-12.5 0-3.3 1.3-6.4 3.6-8.8.2-.2.6-.2.8 0 .2.2.2.6 0 .8-2.1 2.1-3.3 5-3.3 8 0 6.3 5.1 11.4 11.4 11.4 5.4 0 10.1-3.8 11.1-9.2.1-.3.4-.5.7-.5.3.1.5.4.5.7-1.1 5.9-6.3 10.1-12.3 10.1zM59.7 43h-1.2v-1h1.2v1zm-3.2 0h-2v-1h2v1zm-4 0h-2v-1h2v1zm-4 0h-2v-1h2v1zm-4 0h-2v-1h2v1zm-4 0h-2v-1h2v1zm-4 0h-2v-1h2v1zm-4 0h-2v-1h2v1zm-4 0h-2v-1h2v1zm-4 0h-2v-1h2v1zm-4 0h-2v-1h2v1zm-4 0h-2v-1h2v1zm-4 0h-2v-1h2v1zm-4 0h-2v-1h2v1zm-4 0h-2v-1h2v1zM59.2 25.4h1v34.4h-1zM128.9 25.4h1v34.4h-1zM193.8 42h1v1h-1zM191.8 43h-2v-1h2v1zm-4 0h-2v-1h2v1zm-4 0h-2v-1h2v1zm-4 0h-2v-1h2v1zm-4 0h-2v-1h2v1zm-3.9 0h-2v-1h2v1zm-4 0h-2v-1h2v1zm-4 0h-2v-1h2v1zm-4 0h-2v-1h2v1zm-4 0h-2v-1h2v1zm-3.9 0h-2v-1h2v1zm-4 0h-2v-1h2v1zm-4 0h-2v-1h2v1zm-4 0h-2v-1h2v1zM136 43h-1l-.1-1 .9-.3.1.3h.1v.3l.2.3-.2.1zM138 42l-.3-.9 1.8-.7.3.9-1.8.7zm3.7-1.4l-.3-.9 1.8-.7.3.9-1.8.7zm3.7-1.3l-.3-.9 1.8-.7.3.9-1.8.7zm3.7-1.3l-.3-.9 1.8-.7.3.9-1.8.7zm3.6-1.3l-.3-.9 1.8-.7.3.9-1.8.7zm3.7-1.4l-.3-.9 1.8-.7.3.9-1.8.7zm3.7-1.3l-.3-.9 1.8-.7.3.9-1.8.7zm3.7-1.3l-.3-.9 1.8-.7.3.9-1.8.7zm3.7-1.4l-.3-.9 1.8-.7.3.9-1.8.7zm3.7-1.3l-.3-.9 1.8-.7.3.9-1.8.7zm3.7-1.3l-.3-.9 1.8-.7.3.9-1.8.7zm3.6-1.3l-.3-.9 1.8-.7.3.9-1.8.7zm3.7-1.4l-.3-.9 1.8-.7.3.9-1.8.7zm3.7-1.3l-.3-.9 1.8-.7.3.9-1.8.7zM190.232 22.074l.34.94-.942.34-.34-.94zM156.74 20.622l.698.714-.714.7-.7-.715zM137.5 40.8l-.7-.7 1.4-1.3.7.7-1.4 1.3zm2.7-2.7l-.7-.7 1.4-1.3.7.7-1.4 1.3zm2.8-2.6l-.7-.7 1.4-1.3.7.7-1.4 1.3zm2.7-2.7l-.7-.7 1.4-1.3.7.7-1.4 1.3zm2.7-2.7l-.7-.7 1.4-1.3.7.7-1.4 1.3zm2.8-2.7l-.7-.7 1.4-1.3.7.7-1.4 1.3zm2.7-2.7l-.7-.7 1.4-1.3.7.7-1.4 1.3zM135.378 41.484l.7.715-.716.698-.7-.715zM135.185 42.047l.94.34-.338.94-.94-.34zM187.4 61.9l-1.8-.7.3-.9 1.8.7-.3.9zm-3.7-1.3l-1.8-.7.3-.9 1.8.7-.3.9zm-3.7-1.3l-1.8-.7.3-.9 1.8.7-.3.9zm-3.6-1.4l-1.8-.7.3-.9 1.8.7-.3.9zm-3.7-1.3l-1.8-.7.3-.9 1.8.7-.3.9zm-3.7-1.3l-1.8-.7.3-.9 1.8.7-.3.9zm-3.7-1.4l-1.8-.7.3-.9 1.8.7-.3.9zm-3.7-1.3l-1.8-.7.3-.9 1.8.7-.3.9zm-3.7-1.3l-1.8-.7.3-.9 1.8.7-.3.9zm-3.7-1.3l-1.8-.7.3-.9 1.8.7-.3.9zm-3.6-1.4l-1.8-.7.3-.9 1.8.7-.3.9zm-3.7-1.3l-1.8-.7.3-.9 1.8.7-.3.9zm-3.7-1.3l-1.8-.7.3-.9 1.8.7-.3.9zm-3.7-1.4l-1.8-.7.3-.9 1.8.7-.3.9zM189.585 61.654l.94.34-.34.94-.94-.34zM156.66 63.003l.717.7-.7.714-.715-.7zM154.6 62.3l-1.4-1.3.7-.7 1.4 1.3-.7.7zm-2.7-2.7l-1.4-1.3.7-.7 1.4 1.3-.7.7zm-2.8-2.6l-1.4-1.3.7-.7 1.4 1.3-.7.7zm-2.7-2.7L145 53l.7-.7 1.4 1.3-.7.7zm-2.8-2.7l-1.4-1.3.7-.7 1.4 1.3-.7.7zm-2.7-2.7l-1.4-1.3.7-.7 1.4 1.3-.7.7zm-2.8-2.7l-1.4-1.3.7-.7 1.4 1.3-.7.7zM135.424 42.106l.715.7-.7.714-.715-.7z"/></g></svg>