<svg xmlns="http://www.w3.org/2000/svg" width="1060" height="1060"><path opacity=".1" fill="#525F7F" d="M983.024 647.407l-.04.064c-.222.19-47.4 20.47-47.668 20.587-24.877 10.713-22.583 9.793-23.827 10.082-.857.175-1.547.302-3.407.515a79.21 79.21 0 0 1-4.522.35 97.03 97.03 0 0 1-5.05.13c-1.152 0-728.362-4.626-729.47-4.647-.795-.02-4.485-.09-5.04-.66l-.027-.063.006-.063.037-.065c.452-.423-5.287 1.025 119.452-27.804.44-.1 5.13-1.184 5.567-1.285.55-.12.702-.146 1.313-.25.732-.112.92-.137 1.648-.228a67.83 67.83 0 0 1 1.91-.202 106.9 106.9 0 0 1 4.33-.304c.89-.043 1.248-.058 2.276-.092a98.637 98.637 0 0 1 2.255-.043c.667-.006.426-.005 1.095-.004l295.432 1.31c380.59 1.688 382.504 1.168 383.726 2.547l.015.063-.016.064zM711.978 202.054c-.515.6-.315.398-.917.916-.68.426-.42.288-1.154.612-.758.197-.485.15-1.256.225-.738-.046-.48-.007-1.195-.178-.645-.283-.43-.16-1-.56-.476-.505-.317-.297-.683-.885-.24-.648-.177-.41-.28-1.094.03-.722-.005-.46.156-1.17.286-.705.16-.457.573-1.117.516-.6.316-.398.917-.915.678-.425.422-.29 1.154-.606.76-.21.477-.156 1.258-.232.738.046.48.006 1.196.178.644.28.428.158 1 .558.476.504.316.296.683.885.237.65.175.41.278 1.094-.03.715.005.453-.155 1.17-.286.706-.16.458-.574 1.118zM285.57 702.598c.558-.368 1.512-.568 2.445-.818 3.568-.96 19.66-5.28 21.785-5.85 30.394-8.166 11.89-3.196 33.105-8.894l24.835-6.67c4.463-1.2 4.178-1.14 5.29-1.352.657-.115.837-.147 1.773-.278.89-.117 1.25-.158 2.074-.245.784-.077.956-.095 2.296-.205l1.207-.086c.755-.047.476-.03 1.235-.074.767-.04.484-.025 1.25-.06.774-.032.486-.02 1.26-.048.772-.022.486-.014 1.255-.032.763-.013.483-.01 1.245-.017.748-.003.475-.003 1.223 0l.85.004 2.473.016 3.984.025 5.377.034 79.63.515c186.48 1.218 174.62 1.01 178.124 1.397.51.067 1.958.237 2.273.642l.023.07-.017.073-.038.074c-.23.228-.646.36-.954.464-11.17 3.757-68.482 23.197-69.65 23.495-2.626.595-5.87.883-8.537 1.066-1.99.124-3.446.18-5.375.21-1.488.016-1.422.01-5.662-.023-3.317-.026-258.688-2.09-264.41-2.138-14.005-.112-16.502-.04-19.16-.474-.4-.077-.978-.18-1.294-.44l-.05-.07-.018-.076.017-.077c.065-.097.033-.062.14-.16z"/></svg>