<svg xmlns="http://www.w3.org/2000/svg" width="1060" height="1060">

  <defs><clipPath id='clip'>
    <path d="M1013.784 613.564l-.31 2.505c-.572 3.02-.322 1.91-1.094 4.87-.943 2.9-.56 1.835-1.683 4.66-1.326 2.832-1.457 3.222-3.622 6.684-1.724 2.447-1.056 1.557-2.932 3.902-2 2.238-1.234 1.428-3.358 3.552-2.248 2-1.394 1.28-3.746 3.16-.52.365-.883.623-1.165.823.952.22 1.834.484 2.605.836 1.378.836 1.14.635 1.87 1.688.337 1.092.256.61.264 7.438-.067.25-.022.127-.287.903-1.634 2.057-1.028 1.402-2.955 3.143-2.67 2.005-1.553 1.338-5.63 3.33-146.338 66.14-136.928 62.254-143.83 64.034-6.005 1.358-8.037 1.783-14.613 2.518-6.958.764-12.817 1.248-23.3 1.2-780.488-7.264-750.67-6.012-762.54-9.575-4.908-1.766-3.513-1.125-6.957-3.145-2.55-1.833-1.712-1.11-3.83-3.23-.142-.286-.08-.145-.455-.986-.596-8.212-.59-6.827-.35-8.376l.758-1.184c1.912-1.618 3.763-2.14 7.6-3.074 264.768-60.86 244.503-56.442 253.16-57.587 7.408-.9 15.224-1.53 23.085-1.914-.655-.637-1.172-1.204-1.685-1.75-1.59-1.965-1.026-1.214-2.476-3.293-1.756-2.66-2.595-4.882-3.02-5.905-.836-2.472-.556-1.538-1.227-4.094-.5-2.635-.347-1.643-.675-4.35-.15-2.774-.128-1.733-.095-4.568.22-2.892.102-1.807.515-4.75 71.466-415.658 66.322-387.537 68.247-393.21.978-2.4 1.115-2.853 2.95-6.197 1.438-2.305.88-1.46 2.446-3.7 1.687-2.152 1.04-1.37 2.84-3.436 1.91-1.972 1.18-1.258 3.19-3.134 2.107-1.78 1.31-1.14 3.503-2.808 2.278-1.56 1.417-1.005 3.772-2.443 2.425-1.324 1.512-.857 4-2.047 3.468-1.44 3.636-1.45 6.58-2.32 2.715-.628 1.7-.423 4.45-.9 4.515-.526-36.048.544 601.99-13.975 2.98.018 1.886-.023 4.8.178 2.84.363 1.802.197 4.554.73 2.676.695 1.7.41 4.28 1.248l2.034.815c2.39 1.134 1.522.686 3.808 1.963 2.172 1.41 1.386.86 3.444 2.405 2.055 1.76 2.37 1.975 4.692 4.6.948 1.235 2.22 2.763 3.76 5.847 1.087 2.296.71 1.425 1.645 3.816.762 2.47.51 1.538 1.1 4.08.41 2.61.293 1.63.52 4.305.062 4.38 2.875-28.24-36.63 406.717z"/>
  </clipPath></defs>

  <path d="M1013.784 613.564l-.31 2.505c-.572 3.02-.322 1.91-1.094 4.87-.943 2.9-.56 1.835-1.683 4.66-1.326 2.832-1.457 3.222-3.622 6.684-1.724 2.447-1.056 1.557-2.932 3.902-2 2.238-1.234 1.428-3.358 3.552-2.248 2-1.394 1.28-3.746 3.16-.52.365-.883.623-1.165.823.952.22 1.834.484 2.605.836 1.378.836 1.14.635 1.87 1.688.337 1.092.256.61.264 7.438-.067.25-.022.127-.287.903-1.634 2.057-1.028 1.402-2.955 3.143-2.67 2.005-1.553 1.338-5.63 3.33-146.338 66.14-136.928 62.254-143.83 64.034-6.005 1.358-8.037 1.783-14.613 2.518-6.958.764-12.817 1.248-23.3 1.2-780.488-7.264-750.67-6.012-762.54-9.575-4.908-1.766-3.513-1.125-6.957-3.145-2.55-1.833-1.712-1.11-3.83-3.23-.142-.286-.08-.145-.455-.986-.596-8.212-.59-6.827-.35-8.376l.758-1.184c1.912-1.618 3.763-2.14 7.6-3.074 264.768-60.86 244.503-56.442 253.16-57.587 7.408-.9 15.224-1.53 23.085-1.914-.655-.637-1.172-1.204-1.685-1.75-1.59-1.965-1.026-1.214-2.476-3.293-1.756-2.66-2.595-4.882-3.02-5.905-.836-2.472-.556-1.538-1.227-4.094-.5-2.635-.347-1.643-.675-4.35-.15-2.774-.128-1.733-.095-4.568.22-2.892.102-1.807.515-4.75 71.466-415.658 66.322-387.537 68.247-393.21.978-2.4 1.115-2.853 2.95-6.197 1.438-2.305.88-1.46 2.446-3.7 1.687-2.152 1.04-1.37 2.84-3.436 1.91-1.972 1.18-1.258 3.19-3.134 2.107-1.78 1.31-1.14 3.503-2.808 2.278-1.56 1.417-1.005 3.772-2.443 2.425-1.324 1.512-.857 4-2.047 3.468-1.44 3.636-1.45 6.58-2.32 2.715-.628 1.7-.423 4.45-.9 4.515-.526-36.048.544 601.99-13.975 2.98.018 1.886-.023 4.8.178 2.84.363 1.802.197 4.554.73 2.676.695 1.7.41 4.28 1.248l2.034.815c2.39 1.134 1.522.686 3.808 1.963 2.172 1.41 1.386.86 3.444 2.405 2.055 1.76 2.37 1.975 4.692 4.6.948 1.235 2.22 2.763 3.76 5.847 1.087 2.296.71 1.425 1.645 3.816.762 2.47.51 1.538 1.1 4.08.41 2.61.293 1.63.52 4.305.062 4.38 2.875-28.24-36.63 406.717z"/>

</svg>