<svg xmlns="http://www.w3.org/2000/svg" width="1060" height="1060"><path opacity=".1" fill="#525F7F" d="M780.364 384.027c-.524 1.782-.293 1.136-1.008 2.832-.886 1.6-.524 1.023-1.59 2.52-1.23 1.36-.744.88-2.125 2.1-1.503 1.057-.923.695-2.542 1.59-1.725.715-1.07.485-2.87 1.01-1.857.332-1.16.246-3.056.38-1.923-.06-1.21 0-3.125-.257-1.886-.457-1.192-.254-3.04-.892-1.78-.83-1.135-.49-2.83-1.49-1.6-1.16-1.03-.703-2.498-2.01-1.345-1.445-.876-.885-2.057-2.456-1.018-1.667-.67-1.03-1.52-2.792-.656-1.82-.447-1.137-.914-2.994-.268-1.896-.206-1.194-.273-3.08.134-1.877.047-1.187.38-3.025.534-1.78.302-1.135 1.017-2.83.906-1.6.538-1.026 1.614-2.522 1.238-1.352.752-.874 2.133-2.093 1.506-1.058.924-.697 2.553-1.583 1.722-.705 1.068-.478 2.868-.993 1.868-.333 1.17-.25 3.065-.37 1.914.066 1.205.004 3.11.27 1.886.46 1.194.254 3.032.892 1.782.83 1.138.49 2.824 1.49 1.59 1.16 1.023.7 2.49 2.016 1.324 1.44.86.882 2.04 2.444 1.02 1.666.674 1.033 1.513 2.777.657 1.82.448 1.136.915 2.994.267 1.876.205 1.178.27 3.064-.123 1.865-.038 1.18-.37 3.007zM753.52 32.933c-.334.44-.454.536-.806.783-.578.315-.895.438-1.738.457-34.688-.9-32.03-.825-32.537-.86-.836-.15-1.438-.377-2.19-1.056a3.897 3.897 0 0 1-.743-1.007c-.21-.456-.255-.57-.35-1.21-.012-.51-.014-.596.11-1.102.163-.476.23-.6.534-1 .35-.363.46-.445.9-.698.51-.22.79-.31 1.498-.31l32.202.86c.504.036.627.05 1.156.225.514.216.663.304 1.1.636.41.37.475.44.823.94.215.377.29.504.46 1.164.076.64.062.695.006 1.125-.144.592-.218.713-.427 1.053z"/></svg>