<svg xmlns="http://www.w3.org/2000/svg" width="1060" height="1060">

  <defs><clipPath id='clip'>
    <path d="M830.717 43.334c33.012 349.087 31.1 328.28 31.14 330.99-.016 1.16-.002 1.353-.163 3.173-.08.9-.203 1.67-.302 2.327-.39 2.133-.54 2.635-.94 3.994-.513 1.594-.706 2.13-1.425 3.762-.65 1.368-.864 1.81-1.885 3.498-.678 1.03-.425.664-1.102 1.644-.505.716-.922 1.23-1.404 1.83-.78.915-.48.58-1.31 1.474-.4.41-.594.613-.947.954-.315.285-.206.182-.48.458-.156.143-.204.19-.328.303-.653.597-.38.35-1.155 1.056-.934.78-.582.496-1.544 1.25-.99.723-.62.46-1.63 1.154-.438.278-.74.474-1.124.697-.684.402-.61.36-.86.505-1.088.59-.68.377-1.785.94-1.134.512-.71.327-1.862.813-1.172.457-.733.296-1.923.706-1.22.38-.762.25-2 .583-1.248.305-.78.2-2.056.458-1.295.22-.813.146-2.117.327-1.325.133-.83.09-2.172.186-.365.022-.705.03-1.1.047h-.257c-142.853 3.138-131.847 3.05-136.09 2.55-3.528-.546-5.505-1.1-8.523-2.24-5.52-2.276-9.938-5.247-14.154-9.867-5.222-5.962-8.29-12.545-9.097-20.91C632.098 18.538 633.83 39.808 633.83 37.197c.066-1.852.1-2.297.355-4.142.62-3.497 1.537-6.445 3.28-9.648 1.324-2.463 1.784-3.106 2.73-4.398 1.468-1.888 2.39-2.92 4.197-4.554 3.526-3.012 7.18-5.08 12.557-6.593 3.245-.798 5.285-1.01 8.475-1.077.776.01 128.986 3.698 131.823 3.9 6.718.73 11.663 2.618 16.892 5.95 4.728 3.194 8.242 6.678 11.487 11.797 2.888 4.844 4.454 9.16 5.087 14.9"/>
  </clipPath></defs>

  <path d="M830.717 43.334c33.012 349.087 31.1 328.28 31.14 330.99-.016 1.16-.002 1.353-.163 3.173-.08.9-.203 1.67-.302 2.327-.39 2.133-.54 2.635-.94 3.994-.513 1.594-.706 2.13-1.425 3.762-.65 1.368-.864 1.81-1.885 3.498-.678 1.03-.425.664-1.102 1.644-.505.716-.922 1.23-1.404 1.83-.78.915-.48.58-1.31 1.474-.4.41-.594.613-.947.954-.315.285-.206.182-.48.458-.156.143-.204.19-.328.303-.653.597-.38.35-1.155 1.056-.934.78-.582.496-1.544 1.25-.99.723-.62.46-1.63 1.154-.438.278-.74.474-1.124.697-.684.402-.61.36-.86.505-1.088.59-.68.377-1.785.94-1.134.512-.71.327-1.862.813-1.172.457-.733.296-1.923.706-1.22.38-.762.25-2 .583-1.248.305-.78.2-2.056.458-1.295.22-.813.146-2.117.327-1.325.133-.83.09-2.172.186-.365.022-.705.03-1.1.047h-.257c-142.853 3.138-131.847 3.05-136.09 2.55-3.528-.546-5.505-1.1-8.523-2.24-5.52-2.276-9.938-5.247-14.154-9.867-5.222-5.962-8.29-12.545-9.097-20.91C632.098 18.538 633.83 39.808 633.83 37.197c.066-1.852.1-2.297.355-4.142.62-3.497 1.537-6.445 3.28-9.648 1.324-2.463 1.784-3.106 2.73-4.398 1.468-1.888 2.39-2.92 4.197-4.554 3.526-3.012 7.18-5.08 12.557-6.593 3.245-.798 5.285-1.01 8.475-1.077.776.01 128.986 3.698 131.823 3.9 6.718.73 11.663 2.618 16.892 5.95 4.728 3.194 8.242 6.678 11.487 11.797 2.888 4.844 4.454 9.16 5.087 14.9"/>

</svg>