<svg xmlns="http://www.w3.org/2000/svg" xmlns:xlink="http://www.w3.org/1999/xlink" viewBox="0 0 250 250" enable-background="new 0 0 250 250"><circle cx="125" cy="125" r="125" fill="none"/><circle fill="#fff" cx="125" cy="125" r="122"/><defs><circle id="a" cx="-236.1" cy="125.7" r="121.6"/></defs><clipPath id="b"><use xlink:href="#a" overflow="visible"/></clipPath><g clip-path="url(#b)" fill="#DBDED7"><circle cx="72.2" cy="58.6" r="1.1"/><circle cx="68.4" cy="58.6" r="1.1"/><circle cx="68.4" cy="62.5" r="1.1"/><circle cx="64.5" cy="47.1" r="1.1"/><circle cx="64.5" cy="54.8" r="1.1"/><circle cx="64.5" cy="58.6" r="1.1"/><circle cx="60.7" cy="47.1" r="1.1"/><circle cx="60.7" cy="54.8" r="1.1"/><circle cx="60.7" cy="58.6" r="1.1"/><circle cx="60.7" cy="62.5" r="1.1"/><circle cx="60.7" cy="66.3" r="1.1"/><circle cx="60.7" cy="211.9" r="1.1"/><circle cx="56.9" cy="51" r="1.1"/><circle cx="56.9" cy="54.8" r="1.1"/><circle cx="56.9" cy="58.6" r="1.1"/><circle cx="56.9" cy="62.5" r="1.1"/><circle cx="56.9" cy="66.3" r="1.1"/><circle cx="56.9" cy="208.1" r="1.1"/><circle cx="56.9" cy="211.9" r="1.1"/><circle cx="56.9" cy="215.7" r="1.1"/><circle cx="53" cy="51" r="1.1"/><circle cx="53" cy="54.8" r="1.1"/><circle cx="53" cy="58.6" r="1.1"/><circle cx="53" cy="62.5" r="1.1"/><circle cx="53" cy="66.3" r="1.1"/><circle cx="53" cy="204.2" r="1.1"/><circle cx="53" cy="208.1" r="1.1"/><circle cx="53" cy="211.9" r="1.1"/><circle cx="53" cy="215.7" r="1.1"/><circle cx="53" cy="219.6" r="1.1"/><circle cx="49.2" cy="51" r="1.1"/><circle cx="49.2" cy="54.8" r="1.1"/><circle cx="49.2" cy="58.6" r="1.1"/><circle cx="49.2" cy="62.5" r="1.1"/><circle cx="49.2" cy="66.3" r="1.1"/><circle cx="49.2" cy="70.1" r="1.1"/><circle cx="49.2" cy="219.6" r="1.1"/><circle cx="49.2" cy="223.4" r="1.1"/><circle cx="45.4" cy="51" r="1.1"/><circle cx="45.4" cy="54.8" r="1.1"/><circle cx="45.4" cy="58.6" r="1.1"/><circle cx="45.4" cy="62.5" r="1.1"/><circle cx="45.4" cy="66.3" r="1.1"/><circle cx="45.4" cy="70.1" r="1.1"/><circle cx="45.4" cy="185.1" r="1.1"/><circle cx="45.4" cy="188.9" r="1.1"/><circle cx="45.4" cy="219.6" r="1.1"/><circle cx="45.4" cy="223.4" r="1.1"/><circle cx="41.6" cy="51" r="1.1"/><circle cx="41.6" cy="54.8" r="1.1"/><circle cx="41.6" cy="58.6" r="1.1"/><circle cx="41.6" cy="62.5" r="1.1"/><circle cx="41.6" cy="66.3" r="1.1"/><circle cx="41.6" cy="70.1" r="1.1"/><circle cx="41.6" cy="185.1" r="1.1"/><circle cx="41.6" cy="188.9" r="1.1"/><circle cx="37.7" cy="51" r="1.1"/><circle cx="37.7" cy="54.8" r="1.1"/><circle cx="37.7" cy="58.6" r="1.1"/><circle cx="37.7" cy="62.5" r="1.1"/><circle cx="37.7" cy="66.3" r="1.1"/><circle cx="37.7" cy="70.1" r="1.1"/><circle cx="37.7" cy="74" r="1.1"/><circle cx="37.7" cy="77.8" r="1.1"/><circle cx="37.7" cy="81.6" r="1.1"/><circle cx="33.9" cy="51" r="1.1"/><circle cx="33.9" cy="54.8" r="1.1"/><circle cx="33.9" cy="58.6" r="1.1"/><circle cx="33.9" cy="62.5" r="1.1"/><circle cx="33.9" cy="66.3" r="1.1"/><circle cx="33.9" cy="74" r="1.1"/><circle cx="33.9" cy="77.8" r="1.1"/><circle cx="33.9" cy="81.6" r="1.1"/><circle cx="33.9" cy="85.5" r="1.1"/><circle cx="33.9" cy="169.8" r="1.1"/><circle cx="30.1" cy="51" r="1.1"/><circle cx="30.1" cy="54.8" r="1.1"/><circle cx="30.1" cy="58.6" r="1.1"/><circle cx="30.1" cy="62.5" r="1.1"/><circle cx="30.1" cy="66.3" r="1.1"/><circle cx="30.1" cy="70.1" r="1.1"/><circle cx="30.1" cy="81.6" r="1.1"/><circle cx="30.1" cy="169.8" r="1.1"/><circle cx="26.2" cy="47.1" r="1.1"/><circle cx="26.2" cy="51" r="1.1"/><circle cx="26.2" cy="54.8" r="1.1"/><circle cx="26.2" cy="58.6" r="1.1"/><circle cx="26.2" cy="62.5" r="1.1"/><circle cx="26.2" cy="66.3" r="1.1"/><circle cx="26.2" cy="70.1" r="1.1"/><circle cx="26.2" cy="165.9" r="1.1"/><circle cx="26.2" cy="192.8" r="1.1"/><circle cx="26.2" cy="196.6" r="1.1"/><circle cx="26.2" cy="200.4" r="1.1"/><circle cx="22.4" cy="39.5" r="1.1"/><circle cx="22.4" cy="47.1" r="1.1"/><circle cx="22.4" cy="51" r="1.1"/><circle cx="22.4" cy="54.8" r="1.1"/><circle cx="22.4" cy="58.6" r="1.1"/><circle cx="22.4" cy="62.5" r="1.1"/><circle cx="22.4" cy="66.3" r="1.1"/><circle cx="22.4" cy="70.1" r="1.1"/><circle cx="22.4" cy="165.9" r="1.1"/><circle cx="22.4" cy="173.6" r="1.1"/><circle cx="22.4" cy="188.9" r="1.1"/><circle cx="22.4" cy="192.8" r="1.1"/><circle cx="22.4" cy="196.6" r="1.1"/><circle cx="22.4" cy="200.4" r="1.1"/><circle cx="22.4" cy="204.2" r="1.1"/><circle cx="22.4" cy="208.1" r="1.1"/><circle cx="18.6" cy="39.5" r="1.1"/><circle cx="18.6" cy="47.1" r="1.1"/><circle cx="18.6" cy="51" r="1.1"/><circle cx="18.6" cy="54.8" r="1.1"/><circle cx="18.6" cy="58.6" r="1.1"/><circle cx="18.6" cy="62.5" r="1.1"/><circle cx="18.6" cy="66.3" r="1.1"/><circle cx="18.6" cy="70.1" r="1.1"/><circle cx="18.6" cy="165.9" r="1.1"/><circle cx="18.6" cy="169.8" r="1.1"/><circle cx="18.6" cy="181.3" r="1.1"/><circle cx="18.6" cy="185.1" r="1.1"/><circle cx="18.6" cy="188.9" r="1.1"/><circle cx="18.6" cy="192.8" r="1.1"/><circle cx="18.6" cy="196.6" r="1.1"/><circle cx="18.6" cy="200.4" r="1.1"/><circle cx="18.6" cy="204.2" r="1.1"/><circle cx="18.6" cy="208.1" r="1.1"/><circle cx="18.6" cy="211.9" r="1.1"/><circle cx="18.6" cy="215.7" r="1.1"/><circle cx="14.7" cy="35.7" r="1.1"/><circle cx="14.7" cy="39.5" r="1.1"/><circle cx="14.7" cy="43.3" r="1.1"/><circle cx="14.7" cy="47.1" r="1.1"/><circle cx="14.7" cy="51" r="1.1"/><circle cx="14.7" cy="54.8" r="1.1"/><circle cx="14.7" cy="58.6" r="1.1"/><circle cx="14.7" cy="62.5" r="1.1"/><circle cx="14.7" cy="66.3" r="1.1"/><circle cx="14.7" cy="70.1" r="1.1"/><circle cx="14.7" cy="85.5" r="1.1"/><circle cx="14.7" cy="89.3" r="1.1"/><circle cx="14.7" cy="93.1" r="1.1"/><circle cx="14.7" cy="97" r="1.1"/><circle cx="14.7" cy="100.8" r="1.1"/><circle cx="14.7" cy="165.9" r="1.1"/><circle cx="14.7" cy="169.8" r="1.1"/><circle cx="14.7" cy="177.4" r="1.1"/><circle cx="14.7" cy="181.3" r="1.1"/><circle cx="14.7" cy="185.1" r="1.1"/><circle cx="14.7" cy="188.9" r="1.1"/><circle cx="14.7" cy="192.8" r="1.1"/><circle cx="14.7" cy="196.6" r="1.1"/><circle cx="14.7" cy="200.4" r="1.1"/><circle cx="14.7" cy="204.2" r="1.1"/><circle cx="14.7" cy="208.1" r="1.1"/><circle cx="14.7" cy="211.9" r="1.1"/><circle cx="10.9" cy="35.7" r="1.1"/><circle cx="10.9" cy="39.5" r="1.1"/><circle cx="10.9" cy="43.3" r="1.1"/><circle cx="10.9" cy="47.1" r="1.1"/><circle cx="10.9" cy="51" r="1.1"/><circle cx="10.9" cy="54.8" r="1.1"/><circle cx="10.9" cy="58.6" r="1.1"/><circle cx="10.9" cy="62.5" r="1.1"/><circle cx="10.9" cy="66.3" r="1.1"/><circle cx="10.9" cy="70.1" r="1.1"/><circle cx="10.9" cy="74" r="1.1"/><circle cx="10.9" cy="81.6" r="1.1"/><circle cx="10.9" cy="85.5" r="1.1"/><circle cx="10.9" cy="89.3" r="1.1"/><circle cx="10.9" cy="93.1" r="1.1"/><circle cx="10.9" cy="97" r="1.1"/><circle cx="10.9" cy="100.8" r="1.1"/><circle cx="10.9" cy="104.6" r="1.1"/><circle cx="10.9" cy="108.5" r="1.1"/><circle cx="10.9" cy="112.3" r="1.1"/><circle cx="10.9" cy="162.1" r="1.1"/><circle cx="10.9" cy="165.9" r="1.1"/><circle cx="10.9" cy="169.8" r="1.1"/><circle cx="10.9" cy="181.3" r="1.1"/><circle cx="10.9" cy="185.1" r="1.1"/><circle cx="10.9" cy="188.9" r="1.1"/><circle cx="10.9" cy="192.8" r="1.1"/><circle cx="10.9" cy="196.6" r="1.1"/><circle cx="10.9" cy="200.4" r="1.1"/><circle cx="10.9" cy="204.2" r="1.1"/><circle cx="10.9" cy="208.1" r="1.1"/><circle cx="7.1" cy="35.7" r="1.1"/><circle cx="7.1" cy="39.5" r="1.1"/><circle cx="7.1" cy="47.1" r="1.1"/><circle cx="7.1" cy="51" r="1.1"/><circle cx="7.1" cy="54.8" r="1.1"/><circle cx="7.1" cy="58.6" r="1.1"/><circle cx="7.1" cy="62.5" r="1.1"/><circle cx="7.1" cy="66.3" r="1.1"/><circle cx="7.1" cy="70.1" r="1.1"/><circle cx="7.1" cy="74" r="1.1"/><circle cx="7.1" cy="77.8" r="1.1"/><circle cx="7.1" cy="81.6" r="1.1"/><circle cx="7.1" cy="85.5" r="1.1"/><circle cx="7.1" cy="89.3" r="1.1"/><circle cx="7.1" cy="93.1" r="1.1"/><circle cx="7.1" cy="97" r="1.1"/><circle cx="7.1" cy="108.5" r="1.1"/><circle cx="7.1" cy="112.3" r="1.1"/><circle cx="7.1" cy="162.1" r="1.1"/><circle cx="7.1" cy="165.9" r="1.1"/><circle cx="7.1" cy="169.8" r="1.1"/><circle cx="7.1" cy="181.3" r="1.1"/><circle cx="7.1" cy="185.1" r="1.1"/><circle cx="7.1" cy="188.9" r="1.1"/><circle cx="7.1" cy="192.8" r="1.1"/><circle cx="7.1" cy="196.6" r="1.1"/><circle cx="7.1" cy="200.4" r="1.1"/><circle cx="7.1" cy="204.2" r="1.1"/><circle cx="3.2" cy="47.1" r="1.1"/><circle cx="3.2" cy="51" r="1.1"/><circle cx="3.2" cy="54.8" r="1.1"/><circle cx="3.2" cy="58.6" r="1.1"/><circle cx="3.2" cy="62.5" r="1.1"/><circle cx="3.2" cy="66.3" r="1.1"/><circle cx="3.2" cy="70.1" r="1.1"/><circle cx="3.2" cy="74" r="1.1"/><circle cx="3.2" cy="77.8" r="1.1"/><circle cx="3.2" cy="81.6" r="1.1"/><circle cx="3.2" cy="85.5" r="1.1"/><circle cx="3.2" cy="89.3" r="1.1"/><circle cx="3.2" cy="93.1" r="1.1"/><circle cx="3.2" cy="97" r="1.1"/><circle cx="3.2" cy="100.8" r="1.1"/><circle cx="3.2" cy="112.3" r="1.1"/><circle cx="3.2" cy="162.1" r="1.1"/><circle cx="3.2" cy="165.9" r="1.1"/><circle cx="3.2" cy="169.8" r="1.1"/><circle cx="3.2" cy="177.4" r="1.1"/><circle cx="3.2" cy="181.3" r="1.1"/><circle cx="3.2" cy="185.1" r="1.1"/><circle cx="3.2" cy="188.9" r="1.1"/><circle cx="3.2" cy="192.8" r="1.1"/><circle cx="3.2" cy="196.6" r="1.1"/><circle cx="3.2" cy="200.4" r="1.1"/><circle cx="3.2" cy="204.2" r="1.1"/><circle cx="-.6" cy="47.1" r="1.1"/><circle cx="-.6" cy="51" r="1.1"/><circle cx="-.6" cy="54.8" r="1.1"/><circle cx="-.6" cy="58.6" r="1.1"/><circle cx="-.6" cy="62.5" r="1.1"/><circle cx="-.6" cy="66.3" r="1.1"/><circle cx="-.6" cy="70.1" r="1.1"/><circle cx="-.6" cy="74" r="1.1"/><circle cx="-.6" cy="77.8" r="1.1"/><circle cx="-.6" cy="81.6" r="1.1"/><circle cx="-.6" cy="85.5" r="1.1"/><circle cx="-.6" cy="89.3" r="1.1"/><circle cx="-.6" cy="93.1" r="1.1"/><circle cx="-.6" cy="97" r="1.1"/><circle cx="-.6" cy="100.8" r="1.1"/><circle cx="-.6" cy="112.3" r="1.1"/><circle cx="-.6" cy="116.1" r="1.1"/><circle cx="-.6" cy="119.9" r="1.1"/><circle cx="-.6" cy="162.1" r="1.1"/><circle cx="-.6" cy="169.8" r="1.1"/><circle cx="-.6" cy="173.6" r="1.1"/><circle cx="-.6" cy="177.4" r="1.1"/><circle cx="-.6" cy="181.3" r="1.1"/><circle cx="-.6" cy="185.1" r="1.1"/><circle cx="-.6" cy="188.9" r="1.1"/><circle cx="-.6" cy="192.8" r="1.1"/><circle cx="-.6" cy="196.6" r="1.1"/><circle cx="-.6" cy="200.4" r="1.1"/></g><path fill="#E22228" d="M143.9 141.9l-.1-1c.4-.1 10.8-1.5 10.8-12 0-3.3-1.3-6.4-3.7-8.6-2.4-2.3-5.5-3.5-8.8-3.3h-.3l-.1-.3c-2.8-5.9-8.8-9.7-15.3-9.7-9 0-16.4 7-16.9 16v.6l-.6-.1c-2.6-.5-5.3.1-7.4 1.8-2.1 1.7-3.3 4.2-3.3 6.9 0 7.3 6.1 8.6 8.7 8.8l-.1 1c-2.3-.2-9.6-1.5-9.6-9.8 0-3 1.3-5.8 3.6-7.7 2.2-1.8 4.9-2.5 7.7-2.1.8-9.2 8.6-16.4 17.9-16.4 6.8 0 13.1 3.9 16.1 10 3.4-.1 6.7 1.2 9.2 3.6 2.6 2.5 4 5.8 4 9.4-.2 11.2-11.7 12.8-11.8 12.9zm-17.8-19.1c-6.2 0-11.1 5-11.1 11.1 0 6.2 5 11.1 11.1 11.1 6.2 0 11.1-5 11.1-11.1s-4.9-11.1-11.1-11.1zm0 19.3c-4.5 0-8.2-3.7-8.2-8.2s3.7-8.2 8.2-8.2c4.5 0 8.2 3.7 8.2 8.2s-3.7 8.2-8.2 8.2z"/><circle fill="#E22228" cx="128.9" cy="131.2" r="2.3"/><circle fill="#E22228" cx="128.9" cy="136.7" r="2.3"/><circle fill="#E22228" cx="123.3" cy="136.7" r="2.3"/><circle fill="#E22228" cx="123.3" cy="131.2" r="2.3"/><path fill="#B2ADA1" d="M123.8 212.2c-.5 0-1-.5-1-1 0-.6.5-1 1-1 .6 0 1 .5 1 1 0 .6-.4 1-1 1zm5.1 0c-.6 0-1-.4-1-1 0-.5.4-1 1-1s1 .4 1 1-.5 1-1 1zm-10.1-.2c-.6 0-1-.5-.9-1.1 0-.5.5-1 1.1-.9.5 0 1 .5.9 1.1-.1.5-.5.9-1.1.9zm14-1c0-.6.4-1 .9-1.1.5 0 1 .4 1.1.9.1.5-.4 1-.9 1.1h-.1c-.5 0-.9-.4-1-.9zm-19 .4c-.6-.1-.9-.6-.9-1.1.1-.5.6-.9 1.1-.9.5.1.9.6.9 1.1-.1.5-.5.9-1 .9h-.1zm24-.9c-.1-.5.3-1.1.8-1.1.6-.1 1.1.3 1.1.8.1.5-.3 1-.8 1.1h-.2c-.4 0-.8-.3-.9-.8zm-29 0c-.5-.1-.9-.6-.8-1.2.1-.5.6-.9 1.2-.8.5.1.9.6.8 1.2-.1.5-.5.8-1 .8h-.2zm33.9-.9c-.1-.5.2-1.1.8-1.2.5-.1 1.1.2 1.2.8.1.5-.2 1.1-.8 1.2h-.2c-.4 0-.9-.3-1-.8zm-38.8-.3c-.5-.1-.8-.7-.7-1.2.1-.5.7-.8 1.2-.7.5.1.8.7.7 1.2-.1.4-.5.7-1 .7-.1.1-.2.1-.2 0zm43.7-.8c-.1-.5.2-1.1.7-1.2.5-.2 1.1.2 1.2.7.1.5-.2 1.1-.7 1.2h-.3c-.4.1-.8-.2-.9-.7zm-48.6-.6c-.5-.2-.8-.7-.6-1.3.2-.5.7-.8 1.3-.6.5.2.8.7.6 1.3-.1.4-.5.7-1 .7-.1-.1-.2-.1-.3-.1zm53.4-.8c-.2-.5.1-1.1.6-1.3.5-.2 1.1.1 1.3.6.2.5-.1 1.1-.6 1.3h-.3c-.5.1-.9-.2-1-.6zm-58.1-1c-.5-.2-.8-.8-.6-1.3.2-.5.8-.8 1.3-.5.5.2.8.8.6 1.3-.2.4-.5.6-.9.6-.2 0-.3 0-.4-.1zm62.8-.7c-.2-.5 0-1.1.6-1.3.5-.2 1.1 0 1.3.5.2.5 0 1.1-.5 1.3-.1 0-.2.1-.4.1-.5 0-.8-.2-1-.6zm-67.5-1.3c-.5-.2-.7-.8-.5-1.3.2-.5.8-.7 1.3-.5.5.2.7.8.5 1.3-.2.4-.5.6-.9.6-.1 0-.2 0-.4-.1zm72.1-.6c-.2-.5 0-1.1.5-1.3.5-.2 1.1 0 1.3.5.2.5 0 1.1-.5 1.3-.1.1-.3.1-.4.1-.4-.1-.7-.3-.9-.6zm-76.6-1.7c-.5-.3-.7-.9-.4-1.4.3-.5.9-.7 1.4-.4.5.3.7.9.4 1.3-.2.3-.5.5-.9.5-.2.1-.3.1-.5 0zm81.1-.6c-.3-.5-.1-1.1.4-1.4.5-.3 1.1-.1 1.4.4.3.5.1 1.1-.4 1.4-.2.1-.3.1-.5.1-.4 0-.8-.2-.9-.5zm-85.5-2c-.5-.3-.6-.9-.3-1.4.3-.5.9-.6 1.4-.3.5.3.6.9.3 1.4-.2.3-.5.5-.9.5-.1 0-.3-.1-.5-.2zm89.8-.5c-.3-.5-.2-1.1.3-1.4.5-.3 1.1-.2 1.4.3.3.5.2 1.1-.3 1.4-.2.1-.3.2-.5.2-.4 0-.7-.2-.9-.5zm-94-2.3c-.5-.3-.5-.9-.2-1.4.3-.5.9-.6 1.4-.2.4.3.5 1 .2 1.4-.2.3-.5.4-.8.4-.2 0-.4-.1-.6-.2zm98.1-.4c-.3-.5-.2-1.1.2-1.4.4-.3 1.1-.2 1.4.2.3.4.2 1.1-.2 1.4-.2.1-.4.2-.6.2-.3 0-.6-.2-.8-.4zm-102.1-2.6c-.4-.3-.5-1-.2-1.4.3-.4 1-.5 1.4-.1.4.3.5 1 .2 1.4-.2.2-.5.4-.8.4l-.6-.3zm106.1-.4c-.4-.4-.3-1.1.1-1.4.4-.3 1.1-.3 1.4.1.3.4.3 1.1-.1 1.4-.2.1-.4.2-.6.2-.3 0-.6-.1-.8-.3zm-109.9-2.9c-.4-.4-.4-1-.1-1.4.4-.4 1-.4 1.4-.1.4.4.4 1 .1 1.4-.2.2-.5.3-.7.3-.3 0-.5-.1-.7-.2zm113.8-.3c-.4-.4-.4-1 .1-1.4.4-.4 1-.3 1.4.1.4.4.4 1-.1 1.4-.2.2-.4.3-.7.3-.3-.1-.5-.2-.7-.4zm-117.5-3.2c-.4-.4-.4-1 0-1.4.4-.4 1-.4 1.4 0 .4.4.4 1 0 1.4-.2.2-.4.3-.7.3-.2 0-.5-.1-.7-.3zm121.1-.3c-.4-.4-.4-1 0-1.4.4-.4 1-.4 1.4 0 .4.4.4 1 0 1.4-.2.2-.5.3-.7.3-.3 0-.5-.1-.7-.3zm-124.5-3.5c-.4-.4-.3-1 .1-1.4.4-.4 1-.3 1.4.1.4.4.3 1-.1 1.4-.2.2-.4.2-.7.2-.2.1-.5 0-.7-.3zm127.9-.1c-.4-.4-.5-1-.1-1.4.4-.4 1-.5 1.4-.1.4.4.5 1 .1 1.4-.2.2-.5.3-.8.3-.2 0-.4-.1-.6-.2zm-131.1-3.8c-.3-.4-.3-1.1.2-1.4.4-.3 1.1-.3 1.4.2.3.4.3 1.1-.2 1.4-.2.1-.4.2-.6.2-.3 0-.6-.1-.8-.4zm134.3-.1c-.4-.3-.5-1-.2-1.4.3-.4 1-.5 1.4-.2.4.3.5 1 .2 1.4-.2.3-.5.4-.8.4-.2 0-.4 0-.6-.2zm-137.3-4c-.3-.5-.2-1.1.3-1.4.5-.3 1.1-.2 1.4.3.3.5.2 1.1-.3 1.4-.2.1-.4.2-.6.2-.3 0-.6-.2-.8-.5zm140.3 0c-.5-.3-.6-.9-.3-1.4.3-.5.9-.6 1.4-.3.5.3.6.9.3 1.4-.2.3-.5.4-.8.4-.3.1-.5 0-.6-.1zm-143-4.2c-.3-.5-.1-1.1.4-1.4.5-.3 1.1-.1 1.4.3.3.5.1 1.1-.4 1.4-.2.1-.3.1-.5.1-.4.1-.7-.1-.9-.4zm145.7 0c-.5-.3-.6-.9-.4-1.4.3-.5.9-.6 1.4-.4.5.3.6.9.4 1.4-.2.3-.5.5-.9.5-.2 0-.4 0-.5-.1zm-148.2-4.4c-.2-.5-.1-1.1.4-1.4.5-.2 1.1-.1 1.4.4.2.5.1 1.1-.4 1.3-.1.1-.3.1-.5.1-.3.1-.7-.1-.9-.4zm150.7 0c-.5-.2-.7-.8-.4-1.3.2-.5.9-.7 1.3-.4.5.3.7.9.4 1.3-.2.3-.5.5-.9.5-.1 0-.3 0-.4-.1zm-152.8-4.6c-.2-.5 0-1.1.5-1.3.5-.2 1.1 0 1.3.5.2.5 0 1.1-.5 1.3-.1.1-.3.1-.4.1-.4 0-.8-.2-.9-.6zm155 .1c-.5-.2-.7-.8-.5-1.3.2-.5.8-.7 1.3-.5.5.2.7.8.5 1.3-.2.4-.5.6-.9.6-.2 0-.3 0-.4-.1zm-157-4.7c-.2-.5.1-1.1.6-1.3.5-.2 1.1.1 1.3.6.2.5-.1 1.1-.6 1.3-.1 0-.2.1-.4.1-.3-.1-.7-.4-.9-.7zm158.9.1c-.5-.2-.8-.8-.6-1.3.2-.5.8-.8 1.3-.6.5.2.8.8.6 1.3-.1.4-.5.7-.9.7-.2 0-.3 0-.4-.1zm-160.5-4.9c-.2-.5.1-1.1.7-1.2.5-.2 1.1.1 1.2.7.2.5-.1 1.1-.7 1.2h-.3c-.4 0-.8-.3-.9-.7zm162.2.2c-.5-.2-.8-.7-.7-1.2.2-.5.7-.8 1.2-.7.5.2.8.7.7 1.2-.1.4-.5.7-1 .7h-.2zm-163.6-5.1c-.1-.5.2-1.1.7-1.2.5-.1 1.1.2 1.2.7.1.5-.2 1.1-.7 1.2h-.2c-.4.1-.9-.2-1-.7zm164.9.3c-.5-.1-.9-.7-.7-1.2.1-.5.7-.9 1.2-.7.5.1.9.7.7 1.2-.1.5-.5.8-1 .8 0-.1-.1-.1-.2-.1zm-165.9-5.3c-.1-.5.3-1.1.8-1.2.5-.1 1.1.3 1.2.8.1.5-.3 1.1-.8 1.2h-.2c-.5.1-.9-.3-1-.8zm167 .4c-.5-.1-.9-.6-.8-1.2.1-.5.6-.9 1.2-.8.5.1.9.6.8 1.2-.1.5-.5.8-1 .8h-.2zm-167.8-5.4c-.1-.5.3-1 .9-1.1.5-.1 1 .3 1.1.9.1.6-.3 1.1-.9 1.1h-.1c-.5 0-.9-.3-1-.9zm168.6.5c-.5-.1-.9-.6-.9-1.1.1-.5.6-.9 1.1-.9.6.1.9.6.9 1.1-.1.5-.5.9-1 .9h-.1zm-169.1-5.5c0-.5.4-1 .9-1.1.5 0 1 .4 1.1.9 0 .6-.4 1-.9 1.1h-.1c-.5.1-.9-.4-1-.9zm169.6.5c-.6 0-1-.5-.9-1 0-.6.5-1 1.1-.9.5 0 1 .5.9 1-.1.5-.5.9-1.1.9zm-169.7-5.5c0-.6.4-1 1-1 .5 0 1 .4 1 1 0 .5-.4 1-1 1s-1-.5-1-1zm168.9-.5c0-.2 0-.3.1-.5-.1-.1-.1-.3-.1-.4 0-.6.4-1 1-1 .5 0 1 .4 1 1 0 .2 0 .3-.1.5.1.1.1.3.1.5 0 .5-.5 1-1 1-.6-.1-1-.5-1-1.1zm-168.9.5zm170.9-1.4zm-169.9-2.6c-.6 0-1-.5-1-1s.5-1 1-.9c.6 0 1 .5 1 1 .1.4-.4.9-1 .9zm167.7-2.3c0-.5.4-1 .9-1.1.5 0 1 .4 1.1.9 0 .5-.4 1-.9 1.1h-.1c-.5 0-1-.4-1-.9zm-167.3-2.7c-.5-.1-.9-.6-.9-1.1.1-.5.6-.9 1.1-.9.5.1.9.6.9 1.1 0 .5-.5.9-1 .9h-.1zm166.8-2.2c-.1-.5.3-1 .9-1.1.5-.1 1 .3 1.1.9.1.5-.3 1-.9 1.1h-.1c-.5-.1-.9-.4-1-.9zm-166.2-2.8c-.5-.1-.9-.6-.8-1.1.1-.5.6-.9 1.1-.8.6.1.9.6.8 1.2-.1.5-.5.8-1 .8 0-.1 0-.1-.1-.1zm165.4-2.1c-.1-.5.2-1.1.8-1.2.5-.1 1.1.3 1.2.8.1.5-.2 1.1-.8 1.2h-.2c-.5 0-.9-.3-1-.8zm-164.4-2.8c-.5-.1-.9-.7-.7-1.2.1-.5.7-.9 1.2-.7.5.1.9.7.7 1.2-.1.5-.5.8-1 .8-.1-.1-.2-.1-.2-.1zm163.4-2c-.1-.5.2-1.1.7-1.2.5-.1 1.1.2 1.2.7.1.5-.2 1.1-.7 1.2h-.2c-.5 0-.9-.3-1-.7zm-162.2-2.8c-.5-.2-.8-.7-.7-1.2.1-.5.7-.8 1.2-.7.5.2.8.7.7 1.2-.1.4-.5.7-1 .7h-.2zm160.8-2c-.2-.5.1-1.1.6-1.2.5-.2 1.1.1 1.2.7.2.5-.1 1.1-.6 1.2h-.3c-.4 0-.7-.3-.9-.7zm-159.3-2.8c-.5-.2-.8-.8-.6-1.3.2-.5.8-.8 1.3-.6.5.2.8.8.6 1.3-.2.4-.5.7-.9.7-.2 0-.3-.1-.4-.1zm157.7-1.8c-.2-.5.1-1.1.6-1.3.5-.2 1.1.1 1.3.6.2.5-.1 1.1-.6 1.3-.1 0-.2.1-.4.1-.4-.1-.8-.4-.9-.7zm-155.9-2.9c-.5-.2-.7-.8-.5-1.3.2-.5.8-.7 1.3-.5.5.2.7.8.5 1.3-.2.4-.5.6-.9.6-.1 0-.3 0-.4-.1zm154-1.7c-.2-.5 0-1.1.5-1.3.5-.2 1.1 0 1.3.5.2.5 0 1.1-.5 1.3-.1.1-.3.1-.4.1-.4 0-.7-.2-.9-.6zm-151.9-2.8c-.5-.2-.7-.9-.4-1.3.2-.5.9-.7 1.3-.4.5.2.7.8.4 1.3-.2.4-.5.5-.9.5l-.4-.1zm149.7-1.6c-.3-.5-.1-1.1.4-1.3.5-.3 1.1-.1 1.3.4.3.5.1 1.1-.4 1.3-.1.1-.3.1-.5.1-.3 0-.6-.2-.8-.5zm-147.4-2.8c-.5-.3-.6-.9-.4-1.4.3-.5.9-.6 1.4-.4.5.3.6.9.4 1.4-.2.3-.5.5-.9.5-.1 0-.3-.1-.5-.1zm145-1.5c-.3-.5-.1-1.1.3-1.4.5-.3 1.1-.1 1.4.3.3.5.1 1.1-.3 1.4-.2.1-.3.2-.5.2-.4 0-.7-.2-.9-.5zm-142.4-2.8c-.5-.3-.6-.9-.3-1.4.3-.5.9-.6 1.4-.3.5.3.6.9.3 1.4-.2.3-.5.5-.8.5l-.6-.2zm139.7-1.4c-.3-.5-.2-1.1.3-1.4.5-.3 1.1-.2 1.4.3.3.5.2 1.1-.3 1.4-.2.1-.4.2-.6.2-.3 0-.6-.2-.8-.5zm-136.8-2.7c-.4-.3-.5-1-.2-1.4.3-.4 1-.5 1.4-.2.4.3.5 1 .2 1.4-.2.2-.5.4-.8.4-.2 0-.5-.1-.6-.2zm133.9-1.3c-.3-.4-.3-1.1.2-1.4.4-.3 1.1-.3 1.4.2.3.4.3 1.1-.2 1.4-.2.1-.4.2-.6.2-.3 0-.6-.1-.8-.4zm-130.8-2.7c-.4-.4-.5-1-.1-1.4.4-.4 1-.5 1.4-.1.4.4.5 1 .1 1.4-.2.2-.5.3-.8.3-.2.1-.5 0-.6-.2zm127.7-1c-.4-.4-.3-1 .1-1.4.4-.4 1-.3 1.4.1.4.4.3 1-.1 1.4-.2.2-.4.2-.7.2-.3 0-.6-.1-.7-.3zm-124.4-2.7c-.4-.4-.4-1 0-1.4.4-.4 1-.4 1.4 0 .4.4.4 1 0 1.4-.2.2-.5.3-.7.3-.3 0-.5-.1-.7-.3zm121-1c-.4-.4-.4-1 0-1.4.4-.4 1-.4 1.4 0 .4.4.4 1 0 1.4-.2.2-.4.3-.7.3-.3 0-.5-.1-.7-.3zm-117.5-2.6c-.4-.4-.4-1 0-1.4.4-.4 1-.4 1.4.1.4.4.3 1-.1 1.4-.2.2-.4.3-.7.3-.2 0-.4-.1-.6-.4zm113.9-.8c-.4-.4-.4-1-.1-1.4.4-.4 1-.4 1.4-.1.4.4.5 1 .1 1.4-.2.2-.5.3-.8.3-.2.1-.4 0-.6-.2zm-110.2-2.5c-.4-.4-.3-1.1.1-1.4.4-.3 1-.3 1.4.1.4.4.3 1.1-.1 1.4-.2.2-.4.2-.6.2-.3.1-.6-.1-.8-.3zm106.4-.7c-.4-.4-.5-1-.2-1.4.3-.4 1-.5 1.4-.2.4.3.5 1 .2 1.4-.2.2-.5.4-.8.4-.2.1-.4 0-.6-.2zm-102.5-2.4c-.3-.5-.2-1.1.2-1.4.5-.3 1.1-.2 1.4.2.3.5.2 1.1-.2 1.4-.2.1-.4.2-.6.2-.3 0-.6-.1-.8-.4zm98.6-.5c-.4-.3-.6-.9-.2-1.4.3-.5.9-.6 1.4-.2.4.3.5.9.2 1.4-.2.3-.5.4-.8.4-.2 0-.4-.1-.6-.2zm-94.5-2.4c-.3-.5-.2-1.1.3-1.4.5-.3 1.1-.2 1.4.3.3.5.2 1.1-.3 1.4-.2.1-.3.2-.5.2-.4 0-.7-.2-.9-.5zm90.4-.4c-.5-.3-.6-.9-.3-1.4.3-.5.9-.6 1.4-.3.5.3.6.9.3 1.4-.2.3-.5.5-.9.5-.2 0-.4-.1-.5-.2zm-86.1-2.2c-.3-.5-.1-1.1.4-1.4.5-.3 1.1-.1 1.4.4.3.5.1 1.1-.4 1.4-.1.1-.3.1-.5.1-.4 0-.8-.2-.9-.5zm81.8-.3c-.5-.3-.7-.9-.4-1.3.3-.5.9-.7 1.4-.4.5.3.7.9.4 1.4-.2.3-.5.5-.9.5-.2 0-.4-.1-.5-.2zm-77.4-2.1c-.2-.5 0-1.1.5-1.3.5-.2 1.1 0 1.3.5.2.5 0 1.1-.5 1.3-.1.1-.3.1-.4.1-.4 0-.8-.2-.9-.6zm73-.1c-.5-.2-.7-.8-.5-1.3.2-.5.8-.7 1.3-.5.5.2.7.8.5 1.3-.2.4-.5.6-.9.6-.1 0-.3 0-.4-.1zm-68.5-2c-.2-.5 0-1.1.5-1.3.5-.2 1.1 0 1.3.5.2.5 0 1.1-.5 1.3l-.4.1c-.4.1-.8-.2-.9-.6zm63.9.1c-.5-.2-.8-.8-.6-1.3.2-.5.8-.8 1.3-.6.5.2.8.8.6 1.3-.1.4-.5.6-.9.6h-.4zm-59.3-1.9c-.2-.5.1-1.1.6-1.3.5-.2 1.1.1 1.3.6.2.5-.1 1.1-.6 1.3l-.3.1c-.4 0-.8-.3-1-.7zm54.7.2c-.5-.2-.8-.7-.6-1.3.2-.5.7-.8 1.3-.6.5.2.8.7.6 1.3-.1.4-.5.7-1 .7-.1-.1-.2-.1-.3-.1zm-49.9-1.7c-.2-.5.2-1.1.7-1.2.5-.1 1.1.2 1.2.7.1.5-.2 1.1-.7 1.2h-.3c-.4 0-.8-.3-.9-.7zm45.1.3c-.5-.1-.9-.7-.7-1.2.1-.5.7-.9 1.2-.7.5.1.9.7.7 1.2-.1.5-.5.7-1 .7h-.2zm-40.3-1.6c-.1-.5.2-1.1.8-1.2.5-.1 1.1.2 1.2.8.1.5-.2 1.1-.8 1.2h-.2c-.5 0-.9-.3-1-.8zm35.5.5c-.5-.1-.9-.6-.8-1.2.1-.5.6-.9 1.2-.8.5.1.9.6.8 1.2-.1.5-.5.8-1 .8h-.2zm-30.6-1.5c-.1-.5.3-1 .8-1.1.5-.1 1.1.3 1.1.8.1.5-.3 1.1-.8 1.1h-.1c-.5.1-.9-.3-1-.8zm25.8.6c-.5-.1-.9-.6-.9-1.1.1-.5.6-.9 1.1-.8.5.1.9.6.9 1.1-.1.5-.5.9-1 .9 0 0-.1 0-.1-.1zm-20.8-1.3c-.1-.5.3-1 .9-1.1.5-.1 1 .3 1.1.9.1.5-.4 1-.9 1.1h-.1c-.6 0-1-.4-1-.9zm15.9.8c-.5 0-1-.5-.9-1.1 0-.6.5-1 1.1-.9.5 0 1 .5.9 1.1-.1.5-.5.9-1.1.9zm-11-1.2c0-.5.4-1 1-1s1 .4 1 1c0 .5-.4 1-1 1-.5 0-.9-.4-1-1zm6 1c-.6 0-1-.5-1-1s.5-1 1-1 1 .5 1 1-.4 1-1 1z"/><path fill="#E22228" d="M125.8 65.5h1v40.9h-1zm-.7 85.8h1v32.2h-1zm-58.1-24.8h30.5v1h-30.5zm88 1.9h28.5v1h-28.5z"/><path fill="#fff" d="M125 227c-12.1 0-22-9.9-22-22s9.9-22 22-22 22 9.9 22 22-9.9 22-22 22z"/><path fill="#B2ADA1" d="M125 183.5c11.9 0 21.5 9.6 21.5 21.5s-9.6 21.5-21.5 21.5-21.5-9.6-21.5-21.5 9.6-21.5 21.5-21.5m0-1c-12.4 0-22.5 10.1-22.5 22.5s10.1 22.5 22.5 22.5 22.5-10.1 22.5-22.5-10.1-22.5-22.5-22.5z"/><path fill="#fff" d="M133.4 216.8c0 1.4-1.1 2.5-2.5 2.5h-11.8c-1.4 0-2.5-1.1-2.5-2.5v-23.6c0-1.4 1.1-2.5 2.5-2.5h11.8c1.4 0 2.5 1.1 2.5 2.5v23.6z"/><path fill="#B2ADA1" d="M130.9 219.8h-11.8c-1.6 0-3-1.3-3-3v-23.6c0-1.6 1.3-3 3-3h11.8c1.6 0 3 1.3 3 3v23.6c0 1.7-1.4 3-3 3zm-11.8-28.5c-1.1 0-2 .9-2 2v23.6c0 1.1.9 2 2 2h11.8c1.1 0 2-.9 2-2v-23.6c0-1.1-.9-2-2-2h-11.8z"/><path fill="#fff" d="M116.6 195.7h16.8"/><path fill="#B2ADA1" d="M116.6 195.2h16.7v1h-16.7z"/><path fill="#fff" d="M116.6 214.4h16.8"/><path fill="#B2ADA1" d="M116.6 213.9h16.7v1h-16.7z"/><circle fill="#B2ADA1" cx="125" cy="216.8" r="1"/><path fill="#fff" d="M125 66c-12.1 0-22-9.9-22-22s9.9-22 22-22 22 9.9 22 22-9.9 22-22 22z"/><path fill="#B2ADA1" d="M125 22.5c11.9 0 21.5 9.6 21.5 21.5s-9.6 21.5-21.5 21.5-21.5-9.6-21.5-21.5 9.6-21.5 21.5-21.5m0-1c-12.4 0-22.5 10.1-22.5 22.5s10.1 22.5 22.5 22.5 22.5-10.1 22.5-22.5-10.1-22.5-22.5-22.5z"/><path fill="#fff" d="M44.9 149.6c-12.5 0-22.6-10.1-22.6-22.6s10.1-22.6 22.6-22.6 22.6 10.1 22.6 22.6-10.1 22.6-22.6 22.6z"/><path fill="#B2ADA1" d="M44.9 104.9c12.2 0 22.1 9.9 22.1 22.1s-9.9 22.1-22.1 22.1-22.1-9.9-22.1-22.1 9.9-22.1 22.1-22.1m0-1c-12.7 0-23.1 10.4-23.1 23.1s10.4 23.1 23.1 23.1 23.1-10.3 23.1-23.1-10.3-23.1-23.1-23.1z"/><path fill="#fff" d="M57.2 132.9v-13.6c0-1-.8-1.8-1.8-1.8h-20.9c-1 0-1.8.8-1.8 1.8v13.6"/><path fill="#B2ADA1" d="M57.7 132.9h-1v-13.6c0-.7-.6-1.3-1.3-1.3h-20.9c-.7 0-1.3.6-1.3 1.3v13.6h-1v-13.6c0-1.3 1-2.3 2.3-2.3h20.9c1.3 0 2.3 1 2.3 2.3v13.6z"/><path fill="#fff" d="M33.6 137.1c-1.3 0-2.3-1-2.3-2.3v-2.3h11.9v.9h3.5v-.9h11.9v2.3c0 1.3-1 2.3-2.3 2.3h-22.7z"/><path fill="#B2ADA1" d="M58.1 132.9v1.8c0 1-.8 1.8-1.8 1.8h-22.7c-1 0-1.8-.8-1.8-1.8v-1.8h10.9v.9h4.5v-.9h10.9m1-1h-12.9v.9h-2.5v-.9h-12.9v2.8c0 1.6 1.3 2.8 2.8 2.8h22.7c1.6 0 2.8-1.3 2.8-2.8v-2.8z"/><path fill="#fff" d="M205.6 149.6c-12.5 0-22.6-10.1-22.6-22.6s10.1-22.6 22.6-22.6 22.6 10.1 22.6 22.6-10.1 22.6-22.6 22.6z"/><path fill="#B2ADA1" d="M205.6 104.9c12.2 0 22.1 9.9 22.1 22.1s-9.9 22.1-22.1 22.1-22.1-9.9-22.1-22.1 9.9-22.1 22.1-22.1m0-1c-12.7 0-23.1 10.4-23.1 23.1s10.4 23.1 23.1 23.1 23.1-10.4 23.1-23.1-10.4-23.1-23.1-23.1zm-3.6 34.9h-3.3c-1.6 0-2.5-.8-2.5-2.1v-17.1c0-1.4.9-2.1 2.5-2.1h3.3c1.4 0 2.5 1.1 2.5 2.5v16.3c.1 1.4-1 2.5-2.5 2.5zm-3.2-20.4c-1.5 0-1.5.8-1.5 1.1v17.1c0 .3 0 1.1 1.5 1.1h3.3c.9 0 1.5-.6 1.5-1.6v-16.3c0-.9-.6-1.5-1.5-1.5h-3.3zm18.3 17.9h-13.1v-1h13.1c.5 0 1.1-.6 1.1-1.1v-12.4s0-1-1.1-1h-13.1v-1h13.1c1.6 0 2.1 1.2 2.1 2v12.4c0 1.1-1 2.1-2.1 2.1z"/><path stroke="#B2ADA1" stroke-miterlimit="10" d="M196.7 120.8m-1.6 14.4l1.6 1" fill="none"/><path fill="#fff" d="M214.6 124.2h-6.5"/><path fill="#B2ADA1" d="M208.1 123.7h6.5v1h-6.5z"/><path fill="#fff" d="M214.6 127.2h-6.5"/><path fill="#B2ADA1" d="M208.1 126.7h6.5v1h-6.5z"/><path fill="#fff" d="M214.6 130.2h-6.5"/><path fill="#B2ADA1" d="M208.1 129.7h6.5v1h-6.5z"/><path fill="#fff" d="M198.3 117.9v-3.3"/><path fill="#B2ADA1" d="M197.8 114.6h1v3.3h-1zm-61.7-72.3h-3.4c-1.5 0-2.9-1.3-2.9-2.7v-.4c-3-.3-5.8-.3-8.8 0v.4c0 1.5-1.2 2.7-2.7 2.7h-3.5c-1.5 0-2.7-1.2-2.7-2.7v-1.5c0-1.8 1.4-3.4 3.2-3.7 6.7-1.4 13.6-1.4 20.3 0 1.8.4 3.2 2 3.2 3.7v1.5c0 1.5-1.2 2.7-2.7 2.7zm-10.7-4.3c1.6 0 3.2.1 4.9.2h.5v1.3c0 .9.9 1.7 1.9 1.7h3.4c1 0 1.7-.8 1.7-1.7v-1.5c0-1.3-1-2.5-2.4-2.8-6.6-1.3-13.4-1.3-19.9 0-1.4.3-2.4 1.5-2.4 2.8v1.5c0 .9.8 1.7 1.7 1.7h3.5c1 0 1.7-.8 1.7-1.7v-1.3h.5c1.7-.1 3.3-.2 4.9-.2zm6.3 17.7h-12.4c-1.5 0-2.7-1.2-2.7-2.7v-8.9h1v8.9c0 .9.8 1.7 1.7 1.7h12.4c1.1 0 1.6-1.1 1.7-1.8v-8.8h1v9c-.4 1.6-1.4 2.6-2.7 2.6zm-10.3-11.2h1.9v1.9h-1.9zm3.5 0h1.9v1.9h-1.9zm3.6 0h1.9v1.9h-1.9zm-7.1 2.6h1.9v1.9h-1.9zm3.5 0h1.9v1.9h-1.9zm3.6 0h1.9v1.9h-1.9zm-7.1 2.7h1.9v1.9h-1.9zm3.5 0h1.9v1.9h-1.9zm3.6 0h1.9v1.9h-1.9z"/></svg>