<svg xmlns="http://www.w3.org/2000/svg" xmlns:xlink="http://www.w3.org/1999/xlink" viewBox="0 0 244 244" enable-background="new 0 0 244 244"><circle fill="#fff" cx="122" cy="122" r="122"/><defs><circle id="a" cx="180.6" cy="77.5" r="31.7"/></defs><clipPath id="b"><use xlink:href="#a" overflow="visible"/></clipPath><g clip-path="url(#b)"><circle fill="#DBDED7" cx="184.4" cy="58.1" r="1.1"/><circle fill="#DBDED7" cx="184.4" cy="62" r="1.1"/><circle fill="#DBDED7" cx="184.4" cy="65.8" r="1.1"/><circle fill="#DBDED7" cx="184.4" cy="69.7" r="1.1"/><circle fill="#DBDED7" cx="184.4" cy="73.5" r="1.1"/><circle fill="#DBDED7" cx="184.4" cy="77.3" r="1.1"/><circle fill="#DBDED7" cx="184.4" cy="81.2" r="1.1"/><circle fill="#DBDED7" cx="184.4" cy="85" r="1.1"/><circle fill="#DBDED7" cx="184.4" cy="88.9" r="1.1"/><circle fill="#DBDED7" cx="184.4" cy="92.7" r="1.1"/><circle fill="#DBDED7" cx="180.5" cy="58.1" r="1.1"/><circle fill="#DBDED7" cx="180.5" cy="62" r="1.1"/><circle fill="#DBDED7" cx="180.5" cy="65.8" r="1.1"/><circle fill="#DBDED7" cx="180.5" cy="69.7" r="1.1"/><circle fill="#DBDED7" cx="180.5" cy="73.5" r="1.1"/><circle fill="#DBDED7" cx="180.5" cy="77.3" r="1.1"/><circle fill="#DBDED7" cx="180.5" cy="81.2" r="1.1"/><circle fill="#DBDED7" cx="180.5" cy="85" r="1.1"/><circle fill="#DBDED7" cx="180.5" cy="88.9" r="1.1"/><circle fill="#DBDED7" cx="180.5" cy="92.7" r="1.1"/><circle fill="#DBDED7" cx="176.7" cy="58.1" r="1.1"/><circle fill="#DBDED7" cx="176.7" cy="62" r="1.1"/><circle fill="#DBDED7" cx="176.7" cy="65.8" r="1.1"/><circle fill="#DBDED7" cx="176.7" cy="69.7" r="1.1"/><circle fill="#DBDED7" cx="176.7" cy="73.5" r="1.1"/><circle fill="#DBDED7" cx="176.7" cy="77.3" r="1.1"/><circle fill="#DBDED7" cx="176.7" cy="81.2" r="1.1"/><circle fill="#DBDED7" cx="176.7" cy="85" r="1.1"/><circle fill="#DBDED7" cx="176.7" cy="88.9" r="1.1"/><circle fill="#DBDED7" cx="176.7" cy="92.7" r="1.1"/><circle fill="#DBDED7" cx="172.8" cy="58.1" r="1.1"/><circle fill="#DBDED7" cx="172.8" cy="62" r="1.1"/><circle fill="#DBDED7" cx="172.8" cy="65.8" r="1.1"/><circle fill="#DBDED7" cx="172.8" cy="69.7" r="1.1"/><circle fill="#DBDED7" cx="172.8" cy="73.5" r="1.1"/><circle fill="#DBDED7" cx="172.8" cy="77.3" r="1.1"/><circle fill="#DBDED7" cx="172.8" cy="81.2" r="1.1"/><circle fill="#DBDED7" cx="172.8" cy="85" r="1.1"/><circle fill="#DBDED7" cx="172.8" cy="88.9" r="1.1"/><circle fill="#DBDED7" cx="172.8" cy="92.7" r="1.1"/><circle fill="#DBDED7" cx="169" cy="58.1" r="1.1"/><circle fill="#DBDED7" cx="169" cy="62" r="1.1"/><circle fill="#DBDED7" cx="169" cy="65.8" r="1.1"/><circle fill="#DBDED7" cx="169" cy="69.7" r="1.1"/><circle fill="#DBDED7" cx="169" cy="73.5" r="1.1"/><circle fill="#DBDED7" cx="169" cy="77.3" r="1.1"/><circle fill="#DBDED7" cx="169" cy="81.2" r="1.1"/><circle fill="#DBDED7" cx="169" cy="85" r="1.1"/><circle fill="#DBDED7" cx="169" cy="88.9" r="1.1"/><circle fill="#DBDED7" cx="169" cy="92.7" r="1.1"/><circle fill="#DBDED7" cx="165.1" cy="58.1" r="1.1"/><circle fill="#DBDED7" cx="165.1" cy="62" r="1.1"/><circle fill="#DBDED7" cx="165.1" cy="65.8" r="1.1"/><circle fill="#DBDED7" cx="165.1" cy="69.7" r="1.1"/><circle fill="#DBDED7" cx="165.1" cy="73.5" r="1.1"/><circle fill="#DBDED7" cx="165.1" cy="77.3" r="1.1"/><circle fill="#DBDED7" cx="165.1" cy="81.2" r="1.1"/><circle fill="#DBDED7" cx="165.1" cy="85" r="1.1"/><circle fill="#DBDED7" cx="165.1" cy="88.9" r="1.1"/><circle fill="#DBDED7" cx="165.1" cy="92.7" r="1.1"/><circle fill="#DBDED7" cx="161.3" cy="58.1" r="1.1"/><circle fill="#DBDED7" cx="161.3" cy="62" r="1.1"/><circle fill="#DBDED7" cx="161.3" cy="65.8" r="1.1"/><circle fill="#DBDED7" cx="161.3" cy="69.7" r="1.1"/><circle fill="#DBDED7" cx="161.3" cy="73.5" r="1.1"/><circle fill="#DBDED7" cx="161.3" cy="77.3" r="1.1"/><circle fill="#DBDED7" cx="161.3" cy="81.2" r="1.1"/><circle fill="#DBDED7" cx="161.3" cy="85" r="1.1"/><circle fill="#DBDED7" cx="161.3" cy="88.9" r="1.1"/><circle fill="#DBDED7" cx="161.3" cy="92.7" r="1.1"/><circle fill="#DBDED7" cx="157.4" cy="58.1" r="1.1"/><circle fill="#DBDED7" cx="157.4" cy="62" r="1.1"/><circle fill="#DBDED7" cx="157.4" cy="65.8" r="1.1"/><circle fill="#DBDED7" cx="157.4" cy="69.7" r="1.1"/><circle fill="#DBDED7" cx="157.4" cy="73.5" r="1.1"/><circle fill="#DBDED7" cx="157.4" cy="77.3" r="1.1"/><circle fill="#DBDED7" cx="157.4" cy="81.2" r="1.1"/><circle fill="#DBDED7" cx="157.4" cy="85" r="1.1"/><circle fill="#DBDED7" cx="157.4" cy="88.9" r="1.1"/><circle fill="#DBDED7" cx="157.4" cy="92.7" r="1.1"/><circle fill="#DBDED7" cx="153.6" cy="58.1" r="1.1"/><circle fill="#DBDED7" cx="153.6" cy="62" r="1.1"/><circle fill="#DBDED7" cx="153.6" cy="65.8" r="1.1"/><circle fill="#DBDED7" cx="153.6" cy="69.7" r="1.1"/><circle fill="#DBDED7" cx="153.6" cy="73.5" r="1.1"/><circle fill="#DBDED7" cx="153.6" cy="77.3" r="1.1"/><circle fill="#DBDED7" cx="153.6" cy="81.2" r="1.1"/><circle fill="#DBDED7" cx="153.6" cy="85" r="1.1"/><circle fill="#DBDED7" cx="153.6" cy="88.9" r="1.1"/><circle fill="#DBDED7" cx="153.6" cy="92.7" r="1.1"/><circle fill="#DBDED7" cx="149.7" cy="58.1" r="1.1"/><circle fill="#DBDED7" cx="149.7" cy="62" r="1.1"/><circle fill="#DBDED7" cx="149.7" cy="65.8" r="1.1"/><circle fill="#DBDED7" cx="149.7" cy="69.7" r="1.1"/><circle fill="#DBDED7" cx="149.7" cy="73.5" r="1.1"/><circle fill="#DBDED7" cx="149.7" cy="77.3" r="1.1"/><circle fill="#DBDED7" cx="149.7" cy="81.2" r="1.1"/><circle fill="#DBDED7" cx="149.7" cy="85" r="1.1"/><circle fill="#DBDED7" cx="149.7" cy="88.9" r="1.1"/><circle fill="#DBDED7" cx="149.7" cy="92.7" r="1.1"/><circle fill="#DBDED7" cx="207.4" cy="58.1" r="1.1"/><circle fill="#DBDED7" cx="207.4" cy="62" r="1.1"/><circle fill="#DBDED7" cx="207.4" cy="65.8" r="1.1"/><circle fill="#DBDED7" cx="207.4" cy="69.7" r="1.1"/><circle fill="#DBDED7" cx="207.4" cy="73.5" r="1.1"/><circle fill="#DBDED7" cx="207.4" cy="77.3" r="1.1"/><circle fill="#DBDED7" cx="207.4" cy="81.2" r="1.1"/><circle fill="#DBDED7" cx="207.4" cy="85" r="1.1"/><circle fill="#DBDED7" cx="207.4" cy="88.9" r="1.1"/><circle fill="#DBDED7" cx="207.4" cy="92.7" r="1.1"/><circle fill="#DBDED7" cx="203.6" cy="58.1" r="1.1"/><circle fill="#DBDED7" cx="203.6" cy="62" r="1.1"/><circle fill="#DBDED7" cx="203.6" cy="65.8" r="1.1"/><circle fill="#DBDED7" cx="203.6" cy="69.7" r="1.1"/><circle fill="#DBDED7" cx="203.6" cy="73.5" r="1.1"/><circle fill="#DBDED7" cx="203.6" cy="77.3" r="1.1"/><circle fill="#DBDED7" cx="203.6" cy="81.2" r="1.1"/><circle fill="#DBDED7" cx="203.6" cy="85" r="1.1"/><circle fill="#DBDED7" cx="203.6" cy="88.9" r="1.1"/><circle fill="#DBDED7" cx="203.6" cy="92.7" r="1.1"/><circle fill="#DBDED7" cx="199.7" cy="58.1" r="1.1"/><circle fill="#DBDED7" cx="199.7" cy="62" r="1.1"/><circle fill="#DBDED7" cx="199.7" cy="65.8" r="1.1"/><circle fill="#DBDED7" cx="199.7" cy="69.7" r="1.1"/><circle fill="#DBDED7" cx="199.7" cy="73.5" r="1.1"/><circle fill="#DBDED7" cx="199.7" cy="77.3" r="1.1"/><circle fill="#DBDED7" cx="199.7" cy="81.2" r="1.1"/><circle fill="#DBDED7" cx="199.7" cy="85" r="1.1"/><circle fill="#DBDED7" cx="199.7" cy="88.9" r="1.1"/><circle fill="#DBDED7" cx="199.7" cy="92.7" r="1.1"/><circle fill="#DBDED7" cx="195.9" cy="58.1" r="1.1"/><circle fill="#DBDED7" cx="195.9" cy="62" r="1.1"/><circle fill="#DBDED7" cx="195.9" cy="65.8" r="1.1"/><circle fill="#DBDED7" cx="195.9" cy="69.7" r="1.1"/><circle fill="#DBDED7" cx="195.9" cy="73.5" r="1.1"/><circle fill="#DBDED7" cx="195.9" cy="77.3" r="1.1"/><circle fill="#DBDED7" cx="195.9" cy="81.2" r="1.1"/><circle fill="#DBDED7" cx="195.9" cy="85" r="1.1"/><circle fill="#DBDED7" cx="195.9" cy="88.9" r="1.1"/><circle fill="#DBDED7" cx="195.9" cy="92.7" r="1.1"/><circle fill="#DBDED7" cx="192.1" cy="58.1" r="1.1"/><circle fill="#DBDED7" cx="192.1" cy="62" r="1.1"/><circle fill="#DBDED7" cx="192.1" cy="65.8" r="1.1"/><circle fill="#DBDED7" cx="192.1" cy="69.7" r="1.1"/><circle fill="#DBDED7" cx="192.1" cy="73.5" r="1.1"/><circle fill="#DBDED7" cx="192.1" cy="77.3" r="1.1"/><circle fill="#DBDED7" cx="192.1" cy="81.2" r="1.1"/><circle fill="#DBDED7" cx="192.1" cy="85" r="1.1"/><circle fill="#DBDED7" cx="192.1" cy="88.9" r="1.1"/><circle fill="#DBDED7" cx="192.1" cy="92.7" r="1.1"/><circle fill="#DBDED7" cx="188.2" cy="58.1" r="1.1"/><circle fill="#DBDED7" cx="188.2" cy="62" r="1.1"/><circle fill="#DBDED7" cx="188.2" cy="65.8" r="1.1"/><circle fill="#DBDED7" cx="188.2" cy="69.7" r="1.1"/><circle fill="#DBDED7" cx="188.2" cy="73.5" r="1.1"/><circle fill="#DBDED7" cx="188.2" cy="77.3" r="1.1"/><circle fill="#DBDED7" cx="188.2" cy="81.2" r="1.1"/><circle fill="#DBDED7" cx="188.2" cy="85" r="1.1"/><circle fill="#DBDED7" cx="188.2" cy="88.9" r="1.1"/><circle fill="#DBDED7" cx="188.2" cy="92.7" r="1.1"/><circle fill="#DBDED7" cx="184.4" cy="92.7" r="1.1"/><circle fill="#DBDED7" cx="184.4" cy="96.6" r="1.1"/><circle fill="#DBDED7" cx="184.4" cy="100.4" r="1.1"/><circle fill="#DBDED7" cx="180.5" cy="92.7" r="1.1"/><circle fill="#DBDED7" cx="180.5" cy="96.6" r="1.1"/><circle fill="#DBDED7" cx="180.5" cy="100.4" r="1.1"/><circle fill="#DBDED7" cx="176.7" cy="92.7" r="1.1"/><circle fill="#DBDED7" cx="176.7" cy="96.6" r="1.1"/><circle fill="#DBDED7" cx="176.7" cy="100.4" r="1.1"/><circle fill="#DBDED7" cx="172.8" cy="92.7" r="1.1"/><circle fill="#DBDED7" cx="172.8" cy="96.6" r="1.1"/><circle fill="#DBDED7" cx="172.8" cy="100.4" r="1.1"/><circle fill="#DBDED7" cx="169" cy="92.7" r="1.1"/><circle fill="#DBDED7" cx="169" cy="96.6" r="1.1"/><circle fill="#DBDED7" cx="169" cy="100.4" r="1.1"/><circle fill="#DBDED7" cx="165.1" cy="92.7" r="1.1"/><circle fill="#DBDED7" cx="165.1" cy="96.6" r="1.1"/><circle fill="#DBDED7" cx="165.1" cy="100.4" r="1.1"/><circle fill="#DBDED7" cx="161.3" cy="92.7" r="1.1"/><circle fill="#DBDED7" cx="161.3" cy="96.6" r="1.1"/><circle fill="#DBDED7" cx="161.3" cy="100.4" r="1.1"/><circle fill="#DBDED7" cx="157.4" cy="92.7" r="1.1"/><circle fill="#DBDED7" cx="157.4" cy="96.6" r="1.1"/><circle fill="#DBDED7" cx="157.4" cy="100.4" r="1.1"/><circle fill="#DBDED7" cx="153.6" cy="92.7" r="1.1"/><circle fill="#DBDED7" cx="153.6" cy="96.6" r="1.1"/><circle fill="#DBDED7" cx="153.6" cy="100.4" r="1.1"/><circle fill="#DBDED7" cx="149.7" cy="92.7" r="1.1"/><circle fill="#DBDED7" cx="149.7" cy="96.6" r="1.1"/><circle fill="#DBDED7" cx="149.7" cy="100.4" r="1.1"/><circle fill="#DBDED7" cx="207.4" cy="92.7" r="1.1"/><circle fill="#DBDED7" cx="207.4" cy="96.6" r="1.1"/><circle fill="#DBDED7" cx="207.4" cy="100.4" r="1.1"/><circle fill="#DBDED7" cx="203.6" cy="92.7" r="1.1"/><circle fill="#DBDED7" cx="203.6" cy="96.6" r="1.1"/><circle fill="#DBDED7" cx="203.6" cy="100.4" r="1.1"/><circle fill="#DBDED7" cx="199.7" cy="92.7" r="1.1"/><circle fill="#DBDED7" cx="199.7" cy="96.6" r="1.1"/><circle fill="#DBDED7" cx="199.7" cy="100.4" r="1.1"/><circle fill="#DBDED7" cx="195.9" cy="92.7" r="1.1"/><circle fill="#DBDED7" cx="195.9" cy="96.6" r="1.1"/><circle fill="#DBDED7" cx="195.9" cy="100.4" r="1.1"/><circle fill="#DBDED7" cx="192.1" cy="92.7" r="1.1"/><circle fill="#DBDED7" cx="192.1" cy="96.6" r="1.1"/><circle fill="#DBDED7" cx="192.1" cy="100.4" r="1.1"/><circle fill="#DBDED7" cx="188.2" cy="92.7" r="1.1"/><circle fill="#DBDED7" cx="188.2" cy="96.6" r="1.1"/><circle fill="#DBDED7" cx="188.2" cy="100.4" r="1.1"/><circle fill="#DBDED7" cx="184.4" cy="50.4" r="1.1"/><circle fill="#DBDED7" cx="180.5" cy="50.4" r="1.1"/><circle fill="#DBDED7" cx="176.7" cy="50.4" r="1.1"/><circle fill="#DBDED7" cx="172.8" cy="50.4" r="1.1"/><circle fill="#DBDED7" cx="169" cy="50.4" r="1.1"/><circle fill="#DBDED7" cx="165.1" cy="50.4" r="1.1"/><circle fill="#DBDED7" cx="161.3" cy="50.4" r="1.1"/><circle fill="#DBDED7" cx="157.4" cy="50.4" r="1.1"/><circle fill="#DBDED7" cx="153.6" cy="50.4" r="1.1"/><circle fill="#DBDED7" cx="149.7" cy="50.4" r="1.1"/><circle fill="#DBDED7" cx="207.4" cy="50.4" r="1.1"/><circle fill="#DBDED7" cx="203.6" cy="50.4" r="1.1"/><circle fill="#DBDED7" cx="199.7" cy="50.4" r="1.1"/><circle fill="#DBDED7" cx="195.9" cy="50.4" r="1.1"/><circle fill="#DBDED7" cx="192.1" cy="50.4" r="1.1"/><circle fill="#DBDED7" cx="188.2" cy="50.4" r="1.1"/><circle fill="#DBDED7" cx="184.4" cy="50.4" r="1.1"/><circle fill="#DBDED7" cx="184.4" cy="54.3" r="1.1"/><circle fill="#DBDED7" cx="184.4" cy="58.1" r="1.1"/><circle fill="#DBDED7" cx="180.5" cy="50.4" r="1.1"/><circle fill="#DBDED7" cx="180.5" cy="54.3" r="1.1"/><circle fill="#DBDED7" cx="180.5" cy="58.1" r="1.1"/><circle fill="#DBDED7" cx="176.7" cy="50.4" r="1.1"/><circle fill="#DBDED7" cx="176.7" cy="54.3" r="1.1"/><circle fill="#DBDED7" cx="176.7" cy="58.1" r="1.1"/><circle fill="#DBDED7" cx="172.8" cy="50.4" r="1.1"/><circle fill="#DBDED7" cx="172.8" cy="54.3" r="1.1"/><circle fill="#DBDED7" cx="172.8" cy="58.1" r="1.1"/><circle fill="#DBDED7" cx="169" cy="50.4" r="1.1"/><circle fill="#DBDED7" cx="169" cy="54.3" r="1.1"/><circle fill="#DBDED7" cx="169" cy="58.1" r="1.1"/><circle fill="#DBDED7" cx="165.1" cy="50.4" r="1.1"/><circle fill="#DBDED7" cx="165.1" cy="54.3" r="1.1"/><circle fill="#DBDED7" cx="165.1" cy="58.1" r="1.1"/><circle fill="#DBDED7" cx="161.3" cy="50.4" r="1.1"/><circle fill="#DBDED7" cx="161.3" cy="54.3" r="1.1"/><circle fill="#DBDED7" cx="161.3" cy="58.1" r="1.1"/><circle fill="#DBDED7" cx="157.4" cy="50.4" r="1.1"/><circle fill="#DBDED7" cx="157.4" cy="54.3" r="1.1"/><circle fill="#DBDED7" cx="157.4" cy="58.1" r="1.1"/><circle fill="#DBDED7" cx="153.6" cy="50.4" r="1.1"/><circle fill="#DBDED7" cx="153.6" cy="54.3" r="1.1"/><circle fill="#DBDED7" cx="153.6" cy="58.1" r="1.1"/><circle fill="#DBDED7" cx="149.7" cy="50.4" r="1.1"/><circle fill="#DBDED7" cx="149.7" cy="54.3" r="1.1"/><circle fill="#DBDED7" cx="149.7" cy="58.1" r="1.1"/><circle fill="#DBDED7" cx="207.4" cy="50.4" r="1.1"/><circle fill="#DBDED7" cx="207.4" cy="54.3" r="1.1"/><circle fill="#DBDED7" cx="207.4" cy="58.1" r="1.1"/><circle fill="#DBDED7" cx="203.6" cy="50.4" r="1.1"/><circle fill="#DBDED7" cx="203.6" cy="54.3" r="1.1"/><circle fill="#DBDED7" cx="203.6" cy="58.1" r="1.1"/><circle fill="#DBDED7" cx="199.7" cy="50.4" r="1.1"/><circle fill="#DBDED7" cx="199.7" cy="54.3" r="1.1"/><circle fill="#DBDED7" cx="199.7" cy="58.1" r="1.1"/><circle fill="#DBDED7" cx="195.9" cy="50.4" r="1.1"/><circle fill="#DBDED7" cx="195.9" cy="54.3" r="1.1"/><circle fill="#DBDED7" cx="195.9" cy="58.1" r="1.1"/><circle fill="#DBDED7" cx="192.1" cy="50.4" r="1.1"/><circle fill="#DBDED7" cx="192.1" cy="54.3" r="1.1"/><circle fill="#DBDED7" cx="192.1" cy="58.1" r="1.1"/><circle fill="#DBDED7" cx="188.2" cy="50.4" r="1.1"/><circle fill="#DBDED7" cx="188.2" cy="54.3" r="1.1"/><circle fill="#DBDED7" cx="188.2" cy="58.1" r="1.1"/><circle fill="#DBDED7" cx="184.4" cy="46.6" r="1.1"/><circle fill="#DBDED7" cx="180.5" cy="46.6" r="1.1"/><circle fill="#DBDED7" cx="176.7" cy="46.6" r="1.1"/><circle fill="#DBDED7" cx="172.8" cy="46.6" r="1.1"/><circle fill="#DBDED7" cx="169" cy="46.6" r="1.1"/><circle fill="#DBDED7" cx="165.1" cy="46.6" r="1.1"/><circle fill="#DBDED7" cx="161.3" cy="46.6" r="1.1"/><circle fill="#DBDED7" cx="157.4" cy="46.6" r="1.1"/><circle fill="#DBDED7" cx="153.6" cy="46.6" r="1.1"/><circle fill="#DBDED7" cx="149.7" cy="46.6" r="1.1"/><circle fill="#DBDED7" cx="207.4" cy="46.6" r="1.1"/><circle fill="#DBDED7" cx="203.6" cy="46.6" r="1.1"/><circle fill="#DBDED7" cx="199.7" cy="46.6" r="1.1"/><circle fill="#DBDED7" cx="195.9" cy="46.6" r="1.1"/><circle fill="#DBDED7" cx="192.1" cy="46.6" r="1.1"/><circle fill="#DBDED7" cx="188.2" cy="46.6" r="1.1"/><circle fill="#DBDED7" cx="184.4" cy="104.3" r="1.1"/><circle fill="#DBDED7" cx="180.5" cy="104.3" r="1.1"/><circle fill="#DBDED7" cx="176.7" cy="104.3" r="1.1"/><circle fill="#DBDED7" cx="172.8" cy="104.3" r="1.1"/><circle fill="#DBDED7" cx="169" cy="104.3" r="1.1"/><circle fill="#DBDED7" cx="165.1" cy="104.3" r="1.1"/><circle fill="#DBDED7" cx="161.3" cy="104.3" r="1.1"/><circle fill="#DBDED7" cx="157.4" cy="104.3" r="1.1"/><circle fill="#DBDED7" cx="153.6" cy="104.3" r="1.1"/><circle fill="#DBDED7" cx="149.7" cy="104.3" r="1.1"/><circle fill="#DBDED7" cx="207.4" cy="104.3" r="1.1"/><circle fill="#DBDED7" cx="203.6" cy="104.3" r="1.1"/><circle fill="#DBDED7" cx="199.7" cy="104.3" r="1.1"/><circle fill="#DBDED7" cx="195.9" cy="104.3" r="1.1"/><circle fill="#DBDED7" cx="192.1" cy="104.3" r="1.1"/><circle fill="#DBDED7" cx="188.2" cy="104.3" r="1.1"/><circle fill="#DBDED7" cx="184.4" cy="104.3" r="1.1"/><circle fill="#DBDED7" cx="184.4" cy="108.1" r="1.1"/><circle fill="#DBDED7" cx="180.5" cy="104.3" r="1.1"/><circle fill="#DBDED7" cx="180.5" cy="108.1" r="1.1"/><circle fill="#DBDED7" cx="176.7" cy="104.3" r="1.1"/><circle fill="#DBDED7" cx="176.7" cy="108.1" r="1.1"/><circle fill="#DBDED7" cx="172.8" cy="104.3" r="1.1"/><circle fill="#DBDED7" cx="172.8" cy="108.1" r="1.1"/><circle fill="#DBDED7" cx="169" cy="104.3" r="1.1"/><circle fill="#DBDED7" cx="169" cy="108.1" r="1.1"/><circle fill="#DBDED7" cx="165.1" cy="104.3" r="1.1"/><circle fill="#DBDED7" cx="165.1" cy="108.1" r="1.1"/><circle fill="#DBDED7" cx="161.3" cy="104.3" r="1.1"/><circle fill="#DBDED7" cx="161.3" cy="108.1" r="1.1"/><circle fill="#DBDED7" cx="157.4" cy="104.3" r="1.1"/><circle fill="#DBDED7" cx="157.4" cy="108.1" r="1.1"/><circle fill="#DBDED7" cx="153.6" cy="104.3" r="1.1"/><circle fill="#DBDED7" cx="153.6" cy="108.1" r="1.1"/><circle fill="#DBDED7" cx="149.7" cy="104.3" r="1.1"/><circle fill="#DBDED7" cx="149.7" cy="108.1" r="1.1"/><circle fill="#DBDED7" cx="207.4" cy="104.3" r="1.1"/><circle fill="#DBDED7" cx="207.4" cy="108.1" r="1.1"/><circle fill="#DBDED7" cx="203.6" cy="104.3" r="1.1"/><circle fill="#DBDED7" cx="203.6" cy="108.1" r="1.1"/><circle fill="#DBDED7" cx="199.7" cy="104.3" r="1.1"/><circle fill="#DBDED7" cx="199.7" cy="108.1" r="1.1"/><circle fill="#DBDED7" cx="195.9" cy="104.3" r="1.1"/><circle fill="#DBDED7" cx="195.9" cy="108.1" r="1.1"/><circle fill="#DBDED7" cx="192.1" cy="104.3" r="1.1"/><circle fill="#DBDED7" cx="192.1" cy="108.1" r="1.1"/><circle fill="#DBDED7" cx="188.2" cy="104.3" r="1.1"/><circle fill="#DBDED7" cx="188.2" cy="108.1" r="1.1"/><circle fill="#DBDED7" cx="211.3" cy="58.1" r="1.1"/><circle fill="#DBDED7" cx="211.3" cy="62" r="1.1"/><circle fill="#DBDED7" cx="211.3" cy="65.8" r="1.1"/><circle fill="#DBDED7" cx="211.3" cy="69.7" r="1.1"/><circle fill="#DBDED7" cx="211.3" cy="73.5" r="1.1"/><circle fill="#DBDED7" cx="211.3" cy="77.3" r="1.1"/><circle fill="#DBDED7" cx="211.3" cy="81.2" r="1.1"/><circle fill="#DBDED7" cx="211.3" cy="85" r="1.1"/><circle fill="#DBDED7" cx="211.3" cy="88.9" r="1.1"/><circle fill="#DBDED7" cx="211.3" cy="92.7" r="1.1"/><circle fill="#DBDED7" cx="211.3" cy="92.7" r="1.1"/><circle fill="#DBDED7" cx="211.3" cy="96.6" r="1.1"/><circle fill="#DBDED7" cx="211.3" cy="100.4" r="1.1"/><circle fill="#DBDED7" cx="211.3" cy="50.4" r="1.1"/><circle fill="#DBDED7" cx="211.3" cy="50.4" r="1.1"/><circle fill="#DBDED7" cx="211.3" cy="54.3" r="1.1"/><circle fill="#DBDED7" cx="211.3" cy="58.1" r="1.1"/><circle fill="#DBDED7" cx="211.3" cy="46.6" r="1.1"/><circle fill="#DBDED7" cx="211.3" cy="104.3" r="1.1"/><circle fill="#DBDED7" cx="211.3" cy="104.3" r="1.1"/><circle fill="#DBDED7" cx="211.3" cy="108.1" r="1.1"/><g opacity=".5"><circle fill="#fff" cx="162.2" cy="66.3" r="5.2"/><path fill="#B2ACA1" d="M162.2 71.8c-3 0-5.4-2.4-5.4-5.4 0-3 2.4-5.4 5.4-5.4s5.4 2.4 5.4 5.4c0 2.9-2.4 5.4-5.4 5.4zm0-10.4c-2.7 0-4.9 2.2-4.9 4.9s2.2 4.9 4.9 4.9 4.9-2.2 4.9-4.9-2.2-4.9-4.9-4.9z"/></g><path fill="#B2ACA1" d="M154.3 95h52.5v.5h-52.5z"/><g opacity=".5"><path fill="#fff" d="M157.8 95.2l12.7-18.1 7.3 11 12.1-22.1 13.5 29.2z"/><path fill="#B2ACA1" d="M203.8 95.5h-46.5l13.2-18.9 7.2 11 12.1-22.1 14 30zm-45.5-.5h44.7l-13.2-28.4-12 22-7.3-11-12.2 17.4z"/></g></g><path fill="#B2ACA1" d="M180.6 109.5c-17.6 0-31.9-14.3-31.9-31.9s14.3-31.9 31.9-31.9 31.9 14.3 31.9 31.9-14.3 31.9-31.9 31.9zm0-63.4c-17.3 0-31.4 14.1-31.4 31.4 0 17.3 14.1 31.4 31.4 31.4s31.4-14 31.4-31.4c0-17.3-14.1-31.4-31.4-31.4z"/><path d="M115.7 229.7c-.4.5-1.1.8-1.9.8-.8 0-1.5-.2-1.9-.7-.5-.5-.7-1.2-.7-2.1v-3.2h1.5v3.3c0 .8.4 1.2 1.1 1.2.4 0 .7-.1.8-.3.2-.2.2-.5.2-.9v-12.1h1.6v12c0 .7-.3 1.4-.7 2zm8.4-8.3c0 .5-.1.9-.2 1.2-.1.3-.3.6-.5.8-.2.2-.5.4-.8.5s-.6.1-1 .1h-1.3v6.2h-1.6v-14.7h2.9c.3 0 .7 0 1 .1.3.1.6.2.8.5.2.2.4.5.5.8.1.3.2.7.2 1.2v3.3zm-1.6-3.3c0-.7-.3-1.1-.8-1.1h-1.3v5.5h1.3c.6 0 .8-.4.8-1.1v-3.3zm8.5 12.1l-.4-.9c-.2.4-.4.6-.8.8-.3.2-.7.3-1.2.3-.7 0-1.3-.3-1.8-.8s-.7-1.3-.7-2.2v-9.1c0-.9.3-1.6.8-2.2.5-.6 1.2-.9 2.1-.9s1.5.3 2 .8c.5.6.7 1.3.7 2.2v2h-1.5v-2.2c0-.3-.1-.6-.3-.9s-.5-.4-.9-.4-.7.1-.9.4c-.2.2-.3.5-.3.9v9.5c0 .4.1.7.3 1 .2.3.5.4.9.4s.7-.1.9-.4c.2-.3.3-.6.3-1v-3.3h-1.2v-1.2h2.7v7.3h-.7zm45.9-107.3c0 .5-.1.9-.2 1.2-.1.3-.3.6-.5.8-.2.2-.5.4-.8.5s-.6.1-1 .1h-1.3v6.2h-1.6v-14.7h2.9c.3 0 .7 0 1 .1.3.1.6.2.8.5.2.2.4.5.5.8.1.3.2.7.2 1.2v3.3zm-1.6-3.3c0-.7-.3-1.1-.8-1.1h-1.3v5.5h1.3c.6 0 .8-.4.8-1.1v-3.3zm8.3 12.1l-2.5-7.4-.7-2.4v9.8h-1.4v-14.7h1.4l2.3 7.5.7 2.4v-9.9h1.5v14.7h-1.3zm8.5 0l-.4-.9c-.2.4-.4.6-.8.8-.3.2-.7.3-1.2.3-.7 0-1.3-.3-1.8-.8s-.7-1.3-.7-2.2v-9.1c0-.9.3-1.6.8-2.2.5-.6 1.2-.9 2.1-.9s1.5.3 2 .8c.5.6.7 1.3.7 2.2v2h-1.5v-2.2c0-.3-.1-.6-.3-.9s-.5-.4-.9-.4-.7.1-.9.4c-.2.2-.3.5-.3.9v9.5c0 .4.1.7.3 1 .2.3.5.4.9.4s.7-.1.9-.4c.2-.3.3-.6.3-1v-3.3h-1.3v-1.4h2.7v7.3h-.6zm-133.1 0l-.4-.9c-.2.4-.4.6-.8.8-.3.2-.7.3-1.2.3-.7 0-1.3-.3-1.8-.8s-.7-1.3-.7-2.2v-9.1c0-.9.3-1.6.8-2.2.5-.6 1.2-.9 2.1-.9s1.5.3 2 .8c.5.6.7 1.3.7 2.2v2h-1.5v-2.2c0-.3-.1-.6-.3-.9s-.5-.4-.9-.4-.7.1-.9.4c-.2.2-.3.5-.3.9v9.5c0 .4.1.7.3 1 .2.3.5.4.9.4s.7-.1.9-.4c.2-.3.3-.6.3-1v-3.3h-1.2v-1.4h2.7v7.3h-.7zm3 0v-14.7h1.6v14.7h-1.6zm5.7-13.2v5h2.3v1.4h-2.3v6.7h-1.6v-14.7h4.5v1.5h-2.9z" fill="#E12429"/><path fill="#B2ADA1" d="M122.8 116.5h-1v-.7h1v.7zm0-3.6h-1v-1h1v1zm0-4h-1v-1h1v1zm0-4h-1v-1h1v1zm0-4h-1v-1h1v1zm0-4h-1v-1h1v1zm0-4h-1v-1h1v1zm0-4h-1v-1h1v1zm0-4h-1v-1h1v1zm0-4h-1v-1h1v1zm0-4h-1v-1h1v1zm0-4h-1v-1h1v1zm0-4h-1v-1h1v1zm0-4h-1v-1h1v1zm0-4h-1v-1h1v1zm0-4h-1v-1h1v1zm0-4h-1v-1h1v1zm0-4h-1v-1h1v1zm0-4h-1v-1h1v1zm0-4h-1v-1h1v1zm0-4h-1v-1h1v1zm0-4h-1v-1h1v1zm0-4h-1v-1h1v1zm0-4h-1v-1h1v1zm0-4h-1v-1h1v1zm-80 151.1l-.6-.8.8-.5.6.8-.8.5zm3.2-2.2l-.6-.8.8-.6.6.8-.8.6zm3.3-2.3l-.6-.8.8-.6.6.8-.8.6zm3.3-2.3l-.6-.8.8-.6.6.8-.8.6zm3.3-2.2l-.6-.8.8-.6.6.8-.8.6zm3.3-2.3l-.6-.8.8-.6.6.8-.8.6zm3.3-2.3l-.6-.8.8-.6.6.8-.8.6zm3.3-2.3l-.6-.8.8-.6.6.8-.8.6zm3.3-2.2l-.6-.8.8-.6.6.8-.8.6zm3.3-2.3l-.6-.8.8-.6.6.8-.8.6zm3.3-2.3l-.6-.8.8-.6.6.8-.8.6zm3.3-2.2l-.6-.8.8-.6.6.8-.8.6zm3.3-2.3l-.6-.8.8-.6.6.8-.8.6zm3.2-2.3l-.6-.8.8-.6.6.8-.8.6zm3.3-2.3l-.6-.8.8-.6.6.8-.8.6zm3.3-2.2l-.6-.8.8-.6.6.8-.8.6zm3.3-2.3l-.6-.8.8-.6.6.8-.8.6zm3.3-2.3l-.6-.8.9-.6.6.8-.9.6zm3.3-2.2l-.6-.8.8-.6.6.8-.8.6zm3.3-2.3l-.6-.8.8-.6.6.8-.8.6zm3.3-2.3l-.6-.8.8-.6.6.8-.8.6zm3.3-2.3l-.6-.8.8-.6.6.8-.8.6zm3.3-2.2l-.6-.8.8-.6.6.8-.8.6zm3.3-2.3l-.6-.8.8-.6.6.8-.8.6zm3.3-2.3l-.6-.8.8-.6.6.8-.8.6zm79.6 54.2l-.4-.3.6-.8.4.3-.6.8zm-2.8-1.9l-.8-.6.6-.8.8.6-.6.8zm-3.3-2.3l-.8-.6.6-.8.8.6-.6.8zm-3.3-2.3l-.8-.6.6-.8.8.6-.6.8zm-3.3-2.2l-.8-.6.6-.8.8.6-.6.8zm-3.3-2.3l-.8-.6.6-.8.8.6-.6.8zm-3.3-2.3l-.8-.6.6-.8.8.6-.6.8zm-3.3-2.3l-.8-.6.6-.8.8.6-.6.8zm-3.3-2.2l-.8-.6.6-.8.8.6-.6.8zm-3.3-2.3l-.8-.6.6-.8.8.6-.6.8zm-3.3-2.3l-.8-.6.6-.8.8.6-.6.8zm-3.3-2.2l-.8-.6.6-.8.8.6-.6.8zm-3.3-2.3l-.8-.6.6-.8.8.6-.6.8zm-3.2-2.3l-.8-.6.6-.8.8.6-.6.8zm-3.3-2.3l-.8-.6.6-.8.8.6-.6.8zm-3.3-2.2l-.8-.6.6-.8.8.6-.6.8zm-3.3-2.3l-.8-.6.6-.8.8.6-.6.8zm-3.3-2.3l-.8-.6.6-.8.8.6-.6.8zm-3.3-2.2l-.8-.6.6-.8.8.6-.6.8zm-3.3-2.3l-.8-.6.6-.8.8.6-.6.8zm-3.3-2.3l-.8-.6.6-.8.8.6-.6.8zm-3.3-2.3l-.8-.6.6-.8.8.6-.6.8zm-3.3-2.2l-.8-.6.6-.8.8.6-.6.8zm-3.3-2.3l-.8-.6.6-.8.8.6-.6.8zm-3.3-2.3l-.8-.5.6-.8.8.6-.6.7z"/><path fill="#fff" d="M122 123.8c-3.5 0-6.4-2.8-6.4-6.4 0-3.5 2.9-6.4 6.4-6.4 3.5 0 6.4 2.8 6.4 6.4 0 3.5-2.9 6.4-6.4 6.4z"/><path fill="#E12429" d="M122 126.3c-4.9 0-8.9-4-8.9-8.9s4-8.9 8.9-8.9 8.9 4 8.9 8.9-4 8.9-8.9 8.9zm0-12.8c-2.1 0-3.9 1.7-3.9 3.9s1.7 3.9 3.9 3.9c2.1 0 3.9-1.7 3.9-3.9s-1.8-3.9-3.9-3.9zm7.2-1l-.5-.9.9-.5.5.9-.9.5zm3.6-2l-.5-.9.9-.5.5.9-.9.5zm3.5-1.9l-.5-.9.9-.5.5.9-.9.5zm3.5-1.9l-.5-.9.9-.5.5.9-.9.5zm3.5-1.9l-.5-.9.9-.5.5.9-.9.5zm-28.3 7.7l-.9-.5.5-.9.9.5-.5.9zm-3.5-2l-.9-.5.5-.9.9.5-.5.9zm-3.5-1.9l-.9-.5.5-.9.9.5-.5.9zm-3.5-1.9l-.9-.5.5-.9.9.5-.5.9zm-3.5-1.9l-.9-.5.5-.9.9.5-.5.9zm21.9 36h-1v-1h1v1zm0-4h-1v-1h1v1zm0-4h-1v-1h1v1zm0-4h-1v-1h1v1zm0-4h-1v-1h1v1z"/><path fill="#B2ACA1" d="M62.2 110.1c-17.6 0-31.9-14.3-31.9-31.9s14.3-31.9 31.9-31.9 31.9 14.3 31.9 31.9-14.3 31.9-31.9 31.9zm0-63.3c-17.3 0-31.4 14.1-31.4 31.4s14.1 31.4 31.4 31.4c17.3 0 31.4-14.1 31.4-31.4s-14.1-31.4-31.4-31.4zm23.1 48.1l-13.5-29.1-12.1 22-7.3-11-12.7 18.1"/><path fill="#B2ACA1" d="M35.3 94.7h53.8v.5h-53.8z"/><circle fill="#B2ACA1" cx="56.4" cy="59.6" r="5.2"/><circle fill="#B2ACA1" cx="49.1" cy="63.1" r="5.2" opacity=".75"/><circle fill="#B2ACA1" cx="42.9" cy="69.9" r="5.2" opacity=".5"/><circle fill="#B2ACA1" cx="40.2" cy="76.5" r="5.2" opacity=".25"/><path fill="#B2ACA1" d="M122 208.9c-17.6 0-31.9-14.3-31.9-31.9s14.3-31.9 31.9-31.9c17.6 0 31.9 14.3 31.9 31.9s-14.3 31.9-31.9 31.9zm0-63.3c-17.3 0-31.4 14.1-31.4 31.4s14.1 31.4 31.4 31.4 31.4-14.1 31.4-31.4-14.1-31.4-31.4-31.4z"/><defs><circle id="c" cx="122" cy="177" r="31.7"/></defs><clipPath id="d"><use xlink:href="#c" overflow="visible"/></clipPath><path d="M71.7 140.5l70.3 70.3m-64.6-70.3l70.3 70.3m-64.7-70.3l70.3 70.3m-64.6-70.3l70.3 70.3m-64.6-70.3l70.3 70.3m-64.6-70.3l70.2 70.3m-64.6-70.3l70.3 70.3m-64.6-70.3l70.3 70.3m-64.6-70.3l70.3 70.3m-64.7-70.3l70.3 70.3m-64.6-70.3l70.3 70.3m-64.6-70.3l70.3 70.3m-64.7-70.3l70.3 70.3m-64.6-70.3l70.3 70.3m-217.7-70.3l70.3 70.3m-64.6-70.3l70.2 70.3m-64.6-70.3l70.3 70.3m-64.6-70.3l70.3 70.3m-64.6-70.3l70.3 70.3m-64.7-70.3l70.3 70.3m-64.6-70.3l70.3 70.3m-64.6-70.3l70.3 70.3m-64.7-70.3l70.3 70.3m-64.6-70.3l70.3 70.3m-64.6-70.3l70.3 70.3m-64.6-70.3l70.2 70.3m-64.6-70.3l70.3 70.3m-64.6-70.3l70.3 70.3" clip-path="url(#d)" stroke="#B2ACA1" stroke-width=".25" stroke-miterlimit="10" fill="none"/><path fill="#fff" d="M99 197.8l12.7-18.2 7.3 11 12.1-22 13.5 29.2z"/><path fill="#B2ACA1" d="M145.4 198.3h-47.4l13.7-19.6 7.2 10.9 12.1-22.2 14.4 30.9zm-45.4-1h43.9l-12.9-27.6-12 21.9-7.3-11.1-11.7 16.8zm-.8.6l-.4-.3 12.9-18.4 7.3 10.9 12.1-22 13.7 29.6-.4.2-13.3-28.7-12.1 21.9-7.3-11zm-1-.4h47.7v.5h-47.7z"/><circle fill="#fff" cx="104.2" cy="166.6" r="5.2"/><path fill="#B2ACA1" d="M104.2 172.3c-3.1 0-5.7-2.6-5.7-5.7s2.6-5.7 5.7-5.7 5.7 2.6 5.7 5.7c0 3.2-2.6 5.7-5.7 5.7zm0-10.4c-2.6 0-4.7 2.1-4.7 4.7s2.1 4.7 4.7 4.7 4.7-2.1 4.7-4.7-2.1-4.7-4.7-4.7zm-4.8 36.2l-.8-.6 13.1-18.8 7.3 11 12.1-22.2 14 30.1-.9.4-13.2-28.3-12 21.9-7.3-11.1z"/><defs><path id="e" d="M99 197.8l12.7-18.2 7.3 11 12.1-22 13.5 29.2z"/></defs><clipPath id="f"><use xlink:href="#e" overflow="visible"/></clipPath><path d="M198.1 145.5l-52.2 52.3m48-52.3l-52.2 52.3m48-52.3l-52.2 52.3m48-52.3l-52.3 52.3m48.1-52.3l-52.3 52.3m48.1-52.3l-52.3 52.3m48.1-52.3l-52.3 52.3m48-52.3l-52.2 52.3m48-52.3l-52.2 52.3m48-52.3l-52.3 52.3m48.1-52.3l-52.3 52.3m48.1-52.3l-52.3 52.3m48.1-52.3l-52.3 52.3m48-52.3l-52.2 52.3" clip-path="url(#f)" stroke="#B2ACA1" stroke-width=".5" stroke-miterlimit="10" fill="none"/><defs><circle id="g" cx="104.2" cy="166.6" r="5.2"/></defs><clipPath id="h"><use xlink:href="#g" overflow="visible"/></clipPath><path d="M155.3 135.2l-52.3 52.2m48.1-52.2l-52.3 52.2m48-52.2l-52.2 52.2m48-52.2l-52.2 52.2m48-52.2l-52.3 52.2m48.1-52.2l-52.3 52.2m48.1-52.2l-52.3 52.2m48.1-52.2l-52.3 52.2m48-52.2l-52.2 52.2m48-52.2l-52.2 52.2m48-52.2l-52.2 52.2m48-52.2l-52.3 52.2m48.1-52.2l-52.3 52.2m48.1-52.2l-52.3 52.2" stroke="#B2ACA1" stroke-width=".5" stroke-miterlimit="10" clip-path="url(#h)" fill="none"/></svg>