<svg xmlns="http://www.w3.org/2000/svg" viewBox="0 0 244 244" enable-background="new 0 0 244 244"><circle fill="#fff" cx="122" cy="122" r="122"/><path fill="#fff" d="M93.2 22.3c-1.8 0-3.4-1.2-3.9-3-.6-2.1.7-4.3 2.8-4.9.3-.1.7-.1 1-.1 1.8 0 3.4 1.2 3.9 3 .6 2.1-.7 4.3-2.8 4.9l-1 .1z"/><path fill="#B2ADA1" d="M93.2 15.3c1.4 0 2.5.9 2.9 2.2.2.8.1 1.6-.3 2.3s-1 1.2-1.8 1.4c-.3.1-.5.1-.8.1-1.4 0-2.5-.9-2.9-2.2-.2-.8-.1-1.6.3-2.3s1-1.2 1.8-1.4c.3-.1.5-.1.8-.1m0-2c-.4 0-.9.1-1.3.2-2.7.7-4.3 3.5-3.5 6.1.6 2.2 2.6 3.7 4.8 3.7.4 0 .9-.1 1.3-.2 2.7-.7 4.3-3.5 3.5-6.1-.6-2.3-2.6-3.7-4.8-3.7z"/><path fill="#fff" d="M149 230.6c-1.8 0-3.4-1.2-3.9-3-.3-1-.1-2.1.4-3 .5-.9 1.4-1.6 2.4-1.9.3-.1.7-.1 1-.1 1.8 0 3.4 1.2 3.9 3 .6 2.1-.7 4.3-2.8 4.9l-1 .1z"/><path fill="#B2ADA1" d="M149 223.6c1.4 0 2.5.9 2.9 2.2.2.8.1 1.6-.3 2.3s-1 1.2-1.8 1.4c-.3.1-.5.1-.8.1-1.4 0-2.5-.9-2.9-2.2-.2-.8-.1-1.6.3-2.3s1-1.2 1.8-1.4c.3-.1.5-.1.8-.1m0-2c-.4 0-.9.1-1.3.2-2.7.7-4.3 3.5-3.5 6.1.6 2.2 2.6 3.7 4.8 3.7.4 0 .9-.1 1.3-.2 2.7-.7 4.3-3.5 3.5-6.1-.6-2.3-2.6-3.7-4.8-3.7z"/><path fill="#fff" d="M44.8 50.2c-1.1 0-2.1-.4-2.8-1.2s-1.2-1.8-1.2-2.8.4-2.1 1.2-2.8 1.8-1.2 2.8-1.2 2.1.4 2.8 1.2 1.2 1.8 1.2 2.8-.4 2.1-1.2 2.8-1.7 1.2-2.8 1.2z"/><path fill="#B2ADA1" d="M44.8 43.2c.8 0 1.6.3 2.1.9s.9 1.3.9 2.1-.3 1.6-.9 2.1-1.3.9-2.1.9-1.6-.3-2.1-.9-.9-1.3-.9-2.1.3-1.6.9-2.1 1.3-.9 2.1-.9m0-2c-1.3 0-2.6.5-3.5 1.5-2 2-2 5.1 0 7.1 1 1 2.3 1.5 3.5 1.5 1.3 0 2.6-.5 3.5-1.5 2-2 2-5.1 0-7.1-.9-1-2.2-1.5-3.5-1.5z"/><path fill="#fff" d="M197.3 202.7c-1.1 0-2.1-.4-2.8-1.2-1.6-1.6-1.6-4.1 0-5.7.8-.8 1.8-1.2 2.8-1.2s2.1.4 2.8 1.2 1.2 1.8 1.2 2.8-.4 2.1-1.2 2.8-1.7 1.3-2.8 1.3z"/><path fill="#B2ADA1" d="M197.3 195.7c.8 0 1.6.3 2.1.9s.9 1.3.9 2.1-.3 1.6-.9 2.1-1.3.9-2.1.9-1.6-.3-2.1-.9c-.6-.6-.9-1.3-.9-2.1s.3-1.6.9-2.1c.6-.6 1.3-.9 2.1-.9m0-2c-1.3 0-2.6.5-3.5 1.5-2 2-2 5.1 0 7.1 1 1 2.3 1.5 3.5 1.5 1.3 0 2.6-.5 3.5-1.5 2-2 2-5.1 0-7.1-.9-1-2.2-1.5-3.5-1.5z"/><path fill="#fff" d="M16.9 98.5c-.3 0-.7 0-1-.1-2.1-.6-3.4-2.8-2.8-4.9.5-1.7 2.1-3 3.9-3 .3 0 .7 0 1 .1 2.1.6 3.4 2.8 2.8 4.9-.5 1.8-2.1 3-3.9 3z"/><path fill="#B2ADA1" d="M16.9 91.5c.3 0 .5 0 .8.1 1.6.4 2.5 2.1 2.1 3.7-.4 1.3-1.5 2.2-2.9 2.2-.3 0-.5 0-.8-.1-1.6-.4-2.5-2.1-2.1-3.7.4-1.3 1.6-2.2 2.9-2.2m0-2c-2.2 0-4.2 1.5-4.8 3.7-.7 2.7.9 5.4 3.5 6.1.4.1.9.2 1.3.2 2.2 0 4.2-1.5 4.8-3.7.7-2.7-.9-5.4-3.5-6.1-.4-.1-.9-.2-1.3-.2z"/><path fill="#fff" d="M225.2 154.3c-.3 0-.7 0-1-.1-2.1-.6-3.4-2.8-2.8-4.9.5-1.7 2.1-3 3.9-3 .3 0 .7 0 1 .1 1 .3 1.9.9 2.4 1.9.5.9.7 2 .4 3-.5 1.8-2.1 3-3.9 3z"/><path fill="#B2ADA1" d="M225.2 147.3c.3 0 .5 0 .8.1 1.6.4 2.5 2.1 2.1 3.7-.4 1.3-1.5 2.2-2.9 2.2-.3 0-.5 0-.8-.1-1.6-.4-2.5-2.1-2.1-3.7.4-1.3 1.6-2.2 2.9-2.2m0-2c-2.2 0-4.2 1.5-4.8 3.7-.7 2.7.9 5.4 3.5 6.1.4.1.9.2 1.3.2 2.2 0 4.2-1.5 4.8-3.7.7-2.7-.9-5.4-3.5-6.1-.4-.1-.8-.2-1.3-.2z"/><path fill="#fff" d="M16.9 154.3c-1.8 0-3.4-1.2-3.9-3-.6-2.1.7-4.3 2.8-4.9.3-.1.7-.1 1-.1 1.8 0 3.4 1.2 3.9 3 .3 1 .1 2.1-.4 3-.5.9-1.4 1.6-2.4 1.9-.3.1-.6.1-1 .1z"/><path fill="#B2ADA1" d="M16.9 147.3c1.4 0 2.5.9 2.9 2.2.4 1.6-.5 3.2-2.1 3.7-.3.1-.5.1-.8.1-1.4 0-2.5-.9-2.9-2.2-.4-1.6.5-3.2 2.1-3.7.3 0 .6-.1.8-.1m0-2c-.4 0-.9.1-1.3.2-2.7.7-4.3 3.5-3.5 6.1.6 2.2 2.6 3.7 4.8 3.7.4 0 .9-.1 1.3-.2 2.7-.7 4.3-3.5 3.5-6.1-.5-2.2-2.6-3.7-4.8-3.7z"/><path fill="#fff" d="M225.2 98.5c-1.8 0-3.4-1.2-3.9-3-.6-2.1.7-4.3 2.8-4.9.3-.1.7-.1 1-.1 1.8 0 3.4 1.2 3.9 3 .3 1 .1 2.1-.4 3s-1.4 1.6-2.4 1.9c-.3.1-.6.1-1 .1z"/><path fill="#B2ADA1" d="M225.2 91.5c1.4 0 2.5.9 2.9 2.2.2.8.1 1.6-.3 2.3s-1 1.2-1.8 1.4c-.3.1-.5.1-.8.1-1.4 0-2.5-.9-2.9-2.2-.2-.8-.1-1.6.3-2.3s1-1.2 1.8-1.4c.3-.1.6-.1.8-.1m0-2c-.4 0-.9.1-1.3.2-2.7.7-4.3 3.5-3.5 6.1.6 2.2 2.6 3.7 4.8 3.7.4 0 .9-.1 1.3-.2 2.7-.7 4.3-3.5 3.5-6.1-.5-2.2-2.6-3.7-4.8-3.7z"/><path fill="#fff" d="M44.8 202.7c-1.1 0-2.1-.4-2.8-1.2-.8-.8-1.2-1.8-1.2-2.8s.4-2.1 1.2-2.8c.8-.8 1.8-1.2 2.8-1.2s2.1.4 2.8 1.2c.8.8 1.2 1.8 1.2 2.8s-.4 2.1-1.2 2.8c-.7.7-1.7 1.2-2.8 1.2z"/><path fill="#B2ADA1" d="M44.8 195.7c.8 0 1.6.3 2.1.9s.9 1.3.9 2.1-.3 1.6-.9 2.1-1.3.9-2.1.9-1.6-.3-2.1-.9-.9-1.3-.9-2.1.3-1.6.9-2.1 1.3-.9 2.1-.9m0-2c-1.3 0-2.6.5-3.5 1.5-2 2-2 5.1 0 7.1 1 1 2.3 1.5 3.5 1.5s2.6-.5 3.5-1.5c2-2 2-5.1 0-7.1-.9-1-2.2-1.5-3.5-1.5z"/><path fill="#fff" d="M197.3 50.2c-1.1 0-2.1-.4-2.8-1.2-1.6-1.6-1.6-4.1 0-5.7.8-.8 1.8-1.2 2.8-1.2s2.1.4 2.8 1.2c1.6 1.6 1.6 4.1 0 5.7-.7.8-1.7 1.2-2.8 1.2z"/><path fill="#B2ADA1" d="M197.3 43.2c.8 0 1.6.3 2.1.9 1.2 1.2 1.2 3.1 0 4.2-.6.6-1.3.9-2.1.9s-1.6-.3-2.1-.9c-1.2-1.2-1.2-3.1 0-4.2.6-.6 1.3-.9 2.1-.9m0-2c-1.3 0-2.6.5-3.5 1.5-2 2-2 5.1 0 7.1 1 1 2.3 1.5 3.5 1.5 1.3 0 2.6-.5 3.5-1.5 2-2 2-5.1 0-7.1-.9-1-2.2-1.5-3.5-1.5z"/><path fill="#fff" d="M121.1 18.6c-2.2 0-4-1.8-4-4s1.8-4 4-4 4 1.8 4 4-1.8 4-4 4z"/><path fill="#E12429" d="M121.1 11.6c1.7 0 3 1.3 3 3s-1.3 3-3 3-3-1.3-3-3 1.3-3 3-3m0-2c-2.8 0-5 2.2-5 5s2.2 5 5 5 5-2.2 5-5-2.3-5-5-5z"/><path fill="#fff" d="M121.1 234.2c-2.2 0-4-1.8-4-4s1.8-4 4-4 4 1.8 4 4-1.8 4-4 4z"/><path fill="#E12429" d="M121.1 227.2c1.7 0 3 1.3 3 3s-1.3 3-3 3-3-1.3-3-3 1.3-3 3-3m0-2c-2.8 0-5 2.2-5 5s2.2 5 5 5 5-2.2 5-5c0-2.7-2.3-5-5-5z"/><path fill="#fff" d="M67.2 33c-1.4 0-2.8-.8-3.5-2-1.1-1.9-.4-4.4 1.5-5.5.6-.4 1.3-.5 2-.5 1.4 0 2.8.8 3.5 2 1.1 1.9.4 4.4-1.5 5.5-.6.3-1.3.5-2 .5z"/><path fill="#E12429" d="M67.2 26c1.1 0 2.1.6 2.6 1.5.8 1.4.3 3.3-1.1 4.1-.5.3-1 .4-1.5.4-1.1 0-2.1-.6-2.6-1.5-.4-.7-.5-1.5-.3-2.3.2-.8.7-1.4 1.4-1.8.4-.2.9-.4 1.5-.4m0-2c-.8 0-1.7.2-2.5.7-2.4 1.4-3.2 4.4-1.8 6.8.9 1.6 2.6 2.5 4.3 2.5.8 0 1.7-.2 2.5-.7 2.4-1.4 3.2-4.4 1.8-6.8-.9-1.6-2.6-2.5-4.3-2.5z"/><path fill="#fff" d="M175 219.8c-1.4 0-2.8-.8-3.5-2-1.1-1.9-.4-4.4 1.5-5.5.6-.4 1.3-.5 2-.5 1.4 0 2.8.8 3.5 2 1.1 1.9.4 4.4-1.5 5.5-.6.3-1.3.5-2 .5z"/><path fill="#E12429" d="M175 212.8c1.1 0 2.1.6 2.6 1.5.4.7.5 1.5.3 2.3s-.7 1.4-1.4 1.8c-.5.3-1 .4-1.5.4-1.1 0-2.1-.6-2.6-1.5-.4-.7-.5-1.5-.3-2.3s.7-1.4 1.4-1.8c.5-.3 1-.4 1.5-.4m0-2c-.8 0-1.7.2-2.5.7-2.4 1.4-3.2 4.4-1.8 6.8.9 1.6 2.6 2.5 4.3 2.5.8 0 1.7-.2 2.5-.7 2.4-1.4 3.2-4.4 1.8-6.8-.9-1.6-2.6-2.5-4.3-2.5z"/><path fill="#fff" d="M27.7 72.5c-.7 0-1.4-.2-2-.5-.9-.5-1.6-1.4-1.9-2.4-.3-1-.1-2.1.4-3 .7-1.2 2-2 3.5-2 .7 0 1.4.2 2 .5.9.5 1.6 1.4 1.9 2.4.3 1 .1 2.1-.4 3-.8 1.2-2.1 2-3.5 2z"/><path fill="#E12429" d="M27.7 65.5c.5 0 1 .1 1.5.4.7.4 1.2 1 1.4 1.8s.1 1.6-.3 2.3c-.5.9-1.5 1.5-2.6 1.5-.5 0-1-.1-1.5-.4-1.4-.8-1.9-2.7-1.1-4.1.5-.9 1.5-1.5 2.6-1.5m0-2c-1.7 0-3.4.9-4.3 2.5-1.4 2.4-.6 5.4 1.8 6.8.8.5 1.6.7 2.5.7 1.7 0 3.4-.9 4.3-2.5 1.4-2.4.6-5.4-1.8-6.8-.8-.5-1.7-.7-2.5-.7z"/><path fill="#fff" d="M214.5 180.3c-.7 0-1.4-.2-2-.5-.9-.5-1.6-1.4-1.9-2.4s-.1-2.1.4-3c.7-1.2 2-2 3.5-2 .7 0 1.4.2 2 .5 1.9 1.1 2.6 3.6 1.5 5.5-.8 1.2-2.1 1.9-3.5 1.9z"/><path fill="#E12429" d="M214.5 173.3c.5 0 1 .1 1.5.4.7.4 1.2 1 1.4 1.8s.1 1.6-.3 2.3c-.5.9-1.5 1.5-2.6 1.5-.5 0-1-.1-1.5-.4-.7-.4-1.2-1-1.4-1.8s-.1-1.6.3-2.3c.5-.9 1.5-1.5 2.6-1.5m0-2c-1.7 0-3.4.9-4.3 2.5-1.4 2.4-.6 5.4 1.8 6.8.8.5 1.6.7 2.5.7 1.7 0 3.4-.9 4.3-2.5 1.4-2.4.6-5.4-1.8-6.8-.8-.5-1.7-.7-2.5-.7z"/><path fill="#fff" d="M13.2 126.4c-2.2 0-4-1.8-4-4s1.8-4 4-4 4 1.8 4 4-1.7 4-4 4z"/><path fill="#E12429" d="M13.2 119.4c1.7 0 3 1.3 3 3s-1.3 3-3 3-3-1.3-3-3 1.4-3 3-3m0-2c-2.8 0-5 2.2-5 5s2.2 5 5 5 5-2.2 5-5c0-2.7-2.2-5-5-5z"/><path fill="#fff" d="M228.9 126.4c-2.2 0-4-1.8-4-4s1.8-4 4-4 4 1.8 4 4-1.8 4-4 4z"/><path fill="#E12429" d="M228.9 119.4c1.7 0 3 1.3 3 3s-1.3 3-3 3-3-1.3-3-3 1.4-3 3-3m0-2c-2.8 0-5 2.2-5 5s2.2 5 5 5 5-2.2 5-5c0-2.7-2.2-5-5-5z"/><path fill="#fff" d="M27.7 180.3c-1.4 0-2.8-.8-3.5-2-1.1-1.9-.4-4.4 1.5-5.5.6-.4 1.3-.5 2-.5 1.4 0 2.8.8 3.5 2 .5.9.7 2 .4 3-.3 1-.9 1.9-1.9 2.4-.6.4-1.3.6-2 .6z"/><path fill="#E12429" d="M27.7 173.3c1.1 0 2.1.6 2.6 1.5.8 1.4.3 3.3-1.1 4.1-.5.3-1 .4-1.5.4-1.1 0-2.1-.6-2.6-1.5-.4-.7-.5-1.5-.3-2.3s.7-1.4 1.4-1.8c.5-.2 1-.4 1.5-.4m0-2c-.8 0-1.7.2-2.5.7-2.4 1.4-3.2 4.4-1.8 6.8.9 1.6 2.6 2.5 4.3 2.5.8 0 1.7-.2 2.5-.7 2.4-1.4 3.2-4.4 1.8-6.8-.9-1.6-2.6-2.5-4.3-2.5z"/><path fill="#fff" d="M214.5 72.5c-1.4 0-2.8-.8-3.5-2-1.1-1.9-.4-4.4 1.5-5.5.6-.4 1.3-.5 2-.5 1.4 0 2.8.8 3.5 2 .5.9.7 2 .4 3-.3 1-.9 1.9-1.9 2.4-.6.4-1.3.6-2 .6z"/><path fill="#E12429" d="M214.5 65.5c1.1 0 2.1.6 2.6 1.5.8 1.4.3 3.3-1.1 4.1-.5.3-1 .4-1.5.4-1.1 0-2.1-.6-2.6-1.5-.4-.7-.5-1.5-.3-2.3s.7-1.4 1.4-1.8c.4-.3.9-.4 1.5-.4m0-2c-.8 0-1.7.2-2.5.7-2.4 1.4-3.2 4.4-1.8 6.8.9 1.6 2.6 2.5 4.3 2.5.8 0 1.7-.2 2.5-.7 2.4-1.4 3.2-4.4 1.8-6.8-.9-1.6-2.6-2.5-4.3-2.5z"/><path fill="#fff" d="M67.2 219.8c-.7 0-1.4-.2-2-.5-1.9-1.1-2.6-3.6-1.5-5.5.7-1.2 2-2 3.5-2 .7 0 1.4.2 2 .5 1.9 1.1 2.6 3.6 1.5 5.5-.8 1.2-2.1 2-3.5 2z"/><path fill="#E12429" d="M67.2 212.8c.5 0 1 .1 1.5.4.7.4 1.2 1 1.4 1.8s.1 1.6-.3 2.3c-.5.9-1.5 1.5-2.6 1.5-.5 0-1-.1-1.5-.4-.7-.4-1.2-1-1.4-1.8s-.1-1.6.3-2.3c.5-.9 1.5-1.5 2.6-1.5m0-2c-1.7 0-3.4.9-4.3 2.5-1.4 2.4-.6 5.4 1.8 6.8.8.5 1.6.7 2.5.7 1.7 0 3.4-.9 4.3-2.5 1.4-2.4.6-5.4-1.8-6.8-.8-.5-1.7-.7-2.5-.7z"/><path fill="#fff" d="M175 33c-.7 0-1.4-.2-2-.5-1.9-1.1-2.6-3.6-1.5-5.5.7-1.2 2-2 3.5-2 .7 0 1.4.2 2 .5.9.5 1.6 1.4 1.9 2.4.3 1 .1 2.1-.4 3-.8 1.4-2.1 2.1-3.5 2.1z"/><path fill="#E12429" d="M175 26c.5 0 1 .1 1.5.4 1.4.8 1.9 2.7 1.1 4.1-.5.9-1.5 1.5-2.6 1.5-.5 0-1-.1-1.5-.4-.7-.4-1.2-1-1.4-1.8-.2-.8-.1-1.6.3-2.3.5-.9 1.5-1.5 2.6-1.5m0-2c-1.7 0-3.4.9-4.3 2.5-1.4 2.4-.6 5.4 1.8 6.8.8.5 1.6.7 2.5.7 1.7 0 3.4-.9 4.3-2.5 1.4-2.4.6-5.4-1.8-6.8-.8-.5-1.7-.7-2.5-.7z"/><path fill="#fff" d="M93.2 230.6c-.3 0-.7 0-1-.1-2.1-.6-3.4-2.8-2.8-4.9.5-1.7 2.1-3 3.9-3 .3 0 .7 0 1 .1 1 .3 1.9.9 2.4 1.9.5.9.7 2 .4 3-.5 1.8-2.1 3-3.9 3z"/><path fill="#B2ADA1" d="M93.2 223.6c.3 0 .5 0 .8.1.8.2 1.4.7 1.8 1.4s.5 1.5.3 2.3c-.4 1.3-1.5 2.2-2.9 2.2-.3 0-.5 0-.8-.1-.8-.2-1.4-.7-1.8-1.4s-.5-1.5-.3-2.3c.3-1.3 1.5-2.2 2.9-2.2m0-2c-2.2 0-4.2 1.5-4.8 3.7-.7 2.7.9 5.4 3.5 6.1.4.1.9.2 1.3.2 2.2 0 4.2-1.5 4.8-3.7.7-2.7-.9-5.4-3.5-6.1-.5-.2-.9-.2-1.3-.2z"/><path fill="#fff" d="M149 22.3c-.3 0-.7 0-1-.1-1-.3-1.9-.9-2.4-1.9s-.7-2-.4-3c.5-1.7 2.1-3 3.9-3 .3 0 .7 0 1 .1 2.1.6 3.4 2.8 2.8 4.9-.5 1.7-2.1 3-3.9 3z"/><path fill="#B2ADA1" d="M149 15.3c.3 0 .5 0 .8.1 1.6.4 2.5 2.1 2.1 3.7-.4 1.3-1.5 2.2-2.9 2.2-.3 0-.5 0-.8-.1-1.6-.4-2.5-2.1-2.1-3.7.3-1.3 1.5-2.2 2.9-2.2m0-2c-2.2 0-4.2 1.5-4.8 3.7-.7 2.7.9 5.4 3.5 6.1.4.1.9.2 1.3.2 2.2 0 4.2-1.5 4.8-3.7.7-2.7-.9-5.4-3.5-6.1-.5-.2-.9-.2-1.3-.2zm-28.2 6.3h.5v205.7h-.5zm-26.135 3.383l53.235 198.686-.483.129-53.235-198.686zm-24.833 10.229l102.85 178.136-.433.25-102.85-178.136zm-21.344 16.304l145.45 145.45-.354.354-145.45-145.45zm-16.396 21.27l178.136 102.85-.25.433-178.136-102.85zm-10.329 24.791l198.686 53.235-.129.483-198.686-53.235zm-3.563 26.623h205.7v.5h-205.7zm202.093-26.785l.13.483-198.624 53.482-.13-.483zm-10.28-24.599l.25.433-178.198 102.747-.25-.433zm-16.429-21.3l.354.354-145.45 145.45-.354-.354zm-21.305-16.266l.433.25-102.912 178.095-.433-.25zm-24.982-10.247l.483.129-53.009 198.747-.483-.129zm-14.797 188.897l-.1-1 1-.1.1 1-1 .1zm-.5-4l-.1-1 1-.1.1 1-1 .1zm-.6-3.9l-.1-1 1-.1.1 1-1 .1zm-.5-4l-.1-1 1-.1.1 1-1 .1zm-.5-4l-.1-1 1-.1.1 1-1 .1zm-.5-3.9l-.1-1 1-.1.1 1-1 .1zm-.6-4l-.1-1 1-.1.1 1-1 .1zm-.5-4l-.1-1 1-.1.1 1-1 .1zm-.5-3.9l-.1-1 1-.1.1 1-1 .1zm-.6-4l-.1-1 1-.1.1 1-1 .1zm-.5-4l-.1-1 1-.1.1 1-1 .1zm-.5-3.9l-.1-1 1-.1.1 1-1 .1zm-.5-4l-.1-1 1-.1.1 1-1 .1zm-.6-4l-.1-1 1-.1.1 1-1 .1zm-.5-3.9l-.1-1 1-.1.1 1-1 .1zm-.5-4l-.1-1 1-.1.1 1-1 .1zm-.6-4l-.1-1 1-.1.1 1-1 .1zm-.5-3.9l-.1-1 1-.1.1 1-1 .1zm-.5-4l-.1-1 1-.1.1 1-1 .1zm-.5-3.9l-.1-1 1-.1.1 1-1 .1zm-.6-4l-.1-1 1-.1.1 1-1 .1zm-.5-4l-.1-1 1-.1.1 1-1 .1zm-.5-3.9l-.1-1 1-.1.1 1-1 .1zm-.6-4l-.1-1 1-.1.1 1-1 .1zm-.5-4l-.1-1 1-.1.1 1-1 .1zm-.5-3.9l-.1-1 1-.1.1 1-1 .1zm-.5-4l-.1-1 1-.1.1 1-1 .1zm-.6-4l-.1-1 1-.1.1 1-1 .1zm-.5-3.9l-.1-1 1-.1.1 1-1 .1zm-.5-4l-.1-1 1-.1.1 1-1 .1zm-.6-4l-.1-1 1-.1.1 1-1 .1zm-.5-3.9l-.1-1 1-.1.1 1-1 .1zm-.5-4l-.1-1 1-.1.1 1-1 .1zm-.5-4l-.1-1 1-.1.1 1-1 .1zm-.6-3.9l-.1-1 1-.1.1 1-1 .1zm-.5-4l-.1-1 1-.1.1 1-1 .1zm-.5-4l-.1-1 1-.1.1 1-1 .1zm-.6-3.9l-.1-1 1-.1.1 1-1 .1zm-.5-4l-.1-1 1-.1.1 1-1 .1zm-.5-3.9l-.1-1 1-.1.1 1-1 .1zm-.5-4l-.1-1 1-.1.1 1-1 .1zm-.6-4l-.1-1 1-.1.1 1-1 .1zm-.5-3.9l-.1-1 1-.1.1 1-1 .1zm-.5-4l-.1-1 1-.1.1 1-1 .1zm-.6-4l-.1-1 1-.1.1 1-1 .1zm-.5-3.9l-.1-.4 1-.1.1.4-1 .1zm46.6 172.4l-.4-.9.9-.4.4.9-.9.4zm-1.6-3.7l-.4-.9.9-.4.4.9-.9.4zm-1.5-3.7l-.4-.9.9-.4.4.9-.9.4zm-1.5-3.7l-.4-.9.9-.4.4.9-.9.4zm-1.6-3.7l-.4-.9.9-.4.4.9-.9.4zm-1.5-3.7l-.4-.9.9-.4.4.9-.9.4zm-1.6-3.7l-.4-.9.9-.4.4.9-.9.4zm-1.5-3.7l-.4-.9.9-.4.4.9-.9.4zm-1.5-3.7l-.4-.9.9-.4.4.9-.9.4zm-1.6-3.7l-.4-.9.9-.4.4.9-.9.4zm-1.5-3.7l-.4-.9.9-.4.4.9-.9.4zm-1.5-3.6l-.4-.9.9-.4.4.9-.9.4zm-1.6-3.7l-.4-.9.9-.4.4.9-.9.4zm-1.5-3.7l-.4-.9.9-.4.4.9-.9.4zm-1.5-3.7l-.4-.9.9-.4.4.9-.9.4zm-1.6-3.7l-.4-.9.9-.4.4.9-.9.4zm-1.5-3.7l-.4-.9.9-.4.4.9-.9.4zm-1.6-3.7l-.4-.9.9-.4.4.9-.9.4zm-1.5-3.7l-.4-.9.9-.4.4.9-.9.4zm-1.5-3.7l-.4-.9.9-.4.4.9-.9.4zm-1.6-3.7l-.4-.9.9-.4.4.9-.9.4zm-1.5-3.7l-.4-.9.9-.4.4.9-.9.4zm-1.5-3.7l-.4-.9.9-.4.4.9-.9.4zm-1.6-3.7l-.4-.9.9-.4.4.9-.9.4zm-1.5-3.7l-.4-.9.9-.4.4.9-.9.4zm-1.6-3.6l-.4-.9.9-.4.4.9-.9.4zm-1.5-3.7l-.4-.9.9-.4.4.9-.9.4zm-1.5-3.7l-.4-.9.9-.4.4.9-.9.4zm-1.6-3.7l-.4-.9.9-.4.4.9-.9.4zm-1.5-3.7l-.4-.9.9-.4.4.9-.9.4zm-1.5-3.7l-.4-.9.9-.4.4.9-.9.4zm-1.6-3.7l-.4-.9.9-.4.4.9-.9.4zm-1.5-3.7l-.4-.9.9-.4.4.9-.9.4zm-1.5-3.7l-.4-.9.9-.4.4.9-.9.4zm-1.6-3.7l-.4-.9.9-.4.4.9-.9.4zm-1.5-3.7l-.4-.9.9-.4.4.9-.9.4zm-1.6-3.7l-.3-.9.9-.4.4.9-1 .4zm-1.5-3.7l-.4-.9.9-.4.4.9-.9.4zm-1.5-3.7l-.4-.9.9-.4.4.9-.9.4zm-1.6-3.6l-.4-.9.9-.4.4.9-.9.4zm-1.5-3.7l-.4-.9.9-.4.4.9-.9.4zm-1.5-3.7l-.4-.9.9-.4.4.9-.9.4zm-1.6-3.7l-.4-.9.9-.4.4.9-.9.4zm-1.5-3.7l-.4-.9.9-.4.4.9-.9.4zm-1.6-3.7l-.4-.9.9-.4.4.9-.9.4zm-1.5-3.7l-.1-.4.9-.4.1.4-.9.4zm89.6 154.5l-.6-.8.8-.6.6.8-.8.6zm-2.4-3.2l-.6-.8.8-.6.6.8-.8.6zm-2.5-3.2l-.6-.8.8-.6.6.8-.8.6zm-2.4-3.1l-.6-.8.8-.6.6.8-.8.6zm-2.5-3.2l-.6-.8.8-.6.6.8-.8.6zm-2.4-3.2l-.6-.8.8-.6.6.8-.8.6zm-2.4-3.1l-.6-.8.8-.6.6.8-.8.6zm-2.5-3.2l-.6-.8.8-.6.6.8-.8.6zm-2.4-3.2l-.6-.8.8-.6.6.8-.8.6zm-2.5-3.1l-.6-.8.8-.6.6.8-.8.6zm-2.4-3.2l-.6-.8.8-.6.6.8-.8.6zm-2.4-3.2l-.6-.8.8-.6.6.8-.8.6zm-2.5-3.1l-.6-.8.8-.6.6.8-.8.6zm-2.4-3.2l-.6-.8.8-.6.6.8-.8.6zm-2.5-3.2l-.6-.8.8-.6.6.8-.8.6zm-2.4-3.2l-.6-.8.8-.6.6.8-.8.6zm-2.4-3.1l-.6-.8.8-.6.6.8-.8.6zm-2.5-3.2l-.6-.8.8-.6.6.8-.8.6zm-2.4-3.2l-.6-.8.8-.6.6.8-.8.6zm-2.5-3.1l-.6-.8.8-.6.6.8-.8.6zm-2.4-3.2l-.6-.8.8-.6.6.8-.8.6zm-2.4-3.2l-.6-.8.8-.6.6.8-.8.6zm-2.5-3.1l-.6-.8.8-.6.6.8-.8.6zm-2.4-3.2l-.6-.8.8-.6.6.8-.8.6zm-2.5-3.2l-.6-.8.8-.6.6.8-.8.6zm-2.4-3.1l-.6-.8.8-.6.6.8-.8.6zm-2.4-3.2l-.6-.8.8-.6.6.8-.8.6zm-2.5-3.2l-.6-.8.8-.6.6.8-.8.6zm-2.4-3.2l-.6-.8.8-.6.6.8-.8.6zm-2.5-3.1l-.6-.8.8-.6.6.8-.8.6zm-2.4-3.2l-.6-.8.8-.6.6.8-.8.6zm-2.4-3.2l-.6-.8.8-.6.6.8-.8.6zm-2.5-3.1l-.6-.8.8-.6.6.8-.8.6zm-2.4-3.2l-.6-.8.8-.6.6.8-.8.6zm-2.5-3.2l-.6-.8.8-.6.6.8-.8.6zm-2.4-3.1l-.6-.8.8-.6.6.8-.8.6zm-2.4-3.2l-.6-.8.8-.6.6.8-.8.6zm-2.5-3.2l-.6-.8.8-.6.6.8-.8.6zm-2.4-3.2l-.6-.7.8-.6.6.8-.8.5zm-2.5-3.1l-.6-.8.8-.6.6.8-.8.6zm-2.4-3.2l-.6-.8.8-.6.6.8-.8.6zm-2.4-3.2l-.7-.8.8-.6.6.8-.7.6zm-2.5-3.1l-.6-.8.8-.6.6.8-.8.6zm-2.4-3.2l-.6-.8.8-.6.6.8-.8.6zm-2.5-3.2l-.6-.8.8-.6.6.8-.8.6zm-2.4-3.1l-.2-.3.8-.6.2.3-.8.6zm126.5 126l-.8-.6.6-.8.8.6-.6.8zm-3.2-2.4l-.8-.6.6-.8.8.6-.6.8zm-3.1-2.5l-.8-.6.6-.8.8.6-.6.8zm-3.2-2.4l-.8-.6.6-.8.8.6-.6.8zm-3.2-2.4l-.8-.6.6-.8.8.6-.6.8zm-3.2-2.4l-.8-.6.6-.8.8.6-.6.8zm-3.1-2.5l-.8-.6.6-.8.8.6-.6.8zm-3.2-2.4l-.8-.6.6-.8.8.6-.6.8zm-3.2-2.4l-.8-.6.6-.8.8.6-.6.8zm-3.2-2.5l-.8-.6.6-.8.8.6-.6.8zm-3.2-2.4l-.8-.6.6-.8.8.6-.6.8zm-3.1-2.4l-.8-.6.6-.8.8.6-.6.8zm-3.2-2.5l-.8-.6.6-.8.8.6-.6.8zm-3.2-2.4l-.8-.6.6-.8.8.6-.6.8zm-3.2-2.4l-.8-.6.6-.8.8.6-.6.8zm-3.1-2.4l-.8-.6.6-.8.8.6-.6.8zm-3.2-2.5l-.8-.6.6-.8.8.6-.6.8zm-3.2-2.4l-.8-.6.6-.8.8.6-.6.8zm-3.2-2.4l-.8-.6.6-.8.8.6-.6.8zm-3.2-2.5l-.8-.6.6-.8.8.6-.6.8zm-3.1-2.4l-.8-.6.6-.8.8.6-.6.8zm-3.2-2.4l-.8-.6.6-.8.8.6-.6.8zm-3.2-2.5l-.8-.6.6-.8.8.6-.6.8zm-3.2-2.4l-.8-.6.6-.8.8.6-.6.8zm-3.1-2.4l-.8-.6.6-.8.8.6-.6.8zm-3.2-2.4l-.8-.6.6-.8.8.6-.6.8zm-3.2-2.5l-.8-.6.6-.8.8.6-.6.8zm-3.2-2.4l-.8-.6.6-.8.8.6-.6.8zm-3.1-2.4l-.8-.6.6-.8.8.6-.6.8zm-3.2-2.5l-.8-.6.6-.8.8.6-.6.8zm-3.2-2.4l-.8-.6.6-.8.8.6-.6.8zm-3.2-2.4l-.8-.6.6-.8.8.6-.6.8zm-3.2-2.5l-.8-.6.6-.8.8.6-.6.8zm-3.1-2.4l-.8-.6.6-.8.8.6-.6.8zm-3.2-2.4l-.8-.6.6-.8.8.6-.6.8zm-3.2-2.4l-.8-.6.6-.8.8.6-.6.8zm-3.2-2.5l-.8-.6.6-.8.8.6-.6.8zm-3.1-2.4l-.8-.6.6-.8.8.6-.6.8zm-3.2-2.4l-.8-.6.6-.8.8.6-.6.8zm-3.2-2.5l-.8-.6.6-.8.8.6-.6.8zm-3.2-2.4l-.8-.6.6-.8.8.6-.6.8zm-3.2-2.4l-.8-.6.6-.8.8.6-.6.8zm-3.1-2.5l-.8-.6.6-.8.8.6-.6.8zm-3.2-2.4l-.8-.6.6-.8.8.6-.6.8zm-3.2-2.4l-.8-.6.6-.8.8.6-.6.8zm-3.2-2.4l-.3-.3.6-.8.3.2-.6.9zm154.9 89l-.9-.4.4-.9.9.4-.4.9zm-3.7-1.6l-.9-.4.4-.9.9.4-.4.9zm-3.7-1.5l-.9-.4.4-.9.9.4-.4.9zm-3.7-1.5l-.9-.4.4-.9.9.4-.4.9zm-3.7-1.5l-.9-.4.4-.9.9.4-.4.9zm-3.7-1.6l-.9-.4.4-.9.9.4-.4.9zm-3.7-1.5l-.9-.4.4-.9.9.4-.4.9zm-3.7-1.5l-.9-.4.4-.9.9.4-.4.9zm-3.7-1.5l-.9-.4.4-.9.9.4-.4.9zm-3.7-1.6l-.9-.4.4-.9.9.4-.4.9zm-3.7-1.5l-.9-.4.4-.9.9.4-.4.9zm-3.7-1.5l-.9-.4.4-.9.9.4-.4.9zm-3.7-1.5l-.9-.4.4-.9.9.4-.4.9zm-3.7-1.6l-.9-.4.4-.9.9.4-.4.9zm-3.7-1.5l-.9-.4.4-.9.9.4-.4.9zm-3.7-1.5l-.9-.4.4-.9.9.4-.4.9zm-3.7-1.5l-.9-.4.4-.9.9.4-.4.9zm-3.7-1.6l-.9-.4.4-.9.9.4-.4.9zm-3.7-1.5l-.9-.4.4-.9.9.4-.4.9zm-3.7-1.5l-.9-.4.4-.9.9.4-.4.9zm-3.7-1.5l-.9-.4.4-.9.9.4-.4.9zm-3.7-1.6l-.9-.4.4-.9.9.4-.4.9zm-3.7-1.5l-.9-.4.4-.9.9.4-.4.9zm-3.7-1.5l-.9-.4.4-.9.9.4-.4.9zm-3.7-1.5l-.9-.4.4-.9.9.4-.4.9zm-3.7-1.6l-.9-.4.4-.9.9.4-.4.9zm-3.7-1.5l-.9-.4.4-.9.9.4-.4.9zm-3.7-1.5l-.9-.4.4-.9.9.4-.4.9zm-3.7-1.5l-.9-.4.4-.9.9.4-.4.9zm-3.7-1.6l-.9-.4.4-.9.9.4-.4.9zm-3.7-1.5l-.9-.4.4-.9.9.4-.4.9zm-3.7-1.5l-.9-.4.4-.9.9.4-.4.9zm-3.7-1.5l-.9-.4.4-.9.9.4-.4.9zm-3.7-1.6l-.9-.4.4-.9.9.4-.4.9zm-3.7-1.5l-.9-.4.4-.9.9.4-.4.9zm-3.7-1.5l-.9-.4.4-.9.9.4-.4.9zm-3.7-1.5l-.9-.4.4-.9.9.4-.4.9zm-3.7-1.6l-.9-.4.4-.9.9.4-.4.9zm-3.7-1.5l-.9-.4.4-.9.9.4-.4.9zm-3.7-1.5l-.9-.4.4-.9.9.4-.4.9zm-3.6-1.5l-.9-.4.4-.9.9.4-.4.9zm-3.7-1.6l-.9-.4.4-.9.9.4-.4.9zm-3.7-1.5l-1-.4.4-.9.9.4-.3.9zm-3.7-1.5l-.9-.4.4-.9.9.4-.4.9zm-3.7-1.5l-.9-.4.4-.9.9.4-.4.9zm-3.7-1.6l-.4-.1.4-.9.4.1-.4.9zm172.6 45.9l-1-.1.1-1 1 .1-.1 1zm-4-.5l-1-.1.1-1 1 .1-.1 1zm-4-.5l-1-.1.1-1 1 .1-.1 1zm-3.9-.5l-1-.1.1-1 1 .1-.1 1zm-4-.5l-1-.1.1-1 1 .1-.1 1zm-4-.5l-1-.1.1-1 1 .1-.1 1zm-3.9-.6l-1-.1.1-1 1 .1-.1 1zm-4-.5l-1-.1.1-1 1 .1-.1 1zm-4-.5l-1-.1.1-1 1 .1-.1 1zm-3.9-.5l-1-.1.1-1 1 .1-.1 1zm-4-.5l-1-.1.1-1 1 .1-.1 1zm-4-.5l-1-.1.1-1 1 .1-.1 1zm-3.9-.5l-1-.1.1-1 1 .1-.1 1zm-4-.6l-1-.1.1-1 1 .1-.1 1zm-4-.5l-1-.1.1-1 1 .1-.1 1zm-3.9-.5l-1-.1.1-1 1 .1-.1 1zm-4-.5l-1-.1.1-1 1 .1-.1 1zm-4-.5l-1-.1.1-1 1 .1-.1 1zm-3.9-.5l-1-.1.1-1 1 .1-.1 1zm-4-.6l-1-.1.1-1 1 .1-.1 1zm-4-.5l-1-.1.1-1 1 .1-.1 1zm-3.9-.5l-1-.1.1-1 1 .1-.1 1zm-4-.5l-1-.1.1-1 1 .1-.1 1zm-4-.5l-1-.1.1-1 1 .1-.1 1zm-3.9-.5l-1-.1.1-1 1 .1-.1 1zm-4-.6l-1-.1.1-1 1 .1-.1 1zm-4-.5l-1-.1.1-1 1 .1-.1 1zm-3.9-.5l-1-.1.1-1 1 .1-.1 1zm-4-.5l-1-.1.1-1 1 .1-.1 1zm-4-.5l-1-.1.1-1 1 .1-.1 1zm-3.9-.5l-1-.1.1-1 1 .1-.1 1zm-4-.5l-1-.1.1-1 1 .1-.1 1zm-4-.6l-1-.1.1-1 1 .1-.1 1zm-3.9-.5l-1-.1.1-1 1 .1-.1 1zm-4-.5l-1-.1.1-1 1 .1-.1 1zm-4-.5l-1-.1.1-1 1 .1-.1 1zm-3.9-.5l-1-.1.1-1 1 .1-.1 1zm-4-.5l-1-.1.1-1 1 .1-.1 1zm-4-.6l-1-.1.1-1 1 .1-.1 1zm-3.9-.5l-1-.1.1-1 1 .1-.1 1zm-4-.5l-1-.1.1-1 1 .1-.1 1zm-4-.5l-1-.1.1-1 1 .1-.1 1zm-3.9-.5l-1-.1.1-1 1 .1-.1 1zm-4-.5l-1-.1.1-1 1 .1-.1 1zm-4-.5l-1-.1.1-1 1 .1-.1 1zm-3.9-.6h-.4l.1-1h.4l-.1 1zm-.3 23.5l-.1-1 .4-.1.1 1-.4.1zm3.4-.4l-.1-1 1-.1.1 1-1 .1zm4-.5l-.1-1 1-.1.1 1-1 .1zm3.9-.6l-.1-1 1-.1.1 1-1 .1zm4-.5l-.1-1 1-.1.1 1-1 .1zm4-.5l-.1-1 1-.1.1 1-1 .1zm3.9-.6l-.1-1 1-.1.1 1-1 .1zm4-.5l-.1-1 1-.1.1 1-1 .1zm4-.5l-.1-1 1-.1.1 1-1 .1zm3.9-.5l-.1-1 1-.1.1 1-1 .1zm4-.6l-.1-1 1-.1.1 1-1 .1zm3.9-.5l-.1-1 1-.1.1 1-1 .1zm4-.5l-.1-1 1-.1.1 1-1 .1zm4-.6l-.1-1 1-.1.1 1-1 .1zm3.9-.5l-.1-1 1-.1.1 1-1 .1zm4-.5l-.1-1 1-.1.1 1-1 .1zm4-.5l-.1-1 1-.1.1 1-1 .1zm3.9-.6l-.1-1 1-.1.1 1-1 .1zm4-.5l-.1-1 1-.1.1 1-1 .1zm4-.5l-.1-1 1-.1.1 1-1 .1zm3.9-.6l-.1-1 1-.1.1 1-1 .1zm4-.5l-.1-1 1-.1.1 1-1 .1zm4-.5l-.1-1 1-.1.1 1-1 .1zm3.9-.5l-.1-1 1-.1.1 1-1 .1zm4-.6l-.1-1 1-.1.1 1-1 .1zm4-.5l-.1-1 1-.1.1 1-1 .1zm3.9-.5l-.1-1 1-.1.1 1-1 .1zm4-.6l-.1-1 1-.1.1 1-1 .1zm4-.5l-.1-1 1-.1.1 1-1 .1zm3.9-.5l-.1-1 1-.1.1 1-1 .1zm4-.5l-.1-1 1-.1.1 1-1 .1zm3.9-.6l-.1-1 1-.1.1 1-1 .1zm4-.5l-.1-1 1-.1.1 1-1 .1zm4-.5l-.1-1 1-.1.1 1-1 .1zm3.9-.6l-.1-1 1-.1.1 1-1 .1zm4-.5l-.1-1 1-.1.1 1-1 .1zm4-.5l-.1-1 1-.1.1 1-1 .1zm3.9-.5l-.1-1 1-.1.1 1-1 .1zm4-.6l-.1-1 1-.1.1 1-1 .1zm4-.5l-.1-1 1-.1.1 1-1 .1zm3.9-.5l-.1-1 1-.1.1 1-1 .1zm4-.6l-.1-1 1-.1.1 1-1 .1zm4-.5l-.1-1 1-.1.1 1-1 .1zm3.9-.5l-.1-1 1-.1.1 1-1 .1zm4-.5l-.1-1 1-.1.1 1-1 .1zm4-.6l-.1-1 1-.1.1 1-1 .1zm-171.6 46.4l-.4-.9.4-.1.4.9-.4.1zm3.1-1.3l-.4-.9.9-.4.4.9-.9.4zm3.7-1.5l-.4-.9.9-.4.4.9-.9.4zm3.7-1.5l-.4-.9.9-.4.4.9-.9.4zm3.7-1.6l-.4-.9.9-.4.4.9-.9.4zm3.7-1.5l-.4-.9.9-.4.4.9-.9.4zm3.7-1.6l-.4-.9.9-.4.4.9-.9.4zm3.7-1.5l-.4-.9.9-.4.4.9-.9.4zm3.7-1.5l-.4-.9.9-.4.4.9-.9.4zm3.7-1.6l-.4-.9.9-.4.4.9-.9.4zm3.7-1.5l-.4-.9.9-.4.4.9-.9.4zm3.7-1.5l-.4-.9.9-.4.4.9-.9.4zm3.6-1.6l-.4-.9.9-.4.4.9-.9.4zm3.7-1.5l-.4-.9.9-.4.4.9-.9.4zm3.7-1.5l-.4-.9.9-.4.4.9-.9.4zm3.7-1.6l-.4-.9.9-.4.4.9-.9.4zm3.7-1.5l-.4-.9.9-.4.4.9-.9.4zm3.7-1.6l-.4-.9.9-.4.4.9-.9.4zm3.7-1.5l-.4-.9.9-.4.4.9-.9.4zm3.7-1.5l-.4-.9.9-.4.4.9-.9.4zm3.7-1.6l-.4-.9.9-.4.4.9-.9.4zm3.7-1.5l-.4-.9.9-.4.4.9-.9.4zm3.7-1.5l-.4-.9.9-.4.4.9-.9.4zm3.7-1.6l-.4-.9.9-.4.4.9-.9.4zm3.7-1.5l-.4-.9.9-.4.4.9-.9.4zm3.7-1.6l-.4-.9.9-.4.4.9-.9.4zm3.7-1.5l-.4-.9.9-.4.4.9-.9.4zm3.6-1.5l-.4-.9.9-.4.4.9-.9.4zm3.7-1.6l-.4-.9.9-.4.4.9-.9.4zm3.7-1.5l-.4-.9.9-.4.4.9-.9.4zm3.7-1.5l-.4-.9.9-.4.4.9-.9.4zm3.7-1.6l-.4-.9.9-.4.4.9-.9.4zm3.7-1.5l-.4-.9.9-.4.4.9-.9.4zm3.7-1.5l-.4-.9.9-.4.4.9-.9.4zm3.7-1.6l-.4-.9.9-.4.4.9-.9.4zm3.7-1.5l-.4-.9.9-.4.4.9-.9.4zm3.7-1.6l-.4-.9.9-.4.4.9-.9.4zm3.7-1.5l-.4-.9.9-.4.4.9-.9.4zm3.7-1.5l-.4-.9.9-.4.4.9-.9.4zm3.7-1.6l-.4-.9.9-.4.4.9-.9.4zm3.7-1.5l-.4-.9.9-.4.4.9-.9.4zm3.6-1.5l-.4-.9.9-.4.4.9-.9.4zm3.7-1.6l-.4-.9.9-.4.4.9-.9.4zm3.7-1.5l-.4-.9.9-.4.4.9-.9.4zm3.7-1.6l-.4-.9.9-.4.4.9-.9.4zm3.7-1.5l-.4-.9.9-.4.4.9-.9.4zm-153.7 89.2l-.6-.8.3-.2.6.8-.3.2zm2.7-2l-.6-.8.8-.6.6.8-.8.6zm3.2-2.5l-.6-.8.8-.6.6.8-.8.6zm3.1-2.4l-.6-.8.8-.6.6.8-.8.6zm3.2-2.4l-.6-.8.8-.6.6.8-.8.6zm3.2-2.5l-.6-.8.8-.6.6.8-.8.6zm3.1-2.4l-.6-.8.8-.6.6.8-.8.6zm3.2-2.5l-.6-.8.8-.6.6.8-.8.6zm3.2-2.4l-.6-.8.8-.6.6.8-.8.6zm3.2-2.4l-.6-.8.8-.6.6.8-.8.6zm3.1-2.5l-.6-.8.8-.6.6.8-.8.6zm3.2-2.4l-.6-.8.8-.6.6.8-.8.6zm3.2-2.5l-.6-.8.8-.6.6.8-.8.6zm3.1-2.4l-.6-.8.8-.6.6.8-.8.6zm3.2-2.4l-.6-.8.8-.6.6.8-.8.6zm3.2-2.5l-.6-.8.8-.6.6.8-.8.6zm3.1-2.4l-.6-.8.8-.6.6.8-.8.6zm3.2-2.5l-.6-.8.8-.6.6.8-.8.6zm3.2-2.4l-.6-.8.8-.6.6.8-.8.6zm3.2-2.5l-.6-.8.8-.6.6.8-.8.6zm3.1-2.4l-.6-.8.8-.6.6.8-.8.6zm3.2-2.4l-.6-.8.8-.6.6.8-.8.6zm3.2-2.5l-.6-.8.8-.6.6.8-.8.6zm3.1-2.4l-.6-.8.8-.6.6.8-.8.6zm3.2-2.5l-.6-.8.8-.6.6.8-.8.6zm3.2-2.4l-.6-.8.8-.6.6.8-.8.6zm3.1-2.4l-.6-.8.8-.6.6.8-.8.6zm3.2-2.5l-.6-.8.8-.6.6.8-.8.6zm3.2-2.4l-.6-.8.8-.6.6.8-.8.6zm3.1-2.5l-.6-.8.8-.6.6.8-.8.6zm3.2-2.4l-.6-.8.8-.6.6.8-.8.6zm3.2-2.4l-.6-.8.8-.6.6.8-.8.6zm3.2-2.5l-.6-.8.8-.6.6.8-.8.6zm3.1-2.4l-.6-.8.8-.6.6.8-.8.6zm3.2-2.5l-.6-.8.8-.6.6.8-.8.6zm3.2-2.4l-.6-.8.8-.6.6.8-.8.6zm3.1-2.4l-.6-.8.8-.6.6.8-.8.6zm3.2-2.5l-.6-.8.8-.6.6.8-.8.6zm3.2-2.4l-.6-.8.8-.6.6.8-.8.6zm3.1-2.5l-.6-.8.8-.6.6.8-.8.6zm3.2-2.4l-.6-.8.8-.6.6.8-.8.6zm3.2-2.4l-.6-.8.8-.6.6.8-.8.6zm3.1-2.5l-.6-.8.8-.6.6.8-.8.6zm3.2-2.4l-.6-.8.8-.6.6.8-.8.6zm3.2-2.5l-.6-.8.8-.6.6.8-.8.6zm3.2-2.4l-.6-.8.8-.6.6.8-.8.6zm-125.4 126l-.8-.6.2-.3.8.6-.2.3zm2-2.7l-.8-.6.6-.8.8.6-.6.8zm2.5-3.2l-.8-.6.6-.8.8.6-.6.8zm2.4-3.2l-.8-.6.6-.8.8.6-.6.8zm2.4-3.2l-.8-.6.6-.8.8.6-.6.8zm2.5-3.1l-.8-.6.6-.8.8.6-.6.8zm2.4-3.2l-.8-.6.6-.8.8.6-.6.8zm2.4-3.2l-.8-.6.6-.8.8.6-.6.8zm2.5-3.2l-.8-.6.6-.8.8.6-.6.8zm2.4-3.1l-.8-.6.6-.8.8.6-.6.8zm2.4-3.2l-.8-.6.6-.8.8.6-.6.8zm2.4-3.2l-.8-.6.6-.8.8.6-.6.8zm2.5-3.2l-.8-.6.6-.8.8.6-.6.8zm2.4-3.2l-.8-.6.6-.8.8.6-.6.8zm2.4-3.1l-.8-.6.6-.8.8.6-.6.8zm2.5-3.2l-.8-.6.6-.8.8.6-.6.8zm2.4-3.2l-.8-.6.6-.8.8.6-.6.8zm2.4-3.2l-.8-.6.6-.8.8.6-.6.8zm2.5-3.1l-.8-.6.6-.8.8.6-.6.8zm2.4-3.2l-.8-.6.6-.8.8.6-.6.8zm2.4-3.2l-.8-.6.6-.8.8.6-.6.8zm2.4-3.2l-.8-.6.6-.8.8.6-.6.8zm2.5-3.1l-.8-.6.6-.8.8.6-.6.8zm2.4-3.2l-.8-.6.6-.8.8.6-.6.8zm2.4-3.2l-.8-.6.6-.8.8.6-.6.8zm2.5-3.2l-.8-.6.6-.8.8.6-.6.8zm2.4-3.2l-.8-.6.6-.8.8.6-.6.8zm2.4-3.1l-.8-.6.6-.8.8.6-.6.8zm2.4-3.2l-.8-.6.6-.8.8.6-.6.8zm2.5-3.2l-.8-.6.6-.8.8.6-.6.8zm2.4-3.2l-.8-.6.6-.8.8.6-.6.8zm2.4-3.1l-.8-.6.6-.8.8.6-.6.8zm2.5-3.2l-.8-.6.6-.8.8.6-.6.8zm2.4-3.2l-.8-.6.6-.8.8.6-.6.8zm2.4-3.2l-.8-.6.6-.8.8.6-.6.8zm2.5-3.2l-.8-.6.6-.8.8.6-.6.8zm2.4-3.1l-.8-.6.6-.8.8.6-.6.8zm2.4-3.2l-.8-.6.6-.8.8.6-.6.8zm2.4-3.2l-.8-.6.6-.8.8.6-.6.8zm2.5-3.2l-.8-.6.6-.8.8.6-.6.8zm2.4-3.1l-.8-.6.6-.8.8.6-.6.8zm2.4-3.2l-.8-.6.6-.8.8.6-.6.8zm2.5-3.2l-.8-.6.6-.8.8.6-.6.8zm2.4-3.2l-.8-.6.6-.8.8.6-.6.8zm2.4-3.2l-.8-.6.6-.8.8.6-.6.8zm2.5-3.1l-.8-.6.6-.8.8.6-.6.8zm-88.5 154.1l-.9-.4.1-.4.9.4-.1.4zm1.3-3.1l-.9-.4.4-.9.9.4-.4.9zm1.5-3.7l-.9-.4.4-.9.9.4-.4.9zm1.5-3.7l-.9-.4.4-.9.9.4-.4.9zm1.5-3.7l-.9-.4.4-.9.9.4-.4.9zm1.6-3.7l-.9-.4.4-.9.9.4-.4.9zm1.5-3.7l-.9-.4.4-.9.9.4-.4.9zm1.5-3.7l-.9-.4.4-.9.9.4-.4.9zm1.5-3.7l-.9-.4.4-.9.9.4-.4.9zm1.6-3.7l-.9-.4.4-.9.9.4-.4.9zm1.5-3.7l-.9-.4.4-.9.9.4-.4.9zm1.5-3.7l-.9-.4.4-.9.9.4-.4.9zm1.5-3.7l-.9-.4.4-.9.9.4-.4.9zm1.6-3.7l-.9-.4.4-.9.9.4-.4.9zm1.5-3.7l-.9-.4.4-.9.9.4-.4.9zm1.5-3.7l-.9-.4.4-.9.9.4-.4.9zm1.5-3.7l-.9-.4.4-.9.9.4-.4.9zm1.5-3.7l-.9-.4.4-.9.9.4-.4.9zm1.6-3.7l-.9-.4.4-.9.9.4-.4.9zm1.5-3.7l-.9-.4.4-.9.9.4-.4.9zm1.5-3.7l-.9-.4.4-.9.9.4-.4.9zm1.5-3.7l-.9-.4.4-.9.9.4-.4.9zm1.6-3.7l-.9-.4.4-.9.9.4-.4.9zm1.5-3.7l-.9-.4.4-.9.9.4-.4.9zm1.5-3.7l-.9-.4.4-.9.9.4-.4.9zm1.5-3.7l-.9-.4.4-.9.9.4-.4.9zm1.6-3.7l-.9-.4.4-.9.9.4-.4.9zm1.5-3.7l-.9-.4.4-.9.9.4-.4.9zm1.5-3.7l-.9-.4.4-.9.9.4-.4.9zm1.5-3.7l-.9-.4.4-.9.9.4-.4.9zm1.6-3.7l-.9-.4.4-.9.9.4-.4.9zm1.5-3.7l-.9-.4.4-.9.9.4-.4.9zm1.5-3.7l-.9-.4.4-.9.9.4-.4.9zm1.5-3.7l-.9-.4.4-.9.9.4-.4.9zm1.6-3.7l-.9-.4.4-.9.9.4-.4.9zm1.5-3.7l-.9-.4.4-.9.9.4-.4.9zm1.5-3.7l-.9-.4.4-.9.9.4-.4.9zm1.5-3.7l-.9-.4.4-.9.9.4-.4.9zm1.6-3.7l-.9-.4.4-.9.9.4-.4.9zm1.5-3.7l-.9-.4.4-.9.9.4-.4.9zm1.5-3.7l-.9-.4.4-.9.9.4-.4.9zm1.5-3.7l-.9-.4.4-.9.9.4-.4.9zm1.6-3.7l-.9-.4.4-.9.9.4-.4.9zm1.5-3.7l-.9-.4.4-.9.9.4-.4.9zm1.5-3.7l-.9-.4.4-.9.9.4-.4.9zm1.5-3.7l-.9-.4.4-.9.9.4-.4.9zm-45.5 171.8l-1-.1v-.4l1 .1v.4zm.4-3.3l-1-.1.1-1 1 .1-.1 1zm.5-4l-1-.1.1-1 1 .1-.1 1zm.5-4l-1-.1.1-1 1 .1-.1 1zm.5-3.9l-1-.1.1-1 1 .1-.1 1zm.5-4l-1-.1.1-1 1 .1-.1 1zm.6-4l-1-.1.1-1 1 .1-.1 1zm.5-3.9l-1-.1.1-1 1 .1-.1 1zm.5-4l-1-.1.1-1 1 .1-.1 1zm.5-4l-1-.1.1-1 1 .1-.1 1zm.5-3.9l-1-.1.1-1 1 .1-.1 1zm.5-4l-1-.1.1-1 1 .1-.1 1zm.6-4l-1-.1.1-1 1 .1-.1 1zm.5-3.9l-1-.1.1-1 1 .1-.1 1zm.5-4l-1-.1.1-1 1 .1-.1 1zm.5-4l-1-.1.1-1 1 .1-.1 1zm.5-3.9l-1-.1.1-1 1 .1-.1 1zm.5-4l-1-.1.1-1 1 .1-.1 1zm.6-4l-1-.1.1-1 1 .1-.1 1zm.5-3.9l-1-.1.1-1 1 .1-.1 1zm.5-4l-1-.1.1-1 1 .1-.1 1zm.5-4l-1-.1.1-1 1 .1-.1 1zm.5-3.9l-1-.1.1-1 1 .1-.1 1zm.5-4l-1-.1.1-1 1 .1-.1 1zm.5-4l-1-.1.1-1 1 .1-.1 1zm.6-3.9l-1-.1.1-1 1 .1-.1 1zm.5-4l-1-.1.1-1 1 .1-.1 1zm.5-4l-1-.1.1-1 1 .1-.1 1zm.5-3.9l-1-.1.1-1 1 .1-.1 1zm.5-4l-1-.1.1-1 1 .1-.1 1zm.5-4l-1-.1.1-1 1 .1-.1 1zm.6-3.9l-1-.1.1-1 1 .1-.1 1zm.5-4l-1-.1.1-1 1 .1-.1 1zm.5-4l-1-.1.1-1 1 .1-.1 1zm.5-3.9l-1-.1.1-1 1 .1-.1 1zm.5-4l-1-.1.1-1 1 .1-.1 1zm.5-4l-1-.1.1-1 1 .1-.1 1zm.5-3.9l-1-.1.1-1 1 .1-.1 1zm.6-4l-1-.1.1-1 1 .1-.1 1zm.5-4l-1-.1.1-1 1 .1-.1 1zm.5-3.9l-1-.1.1-1 1 .1-.1 1zm.5-4l-1-.1.1-1 1 .1-.1 1zm.5-4l-1-.1.1-1 1 .1-.1 1zm.5-3.9l-1-.1.1-1 1 .1-.1 1zm.6-4l-1-.1.1-1 1 .1-.1 1zm.5-4l-1-.1.1-1 1 .1-.1 1z"/><circle fill="#fff" cx="122" cy="122" r="70.4"/><path stroke="#E12429" stroke-miterlimit="10" d="M121 109.2" fill="none"/><path fill="#E12429" d="M109.6 154.1c-2.6 0-4.6-2.1-4.6-4.6v-8.6h-4.8v8.6c0 2.6-2.1 4.6-4.6 4.6-2.6 0-4.6-2.1-4.6-4.6v-8.6h-7.2v-10.8h1v9.8h7.2v9.6c0 2 1.6 3.6 3.6 3.6s3.6-1.6 3.6-3.6v-9.6h6.8v9.6c0 2 1.6 3.6 3.6 3.6s3.6-1.6 3.6-3.6v-9.6h7.2v-30.1h-35.8v9.3h-1v-10.3h37.8v32.1h-7.2v8.6c0 2.5-2.1 4.6-4.6 4.6zm-26-35.1h1v11h-1zm37.9-12.3h-37.9v-.5c0-5.9 2.8-11.4 7.4-15l-2.5-2.5c-.9-.9-.9-2.3 0-3.2.9-.9 2.3-.9 3.2 0l3.3 3.3c4.7-2 9.9-2 14.6-.2l3.1-3.1c.9-.9 2.3-.9 3.2 0 .4.4.7 1 .7 1.6s-.2 1.2-.7 1.6l-2.2 2.2c4.8 3.6 7.7 9.2 7.7 15.2v.6zm-36.9-1h35.8c-.2-5.7-3-11-7.8-14.3l-.5-.3 3.1-3.1c.2-.2.4-.6.4-.9 0-.3-.1-.7-.4-.9-.5-.5-1.3-.5-1.8 0l-3.6 3.6-.3-.1c-4.6-2-9.8-1.9-14.4.2l-.2.1-3.8-3.8c-.5-.5-1.3-.5-1.8 0s-.5 1.3 0 1.8l3.3 3.3-.5.3c-4.6 3.3-7.3 8.5-7.5 14.1z"/><circle fill="#E12429" cx="109.6" cy="96.6" r="1.2"/><circle fill="#E12429" cx="95.5" cy="96.6" r="1.2"/><path fill="#E12429" d="M77.4 134.7c-2.6 0-4.6-2.1-4.6-4.6v-16.7c0-2.6 2.1-4.6 4.6-4.6 2.6 0 4.6 2.1 4.6 4.6v16.7c0 2.5-2.1 4.6-4.6 4.6zm0-25c-2 0-3.6 1.6-3.6 3.6v16.7c0 2 1.6 3.6 3.6 3.6s3.6-1.6 3.6-3.6v-16.7c0-1.9-1.6-3.6-3.6-3.6zm55.4 8.9h-5.6c-2.6 0-4.6-2.1-4.6-4.6 0-2.6 2.1-4.6 4.6-4.6h14.9c1.5 0 2.8.7 3.7 1.9l-.8.6c-.7-.9-1.8-1.5-2.9-1.5h-14.9c-2 0-3.6 1.6-3.6 3.6s1.6 3.6 3.6 3.6h5.6v1z"/><path fill-rule="evenodd" clip-rule="evenodd" fill="#fff" d="M168.8 140.5c-1.1 2.3-1.6 3.4-2.9 5.4-1.9 2.9-4.6 6.5-7.9 6.5-2.9 0-3.7-1.9-7.7-1.9s-4.8 1.9-7.7 1.9c-3.3 0-5.8-3.3-7.7-6.1-5.3-8-5.8-17.5-2.6-22.5 2.3-3.6 6-5.7 9.4-5.7 3.5 0 5.7 1.9 8.6 1.9 2.8 0 4.5-1.9 8.6-1.9 3.1 0 6.3 1.7 8.6 4.5-7.6 4.2-6.4 15 1.3 17.9z"/><path fill="#E12429" d="M142.6 152.9c-3.6 0-6.1-3.2-8.2-6.4-5.1-7.8-6.2-17.5-2.6-23.1 2.4-3.6 6.1-5.9 9.8-5.9 1.9 0 3.4.5 4.9 1.1 1.2.4 2.4.9 3.7.9 1.2 0 2.2-.4 3.3-.8 1.4-.5 3-1.1 5.3-1.1 3.3 0 6.6 1.8 9 4.7l.4.5-.5.3c-3.3 1.8-5.1 5.1-4.8 8.7.3 3.7 2.6 6.9 6.1 8.2l.5.2-.2.5c-1.1 2.3-1.6 3.4-2.9 5.5-2.2 3.3-4.9 6.7-8.3 6.7-1.5 0-2.5-.4-3.4-.9-1.1-.5-2.2-1-4.2-1-2.1 0-3.2.5-4.3 1-1.2.5-2.1.9-3.6.9zm-.9-34.3c-3.4 0-6.8 2.1-9 5.4-3.4 5.2-2.3 14.6 2.6 22 1.8 2.7 4.3 5.9 7.3 5.9l.1.5v-.5c1.2 0 2-.4 3-.8 1.2-.5 2.5-1.1 4.7-1.1 2.3 0 3.5.6 4.7 1.1.9.4 1.7.8 2.9.8 3 0 5.5-3.2 7.5-6.3 1.2-1.9 1.7-2.9 2.7-4.9-3.6-1.6-5.9-4.9-6.2-8.9-.3-3.9 1.5-7.3 4.8-9.4-2.2-2.5-5.1-3.9-7.8-3.9-2.1 0-3.5.5-4.9 1.1-1.2.4-2.3.9-3.6.9-1.5 0-2.7-.4-4-.9-1.6-.5-3.1-1-4.8-1z"/><path fill-rule="evenodd" clip-rule="evenodd" fill="#fff" d="M155.8 114.9c1.5-1.9 2.6-4.6 2.2-7.3-2.4.2-5.2 1.7-6.9 3.7-1.5 1.8-2.7 4.5-2.2 7.1 2.6.1 5.3-1.5 6.9-3.5z"/><path fill="#E12429" d="M149.1 118.9h-.6l-.1-.4c-.4-2.4.4-5.2 2.3-7.5 1.7-2.1 4.7-3.7 7.2-3.9h.5l.1.5c.4 2.5-.5 5.3-2.3 7.7-1.8 2.1-4.6 3.6-7.1 3.6zm8.4-10.8c-2.1.3-4.6 1.7-6 3.5-1.6 2-2.4 4.3-2.2 6.3 2.2-.1 4.6-1.4 6.1-3.3.7-1 2.4-3.5 2.1-6.5z"/></svg>