<svg xmlns="http://www.w3.org/2000/svg" width="244" height="244" viewBox="0 0 244 244"><circle fill="#fff" cx="122" cy="122" r="122"/><path fill="#fff" d="M93.2 22.3c-1.8 0-3.4-1.2-3.9-3-.3-1-.1-2.1.4-3 .5-.9 1.4-1.6 2.4-1.9.3-.1.7-.1 1-.1 1.8 0 3.4 1.2 3.9 3 .3 1 .1 2.1-.4 3-.5.9-1.4 1.6-2.4 1.9l-1 .1z"/><path fill="#B2ADA1" d="M93.2 15.3c1.4 0 2.5.9 2.9 2.2.2.8.1 1.6-.3 2.3s-1 1.2-1.8 1.4c-.3.1-.5.1-.8.1-1.4 0-2.5-.9-2.9-2.2-.4-1.6.5-3.2 2.1-3.7.3-.1.5-.1.8-.1m0-2c-.4 0-.9.1-1.3.2-2.7.7-4.3 3.5-3.5 6.1.6 2.2 2.6 3.7 4.8 3.7.4 0 .9-.1 1.3-.2 2.7-.7 4.3-3.5 3.5-6.1-.6-2.3-2.6-3.7-4.8-3.7z"/><path fill="#fff" d="M149 230.6c-1.8 0-3.4-1.2-3.9-3-.6-2.1.7-4.3 2.8-4.9.3-.1.7-.1 1-.1 1.8 0 3.4 1.2 3.9 3 .6 2.1-.7 4.3-2.8 4.9l-1 .1z"/><path fill="#B2ADA1" d="M149 223.6c1.4 0 2.5.9 2.9 2.2.4 1.6-.5 3.2-2.1 3.7-.3.1-.5.1-.8.1-1.4 0-2.5-.9-2.9-2.2-.2-.8-.1-1.6.3-2.3s1-1.2 1.8-1.4c.3-.1.5-.1.8-.1m0-2c-.4 0-.9.1-1.3.2-2.7.7-4.3 3.5-3.5 6.1.6 2.2 2.6 3.7 4.8 3.7.4 0 .9-.1 1.3-.2 2.7-.7 4.3-3.5 3.5-6.1-.6-2.3-2.6-3.7-4.8-3.7z"/><path fill="#fff" d="M44.8 50.2c-1.1 0-2.1-.4-2.8-1.2s-1.2-1.8-1.2-2.8.4-2.1 1.2-2.8 1.8-1.2 2.8-1.2c1.1 0 2.1.4 2.8 1.2 1.6 1.6 1.6 4.1 0 5.7-.7.7-1.7 1.1-2.8 1.1z"/><path fill="#B2ADA1" d="M44.8 43.2c.8 0 1.6.3 2.1.9.6.6.9 1.3.9 2.1s-.3 1.6-.9 2.1c-.6.6-1.3.9-2.1.9s-1.6-.3-2.1-.9c-1.2-1.2-1.2-3.1 0-4.2.6-.6 1.3-.9 2.1-.9m0-2c-1.3 0-2.6.5-3.5 1.5-2 2-2 5.1 0 7.1 1 1 2.3 1.5 3.5 1.5 1.3 0 2.6-.5 3.5-1.5 2-2 2-5.1 0-7.1-.9-1-2.2-1.5-3.5-1.5z"/><path fill="#fff" d="M197.3 202.7c-1.1 0-2.1-.4-2.8-1.2-1.6-1.6-1.6-4.1 0-5.7.8-.8 1.8-1.2 2.8-1.2s2.1.4 2.8 1.2c.8.8 1.2 1.8 1.2 2.8s-.4 2.1-1.2 2.8-1.7 1.3-2.8 1.3z"/><path fill="#B2ADA1" d="M197.3 195.7c.8 0 1.6.3 2.1.9 1.2 1.2 1.2 3.1 0 4.2-.6.6-1.3.9-2.1.9s-1.6-.3-2.1-.9c-1.2-1.2-1.2-3.1 0-4.2.6-.6 1.3-.9 2.1-.9m0-2c-1.3 0-2.6.5-3.5 1.5-2 2-2 5.1 0 7.1 1 1 2.3 1.5 3.5 1.5 1.3 0 2.6-.5 3.5-1.5 2-2 2-5.1 0-7.1-.9-1-2.2-1.5-3.5-1.5z"/><path fill="#fff" d="M16.9 98.5c-.3 0-.7 0-1-.1-1-.3-1.9-.9-2.4-1.9-.5-.9-.7-2-.4-3 .5-1.7 2.1-3 3.9-3 .3 0 .7 0 1 .1 1 .3 1.9.9 2.4 1.9.5.9.7 2 .4 3-.5 1.8-2.1 3-3.9 3z"/><path fill="#B2ADA1" d="M16.9 91.5c.3 0 .5 0 .8.1 1.6.4 2.5 2.1 2.1 3.7-.4 1.3-1.5 2.2-2.9 2.2-.3 0-.5 0-.8-.1-1.6-.4-2.5-2.1-2.1-3.7.4-1.3 1.6-2.2 2.9-2.2m0-2c-2.2 0-4.2 1.5-4.8 3.7-.7 2.7.9 5.4 3.5 6.1.4.1.9.2 1.3.2 2.2 0 4.2-1.5 4.8-3.7.7-2.7-.9-5.4-3.5-6.1-.4-.1-.9-.2-1.3-.2z"/><path fill="#fff" d="M225.2 154.3c-.3 0-.7 0-1-.1-1-.3-1.9-.9-2.4-1.9-.5-.9-.7-2-.4-3 .5-1.7 2.1-3 3.9-3 .3 0 .7 0 1 .1 2.1.6 3.4 2.8 2.8 4.9-.5 1.8-2.1 3-3.9 3z"/><path fill="#B2ADA1" d="M225.2 147.3c.3 0 .5 0 .8.1.8.2 1.4.7 1.8 1.4s.5 1.5.3 2.3c-.4 1.3-1.5 2.2-2.9 2.2-.3 0-.5 0-.8-.1-.8-.2-1.4-.7-1.8-1.4s-.5-1.5-.3-2.3c.4-1.3 1.6-2.2 2.9-2.2m0-2c-2.2 0-4.2 1.5-4.8 3.7-.7 2.7.9 5.4 3.5 6.1.4.1.9.2 1.3.2 2.2 0 4.2-1.5 4.8-3.7.7-2.7-.9-5.4-3.5-6.1-.4-.1-.8-.2-1.3-.2z"/><path fill="#fff" d="M16.9 154.3c-1.8 0-3.4-1.2-3.9-3-.3-1-.1-2.1.4-3 .5-.9 1.4-1.6 2.4-1.9.3-.1.7-.1 1-.1 1.8 0 3.4 1.2 3.9 3 .3 1 .1 2.1-.4 3-.5.9-1.4 1.6-2.4 1.9-.3.1-.6.1-1 .1z"/><path fill="#B2ADA1" d="M16.9 147.3c1.4 0 2.5.9 2.9 2.2.4 1.6-.5 3.2-2.1 3.7-.3.1-.5.1-.8.1-1.4 0-2.5-.9-2.9-2.2-.4-1.6.5-3.2 2.1-3.7.3 0 .6-.1.8-.1m0-2c-.4 0-.9.1-1.3.2-2.7.7-4.3 3.5-3.5 6.1.6 2.2 2.6 3.7 4.8 3.7.4 0 .9-.1 1.3-.2 2.7-.7 4.3-3.5 3.5-6.1-.5-2.2-2.6-3.7-4.8-3.7z"/><path fill="#fff" d="M225.2 98.5c-1.8 0-3.4-1.2-3.9-3-.3-1-.1-2.1.4-3 .5-.9 1.4-1.6 2.4-1.9.3-.1.7-.1 1-.1 1.8 0 3.4 1.2 3.9 3 .6 2.1-.7 4.3-2.8 4.9-.3.1-.6.1-1 .1z"/><path fill="#B2ADA1" d="M225.2 91.5c1.4 0 2.5.9 2.9 2.2.4 1.6-.5 3.2-2.1 3.7-.3.1-.5.1-.8.1-1.4 0-2.5-.9-2.9-2.2-.4-1.6.5-3.2 2.1-3.7.3-.1.6-.1.8-.1m0-2c-.4 0-.9.1-1.3.2-2.7.7-4.3 3.5-3.5 6.1.6 2.2 2.6 3.7 4.8 3.7.4 0 .9-.1 1.3-.2 2.7-.7 4.3-3.5 3.5-6.1-.5-2.2-2.6-3.7-4.8-3.7z"/><path fill="#fff" d="M44.8 202.7c-1.1 0-2.1-.4-2.8-1.2-.8-.8-1.2-1.8-1.2-2.8s.4-2.1 1.2-2.8c.8-.8 1.8-1.2 2.8-1.2s2.1.4 2.8 1.2c1.6 1.6 1.6 4.1 0 5.7-.7.7-1.7 1.1-2.8 1.1z"/><path fill="#B2ADA1" d="M44.8 195.7c.8 0 1.6.3 2.1.9 1.2 1.2 1.2 3.1 0 4.2-.6.6-1.3.9-2.1.9s-1.6-.3-2.1-.9c-1.2-1.2-1.2-3.1 0-4.2.6-.6 1.3-.9 2.1-.9m0-2c-1.3 0-2.6.5-3.5 1.5-2 2-2 5.1 0 7.1 1 1 2.3 1.5 3.5 1.5 1.3 0 2.6-.5 3.5-1.5 2-2 2-5.1 0-7.1-.9-1-2.2-1.5-3.5-1.5z"/><path fill="#fff" d="M197.3 50.2c-1.1 0-2.1-.4-2.8-1.2-1.6-1.6-1.6-4.1 0-5.7.8-.8 1.8-1.2 2.8-1.2s2.1.4 2.8 1.2c.8.8 1.2 1.8 1.2 2.8s-.4 2.1-1.2 2.8c-.7.9-1.7 1.3-2.8 1.3z"/><path fill="#B2ADA1" d="M197.3 43.2c.8 0 1.6.3 2.1.9 1.2 1.2 1.2 3.1 0 4.2-.6.6-1.3.9-2.1.9s-1.6-.3-2.1-.9c-1.2-1.2-1.2-3.1 0-4.2.6-.6 1.3-.9 2.1-.9m0-2c-1.3 0-2.6.5-3.5 1.5-2 2-2 5.1 0 7.1 1 1 2.3 1.5 3.5 1.5 1.3 0 2.6-.5 3.5-1.5 2-2 2-5.1 0-7.1-.9-1-2.2-1.5-3.5-1.5z"/><path fill="#fff" d="M121.1 18.6c-2.2 0-4-1.8-4-4s1.8-4 4-4 4 1.8 4 4-1.8 4-4 4z"/><path fill="#E22228" d="M121.1 11.6c1.7 0 3 1.3 3 3s-1.3 3-3 3-3-1.3-3-3 1.3-3 3-3m0-2c-2.8 0-5 2.2-5 5s2.2 5 5 5 5-2.2 5-5-2.3-5-5-5z"/><path fill="#fff" d="M121.1 234.2c-2.2 0-4-1.8-4-4s1.8-4 4-4 4 1.8 4 4-1.8 4-4 4z"/><path fill="#E22228" d="M121.1 227.2c1.7 0 3 1.3 3 3s-1.3 3-3 3-3-1.3-3-3 1.3-3 3-3m0-2c-2.8 0-5 2.2-5 5s2.2 5 5 5 5-2.2 5-5c0-2.7-2.3-5-5-5z"/><path fill="#fff" d="M67.2 33c-1.4 0-2.8-.8-3.5-2-.5-.9-.7-2-.4-3 .3-1 .9-1.9 1.9-2.4.6-.4 1.3-.5 2-.5 1.4 0 2.8.8 3.5 2 1.1 1.9.4 4.4-1.5 5.5-.6.2-1.3.4-2 .4z"/><path fill="#E22228" d="M67.2 26c1.1 0 2.1.6 2.6 1.5.4.7.5 1.5.3 2.3s-.7 1.4-1.4 1.8c-.5.3-1 .4-1.5.4-1.1 0-2.1-.6-2.6-1.5-.8-1.4-.3-3.3 1.1-4.1.4-.2.9-.4 1.5-.4m0-2c-.8 0-1.7.2-2.5.7-2.4 1.4-3.2 4.4-1.8 6.8.9 1.6 2.6 2.5 4.3 2.5.8 0 1.7-.2 2.5-.7 2.4-1.4 3.2-4.4 1.8-6.8-.9-1.6-2.6-2.5-4.3-2.5z"/><path fill="#fff" d="M175 219.8c-1.4 0-2.8-.8-3.5-2-.5-.9-.7-2-.4-3 .3-1 .9-1.9 1.9-2.4.6-.4 1.3-.5 2-.5 1.4 0 2.8.8 3.5 2 .5.9.7 2 .4 3-.3 1-.9 1.9-1.9 2.4-.6.3-1.3.5-2 .5z"/><path fill="#E22228" d="M175 212.8c1.1 0 2.1.6 2.6 1.5.4.7.5 1.5.3 2.3s-.7 1.4-1.4 1.8c-.5.3-1 .4-1.5.4-1.1 0-2.1-.6-2.6-1.5-.4-.7-.5-1.5-.3-2.3s.7-1.4 1.4-1.8c.5-.3 1-.4 1.5-.4m0-2c-.8 0-1.7.2-2.5.7-2.4 1.4-3.2 4.4-1.8 6.8.9 1.6 2.6 2.5 4.3 2.5.8 0 1.7-.2 2.5-.7 2.4-1.4 3.2-4.4 1.8-6.8-.9-1.6-2.6-2.5-4.3-2.5z"/><path fill="#fff" d="M27.7 72.5c-.7 0-1.4-.2-2-.5-.9-.5-1.6-1.4-1.9-2.4s-.1-2.1.4-3c.7-1.2 2-2 3.5-2 .7 0 1.4.2 2 .5.9.5 1.6 1.4 1.9 2.4.3 1 .1 2.1-.4 3-.8 1.2-2.1 2-3.5 2z"/><path fill="#E22228" d="M27.7 65.5c.5 0 1 .1 1.5.4 1.4.8 1.9 2.7 1.1 4.1-.5.9-1.5 1.5-2.6 1.5-.5 0-1-.1-1.5-.4-.7-.4-1.2-1-1.4-1.8s-.1-1.6.3-2.3c.5-.9 1.5-1.5 2.6-1.5m0-2c-1.7 0-3.4.9-4.3 2.5-1.4 2.4-.6 5.4 1.8 6.8.8.5 1.6.7 2.5.7 1.7 0 3.4-.9 4.3-2.5 1.4-2.4.6-5.4-1.8-6.8-.8-.5-1.7-.7-2.5-.7z"/><path fill="#fff" d="M214.5 180.3c-.7 0-1.4-.2-2-.5-1.9-1.1-2.6-3.6-1.5-5.5.7-1.2 2-2 3.5-2 .7 0 1.4.2 2 .5 1.9 1.1 2.6 3.6 1.5 5.5-.8 1.3-2.1 2-3.5 2z"/><path fill="#E22228" d="M214.5 173.3c.5 0 1 .1 1.5.4.7.4 1.2 1 1.4 1.8s.1 1.6-.3 2.3c-.5.9-1.5 1.5-2.6 1.5-.5 0-1-.1-1.5-.4-1.4-.8-1.9-2.7-1.1-4.1.5-.9 1.5-1.5 2.6-1.5m0-2c-1.7 0-3.4.9-4.3 2.5-1.4 2.4-.6 5.4 1.8 6.8.8.5 1.6.7 2.5.7 1.7 0 3.4-.9 4.3-2.5 1.4-2.4.6-5.4-1.8-6.8-.8-.5-1.7-.7-2.5-.7z"/><path fill="#fff" d="M13.2 126.4c-2.2 0-4-1.8-4-4s1.8-4 4-4 4 1.8 4 4-1.7 4-4 4z"/><path fill="#E22228" d="M13.2 119.4c1.7 0 3 1.3 3 3s-1.3 3-3 3-3-1.3-3-3 1.4-3 3-3m0-2c-2.8 0-5 2.2-5 5s2.2 5 5 5 5-2.2 5-5-2.2-5-5-5z"/><path fill="#fff" d="M228.9 126.4c-2.2 0-4-1.8-4-4s1.8-4 4-4 4 1.8 4 4-1.8 4-4 4z"/><path fill="#E22228" d="M228.9 119.4c1.7 0 3 1.3 3 3s-1.3 3-3 3-3-1.3-3-3 1.4-3 3-3m0-2c-2.8 0-5 2.2-5 5s2.2 5 5 5 5-2.2 5-5-2.2-5-5-5z"/><path fill="#fff" d="M27.7 180.3c-1.4 0-2.8-.8-3.5-2-1.1-1.9-.4-4.4 1.5-5.5.6-.4 1.3-.5 2-.5 1.4 0 2.8.8 3.5 2 1.1 1.9.4 4.4-1.5 5.5-.6.3-1.3.5-2 .5z"/><path fill="#E22228" d="M27.7 173.3c1.1 0 2.1.6 2.6 1.5.4.7.5 1.5.3 2.3-.2.8-.7 1.4-1.4 1.8-.5.3-1 .4-1.5.4-1.1 0-2.1-.6-2.6-1.5-.4-.7-.5-1.5-.3-2.3s.7-1.4 1.4-1.8c.5-.2 1-.4 1.5-.4m0-2c-.8 0-1.7.2-2.5.7-2.4 1.4-3.2 4.4-1.8 6.8.9 1.6 2.6 2.5 4.3 2.5.8 0 1.7-.2 2.5-.7 2.4-1.4 3.2-4.4 1.8-6.8-.9-1.6-2.6-2.5-4.3-2.5z"/><path fill="#fff" d="M214.5 72.5c-1.4 0-2.8-.8-3.5-2-1.1-1.9-.4-4.4 1.5-5.5.6-.4 1.3-.5 2-.5 1.4 0 2.8.8 3.5 2 .5.9.7 2 .4 3-.3 1-.9 1.9-1.9 2.4-.6.4-1.3.6-2 .6z"/><path fill="#E22228" d="M214.5 65.5c1.1 0 2.1.6 2.6 1.5.4.7.5 1.5.3 2.3s-.7 1.4-1.4 1.8c-.5.3-1 .4-1.5.4-1.1 0-2.1-.6-2.6-1.5-.4-.7-.5-1.5-.3-2.3s.7-1.4 1.4-1.8c.4-.3.9-.4 1.5-.4m0-2c-.8 0-1.7.2-2.5.7-2.4 1.4-3.2 4.4-1.8 6.8.9 1.6 2.6 2.5 4.3 2.5.8 0 1.7-.2 2.5-.7 2.4-1.4 3.2-4.4 1.8-6.8-.9-1.6-2.6-2.5-4.3-2.5z"/><path fill="#fff" d="M67.2 219.8c-.7 0-1.4-.2-2-.5-.9-.5-1.6-1.4-1.9-2.4-.3-1-.1-2.1.4-3 .7-1.2 2-2 3.5-2 .7 0 1.4.2 2 .5 1.9 1.1 2.6 3.6 1.5 5.5-.8 1.1-2.1 1.9-3.5 1.9z"/><path fill="#E22228" d="M67.2 212.8c.5 0 1 .1 1.5.4.7.4 1.2 1 1.4 1.8s.1 1.6-.3 2.3c-.5.9-1.5 1.5-2.6 1.5-.5 0-1-.1-1.5-.4-.7-.4-1.2-1-1.4-1.8s-.1-1.6.3-2.3c.5-.9 1.5-1.5 2.6-1.5m0-2c-1.7 0-3.4.9-4.3 2.5-1.4 2.4-.6 5.4 1.8 6.8.8.5 1.6.7 2.5.7 1.7 0 3.4-.9 4.3-2.5 1.4-2.4.6-5.4-1.8-6.8-.8-.5-1.7-.7-2.5-.7z"/><path fill="#fff" d="M175 33c-.7 0-1.4-.2-2-.5-.9-.5-1.6-1.4-1.9-2.4-.3-1-.1-2.1.4-3 .7-1.2 2-2 3.5-2 .7 0 1.4.2 2 .5.9.5 1.6 1.4 1.9 2.4.3 1 .1 2.1-.4 3-.8 1.3-2.1 2-3.5 2z"/><path fill="#E22228" d="M175 26c.5 0 1 .1 1.5.4 1.4.8 1.9 2.7 1.1 4.1-.5.9-1.5 1.5-2.6 1.5-.5 0-1-.1-1.5-.4-1.4-.8-1.9-2.7-1.1-4.1.5-.9 1.5-1.5 2.6-1.5m0-2c-1.7 0-3.4.9-4.3 2.5-1.4 2.4-.6 5.4 1.8 6.8.8.5 1.6.7 2.5.7 1.7 0 3.4-.9 4.3-2.5 1.4-2.4.6-5.4-1.8-6.8-.8-.5-1.7-.7-2.5-.7z"/><path fill="#fff" d="M93.2 230.6c-.3 0-.7 0-1-.1-2.1-.6-3.4-2.8-2.8-4.9.5-1.7 2.1-3 3.9-3 .3 0 .7 0 1 .1 2.1.6 3.4 2.8 2.8 4.9-.5 1.8-2.1 3-3.9 3z"/><path fill="#B2ADA1" d="M93.2 223.6c.3 0 .5 0 .8.1 1.6.4 2.5 2.1 2.1 3.7-.4 1.3-1.5 2.2-2.9 2.2-.3 0-.5 0-.8-.1-1.6-.4-2.5-2.1-2.1-3.7.3-1.3 1.5-2.2 2.9-2.2m0-2c-2.2 0-4.2 1.5-4.8 3.7-.7 2.7.9 5.4 3.5 6.1.4.1.9.2 1.3.2 2.2 0 4.2-1.5 4.8-3.7.7-2.7-.9-5.4-3.5-6.1-.5-.2-.9-.2-1.3-.2z"/><path fill="#fff" d="M149 22.3c-.3 0-.7 0-1-.1-1-.3-1.9-.9-2.4-1.9s-.7-2-.4-3c.5-1.7 2.1-3 3.9-3 .3 0 .7 0 1 .1 1 .3 1.9.9 2.4 1.9.5.9.7 2 .4 3-.5 1.7-2.1 3-3.9 3z"/><path fill="#B2ADA1" d="M149 15.3c.3 0 .5 0 .8.1 1.6.4 2.5 2.1 2.1 3.7-.4 1.3-1.5 2.2-2.9 2.2-.3 0-.5 0-.8-.1-1.6-.4-2.5-2.1-2.1-3.7.3-1.3 1.5-2.2 2.9-2.2m0-2c-2.2 0-4.2 1.5-4.8 3.7-.7 2.7.9 5.4 3.5 6.1.4.1.9.2 1.3.2 2.2 0 4.2-1.5 4.8-3.7.7-2.7-.9-5.4-3.5-6.1-.5-.2-.9-.2-1.3-.2z"/><path d="M121.1 225.2v-205.6m26.6 202.1l-53.2-198.6m78 188.4l-102.8-178.1m124.1 161.7l-145.4-145.4m161.7 124.1l-178.1-102.8m188.4 78l-198.6-53.2m202.1 26.6h-205.7m202.2-26.6l-198.6 53.2m188.3-78l-178.1 102.8m161.8-124.1l-145.4 145.4m124.1-161.7l-102.8 178.1m78-188.4l-53.2 198.6" stroke="#B2ADA1" stroke-width=".5" stroke-miterlimit="10" fill="none"/><path d="M133 211.8l-23.8-178.8m46.5 172.7l-69.3-166.6m89.7 154.8l-110-142.9m126.6 126.2l-143.3-109.6m155.1 89.2l-166.8-68.8m172.8 46l-178.9-23.2m178.9-.3l-178.8 23.8m172.6-46.5l-166.5 69.3m154.7-89.7l-142.9 110m126.3-126.6l-109.6 143.3m89.2-155.1l-68.8 166.8m46-172.8l-23.2 178.9" stroke="#B2ADA1" stroke-miterlimit="10" stroke-dasharray="1,3" fill="none"/><circle fill="#fff" cx="122" cy="122" r="70.4"/><circle stroke="#E22228" stroke-width="2" stroke-miterlimit="10" cx="121.3" cy="122.3" r="43.9" fill="none"/><path stroke="#E22228" stroke-miterlimit="10" d="M133.6 144.3l-6.9 1.9 2.1-6.7 14.4-14.5 4.8 4.8zm5.8-15.4l4.8 4.8m-15.4 5.8l4.8 4.8m-11.5-2.7h-15.2c-2.1 0-3-.9-3-3v-30.5h7.7m9.5 30.5h-14.2v-27.5h4.6m22.8 8.2v-11.2h-7.6m-3.7-3.1c0-1.6-1-3-3.8-3-2.9 0-3.8 1.5-3.8 3h-3.9v9.1h15.2v-9.1h-3.7zm3.7 6.1h4.5v8.4m-17.8-.8h9.6m-9.6 4.6h9.6m-9.6 4.6h9.6m-9.6 4.6h5.8" fill="none"/><path stroke="#E22228" stroke-width="2" stroke-miterlimit="10" d="M152.5 91.4l-62.3 61.9" fill="none"/></svg>