<svg xmlns="http://www.w3.org/2000/svg" width="250" height="250" viewBox="0 0 250 250"><path fill="#E12429" d="M157 163H93c-21 0-38-17-38-38s17-38 38-38h64c21 0 38 17 38 38s-17 38-38 38zM93 88c-20.4 0-37 16.6-37 37s16.6 37 37 37h64c20.4 0 37-16.6 37-37s-16.6-37-37-37H93z"/><path fill="#E12529" d="M157.2 102.5c-12.4 0-22.5 10.1-22.5 22.5s10.1 22.5 22.5 22.5 22.5-10.1 22.5-22.5-10.1-22.5-22.5-22.5zm0 39.1c-9.2 0-16.6-7.4-16.6-16.6s7.4-16.6 16.6-16.6c9.2 0 16.6 7.4 16.6 16.6s-7.5 16.6-16.6 16.6z"/><circle fill="#E12529" cx="162.8" cy="119.4" r="4.7"/><circle fill="#E12529" cx="162.8" cy="130.6" r="4.7"/><circle fill="#E12529" cx="151.6" cy="130.6" r="4.7"/><circle fill="#E12529" cx="151.6" cy="119.4" r="4.7"/><path fill="#2D2C2A" d="M117 114.5H84v-10h33v10zm-32-1h31v-8H85v8zm32 16H84v-11h33v11zm-32-1h31v-9H85v9zm32 15H92v-1h24v-8H89v-1h28z"/><path fill="#2D2C2A" d="M122 149.5H94v-2h26v-46H80v31h-2v-33h44z"/><path fill="#2D2C2A" d="M108 121.5h6v1h-6zm-4 0h2v1h-2zm-4 0h2v1h-2zM108 107.5h6v1h-6zm-4 0h2v1h-2zm-4 0h2v1h-2zM108 136.5h6v1h-6zm-4 0h2v1h-2zm-4 0h2v1h-2zM85.7 139.4c0 1.6-1.3 2.9-2.9 2.9s-2.9-1.3-2.9-2.9 1.3-2.9 2.9-2.9 2.9 1.3 2.9 2.9zm2.9 10.1c0-3.2-2.6-5.8-5.8-5.8-3.2 0-5.8 2.6-5.8 5.8h11.6z"/><g><path fill="#DBDED7" d="M194.5 124.5H225v1h-30.5z"/><path fill="#DBDED7" d="M225 129.5c-2.5 0-4.5-2-4.5-4.5s2-4.5 4.5-4.5 4.5 2 4.5 4.5-2 4.5-4.5 4.5z"/><path fill="#FFF" d="M225 121.5c1.9 0 3.5 1.6 3.5 3.5s-1.6 3.5-3.5 3.5-3.5-1.6-3.5-3.5 1.6-3.5 3.5-3.5m0-2c-3 0-5.5 2.5-5.5 5.5s2.5 5.5 5.5 5.5 5.5-2.5 5.5-5.5-2.5-5.5-5.5-5.5z"/><path fill="#DBDED7" d="M194.945 124.675l24.49 33.998-.81.585-24.492-33.998z"/><path fill="#DBDED7" d="M219.1 163.5c-1.2 0-2.3-.5-3.2-1.3-1.8-1.8-1.8-4.6 0-6.4.8-.8 2-1.3 3.2-1.3 1.2 0 2.3.5 3.2 1.3 1.8 1.8 1.8 4.6 0 6.4-.9.9-2 1.3-3.2 1.3z"/><path fill="#FFF" d="M219.1 155.5c.9 0 1.8.3 2.5 1 1.4 1.4 1.4 3.6 0 4.9-.7.7-1.6 1-2.5 1s-1.8-.3-2.5-1c-1.4-1.4-1.4-3.6 0-4.9.7-.6 1.6-1 2.5-1m0-2c-1.5 0-2.9.6-3.9 1.6s-1.6 2.4-1.6 3.9.6 2.9 1.6 3.9 2.4 1.6 3.9 1.6 2.9-.6 3.9-1.6 1.6-2.4 1.6-3.9-.6-2.9-1.6-3.9c-1.1-1-2.5-1.6-3.9-1.6z"/><path fill="#DBDED7" d="M218.646 90.664l.812.585-24.554 34.073-.81-.585z"/><path fill="#DBDED7" d="M219.1 95.5c-1.2 0-2.3-.5-3.2-1.3-1.8-1.8-1.8-4.6 0-6.4.9-.9 2-1.3 3.2-1.3 1.2 0 2.3.5 3.2 1.3 1.8 1.8 1.8 4.6 0 6.4-.9.8-2 1.3-3.2 1.3z"/><path fill="#FFF" d="M219.1 87.5c.9 0 1.8.3 2.5 1 1.4 1.4 1.4 3.6 0 4.9-.7.7-1.6 1-2.5 1-.9 0-1.8-.3-2.5-1-1.4-1.4-1.4-3.6 0-4.9.7-.7 1.6-1 2.5-1m0-2c-1.5 0-2.9.6-3.9 1.6-2.1 2.1-2.1 5.6 0 7.8 1 1 2.4 1.6 3.9 1.6s2.9-.6 3.9-1.6c2.1-2.1 2.1-5.6 0-7.8-1.1-1.1-2.5-1.6-3.9-1.6z"/><g><path fill="#E12529" d="M194.5 129.5c-2.5 0-4.5-2-4.5-4.5s2-4.5 4.5-4.5 4.5 2 4.5 4.5-2 4.5-4.5 4.5z"/><path fill="#FFF" d="M194.5 121.5c1.9 0 3.5 1.6 3.5 3.5s-1.6 3.5-3.5 3.5-3.5-1.6-3.5-3.5 1.6-3.5 3.5-3.5m0-2c-3 0-5.5 2.5-5.5 5.5s2.5 5.5 5.5 5.5 5.5-2.5 5.5-5.5-2.4-5.5-5.5-5.5z"/></g></g><g><path fill="#DBDED7" d="M25 124.5h30.5v1H25z"/><path fill="#DBDED7" d="M25 129.5c-2.5 0-4.5-2-4.5-4.5s2-4.5 4.5-4.5 4.5 2 4.5 4.5-2 4.5-4.5 4.5z"/><path fill="#FFF" d="M25 121.5c1.9 0 3.5 1.6 3.5 3.5s-1.6 3.5-3.5 3.5-3.5-1.6-3.5-3.5 1.6-3.5 3.5-3.5m0-2c-3 0-5.5 2.5-5.5 5.5s2.5 5.5 5.5 5.5 5.5-2.5 5.5-5.5-2.5-5.5-5.5-5.5z"/><path fill="#DBDED7" d="M55.067 124.665l.812.585-24.476 34.01-.81-.584z"/><path fill="#DBDED7" d="M30.9 163.5c-1.2 0-2.3-.5-3.2-1.3-1.8-1.8-1.8-4.6 0-6.4.9-.8 2-1.3 3.2-1.3 1.2 0 2.3.5 3.2 1.3 1.8 1.8 1.8 4.6 0 6.4-.8.9-1.9 1.3-3.2 1.3z"/><path fill="#FFF" d="M30.9 155.5c.9 0 1.8.3 2.5 1 1.4 1.4 1.4 3.6 0 4.9-.7.7-1.6 1-2.5 1s-1.8-.3-2.5-1c-1.4-1.4-1.4-3.6 0-4.9.8-.6 1.7-1 2.5-1m0-2c-1.5 0-2.9.6-3.9 1.6-2.1 2.1-2.1 5.6 0 7.8 1 1 2.4 1.6 3.9 1.6s2.9-.6 3.9-1.6c2.1-2.1 2.1-5.6 0-7.8-1-1-2.4-1.6-3.9-1.6z"/><path fill="#DBDED7" d="M31.316 90.67l24.553 34.075-.813.585-24.553-34.075z"/><path fill="#DBDED7" d="M30.9 95.5c-1.2 0-2.3-.5-3.2-1.3-1.8-1.8-1.8-4.6 0-6.4.9-.9 2-1.3 3.2-1.3 1.2 0 2.3.5 3.2 1.3 1.8 1.8 1.8 4.6 0 6.4-.8.8-2 1.3-3.2 1.3z"/><path fill="#FFF" d="M30.9 87.5c.9 0 1.8.3 2.5 1 1.4 1.4 1.4 3.6 0 4.9-.7.7-1.6 1-2.5 1s-1.8-.3-2.5-1c-1.4-1.4-1.4-3.6 0-4.9.7-.7 1.6-1 2.5-1m0-2c-1.5 0-2.9.6-3.9 1.6-2.1 2.1-2.1 5.6 0 7.8 1 1 2.4 1.6 3.9 1.6s2.9-.6 3.9-1.6 1.6-2.4 1.6-3.9-.6-2.9-1.6-3.9c-1-1.1-2.4-1.6-3.9-1.6z"/><g><path fill="#E12529" d="M55.5 129.5c-2.5 0-4.5-2-4.5-4.5s2-4.5 4.5-4.5 4.5 2 4.5 4.5-2.1 4.5-4.5 4.5z"/><path fill="#FFF" d="M55.5 121.5c1.9 0 3.5 1.6 3.5 3.5s-1.6 3.5-3.5 3.5-3.5-1.6-3.5-3.5 1.5-3.5 3.5-3.5m0-2c-3 0-5.5 2.5-5.5 5.5s2.5 5.5 5.5 5.5S61 128 61 125s-2.5-5.5-5.5-5.5z"/></g></g></svg>