<svg xmlns="http://www.w3.org/2000/svg" viewBox="0 0 80.3 69" enable-background="new 0 0 80.3 69"><path d="M6.6 62.9c-.2.4-.4.8-.7 1.1-.3.3-.7.5-1.1.6-.4.1-.9.2-1.4.2h-.9v3.9h-2.5v-10.7h3.6c.5 0 .9.1 1.3.2s.7.3 1 .6c.3.3.5.6.7 1 .2.4.3.9.3 1.6 0 .5-.1 1.1-.3 1.5zm-2.5-2.6c-.2-.2-.4-.3-.8-.3h-.8v2.6h.8c.4 0 .6-.1.8-.3.2-.2.3-.5.3-1 0-.4-.1-.8-.3-1zm12.1 5.4c-.2.7-.4 1.3-.8 1.7-.3.5-.7.8-1.2 1-.5.2-1 .3-1.6.3-1.2 0-2.1-.4-2.8-1.3-.7-.9-1-2.3-1-4.1 0-1.9.3-3.3 1-4.2.7-.9 1.6-1.3 2.8-1.3 1.2 0 2.1.4 2.8 1.3.7.9 1 2.3 1 4.1.1 1 0 1.9-.2 2.5zm-2.4-4c-.1-.4-.1-.8-.2-1-.1-.3-.2-.4-.4-.5-.2-.2-.4-.2-.6-.2-.2 0-.4.1-.5.2-.1.1-.3.3-.4.5-.1.2-.2.6-.2 1s-.1 1-.1 1.6c0 .6 0 1.2.1 1.6.1.4.1.8.2 1 .1.3.2.4.4.5.1.1.3.2.5.2s.4-.1.5-.2c.2-.1.3-.3.4-.5.1-.2.2-.6.2-1s.1-1 .1-1.6v-1.6zm11.2 5.3c-.2.4-.4.7-.7 1-.3.3-.7.5-1.1.6-.4.1-.9.2-1.4.2-.4 0-.8 0-1.1-.1-.3-.1-.6-.2-.9-.4l-.8-.6c-.2-.2-.5-.5-.7-.8l1.7-1.6 1 1c.3.2.6.3.8.3.3 0 .5-.1.7-.2.2-.1.3-.4.3-.6v-.4c0-.1-.1-.2-.2-.4-.1-.1-.2-.2-.4-.3-.2-.1-.4-.2-.7-.4-.5-.2-1-.5-1.3-.7-.4-.2-.7-.5-.9-.7-.2-.3-.4-.6-.5-.9-.1-.3-.2-.7-.2-1.1 0-.4.1-.8.2-1.2.2-.4.4-.7.7-1 .3-.3.6-.5 1-.7.4-.2.9-.2 1.4-.2.4 0 .8 0 1.1.1l.9.3c.3.1.5.3.7.5l.7.7-1.8 1.6c-.2-.2-.3-.4-.5-.5l-.4-.4c-.1-.1-.2-.2-.4-.2l-.4-.1c-.2 0-.4.1-.6.2-.1.2-.2.3-.2.5 0 .1 0 .3.1.4 0 .1.1.2.2.3.1.1.2.2.4.3.2.1.4.2.7.3.5.2 1 .5 1.4.7.4.2.7.5.9.8.2.3.4.6.5.9.1.3.2.7.2 1.2-.1.8-.2 1.2-.4 1.6zm6.8-6.8v8.4h-2.5v-8.4h-2.2v-2.2h6.9v2.2h-2.2zm10.6 8.4v-5.5c-.1.2-.1.4-.2.7l-.3.8c-.1.3-.2.6-.3.8l-.3.8-1 2.7-1-2.7c-.1-.2-.2-.5-.3-.8-.1-.3-.2-.6-.3-.8l-.3-.8c-.1-.3-.1-.5-.2-.7v5.4h-2.3v-10.5h2.3l.9 2.6.6 1.8c.2.6.3 1.1.4 1.4.1-.4.2-.9.4-1.4.2-.6.4-1.2.6-1.9l.9-2.6h2.3v10.6h-1.9zm10 0l-.4-2h-2.1l-.4 2h-2.6l2.8-10.6h2.6l2.7 10.6h-2.6zm-.9-4.4c-.1-.7-.2-1.3-.3-1.9-.1-.6-.2-1.1-.2-1.6-.1.5-.1 1-.2 1.6-.1.6-.2 1.2-.3 1.9l-.1.3h1.3l-.2-.3zm9-4v8.4h-2.5v-8.4h-2.2v-2.2h6.9v2.2h-2.2zm4.5 8.4v-10.6h6.2v2.2h-3.7v1.8h2.4v2.2h-2.4v2.3h3.8v2.2h-6.3zm15-1.6c-.2.4-.4.7-.7 1-.3.3-.7.5-1.1.6-.4.1-.9.2-1.4.2-.4 0-.8 0-1.1-.1-.3-.1-.6-.2-.9-.4l-.8-.6c-.2-.2-.5-.5-.7-.8l1.7-1.6 1 1c.3.2.6.3.8.3.3 0 .5-.1.7-.2.2-.1.3-.4.3-.6v-.4c0-.1-.1-.2-.2-.4-.1-.1-.2-.2-.4-.3-.2-.1-.4-.2-.7-.4-.5-.2-1-.5-1.3-.7-.4-.2-.7-.5-.9-.7-.2-.3-.4-.6-.5-.9-.1-.3-.2-.7-.2-1.1 0-.4.1-.8.2-1.2.2-.4.4-.7.7-1 .3-.3.6-.5 1-.7.4-.2.9-.2 1.4-.2.4 0 .8 0 1.1.1l.9.3c.3.1.5.3.7.5l.7.7-1.8 1.6c-.2-.2-.3-.4-.5-.5l-.4-.4c-.1-.1-.2-.2-.4-.2l-.4-.1c-.2 0-.4.1-.6.2-.2.3-.2.5-.2.7 0 .1 0 .3.1.4 0 .1.1.2.2.3.1.1.2.2.4.3.2.1.4.2.7.3.5.2 1 .5 1.4.7.4.2.7.5.9.8.2.3.4.6.5.9.1.3.2.7.2 1.2-.1.6-.2 1-.4 1.4zm-12.2-50.7c-1.8-2.4-4.8-3.7-7.8-3.1-1.1.2-2.1.7-3 1.3-.4.3-.8.6-1.1 1l-2.3-1.8c.7-.2 2.7-1.1 1.9-1.5-.2-.1-.7-.2-1.3-.2l1.6-1.4.4-.3 3-2.6-1.5-2.7-4.6 4.1-.5.4c-1-.1-1.9 0-2.4.1-1 .2-1.9.3-2.3.2-1.5-.3-1.9-1.9-2.6-2.8-.4-.5-1.2-.6-1.2-1 .2 0 .4-.1.6-.2.8-.4 1.1-.8 1.3-1.3.3-.6 0-1.7-.4-2.6.3-.2 1.6-1.3 1.6-1.4 0-.1-1.6.2-2.3.3l-.3-.3c-.5-.4-1-.8-2.3-.3-2.2.9-2.1 2.6-1.4 4.2.3.7.9 1.2 1.6 1.4l-.1.2.1-.2c-3.5 3.1-11.6 8.4-13.8 8.5 1.8.7 6.9.8 9-.5-.6 2.4-.6 4.9.4 6.1-.8.6-1.6 1.2-2 1.6-.3.3-.2.5.1.8 0 0 2.1 0 2.7-.5l.4-.4 2.9 2-.3 2.9c-.5 0-1 0-1.5.1-1.1.2-2.1.7-3 1.3-3.5 2.5-4.3 7.4-1.8 10.8 1.8 2.5 4.9 3.7 7.8 3.1 1.1-.2 2.1-.7 3-1.3 3.2-2.3 4.1-6.6 2.3-10l.6-.4c.6.3 1.3.3 1.9-.1.6-.4.8-1.1.7-1.7.8-.2 1.6-.5 2.5-.8.9-.3 1.1-.6.8-1-.3-.6-2.7-.1-3-.4l-.7-1.5 1.3-9.6 2.2 1.6c-1.8 2.6-1.9 6.2.1 8.9 1.8 2.5 4.9 3.7 7.8 3.1 1.1-.2 2.1-.7 3-1.3 3.6-2.4 4.4-7.3 1.9-10.8zm-20.2-5c1.1.1 2.3 0 3.4-.2l.4.8c-.8.1-1.7.1-2.4.3-.7.2-2.3-1.4-1.4-.9zm-7.5 9.4c.2 0 .5 0 .7-.1 2.1-.2 3.5-.4 4.5-.6l-2.6 2.5-2.6-1.8zm6.7-.5c-.6 2-1.1 3.3-1.5 4.3l-1.7-1.2 3.2-3.1zm-3.9 7.7c1.6.2 3 1 4 2.3l-4.5 2.9.5-5.2zm2.7 11.2c-.7.5-1.5.9-2.4 1-2.4.5-4.8-.5-6.2-2.5-2-2.8-1.4-6.6 1.4-8.6.7-.5 1.5-.9 2.4-1 .3-.1.7-.1 1-.1l-.6 6.3c0 .2.1.4.3.5.1.1.3.1.4.1.1 0 .1 0 .2-.1l5.4-3.5c1.4 2.7.7 6.1-1.9 7.9zm2.6-9.7c-1.3-1.7-3.1-2.8-5.2-3l.2-2.2 1.8 1.2c-.2.7-.1 1.1.5 1.3l3.1 1.2c-.1.4-.1.8.1 1.2l-.5.3zm2-2.7c-.3 0-.5.1-.8.2-.1-.2-.3-.3-.7-.6-.3-.2-1.6-.9-1.5-1.1.2-.6.6-1.4 1.2-2.6.6.7 1.3 1.9 1.9 3.1l-.1 1zm.6-4.3l-1.4-3.2c0-.5 0-1-.1-1.4l2.4-2.3-.9 6.9zm-2.2-5.4c-1.5-1.1-4.5-.6-6.5-.2.7-1.4 1.9-2.9 2.3-4.6.2 1.1 3.8 2.3 3.8 2.3s1.6-.4 3-.9l.5.4-3.1 3zm16.5 8.9c-.7.5-1.5.9-2.4 1-2.4.5-4.8-.5-6.3-2.5-1.6-2.2-1.5-5-.1-7.1l5 3.7c.1.1.2.1.3.1.1 0 .2-.1.3-.2.2-.2.1-.5-.1-.7l-4.8-3.8c.2-.2.5-.5.8-.7.7-.5 1.5-.9 2.4-1 2.4-.5 4.8.5 6.2 2.5 2.1 2.8 1.5 6.7-1.3 8.7zm-37.7-3.9l-1.5-2.7-.4 3.1-3 .6 2.8 1.3-.3 3 2.1-2.3 2.8 1.3-1.5-2.7 2.1-2.3-3.1.7zm-1.3 13l-1.5-2.7-.4 3.1-3 .6 2.8 1.3-.4 3.1 2.1-2.3 2.8 1.3-1.5-2.7 2.1-2.3-3 .6zm-10.2-4.6l-1.5-2.7-.4 3-3 .6 2.8 1.3-.4 3.1 2.1-2.3 2.8 1.3-1.4-2.7 2.1-2.3-3.1.7zm34-21.6c.4 0 1.4-.1 2.5 0l4.7-4.2-2.1-.2-5.1 4.4z" fill="#fff"/></svg>