<svg xmlns="http://www.w3.org/2000/svg" width="70" height="70" viewBox="365 364 70 70"><g fill="#FFF"><path d="M396.5 396.9c0-.8-.3-1.2-1.3-1.2H392v2.4h3.1c1.1 0 1.4-.4 1.4-1.2zm-1 2.6h-2.3c-.9 0-1.2.3-1.2.8v1.7h3.5c1.1 0 1.4-.4 1.4-1.3 0-.7-.3-1.2-1.4-1.2z"/><path d="M365 364v70h70v-70h-70zm21.3 35.8c0 2.9-1.9 4-4.6 4-2.7 0-4.6-1-4.6-4v-5.3c0-.2.1-.2.2-.2h1.8v5.5c0 1.8.8 2.5 2.6 2.5s2.6-.7 2.6-2.5v-5.3c0-.2.1-.2.2-.2h1.8v5.5zm9.4 3.8h-4.9c-.5 0-.7-.2-.7-.6v-8.2c0-.5.2-.7.9-.7h4c1.7 0 3.4.3 3.4 2.4 0 .9-.3 1.7-1.1 2.1 1.1.3 1.5 1.2 1.5 2.4.1 1.9-1.2 2.6-3.1 2.6zm13.2-5.5c.1 0 .1 0 .1.1l-.5 1.2c0 .1-.1.2-.3.2h-2.6c-.9 0-1.2.3-1.2.8v1.7h6c.1 0 .1 0 .1.1l-.5 1.3c0 .1-.1.2-.3.2h-6.6c-.5 0-.7-.2-.7-.6v-8.2c0-.5.2-.7.9-.7h7.1c.1 0 .1 0 .1.1l-.5 1.3c0 .1-.1.2-.3.2h-5.3v2.4h4.5zm13.8 5.5H421c-.1 0-.2-.1-.3-.2l-1.9-3.4h-1.7c-.9 0-1.2.3-1.2.8v2.7h-1.7c-.2 0-.2-.1-.2-.2v-8.5c0-.5.2-.7.9-.7h4c2.3 0 3.7.6 3.7 2.9 0 1.8-.8 2.4-1.9 2.7l2.1 3.6c.1.2.1.3-.1.3z"/><path d="M419.2 395.7h-3.3v2.8h3.3c1.2 0 1.5-.5 1.5-1.4-.1-.9-.3-1.4-1.5-1.4z"/></g></svg>