<svg xmlns="http://www.w3.org/2000/svg" viewBox="0 0 76 76" enable-background="new 0 0 76 76"><g fill="#231F20"><path d="M18.8 45.4h-3.3c-1.9 0-3.4 1.5-3.4 3.4s1.5 3.4 3.4 3.4h3.3c1.9 0 3.4-1.5 3.4-3.4.1-1.8-1.5-3.4-3.4-3.4zm0 6h-3.3c-1.4 0-2.6-1.2-2.6-2.6 0-1.4 1.2-2.6 2.6-2.6h3.3c1.4 0 2.6 1.2 2.6 2.6 0 1.5-1.1 2.6-2.6 2.6zM27.6 39.8h21.8c1.9 0 3.4-1.5 3.4-3.4v-3.7h-8.4c-1.4 0-2.6-1.2-2.6-2.6 0-1.4 1.2-2.6 2.6-2.6h8.4v-3.7c0-1.9-1.5-3.4-3.4-3.4H27.6c-1.9 0-3.4 1.5-3.4 3.4v3.7h4.2c1.4 0 2.6 1.2 2.6 2.6 0 1.4-1.2 2.6-2.6 2.6h-4.2v3.7c-.1 1.9 1.5 3.4 3.4 3.4zm-2.7-6.3h3.4c1.9 0 3.4-1.5 3.4-3.4s-1.5-3.4-3.4-3.4h-3.4v-2.9c0-1.4 1.2-2.6 2.6-2.6h21.8c1.4 0 2.6 1.2 2.6 2.6v2.9h-7.6c-1.9 0-3.4 1.5-3.4 3.4s1.5 3.4 3.4 3.4h7.6v2.9c0 1.4-1.2 2.6-2.6 2.6H27.6c-1.4 0-2.6-1.2-2.6-2.6v-2.9zM38 .8C17.5.8.8 17.5.8 38S17.5 75.2 38 75.2 75.2 58.5 75.2 38 58.5.8 38 .8zm24.8 62.6C56.4 69.7 47.6 73.5 38 73.5 18.4 73.5 2.5 57.6 2.5 38c0-3.2.4-6.2 1.2-9.1h8.4c1.4 0 2.6 1.2 2.6 2.6 0 1.4-1.2 2.6-2.6 2.6H2.7c0 .3-.1.5-.1.8H12c1.9 0 3.4-1.5 3.4-3.4s-1.5-3.4-3.4-3.4H3.9c-.1.2-.1.5-.2.7C7.8 13.6 21.6 2.5 38 2.5c6.8 0 13.1 1.9 18.5 5.2-.5-.3-.9-.6-1.4-.8H43.2c-1.9 0-3.4 1.5-3.4 3.4s1.5 3.4 3.4 3.4h20.7l-.8-.8H43.2c-1.4 0-2.6-1.2-2.6-2.6s1.2-2.6 2.6-2.6h13.3c10.2 6.3 17 17.5 17 30.3 0 2.6-.3 5.2-.8 7.7.1-.3.1-.5.2-.8H58.5c-1.9 0-3.4 1.5-3.4 3.4V52h4.2c1.4 0 2.6 1.2 2.6 2.6 0 1.4-1.2 2.6-2.6 2.6H22.5v3.7c0 1.9 1.5 3.4 3.4 3.4h36l.9-.9H25.9c-1.4 0-2.6-1.2-2.6-2.6V58h36c1.9 0 3.4-1.5 3.4-3.4s-1.5-3.4-3.4-3.4h-3.4v-2.9c0-1.4 1.2-2.6 2.6-2.6h14.2c-1.5 6.9-5 13-9.9 17.7z"/></g></svg>