<svg xmlns="http://www.w3.org/2000/svg" viewBox="0 0 74 74" enable-background="new 0 0 74 74"><path fill="#231F20" d="M37 .4C16.8.4.4 16.8.4 37S16.8 73.6 37 73.6 73.6 57.2 73.6 37 57.2.4 37 .4zM37 2c16 0 29.5 10.8 33.7 25.4l-6.4 2.8c-.3-.5-.9-.8-1.6-.8-1.1 0-1.9.9-1.9 1.9 0 .6.3 1.1.7 1.5l-3.9 7.7c-.2 0-.3-.1-.5-.1h-.3l-7.1-19.6c.5-.3.9-.9.9-1.6 0-1.1-.9-1.9-1.9-1.9s-1.9.9-1.9 1.9c0 .5.2 1 .5 1.3L41 29.6c-.2-.1-.5-.1-.7-.1-.9 0-1.7.6-1.9 1.5H28.1c-.2-.9-1-1.5-1.9-1.5-1.1 0-1.9.9-1.9 1.9 0 .5.2 1 .6 1.4L19.3 42c-.2-.1-.5-.2-.8-.2-1.1 0-1.9.9-1.9 1.9v.3L3.7 47.8C2.6 44.4 2 40.8 2 37 2 17.7 17.7 2 37 2zm26.8 29.3c0 .6-.5 1.1-1.1 1.1h-.1c-.1 0-.3-.1-.4-.1-.1-.1-.2-.1-.3-.2-.2-.2-.3-.5-.3-.7 0-.6.5-1.1 1.1-1.1.3 0 .6.1.8.3.2.2.3.4.3.7zm-7.1 10c.1-.1.3-.1.4-.1h.1c.1 0 .3.1.4.1.1.1.2.1.3.2.2.2.3.5.3.7 0 .6-.5 1.1-1.1 1.1s-1.1-.4-1.1-1c0-.3.1-.6.4-.8 0-.1.2-.2.3-.2zM49.4 20c-.1.1-.2.2-.3.2-.1 0-.3.1-.4.1h-.2c-.3-.1-.5-.2-.7-.5-.1-.2-.2-.4-.2-.6 0-.6.5-1.1 1.1-1.1s1.1.5 1.1 1.1c0 .3-.2.6-.4.8zm-8 11.3c0 .6-.5 1.1-1.1 1.1-.5 0-.9-.3-1-.7 0-.1-.1-.3-.1-.4 0-.1 0-.3.1-.4.2-.4.6-.7 1-.7h.3c.3.1.5.2.7.5 0 .2.1.4.1.6zm-14.1 0c0 .1 0 .3-.1.4-.2.4-.6.7-1 .7H26c-.1 0-.3-.1-.4-.1l-.3-.3c-.1-.2-.2-.4-.2-.7 0-.6.5-1.1 1.1-1.1.5 0 .9.3 1 .7.1.2.1.3.1.4zm-7.7 12.5c0 .6-.5 1.1-1.1 1.1-.3 0-.6-.1-.8-.3-.1-.1-.2-.2-.2-.3-.1-.1-.1-.3-.1-.4v-.1c0-.6.5-1.1 1.1-1.1.1 0 .2 0 .4.1.1 0 .3.1.4.2l.3.3v.5zM37 72C21.7 72 8.8 62.2 4 48.5l12.9-3.7c.3.5.9.9 1.6.9 1.1 0 1.9-.9 1.9-1.9 0-.5-.2-.9-.5-1.3l5.7-9.4c.2.1.4.1.6.1.9 0 1.7-.6 1.9-1.5h10.3c.2.9 1 1.5 1.9 1.5 1.1 0 1.9-.9 1.9-1.9 0-.5-.2-1-.5-1.3l6.3-9.1c.2.1.5.1.7.1h.3l7.1 19.6c-.5.3-.9.9-.9 1.6 0 1.1.9 1.9 1.9 1.9s1.9-.9 1.9-1.9c0-.6-.3-1.1-.7-1.5l3.9-7.7c.2 0 .3.1.5.1 1.1 0 1.9-.9 1.9-1.9v-.4l6.3-2.7C71.6 31 72 34 72 37c0 19.3-15.7 35-35 35z"/></svg>