<svg xmlns="http://www.w3.org/2000/svg" viewBox="0 0 74 82" enable-background="new 0 0 74 82"><path fill="#231F20" d="M62.6 18.2l8.2-1-2.4-6.8 2.4-6.9-7.2.8V.6l-17.2 2V.3h-.8v8.6c-2.8-.7-5.6-1-8.6-1C16.6 7.9.1 24.4.1 44.8S16.6 81.7 37 81.7s36.9-16.6 36.9-36.9c0-10.4-4.3-19.9-11.3-26.6zm8.7 18.2L60 32.3l-13.6 1.5V16.3l6.2-.7v3.8l7.8-.9c5.3 4.6 9.2 10.9 10.9 17.9zM63.6 5.2l6-.7-2.1 5.9 2.1 6.1-16.3 1.9v-3l2.7-.3 2.4-.3 5.1-.6v-9zM46.4 3.4l16.4-1.9v12l-5.3.6-2.5.3-1.6.2-.8.1-6.2.7v-12zM37 9.5c3 0 5.8.4 8.6 1.1v23.3l-27.5 3-12.4-8.5C11.6 17.2 23.4 9.5 37 9.5zM1.7 44.8c0-5.6 1.3-10.9 3.7-15.6l12.5 8.5 27.7-3V38c-1.2.2-2.1 1.2-2.1 2.5 0 1.4 1.1 2.5 2.5 2.5 1.1 0 2.1-.7 2.4-1.8 2.2.7 5.7 2.3 5.8 3.8.1.9-1.3 1.7-2.4 2.2-3 1.3-8.4 1.7-14.2 2-8.5.5-18.2 1.1-22.1 5.3-.7.7-.9 1.4-.7 2.1.8 2.3 7.1 3.3 14.4 4.5 7.5 1.2 15.9 2.7 17 5.4.3.6.1 1.3-.5 2.1-2.9 4-15.7 5.7-27 6.3.4.3.8.5 1.3.7C9.1 69.6 1.7 58 1.7 44.8zm43.9-6c.1 0 .3-.1.4-.1s.3 0 .4.1c.7.2 1.3.8 1.3 1.6 0 .9-.8 1.7-1.7 1.7-.9 0-1.7-.8-1.7-1.7 0-.8.5-1.4 1.3-1.6zM37 80.1c-6.2 0-12-1.6-17.1-4.4 11.1-.7 23.4-2.5 26.4-6.6.7-1 .9-2 .6-2.9-1.3-3.2-9.6-4.6-17.7-5.9-6.5-1.1-13.2-2.2-13.8-4 0-.1-.2-.5.5-1.3 3.7-3.9 13.2-4.5 21.6-5 5.8-.4 11.3-.7 14.5-2.1 2-.9 3-1.9 2.9-3-.2-2.5-5.8-4.3-6.5-4.5 0-1.2-.9-2.2-2.1-2.4v-3.4l13.5-1.5 11.6 4.2c.5 2.4.8 4.9.8 7.4.1 19.5-15.7 35.4-35.2 35.4z"/></svg>