<svg xmlns="http://www.w3.org/2000/svg" viewBox="0 0 79 78" enable-background="new 0 0 79 78"><path fill="#2D2C2A" d="M78.8 13.5H65.6V.3H51.7v5c-4.3-1.7-9-2.7-13.9-2.7C17.1 2.6.2 19.5.2 40.1S17 77.6 37.7 77.6C58.3 77.7 75 61 75.3 40.5h3.5v-27zm-64.9-.1c-.3.2-.6.5-.8.8.2-.3.5-.5.8-.8zm-.9.8v12.6h25.8v12.1H1.9c.4-9.7 4.6-18.4 11.1-24.7zM3.8 51.8c.1.2.2.5.3.8-.1-.3-.2-.6-.3-.8zm.3.8h21.8V74c-10-3.5-18.1-11.4-21.8-21.4zM37.8 76c-3.8 0-7.5-.6-11-1.7v-8.8h12.9V52.6h12.1v12.9h11.5C56.6 72 47.7 76 37.8 76zm25.8-11c.1-.1.2-.3.4-.4H52.5V51.8H38.8v12.9H26.7V51.8H3.8c-1.2-3.6-1.9-7.5-1.9-11.6v-1 .6h37.7V26H13.9V13.4c6.3-5.7 14.7-9.1 23.9-9.1 4.9 0 9.6 1 13.9 2.8v20.3h13.1v13.1h8.8c-.1 9.5-3.9 18.2-10 24.5zm14.3-25.3H65.6V26.6H52.5V1.2h12.3v13.1h13.1v25.4z"/></svg>