<svg xmlns="http://www.w3.org/2000/svg" viewBox="0 0 78 75" enable-background="new 0 0 78 75"><g fill="#231F20"><path d="M32.194 31.01l-.38-.705 34.088-18.33.38.706zM67.8 3.1l-8 4.3C53.6 2.8 46 .1 37.7.1 17.1.1.3 16.9.3 37.5s16.8 37.4 37.4 37.4 37.4-16.8 37.4-37.4c0-5.9-1.4-11.4-3.8-16.4l4.7-2.6-8.2-15.4zM2 37.5C2 17.8 18 1.8 37.7 1.8c7.6 0 14.7 2.4 20.5 6.5L21.6 27.9l1.3 2.5-6.7 3.6 1.3 2.5-11 5.8 2.6 4.9 11-5.8 1.3 2.5 6.7-3.6 1.6 3 5.3-2.9c-.2.4-.3.8-.3 1.3 0 .8.3 1.6.9 2.1H32v.8h4.4L25.3 71C11.7 66 2 52.8 2 37.5zm15.3-3.1l6-3.2 4.6 8.6-6 3.2-4.6-8.6zm2.5 6.4L9.6 46.3l-1.9-3.5L18 37.3l1.8 3.5zm17.6 32.4c-4 0-7.8-.7-11.3-2L31 59.8l6.4 2.5h.1v10.9zm0-11.8L31.3 59l6-14.2h.1v16.6zm-1.7-19.5c0-1.2.9-2.1 2.1-2.1 1.2 0 2.1.9 2.1 2.1 0 1.2-.9 2.1-2.1 2.1-1.2 0-2.1-1-2.1-2.1zm2.5 31.3V61.9l6.3-2.3-.3-.8-6 2.2V44.8h.1l11.2 26.4c-3.5 1.3-7.3 2-11.3 2zm35.3-35.7c0 15.3-9.6 28.3-23.2 33.5L39.2 44.8h5.2V44h-4.6c.6-.5.9-1.3.9-2.1 0-1.5-1.1-2.7-2.6-2.9l31.7-17.1c2.3 4.7 3.7 10 3.7 15.6zm-2.6-17.1l-.9.4-39.8 21.5-7.5-14L58.9 8.7l.9-.5 7.6-4.1 7.5 14-4 2.3zM71.964 4.43l.706-.378 4.94 9.265-.706.377z"/></g></svg>