<svg xmlns="http://www.w3.org/2000/svg" viewBox="0 0 75 82" enable-background="new 0 0 75 82"><g fill="#231F20"><path d="M31.5 34.2h16.2v.8H31.5zM38 4.5c1.1 0 1.9-.9 1.9-1.9s-.9-2-1.9-2c-1.1 0-1.9.9-1.9 1.9s.8 2 1.9 2zm0-3.1c.6 0 1.1.5 1.1 1.1s-.5 1.2-1.1 1.2c-.6 0-1.1-.5-1.1-1.1s.5-1.2 1.1-1.2zM12.9 46.7c-1.1 0-1.9.9-1.9 1.9s.9 1.9 1.9 1.9 1.9-.9 1.9-1.9-.8-1.9-1.9-1.9zm0 3c-.6 0-1.1-.5-1.1-1.1 0-.6.5-1.1 1.1-1.1.6 0 1.1.5 1.1 1.1 0 .6-.5 1.1-1.1 1.1zM54.9 28.1c-1 0-1.9.9-1.9 1.9s.9 1.9 1.9 1.9 1.9-.9 1.9-1.9-.8-1.9-1.9-1.9zm0 3c-.6 0-1.1-.5-1.1-1.1s.5-1.1 1.1-1.1c.6 0 1.1.5 1.1 1.1s-.4 1.1-1.1 1.1zM55.7 57.7c-1.6 0-3 1.3-3 3 0 1.6 1.3 3 3 3 1.6 0 3-1.3 3-3-.1-1.7-1.4-3-3-3zm0 5.1c-1.2 0-2.2-1-2.2-2.2 0-1.2 1-2.2 2.2-2.2s2.2 1 2.2 2.2c-.1 1.3-1 2.2-2.2 2.2zM50.1 9.9c-1.3-4.5-4-9-4.2-9.3l-.7.3c.1.4.1.7.2 1.1.6 3 .9 4.3-2.1 6-.1 0-.1.1-.2.1-1.8-.3-3.7-.4-5.6-.4C17.2 7.6.6 24.2.6 44.5s16.5 36.9 36.9 36.9 36.9-16.5 36.9-36.9c0-15.9-10.1-29.4-24.3-34.6zm-8.2-1.2l1.2-.6-1.2.6zm-5.1 71.1l-2.3-28.9h4.7v28.9h-2.4zm10.4-35l-2.4 5.3H34.3l-2.4-5.3h15.3zM29.1 44l-4.4-5h29.9l-4.4 5H29.1zm15.6 6.9l-2.3 28.6c-.8.1-1.6.2-2.4.2V50.9h4.7zm-2.3 28.6c.3 0 .5-.1.8-.1l2.3-28.8 2.5-5.7-.2-.1h2.5l5.9-6.6H22.8l5.9 6.6h2.5l-.2.1 2.5 5.7L36 79.8h.3c-18.9-.7-34-16.2-34-35.2C2.2 25.1 18 9.3 37.5 9.3c1 0 2 .1 3 .1l-1.2.6c-5 2.3-10.8 4.8-11.7 11-.3 2.1.1 3.8 1.3 5.3 2.6 3.3 7.7 3.8 7.9 3.8l6.9 1.6-.2-1.9c0-.4.6-.6 1.9-.9.9-.2 2-.4 3.2-.9 2.9-1.3 3-8.3 3-8.6l-.8-.2c-1 1.9-2.1 2.9-3.3 2.9-1.5 0-2.9-1.6-3.6-3.1-.3-.5-.7-.6-.9-.7-1.6-.1-4.2 3.3-4.7 4l.7.5c1.1-1.5 3.1-3.7 4-3.7.1 0 .2 0 .3.2 1.1 2.2 2.8 3.5 4.4 3.5 1.2 0 2.2-.7 3.2-1.9-.2 2.3-.9 5.6-2.5 6.3-1 .5-2.1.7-3 .9-1.4.3-2.7.6-2.6 1.8l.1.8-5.9-1.3c-.1 0-5.1-.5-7.4-3.5-1-1.3-1.4-2.9-1.1-4.7.8-5.7 6.3-8.2 11.2-10.4.9-.4 1.7-.8 2.5-1.1.6-.3 1.2-.6 1.7-.9 2.9-1.7 3.1-3.2 2.8-5.5 1.1 2.1 2.6 5.3 3.2 8.3.4 2.1.4 4-.5 5.3l.7.5c1-1.4 1.1-3.4.7-5.4C63.8 17.2 73 29.9 73 44.8c-.2 17.5-13.5 32.3-30.6 34.7zm-.6-70.7c-.4.2-.8.4-1.3.6.4-.2.8-.4 1.3-.6zm8.6 2z"/></g></svg>