<svg xmlns="http://www.w3.org/2000/svg" viewBox="0 0 75 75" enable-background="new 0 0 75 75"><g fill="#231F20"><path d="M37.5.3C17 .3.3 17 .3 37.5S17 74.7 37.5 74.7 74.7 58 74.7 37.5 58 .3 37.5.3zm0 72.8c-19.6 0-35.6-16-35.6-35.6s16-35.6 35.6-35.6 35.6 16 35.6 35.6-16 35.6-35.6 35.6zM51.1 26.4l-4.1-.1c-.2-1.9-1.8-3.4-3.7-3.4-1 0-2 .4-2.7 1.1-.6.6-1 1.4-1.1 2.2l-4.8-.1h-.2c-2.7 0-5.3 1-7.2 2.9L11.5 44.3l1.7 5.6 17 .3 3.4-3.3 17.1.3h.5c2.7 0 5.2-1.1 7.1-2.9 4.1-4 4.2-10.6.2-14.7-2-2.1-4.6-3.2-7.4-3.2zm-10-1.9c.6-.6 1.3-.9 2.1-.8.8 0 1.6.3 2.1.9.5.5.7 1.1.8 1.7l-5.9-.1c.1-.6.4-1.2.9-1.7zm-13.3 5.1c1.8-1.7 4.2-2.7 6.7-2.7l12.7.2c-1.2.5-2.4 1.2-3.3 2.2l-15.5 15-15.4-.2 14.8-14.5zm.7 15zm-14.6 4.5l-1.3-4.2 15.7.2 1.3 4.2-15.7-.2zm20.6-3l6.6-6.4c.5 1.6 1.3 3.1 2.5 4.3 1 1 2.1 1.7 3.3 2.3l-12.4-.2zm23.2-2.5c-1.8 1.7-4.2 2.7-6.7 2.7-2.6 0-5.1-1-6.9-2.9-1.2-1.3-2.1-2.9-2.5-4.6l-.2-.7L30.3 49 29 44.8l15.3-14.9c1.8-1.8 4.2-2.7 6.7-2.7 2.6 0 5 1 6.8 2.9 3.8 3.8 3.7 9.8-.1 13.5zM18.9 40.9l7.8.1-1.2-4-6.6 3.9zm2.9-.8l3.2-1.9.6 1.9h-3.8z"/></g></svg>