<svg xmlns="http://www.w3.org/2000/svg" viewBox="0 0 45.9 44.7" enable-background="new 0 0 45.9 44.7"><path fill="#fff" d="M30.5 44.7c-1.3 0-2.5-.4-3.6-1.1-10.1-6.7-19.1-15.6-25.8-25.8-1.7-2.5-1.3-6 .8-8.1l2.3-2.3c.8-.8 2-1.3 3.2-1.3s2.3.5 3.2 1.3l4.2 4.2c1.7 1.7 1.7 4.6 0 6.3l-1.2 1.1c3.6 4.4 7.8 8.6 12.2 12.2l1.1-1.1c.8-.8 2-1.3 3.2-1.3s2.3.5 3.2 1.3l4.2 4.2c1.7 1.7 1.7 4.6 0 6.3l-2.3 2.3c-1.3 1.2-2.9 1.8-4.7 1.8zm-23.2-37.6c-.9 0-1.8.4-2.4 1l-2.3 2.3c-1.8 1.8-2.1 4.7-.7 6.9 6.7 10.1 15.5 18.9 25.6 25.6.9.6 1.9.9 3 .9 1.5 0 2.8-.6 3.8-1.6l2.3-2.3c1.3-1.3 1.3-3.5 0-4.9l-4.2-4.2c-1.3-1.3-3.6-1.3-4.9 0l-1.7 1.7-.3-.3c-4.7-3.8-9.1-8.3-12.9-12.9l-.3-.4 1.7-1.7c1.3-1.4 1.3-3.5 0-4.9l-4.2-4.2c-.7-.7-1.5-1-2.5-1zm31.4 14.4h-1c0-7.9-6.4-14.4-14.4-14.4v-1c8.5 0 15.4 6.9 15.4 15.4zm-7.6-.4h-1c0-3.5-2.9-6.4-6.4-6.4v-1c4.1-.1 7.4 3.3 7.4 7.4zm13.943-20.933l.703.711-8.816 8.72-.703-.711zm.857 8.833h-1v-8h-7.9v-1h8.9z"/></svg>