<svg xmlns="http://www.w3.org/2000/svg" viewBox="0 0 45.9 44.7" enable-background="new 0 0 45.9 44.7"><path fill="#fff" d="M30.8 44.7c-1.3 0-2.5-.4-3.6-1.1-10.2-6.8-19.3-15.8-26.1-26.1-1.7-2.6-1.4-6 .8-8.2l2.3-2.3c.9-.9 2-1.3 3.2-1.3 1.2 0 2.3.5 3.2 1.3l4.2 4.2c1.8 1.8 1.8 4.6 0 6.4l-1.1 1.1c3.6 4.4 7.9 8.6 12.3 12.3l1.1-1.1c.9-.9 2-1.3 3.2-1.3 1.2 0 2.3.5 3.2 1.3l4.2 4.2c1.8 1.8 1.8 4.6 0 6.4l-2.3 2.3c-1.2 1.3-2.8 1.9-4.6 1.9zm-23.4-38c-.9 0-1.8.4-2.5 1l-2.3 2.3c-1.8 1.8-2.1 4.8-.7 6.9 6.7 10.2 15.7 19.1 25.9 25.9.9.6 2 .9 3 .9 1.5 0 2.9-.6 3.9-1.6l2.3-2.3c1.4-1.4 1.4-3.6 0-5l-4.2-4.2c-1.3-1.3-3.6-1.3-5 0l-1.7 1.7-.4-.3c-4.7-3.9-9.2-8.4-13.1-13.1l-.3-.4 1.7-1.7c1.4-1.4 1.4-3.6 0-5l-4.1-4.1c-.7-.7-1.5-1-2.5-1zm38.5 8.8c-8.6 0-15.5-7-15.5-15.5h1c0 8 6.5 14.5 14.5 14.5v1zm-.4-7.6c-4.1 0-7.5-3.4-7.5-7.5h1c0 3.6 2.9 6.5 6.5 6.5v1zm-13.406 4.107l.704.711-8.952 8.867-.704-.711zm.006 9.693h-9.1v-9.1h1v8.1h8.1z"/></svg>