<svg xmlns="http://www.w3.org/2000/svg" viewBox="0 0 543.8 499.4" enable-background="new 0 0 543.8 499.4"><path fill="#57C4C2" d="M514.3 278.9c-6.5 0-11.8-5.3-11.8-11.8 0-6.5 5.3-11.8 11.8-11.8s11.8 5.3 11.8 11.8c.1 6.5-5.2 11.8-11.8 11.8zm0-22.6c-6 0-10.8 4.9-10.8 10.8s4.9 10.8 10.8 10.8 10.8-4.9 10.8-10.8-4.8-10.8-10.8-10.8z"/><path fill="#56C4C2" d="M503 268.1h-51.3c-.1 0-.2-.1-.2-.2s.1-.2.2-.2h51.3c.1 0 .2.1.2.2s-.1.2-.2.2z"/><path stroke="#57C4C2" stroke-linecap="round" stroke-miterlimit="10" d="M491.4 267.8" fill="none"/><path fill="#56C4C2" d="M58.5 482.7c-.1 0-.2-.1-.2-.3v-439.5c0-.1.1-.3.2-.3s.2.1.2.3v439.5c0 .2-.1.3-.2.3z"/><circle fill="#57C4C2" cx="58.5" cy="366.3" r="2.5"/><circle fill="#57C4C2" cx="450.3" cy="116.2" r="2.5"/><circle fill="#57C4C2" cx="450.3" cy="227.5" r="2.5"/><circle fill="#57C4C2" cx="450.3" cy="295.3" r="2.5"/><circle fill="#57C4C2" cx="450.3" cy="406.7" r="2.5"/><circle fill="#57C4C2" cx="58.5" cy="442" r="2.5"/><circle fill="#57C4C2" cx="58.5" cy="140.2" r="2.5"/><circle fill="#57C4C2" cx="58.5" cy="215.8" r="2.5"/><path stroke="#fff" stroke-linecap="round" stroke-miterlimit="10" stroke-dasharray="0,7" d="M64.4 215.8" fill="none"/><path fill="#56C4C2" d="M58.6 267.3h-34.9c-.1 0-.2-.1-.2-.2s.1-.2.2-.2h34.9c.1 0 .2.1.2.2s-.1.2-.2.2zm221.3-224.4h-221.2c-.1 0-.3-.1-.3-.2s.1-.2.3-.2h221.2c.1 0 .3.1.3.2s-.1.2-.3.2zm-.7 152.4h-220.7c-.1 0-.2-.1-.2-.2s.1-.2.2-.2h220.7c.1 0 .2.1.2.2s-.1.2-.2.2zm0 148.8h-220.7c-.1 0-.2-.1-.2-.2s.1-.2.2-.2h220.7c.1 0 .2.1.2.2s-.1.2-.2.2zm0 138.6h-220.7c-.1 0-.2-.1-.2-.2s.1-.2.2-.2h220.7c.1 0 .2.1.2.2s-.1.2-.2.2zm171.1-.2c-.1 0-.2-.1-.2-.3v-438.6c0-.1.1-.3.2-.3s.2.1.2.3v438.7c.1.1 0 .2-.2.2zm0-438.6h-52.8c-.1 0-.3-.1-.3-.2s.1-.2.3-.2h52.8c.1 0 .3.1.3.2s-.2.2-.3.2zm0 151.2h-51.5c-.1 0-.2-.1-.2-.2s.1-.2.2-.2h51.5c.1 0 .2.1.2.2s-.1.2-.2.2zm0 148.8h-51.5c-.1 0-.2-.1-.2-.2s.1-.2.2-.2h51.5c.1 0 .2.1.2.2s-.1.2-.2.2zm0 138.6h-51.5c-.1 0-.2-.1-.2-.2s.1-.2.2-.2h51.5c.1 0 .2.1.2.2s-.1.2-.2.2zm-342.1-90.5h-49.7c-.1 0-.2-.1-.2-.2s.1-.2.2-.2h49.7c.1 0 .2.1.2.2s-.1.2-.2.2zm342 .1h-222.9c-.1 0-.3-.1-.3-.2s.1-.2.3-.2h222.9c.1 0 .3.1.3.2s-.2.2-.3.2zm-342-133.4h-49.7c-.1 0-.2-.1-.2-.2s.1-.2.2-.2h49.7c.1 0 .2.1.2.2s0 .2-.2.2zm342 .1h-223.4c-.1 0-.3-.1-.3-.2s.1-.2.3-.2h223.4c.1 0 .3.1.3.2s-.2.2-.3.2zm-342.2-130.8h-49.5c-.1 0-.2-.1-.2-.2s.1-.2.2-.2h49.5c.1 0 .2.1.2.2s-.1.2-.2.2zm342.2.1h-223c-.1 0-.3-.1-.3-.2s.1-.2.3-.2h223c.1 0 .3.1.3.2s-.2.2-.3.2z"/><path stroke="#fff" stroke-linecap="round" stroke-miterlimit="10" stroke-dasharray="0,7" d="M137.8 130.1" fill="none"/><circle fill="#2D2C2A" cx="203.4" cy="131.5" r="13.8"/><path fill="#fff" d="M203.4 145.9c-7.9 0-14.3-6.4-14.3-14.3s6.4-14.3 14.3-14.3 14.3 6.4 14.3 14.3-6.3 14.3-14.3 14.3zm0-27.7c-7.4 0-13.3 6-13.3 13.3s6 13.3 13.3 13.3 13.3-6 13.3-13.3-5.9-13.3-13.3-13.3z" opacity=".5"/><path fill="#fff" d="M152.2 148.8h-24.6c-3 0-5.5-2.5-5.5-5.5v-26.5c0-3 2.5-5.5 5.5-5.5h24.6c3 0 5.5 2.5 5.5 5.5v26.5c0 3-2.5 5.5-5.5 5.5zm-24.6-36.5c-2.5 0-4.5 2-4.5 4.5v26.5c0 2.5 2 4.5 4.5 4.5h24.6c2.5 0 4.5-2 4.5-4.5v-26.5c0-2.5-2-4.5-4.5-4.5h-24.6zm7.9 20.9v-7h1v6.1h2.5l.1.9h-3.6zm6.4 0h-1.7v-7h1.7c1.5 0 2.3.7 2.3 1.8 0 .7-.4 1.2-1 1.5.8.2 1.3.8 1.3 1.7 0 1.3-.9 2-2.6 2zm0-6.2h-.7v2.1h.7c.9 0 1.4-.4 1.4-1.1 0-.6-.4-1-1.4-1zm.1 2.9h-.8v2.5h.8c1 0 1.6-.4 1.6-1.2 0-.9-.6-1.3-1.6-1.3z"/><circle fill="#2D2C2A" cx="189.9" cy="131.5" r="16.6"/><path fill="#fff" d="M189.9 148.6c-9.4 0-17.1-7.7-17.1-17.1 0-9.4 7.7-17.1 17.1-17.1s17.1 7.7 17.1 17.1c0 9.5-7.7 17.1-17.1 17.1zm0-33.2c-8.9 0-16.1 7.2-16.1 16.1 0 8.9 7.2 16.1 16.1 16.1s16.1-7.2 16.1-16.1c0-8.9-7.3-16.1-16.1-16.1zm-4.7 19.5c-.8 0-1.5-.2-2.1-.5l.2-1c.5.3 1.2.6 2 .6s1.3-.4 1.3-1.1c0-.7-.3-1-1.4-1.5-1.4-.6-1.9-1.1-1.9-2.2 0-1.2.9-2 2.3-2 .7 0 1.3.2 1.7.4l-.2 1c-.4-.3-1-.6-1.6-.6-.9 0-1.2.5-1.2 1 0 .6.3.8 1.4 1.4 1.5.7 2 1.2 2 2.3-.1 1.4-1.1 2.2-2.5 2.2zm3.8-.1v-7.5h1v7.5h-1zm4.8-3h-.8v3h-1v-7.5h2c1.6 0 2.5.8 2.5 2.2 0 1.5-1.1 2.3-2.7 2.3zm.1-3.6h-.9v2.7h.8c1 0 1.6-.4 1.6-1.4 0-.8-.5-1.3-1.5-1.3z"/><path stroke="#fff" stroke-linecap="round" stroke-miterlimit="10" stroke-dasharray="0,7" d="M137.8 130.3" fill="none"/><circle fill="#2D2C2A" cx="203.4" cy="131.7" r="13.8"/><path fill="#fff" d="M203.4 146c-7.9 0-14.3-6.4-14.3-14.3s6.4-14.3 14.3-14.3 14.3 6.4 14.3 14.3-6.3 14.3-14.3 14.3zm0-27.7c-7.4 0-13.3 6-13.3 13.3s6 13.3 13.3 13.3 13.3-6 13.3-13.3-5.9-13.3-13.3-13.3z" opacity=".5"/><path fill="#fff" d="M152.2 149h-24.6c-3 0-5.5-2.5-5.5-5.5v-26.5c0-3 2.5-5.5 5.5-5.5h24.6c3 0 5.5 2.5 5.5 5.5v26.5c0 3-2.5 5.5-5.5 5.5zm-24.6-36.5c-2.5 0-4.5 2-4.5 4.5v26.5c0 2.5 2 4.5 4.5 4.5h24.6c2.5 0 4.5-2 4.5-4.5v-26.5c0-2.5-2-4.5-4.5-4.5h-24.6zm7.9 20.8v-7h1v6.1h2.5l.1.9h-3.6zm6.4 0h-1.7v-7h1.7c1.5 0 2.3.7 2.3 1.8 0 .7-.4 1.2-1 1.5.8.2 1.3.8 1.3 1.7 0 1.4-.9 2-2.6 2zm0-6.2h-.7v2.1h.7c.9 0 1.4-.4 1.4-1.1 0-.6-.4-1-1.4-1zm.1 2.9h-.8v2.5h.8c1 0 1.6-.4 1.6-1.2 0-.8-.6-1.3-1.6-1.3z"/><circle fill="#2D2C2A" cx="189.9" cy="131.7" r="16.6"/><path fill="#fff" d="M189.9 148.8c-9.4 0-17.1-7.7-17.1-17.1s7.7-17.1 17.1-17.1 17.1 7.7 17.1 17.1-7.7 17.1-17.1 17.1zm0-33.2c-8.9 0-16.1 7.2-16.1 16.1s7.2 16.1 16.1 16.1 16.1-7.2 16.1-16.1-7.3-16.1-16.1-16.1zm-4.7 19.5c-.8 0-1.5-.2-2.1-.5l.2-1c.5.3 1.2.6 2 .6s1.3-.4 1.3-1.1c0-.7-.3-1-1.4-1.5-1.4-.6-1.9-1.1-1.9-2.2 0-1.2.9-2 2.3-2 .7 0 1.3.2 1.7.4l-.2 1c-.4-.3-1-.6-1.6-.6-.9 0-1.2.5-1.2 1 0 .6.3.8 1.4 1.4 1.5.7 2 1.2 2 2.3-.1 1.4-1.1 2.2-2.5 2.2zm3.8-.1v-7.5h1v7.5h-1zm4.8-3.1h-.8v3h-1v-7.5h2c1.6 0 2.5.8 2.5 2.2 0 1.6-1.1 2.3-2.7 2.3zm.1-3.5h-.9v2.7h.8c1 0 1.6-.4 1.6-1.4 0-.9-.5-1.3-1.5-1.3z"/><path fill="#B3AEA2" d="M227.8 174.1h-120.3v-86.1h120.4v86.1zm-118.3-2h116.4v-82.1h-116.4v82.1z"/><path fill="#2D2C2A" d="M180.4 85.6c0-7-5.7-12.8-12.8-12.8-7 0-12.8 5.7-12.8 12.8 0 6.1 4.2 11.1 9.9 12.4l2.9 10.1 2.9-10.1c5.7-1.2 9.9-6.3 9.9-12.4z"/><path fill="#57C4C2" d="M167.6 108.6c-.2 0-.4-.1-.5-.4l-2.8-9.8c-5.9-1.5-10-6.7-10-12.8 0-7.3 5.9-13.3 13.3-13.3s13.3 5.9 13.3 13.3c0 6.1-4.1 11.3-10 12.8l-2.8 9.8c0 .3-.2.4-.5.4zm0-35.2c-6.8 0-12.3 5.5-12.3 12.3 0 5.7 3.9 10.6 9.5 11.9.2 0 .3.2.4.4l2.4 8.4 2.4-8.4c.1-.2.2-.3.4-.4 5.6-1.3 9.5-6.2 9.5-11.9 0-6.8-5.5-12.3-12.3-12.3zm0 21.2c-5 0-9-4-9-9s4-9 9-9 9 4 9 9-4 9-9 9zm0-17c-4.4 0-8 3.6-8 8s3.6 8 8 8 8-3.6 8-8-3.6-8-8-8z"/><path fill="#fff" d="M166 88.4h1.6v-5.9h-1.6v-1h2.9v7h1.5v1h-4.4v-1.1z"/><path stroke="#fff" stroke-linecap="round" stroke-miterlimit="10" stroke-dasharray="0,7" d="M137.8 273.9" fill="none"/><circle fill="#2D2C2A" cx="203.4" cy="275.2" r="13.8"/><path fill="#fff" d="M203.4 289.6c-7.9 0-14.3-6.4-14.3-14.3s6.4-14.3 14.3-14.3 14.3 6.4 14.3 14.3-6.3 14.3-14.3 14.3zm0-27.7c-7.4 0-13.3 6-13.3 13.3s6 13.3 13.3 13.3 13.3-6 13.3-13.3-5.9-13.3-13.3-13.3z" opacity=".5"/><path fill="#fff" d="M152.2 292.5h-24.6c-3 0-5.5-2.5-5.5-5.5v-26.5c0-3 2.5-5.5 5.5-5.5h24.6c3 0 5.5 2.5 5.5 5.5v26.5c0 3.1-2.5 5.5-5.5 5.5zm-24.6-36.5c-2.5 0-4.5 2-4.5 4.5v26.5c0 2.5 2 4.5 4.5 4.5h24.6c2.5 0 4.5-2 4.5-4.5v-26.5c0-2.5-2-4.5-4.5-4.5h-24.6zm7.9 20.9v-7h1v6.1h2.5l.1.9h-3.6zm6.4 0h-1.7v-7h1.7c1.5 0 2.3.7 2.3 1.8 0 .7-.4 1.2-1 1.5.8.2 1.3.8 1.3 1.7 0 1.3-.9 2-2.6 2zm0-6.2h-.7v2.1h.7c.9 0 1.4-.4 1.4-1.1 0-.6-.4-1-1.4-1zm.1 2.9h-.8v2.5h.8c1 0 1.6-.4 1.6-1.2 0-.9-.6-1.3-1.6-1.3z"/><circle fill="#2D2C2A" cx="189.9" cy="275.2" r="16.6"/><path fill="#fff" d="M189.9 292.3c-9.4 0-17.1-7.7-17.1-17.1s7.7-17.1 17.1-17.1 17.1 7.7 17.1 17.1-7.7 17.1-17.1 17.1zm0-33.2c-8.9 0-16.1 7.2-16.1 16.1 0 8.9 7.2 16.1 16.1 16.1s16.1-7.2 16.1-16.1c0-8.8-7.3-16.1-16.1-16.1zm-4.7 19.5c-.8 0-1.5-.2-2.1-.5l.2-1c.5.3 1.2.6 2 .6s1.3-.4 1.3-1.1c0-.7-.3-1-1.4-1.5-1.4-.6-1.9-1.1-1.9-2.2 0-1.2.9-2 2.3-2 .7 0 1.3.2 1.7.4l-.2 1c-.4-.3-1-.6-1.6-.6-.9 0-1.2.5-1.2 1 0 .6.3.8 1.4 1.4 1.5.7 2 1.2 2 2.3-.1 1.4-1.1 2.2-2.5 2.2zm3.8 0v-7.5h1v7.5h-1zm4.8-3.1h-.8v3h-1v-7.5h2c1.6 0 2.5.8 2.5 2.2 0 1.6-1.1 2.3-2.7 2.3zm.1-3.5h-.9v2.7h.8c1 0 1.6-.4 1.6-1.4 0-.9-.5-1.3-1.5-1.3z"/><path fill="#B3AEA2" d="M227.8 317.7h-120.3v-86.1h120.4v86.1zm-118.3-2h116.4v-82.1h-116.4v82.1z"/><path fill="#2D2C2A" d="M180.4 229.2c0-7-5.7-12.8-12.8-12.8-7 0-12.8 5.7-12.8 12.8 0 6.1 4.2 11.1 9.9 12.4l2.9 10.1 2.9-10.1c5.7-1.3 9.9-6.3 9.9-12.4z"/><path fill="#57C4C2" d="M167.6 252.2c-.2 0-.4-.1-.5-.4l-2.8-9.8c-5.9-1.5-10-6.7-10-12.8 0-7.3 5.9-13.3 13.3-13.3s13.3 5.9 13.3 13.3c0 6.1-4.1 11.3-10 12.8l-2.8 9.8c0 .2-.2.4-.5.4zm0-35.2c-6.8 0-12.3 5.5-12.3 12.3 0 5.7 3.9 10.6 9.5 11.9.2 0 .3.2.4.4l2.4 8.4 2.4-8.4c.1-.2.2-.3.4-.4 5.6-1.3 9.5-6.2 9.5-11.9 0-6.8-5.5-12.3-12.3-12.3zm0 21.2c-5 0-9-4-9-9s4-9 9-9 9 4 9 9-4 9-9 9zm0-17c-4.4 0-8 3.6-8 8s3.6 8 8 8 8-3.6 8-8-3.6-8-8-8z"/><path fill="#fff" d="M164.6 229.6l.9-.9h3l.3-.3v-1.8l-.4-.4h-2.1l-.4.4v.8h-1.4v-1.4l1-1h3.5l1.1 1.1v2.7l-.9.9h-3l-.3.3v1.8h4.2v1.1h-5.6v-3.3z"/><path stroke="#fff" stroke-linecap="round" stroke-miterlimit="10" stroke-dasharray="0,7" d="M308.5 57.9" fill="none"/><circle fill="#2D2C2A" cx="374.2" cy="59.3" r="13.8"/><path fill="#fff" d="M374.2 73.6c-7.9 0-14.3-6.4-14.3-14.3s6.4-14.3 14.3-14.3 14.3 6.4 14.3 14.3-6.4 14.3-14.3 14.3zm0-27.7c-7.4 0-13.3 6-13.3 13.3s6 13.3 13.3 13.3 13.3-6 13.3-13.3-6-13.3-13.3-13.3z" opacity=".5"/><path fill="#fff" d="M322.9 76.6h-24.6c-3 0-5.5-2.5-5.5-5.5v-26.5c0-3 2.5-5.5 5.5-5.5h24.6c3 0 5.5 2.5 5.5 5.5v26.5c0 3-2.5 5.5-5.5 5.5zm-24.6-36.5c-2.5 0-4.5 2-4.5 4.5v26.5c0 2.5 2 4.5 4.5 4.5h24.6c2.5 0 4.5-2 4.5-4.5v-26.5c0-2.5-2-4.5-4.5-4.5h-24.6zm7.9 20.8v-7h1v6.1h2.5l.1.9h-3.6zm6.5 0h-1.7v-7h1.7c1.5 0 2.3.7 2.3 1.8 0 .7-.4 1.2-1 1.5.8.2 1.3.8 1.3 1.7 0 1.4-1 2-2.6 2zm0-6.2h-.7v2.1h.7c.9 0 1.4-.4 1.4-1.1-.1-.6-.5-1-1.4-1zm0 3h-.8v2.5h.8c1 0 1.6-.4 1.6-1.2 0-.9-.5-1.3-1.6-1.3z"/><circle fill="#2D2C2A" cx="360.6" cy="59.3" r="16.6"/><path fill="#fff" d="M360.6 76.4c-9.4 0-17.1-7.7-17.1-17.1s7.7-17.1 17.1-17.1 17.1 7.7 17.1 17.1-7.7 17.1-17.1 17.1zm0-33.2c-8.9 0-16.1 7.2-16.1 16.1s7.2 16.1 16.1 16.1c8.9 0 16.1-7.2 16.1-16.1s-7.3-16.1-16.1-16.1zm-4.7 19.5c-.8 0-1.5-.2-2.1-.5l.2-1c.5.3 1.2.6 2 .6s1.3-.4 1.3-1.1c0-.7-.3-1-1.4-1.5-1.4-.6-1.9-1.1-1.9-2.2 0-1.2.9-2 2.3-2 .7 0 1.3.2 1.7.4l-.2 1c-.4-.3-1-.6-1.6-.6-.9 0-1.2.5-1.2 1 0 .6.3.8 1.4 1.4 1.5.7 2 1.2 2 2.3-.1 1.4-1.1 2.2-2.5 2.2zm3.9-.1v-7.5h1v7.5h-1zm4.7-3h-.8v3h-1v-7.5h2c1.6 0 2.5.8 2.5 2.2 0 1.5-1.1 2.3-2.7 2.3zm.1-3.6h-.9v2.7h.8c1 0 1.6-.4 1.6-1.4.1-.9-.5-1.3-1.5-1.3z"/><path fill="#B3AEA2" d="M398.5 101.7h-120.3v-86.1h120.4v86.1zm-118.3-2h116.4v-82.1h-116.4v82.1z"/><path fill="#2D2C2A" d="M351.1 13.3c0-7-5.7-12.8-12.8-12.8-7 0-12.8 5.7-12.8 12.8 0 6.1 4.2 11.1 9.9 12.4l2.9 10.1 2.9-10.1c5.7-1.3 9.9-6.4 9.9-12.4z"/><path fill="#57C4C2" d="M338.4 36.2c-.2 0-.4-.1-.5-.4l-2.8-9.8c-5.9-1.5-10-6.7-10-12.8 0-7.3 5.9-13.2 13.3-13.2 7.3 0 13.3 5.9 13.3 13.3 0 6.1-4.1 11.3-10 12.8l-2.8 9.8c-.1.2-.3.3-.5.3zm0-35.2c-6.8 0-12.3 5.5-12.3 12.3 0 5.7 3.9 10.6 9.5 11.9.2 0 .3.2.4.4l2.4 8.4 2.4-8.4c0-.2.2-.3.4-.4 5.6-1.3 9.5-6.2 9.5-11.9-.1-6.8-5.6-12.3-12.3-12.3zm0 21.3c-5 0-9-4-9-9s4-9 9-9 9 4 9 9-4.1 9-9 9zm0-17c-4.4 0-8 3.6-8 8s3.6 8 8 8 8-3.6 8-8-3.6-8-8-8z"/><path fill="#fff" d="M339.2 14.9h-4.2v-.9l1.5-5h1.3l-1.3 4.8h2.8v-4.7h1.4v4.8h.8v1.1h-.8v2h-1.4v-2.1z"/><path stroke="#fff" stroke-linecap="round" stroke-miterlimit="10" stroke-dasharray="0,7" d="M308.5 190.5" fill="none"/><circle fill="#2D2C2A" cx="374.2" cy="191.8" r="13.8"/><path fill="#fff" d="M374.2 206.2c-7.9 0-14.3-6.4-14.3-14.3s6.4-14.3 14.3-14.3 14.3 6.4 14.3 14.3-6.4 14.3-14.3 14.3zm0-27.7c-7.4 0-13.3 6-13.3 13.3s6 13.3 13.3 13.3 13.3-6 13.3-13.3-6-13.3-13.3-13.3z" opacity=".5"/><path fill="#fff" d="M322.9 209.1h-24.6c-3 0-5.5-2.5-5.5-5.5v-26.5c0-3 2.5-5.5 5.5-5.5h24.6c3 0 5.5 2.5 5.5 5.5v26.5c0 3.1-2.5 5.5-5.5 5.5zm-24.6-36.5c-2.5 0-4.5 2-4.5 4.5v26.5c0 2.5 2 4.5 4.5 4.5h24.6c2.5 0 4.5-2 4.5-4.5v-26.5c0-2.5-2-4.5-4.5-4.5h-24.6zm7.9 20.9v-7h1v6.1h2.5l.1.9h-3.6zm6.5 0h-1.7v-7h1.7c1.5 0 2.3.7 2.3 1.8 0 .7-.4 1.2-1 1.5.8.2 1.3.8 1.3 1.7 0 1.3-1 2-2.6 2zm0-6.2h-.7v2.1h.7c.9 0 1.4-.4 1.4-1.1-.1-.6-.5-1-1.4-1zm0 2.9h-.8v2.5h.8c1 0 1.6-.4 1.6-1.2 0-.9-.5-1.3-1.6-1.3z"/><circle fill="#2D2C2A" cx="360.6" cy="191.8" r="16.6"/><path fill="#fff" d="M360.6 208.9c-9.4 0-17.1-7.7-17.1-17.1s7.7-17.1 17.1-17.1 17.1 7.7 17.1 17.1-7.7 17.1-17.1 17.1zm0-33.2c-8.9 0-16.1 7.2-16.1 16.1s7.2 16.1 16.1 16.1c8.9 0 16.1-7.2 16.1-16.1s-7.3-16.1-16.1-16.1zm-4.7 19.5c-.8 0-1.5-.2-2.1-.5l.2-1c.5.3 1.2.6 2 .6s1.3-.4 1.3-1.1c0-.7-.3-1-1.4-1.5-1.4-.6-1.9-1.1-1.9-2.2 0-1.2.9-2 2.3-2 .7 0 1.3.2 1.7.4l-.2 1c-.4-.3-1-.6-1.6-.6-.9 0-1.2.5-1.2 1 0 .6.3.8 1.4 1.4 1.5.7 2 1.2 2 2.3-.1 1.4-1.1 2.2-2.5 2.2zm3.9 0v-7.5h1v7.5h-1zm4.7-3.1h-.8v3h-1v-7.5h2c1.6 0 2.5.8 2.5 2.2 0 1.6-1.1 2.3-2.7 2.3zm.1-3.5h-.9v2.7h.8c1 0 1.6-.4 1.6-1.4.1-.9-.5-1.3-1.5-1.3z"/><path fill="#B3AEA2" d="M398.5 234.3h-120.3v-86.1h120.4v86.1zm-118.3-2h116.4v-82.1h-116.4v82.1z"/><path fill="#2D2C2A" d="M351.1 145.8c0-7-5.7-12.8-12.8-12.8-7 0-12.8 5.7-12.8 12.8 0 6.1 4.2 11.1 9.9 12.4l2.9 10.1 2.9-10.1c5.7-1.3 9.9-6.3 9.9-12.4z"/><path fill="#57C4C2" d="M338.4 168.8c-.2 0-.4-.1-.5-.4l-2.8-9.8c-5.9-1.5-10-6.7-10-12.8 0-7.3 5.9-13.3 13.3-13.3 7.3 0 13.3 5.9 13.3 13.3 0 6.1-4.1 11.3-10 12.8l-2.8 9.8c-.1.2-.3.4-.5.4zm0-35.2c-6.8 0-12.3 5.5-12.3 12.3 0 5.7 3.9 10.6 9.5 11.9.2 0 .3.2.4.4l2.4 8.4 2.4-8.4c0-.2.2-.3.4-.4 5.6-1.3 9.5-6.2 9.5-11.9-.1-6.8-5.6-12.3-12.3-12.3zm0 21.2c-5 0-9-4-9-9s4-9 9-9 9 4 9 9-4.1 9-9 9zm0-17c-4.4 0-8 3.6-8 8s3.6 8 8 8 8-3.6 8-8-3.6-8-8-8z"/><path fill="#fff" d="M335.3 148.6v-1.3h1.4v.9l.4.4h2.1l.4-.4v-2.3l-.3-.3h-2.1l-.6.6h-1.3v-4.4h5.6v1.1h-4.2v2.3l.6-.6h2.8l.9.9v3.2l-1.1 1.1h-3.6l-1-1.2z"/><path stroke="#fff" stroke-linecap="round" stroke-miterlimit="10" stroke-dasharray="0,7" d="M308.5 323" fill="none"/><circle fill="#2D2C2A" cx="374.2" cy="324.4" r="13.8"/><path fill="#fff" d="M374.2 338.7c-7.9 0-14.3-6.4-14.3-14.3s6.4-14.3 14.3-14.3 14.3 6.4 14.3 14.3-6.4 14.3-14.3 14.3zm0-27.6c-7.4 0-13.3 6-13.3 13.3s6 13.3 13.3 13.3 13.3-6 13.3-13.3-6-13.3-13.3-13.3z" opacity=".5"/><path fill="#fff" d="M322.9 341.7h-24.6c-3 0-5.5-2.5-5.5-5.5v-26.5c0-3 2.5-5.5 5.5-5.5h24.6c3 0 5.5 2.5 5.5 5.5v26.5c0 3-2.5 5.5-5.5 5.5zm-24.6-36.5c-2.5 0-4.5 2-4.5 4.5v26.5c0 2.5 2 4.5 4.5 4.5h24.6c2.5 0 4.5-2 4.5-4.5v-26.5c0-2.5-2-4.5-4.5-4.5h-24.6zm7.9 20.9v-7h1v6.1h2.5l.1.9h-3.6zm6.5 0h-1.7v-7h1.7c1.5 0 2.3.7 2.3 1.8 0 .7-.4 1.2-1 1.5.8.2 1.3.8 1.3 1.7 0 1.3-1 2-2.6 2zm0-6.2h-.7v2.1h.7c.9 0 1.4-.4 1.4-1.1-.1-.7-.5-1-1.4-1zm0 2.9h-.8v2.5h.8c1 0 1.6-.4 1.6-1.2 0-.9-.5-1.3-1.6-1.3z"/><circle fill="#2D2C2A" cx="360.6" cy="324.4" r="16.6"/><path fill="#fff" d="M360.6 341.5c-9.4 0-17.1-7.7-17.1-17.1s7.7-17.1 17.1-17.1 17.1 7.7 17.1 17.1-7.7 17.1-17.1 17.1zm0-33.2c-8.9 0-16.1 7.2-16.1 16.1 0 8.9 7.2 16.1 16.1 16.1 8.9 0 16.1-7.2 16.1-16.1 0-8.9-7.3-16.1-16.1-16.1zm-4.7 19.5c-.8 0-1.5-.2-2.1-.5l.2-1c.5.3 1.2.6 2 .6s1.3-.4 1.3-1.1c0-.7-.3-1-1.4-1.5-1.4-.6-1.9-1.1-1.9-2.2 0-1.2.9-2 2.3-2 .7 0 1.3.2 1.7.4l-.2 1c-.4-.3-1-.6-1.6-.6-.9 0-1.2.5-1.2 1 0 .6.3.8 1.4 1.4 1.5.7 2 1.2 2 2.3-.1 1.4-1.1 2.2-2.5 2.2zm3.9-.1v-7.5h1v7.5h-1zm4.7-3h-.8v3h-1v-7.5h2c1.6 0 2.5.8 2.5 2.2 0 1.5-1.1 2.3-2.7 2.3zm.1-3.6h-.9v2.7h.8c1 0 1.6-.4 1.6-1.4.1-.8-.5-1.3-1.5-1.3z"/><path fill="#B3AEA2" d="M398.5 366.8h-120.3v-86.1h120.4v86.1zm-118.3-2h116.4v-82.1h-116.4v82.1z"/><path fill="#2D2C2A" d="M351.1 278.4c0-7-5.7-12.8-12.8-12.8-7 0-12.8 5.7-12.8 12.8 0 6.1 4.2 11.1 9.9 12.4l2.9 10.1 2.9-10.1c5.7-1.3 9.9-6.4 9.9-12.4z"/><path fill="#57C4C2" d="M338.4 301.3c-.2 0-.4-.1-.5-.4l-2.8-9.8c-5.9-1.5-10-6.7-10-12.8 0-7.3 5.9-13.3 13.3-13.3 7.3 0 13.3 5.9 13.3 13.3 0 6.1-4.1 11.3-10 12.8l-2.8 9.8c-.1.3-.3.4-.5.4zm0-35.2c-6.8 0-12.3 5.5-12.3 12.3 0 5.7 3.9 10.6 9.5 11.9.2 0 .3.2.4.3l2.4 8.4 2.4-8.4c0-.2.2-.3.4-.3 5.6-1.3 9.5-6.2 9.5-11.9-.1-6.8-5.6-12.3-12.3-12.3zm0 21.3c-5 0-9-4-9-9s4-9 9-9 9 4 9 9-4.1 9-9 9zm0-17c-4.4 0-8 3.6-8 8s3.6 8 8 8 8-3.6 8-8-3.6-8-8-8z"/><path fill="#fff" d="M335.4 281v-5.8l1.1-1.1h3.8l1 1v1.2h-1.3v-.7l-.4-.4h-2.2l-.5.5v2.1l.6-.6h3l1 1v2.8l-1.1 1.1h-3.7l-1.3-1.1zm4.1.1l.5-.5v-1.9l-.4-.4h-2.3l-.5.5v1.8l.5.5h2.2z"/><path stroke="#fff" stroke-linecap="round" stroke-miterlimit="10" stroke-dasharray="0,7" d="M308.5 455.6" fill="none"/><circle fill="#2D2C2A" cx="374.2" cy="457" r="13.8"/><path fill="#fff" d="M374.2 471.3c-7.9 0-14.3-6.4-14.3-14.3s6.4-14.3 14.3-14.3 14.3 6.4 14.3 14.3-6.4 14.3-14.3 14.3zm0-27.7c-7.4 0-13.3 6-13.3 13.3s6 13.3 13.3 13.3 13.3-6 13.3-13.3-6-13.3-13.3-13.3z" opacity=".5"/><path fill="#fff" d="M322.9 474.2h-24.6c-3 0-5.5-2.5-5.5-5.5v-26.5c0-3 2.5-5.5 5.5-5.5h24.6c3 0 5.5 2.5 5.5 5.5v26.5c0 3.1-2.5 5.5-5.5 5.5zm-24.6-36.4c-2.5 0-4.5 2-4.5 4.5v26.5c0 2.5 2 4.5 4.5 4.5h24.6c2.5 0 4.5-2 4.5-4.5v-26.5c0-2.5-2-4.5-4.5-4.5h-24.6zm7.9 20.8v-7h1v6.1h2.5l.1.9h-3.6zm6.5 0h-1.7v-7h1.7c1.5 0 2.3.7 2.3 1.8 0 .7-.4 1.2-1 1.5.8.2 1.3.8 1.3 1.7 0 1.4-1 2-2.6 2zm0-6.2h-.7v2.1h.7c.9 0 1.4-.4 1.4-1.1-.1-.6-.5-1-1.4-1zm0 2.9h-.8v2.5h.8c1 0 1.6-.4 1.6-1.2 0-.8-.5-1.3-1.6-1.3z"/><circle fill="#2D2C2A" cx="360.6" cy="457" r="16.6"/><path fill="#fff" d="M360.6 474.1c-9.4 0-17.1-7.7-17.1-17.1s7.7-17.1 17.1-17.1 17.1 7.7 17.1 17.1-7.7 17.1-17.1 17.1zm0-33.2c-8.9 0-16.1 7.2-16.1 16.1 0 8.9 7.2 16.1 16.1 16.1 8.9 0 16.1-7.2 16.1-16.1 0-8.9-7.3-16.1-16.1-16.1zm-4.7 19.5c-.8 0-1.5-.2-2.1-.5l.2-1c.5.3 1.2.6 2 .6s1.3-.4 1.3-1.1c0-.7-.3-1-1.4-1.5-1.4-.6-1.9-1.1-1.9-2.2 0-1.2.9-2 2.3-2 .7 0 1.3.2 1.7.4l-.2 1c-.4-.3-1-.6-1.6-.6-.9 0-1.2.5-1.2 1 0 .6.3.8 1.4 1.4 1.5.7 2 1.2 2 2.3-.1 1.3-1.1 2.2-2.5 2.2zm3.9-.1v-7.5h1v7.5h-1zm4.7-3.1h-.8v3h-1v-7.5h2c1.6 0 2.5.8 2.5 2.2 0 1.6-1.1 2.3-2.7 2.3zm.1-3.5h-.9v2.7h.8c1 0 1.6-.4 1.6-1.4.1-.9-.5-1.3-1.5-1.3z"/><path fill="#B3AEA2" d="M398.5 499.4h-120.3v-86.1h120.4v86.1zm-118.3-2h116.4v-82.1h-116.4v82.1z"/><path fill="#2D2C2A" d="M351.1 410.9c0-7-5.7-12.8-12.8-12.8-7 0-12.8 5.7-12.8 12.8 0 6.1 4.2 11.1 9.9 12.4l2.9 10.1 2.9-10.1c5.7-1.3 9.9-6.3 9.9-12.4z"/><path fill="#57C4C2" d="M338.4 433.9c-.2 0-.4-.1-.5-.4l-2.8-9.8c-5.9-1.5-10-6.7-10-12.8 0-7.3 5.9-13.3 13.3-13.3 7.3 0 13.3 5.9 13.3 13.3 0 6.1-4.1 11.3-10 12.8l-2.8 9.8c-.1.3-.3.4-.5.4zm0-35.2c-6.8 0-12.3 5.5-12.3 12.3 0 5.7 3.9 10.6 9.5 11.9.2 0 .3.2.4.3l2.4 8.4 2.4-8.4c0-.2.2-.3.4-.3 5.6-1.3 9.5-6.2 9.5-11.9-.1-6.8-5.6-12.3-12.3-12.3zm0 21.2c-5 0-9-4-9-9s4-9 9-9 9 4 9 9-4.1 9-9 9zm0-17c-4.4 0-8 3.6-8 8s3.6 8 8 8 8-3.6 8-8-3.6-8-8-8z"/><path fill="#fff" d="M337.4 411.8l2.1-4h-3.9v-1.1h5.5v.9l-2.3 4.3v2.8h-1.4v-2.9z"/><path stroke="#fff" stroke-linecap="round" stroke-miterlimit="10" stroke-dasharray="0,7" d="M137.8 417.4" fill="none"/><circle fill="#2D2C2A" cx="203.4" cy="418.8" r="13.8"/><path fill="#fff" d="M203.4 433.2c-7.9 0-14.3-6.4-14.3-14.3s6.4-14.3 14.3-14.3 14.3 6.4 14.3 14.3c.1 7.8-6.3 14.3-14.3 14.3zm0-27.7c-7.4 0-13.3 6-13.3 13.3s6 13.3 13.3 13.3 13.3-6 13.3-13.3-5.9-13.3-13.3-13.3z" opacity=".5"/><path fill="#fff" d="M152.2 436.1h-24.6c-3 0-5.5-2.5-5.5-5.5v-26.5c0-3 2.5-5.5 5.5-5.5h24.6c3 0 5.5 2.5 5.5 5.5v26.5c0 3-2.5 5.5-5.5 5.5zm-24.6-36.5c-2.5 0-4.5 2-4.5 4.5v26.5c0 2.5 2 4.5 4.5 4.5h24.6c2.5 0 4.5-2 4.5-4.5v-26.5c0-2.5-2-4.5-4.5-4.5h-24.6zm7.9 20.9v-7h1v6.1h2.5l.1.9h-3.6zm6.4 0h-1.7v-7h1.7c1.5 0 2.3.7 2.3 1.8 0 .7-.4 1.2-1 1.5.8.2 1.3.8 1.3 1.7 0 1.3-.9 2-2.6 2zm0-6.2h-.7v2.1h.7c.9 0 1.4-.4 1.4-1.1 0-.6-.4-1-1.4-1zm.1 2.9h-.8v2.5h.8c1 0 1.6-.4 1.6-1.2 0-.9-.6-1.3-1.6-1.3z"/><circle fill="#2D2C2A" cx="189.9" cy="418.8" r="16.6"/><path fill="#fff" d="M189.9 435.9c-9.4 0-17.1-7.7-17.1-17.1s7.7-17.1 17.1-17.1 17.1 7.7 17.1 17.1-7.7 17.1-17.1 17.1zm0-33.2c-8.9 0-16.1 7.2-16.1 16.1 0 8.9 7.2 16.1 16.1 16.1s16.1-7.2 16.1-16.1c0-8.9-7.3-16.1-16.1-16.1zm-4.7 19.5c-.8 0-1.5-.2-2.1-.5l.2-1c.5.3 1.2.6 2 .6s1.3-.4 1.3-1.1c0-.7-.3-1-1.4-1.5-1.4-.6-1.9-1.1-1.9-2.2 0-1.2.9-2 2.3-2 .7 0 1.3.2 1.7.4l-.2 1c-.4-.3-1-.6-1.6-.6-.9 0-1.2.5-1.2 1 0 .6.3.8 1.4 1.4 1.5.7 2 1.2 2 2.3-.1 1.4-1.1 2.2-2.5 2.2zm3.8-.1v-7.5h1v7.5h-1zm4.8-3h-.8v3h-1v-7.5h2c1.6 0 2.5.8 2.5 2.2 0 1.5-1.1 2.3-2.7 2.3zm.1-3.6h-.9v2.7h.8c1 0 1.6-.4 1.6-1.4 0-.8-.5-1.3-1.5-1.3z"/><path fill="#B3AEA2" d="M227.8 461.2h-120.3v-86.1h120.4v86.1zm-118.3-2h116.4v-82.1h-116.4v82.1z"/><path fill="#2D2C2A" d="M180.4 372.8c0-7-5.7-12.8-12.8-12.8-7 0-12.8 5.7-12.8 12.8 0 6.1 4.2 11.1 9.9 12.4l2.9 10.1 2.9-10.1c5.7-1.3 9.9-6.4 9.9-12.4z"/><path fill="#57C4C2" d="M167.6 395.8c-.2 0-.4-.1-.5-.4l-2.8-9.8c-5.9-1.5-10-6.7-10-12.8 0-7.3 5.9-13.3 13.3-13.3s13.3 5.9 13.3 13.3c0 6.1-4.1 11.3-10 12.8l-2.8 9.8c0 .2-.2.4-.5.4zm0-35.3c-6.8 0-12.3 5.5-12.3 12.3 0 5.7 3.9 10.6 9.5 11.9.2 0 .3.2.4.3l2.4 8.4 2.4-8.4c.1-.2.2-.3.4-.3 5.6-1.3 9.5-6.2 9.5-11.9 0-6.8-5.5-12.3-12.3-12.3zm0 21.3c-5 0-9-4-9-9s4-9 9-9 9 4 9 9-4 9-9 9zm0-17c-4.4 0-8 3.6-8 8s3.6 8 8 8 8-3.6 8-8-3.6-8-8-8z"/><path fill="#fff" d="M164.5 375.5v-1.3h1.4v.9l.5.5h2.3l.4-.4v-1.6l-.5-.5h-2.7v-1.1h2.8l.5-.5v-1.5l-.4-.4h-2.3l-.5.5v.9h-1.4v-1.3l1.1-1.1h3.8l1 1v2l-.9.9.9.9v2.2l-1 1h-3.8l-1.2-1.1z"/><path fill="#272725" d="M451.6 254.4c-8 0-14.5 6.5-14.5 14.5v5.5h29v-5.5c0-8-6.4-14.5-14.5-14.5z"/><path fill="#57C4C2" d="M466.1 274.9h-29c-.3 0-.5-.2-.5-.5v-5.5c0-8.3 6.7-15 15-15s15 6.7 15 15v5.5c0 .3-.2.5-.5.5zm-28.5-1h28v-5c0-7.7-6.3-14-14-14s-14 6.3-14 14v5zm14-2.5c-1.4 0-2.5-1.1-2.5-2.5s1.1-2.5 2.5-2.5 2.5 1.1 2.5 2.5-1.1 2.5-2.5 2.5zm0-4c-.8 0-1.5.7-1.5 1.5s.7 1.5 1.5 1.5 1.5-.7 1.5-1.5-.6-1.5-1.5-1.5zm1.5.6c-.1 0-.3 0-.4-.1-.2-.2-.2-.5 0-.7l6.1-6.1c.2-.2.5-.2.7 0s.2.5 0 .7l-6.1 6.1-.3.1zm-10.9 2h-2.5c-.3 0-.5-.2-.5-.5s.2-.5.5-.5h2.5c.3 0 .5.2.5.5s-.2.5-.5.5zm21.4 0h-2.5c-.3 0-.5-.2-.5-.5s.2-.5.5-.5h2.5c.3 0 .5.2.5.5s-.2.5-.5.5zm-3.2-4.2c-.2 0-.4-.1-.5-.3-.1-.3 0-.5.3-.7l2.3-1c.3-.1.5 0 .7.3.1.3 0 .5-.3.7l-2.3 1h-.2zm-5.1-5.1h-.2c-.3-.1-.4-.4-.3-.7l1-2.3c.1-.3.4-.4.7-.3.3.1.4.4.3.7l-1 2.3c-.2.1-.3.3-.5.3zm-3.7-.8c-.3 0-.5-.2-.5-.5v-2.5c0-.3.2-.5.5-.5s.5.2.5.5v2.5c0 .3-.2.5-.5.5zm-3.6.8c-.2 0-.4-.1-.5-.3l-1-2.3c-.1-.3 0-.5.3-.7.3-.1.5 0 .7.3l1 2.3c.1.3 0 .5-.3.7 0-.1-.1 0-.2 0zm-3 2c-.1 0-.3 0-.4-.1l-1.8-1.8c-.2-.2-.2-.5 0-.7.2-.2.5-.2.7 0l1.8 1.8c.2.2.2.5 0 .7-.1.1-.2.1-.3.1zm-2.1 3.1h-.2l-2.3-1c-.3-.1-.4-.4-.3-.7.1-.3.4-.4.7-.3l2.3 1c.3.1.4.4.3.7-.1.2-.3.3-.5.3z"/><path fill="#56C4C2" d="M521.9 258.9h-.1c-.1-.1-.1-.2 0-.3l8.4-10.6c.1-.1.2-.1.3 0 .1.1.1.2 0 .3l-8.4 10.6h-.2zm8.4 27.9c-.1 0-.1 0-.2-.1l-8.5-10.7c-.1-.1-.1-.2 0-.3.1-.1.2-.1.3 0l8.5 10.7c.1.1.1.2 0 .3 0 0 0 .1-.1.1zm6.3-18.7h-10.9c-.1 0-.2-.1-.2-.2s.1-.2.2-.2h10.9c.1 0 .2.1.2.2s-.1.2-.2.2z"/><path fill="#57C4C2" d="M532.6 249.6c-2.2 0-4-1.8-4-4s1.8-4 4-4 4 1.8 4 4-1.8 4-4 4zm0-7c-1.7 0-3 1.3-3 3s1.3 3 3 3 3-1.3 3-3-1.3-3-3-3zm0 50.6c-2.2 0-4-1.8-4-4s1.8-4 4-4 4 1.8 4 4-1.8 4-4 4zm0-7c-1.7 0-3 1.3-3 3s1.3 3 3 3 3-1.3 3-3-1.3-3-3-3zm7.2-14.3c-2.2 0-4-1.8-4-4s1.8-4 4-4 4 1.8 4 4-1.8 4-4 4zm0-7c-1.7 0-3 1.3-3 3s1.3 3 3 3 3-1.3 3-3-1.3-3-3-3zm-523.9 6.1c-.3-.3-.8-.3-1.1 0l-.8.8-.4-.3c-1.5-1.2-2.9-2.7-4.2-4.2l-.2-.3.8-.8c.1-.1.2-.3.2-.5s-.1-.4-.2-.5l-1.3-1.3c-.1-.1-.3-.2-.5-.2s-.4.1-.5.2l-.7.7c-.5.5-.5 1.2-.2 1.7 2.1 3.2 4.9 5.9 8 8 .5.4 1.3.3 1.7-.2l.7-.7c.3-.3.3-.8 0-1.1l-1.3-1.3zm-2.5-15.2c-6.3 0-11.3 5.1-11.3 11.3s5.1 11.3 11.3 11.3c6.3 0 11.3-5.1 11.3-11.3s-5-11.3-11.3-11.3zm-.2 6.8c2.9 0 5.2 2.3 5.2 5.2h-1c0-2.3-1.9-4.2-4.2-4.2v-1zm0 2.5c1.5 0 2.7 1.2 2.7 2.7h-1c0-.9-.8-1.7-1.7-1.7v-1zm4.7 9l-.7.7c-.4.4-1 .7-1.7.7-.5 0-.9-.1-1.3-.4-3.3-2.2-6.1-5-8.3-8.3-.6-.9-.5-2.2.3-3l.7-.7c.7-.7 1.8-.7 2.5 0l1.3 1.3c.3.3.5.8.5 1.2 0 .5-.2.9-.5 1.2l-.1.1c1 1.2 2.2 2.4 3.4 3.4l.1-.1c.7-.7 1.8-.7 2.5 0l1.3 1.3c.7.8.7 1.9 0 2.6zm2-6.3c0-3.7-3-6.7-6.7-6.7v-1c4.3 0 7.7 3.5 7.7 7.7h-1z"/></svg>