<svg xmlns="http://www.w3.org/2000/svg" width="522" height="110.6" viewBox="0 0 522 110.6"><path d="M504.9 100c0-4.8 3.8-8.5 8.6-8.5s8.6 3.8 8.6 8.5c0 4.8-3.8 8.5-8.6 8.5s-8.6-3.8-8.6-8.5zm1.4 0c0 4 3.3 7.1 7.2 7.1 3.9 0 7.2-3.1 7.2-7.1 0-4-3.3-7.1-7.2-7.1-4-.1-7.2 3-7.2 7.1zm11.1 4.8h-1.6l-2.5-4.4h-1.8v4.4h-1.4v-9.6h4c1.7 0 3.3.5 3.3 2.5 0 1.9-1.3 2.6-2.6 2.6l2.6 4.5zm-5.9-8.2v2.4h1.5c1.3 0 3.1.2 3.1-1.1 0-1.2-1-1.3-2.2-1.3h-2.4zm-171.1-45.8h39.7l-39.7 38.5v19.2h71.1v-19.2h-38.1l38.4-38.5v-18.9h-71.4zm-301.1-48.7h26.6v15.9h-26.6zm0 29.8h26.6v76.6h-26.6zm264.6-29.8h26.6v15.9h-26.6zm0 29.8h26.6v76.6h-26.6zm-303.9-29.8h26.6v106.3h-26.6zm170.9 93.4c-10.4 0-18.2-7.8-18.2-18.1v-2.2h61.6c-.2-13.5-4.6-24.8-12.6-33-8.1-8.1-19.4-12.4-32.9-12.4-25.8 0-43.8 16.9-43.8 41.2 0 24.1 17.2 39.6 44 39.6 10.1 0 33.5-2.1 41.5-21.2h-26.8c-3 3.9-7.6 6.1-12.8 6.1zm-18.3-34.4c0-10 6.6-16.2 17.3-16.2 8.8 0 16.5 7.6 16.5 16.2v2.2h-33.8v-2.2zm309.4 34.4c-10.3 0-18.1-7.8-18.1-18.1v-2.2h61.1c-.2-13.5-4.5-24.8-12.5-33-8-8.1-19.3-12.4-32.7-12.4-25.6 0-43.5 16.9-43.5 41.2 0 24.1 17.1 39.6 43.6 39.6 10 0 33.2-2.1 41.2-21.2h-26.6c-2.8 3.9-7.3 6.1-12.5 6.1zm-18.1-34.4c0-10 6.6-16.2 17.2-16.2 8.7 0 16.4 7.6 16.4 16.2v2.2h-33.6v-2.2zm-180.1-.4c-10.3-2.2-18.4-3.9-18.4-9.9 0-3 1.5-7.9 11.5-7.9 3.2 0 6 .9 8 2.5 1.7 1.4 2.9 3.2 3.5 5.3h25c-2.4-14.1-14.9-20.9-38-20.9-6.1 0-36.4 1.2-36.4 24.4 0 17.2 16.6 20.4 31.2 23.3 10.1 2 18.8 3.7 18.8 10.6 0 5.9-4.7 9.5-12.6 9.5-3.5 0-6.8-1-9.3-2.9-1.7-1.4-3-3.1-3.7-5.3h-26.3c4.2 18.4 25.4 21.2 38.1 21.2 26.9 0 41.7-9.2 41.7-25.9.1-17-18.3-20.8-33.1-24zm-138.5-60.7h-11.8c-21 0-30.3 4.5-30.3 30.8v1.1h-11.1v15.1h10.9v61.5h28.4v-61.5h13.8v-15.1h-13.9v-3.7c0-4.8.8-7.7 2.7-9.6 2.4-2.5 6-2.8 11.3-2.9v-15.7z"/></svg>