<svg xmlns="http://www.w3.org/2000/svg" viewBox="0 0 111.8 46.1" enable-background="new 0 0 111.8 46.1"><path d="M11.3 22.6l-2.3.5-5-7.1h-1.7v7h-2.3v-16.6h4.5c3.4 0 5.5 1.7 5.5 4.7 0 2.5-1.5 4-3.6 4.6l4.9 6.9zm-6.9-14.2h-2.1v5.7h1.9c2.2 0 3.6-1 3.6-2.9 0-1.8-1.2-2.8-3.4-2.8zm17.8 9.1h-7.8c.1 2.7 1.3 3.9 3.3 3.9 1.7 0 2.9-.6 4.1-1.6l.3 1.9c-1.2 1-2.7 1.5-4.6 1.5-3 0-5.3-1.8-5.3-6 0-3.7 2.2-5.9 5-5.9 3.3 0 4.9 2.6 4.9 5.7.1.1.1.3.1.5zm-4.9-4.5c-1.3 0-2.4.9-2.8 2.9h5.5c-.2-1.9-1-2.9-2.7-2.9zm17.4-1.7l.3 1.9-2.2.2c.3.5.5 1.1.5 1.8 0 2.4-2.1 3.9-4.4 3.9-.3 0-.6 0-.9-.1-.3.2-.6.5-.6.7 0 .4.4.5 2.4.9l.8.1c2.4.4 3.9 1.2 3.9 3 0 2.4-2.6 3.5-5.6 3.5-3 0-5.4-.9-5.4-3 0-1.2.8-2.1 2.4-3-.5-.4-.7-.8-.7-1.2 0-.6.4-1.1 1.2-1.6-1.3-.6-2.1-1.8-2.1-3.4 0-2.5 2.1-4 4.4-4 1.2 0 2.2.3 3 1l3-.7zm-9 12.9c0 .9 1.2 1.6 3.4 1.6s3.5-.8 3.5-1.7c0-.7-.5-1.2-2.2-1.5l-1.4-.2c-.6-.1-1-.2-1.4-.3-1.3.6-1.9 1.3-1.9 2.1zm3.1-11.4c-1.4 0-2.3 1.1-2.3 2.5 0 1.3.9 2.4 2.3 2.4 1.5 0 2.4-1.1 2.4-2.4s-1-2.5-2.4-2.5zm9.5-3.6c-.7 0-1.4-.6-1.4-1.3s.6-1.4 1.4-1.4 1.3.6 1.3 1.4-.6 1.3-1.3 1.3zm-1.1 13.8v-11.5h2.1v11.5h-2.1zm10.2.2c-3 0-5.3-2.2-5.3-6s2.2-6 5.3-6c3.1 0 5.3 2.2 5.3 6 .1 3.8-2.2 6-5.3 6zm0-10.1c-2.1 0-3.1 1.8-3.1 4.2 0 2.4 1.1 4.2 3.1 4.2 2.1 0 3.2-1.8 3.2-4.2 0-2.4-1.1-4.2-3.2-4.2zm15.3 9.9v-7.8c0-1.2-.5-2-1.8-2-1.1 0-2.3.7-3.3 1.8v8h-2.1v-11.5h1.7l.3 1.7c1.1-1 2.4-1.9 4.1-1.9 2.2 0 3.3 1.3 3.3 3.4v8.3h-2.2z" fill="#B3AEA2"/><path fill="#2D2C2A" d="M111.3 16.8c0-9-7.3-16.3-16.3-16.3s-16.3 7.3-16.3 16.3c0 7.7 5.4 14.2 12.6 15.9l3.7 12.9 3.7-12.9c7.2-1.7 12.6-8.1 12.6-15.9z"/><path fill="#57C4C2" d="M95 46.1c-.2 0-.4-.1-.5-.4l-3.6-12.6c-7.5-1.9-12.7-8.5-12.7-16.3 0-9.3 7.6-16.8 16.8-16.8s16.8 7.5 16.8 16.8c0 7.8-5.2 14.4-12.7 16.3l-3.6 12.6c-.1.2-.3.4-.5.4zm0-45.1c-8.7 0-15.8 7.1-15.8 15.8 0 7.4 5 13.7 12.3 15.4.2 0 .3.2.4.3l3.1 11.2 3.2-11.2c0-.2.2-.3.4-.3 7.2-1.7 12.3-8 12.3-15.4-.1-8.7-7.2-15.8-15.9-15.8zm0 27.2c-6.3 0-11.4-5.1-11.4-11.4 0-6.3 5.1-11.4 11.4-11.4s11.4 5.1 11.4 11.4c0 6.3-5.1 11.4-11.4 11.4zm0-21.8c-5.7 0-10.4 4.7-10.4 10.4s4.7 10.4 10.4 10.4 10.4-4.7 10.4-10.4-4.7-10.4-10.4-10.4z"/><path fill="#fff" d="M92.8 20.4h2v-7.4h-2v-1.3h3.7v8.7h1.9v1.3h-5.6v-1.3z"/></svg>