<svg width="453" height="890" viewBox="0 0 453 890" xmlns="http://www.w3.org/2000/svg" xmlns:xlink="http://www.w3.org/1999/xlink"><title>Artboard 2</title><defs><linearGradient x1="50%" y1="0%" x2="50%" y2="96.981%" id="a"><stop stop-color="#8F77C6" offset="0%"/><stop stop-color="#8F5F97" offset="100%"/></linearGradient><linearGradient x1="50%" y1="0%" x2="50%" y2="100%" id="b"><stop stop-color="#8673C4" offset="0%"/><stop stop-color="#8D74C2" offset="100%"/></linearGradient><linearGradient x1="50%" y1="0%" x2="50%" y2="100%" id="c"><stop stop-color="#6E6AC0" offset="0%"/><stop stop-color="#7069BC" offset="100%"/></linearGradient><linearGradient x1="50%" y1="0%" x2="50%" y2="98.551%" id="d"><stop stop-color="#7172A5" offset="0%"/><stop stop-color="#5E64BD" offset="30.837%"/><stop stop-color="#8F77C6" offset="100%"/></linearGradient><path d="M17.378.61L2.17 5.752C.876 6.19 0 7.427 0 8.822V28.5c0 1.348.82 2.555 2.055 3.028l15 5.744c1.253.48 2.637.48 3.89 0l15-5.744C37.18 31.055 38 29.848 38 28.5V8.81c0-1.388-.87-2.623-2.16-3.065L20.884.618A5.43 5.43 0 0 0 17.378.61" id="e"/><circle id="g" cx="19" cy="19" r="19"/></defs><g fill="none" fill-rule="evenodd"><g opacity=".35" stroke-width="4"><path d="M369 539h71.007c5.52 0 9.993 4.476 9.993 9.996v162.008c0 5.52-4.472 9.996-9.99 9.996H295m-143.027 0H10c-5.523 0-10-4.476-10-9.996V548.996C0 543.476 4.47 539 9.993 539H81" stroke="url(#a)" transform="translate(1 66)"/><path d="M369 430v30.01c0 5.517-4.48 9.99-9.995 9.99h-125.01c-5.52 0-9.995 4.485-9.995 9.992V540" stroke="url(#b)" transform="translate(1 66)"/><path d="M339 470H88.993c-5.52 0-9.993 4.485-9.993 9.992V540" stroke="url(#b)" transform="translate(1 66)"/><path d="M351 287h-45.008c-5.518 0-9.992 4.485-9.992 9.992V357" stroke="url(#c)" transform="translate(1 66)"/><path d="M297 0H10.01C4.48 0 0 4.472 0 10v160c0 5.524 4.483 10 10 10h349c5.522 0 10 4.478 10 9.994v87.012c0 5.52-4.478 9.994-10.005 9.994h-197.99c-5.525 0-10.005 4.484-10.005 9.997V360h207.995c5.525 0 10.005 4.473 10.005 10.002V540.06" stroke="url(#d)" transform="translate(1 66)"/></g><g transform="translate(261 751)"><circle fill="#DC87EB" cx="36" cy="36" r="36"/><g fill="#FFF"><path d="M35.5 32.93c-4.436 0-8.485 1.963-11.185 5.534-.58.893-.386 1.965.385 2.5.386.18.772.357 1.158.357.578 0 1.157-.177 1.542-.713 1.35-1.786 3.857-4.107 8.1-4.107 4.243 0 6.75 2.143 8.1 4.107.578.893 1.735 1.072 2.7.357.964-.535 1.157-1.607.385-2.5-2.7-3.57-6.75-5.535-11.185-5.535zm0 8.927c-2.12 0-3.857 1.607-3.857 3.572 0 1.963 1.736 3.57 3.857 3.57 2.12 0 3.857-1.607 3.857-3.57 0-1.966-1.736-3.573-3.857-3.573z"/><path d="M52.664 31.857C48.034 26.68 42.25 24 35.5 24c-6.75 0-12.535 2.68-17.164 7.857-.578.714-.385 1.786.386 2.5.77.714 2.12.536 2.7-.178 3.857-4.466 8.485-6.61 14.078-6.61S45.72 29.715 49.578 34c.386.536.964.714 1.543.714.387 0 .772-.178 1.158-.357.77-.714.964-1.786.386-2.5z" opacity=".5"/></g></g><g transform="translate(114 751)"><circle fill="#DC87EB" cx="36" cy="36" r="36"/><g opacity=".45" transform="translate(14 21)"><rect fill="#FFF" width="38" height="22" rx="2"/><circle fill="#DC87EB" cx="19" cy="11" r="7"/></g><g transform="translate(20 29)"><rect fill="#FFF" width="38" height="22" rx="2"/><circle fill="#DC87EB" cx="19" cy="11" r="7"/></g></g><g transform="translate(334 570)"><circle fill="#A983FF" cx="36" cy="36" r="36"/><path d="M36 23c-7.732 0-14 6.268-14 14s6.268 14 14 14 14-6.268 14-14c0-2.288-.55-4.448-1.522-6.355" stroke="#FFF" stroke-width="4" stroke-linecap="round" opacity=".5"/><path d="M36 23c-7.732 0-14 6.268-14 14s6.268 14 14 14" stroke="#FFF" stroke-width="4" stroke-linecap="round"/><path d="M35.67 29.888c-.923.614-1.67.217-1.67-.882V16.994c0-1.1.75-1.494 1.67-.882l8.66 5.776c.923.614.92 1.612 0 2.224l-8.66 5.776z" fill="#FFF"/></g><g transform="translate(189 570)"><circle fill="#A983FF" cx="36" cy="36" r="36"/><g transform="translate(17 17)"><mask id="f" fill="#fff"><use xlink:href="#e"/></mask><use fill="#FFF" xlink:href="#e"/><path d="M38 6.468l-16.945 6.49C19.82 13.43 19 14.638 19 15.986V38l19-7.277V6.468zM27.68 1.736L7.942 9.184c-.52.197-.942.8-.942 1.354v5.477l4 1.454v-4.765c0-.555.414-1.166.93-1.367l19.79-7.702-4.04-1.9z" fill="#D4C1FF" mask="url(#f)"/></g></g><g transform="translate(44 570)"><circle fill="#A983FF" cx="36" cy="36" r="36"/><g fill="#FFF"><path d="M16 27.006A4.006 4.006 0 0 1 20 23h32a4 4 0 0 1 4 4.006v17.988A4.006 4.006 0 0 1 52 49H20a4 4 0 0 1-4-4.006V27.006zM16 29h40v5H16v-5z"/><path opacity=".55" d="M16 29h40v5H16z"/></g></g><g transform="translate(261 390)"><circle fill="#7C80FF" cx="36" cy="36" r="36"/><g transform="translate(17 17)"><mask id="h" fill="#fff"><use xlink:href="#g"/></mask><use fill="#FFF" xlink:href="#g"/><ellipse fill="#BDBFFF" mask="url(#h)" cx="19" cy="35.5" rx="12" ry="8.5"/><circle fill="#BDBFFF" mask="url(#h)" cx="19" cy="16" r="7"/></g></g><g transform="translate(116 390)"><circle fill="#7C80FF" cx="36" cy="36" r="36"/><g fill="#FFF"><path d="M16.038 43.202v-3.247h-4.695V32.45c0-.217.08-.404.237-.562a.767.767 0 0 1 1.108 0 .775.775 0 0 1 .232.562v5.928h3.118v-4.565c0-.216.075-.403.227-.56a.737.737 0 0 1 .552-.237c.216 0 .4.078.552.236a.783.783 0 0 1 .226.56v4.566c.217 0 .4.076.552.227a.752.752 0 0 1 .227.552c0 .217-.075.4-.227.552a.752.752 0 0 1-.552.227v3.265c0 .217-.077.4-.232.552a.756.756 0 0 1-.547.227.752.752 0 0 1-.552-.226.752.752 0 0 1-.227-.552zm13.452.78h-7.088V38.6c0-.434.153-.805.46-1.115.305-.31.672-.464 1.098-.464h4.732V33.23h-5.567A.747.747 0 0 1 22.57 33a.76.76 0 0 1-.224-.552c0-.217.074-.4.223-.552a.747.747 0 0 1 .555-.228h5.567c.433 0 .804.153 1.113.46.31.306.464.672.464 1.1v3.793c0 .44-.156.812-.465 1.118-.31.308-.68.46-1.113.46H23.96v3.823h5.53c.21 0 .392.076.547.227a.744.744 0 0 1 .232.552c0 .217-.078.4-.233.552a.756.756 0 0 1-.547.227z"/><path opacity=".5" d="M48 46h5v5h-5z"/><path d="M55 38h5v5h-5zM43 39h5v5h-5z"/><path opacity=".5" d="M47 33h5v5h-5z"/><path d="M53 25h5v5h-5zM43 28h5v5h-5z"/><path opacity=".5" d="M37 42h5v5h-5z"/><path d="M34 38h5v5h-5zM39 34h5v5h-5z"/><path opacity=".5" d="M33 31h5v5h-5z"/></g></g><g transform="translate(138 210)"><circle fill="#6767C8" cx="36" cy="36" r="36"/><path d="M39.057 23.318c1.2-1.408 2.01-3.368 1.79-5.318-1.732.067-3.825 1.117-5.066 2.524-1.113 1.246-2.086 3.24-1.823 5.153 1.93.144 3.9-.95 5.1-2.36zm4.328 12.38c.048 5.04 4.565 6.716 4.615 6.738-.038.12-.72 2.39-2.38 4.738-1.432 2.028-2.92 4.05-5.263 4.092-2.303.042-3.043-1.322-5.676-1.322-2.63 0-3.454 1.28-5.633 1.364-2.26.082-3.984-2.195-5.43-4.217-2.953-4.135-5.21-11.685-2.18-16.78 1.507-2.532 4.196-4.135 7.117-4.176 2.22-.04 4.318 1.447 5.676 1.447 1.356 0 3.904-1.79 6.583-1.526 1.12.046 4.268.44 6.29 3.304-.165.098-3.757 2.124-3.718 6.34z" fill="#FFF"/></g><g transform="translate(186 210)"><circle fill="#8282E8" cx="36" cy="36" r="36"/><g transform="translate(22 14)"><rect fill="#FFF" y="4" width="28" height="38" rx="3"/><rect fill="#8282E8" x="4" y="34" width="20" height="4" rx="1"/><rect fill="#BBE" x="15" y="26" width="9" height="2" rx="1"/><rect fill="#BBE" x="4" y="26" width="9" height="2" rx="1"/><rect fill="#BBE" x="4" y="21" width="20" height="2" rx="1"/><rect fill="#BBE" x="4" y="16" width="20" height="2" rx="1"/><circle fill="#BDBDF0" cx="14" cy="6" r="6"/></g></g><g transform="translate(234 210)"><circle fill="#9494FF" cx="36" cy="36" r="36"/><g stroke="#FFF" stroke-width="4" stroke-linecap="round"><path d="M38 48h15" opacity=".5"/><path stroke-linejoin="round" d="M22 27l12 9.5L22 46"/></g></g><g><g transform="translate(116 30)"><circle fill="#6A7C94" cx="36" cy="36" r="36"/><g fill="#FFF"><path d="M16 27.006A4.006 4.006 0 0 1 20 23h32a4 4 0 0 1 4 4.006v17.988A4.006 4.006 0 0 1 52 49H20a4 4 0 0 1-4-4.006V27.006zM16 29h40v5H16v-5z"/><path opacity=".55" d="M16 29h40v5H16z"/></g></g><g transform="translate(164 30)"><circle fill="#8798AB" cx="36" cy="36" r="36"/><path d="M39.474 41.174c-2.82 3.468-6.456 5.573-10.23 5.573-6.386 0-8.554-5.587-5.53-9.265.658-.802 1.78-1.567 3.52-1.996 2.723-.668 7.055.417 11.116 1.757a22.275 22.275 0 0 0 1.802-4.405H27.638V31.57h6.452V29.3h-7.814V28.03h7.814v-3.24s0-.548.554-.548h3.153v3.79h7.728v1.266h-7.728v2.273h6.31c-.605 2.473-1.523 4.748-2.672 6.747 1.914.692 3.632 1.347 4.912 1.776C50.954 41.636 52 41.72 52 41.72V25.126A5.124 5.124 0 0 0 46.876 20h-21.75A5.125 5.125 0 0 0 20 25.127v21.748A5.126 5.126 0 0 0 25.126 52h21.75A5.124 5.124 0 0 0 52 46.875v-.21s-8.323-3.47-12.526-5.49zm-11.696-3.79c-.8.08-2.3.433-3.12 1.158-2.46 2.145-.99 6.067 3.99 6.067 2.893 0 5.785-1.852 8.056-4.814-3.23-1.576-5.968-2.705-8.926-2.413z" fill="#FFF"/></g><g transform="translate(212 30)"><circle fill="#AAB7C5" cx="36" cy="36" r="36"/><path d="M45.557 24.22l1.16-4.323-4.325-1.16-1.16 4.325c-.97-.268-1.17-.328-2.16-.58l1.158-4.323-4.324-1.16-1.16 4.325c-.802-.206-8.215-2.203-8.215-2.203l-.725 4.44 1.288.345a2.24 2.24 0 0 1 1.593 2.74L24.628 41.79a2.246 2.246 0 0 1-2.748 1.575l-1.29-.345L19 47.228l8.216 2.2-1.16 4.326 4.325 1.16 1.16-4.325c.61.18.923.258 1.288.35.238.06.497.125.874.23l-1.16 4.322 4.325 1.16 1.1-4.11c6.308 1.352 9.45.512 11.744-5.264 1.85-4.652.276-7.392-2.988-9.224 2.466-.518 4.382-2.1 5.033-5.44.898-4.562-1.78-6.71-6.198-8.393M30.602 45.442l2.194-8.186c2.686.51 12.206 1.416 10.554 7.23-1.4 5.58-9.587 2.286-12.748.957m3.193-11.914l2.07-7.732c.198.055.434.116.7.184 2.822.734 9.026 2.373 7.818 6.413-1.27 4.24-8.302 1.766-10.588 1.136" fill="#FFF"/></g><g transform="translate(261 30)"><circle fill="#C1CCD7" cx="36" cy="36" r="36"/><path d="M20 49c0-1.105.892-2 2-2h30c1.105 0 2 .888 2 2v2H20v-2zm26-7V32l-1-3h6l-1 3v10l1 3h-6l1-3zm-11 0V32l-1-3h6l-1 3v10l1 3h-6l1-3zm-11 0V32l-1-3h6l-1 3v10l1 3h-6l1-3zm-2-17h30v1a1 1 0 0 1-.998 1H22.998A.997.997 0 0 1 22 26v-1zm13.155-8.21c1.02-.436 2.668-.437 3.69 0l15.473 6.632c2.034.872 1.89 1.578-.326 1.578H20.008c-2.214 0-2.36-.706-.326-1.578l15.473-6.63z" fill="#FFF"/></g></g></g></svg>