<?xml version="1.0" encoding="utf-8"?>
<!-- Generator: Adobe Illustrator 18.1.1, SVG Export Plug-In . SVG Version: 6.00 Build 0)  -->
<!DOCTYPE svg PUBLIC "-//W3C//DTD SVG 1.1//EN" "http://www.w3.org/Graphics/SVG/1.1/DTD/svg11.dtd">
<svg version="1.1" id="Layer_1" xmlns="http://www.w3.org/2000/svg" xmlns:xlink="http://www.w3.org/1999/xlink" x="0px" y="0px"
	 width="72.7px" height="83.9px" viewBox="0 0 72.7 83.9" enable-background="new 0 0 72.7 83.9" xml:space="preserve">
<g id="XMLID_651_">
	<polygon fill="#AECC6E" points="72.7,63 36.3,83.9 0,63 0,21 36.3,0 72.7,21 	"/>
</g>
<g id="XMLID_424_">
	<path fill="#F5F5F5" d="M46.7,59.1c-1.2,0-2.3-0.3-3.3-1C33.9,51.8,25.6,43.5,19.3,34c-1.6-2.4-1.3-5.6,0.8-7.6l2.1-2.1
		c0.8-0.8,1.8-1.2,3-1.2s2.2,0.4,3,1.2l3.9,3.9c1.6,1.6,1.6,4.3,0,5.9l-1,1c3.3,4,7.2,7.9,11.2,11.2l1-1c0.8-0.8,1.8-1.2,3-1.2
		s2.2,0.4,3,1.2l3.9,3.9c0.8,0.8,1.2,1.8,1.2,3s-0.4,2.2-1.2,3L51,57.3C49.8,58.5,48.3,59.1,46.7,59.1z M25.2,24.1
		c-0.8,0-1.6,0.3-2.2,0.9l-2.1,2.1c-1.7,1.7-1.9,4.3-0.6,6.3c6.2,9.4,14.4,17.6,23.8,23.8c0.8,0.5,1.8,0.8,2.8,0.8
		c1.3,0,2.6-0.5,3.5-1.5l2.1-2.1c0.6-0.6,0.9-1.4,0.9-2.2S53,50.6,52.4,50l-3.9-3.9c-1.2-1.2-3.3-1.2-4.5,0l-1.6,1.6L42,47.4
		c-4.3-3.5-8.5-7.7-12-12L29.7,35l1.6-1.6c1.2-1.2,1.2-3.3,0-4.5L27.5,25C26.9,24.4,26.1,24.1,25.2,24.1z"/>
</g>
</svg>
