<?xml version="1.0" encoding="utf-8"?>
<!-- Generator: Adobe Illustrator 18.1.1, SVG Export Plug-In . SVG Version: 6.00 Build 0)  -->
<!DOCTYPE svg PUBLIC "-//W3C//DTD SVG 1.1//EN" "http://www.w3.org/Graphics/SVG/1.1/DTD/svg11.dtd">
<svg version="1.1" id="Layer_1" xmlns="http://www.w3.org/2000/svg" xmlns:xlink="http://www.w3.org/1999/xlink" x="0px" y="0px"
	 width="72.7px" height="83.9px" viewBox="0 0 72.7 83.9" enable-background="new 0 0 72.7 83.9" xml:space="preserve">
<g id="XMLID_649_">
	<polygon fill="#7FBED0" points="72.7,63 36.3,83.9 0,63 0,21 36.3,0 72.7,21 	"/>
</g>
<g id="XMLID_425_">
	<g id="XMLID_431_">
		<path fill="#F5F5F5" d="M36.3,46.3c-1.3,0-2.3-1-2.3-2.3c0-1.3,1-2.3,2.3-2.3s2.3,1,2.3,2.3C38.6,45.2,37.6,46.3,36.3,46.3z
			 M36.3,42.7c-0.7,0-1.3,0.6-1.3,1.3c0,0.7,0.6,1.3,1.3,1.3s1.3-0.6,1.3-1.3C37.6,43.2,37,42.7,36.3,42.7z"/>
	</g>
	<g id="XMLID_429_">
		<rect x="35.7" y="45.8" fill="#F5F5F5" width="1" height="5.4"/>
	</g>
	<g id="XMLID_428_">
		<path fill="#F5F5F5" d="M50.8,58.7H21.9V34.2h28.9V58.7z M22.9,57.7h26.9V35.2H22.9V57.7z"/>
	</g>
	<g id="XMLID_427_">
		<path fill="#F5F5F5" d="M46.4,34.7h-1v-6.1c0-4.8-3.6-9.9-9.1-9.9c-5.4,0-9.1,5.1-9.1,9.9v6.1h-1v-6.1c0-5.3,4.1-10.9,10.1-10.9
			s10.1,5.6,10.1,10.9V34.7z"/>
	</g>
</g>
</svg>
