<svg xmlns="http://www.w3.org/2000/svg" viewBox="0 0 92.2 15.5" enable-background="new 0 0 92.2 15.5"><path d="M81.4 9.6v5.5h-4.5v-14.8h4.5v5.2h6.3v-5.2h4.6v14.7h-4.5v-5.5c-2.2.1-4.2.1-6.4.1zm-51.7-9.3h12.1v3.7h-7.6v1.6h7.4v3.8h-7.4v1.8h7.6v3.8h-12.1v-14.7zm44.7 3.9c-1.4.6-2.6 1.2-3.8 1.7-2.2-2.3-4.4-2.6-6.1-.9-1.5 1.5-1.5 4 .1 5.6 1.7 1.6 3.9 1.3 6-.9 1.2.5 2.4 1.1 3.7 1.6-.8 1.6-1.9 2.7-3.5 3.5-3.8 1.8-9 .3-11-3.1-2.8-4.8.1-10.7 5.6-11.5 2.9-.4 5.5 0 7.7 2.2.4.5.8 1.1 1.3 1.8zm-60.4-3.9h12.1v3.7h-7.6v1.6h7.4v3.8h-7.4v5.5h-4.5v-14.6zm43.4 3.8h-4.1v11h-4.5v-11h-4.2v-3.7h12.9c-.1 1.2-.1 2.4-.1 3.7zm-45.2-3.7v3.7h-9.1c-.3 0-.7-.2-.9-.5-.8-.9-1.4-2-2.2-3.2h12.2zm-8.5 5.5h8.5v3.2c0 .2-.4.4-.6.4h-5.1c-.2 0-.5-.1-.6-.3-.7-1-1.4-2.1-2.2-3.3z" fill="#fff"/></svg>