<svg xmlns="http://www.w3.org/2000/svg" viewBox="0 0 92.2 27.6" enable-background="new 0 0 92.2 27.6"><path d="M9.2 0c-2.2 0-3.5 1.7-3.5 3.8 0 2.8 2.9 6.7 3.5 7.7.6-1 3.5-4.9 3.5-7.7 0-2.1-1.3-3.8-3.5-3.8zm0 5.4c-1 0-1.8-.8-1.8-1.8s.8-1.8 1.8-1.8 1.8.8 1.8 1.8-.8 1.8-1.8 1.8zm5.7 11.5c-1.1-2.1-2.9-3.2-4.7-3.7-.1-.1-.3-.2-.4-.2-.6-.2-1.1-.3-1.8-.4-1.7-.1-3.8.1-5.4 1-1.3.8-3 2.4-2.3 4.2.6 1.6 2.9 1.4 4.1-.2.8-1 1.2-2.2 2.1-3.2.7-.8 1.3-1.2 2-1.4.9-.2 1.5.6 1.7 1 .2.4.4 1.1.4 1.9v2.7c0 2 1.1 3.4 3.2 2.8 1.3-.3 2.1-2.5 1.1-4.5zm.6-11.1c-1.5.8-2.2 3.3-3.8 5-.3.4-1.5 1.6-2.8 1.2-1.4-.3-2.9-2.7-5-3.5-1.1-.4-2.9-.5-3.7.8-.7 1.2.3 2.5 2.3 2.4 1.4-.1 3 0 4.4.2l2.5.5c.3.1.7.1 1.1.1 4.8.3 8.4-1.6 9-3.9.8-2.7-1.8-3.9-4-2.8zm3.3 11.2h1.2v10.5h-1.2v-10.5zm10.5 9.5c1.5 0 2.6-.3 4-.8v1.1c-1.4.5-2.6.8-4.2.8-4.2 0-7-2.2-7-7.7 0-5.6 2.8-7.8 7-7.8 1.6 0 2.7.3 4.2.9v1c-1.4-.5-2.5-.9-4-.9-3.6 0-6 1.8-6 6.7.1 5 2.4 6.7 6 6.7zm16-10.7h-2.8v1.2h2.8c2.6 0 3.8 1.2 3.8 3.8-.4-.1-1.2-.4-2.7-.4-1.1 0-5.5.1-5.5 3.7 0 3.1 3.3 3.6 4.8 3.6 1.4 0 4.6-.4 4.6-3.5v-3.5c-.2-3.2-1.6-4.9-5-4.9zm3.7 8.3c0 2.1-2.1 2.4-3.5 2.4s-3.6-.4-3.6-2.5c0-2.3 2.7-2.6 4.2-2.6 1.6 0 2.6.3 2.9.4v2.3zm8.4 2.4c1.1 0 2.2-.3 3.2-.7v1.2c-1.1.4-2.2.6-3.3.6-2.4 0-5.4-1-5.4-5.9s2.9-5.9 5.3-5.9c1.1 0 2.3.3 3.3.6v1.1c-1-.4-2.1-.6-3.2-.6-2.6 0-4.3 1.2-4.3 4.8.1 3.6 1.8 4.8 4.4 4.8zm-37.2-11.6c0-.5-.4-.9-.9-.9s-.9.4-.9.9.4.9.9.9.9-.4.9-.9zm14.8 6.8v5.7h1.2v-5.9c0-2.7.4-4.6 4.2-4.6v-1.2c-5.5 0-5.4 3.4-5.4 6zm46-2.3c0-2.3-1.8-3.2-3.3-3.5-.9-.2-1.6-.2-2.4 0-3.3.8-3.7 4.4-3.7 6 0 3.3 1.7 5.6 5.2 5.6 1.9 0 2.7-.3 3.7-.7v-1.1c-1.1.4-2 .8-3.6.8-3.7 0-4.1-3.2-4.1-3.8.4.1 1.2.4 2.7.4 1.1 0 5.5-.2 5.5-3.7zm-8.1 2c.1-2.6 1.2-4.3 3.4-4.4h.7c1.3.1 2.9.7 2.9 2.5 0 2.3-2.7 2.6-4.2 2.6s-2.4-.2-2.8-.4v-.3zm14.9-5.6c1.2 0 2.3.2 3.3.6v-4.2h1.2v11.9c0 .9-.4 3.5-4.6 3.5-1.9 0-5.1-.8-5.1-6 0-4.8 2.8-5.8 5.2-5.8zm-.1 10.7c2.5 0 3.4-1.2 3.4-2.4v-6.6c-1-.4-2.1-.6-3.2-.6-2.5 0-4 1.2-4 4.7-.1 4.4 2.2 4.9 3.8 4.9zm-24.1.9h-1.2v-15.3h1.2v15.3zm7.6-11.4h-1.6l-5.2 5.6 5.4 5.8h1.6l-5.5-5.8z" fill="#fff"/></svg>