<svg xmlns="http://www.w3.org/2000/svg" width="976px" height="363px" viewBox="0 0 976 363" xmlns:xlink="http://www.w3.org/1999/xlink" style="background:#f6f9fc">
  <defs>
    <rect id="path-1" width="195" height="51" x="81" y="141" rx="4"/>
    <filter id="filter-2" width="200%" height="200%" x="-50%" y="-50%" filterUnits="objectBoundingBox">
      <feOffset dy="1" in="SourceAlpha" result="shadowOffsetOuter1"/>
      <feGaussianBlur stdDeviation="1.5" in="shadowOffsetOuter1" result="shadowBlurOuter1"/>
      <feColorMatrix values="0 0 0 0 0 0 0 0 0 0 0 0 0 0 0 0 0 0 0.08 0" in="shadowBlurOuter1" result="shadowMatrixOuter1"/>
      <feOffset dy="4" in="SourceAlpha" result="shadowOffsetOuter2"/>
      <feGaussianBlur stdDeviation="3" in="shadowOffsetOuter2" result="shadowBlurOuter2"/>
      <feColorMatrix values="0 0 0 0 0.0901960784 0 0 0 0 0.215686275 0 0 0 0 0.341176471 0 0 0 0.11 0" in="shadowBlurOuter2" result="shadowMatrixOuter2"/>
      <feMerge>
        <feMergeNode in="shadowMatrixOuter1"/>
        <feMergeNode in="shadowMatrixOuter2"/>
      </feMerge>
    </filter>
    <rect id="path-3" width="270" height="51" x="440" y="141" rx="4"/>
    <filter id="filter-4" width="200%" height="200%" x="-50%" y="-50%" filterUnits="objectBoundingBox">
      <feOffset dy="1" in="SourceAlpha" result="shadowOffsetOuter1"/>
      <feGaussianBlur stdDeviation="1.5" in="shadowOffsetOuter1" result="shadowBlurOuter1"/>
      <feColorMatrix values="0 0 0 0 0 0 0 0 0 0 0 0 0 0 0 0 0 0 0.08 0" in="shadowBlurOuter1" result="shadowMatrixOuter1"/>
      <feOffset dy="4" in="SourceAlpha" result="shadowOffsetOuter2"/>
      <feGaussianBlur stdDeviation="3" in="shadowOffsetOuter2" result="shadowBlurOuter2"/>
      <feColorMatrix values="0 0 0 0 0.0901960784 0 0 0 0 0.215686275 0 0 0 0 0.341176471 0 0 0 0.11 0" in="shadowBlurOuter2" result="shadowMatrixOuter2"/>
      <feMerge>
        <feMergeNode in="shadowMatrixOuter1"/>
        <feMergeNode in="shadowMatrixOuter2"/>
      </feMerge>
    </filter>
  </defs>
  <g id="Page-1" fill="none" fill-rule="evenodd">
    <g id="Artboard-Copy-3">
      <path id="Line" stroke="#CFD7DF" stroke-width="2" d="M113 139.5V89" stroke-linecap="square"/>
      <path id="Line-Copy-5" stroke="#CFD7DF" stroke-width="2" d="M500 141V89" stroke-linecap="square"/>
      <path id="Line-Copy" stroke="#CFD7DF" stroke-width="2" d="M245 139.5V89" stroke-linecap="square"/>
      <path id="Line-Copy-6" stroke="#CFD7DF" stroke-width="2" d="M650 140V89" stroke-linecap="square"/>
      <path id="Line-Copy-2" stroke="#CFD7DF" stroke-width="2" d="M178 269v-85" stroke-linecap="square"/>
      <path id="Line-Copy-15" stroke="#CFD7DF" stroke-width="2" d="M701 168h60.03" stroke-linecap="square"/>
      <path id="Line-Copy-3" stroke="#CFD7DF" stroke-width="2" d="M270 154h151" stroke-linecap="square"/>
      <path id="Line-Copy-4" stroke="#CFD7DF" stroke-width="2" d="M293 180h169" stroke-linecap="square"/>
      <g id="Base-Copy">
        <use fill="black" filter="url(#filter-2)" xlink:href="#path-1"/>
        <use fill="#FFFFFF" xlink:href="#path-1"/>
      </g>
      <polyline id="Rectangle-2" stroke="#CFD7DF" stroke-width="2" points="292.657 184.157 292.657 176.157 292.657 176.157 300.657 176.157" stroke-linecap="square" transform="rotate(-45 296.657 180.157)"/>
      <polyline id="Rectangle-2" stroke="#CFD7DF" stroke-width="2" points="413.657 158.157 413.657 150.157 413.657 150.157 421.657 150.157" stroke-linecap="square" transform="rotate(135 417.657 154.157)"/>
      <polyline id="Rectangle-2-Copy-5" stroke="#CFD7DF" stroke-width="2" points="753.657 172.157 753.657 164.157 753.657 164.157 761.657 164.157" stroke-linecap="square" transform="rotate(135 757.657 168.157)"/>
      <rect id="Rectangle-5-Copy-2" width="168" height="34" x="95" y="269" fill="#E6EBF1" rx="17"/>
      <rect id="Rectangle-5-Copy-11" width="139" height="34" x="777" y="149" fill="#E6EBF1" rx="17"/>
      <path id="Customers" fill="#525F7F" d="M163.72 285.84c0 3.12 2.02 5.34 4.9 5.34.96 0 1.94-.27 2.84-.75v-1.19c-.9.6-1.82.9-2.7.9-2.24 0-3.78-1.78-3.78-4.3 0-2.52 1.54-4.3 3.78-4.3.88 0 1.8.3 2.7.9v-1.19a6.07 6.07 0 0 0-2.84-.75c-2.88 0-4.9 2.22-4.9 5.34zm16.11-2.34h-1.2v5.6c-.64.7-1.35 1.06-2.07 1.06-1.02 0-1.72-.74-1.72-1.77v-4.89h-1.19v5.06c0 1.52 1.1 2.62 2.61 2.62.86 0 1.64-.35 2.37-1.02v.84h1.2v-7.5zm2.35 7.15c.73.35 1.45.53 2.17.53 1.58 0 2.69-.92 2.69-2.22 0-2.65-3.81-1.83-3.81-3.51 0-.7.61-1.17 1.51-1.17.65 0 1.3.2 1.92.59v-1.12a5.11 5.11 0 0 0-2-.43c-1.52 0-2.62.88-2.62 2.16 0 2.58 3.81 1.78 3.81 3.51 0 .74-.67 1.23-1.57 1.23-.7 0-1.4-.24-2.1-.7v1.13zm8.75-9.26h-1.18v2.11h-1.44v.94h1.44V289c0 1.26.93 2.19 2.26 2.19.44 0 .93-.12 1.47-.35v-1.03c-.46.24-.87.39-1.24.39-.78 0-1.31-.54-1.31-1.32v-4.43h2.55v-.94h-2.55v-2.12zm3.98 5.86c0 2.31 1.49 3.93 3.62 3.93 2.1 0 3.61-1.62 3.61-3.93s-1.51-3.93-3.61-3.93c-2.13 0-3.62 1.62-3.62 3.93zm1.22 0c0-1.73 1-2.94 2.4-2.94 1.38 0 2.38 1.21 2.38 2.94s-1 2.94-2.38 2.94c-1.4 0-2.4-1.21-2.4-2.94zm8.16 3.75h1.19v-5.63c.64-.67 1.33-1.03 2-1.03.9 0 1.52.68 1.52 1.64V291h1.19v-5.63c.64-.67 1.33-1.03 2-1.03.9 0 1.5.68 1.5 1.64V291h1.2v-5.19c0-1.49-.98-2.49-2.4-2.49-.92 0-1.8.39-2.59 1.17-.4-.76-1.17-1.17-2.13-1.17-.8 0-1.57.31-2.3.96v-.78h-1.18v7.5zm12.7-3.81c0 2.34 1.51 3.99 3.67 3.99.8 0 1.58-.2 2.36-.58v-1.09c-.74.47-1.5.73-2.2.73-1.48 0-2.59-1.1-2.63-2.72h5.32c.02-.18.02-.34.02-.52 0-2.17-1.22-3.68-3.06-3.68-2.03 0-3.48 1.6-3.48 3.87zm1.2-.51c.1-1.44.97-2.42 2.23-2.42 1.14 0 1.92.98 1.94 2.42h-4.17zm7.45 4.32h1.18v-5.44c.59-.77 1.3-1.18 2.01-1.18a3 3 0 0 1 .8.13v-1.08c-.24-.08-.48-.11-.74-.11-.73 0-1.48.38-2.07 1.08v-.9h-1.18v7.5zm5.6-.35c.73.35 1.45.53 2.17.53 1.58 0 2.69-.92 2.69-2.22 0-2.65-3.81-1.83-3.81-3.51 0-.7.61-1.17 1.51-1.17.65 0 1.3.2 1.92.59v-1.12a5.11 5.11 0 0 0-2-.43c-1.52 0-2.62.88-2.62 2.16 0 2.58 3.81 1.78 3.81 3.51 0 .74-.67 1.23-1.57 1.23-.7 0-1.4-.24-2.1-.7v1.13z"/>
      <path id="Wages-Copy" fill="#525F7F" d="M860.3 160.68h-1.23l-2.83 8.72-2.84-8.72h-1.06l-2.84 8.72-2.83-8.72h-1.23l3.52 10.32h1.08l2.82-8.72 2.85 8.72h1.07l3.52-10.32zm5.26 10.32h1.15v-5.15c0-1.48-1.12-2.53-2.76-2.53-.8 0-1.63.2-2.47.59v1.03a4.83 4.83 0 0 1 2.35-.68c1.02 0 1.73.65 1.73 1.6v.64c-.38-.03-.77-.04-1.17-.04-2.1 0-3.56 1.06-3.56 2.57 0 1.26.96 2.15 2.34 2.15.84 0 1.67-.31 2.39-.96v.78zm-3.53-2.1c0-.97.98-1.65 2.42-1.65.4 0 .75.01 1.1.06v1.9c-.64.65-1.36 1.03-2.06 1.03-.86 0-1.46-.56-1.46-1.34zm13.45-5.4h-1.2v.66a3.2 3.2 0 0 0-2.12-.84c-1.98 0-3.36 1.62-3.36 3.93s1.38 3.93 3.36 3.93c.78 0 1.49-.28 2.12-.86v.78c0 1.4-.98 2.4-2.39 2.4-.76 0-1.56-.24-2.38-.7v1.1c.84.37 1.66.56 2.49.56 2.04 0 3.48-1.38 3.48-3.34v-7.62zm-5.46 3.75c0-1.72.96-2.93 2.34-2.93.7 0 1.33.3 1.92.9v4.06c-.59.6-1.22.9-1.92.9-1.38 0-2.34-1.2-2.34-2.93zm7.61-.06c0 2.34 1.52 3.99 3.68 3.99.8 0 1.57-.2 2.35-.59v-1.08c-.73.47-1.5.73-2.2.73-1.47 0-2.58-1.1-2.63-2.72h5.33l.01-.53c0-2.16-1.21-3.67-3.06-3.67-2.02 0-3.48 1.6-3.48 3.87zm1.2-.51c.1-1.44.98-2.42 2.24-2.42 1.14 0 1.92.98 1.93 2.42h-4.17zm7.2 3.97c.74.35 1.46.53 2.18.53 1.58 0 2.69-.92 2.69-2.22 0-2.66-3.81-1.83-3.81-3.51 0-.7.61-1.17 1.51-1.17.65 0 1.3.2 1.92.59v-1.12a5.11 5.11 0 0 0-2-.43c-1.52 0-2.62.89-2.62 2.16 0 2.58 3.81 1.78 3.81 3.51 0 .73-.67 1.23-1.57 1.23-.7 0-1.4-.24-2.1-.7v1.13z"/>
      <path id="US-Subsidiary" fill="#6772E5" d="M137.86 162h-1.65v6.8c0 1.75-1.2 3-2.88 3s-2.88-1.25-2.88-3V162h-1.65v6.94c0 2.48 1.88 4.25 4.53 4.25 2.66 0 4.53-1.77 4.53-4.25v-6.95zm2.84 10.44c1.02.5 2.1.75 3.15.75 2.26 0 3.84-1.3 3.84-3.18 0-3.84-5.55-2.66-5.55-5.15 0-1.03.91-1.73 2.25-1.73.9 0 1.84.29 2.77.86v-1.57a7.32 7.32 0 0 0-2.9-.62c-2.23 0-3.77 1.26-3.77 3.09 0 3.79 5.55 2.59 5.55 5.15 0 1.07-.94 1.82-2.32 1.82-.99 0-2.03-.36-3.02-1.02v1.6zm13.48 0c1.03.5 2.1.75 3.16.75 2.25 0 3.84-1.3 3.84-3.18 0-3.84-5.56-2.66-5.56-5.15 0-1.03.92-1.73 2.26-1.73.9 0 1.84.29 2.77.86v-1.57a7.32 7.32 0 0 0-2.9-.62c-2.24 0-3.77 1.26-3.77 3.09 0 3.79 5.55 2.59 5.55 5.15 0 1.07-.95 1.82-2.32 1.82-1 0-2.03-.36-3.03-1.02v1.6zM170.3 165h-1.61v5.8c-.61.63-1.3.98-2 .98a1.6 1.6 0 0 1-1.65-1.68V165h-1.6v5.36a2.7 2.7 0 0 0 2.8 2.83c.85 0 1.7-.35 2.45-.99v.8h1.61v-8zm8.47 4c0 1.66-.92 2.82-2.25 2.82a2.6 2.6 0 0 1-1.86-.87v-3.92a2.65 2.65 0 0 1 1.86-.85c1.33 0 2.25 1.16 2.25 2.82zm-5.7 4h1.6v-.64c.65.54 1.4.83 2.15.83 2.13 0 3.6-1.73 3.6-4.19 0-2.46-1.47-4.2-3.6-4.2-.75 0-1.5.3-2.16.84v-4.14h-1.6V173zm9.2-.37c.78.37 1.58.56 2.38.56 1.75 0 2.98-.99 2.98-2.43 0-2.85-3.92-2.05-3.92-3.62 0-.62.6-1.05 1.42-1.05.7 0 1.4.2 2.08.62v-1.44a5.68 5.68 0 0 0-2.19-.46c-1.71 0-2.91.96-2.91 2.37 0 2.78 3.9 1.98 3.9 3.61 0 .66-.62 1.12-1.47 1.12-.75 0-1.52-.25-2.27-.75v1.47zm7.54.37h1.6v-8h-1.6v8zm-.16-10.27c0 .56.4.94.96.94.56 0 .96-.38.96-.94 0-.56-.4-.95-.96-.95-.56 0-.96.39-.96.95zm5.6 6.27c0-1.66.92-2.82 2.25-2.82.65 0 1.3.3 1.85.85v3.92c-.56.58-1.2.87-1.85.87-1.33 0-2.26-1.16-2.26-2.82zm5.72-7.5h-1.62v4.14a3.4 3.4 0 0 0-2.16-.83c-2.1 0-3.6 1.73-3.6 4.19 0 2.46 1.5 4.2 3.6 4.2.76 0 1.5-.3 2.16-.84v.64h1.62v-11.5zm2.76 11.5h1.6v-8h-1.6v8zm-.16-10.27c0 .56.4.94.96.94.56 0 .96-.38.96-.94 0-.56-.4-.95-.96-.95-.56 0-.96.39-.96.95zm8.9 10.27h1.54v-5.38c0-1.64-1.22-2.81-3.06-2.81-.9 0-1.82.2-2.75.64v1.36c.88-.5 1.76-.74 2.58-.74.99 0 1.7.63 1.7 1.5v.55c-.4-.03-.78-.05-1.16-.05-2.26 0-3.8 1.15-3.8 2.8 0 1.36 1.03 2.32 2.5 2.32.87 0 1.7-.33 2.45-.93v.74zm-3.36-2.35c0-.91.93-1.55 2.3-1.55.37 0 .71.01 1.06.04v1.83c-.6.62-1.3.96-1.97.96-.81 0-1.39-.53-1.39-1.28zm7.6 2.35h1.6v-5.62c.58-.73 1.34-1.15 2.06-1.15.27 0 .54.05.78.13v-1.46c-.24-.06-.5-.1-.72-.1-.75 0-1.5.4-2.11 1.1v-.9h-1.6v8zm13.4-8h-1.66l-2.19 5.8-2.19-5.8h-1.65l3.07 7.76-1.52 3.74h1.59l4.54-11.5z"/>
      <rect id="Rectangle-5" width="107" height="34" x="60" y="60" fill="#F8E6AD" rx="17"/>
      <rect id="Rectangle-5-Copy-3" width="107" height="34" x="447" y="60" fill="#E6EBF1" rx="17"/>
      <rect id="Rectangle-5-Copy" width="107" height="34" x="191" y="60" fill="#F0C9C8" rx="17"/>
      <rect id="Rectangle-5-Copy-4" width="107" height="34" x="596" y="60" fill="#E6EBF1" rx="17"/>
      <path id="Expenses-Copy-4" fill="#B5562B" d="M83.64 82h6.02v-.99h-4.8v-3.77h4.1v-.97h-4.1v-3.6h4.68v-.99h-5.9V82zm7.48 0h1.4l2-2.97L96.53 82h1.4l-2.7-3.81 2.59-3.69h-1.35l-1.97 2.85-1.93-2.85H91.2l2.6 3.69L91.12 82zm14.12-3.75c0 1.72-.96 2.92-2.32 2.92a2.7 2.7 0 0 1-1.94-.9v-4.05c.6-.6 1.25-.9 1.94-.9 1.36 0 2.32 1.2 2.32 2.93zm-5.44 7.03h1.18v-3.95c.65.56 1.35.85 2.12.85 1.98 0 3.37-1.62 3.37-3.93s-1.4-3.93-3.37-3.93c-.77 0-1.47.29-2.12.84v-.66H99.8v10.78zm8.27-7.09c0 2.34 1.51 3.99 3.67 3.99.8 0 1.58-.2 2.36-.59v-1.08c-.74.47-1.5.72-2.2.72-1.48 0-2.59-1.09-2.63-2.71h5.32c.02-.18.02-.34.02-.52 0-2.17-1.22-3.68-3.06-3.68-2.03 0-3.48 1.6-3.48 3.87zm1.2-.51c.1-1.44.97-2.42 2.23-2.42 1.14 0 1.92.98 1.94 2.42h-4.17zm7.45 4.32h1.18v-5.6c.64-.7 1.36-1.06 2.08-1.06 1.02 0 1.71.73 1.71 1.77V82h1.2v-5.06c0-1.54-1.09-2.62-2.6-2.62-.86 0-1.66.33-2.39 1v-.82h-1.19V82zm8.46-.34c.74.34 1.46.52 2.18.52 1.57 0 2.68-.92 2.68-2.22 0-2.65-3.8-1.83-3.8-3.51 0-.7.6-1.17 1.5-1.17.65 0 1.3.2 1.93.58v-1.1a5.11 5.11 0 0 0-2.01-.44c-1.52 0-2.61.89-2.61 2.16 0 2.58 3.8 1.78 3.8 3.51 0 .73-.67 1.23-1.57 1.23-.7 0-1.4-.24-2.1-.7v1.14zm6.46-3.47c0 2.34 1.51 3.99 3.67 3.99.8 0 1.58-.2 2.36-.59v-1.08c-.74.47-1.5.72-2.2.72-1.48 0-2.59-1.09-2.63-2.71h5.32c.02-.18.02-.34.02-.52 0-2.17-1.22-3.68-3.06-3.68-2.03 0-3.48 1.6-3.48 3.87zm1.2-.51c.1-1.44.97-2.42 2.23-2.42 1.14 0 1.92.98 1.94 2.42h-4.17zm7.2 3.97c.74.35 1.46.53 2.18.53 1.57 0 2.68-.92 2.68-2.22 0-2.65-3.8-1.83-3.8-3.51 0-.7.6-1.17 1.5-1.17.65 0 1.3.2 1.93.58v-1.1a5.11 5.11 0 0 0-2.01-.44c-1.52 0-2.61.89-2.61 2.16 0 2.58 3.8 1.78 3.8 3.51 0 .73-.67 1.23-1.57 1.23-.7 0-1.4-.24-2.1-.7v1.14z"/>
      <path id="Expenses-Copy-5" fill="#525F7F" d="M470.64 82h6.02v-.99h-4.8v-3.77h4.1v-.97h-4.1v-3.6h4.68v-.99h-5.9V82zm7.48 0h1.4l2-2.97 2.02 2.97h1.4l-2.7-3.81 2.59-3.69h-1.35l-1.97 2.85-1.93-2.85h-1.37l2.6 3.69-2.69 3.81zm14.12-3.75c0 1.72-.96 2.92-2.32 2.92a2.7 2.7 0 0 1-1.94-.9v-4.05c.6-.6 1.25-.9 1.94-.9 1.36 0 2.32 1.2 2.32 2.93zm-5.44 7.03h1.18v-3.95c.65.56 1.35.85 2.12.85 1.98 0 3.37-1.62 3.37-3.93s-1.4-3.93-3.37-3.93c-.77 0-1.47.29-2.12.84v-.66h-1.18v10.78zm8.27-7.09c0 2.34 1.51 3.99 3.67 3.99.8 0 1.58-.2 2.36-.59v-1.08c-.74.47-1.5.72-2.2.72-1.48 0-2.59-1.09-2.63-2.71h5.32c.02-.18.02-.34.02-.52 0-2.17-1.22-3.68-3.06-3.68-2.03 0-3.48 1.6-3.48 3.87zm1.2-.51c.1-1.44.97-2.42 2.23-2.42 1.14 0 1.92.98 1.94 2.42h-4.17zM503.7 82h1.19v-5.6c.65-.7 1.37-1.06 2.09-1.06 1.01 0 1.7.73 1.7 1.77V82h1.2v-5.06c0-1.54-1.09-2.62-2.6-2.62-.86 0-1.66.33-2.39 1v-.82h-1.19V82zm8.47-.34c.74.34 1.46.52 2.18.52 1.57 0 2.68-.92 2.68-2.22 0-2.65-3.8-1.83-3.8-3.51 0-.7.6-1.17 1.5-1.17.65 0 1.3.2 1.93.58v-1.1a5.11 5.11 0 0 0-2.01-.44c-1.52 0-2.61.89-2.61 2.16 0 2.58 3.8 1.78 3.8 3.51 0 .73-.67 1.23-1.57 1.23-.7 0-1.4-.24-2.1-.7v1.14zm6.46-3.47c0 2.34 1.51 3.99 3.67 3.99.8 0 1.58-.2 2.36-.59v-1.08c-.74.47-1.5.72-2.2.72-1.48 0-2.59-1.09-2.63-2.71h5.32c.02-.18.02-.34.02-.52 0-2.17-1.22-3.68-3.06-3.68-2.03 0-3.48 1.6-3.48 3.87zm1.2-.51c.1-1.44.97-2.42 2.23-2.42 1.14 0 1.92.98 1.94 2.42h-4.17zm7.2 3.97c.74.35 1.46.53 2.18.53 1.57 0 2.68-.92 2.68-2.22 0-2.65-3.8-1.83-3.8-3.51 0-.7.6-1.17 1.5-1.17.65 0 1.3.2 1.93.58v-1.1a5.11 5.11 0 0 0-2.01-.44c-1.52 0-2.61.89-2.61 2.16 0 2.58 3.8 1.78 3.8 3.51 0 .73-.67 1.23-1.57 1.23-.7 0-1.4-.24-2.1-.7v1.14z"/>
      <path id="Tax-(IRS)" fill="#9E2146" d="M219.08 82h1.21v-9.33h3.35v-.99h-7.92v.99h3.36V82zm9.74 0h1.16v-5.14c0-1.49-1.13-2.54-2.76-2.54-.81 0-1.64.2-2.48.59v1.03a4.83 4.83 0 0 1 2.35-.67c1.03 0 1.73.64 1.73 1.59v.64c-.38-.03-.76-.05-1.17-.05-2.1 0-3.56 1.07-3.56 2.58 0 1.27.97 2.15 2.34 2.15.84 0 1.67-.32 2.39-.96V82zm-3.53-2.1c0-.98.98-1.65 2.42-1.65.4 0 .75.02 1.11.06v1.9c-.64.65-1.36 1.03-2.07 1.03-.85 0-1.46-.56-1.46-1.34zm6.5 2.1h1.39l2-2.97L237.2 82h1.4l-2.7-3.81 2.59-3.69h-1.35l-1.97 2.85-1.93-2.85h-1.37l2.6 3.69-2.69 3.81zm12.4-4.23c0 2.36.77 4.6 2.23 6.57h1.26a10.52 10.52 0 0 1 0-13.13h-1.26a10.9 10.9 0 0 0-2.22 6.56zm5.48 4.23h1.21V71.68h-1.21V82zm5.72-9.34h1.75c1.4 0 2.36.88 2.36 2.14 0 1.26-.96 2.14-2.36 2.14h-1.75v-4.28zm-1.2 9.34h1.2v-4.08h1.77l2.52 4.08h1.35l-2.63-4.22c1.46-.4 2.36-1.48 2.36-2.98 0-1.86-1.44-3.12-3.44-3.12h-3.13V82zm8.91-.54c.96.48 1.94.72 2.9.72 2.05 0 3.5-1.2 3.5-2.93 0-3.58-5.36-2.38-5.36-4.94 0-1.07.93-1.8 2.3-1.8.86 0 1.72.27 2.57.8V72.1c-.9-.4-1.77-.6-2.65-.6-2.04 0-3.44 1.16-3.44 2.83 0 3.55 5.36 2.33 5.36 4.95 0 1.11-.98 1.9-2.37 1.9-.92 0-1.86-.35-2.8-.97v1.25zm11.13-3.69c0-2.35-.75-4.59-2.21-6.55h-1.27a10.5 10.5 0 0 1 0 13.12h1.27a10.93 10.93 0 0 0 2.2-6.57z"/>
      <path id="Tax" fill="#525F7F" d="M641.8 82H643v-9.33h3.35v-.99h-7.92v.99h3.36V82zm9.74 0h1.15v-5.14c0-1.49-1.12-2.54-2.76-2.54-.8 0-1.63.2-2.47.59v1.03a4.83 4.83 0 0 1 2.35-.67c1.02 0 1.73.64 1.73 1.59v.64c-.38-.03-.77-.05-1.17-.05-2.1 0-3.56 1.07-3.56 2.58 0 1.27.96 2.15 2.34 2.15.84 0 1.67-.32 2.39-.96V82zM648 79.9c0-.98.98-1.65 2.42-1.65.4 0 .75.02 1.1.06v1.9c-.64.65-1.36 1.03-2.06 1.03-.86 0-1.46-.56-1.46-1.34zm6.49 2.1h1.4l1.99-2.97 2.02 2.97h1.4l-2.68-3.81 2.58-3.69h-1.36l-1.96 2.85-1.93-2.85h-1.37l2.6 3.69L654.5 82z"/>
      <rect id="Rectangle-6" width="95" height="51" x="310" y="142" fill="#F6F9FC"/>
      <rect id="Rectangle-6-Copy" width="95" height="32" x="130" y="214" fill="#F6F9FC"/>
      <g id="Group" fill="#8898AA" transform="translate(118 278)">
        <path id="Combined-Shape" d="M22.92 9.28c-3.03 0-5.65 1.2-6.84 2.95-.63.92.1 2.11 1.28 2.11h11.13c1.18 0 1.9-1.2 1.28-2.11-1.2-1.74-3.81-2.95-6.85-2.95zm0-1.69a3.67 3.67 0 0 0 3.68-3.65A3.67 3.67 0 0 0 22.92.28a3.67 3.67 0 0 0-3.67 3.66 3.67 3.67 0 0 0 3.67 3.65zM7.08 9.3c-3.04 0-5.65 1.2-6.85 2.94-.63.92.1 2.11 1.28 2.11h11.13c1.19 0 1.9-1.2 1.28-2.11-1.2-1.74-3.81-2.95-6.84-2.95zm0-1.7a3.67 3.67 0 0 0 3.67-3.65A3.67 3.67 0 0 0 7.08.28 3.67 3.67 0 0 0 3.4 3.94a3.67 3.67 0 0 0 3.68 3.65z" opacity=".4"/>
        <path id="Combined-Shape" d="M15 10.97c-3.76 0-7 1.6-8.48 3.92a1.84 1.84 0 0 0 1.58 2.83h13.8c1.47 0 2.37-1.6 1.58-2.83-1.47-2.31-4.72-3.92-8.48-3.92zM15 9c2.5 0 4.53-2.01 4.53-4.5S17.5 0 15 0a4.51 4.51 0 0 0-4.53 4.5C10.47 6.99 12.5 9 15 9z"/>
      </g>
      <g id="Group-Copy-3" fill="#8898AA" transform="translate(800 158)">
        <path id="Combined-Shape" d="M22.92 9.28c-3.03 0-5.65 1.2-6.84 2.95-.63.92.1 2.11 1.28 2.11h11.13c1.18 0 1.9-1.2 1.28-2.11-1.2-1.74-3.81-2.95-6.85-2.95zm0-1.69a3.67 3.67 0 0 0 3.68-3.65A3.67 3.67 0 0 0 22.92.28a3.67 3.67 0 0 0-3.67 3.66 3.67 3.67 0 0 0 3.67 3.65zM7.08 9.3c-3.04 0-5.65 1.2-6.85 2.94-.63.92.1 2.11 1.28 2.11h11.13c1.19 0 1.9-1.2 1.28-2.11-1.2-1.74-3.81-2.95-6.84-2.95zm0-1.7a3.67 3.67 0 0 0 3.67-3.65A3.67 3.67 0 0 0 7.08.28 3.67 3.67 0 0 0 3.4 3.94a3.67 3.67 0 0 0 3.68 3.65z" opacity=".4"/>
        <path id="Combined-Shape" d="M15 10.97c-3.76 0-7 1.6-8.48 3.92a1.84 1.84 0 0 0 1.58 2.83h13.8c1.47 0 2.37-1.6 1.58-2.83-1.47-2.31-4.72-3.92-8.48-3.92zM15 9c2.5 0 4.53-2.01 4.53-4.5S17.5 0 15 0a4.51 4.51 0 0 0-4.53 4.5C10.47 6.99 12.5 9 15 9z"/>
      </g>
      <path id="$-Royalties-Copy-5" fill="#AAB7C4" d="M321.58 159.63h1.13v-1.95c1.3-.24 2.16-1.14 2.16-2.32 0-2.86-4.05-2.01-4.05-3.77 0-.73.67-1.2 1.59-1.2.69 0 1.39.21 2.07.64v-1.25a5.01 5.01 0 0 0-1.77-.45v-1.9h-1.13v1.95c-1.26.25-2.11 1.1-2.11 2.24 0 2.78 4.04 1.93 4.04 3.77 0 .75-.69 1.27-1.63 1.27a4 4 0 0 1-2.27-.77v1.28c.64.32 1.32.5 1.97.56v1.9zm10.58-9.5h1.39c1.09 0 1.84.7 1.84 1.68 0 .99-.75 1.7-1.84 1.7h-1.4v-3.39zm-1.32 7.87h1.32v-3.43h1.34l2.06 3.43h1.47l-2.2-3.61a2.6 2.6 0 0 0 1.93-2.58c0-1.62-1.25-2.75-3.02-2.75h-2.9V158zm7.67-4.47c0 2.72 1.74 4.63 4.23 4.63 2.5 0 4.26-1.91 4.26-4.63 0-2.72-1.76-4.63-4.26-4.63s-4.23 1.91-4.23 4.63zm1.37 0c0-2.06 1.17-3.5 2.86-3.5 1.7 0 2.86 1.44 2.86 3.5 0 2.05-1.17 3.5-2.86 3.5s-2.86-1.45-2.86-3.5zm10.97 4.47h1.34v-3.84l3.2-5.1h-1.54l-2.34 3.88-2.34-3.88h-1.53l3.2 5.1V158zm4.07 0h1.33l.94-2.38h3.7l.92 2.38h1.33l-3.55-8.94h-1.12l-3.55 8.94zm4.11-7.2l1.47 3.8h-2.94l1.47-3.8zm5.75 7.2h5.09v-1.1h-3.75v-7.84h-1.34V158zm7.89 0H374v-7.85h2.82v-1.1h-7v1.1h2.84V158zm6.03 0h1.34v-8.94h-1.34V158zm4.1 0h5.35v-1.1h-4.02V154h3.4v-1.08h-3.4v-2.77h3.91v-1.1h-5.25V158zm7.13-.46c.84.4 1.7.62 2.57.62 1.83 0 3.12-1.06 3.12-2.6 0-3.11-4.52-2.15-4.52-4.18 0-.83.75-1.4 1.84-1.4.73 0 1.5.23 2.25.7v-1.27a5.95 5.95 0 0 0-2.36-.51c-1.82 0-3.06 1.03-3.06 2.5 0 3.09 4.5 2.11 4.5 4.2 0 .87-.76 1.48-1.88 1.48-.8 0-1.65-.3-2.46-.84v1.3z"/>
      <path id="$$" fill="#AAB7C4" d="M173.5 235.63h1.13v-1.95c1.3-.24 2.16-1.14 2.16-2.32 0-2.86-4.05-2.01-4.05-3.77 0-.73.67-1.2 1.59-1.2.69 0 1.39.21 2.07.64v-1.25a5.01 5.01 0 0 0-1.77-.45v-1.9h-1.13v1.95c-1.26.25-2.11 1.1-2.11 2.24 0 2.78 4.04 1.93 4.04 3.77 0 .75-.69 1.27-1.63 1.27a4 4 0 0 1-2.27-.77v1.28c.64.32 1.32.5 1.97.56v1.9zm7.6 0h1.13v-1.95c1.3-.24 2.15-1.14 2.15-2.32 0-2.86-4.04-2.01-4.04-3.77 0-.73.66-1.2 1.59-1.2.69 0 1.39.21 2.06.64v-1.25a5.01 5.01 0 0 0-1.77-.45v-1.9h-1.13v1.95c-1.26.25-2.1 1.1-2.1 2.24 0 2.78 4.04 1.93 4.04 3.77 0 .75-.69 1.27-1.64 1.27a4 4 0 0 1-2.26-.77v1.28c.64.32 1.31.5 1.96.56v1.9z"/>
      <path id="$-Services" fill="#AAB7C4" d="M325.4 186.63h1.13v-1.95c1.3-.24 2.16-1.14 2.16-2.32 0-2.86-4.04-2.01-4.04-3.77 0-.73.66-1.2 1.58-1.2.7 0 1.4.21 2.07.64v-1.25a5.01 5.01 0 0 0-1.77-.45v-1.9h-1.13v1.95c-1.26.25-2.1 1.1-2.1 2.24 0 2.78 4.04 1.93 4.04 3.77 0 .75-.7 1.27-1.64 1.27a4 4 0 0 1-2.26-.77v1.28c.64.32 1.31.5 1.96.56v1.9zm8.88-2.09c.83.4 1.7.62 2.56.62 1.83 0 3.12-1.06 3.12-2.6 0-3.11-4.51-2.15-4.51-4.18 0-.83.74-1.4 1.83-1.4.73 0 1.5.23 2.25.7v-1.27a5.95 5.95 0 0 0-2.35-.51c-1.82 0-3.07 1.03-3.07 2.5 0 3.09 4.51 2.11 4.51 4.2 0 .87-.77 1.48-1.88 1.48-.81 0-1.66-.3-2.46-.84v1.3zm7.82.46h5.35v-1.1h-4.01V181h3.4v-1.08h-3.4v-2.77h3.9v-1.1h-5.24V185zm8.84-7.88h1.4c1.09 0 1.84.7 1.84 1.7 0 .98-.75 1.68-1.85 1.68h-1.39v-3.38zm-1.31 7.88h1.31v-3.43h1.34l2.07 3.43h1.47l-2.21-3.61a2.6 2.6 0 0 0 1.93-2.58c0-1.62-1.24-2.75-3.01-2.75h-2.9V185zm15.27-8.94h-1.38l-2.73 7.06-2.73-7.06h-1.38l3.55 8.94h1.12l3.55-8.94zm1.64 8.94h1.34v-8.94h-1.34V185zm3.48-4.47c0 2.7 1.78 4.63 4.3 4.63.86 0 1.72-.24 2.52-.65v-1.25a4.3 4.3 0 0 1-2.32.77c-1.85 0-3.12-1.46-3.12-3.5 0-2.06 1.27-3.5 3.12-3.5.75 0 1.54.26 2.32.77v-1.25a5.51 5.51 0 0 0-2.52-.65c-2.52 0-4.3 1.92-4.3 4.63zm8.95 4.47h5.35v-1.1h-4.01V181h3.4v-1.08h-3.4v-2.77h3.9v-1.1h-5.24V185zm7.14-.46c.83.4 1.7.62 2.56.62 1.83 0 3.12-1.06 3.12-2.6 0-3.11-4.51-2.15-4.51-4.18 0-.83.74-1.4 1.83-1.4.73 0 1.5.23 2.25.7v-1.27a5.95 5.95 0 0 0-2.35-.51c-1.82 0-3.07 1.03-3.07 2.5 0 3.09 4.51 2.11 4.51 4.2 0 .87-.77 1.48-1.88 1.48-.81 0-1.65-.3-2.46-.84v1.3z"/>
      <g id="Base-Copy">
        <use fill="black" filter="url(#filter-4)" xlink:href="#path-3"/>
        <use fill="#FFFFFF" xlink:href="#path-3"/>
      </g>
      <path id="Foreign-Parent-Compa" fill="#6772E5" d="M483.98 173h1.65v-4.62h4.2v-1.35h-4.2v-3.7h4.81V162h-6.46V173zm7.75-4c0 2.46 1.63 4.2 3.97 4.2 2.34 0 3.97-1.74 3.97-4.2s-1.63-4.2-3.97-4.2c-2.34 0-3.97 1.74-3.97 4.2zm1.65 0c0-1.68.96-2.85 2.32-2.85 1.36 0 2.32 1.17 2.32 2.85 0 1.68-.96 2.85-2.32 2.85-1.36 0-2.32-1.17-2.32-2.85zm8.49 4h1.6v-5.62c.57-.73 1.32-1.15 2.04-1.15.28 0 .55.05.79.13v-1.46c-.24-.06-.5-.1-.72-.1-.75 0-1.5.4-2.11 1.1v-.9h-1.6v8zm5.62-4.06c0 2.5 1.65 4.25 4 4.25a6 6 0 0 0 2.6-.62v-1.41c-.8.5-1.6.77-2.36.77a2.57 2.57 0 0 1-2.64-2.53h5.57c.03-.22.03-.43.03-.64 0-2.32-1.36-3.95-3.38-3.95-2.22 0-3.82 1.71-3.82 4.13zm1.6-.61c.1-1.35.98-2.26 2.14-2.26 1.1 0 1.84.93 1.9 2.26h-4.04zm7.72 4.67h1.6v-8h-1.6v8zm-.16-10.27c0 .56.4.94.96.94.56 0 .96-.38.96-.94 0-.56-.4-.95-.96-.95-.56 0-.96.39-.96.95zm11.32 2.27h-1.62v.64a3.4 3.4 0 0 0-2.16-.83c-2.11 0-3.6 1.73-3.6 4.19 0 2.46 1.49 4.2 3.6 4.2.75 0 1.5-.3 2.16-.84v.69c0 1.39-1 2.37-2.43 2.37-.82 0-1.7-.28-2.58-.77v1.44c.9.4 1.83.6 2.74.6 2.29 0 3.89-1.51 3.89-3.66V165zm-5.73 4c0-1.66.93-2.82 2.25-2.82.66 0 1.3.3 1.86.85v3.92c-.56.58-1.2.87-1.86.87-1.32 0-2.25-1.16-2.25-2.82zm8.49 4h1.6v-5.8c.6-.65 1.3-1 2-1 .96 0 1.64.7 1.64 1.7v5.1h1.62v-5.36a2.7 2.7 0 0 0-2.82-2.83c-.84 0-1.7.35-2.44.99v-.8h-1.6v8zm14.2 0h1.62v-4.11h2.01c2.2 0 3.78-1.41 3.78-3.44 0-2.05-1.58-3.46-3.78-3.46h-3.63V173zm1.62-9.7h1.77c1.38 0 2.34.87 2.34 2.15 0 1.26-.96 2.13-2.34 2.13h-1.77v-4.28zm12.21 9.7h1.54v-5.38c0-1.64-1.22-2.81-3.06-2.81-.9 0-1.82.2-2.75.64v1.36c.88-.5 1.76-.74 2.58-.74.99 0 1.7.63 1.7 1.5v.55c-.4-.03-.78-.05-1.16-.05-2.26 0-3.8 1.15-3.8 2.8 0 1.36 1.03 2.32 2.5 2.32.87 0 1.7-.33 2.45-.93v.74zm-3.36-2.35c0-.91.93-1.55 2.3-1.55.37 0 .71.01 1.06.04v1.83c-.6.62-1.3.96-1.97.96-.81 0-1.39-.53-1.39-1.28zM563 173h1.6v-5.62c.59-.73 1.34-1.15 2.06-1.15.27 0 .54.05.78.13v-1.46c-.24-.06-.5-.1-.72-.1-.75 0-1.5.4-2.11 1.1v-.9H563v8zm5.63-4.06c0 2.5 1.65 4.25 4 4.25a6 6 0 0 0 2.61-.62v-1.41c-.8.5-1.62.77-2.37.77a2.57 2.57 0 0 1-2.64-2.53h5.57c.03-.22.03-.43.03-.64 0-2.32-1.36-3.95-3.37-3.95-2.23 0-3.83 1.71-3.83 4.13zm1.6-.61c.1-1.35.98-2.26 2.15-2.26 1.08 0 1.84.93 1.88 2.26h-4.03zm7.72 4.67h1.6v-5.8c.6-.65 1.31-1 2-1 .96 0 1.65.7 1.65 1.7v5.1h1.61v-5.36a2.7 2.7 0 0 0-2.81-2.83c-.85 0-1.7.35-2.45.99v-.8h-1.6v8zm11.74-10.26h-1.62V165h-1.46v1.3h1.46v4.44c0 1.44 1.06 2.45 2.54 2.45.5 0 1.04-.13 1.6-.35v-1.38c-.44.24-.86.39-1.23.39-.78 0-1.3-.53-1.3-1.3v-4.25h2.53V165h-2.52v-2.26zm8.6 4.76c0 3.32 2.2 5.7 5.3 5.7 1.05 0 2.1-.3 3.1-.8v-1.54a5.3 5.3 0 0 1-2.86.94c-2.27 0-3.84-1.8-3.84-4.3 0-2.53 1.57-4.3 3.84-4.3.93 0 1.9.31 2.86.94v-1.54c-1-.51-2.05-.8-3.1-.8-3.1 0-5.3 2.37-5.3 5.7zm9.88 1.5c0 2.46 1.63 4.2 3.97 4.2 2.33 0 3.97-1.74 3.97-4.2s-1.64-4.2-3.97-4.2c-2.34 0-3.97 1.74-3.97 4.2zm1.65 0c0-1.68.96-2.85 2.32-2.85 1.36 0 2.32 1.17 2.32 2.85 0 1.68-.96 2.85-2.32 2.85-1.36 0-2.32-1.17-2.32-2.85zm8.49 4h1.6v-5.82c.6-.64 1.28-.98 1.9-.98.86 0 1.47.66 1.47 1.57V173h1.6v-5.82c.6-.64 1.28-.98 1.9-.98.87 0 1.48.66 1.48 1.57V173h1.6v-5.47c0-1.6-1.06-2.72-2.61-2.72-.96 0-1.89.41-2.7 1.21a2.53 2.53 0 0 0-2.28-1.21c-.81 0-1.63.3-2.36.94V165h-1.6v8zm19.97-4c0 1.66-.93 2.82-2.26 2.82a2.6 2.6 0 0 1-1.85-.87v-3.92a2.65 2.65 0 0 1 1.85-.85c1.33 0 2.26 1.16 2.26 2.82zm-5.71 7.5h1.6v-4.14c.65.54 1.4.83 2.16.83 2.13 0 3.6-1.73 3.6-4.19 0-2.46-1.47-4.2-3.6-4.2-.75 0-1.5.3-2.16.84V165h-1.6v11.5zm13.94-3.5h1.54v-5.38c0-1.64-1.22-2.81-3.06-2.81-.9 0-1.82.2-2.75.64v1.36c.88-.5 1.76-.74 2.57-.74 1 0 1.7.63 1.7 1.5v.55c-.38-.03-.77-.05-1.15-.05-2.26 0-3.8 1.15-3.8 2.8 0 1.36 1.03 2.32 2.5 2.32.87 0 1.7-.33 2.45-.93v.74zm-3.36-2.35c0-.91.93-1.55 2.3-1.55.37 0 .7.01 1.06.04v1.83c-.6.62-1.3.96-1.97.96-.81 0-1.39-.53-1.39-1.28zm7.6 2.35h1.6v-5.8c.62-.65 1.32-1 2-1 .97 0 1.66.7 1.66 1.7v5.1h1.61v-5.36a2.7 2.7 0 0 0-2.81-2.83c-.85 0-1.7.35-2.45.99v-.8h-1.6v8zm16.24-8h-1.65l-2.2 5.8-2.18-5.8h-1.65l3.07 7.76-1.52 3.74h1.58L667 165z"/>
    </g>
  </g>
</svg>
