<svg width="40" height="40" viewBox="0 0 40 40" xmlns="http://www.w3.org/2000/svg"><title>icon-subscriptions-large</title><g fill="none"><path d="M20 38c-9.94 0-18-8.06-18-18S10.06 2 20 2s18 8.06 18 18-8.06 18-18 18zM31.346 8.65a16.01 16.01 0 0 0-11.48-4.694c-8.62.07-15.705 7.03-15.913 15.637a15.964 15.964 0 0 0 1.13 6.276l.47-.125c-.88-3.78.145-7.914 3.095-10.86 4.544-4.54 11.91-4.54 16.455 0l-9.972 9.96c4.546 4.54 11.67 4.78 16.215.242 4.544-4.54 4.544-11.898 0-16.437h.002z" fill="#A5B3BB"/><path d="M26.738 18.194a6.976 6.976 0 0 1-13.48 3.614 6.977 6.977 0 0 1 13.48-3.614z" fill="#0D2B3E"/></g></svg>