<svg width="40" height="40" viewBox="0 0 40 40" xmlns="http://www.w3.org/2000/svg"><title>icon-relay-large</title><g fill="none"><path d="M20 38c-9.94 0-18-8.06-18-18S10.06 2 20 2s18 8.06 18 18-8.06 18-18 18zm0-19a6 6 0 0 0-6 6c0 2.97 2.165 5.42 5 5.9v4.35c0 .414.336.75.75.75h.5a.75.75 0 0 0 .75-.75V30.9c2.835-.48 5-2.93 5-5.9a6 6 0 0 0-6-6z" fill="#A5B3BB"/><path d="M21 33.95V29.9a5 5 0 1 0-2 0v4.05C13.394 33.444 9 28.738 9 23c0-6.075 4.925-11 11-11s11 4.925 11 11c0 5.738-4.394 10.444-10 10.95z" fill="#0D2B3E"/></g></svg>