<svg width="40" height="40" viewBox="0 0 40 40" xmlns="http://www.w3.org/2000/svg"><title>icon-connect-large</title><g fill="none"><path d="M20 38c-9.94 0-18-8.06-18-18S10.06 2 20 2c1.024 0 2.022.106 3 .27v10.98h3.75V17h10.98c.164.978.27 1.976.27 3 0 9.94-8.06 18-18 18zm5.005-13.004H15.75a.755.755 0 0 1-.754-.754v-9.244H10.66a.76.76 0 0 0-.533.22l-6.062 6.066c.622 7.815 6.85 14.038 14.668 14.652l6.05-6.054a.753.753 0 0 0 .222-.534v-4.352z" fill="#A5B3BB"/><path d="M37.72 16.93l-7.847 7.85a.76.76 0 0 1-.534.222h-4.337v-9.244a.755.755 0 0 0-.755-.754h-9.255v-4.352c0-.2.08-.393.22-.534l7.837-7.84A17.987 17.987 0 0 1 37.72 16.93z" fill="#0D2B3E"/></g></svg>