<svg width="40" height="40" viewBox="0 0 40 40" xmlns="http://www.w3.org/2000/svg"><title>icon-payments-large</title><g fill="none"><path d="M20 38c-8.917 0-16.3-6.49-17.73-15H7V10H5.035C8.265 5.177 13.76 2 20 2c9.94 0 18 8.06 18 18s-8.06 18-18 18zm-4-22a2 2 0 0 0-2 2v11a2 2 0 0 0 2 2h15.6c2.72-2.868 4.4-6.734 4.4-11 0-1.384-.194-2.72-.524-4H16zm10.5 11.997a4.498 4.498 0 1 1 0-8.996 4.498 4.498 0 0 1 0 8.998z" fill="#A5B3BB"/><path d="M17.946 16c-.252-2.245-2.135-3.997-4.447-3.997a4.498 4.498 0 0 0 0 8.996c.17 0 .332-.033.5-.05V24H2.46A18.052 18.052 0 0 1 2 20 17.9 17.9 0 0 1 5.774 9H24a2 2 0 0 1 2 2v5h-8.054z" fill="#0D2B3E"/></g></svg>