<svg xmlns="http://www.w3.org/2000/svg" width="244.9" height="450.9" viewBox="0 0 244.9 450.9"><path fill="#fff" d="M38.8 0c-21.4 0-38.7 17.3-38.7 38.7v371.3c0 21.4 17.3 38.7 38.7 38.7h167.3c21.4 0 38.7-17.3 38.7-38.7v-371.3c0-21.4-17.3-38.7-38.7-38.7h-167.3z"/><path fill="#FCFBFB" d="M122.5 432c-9.2 0-16.6-7.4-16.6-16.6 0-9.2 7.4-16.6 16.6-16.6 9.2 0 16.6 7.4 16.6 16.6-.1 9.2-7.5 16.6-16.6 16.6z"/><path fill="#F0ECEC" d="M122.5 432.7c-9.5 0-17.3-7.8-17.3-17.3s7.8-17.3 17.3-17.3 17.3 7.8 17.3 17.3c-.1 9.6-7.8 17.3-17.3 17.3zm0-33.1c-8.7 0-15.9 7.1-15.9 15.9 0 8.7 7.1 15.9 15.9 15.9 8.7 0 15.9-7.1 15.9-15.9-.1-8.8-7.2-15.9-15.9-15.9z"/><path fill="#81807F" d="M142.7 46c0 1.2-1 2.2-2.2 2.2h-36.1c-1.2 0-2.2-1-2.2-2.2 0-1.2 1-2.2 2.2-2.2h36.1c1.2 0 2.2 1 2.2 2.2z"/><circle fill="#2D2C2A" cx="122.5" cy="25.4" r="4.4"/><path stroke="#fff" stroke-width=".359" stroke-miterlimit="10" d="M233.9 99.9M11 99.9M233.9 191.7M11 191.7M122.5 191.7M122.5 99.9" fill="none"/><path fill="#2D2C2A" d="M228.6 383.9c0 .8-.7 1.5-1.5 1.5h-209.3c-.8 0-1.5-.7-1.5-1.5v-311.1c0-.8.7-1.5 1.5-1.5h209.3c.8 0 1.5.7 1.5 1.5v311.1z"/><path fill="#FCFBFB" d="M129.2 419.4c0 1.6-1.3 2.9-2.9 2.9h-7.9c-1.6 0-2.9-1.3-2.9-2.9v-7.9c0-1.6 1.3-2.9 2.9-2.9h7.9c1.6 0 2.9 1.3 2.9 2.9v7.9z"/><path fill="#F0ECEC" d="M126.3 423h-7.9c-2 0-3.6-1.6-3.6-3.6v-7.9c0-2 1.6-3.6 3.6-3.6h7.9c2 0 3.6 1.6 3.6 3.6v7.9c0 2-1.6 3.6-3.6 3.6zm-7.9-13.6c-1.2 0-2.2 1-2.2 2.2v7.9c0 1.2 1 2.2 2.2 2.2h7.9c1.2 0 2.2-1 2.2-2.2v-7.9c0-1.2-1-2.2-2.2-2.2h-7.9z"/><g fill="#fff" opacity=".1"><path d="M81.2 137.7c-4.5 0-8.4-1.3-11.2-3.2l.5-2.9c3.5 2.4 6.5 3.5 10.8 3.5 6.2 0 10.1-3.8 10.1-9.1 0-5.6-3.9-9.4-12.4-9.4h-1.7l-.3-2.6h2.5c7.2 0 11.2-3.4 11.2-8.5 0-4.4-3-7.6-8.6-7.6-4.3 0-7.9 1.7-11 4l-.4-2.8c3.1-2.2 6.8-3.7 11.5-3.7 7.5 0 11.5 4.4 11.5 10 0 5.5-3.8 8.4-8 9.8 5.3 1.6 8.8 4.9 8.8 10.7-.1 6.9-5.8 11.8-13.3 11.8zM103.4 113.6v-4.8h3.6v4.8h-3.6zm0 23.4v-4.9h3.6v4.9h-3.6zM138.4 127v10h-2.7v-10h-21.2v-1.9l20.3-29h3.5v28.4h6.8v2.4h-6.7zm-2.7-27.8l-17.9 25.4h17.9v-25.4zM161.9 137.7c-4.6 0-8.1-1.2-10.9-2.8l.4-2.9c3.2 1.9 6.2 3.2 10.6 3.2 5.8 0 11.1-3.6 11.1-10.4 0-5.9-3.7-9.5-10.4-9.5-3.5 0-5.9.7-8.1 1.6l-1.6-.4 1.4-20.1h19.7l.4 2.5h-17.6l-1.1 15.1c1.9-.7 4.1-1.3 7.1-1.3 8.2 0 13.3 4.4 13.3 11.9 0 8-6.6 13.1-14.3 13.1z"/></g><g fill="#fff" opacity=".25"><path d="M139.4 205.8l-3.8-5.4v5.4h-.9v-6.9h.8l3.7 5.2v-5.2h.9v6.9h-.7zM143.6 205.9c-1.3 0-2.2-.9-2.2-2.5s.9-2.5 2.2-2.5c1.3 0 2.2.9 2.2 2.5s-.9 2.5-2.2 2.5zm0-4.2c-.9 0-1.3.7-1.3 1.7s.4 1.7 1.3 1.7 1.3-.7 1.3-1.7-.5-1.7-1.3-1.7zM151.5 205.8h-.7l-1.1-3.6-1.1 3.6h-.7l-1.5-4.7.8-.1 1 3.5 1.1-3.5h.7l1.1 3.5 1-3.5h.9l-1.5 4.8z"/></g><g fill="#fff"><path d="M54.9 205.8l-1-2.6h-3.4l-.9 2.5h-1.1l3.2-8.3h1.1l3.2 8.2-1.1.2zm-2.7-7.1l-1.3 3.5h2.7l-1.4-3.5zM60.9 205.7l-.1-.8c-.5.5-1.2.9-2 .9-1.1 0-1.7-.6-1.7-1.7v-4.1h1.1v3.9c0 .6.3 1 .9 1 .6 0 1.1-.4 1.7-.9v-4h1.1v5.7h-1zM65.4 205.8c-1 0-1.7-.4-1.7-1.5v-3.4h-.9v-.9h.9v-1.9l1-.2v2.1h1.3l.1.9h-1.4v3.2c0 .5.2.8.8.8h.5l.1.9c-.1-.1-.4 0-.7 0zM71.1 205.7v-3.9c0-.6-.3-1-.9-1-.6 0-1.1.4-1.7.9v4h-1.1v-8.5l1.1-.2v3.7c.5-.4 1.1-.9 1.9-.9 1.1 0 1.7.6 1.7 1.7v4.2h-1zM76.1 206.2c-.5 1.3-1.1 1.7-2.1 1.7h-.4l-.1-.9.6.1c.4 0 .7-.2.9-.7l.2-.6-2.1-5.7 1.1-.2 1.6 4.6 1.5-4.5h1.1l-2.3 6.2zM85.7 205.8c-2.3 0-3.8-1.7-3.8-4.3 0-2.6 1.5-4.3 3.8-4.3s3.8 1.7 3.8 4.3c.1 2.6-1.4 4.3-3.8 4.3zm0-7.5c-1.6 0-2.7 1.3-2.7 3.3s1 3.3 2.7 3.3c1.6 0 2.7-1.3 2.7-3.3s-1-3.3-2.7-3.3zM94.7 205.7v-3.9c0-.6-.3-1-.9-1-.6 0-1.1.4-1.7.9v4h-1.1v-5.7h.9l.1.8c.5-.5 1.2-.9 2-.9 1.1 0 1.7.6 1.7 1.7v4.2h-1zM102 202.9h-3.9c0 1.3.7 2 1.7 2 .8 0 1.4-.3 2.1-.8l.2 1c-.6.5-1.3.8-2.3.8-1.5 0-2.7-.9-2.7-3 0-1.8 1.1-3 2.5-3 1.7 0 2.4 1.3 2.4 2.9v.1zm-2.4-2.2c-.7 0-1.2.5-1.4 1.5h2.8c-.2-1-.6-1.5-1.4-1.5zM107 205.8c-2.3 0-3.8-1.7-3.8-4.3 0-2.6 1.5-4.3 3.8-4.3 1 0 1.7.3 2.4.7l-.2 1.2c-.6-.5-1.3-.8-2.2-.8-1.7 0-2.7 1.3-2.7 3.3s1 3.2 2.7 3.2c.9 0 1.7-.3 2.3-.8l.2 1.1c-.6.4-1.5.7-2.5.7zM113.2 205.8c-1.5 0-2.6-1.1-2.6-3s1.1-3 2.6-3 2.7 1.1 2.7 3-1.1 3-2.7 3zm0-5.1c-1 0-1.5.9-1.5 2.1 0 1.2.5 2.1 1.5 2.1 1.1 0 1.6-.9 1.6-2.1 0-1.2-.6-2.1-1.6-2.1zM121.2 205.7l-.1-.8c-.4.5-1 .9-1.9.9-1.2 0-2.3-.9-2.3-2.8 0-2.1 1.2-3.1 2.6-3.1.6 0 1.1.1 1.4.3v-3l1.1-.2v8.7h-.8zm-.3-4.6c-.4-.2-.8-.3-1.4-.3-.9 0-1.5.7-1.5 2.1 0 1.3.6 1.9 1.3 1.9.7 0 1.2-.4 1.6-1v-2.7zM128.3 202.9h-3.9c0 1.3.7 2 1.7 2 .8 0 1.4-.3 2.1-.8l.2 1c-.6.5-1.3.8-2.3.8-1.5 0-2.7-.9-2.7-3 0-1.8 1.1-3 2.5-3 1.7 0 2.4 1.3 2.4 2.9v.1zm-2.4-2.2c-.7 0-1.2.5-1.4 1.5h2.8c-.2-1-.6-1.5-1.4-1.5zM52.1 219.1v3.6h-.6v-3.5l-2.9-4.7.6-.1 2.7 4.3 2.6-4.2h.5l-2.9 4.6zM57.2 222.8c-1.4 0-2.5-1.1-2.5-2.9 0-1.9 1.1-2.9 2.5-2.9s2.5 1.1 2.5 2.9c0 1.8-1.1 2.9-2.5 2.9zm0-5.4c-1.2 0-1.9 1-1.9 2.4s.7 2.4 1.9 2.4 1.9-1 1.9-2.4-.7-2.4-1.9-2.4zM65.1 222.7l-.1-.9c-.7.6-1.3 1-2.1 1-1.2 0-1.7-.7-1.7-1.8v-4h.6v3.9c0 .9.4 1.3 1.2 1.3.6 0 1.3-.4 2-1v-4.2h.6v5.6h-.5zM68.1 219v3.7h-.6v-5.7h.4l.2 1.2c.4-.6 1.1-1.3 2-1.3l.1.5c-.9.1-1.7.8-2.1 1.6zM76.3 222.7h-.5l-2.1-5.6.6-.1 1.8 5.1 1.8-5h.6l-2.2 5.6zM83.9 219.9h-4c0 1.4.7 2.4 1.9 2.4.7 0 1.4-.4 2-.9l.1.5c-.5.5-1.3.8-2.1.8-1.5 0-2.5-1.1-2.5-2.9 0-1.8 1-2.9 2.4-2.9s2.2 1.3 2.2 2.8v.2zm-2.1-2.5c-1.1 0-1.7.8-1.8 2h3.4c-.1-1.1-.6-2-1.6-2zM86.1 219v3.7h-.6v-5.7h.4l.2 1.2c.4-.6 1.1-1.3 2-1.3l.1.5c-.9.1-1.7.8-2.1 1.6zM89.9 215.5c-.3 0-.5-.2-.5-.5s.2-.5.5-.5.5.2.5.5-.2.5-.5.5zm-.3 7.2v-5.7h.6v5.6h-.6zM94 214.6c-.6 0-.9.3-.9 1v1.5h1.2l.1.5h-1.3v5.2h-.6v-5.2h-.9v-.6h.9v-1.5c0-1 .5-1.5 1.5-1.5h.4l.1.5c-.1.1-.2.1-.5.1zM96.1 215.5c-.3 0-.5-.2-.5-.5s.2-.5.5-.5.5.2.5.5c-.1.3-.3.5-.5.5zm-.3 7.2v-5.7h.6v5.6h-.6zM100.5 222.8c-1.4 0-2.5-1.1-2.5-2.9 0-1.9 1.1-2.9 2.5-2.9.7 0 1.3.3 1.8.6l-.1.6c-.6-.5-1.1-.7-1.7-.7-1.2 0-1.9 1-1.9 2.4s.7 2.4 2 2.4c.6 0 1.2-.2 1.8-.7l.1.5c-.6.4-1.2.7-2 .7zM107.4 222.7l-.1-.8c-.6.5-1.3.9-2 .9-.9 0-1.7-.5-1.7-1.5 0-1.3 1-1.9 3.7-2.2v-.5c0-.8-.5-1.2-1.2-1.2-.6 0-1.3.2-1.9.5l-.1-.5c.6-.3 1.3-.5 2-.5 1.2 0 1.8.6 1.8 1.7v4.1h-.5zm-.1-3.1c-2.3.3-3.1.7-3.1 1.7 0 .7.5 1.1 1.2 1.1.6 0 1.3-.4 1.9-.9v-1.9zM111.3 222.8c-.8 0-1.3-.3-1.3-1.3v-4h-.9v-.5h.9v-2l.6-.1v2.1h1.4l.1.5h-1.5v3.9c0 .7.3.9.9.9.2 0 .4 0 .6-.1l.1.5c-.2 0-.6.1-.9.1zM114 215.5c-.3 0-.5-.2-.5-.5s.2-.5.5-.5.5.2.5.5-.3.5-.5.5zm-.3 7.2v-5.7h.6v5.6h-.6zM118.4 222.8c-1.4 0-2.5-1.1-2.5-2.9 0-1.9 1.1-2.9 2.5-2.9s2.5 1.1 2.5 2.9c0 1.8-1.1 2.9-2.5 2.9zm0-5.4c-1.2 0-1.9 1-1.9 2.4s.7 2.4 1.9 2.4 1.9-1 1.9-2.4-.6-2.4-1.9-2.4zM126.3 222.7v-3.9c0-.9-.4-1.3-1.2-1.3-.6 0-1.3.4-2 1v4.2h-.6v-5.7h.4l.1.9c.7-.6 1.3-1 2.1-1 1.2 0 1.7.7 1.7 1.8v4h-.5zM133.7 222.8c-1.4 0-2.5-1.1-2.5-2.9 0-1.9 1.1-2.9 2.5-2.9.7 0 1.3.3 1.8.6l-.1.6c-.6-.5-1.1-.7-1.7-.7-1.2 0-1.9 1-1.9 2.4s.7 2.4 2 2.4c.6 0 1.2-.2 1.8-.7l.1.5c-.7.4-1.3.7-2 .7zM139.1 222.8c-1.4 0-2.5-1.1-2.5-2.9 0-1.9 1.1-2.9 2.5-2.9s2.5 1.1 2.5 2.9c0 1.8-1.1 2.9-2.5 2.9zm0-5.4c-1.2 0-1.9 1-1.9 2.4s.7 2.4 1.9 2.4 1.9-1 1.9-2.4-.7-2.4-1.9-2.4zM147.1 222.7l-.1-.8c-.4.5-1 .9-1.8.9-1.2 0-2.3-.9-2.3-2.8 0-2.1 1.2-3.1 2.6-3.1.6 0 1.1.1 1.5.3v-3l.6-.1v8.6h-.5zm-.1-4.9c-.4-.2-.9-.4-1.5-.4-1.1 0-2 .8-2 2.5 0 1.5.7 2.3 1.7 2.3.7 0 1.2-.4 1.8-1v-3.4zM153.7 219.9h-4c0 1.4.7 2.4 1.9 2.4.7 0 1.4-.4 2-.9l.1.5c-.5.5-1.3.8-2.1.8-1.5 0-2.5-1.1-2.5-2.9 0-1.8 1-2.9 2.4-2.9s2.2 1.3 2.2 2.8v.2zm-2.1-2.5c-1.1 0-1.7.8-1.8 2h3.4c-.1-1.1-.6-2-1.6-2zM158.5 215.5c-.3 0-.5-.2-.5-.5s.2-.5.5-.5.5.2.5.5-.3.5-.5.5zm-.3 7.2v-5.7h.6v5.6h-.6zM162.4 222.8c-.8 0-1.5-.2-2-.5l.1-.6c.5.3 1.2.6 2 .6s1.4-.4 1.4-1-.3-.9-1.6-1.2c-1.2-.3-1.7-.7-1.7-1.6 0-.9.7-1.5 1.9-1.5.6 0 1.2.2 1.7.4l-.1.5c-.5-.3-1-.4-1.6-.4-.9 0-1.3.4-1.3.9s.3.8 1.3 1.1c1.3.3 1.9.8 1.9 1.7 0 1-.8 1.6-2 1.6zM168.9 216.4c0-1.1 1-2 2.4-2s2.3.9 2.3 2c0 1-.7 1.6-1.5 2.1 1.1.4 1.8 1.1 1.8 2.2 0 1.3-1.2 2.2-2.6 2.2-1.6 0-2.7-.9-2.7-2.2 0-1 .7-1.8 1.8-2.3-.9-.4-1.5-1-1.5-2zm.3 4.2c0 1 .9 1.7 2.1 1.7 1.1 0 2-.7 2-1.7 0-.9-.5-1.4-2.4-2-1 .4-1.7 1.1-1.7 2zm3.8-4.2c0-.9-.7-1.5-1.8-1.5-1.2 0-1.8.8-1.8 1.5 0 .9.4 1.3 2.1 1.8 1-.4 1.5-1 1.5-1.8zM180 220.7v2h-.5v-2h-4.2v-.4l4.1-5.8h.7v5.7h1.4v.5h-1.5zm-.6-5.6l-3.6 5.1h3.6v-5.1zM184.7 222.8c-.9 0-1.6-.2-2.2-.6l.1-.6c.6.4 1.2.6 2.1.6 1.2 0 2.2-.7 2.2-2.1 0-1.2-.7-1.9-2.1-1.9-.7 0-1.2.1-1.6.3l-.3-.1.3-4h3.9l.1.5h-3.5l-.2 3c.4-.1.8-.3 1.4-.3 1.6 0 2.7.9 2.7 2.4-.1 1.8-1.4 2.8-2.9 2.8zM190.2 222.8l-.5-.1 3.3-7.6h-4.3l-.1-.5h5v.4l-3.4 7.8zM196.6 222.8l-.5-.1 3.3-7.6h-4.3l-.1-.5h5v.4l-3.4 7.8zM201.4 222.7v-.4l3-3.2c1-1.1 1.3-1.6 1.3-2.5 0-1-.7-1.7-1.7-1.7-.8 0-1.6.4-2.2 1l-.1-.6c.6-.5 1.4-.9 2.3-.9 1.4 0 2.3.9 2.3 2.1 0 1-.4 1.7-1.4 2.8l-2.7 2.8h4.1l.1.5h-5zM210.8 217.9c1.5 0 2.4.9 2.4 2.4 0 1.6-1.1 2.6-2.5 2.6-1.6 0-2.8-1.4-2.8-3.4 0-2.7 1.6-4.2 4.1-5l.1.6c-2.1.6-3.3 1.9-3.6 3.7.7-.7 1.4-.9 2.3-.9zm-2.4 1.5c0 1.7.9 3 2.2 3 1.2 0 1.9-.8 1.9-2.1 0-1.1-.6-1.9-1.9-1.9-.7 0-1.5.3-2.2 1z"/></g><g fill="#fff" opacity=".25"><path d="M50.8 239.5c-.6 0-1.3-.2-1.7-.5l.1-.8c.4.3 1 .5 1.7.5.6 0 1-.2 1-.6 0-.4-.3-.6-1.1-.8-1.1-.3-1.6-.6-1.6-1.5 0-.8.6-1.3 1.7-1.3.6 0 1.1.1 1.6.3l-.1.8c-.4-.2-.9-.4-1.4-.4-.5 0-.8.2-.8.5s.2.5 1 .7c1.2.3 1.7.6 1.7 1.5-.3 1-.9 1.6-2.1 1.6zM53.8 239.4v-7.1l.9-.1v7.2h-.9zM56.7 233.7c-.3 0-.6-.2-.6-.6s.3-.6.6-.6.6.3.6.6-.3.6-.6.6zm-.5 5.7v-4.8h.9v4.8h-.9zM61.9 239.4l-.1-.7c-.4.4-.8.8-1.5.8-1 0-1.9-.8-1.9-2.3 0-1.7 1-2.6 2.2-2.6.5 0 .9.1 1.2.2v-2.5l.9-.1v7.2h-.8zm-.2-3.8c-.4-.2-.7-.3-1.2-.3-.7 0-1.3.6-1.3 1.8 0 1 .5 1.6 1.1 1.6.5 0 1-.3 1.3-.8v-2.3zM67.8 237.1h-3.2c0 1.1.6 1.6 1.4 1.6.7 0 1.2-.3 1.7-.7l.1.8c-.5.4-1.1.6-1.9.6-1.2 0-2.2-.8-2.2-2.5 0-1.5.9-2.5 2.1-2.5 1.4 0 2 1.1 2 2.4v.3zm-2-1.9c-.5 0-1 .4-1.2 1.2h2.3c-.1-.7-.4-1.2-1.1-1.2zM72.8 239.5c-.8 0-1.4-.3-1.4-1.3v-2.8h-.7v-.8h.7v-1.6l.9-.1v1.7h1l.1.8h-1.1v2.7c0 .4.2.6.7.6h.4l.1.8c-.2-.1-.4 0-.7 0zM76.4 239.5c-1.3 0-2.2-.9-2.2-2.5s.9-2.5 2.2-2.5c1.3 0 2.2.9 2.2 2.5s-.9 2.5-2.2 2.5zm0-4.2c-.9 0-1.3.7-1.3 1.7s.4 1.7 1.3 1.7 1.3-.7 1.3-1.7-.4-1.7-1.3-1.7zM82.8 236.6v2.8h-.8v-4.8h.7l.1 1c.3-.5.9-1 1.7-1.1l.1.8c-.8.1-1.4.6-1.8 1.3zM89.2 237.1h-3.2c0 1.1.6 1.6 1.4 1.6.7 0 1.2-.3 1.7-.7l.1.8c-.5.4-1.1.6-1.9.6-1.2 0-2.2-.8-2.2-2.5 0-1.5.9-2.5 2.1-2.5 1.4 0 2 1.1 2 2.4v.3zm-2-1.9c-.5 0-1 .4-1.2 1.2h2.3c-.1-.7-.4-1.2-1.1-1.2zM92.4 239.4c-.5 0-.9-.1-1.2-.2v1.9l-.9.1v-6.6h.7l.1.7c.4-.4.8-.8 1.5-.8 1 0 1.9.8 1.9 2.3.1 1.8-.9 2.6-2.1 2.6zm.2-4.1c-.5 0-1 .3-1.3.8v2.3c.4.2.6.3 1.2.3.7 0 1.3-.6 1.3-1.8-.1-1-.6-1.6-1.2-1.6zM95.8 239.4v-7.1l.9-.1v7.2h-.9zM100.1 239.8c-.4 1.1-.9 1.4-1.7 1.4h-.3l-.1-.8c.1 0 .3.1.5.1.4 0 .6-.2.8-.6l.2-.5-1.7-4.7.9-.1 1.3 3.8 1.3-3.7h.9l-2.1 5.1z"/></g><path fill="#fff" d="M35.2 210.4c-4.4 0-7.9-3.5-7.9-7.9s3.5-7.9 7.9-7.9 7.9 3.5 7.9 7.9c0 4.3-3.5 7.9-7.9 7.9zm0-14.8c-3.8 0-6.9 3.1-6.9 6.9 0 3.8 3.1 6.9 6.9 6.9 3.8 0 6.9-3.1 6.9-6.9 0-3.8-3.1-6.9-6.9-6.9zM38.8 204.6h-3.3l-2 1.6v-1.6h-1.9v-4.6h7.2z"/><path fill="#6B6B6A" d="M27.8 181.1h190.8v.6h-190.8zM27.8 253.1h190.8v.6h-190.8z"/><g fill="#fff" opacity=".1"><path d="M80.6 151.1v7.2h-1.1v-7.2h-2.6v-1h6.3l.2 1h-2.8zM87.8 158.3v-3.9c0-.6-.3-1-.9-1-.6 0-1.1.4-1.7.9v4h-1.1v-8.5l1.1-.2v3.7c.5-.4 1.1-.9 1.9-.9 1.1 0 1.7.6 1.7 1.7v4.2h-1zM94.4 158.3l-.1-.8c-.5.5-1.2.9-2 .9-1.1 0-1.7-.6-1.7-1.7v-4.2h1.1v3.9c0 .6.3 1 .9 1 .6 0 1.1-.4 1.7-.9v-4h1.1v5.7h-1zM98 155v3.4h-1.1v-5.7h.9l.2 1.2c.4-.6 1.1-1.2 2-1.3l.2 1c-1.1 0-1.9.6-2.2 1.4zM102.8 158.5c-.8 0-1.6-.3-2.1-.5l.2-1c.5.4 1.2.7 2 .7.7 0 1.2-.3 1.2-.8s-.3-.7-1.4-1c-1.3-.3-1.9-.7-1.9-1.8 0-.9.8-1.6 2-1.6.7 0 1.3.1 1.9.4l-.2 1c-.5-.3-1.1-.5-1.7-.5-.6 0-1 .3-1 .7 0 .4.3.6 1.2.8 1.4.4 2.1.8 2.1 1.9 0 1-.8 1.7-2.3 1.7zM110.3 158.3l-.1-.8c-.4.5-1 .9-1.9.9-1.2 0-2.3-.9-2.3-2.8 0-2.1 1.2-3.1 2.6-3.1.6 0 1.1.1 1.4.3v-3l1.1-.2v8.7h-.8zm-.2-4.5c-.4-.2-.8-.3-1.4-.3-.9 0-1.5.7-1.5 2.1 0 1.3.6 1.9 1.3 1.9.7 0 1.2-.4 1.6-1v-2.7zM116.3 158.3l-.1-.8c-.5.5-1.1.9-2 .9-1 0-1.7-.6-1.7-1.6 0-1.4 1.2-2 3.6-2.2v-.2c0-.7-.4-1-1.1-1-.7 0-1.4.2-2 .5l-.1-.9c.7-.3 1.3-.5 2.2-.5 1.4 0 2.1.6 2.1 1.8v4h-.9zm-.2-2.9c-2.1.2-2.6.8-2.6 1.4 0 .5.3.8.9.8.6 0 1.2-.3 1.7-.8v-1.4zM121.1 158.8c-.5 1.3-1.1 1.7-2.1 1.7h-.4l-.1-.9.6.1c.4 0 .7-.2.9-.7l.2-.6-2.1-5.7 1.1-.2 1.6 4.6 1.5-4.5h1.1l-2.3 6.2zM124.1 159.9l-.6-.1.6-2.9h1.2l-1.2 3zM135.4 158.4l-1-2.6h-3.4l-.9 2.5h-1.1l3.2-8.3h1.1l3.2 8.2-1.1.2zm-2.7-7l-1.3 3.5h2.7l-1.4-3.5zM140.2 158.4c-.6 0-1.1-.1-1.4-.3v2.3l-1.1.2v-8h.9l.1.8c.4-.5 1-.9 1.9-.9 1.2 0 2.3.9 2.3 2.8-.2 2.1-1.4 3.1-2.7 3.1zm.1-4.9c-.6 0-1.2.4-1.6 1v2.7c.4.2.8.3 1.4.3.9 0 1.6-.7 1.6-2.1 0-1.3-.6-1.9-1.4-1.9zM145.2 155v3.4h-1.1v-5.7h.9l.2 1.2c.4-.6 1.1-1.2 2-1.3l.2 1c-1 0-1.8.6-2.2 1.4zM149 151.5c-.4 0-.7-.3-.7-.7 0-.4.3-.7.7-.7.4 0 .7.3.7.7 0 .4-.3.7-.7.7zm-.5 6.8v-5.7h1.1v5.7h-1.1zM151.4 158.3v-8.5l1.1-.2v8.7h-1.1zM156.6 158.3v-.8l3-3.1c.7-.8 1.1-1.3 1.1-1.9 0-.9-.5-1.4-1.5-1.4-.8 0-1.6.4-2.2 1l-.2-1c.6-.5 1.4-.9 2.4-.9 1.6 0 2.5.9 2.5 2.3 0 1-.4 1.6-1.4 2.7l-2.3 2.4h3.7l.1 1h-5.2zM166.2 158.5c-1.9 0-3.1-1.5-3.1-4.2s1.2-4.2 3.1-4.2c1.8 0 3.1 1.5 3.1 4.2s-1.3 4.2-3.1 4.2zm0-7.5c-1.2 0-2 1.2-2 3.3 0 2.1.8 3.3 2 3.3s2-1.2 2-3.3c-.1-2.1-.8-3.3-2-3.3z"/></g></svg>