<svg xmlns="http://www.w3.org/2000/svg" width="244.9" height="450.9" viewBox="0 0 244.9 450.9"><path fill="#B3ADA1" d="M244.9 400.9c0 27.5-22.5 50-50 50h-144.9c-27.5 0-50-22.5-50-50v-350.9c0-27.5 22.5-50 50-50h144.9c27.5 0 50 22.5 50 50v350.9z"/><path d="M228.7 386.1c0 .8-.7 1.5-1.5 1.5h-209.5c-.8 0-1.5-.7-1.5-1.5v-311.4c0-.8.7-1.5 1.5-1.5h209.5c.8 0 1.5.7 1.5 1.5v311.4z" opacity=".25"/><path fill="#868279" d="M147.3 20.6c0 1.2-1 2.2-2.2 2.2h-45.3c-1.2 0-2.2-1-2.2-2.2 0-1.2 1-2.2 2.2-2.2h45.2c1.3 0 2.3 1 2.3 2.2z"/><path fill="#FCFBFB" d="M149.6 413.3c1.2 0 2.2 1 2.2 2.2 0 1.2-5.5 11.3-6.8 11.3h-45.2c-1.2 0-6.8-10.1-6.8-11.3 0-1.2 1-2.2 2.2-2.2h54.4z"/><path fill="#ccc" d="M145.1 427.3h-45.3c-1.7 0-7.3-10.5-7.3-11.8 0-1.5 1.2-2.7 2.7-2.7h54.3c1.5 0 2.7 1.2 2.7 2.7.1 1.3-5.4 11.8-7.1 11.8zm-49.8-13.5c-.9 0-1.7.8-1.7 1.7 0 1.2 5.2 10.4 6.3 10.8h45.1c1.2-.5 6.3-9.7 6.3-10.8 0-.9-.8-1.7-1.7-1.7h-54.3z"/><circle fill="#2D2B28" cx="199" cy="33" r="6.6"/><circle fill="#5A5751" cx="163.5" cy="35.3" r="3"/><circle fill="#5A5751" cx="43.7" cy="35.3" r="3"/><circle fill="#5A5751" cx="177.2" cy="35.3" r="3"/><path stroke="#fff" stroke-width="1.138" stroke-miterlimit="10" d="M234 101.8M10.9 101.8M234 193.7M10.9 193.7M122.5 193.7M122.5 101.8" fill="none"/><path fill="#2D2C2A" d="M228.7 386.1c0 .8-.7 1.5-1.5 1.5h-209.5c-.8 0-1.5-.7-1.5-1.5v-334.2c0-.8.7-1.5 1.5-1.5h209.5c.8 0 1.5.7 1.5 1.5v334.2z"/><path stroke="#7F858C" stroke-width="1.138" stroke-miterlimit="10" d="M41.2 224.7M205.4 224.7M41.2 160.6M205.4 160.6M18.3 94.8M228.7 94.8M18.3 350.9M228.7 350.9" fill="none"/><g fill="#fff"><path d="M39.2 169.8c0-3.7 3.4-6.7 8-6.7s7.8 2.9 7.8 6.5c0 3.2-2.2 5.4-5 6.9 3.6 1.4 5.8 3.7 5.8 7.2 0 4.4-3.9 7.4-8.8 7.4-5.3 0-8.9-3.2-8.9-7.2 0-3.4 2.2-5.9 6-7.6-2.7-1.2-4.9-3.2-4.9-6.5zm.9 14.1c0 3.4 2.9 5.7 7 5.7 3.6 0 6.7-2.3 6.7-5.8 0-3.1-1.8-4.8-7.9-6.8-3.5 1.5-5.8 3.8-5.8 6.9zm12.9-14.1c0-2.8-2.4-5-5.9-5-3.9 0-6 2.6-6 5 0 2.8 1.5 4.4 7 6.2 3.1-1.5 4.9-3.6 4.9-6.2zM71.1 190.7v-25l-6 2.5-.3-1.6 6.8-3.1h1.4v27.2h-1.9zM93 180.1c-4.8 0-8.1-3.1-8.1-8.2 0-4.9 3.2-8.7 8.5-8.7 5.5 0 9.3 4.6 9.3 11.5 0 9-5.4 14.4-14 16.7l-.3-1.8c7.3-1.7 11.4-5.9 12.2-12-2.5 1.5-4.9 2.5-7.6 2.5zm7.8-5.4c0-6-3.2-10-7.4-10-4.1 0-6.5 3-6.5 7 0 3.8 2.2 6.6 6.3 6.6 2.6 0 5.3-1.2 7.6-2.9v-.7zM119.7 191.2c-3 0-5.6-.9-7.4-2.1l.3-1.9c2.4 1.6 4.3 2.4 7.2 2.4 4.1 0 6.8-2.6 6.8-6 0-3.7-2.6-6.2-8.2-6.2h-1.2l-.2-1.7h1.6c4.8 0 7.4-2.3 7.4-5.7 0-2.9-2-5-5.8-5-2.9 0-5.2 1.1-7.3 2.6l-.2-1.8c2.1-1.5 4.5-2.5 7.6-2.5 5 0 7.6 3 7.6 6.6 0 3.6-2.5 5.6-5.3 6.5 3.5 1 5.8 3.3 5.8 7.2.1 4.3-3.6 7.6-8.7 7.6zM143.3 191l-1.8-.4 11.1-25.2h-14.4l-.2-1.7h16.8v1.3l-11.5 26zM171.1 191.2c-3.1 0-5.4-.8-7.2-1.9l.3-1.9c2.1 1.3 4.1 2.1 7 2.1 3.8 0 7.4-2.4 7.4-6.9 0-3.9-2.5-6.3-7-6.3-2.3 0-3.9.5-5.4 1.1l-1.1-.3.9-13.4h13.1l.3 1.7h-11.8l-.7 10.1c1.3-.5 2.8-.8 4.7-.8 5.5 0 8.9 3 8.9 7.9.1 5.2-4.3 8.6-9.4 8.6zM190.1 190.7v-1.3l9.9-10.8c3.2-3.5 4.2-5.5 4.2-8.3 0-3.4-2.2-5.6-5.7-5.6-2.8 0-5.2 1.4-7.4 3.2l-.3-2c2-1.6 4.6-3 7.8-3 4.8 0 7.6 2.9 7.6 7.1 0 3.4-1.4 5.8-4.7 9.3l-8.8 9.5h13.8l.2 1.6h-16.6z"/></g><g fill="#81807F"><path d="M44.1 141v4.2h-.7v-4.1l-3.4-5.5.7-.1 3.1 5.1 3-5h.7l-3.4 5.4zM50.1 145.3c-1.6 0-2.9-1.3-2.9-3.4 0-2.2 1.3-3.4 2.9-3.4 1.7 0 2.9 1.2 2.9 3.4s-1.3 3.4-2.9 3.4zm0-6.2c-1.4 0-2.2 1.2-2.2 2.9s.8 2.9 2.2 2.9c1.4 0 2.2-1.1 2.2-2.9 0-1.7-.8-2.9-2.2-2.9zM59.4 145.2l-.2-1c-.8.7-1.5 1.1-2.4 1.1-1.4 0-2-.8-2-2.1v-4.6h.7v4.6c0 1 .5 1.5 1.4 1.5.7 0 1.5-.4 2.3-1.2v-4.9h.7v6.6h-.5zM62.8 140.9v4.3h-.7v-6.6h.4l.2 1.4c.5-.7 1.3-1.5 2.4-1.5l.1.6c-1 .1-1.9.9-2.4 1.8zM73.2 136.1v9.1h-.7v-9.1h-3.2v-.6h6.9l.1.6h-3.1zM78.6 145.3c-1.6 0-2.9-1.3-2.9-3.4 0-2.2 1.3-3.4 2.9-3.4 1.7 0 2.9 1.2 2.9 3.4s-1.3 3.4-2.9 3.4zm0-6.2c-1.4 0-2.2 1.2-2.2 2.9s.8 2.9 2.2 2.9c1.4 0 2.2-1.1 2.2-2.9 0-1.7-.8-2.9-2.2-2.9zM87.6 145.3l-3.6-3.6v3.5h-.7v-9.9l.7-.1v6.3l3.2-2.9h.9l-3.3 3 3.5 3.6-.7.1zM94.3 141.9h-4.7c0 1.7.8 2.9 2.3 2.9.8 0 1.6-.4 2.3-1l.1.6c-.6.5-1.5 1-2.4 1-1.7 0-2.9-1.3-2.9-3.4 0-2.1 1.2-3.4 2.8-3.4 1.7 0 2.5 1.5 2.5 3.3zm-2.5-2.9c-1.2 0-1.9 1-2.1 2.3h3.9c-.1-1.2-.7-2.3-1.8-2.3zM100.6 145.2v-4.6c0-1-.5-1.5-1.4-1.5-.7 0-1.5.4-2.3 1.2v4.9h-.7v-6.6h.5l.2 1c.8-.7 1.5-1.1 2.4-1.1 1.4 0 2 .8 2 2.1v4.6h-.7zM107.1 136.8c-.3 0-.6-.3-.6-.6s.3-.6.6-.6.6.3.6.6c0 .4-.3.6-.6.6zm-.3 8.4v-6.6h.6v6.6h-.6zM111.7 145.3c-.9 0-1.8-.3-2.3-.6l.1-.6c.6.3 1.4.6 2.3.6 1 0 1.6-.4 1.6-1.2 0-.7-.4-1-1.8-1.4-1.4-.4-2-.9-2-1.9 0-1 .9-1.7 2.2-1.7.7 0 1.4.2 1.9.4l-.1.6c-.6-.3-1.2-.5-1.8-.5-1 0-1.5.5-1.5 1.1 0 .6.4.9 1.6 1.2 1.5.4 2.3.9 2.3 2-.2 1.4-1.2 2-2.5 2zM115.9 139.7v-1.1h.8v1.1h-.8zm0 5.5v-1.1h.8v1.1h-.8z"/></g><g fill="#81807F"><path d="M43.3 229.1v4.2h-.7v-4.1l-3.4-5.5.7-.1 3.1 5.1 3-5h.7l-3.4 5.4zM49.3 233.4c-1.6 0-2.9-1.3-2.9-3.4 0-2.2 1.3-3.4 2.9-3.4 1.7 0 2.9 1.2 2.9 3.4s-1.3 3.4-2.9 3.4zm0-6.3c-1.4 0-2.2 1.2-2.2 2.9s.8 2.9 2.2 2.9c1.4 0 2.2-1.1 2.2-2.9 0-1.7-.8-2.9-2.2-2.9zM58.6 233.3l-.2-1c-.8.7-1.5 1.1-2.4 1.1-1.4 0-2-.8-2-2.1v-4.6h.7v4.6c0 1 .5 1.5 1.4 1.5.7 0 1.5-.4 2.3-1.2v-4.9h.6v6.6h-.4zM62 228.9v4.3h-.7v-6.6h.4l.2 1.4c.5-.7 1.3-1.5 2.4-1.5l.1.6c-1 .1-1.9 1-2.4 1.8zM72.4 224.2v9.1h-.7v-9.1h-3.2v-.6h6.9l.1.6h-3.1zM77.8 233.4c-1.6 0-2.9-1.3-2.9-3.4 0-2.2 1.3-3.4 2.9-3.4 1.7 0 2.9 1.2 2.9 3.4s-1.3 3.4-2.9 3.4zm0-6.3c-1.4 0-2.2 1.2-2.2 2.9s.8 2.9 2.2 2.9c1.4 0 2.2-1.1 2.2-2.9.1-1.7-.7-2.9-2.2-2.9zM86.8 233.4l-3.6-3.6v3.5h-.7v-9.9l.7-.1v6.3l3.2-2.9h.9l-3.3 3 3.5 3.6-.7.1zM93.5 230h-4.7c0 1.7.8 2.9 2.3 2.9.8 0 1.6-.4 2.3-1l.1.6c-.6.5-1.5 1-2.4 1-1.7 0-2.9-1.3-2.9-3.4 0-2.1 1.2-3.4 2.8-3.4 1.7 0 2.5 1.5 2.5 3.3zm-2.5-2.9c-1.2 0-1.9 1-2.1 2.3h3.9c0-1.3-.7-2.3-1.8-2.3zM99.8 233.3v-4.6c0-1-.5-1.5-1.4-1.5-.7 0-1.5.4-2.3 1.2v4.9h-.7v-6.6h.5l.2 1c.8-.7 1.5-1.1 2.4-1.1 1.4 0 2 .8 2 2.1v4.6h-.7zM110.8 230h-4.7c0 1.7.8 2.9 2.3 2.9.8 0 1.6-.4 2.3-1l.1.6c-.6.5-1.5 1-2.4 1-1.7 0-2.9-1.3-2.9-3.4 0-2.1 1.2-3.4 2.8-3.4 1.7 0 2.5 1.5 2.5 3.3zm-2.6-2.9c-1.2 0-1.9 1-2.1 2.3h3.9c0-1.3-.6-2.3-1.8-2.3zM116.7 233.4l-2.1-3-2 2.9h-.7l2.4-3.4-2.2-3.1.7-.2 1.9 2.8 1.9-2.7h.7l-2.2 3.2 2.4 3.4-.8.1zM121.5 233.4c-.7 0-1.2-.1-1.8-.3v2.6l-.7.1v-9.1h.5l.2 1c.5-.6 1.1-1.1 2.1-1.1 1.5 0 2.7 1 2.7 3.2 0 2.4-1.4 3.6-3 3.6zm.3-6.2c-.8 0-1.4.5-2.1 1.2v4c.5.3 1.1.4 1.8.4 1.3 0 2.4-.9 2.4-3-.1-1.7-.9-2.6-2.1-2.6zM126.9 224.9c-.3 0-.6-.3-.6-.6s.3-.6.6-.6.6.3.6.6c-.1.3-.3.6-.6.6zm-.4 8.4v-6.6h.6v6.6h-.6zM130.3 228.9v4.3h-.7v-6.6h.4l.2 1.4c.5-.7 1.3-1.5 2.4-1.5l.1.6c-1.1.1-2 1-2.4 1.8zM138.9 230h-4.7c0 1.7.8 2.9 2.3 2.9.8 0 1.6-.4 2.3-1l.1.6c-.6.5-1.5 1-2.4 1-1.7 0-2.9-1.3-2.9-3.4 0-2.1 1.2-3.4 2.8-3.4 1.7 0 2.5 1.5 2.5 3.3zm-2.5-2.9c-1.2 0-1.9 1-2.1 2.3h3.9c-.1-1.3-.7-2.3-1.8-2.3zM142.6 233.4c-.9 0-1.8-.3-2.3-.6l.1-.6c.6.3 1.4.6 2.3.6 1 0 1.6-.4 1.6-1.2 0-.7-.4-1-1.8-1.4-1.4-.4-2-.9-2-1.9 0-1 .9-1.7 2.2-1.7.7 0 1.4.2 1.9.4l-.1.6c-.6-.3-1.2-.5-1.8-.5-1 0-1.5.5-1.5 1.1 0 .6.4.9 1.6 1.2 1.5.4 2.3.9 2.3 2-.1 1.3-1.1 2-2.5 2zM150.5 224.9c-.3 0-.6-.3-.6-.6s.3-.6.6-.6.6.3.6.6c-.1.3-.3.6-.6.6zm-.3 8.4v-6.6h.6v6.6h-.6zM157.6 233.3v-4.6c0-1-.5-1.5-1.4-1.5-.7 0-1.5.4-2.3 1.2v4.9h-.7v-6.6h.5l.2 1c.8-.7 1.5-1.1 2.4-1.1 1.4 0 2 .8 2 2.1v4.6h-.7z"/></g><path fill="#6B6B6A" d="M39.4 212.3h136.3v.5h-136.3z"/><g fill="#808080"><path d="M182.2 234.4v-15l-3.6 1.5-.2-1 4.1-1.8h.8v16.3h-1.1zM190.6 234.6l-1.1-.3 6.7-15.1h-8.6l-.1-1h10.1v.8l-7 15.6z"/></g><path fill="#6B6B6A" d="M188.7 246.6c-11.1 0-20.2-9.1-20.2-20.2s9.1-20.2 20.2-20.2 20.2 9.1 20.2 20.2c0 11.2-9.1 20.2-20.2 20.2zm0-37.8c-9.7 0-17.7 7.9-17.7 17.7 0 9.7 7.9 17.7 17.7 17.7s17.7-7.9 17.7-17.7c0-9.8-8-17.7-17.7-17.7z"/><path fill="#D5D5D4" d="M208.9 226.4h-2.5c0-9.7-7.9-17.7-17.7-17.7v-2.5c11.1.1 20.2 9.1 20.2 20.2z"/><circle fill="#D5D5D4" cx="188.7" cy="207.3" r="2.8"/></svg>