<svg xmlns="http://www.w3.org/2000/svg" width="244.9" height="450.9" viewBox="0 0 244.9 450.9"><path fill="#060608" d="M234 12.4c-5.9-2.4-36-13.1-111.2-13.2h-1.2c-84.9.1-112.4 13.7-112.4 13.7h.1c-5.6 2.5-9.2 8.2-9.2 14.7v341.6c0 6.7 3.6 12.4 9.2 14.8h-.1s27.5 13.6 112.3 13.7h1.2c84.8-.1 112.3-13.7 112.3-13.7h-.1c5.8-2.4 9.9-8.1 9.9-14.8v-341.6c.2-7-4.4-13-10.8-15.2z"/><path fill="#2D2C2A" d="M228.8 346.3c0 .8-.7 1.5-1.5 1.5h-209.5c-.8 0-1.5-.7-1.5-1.5v-304.2c0-.8.7-1.5 1.5-1.5h209.5c.8 0 1.5.7 1.5 1.5v304.2z"/><circle fill="#555" cx="123" cy="23.2" r="6.6"/><circle fill="#2A2A2A" cx="41.1" cy="26.5" r="3.8"/><path d="M62.2 143h-.4l-.1-.5h.4c.4 0 .6-.2.6-.7v-6.6h.6v6.6c0 .9-.5 1.2-1.1 1.2zm.8-9.3c-.3 0-.5-.2-.5-.5s.2-.5.5-.5.5.2.5.5-.2.5-.5.5zm4.5 7.3c-1.4 0-2.5-1.1-2.5-2.9 0-1.9 1.1-2.9 2.5-2.9s2.5 1.1 2.5 2.9c0 1.8-1.2 2.9-2.5 2.9zm0-5.4c-1.2 0-1.9 1-1.9 2.4s.7 2.4 1.9 2.4 1.9-1 1.9-2.4c0-1.3-.7-2.4-1.9-2.4zm7.8 5.3v-3.9c0-.9-.4-1.3-1.2-1.3-.6 0-1.3.4-2 1v4.2h-.6v-8.5l.6-.1v3.8c.7-.6 1.3-1 2-1 1.2 0 1.7.6 1.7 1.8v4h-.5zm6.3 0v-3.9c0-.9-.4-1.3-1.2-1.3-.6 0-1.3.4-2 1v4.2h-.6v-5.6h.4l.1.9c.7-.6 1.3-1 2.1-1 1.2 0 1.7.7 1.7 1.8v4h-.5zm2.4 0v-1h.7v1h-.7zm4.2.1c-.8 0-1.5-.2-2-.5l.1-.6c.5.3 1.2.6 2 .6s1.4-.4 1.4-1-.3-.9-1.6-1.2c-1.2-.3-1.7-.7-1.7-1.6 0-.9.7-1.5 1.9-1.5.6 0 1.2.2 1.7.4l-.1.5c-.5-.3-1-.4-1.6-.4-.9 0-1.3.4-1.3.9s.3.8 1.3 1.1c1.3.3 1.9.8 1.9 1.7 0 1-.8 1.6-2 1.6zm11-.1v-3.9c0-.9-.4-1.3-1.2-1.3-.6 0-1.2.3-1.9 1v4.2h-.6v-3.9c0-.9-.4-1.3-1.2-1.3-.6 0-1.2.3-1.9 1v4.3h-.6v-5.6h.4l.1.8c.7-.6 1.3-.9 2-.9.9 0 1.4.4 1.6 1 .7-.6 1.3-1 2.1-1 1.2 0 1.7.6 1.7 1.8v4h-.5zm2.8-7.2c-.3 0-.5-.2-.5-.5s.2-.5.5-.5.5.2.5.5-.2.5-.5.5zm-.2 7.2v-5.6h.6v5.6h-.6zm4.2.1c-.8 0-1.3-.3-1.3-1.3v-4h-.9v-.5h.9v-2l.6-.1v2.1h1.4l.1.5h-1.5v3.9c0 .7.3.9.9.9.2 0 .4 0 .6-.1l.1.5-.9.1zm6-.1v-3.9c0-.9-.4-1.3-1.2-1.3-.6 0-1.3.4-2 1v4.2h-.6v-8.5l.6-.1v3.8c.7-.6 1.3-1 2-1 1.2 0 1.7.6 1.7 1.8v4h-.5zm2.2 0v-.4l3-3.2c1-1.1 1.3-1.6 1.3-2.5 0-1-.7-1.7-1.7-1.7-.8 0-1.6.4-2.2 1l-.1-.6c.6-.5 1.4-.9 2.3-.9 1.4 0 2.3.9 2.3 2.1 0 1-.4 1.7-1.4 2.8l-2.7 2.8h4.1l.1.5h-5zm6.3 0v-.4l3-3.2c1-1.1 1.3-1.6 1.3-2.5 0-1-.7-1.7-1.7-1.7-.8 0-1.6.4-2.2 1l-.1-.6c.6-.5 1.4-.9 2.3-.9 1.4 0 2.3.9 2.3 2.1 0 1-.4 1.7-1.4 2.8l-2.7 2.8h4.1l.1.5h-5zm8.6.2c-.9 0-1.7-.3-2.2-.6l.1-.6c.7.5 1.3.7 2.2.7 1.2 0 2-.8 2-1.8 0-1.1-.8-1.9-2.5-1.9h-.3l-.1-.5h.5c1.4 0 2.2-.7 2.2-1.7 0-.9-.6-1.5-1.7-1.5-.9 0-1.6.3-2.2.8l-.1-.6c.6-.4 1.4-.7 2.3-.7 1.5 0 2.3.9 2.3 2s-.8 1.7-1.6 2c1.1.3 1.8 1 1.8 2.1 0 1.3-1.1 2.3-2.7 2.3zm8.9-2.2v2h-.5v-2h-4.2v-.4l4.1-5.8h.7v5.7h1.4v.5h-1.5zm-.6-5.5l-3.6 5.1h3.6v-5.1zm6.6 6.8c-.7 0-1.2-.6-1.2-1.6 0-1.8 1.2-3 2.5-3 .5 0 1 .2 1.3.3l-.4 2.5v.6c0 .5.2.9.9.9.9 0 1.7-1 1.7-2.8 0-2.1-1.2-3.4-3.4-3.4-2.5 0-4.5 2-4.5 5 0 2.4 1.3 3.6 3.5 3.6.9 0 1.9-.2 2.6-.6v.3c-.6.3-1.6.6-2.7.6-2.4 0-3.8-1.4-3.8-3.9 0-3.1 2.1-5.3 4.9-5.3 2.4 0 3.7 1.4 3.7 3.6 0 2.1-1 3.2-2.1 3.2-.8 0-1.3-.5-1.3-1.1-.6.8-1.1 1.1-1.7 1.1zm2.1-3.9c-.3-.1-.5-.2-.8-.2-1 0-1.9.9-1.9 2.5 0 .8.3 1.2.8 1.2s.9-.4 1.6-1.3l.3-2.2zm6.4 4.7c-.8 0-1.3-.3-1.3-1.3v-4h-.9v-.5h.9v-2l.6-.1v2.1h1.4l.1.5h-1.5v3.9c0 .7.3.9.9.9.2 0 .4 0 .6-.1l.1.5-.9.1zm7.7 0h-.5l-1.5-4.9-1.5 4.9h-.5l-1.9-5.7.6-.1 1.6 5.1 1.5-5h.5l1.5 5 1.6-5h.6l-2 5.7zm3.7-7.3c-.3 0-.5-.2-.5-.5s.2-.5.5-.5.5.2.5.5-.2.5-.5.5zm-.3 7.2v-5.6h.6v5.6h-.6zm2.7 0v-8.5l.6-.1v8.6h-.6zm3-7.2c-.3 0-.5-.2-.5-.5s.2-.5.5-.5.5.2.5.5-.2.5-.5.5zm-.3 7.2v-5.6h.6v5.6h-.6zm4.8.1c-1.4 0-2.5-1.1-2.5-2.9 0-1.9 1.1-2.9 2.5-2.9s2.5 1.1 2.5 2.9c0 1.8-1.2 2.9-2.5 2.9zm0-5.4c-1.2 0-1.9 1-1.9 2.4s.7 2.4 1.9 2.4 1.9-1 1.9-2.4c0-1.3-.7-2.4-1.9-2.4zm3.9 5.3v-1h.7v1h-.7zm4.6.1c-1.4 0-2.5-1.1-2.5-2.9 0-1.9 1.1-2.9 2.5-2.9.7 0 1.3.3 1.8.6l-.1.6c-.6-.5-1.1-.7-1.7-.7-1.2 0-1.9 1-1.9 2.4s.7 2.4 2 2.4c.6 0 1.2-.2 1.8-.7l.1.5c-.6.5-1.2.7-2 .7zm5.5 0c-1.4 0-2.5-1.1-2.5-2.9 0-1.9 1.1-2.9 2.5-2.9s2.5 1.1 2.5 2.9c0 1.8-1.1 2.9-2.5 2.9zm0-5.4c-1.2 0-1.9 1-1.9 2.4s.7 2.4 1.9 2.4 1.9-1 1.9-2.4c0-1.3-.7-2.4-1.9-2.4zm11.5 5.3v-3.9c0-.9-.4-1.3-1.2-1.3-.6 0-1.2.3-1.9 1v4.2h-.6v-3.9c0-.9-.4-1.3-1.2-1.3-.6 0-1.2.3-1.9 1v4.3h-.6v-5.6h.4l.1.8c.7-.6 1.3-.9 2-.9.9 0 1.4.4 1.6 1 .7-.6 1.3-1 2.1-1 1.2 0 1.7.6 1.7 1.8v4h-.5zm-134 30.2c-1.8 0-2.9-1.7-2.9-4.2s1.1-4.2 2.9-4.2c1.8 0 2.9 1.7 2.9 4.2 0 2.4-1.1 4.2-2.9 4.2zm0-8c-1.5 0-2.3 1.6-2.3 3.7s.8 3.7 2.3 3.7c1.5 0 2.3-1.6 2.3-3.7s-.8-3.7-2.3-3.7zm4.8 1.5c0-1.1 1-2 2.4-2s2.3.9 2.3 2c0 1-.7 1.6-1.5 2.1 1.1.4 1.8 1.1 1.8 2.2 0 1.3-1.2 2.2-2.6 2.2-1.6 0-2.7-.9-2.7-2.2 0-1 .7-1.8 1.8-2.3-.8-.4-1.5-1-1.5-2zm.3 4.3c0 1 .9 1.7 2.1 1.7 1.1 0 2-.7 2-1.7 0-.9-.5-1.4-2.4-2-1 .3-1.7 1-1.7 2zm3.9-4.3c0-.9-.7-1.5-1.8-1.5-1.2 0-1.8.8-1.8 1.5 0 .9.4 1.3 2.1 1.8.9-.3 1.5-1 1.5-1.8zm2.6 1.6v-1h.7v1h-.7zm0 4.7v-1h.7v1h-.7zm6.9-2v2h-.5v-2h-4.2v-.4l4.1-5.8h.7v5.7h1.4v.5h-1.5zm-.5-5.5l-3.6 5.1h3.6v-5.1zm6.1 2.7c1.5 0 2.4.9 2.4 2.4 0 1.6-1.1 2.6-2.5 2.6-1.6 0-2.8-1.4-2.8-3.4 0-2.7 1.6-4.2 4.1-5l.1.6c-2.1.6-3.3 1.9-3.6 3.7.8-.6 1.5-.9 2.3-.9zm-2.3 1.5c0 1.7.9 3 2.2 3 1.2 0 1.9-.8 1.9-2.1 0-1.1-.6-1.9-1.9-1.9-.8 0-1.5.4-2.2 1zm6.4-1.4v-1h.7v1h-.7zm0 4.7v-1h.7v1h-.7zm2.3 0v-.4l3-3.2c1-1.1 1.3-1.6 1.3-2.5 0-1-.7-1.7-1.7-1.7-.8 0-1.6.4-2.2 1l-.1-.6c.6-.5 1.4-.9 2.3-.9 1.4 0 2.3.9 2.3 2.1 0 1-.4 1.7-1.4 2.8l-2.7 2.8h4.1l.1.5h-5zm10.7-2v2h-.5v-2h-4.2v-.4l4.1-5.8h.7v5.7h1.4v.5h-1.5zm-.5-5.5l-3.6 5.1h3.6v-5.1zm8 3.9h-1.2v3.6h-.6v-8.3h1.9c1.6 0 2.6.8 2.6 2.3.2 1.6-1.1 2.4-2.7 2.4zm.2-4.2h-1.3v3.6h1.2c1.4 0 2.2-.6 2.2-1.9 0-1-.8-1.7-2.1-1.7zm12.5 7.8l-.6-7.4-3.1 7.5h-.5l-3.1-7.5-.6 7.4h-.6l.7-8.3h.7l3.1 7.6 3.1-7.6h.7l.7 8.3h-.5zm8 2.3v-10.9l.5-.1v10.9l-.5.1zm16.3-2.3l-.6-7.4-3.1 7.5h-.5l-3.1-7.5-.6 7.4h-.6l.7-8.3h.7l3.1 7.6 3.1-7.6h.7l.7 8.3h-.5zm6 0l-.1-.8c-.6.5-1.3.9-2 .9-.9 0-1.7-.5-1.7-1.5 0-1.3 1-1.9 3.7-2.2v-.5c0-.8-.5-1.2-1.2-1.2-.6 0-1.3.2-1.9.5l-.1-.5c.6-.3 1.3-.5 2-.5 1.2 0 1.8.6 1.8 1.7v4.1h-.5zm-.1-3.1c-2.3.3-3.1.7-3.1 1.7 0 .7.5 1.1 1.2 1.1.6 0 1.3-.4 1.9-.9v-1.9zm4.2 4c-.3.9-.8 1.3-1.5 1.3h-.3l-.1-.5h.4c.5 0 .8-.2 1-.8l.3-.8-2.2-5.6.6-.1 1.9 5.1 1.8-5h.6l-2.5 6.4zm8.5-.7c-.9 0-1.7-.3-2.2-.6l.1-.6c.7.5 1.3.7 2.2.7 1.2 0 2-.8 2-1.8 0-1.1-.8-1.9-2.5-1.9h-.3l-.1-.5h.5c1.4 0 2.2-.7 2.2-1.7 0-.9-.6-1.5-1.7-1.5-.9 0-1.6.3-2.2.8l-.1-.6c.6-.4 1.4-.7 2.3-.7 1.5 0 2.3.9 2.3 2s-.8 1.7-1.6 2c1.1.3 1.8 1 1.8 2.1-.1 1.3-1.2 2.3-2.7 2.3zm4.2 1.4l-.3-.1.6-2.5h.7l-1 2.6zm5.2-1.6v-.4l3-3.2c1-1.1 1.3-1.6 1.3-2.5 0-1-.7-1.7-1.7-1.7-.8 0-1.6.4-2.2 1l-.1-.6c.6-.5 1.4-.9 2.3-.9 1.4 0 2.3.9 2.3 2.1 0 1-.4 1.7-1.4 2.8l-2.7 2.8h4.1l.1.5h-5zm9.5.2c-1.8 0-2.9-1.7-2.9-4.2s1.1-4.2 2.9-4.2c1.8 0 2.9 1.7 2.9 4.2 0 2.4-1.1 4.2-2.9 4.2zm0-8c-1.5 0-2.3 1.6-2.3 3.7s.8 3.7 2.3 3.7c1.5 0 2.3-1.6 2.3-3.7s-.8-3.7-2.3-3.7zm6 7.8v-7.5l-1.8.8-.1-.5 2-.9h.4v8.2h-.5zm4.8.2c-.9 0-1.6-.2-2.2-.6l.1-.6c.6.4 1.2.6 2.1.6 1.2 0 2.2-.7 2.2-2.1 0-1.2-.7-1.9-2.1-1.9-.7 0-1.2.1-1.6.3l-.3-.1.3-4h3.9l.1.5h-3.5l-.2 3c.4-.1.8-.3 1.4-.3 1.6 0 2.7.9 2.7 2.4-.1 1.7-1.4 2.8-2.9 2.8zm-135.3 29.8v-7.5l-1.8.8-.1-.5 2-.9h.4v8.2h-.5zm5-3.2c-1.4 0-2.4-.9-2.4-2.5 0-1.5 1-2.6 2.5-2.6 1.7 0 2.8 1.4 2.8 3.4 0 2.7-1.6 4.3-4.2 5l-.1-.5c2.2-.5 3.4-1.8 3.7-3.6-.7.5-1.5.8-2.3.8zm2.4-1.6c0-1.8-.9-3-2.2-3-1.2 0-2 .9-2 2.1 0 1.2.7 2 1.9 2 .8 0 1.6-.3 2.3-.9v-.2zm1.8 4.8v-.4l3-3.2c1-1.1 1.3-1.6 1.3-2.5 0-1-.7-1.7-1.7-1.7-.8 0-1.6.4-2.2 1l-.1-.6c.6-.5 1.4-.9 2.3-.9 1.4 0 2.3.9 2.3 2.1 0 1-.4 1.7-1.4 2.8l-2.7 2.8h4.1l.1.5h-5zm6.7 0v-1h.7v1h-.7zm3.4 0v-7.5l-1.8.8-.1-.5 2-.9h.4v8.2h-.5zm5.7-4.8c1.5 0 2.4.9 2.4 2.4 0 1.6-1.1 2.6-2.5 2.6-1.6 0-2.8-1.4-2.8-3.4 0-2.7 1.6-4.2 4.1-5l.1.6c-2.1.6-3.3 1.9-3.6 3.7.8-.6 1.5-.9 2.3-.9zm-2.3 1.5c0 1.7.9 3 2.2 3 1.2 0 1.9-.8 1.9-2.1 0-1.1-.6-1.9-1.9-1.9-.8 0-1.5.4-2.2 1zm6.5-3c0-1.1 1-2 2.4-2s2.3.9 2.3 2c0 1-.7 1.6-1.5 2.1 1.1.4 1.8 1.1 1.8 2.2 0 1.3-1.2 2.2-2.6 2.2-1.6 0-2.7-.9-2.7-2.2 0-1 .7-1.8 1.8-2.3-.8-.4-1.5-1-1.5-2zm.3 4.3c0 1 .9 1.7 2.1 1.7 1.1 0 2-.7 2-1.7 0-.9-.5-1.4-2.4-2-1 .3-1.7 1-1.7 2zm3.9-4.3c0-.9-.7-1.5-1.8-1.5-1.2 0-1.8.8-1.8 1.5 0 .9.4 1.3 2.1 1.8.9-.3 1.5-1 1.5-1.8zm2.5 6.3v-1h.7v1h-.7zm5.1.2c-1.8 0-2.9-1.7-2.9-4.2s1.1-4.2 2.9-4.2 2.9 1.7 2.9 4.2c0 2.4-1.1 4.2-2.9 4.2zm0-8c-1.5 0-2.3 1.6-2.3 3.7s.8 3.7 2.3 3.7c1.5 0 2.3-1.6 2.3-3.7s-.8-3.7-2.3-3.7zm4.4 7.8v-1h.7v1h-.7zm3.4 0v-7.5l-1.8.8-.1-.5 2-.9h.4v8.2h-.5zm8.8 2.3v-10.9l.5-.1v10.9l-.5.1zm11.4-2.1c-2.2 0-3.7-1.7-3.7-4.3 0-2.5 1.6-4.3 3.8-4.3.9 0 1.7.3 2.3.7l-.1.6c-.7-.5-1.4-.8-2.2-.8-2 0-3.2 1.6-3.2 3.8 0 2.2 1.2 3.8 3.2 3.8.9 0 1.7-.4 2.4-.9l.1.6c-.7.4-1.5.8-2.6.8zm8.1-.2v-3.9c0-.9-.4-1.3-1.2-1.3-.6 0-1.3.4-2 1v4.2h-.6v-8.5l.6-.1v3.8c.7-.6 1.3-1 2-1 1.2 0 1.7.6 1.7 1.8v4h-.5zm2.8-7.2c-.3 0-.5-.2-.5-.5s.2-.5.5-.5.5.2.5.5-.2.5-.5.5zm-.2 7.2v-5.6h.6v5.6h-.6zm4.7.1c-1.4 0-2.5-1.1-2.5-2.9 0-1.9 1.1-2.9 2.5-2.9.7 0 1.3.3 1.8.6l-.1.6c-.6-.5-1.1-.7-1.7-.7-1.2 0-1.9 1-1.9 2.4s.7 2.4 2 2.4c.6 0 1.2-.2 1.8-.7l.1.5c-.6.5-1.3.7-2 .7zm6.9-.1l-.1-.8c-.6.5-1.3.9-2 .9-.9 0-1.7-.5-1.7-1.5 0-1.3 1-1.9 3.7-2.2v-.5c0-.8-.5-1.2-1.2-1.2-.6 0-1.3.2-1.9.5l-.1-.5c.6-.3 1.3-.5 2-.5 1.2 0 1.8.6 1.8 1.7v4.1h-.5zm-.2-3.1c-2.3.3-3.1.7-3.1 1.7 0 .7.5 1.1 1.2 1.1.6 0 1.3-.4 1.9-.9v-1.9zm7.1-2.6l.1.6-1.2.1c.2.3.4.7.4 1.1 0 1.2-1 1.9-2.1 1.9-.2 0-.4 0-.5-.1-.3.2-.5.3-.5.5 0 .3.3.4 1.3.6l.4.1c1.3.3 1.9.6 1.9 1.4 0 1-1.2 1.7-2.6 1.7-1.4 0-2.5-.5-2.5-1.5 0-.6.5-1.1 1.4-1.5-.3-.2-.5-.4-.5-.6 0-.3.2-.5.6-.7-.6-.3-1-.9-1-1.7 0-1.2 1-1.9 2-1.9.5 0 1 .2 1.4.5l1.4-.5zm-4.7 6.4c0 .7.9 1 2 1 1.2 0 2-.5 2-1.1 0-.5-.4-.8-1.6-1l-.4-.1c-.3-.1-.5-.1-.7-.1-.8.3-1.3.8-1.3 1.3zm1.9-6c-.9 0-1.5.6-1.5 1.5 0 .8.6 1.5 1.5 1.5s1.5-.6 1.5-1.5-.6-1.5-1.5-1.5zm6.2 5.4c-1.4 0-2.5-1.1-2.5-2.9 0-1.9 1.1-2.9 2.5-2.9s2.5 1.1 2.5 2.9c0 1.8-1.1 2.9-2.5 2.9zm0-5.4c-1.2 0-1.9 1-1.9 2.4s.7 2.4 1.9 2.4 1.9-1 1.9-2.4c0-1.3-.7-2.4-1.9-2.4zm3.7 6.9l-.3-.1.6-2.5h.7l-1 2.6zm5.9-1.6v-8.3h.6v8.3h-.6zm3.1 0v-8.3h.6v7.8h3.4l.1.5h-4.1zm5.1 1.6l-.3-.1.6-2.5h.7l-1 2.6zm8.6-1.5c-1.9 0-3-1.3-3-3.2v-5.2h.6v5.1c0 1.6.9 2.7 2.4 2.7 1.6 0 2.4-1.1 2.4-2.7v-5.2h.6v5.2c0 2-1.1 3.3-3 3.3zm7 0c-1 0-1.7-.2-2.1-.5l.1-.6c.5.3 1.2.6 2.1.6 1.1 0 1.9-.6 1.9-1.7 0-.9-.5-1.4-1.7-1.9-1.6-.7-2.2-1.2-2.2-2.4s1-2 2.3-2c.8 0 1.4.2 1.8.4l-.1.6c-.5-.3-1-.5-1.7-.5-1 0-1.6.6-1.6 1.5s.5 1.3 1.8 1.8c1.5.6 2.2 1.3 2.2 2.4-.3 1.5-1.5 2.3-2.8 2.3z" fill="#fff"/><path fill="#7D8286" d="M214.8 268.1h-86c-1.2 0-2.2-1-2.2-2.2v-31.9c0-1.2 1-2.2 2.2-2.2h86c1.2 0 2.2 1 2.2 2.2v31.9c-.1 1.2-1.1 2.2-2.2 2.2zm-86.1-35.2c-.6 0-1.2.5-1.2 1.2v31.9c0 .6.5 1.2 1.2 1.2h86c.6 0 1.2-.5 1.2-1.2v-32c0-.6-.5-1.2-1.2-1.2h-86zM164.3 253.9c0 .8-.2 1.5-.5 1.9-.3.5-.9.7-1.7.7h-2.3v-11.8h2.3c.8 0 1.3.2 1.7.7s.5 1.1.5 1.9v6.6zm-1.3-6.7c0-.4-.1-.8-.2-1s-.4-.3-.7-.3h-1v9.3h1c.3 0 .6-.1.7-.3s.2-.5.2-1v-6.7zm3.9 9.3v-11.8h3.7v1.2h-2.5v3.9h1.8v1.1h-1.8v4.3h2.5v1.2h-3.7zm9.9 0l-2-6-.6-1.9v7.8h-1.2v-11.8h1.1l1.8 6 .5 1.9v-8h1.2v11.8h-.8zm6.1-4.7v4.6h-1.3v-4.6l-1.8-7.1h1.3l1.3 5.5 1.3-5.5h1.2l-2 7.1z"/><path fill="#222120" d="M16.3 106.1v-64c0-.8.7-1.5 1.5-1.5h209.5c.8 0 1.5.7 1.5 1.5v64"/><path fill="#7D8286" d="M117.3 265.9c0 .9-.7 1.7-1.7 1.7h-86c-.9 0-1.7-.7-1.7-1.7v-31.9c0-.9.7-1.7 1.7-1.7h86c.9 0 1.7.7 1.7 1.7v31.9z"/><path d="M54 256.5l-.3-2.5h-1.7l-.4 2.5h-1.2l1.8-11.8h1.3l1.7 11.8h-1.2zm-1.1-9l-.7 5.2h1.3l-.6-5.2zm8.9 1.8c0 .4-.1.7-.2 1-.1.3-.2.5-.4.7-.2.2-.4.3-.6.4-.2.1-.5.1-.8.1h-1v5h-1.3v-11.8h2.3c.3 0 .5 0 .8.1.2.1.4.2.6.4.2.2.3.4.4.7.1.3.2.6.2 1v2.4zm-1.3-2.6c0-.6-.2-.8-.7-.8h-1.1v4.4h1.1c.4 0 .7-.3.7-.9v-2.7zm8 2.6c0 .4-.1.7-.2 1-.1.3-.2.5-.4.7-.2.2-.4.3-.6.4-.2.1-.5.1-.8.1h-1v5h-1.3v-11.8h2.3c.3 0 .5 0 .8.1.2.1.4.2.6.4.2.2.3.4.4.7.1.3.2.6.2 1v2.4zm-1.3-2.6c0-.6-.2-.8-.7-.8h-1.1v4.4h1.1c.4 0 .7-.3.7-.9v-2.7zm7.9 9.9c-.4 0-.7-.1-.9-.3-.2-.2-.3-.5-.3-1v-3c0-.3-.1-.5-.2-.7-.1-.2-.3-.3-.6-.3h-1v5.2h-1.3v-11.8h2.3c.3 0 .5 0 .8.1.2.1.5.2.6.4.2.2.3.4.4.7.1.3.2.6.2 1v2.2c0 .4-.1.8-.2 1.1-.1.3-.4.5-.8.6.4.1.6.3.8.6.2.3.2.6.2 1v2.8c0 .2 0 .3.1.4s.1.1.3.1v.9h-.4zm-1.2-9.9c0-.6-.2-.8-.7-.8h-1v4.3h.8c.2 0 .4-.1.6-.3.1-.2.2-.4.2-.7v-2.5zm8.3 7.5c0 .7-.2 1.3-.6 1.8-.4.5-1 .7-1.7.7s-1.3-.2-1.7-.7c-.4-.5-.6-1-.6-1.8v-7.2c0-.4.1-.7.2-1 .1-.3.3-.6.5-.8.2-.2.4-.4.7-.5.3-.1.6-.2.9-.2.3 0 .7.1.9.2.3.1.5.3.7.5.2.2.3.5.5.8.1.3.2.6.2 1v7.2zm-1.2-7.4c0-.3-.1-.6-.3-.8-.2-.2-.4-.3-.8-.3s-.6.1-.7.3c-.2.2-.2.5-.2.8v7.6c0 .3.1.6.2.8.2.2.4.3.7.3s.6-.1.8-.3c.2-.2.3-.5.3-.8v-7.6zm6.3 9.7h-1.3l-1.7-11.8h1.3l1.1 9 1.2-9h1.2l-1.8 11.8zm4.1 0v-11.8h3.7v1.2h-2.5v3.9h1.8v1.1h-1.8v4.3h2.5v1.2h-3.7z" fill="#2D2C2A"/><path fill="#81807F" d="M48.9 142.2h-9.5v-.6c0-1.8.8-3.7 2.7-4.4-.5-.5-.8-1.2-.8-2 0-1.6 1.3-2.8 2.8-2.8 1.6 0 2.8 1.3 2.8 2.8 0 .8-.3 1.5-.8 2 2 .8 2.7 2.6 2.7 4.4v.6zm-4.5 19.1c-2.8 0-5.1 2.3-5.1 5.1s2.3 5.1 5.1 5.1 5.1-2.3 5.1-5.1-2.3-5.1-5.1-5.1z"/><path fill="#2D2C2A" d="M46.7 168.2c-.1 0-.2 0-.2-.1l-2.5-1.4v-3.6c0-.3.2-.5.5-.5s.5.2.5.5v3l2 1.1c.2.1.3.4.2.7-.2.2-.3.3-.5.3z"/><path fill="#81807F" d="M45.2 190.1c-2.6 0-4.6 2.1-4.6 4.6 0 2.5 4.3 8.3 4.5 8.5 0 .1.1.1.2.1s.1 0 .2-.1c.2-.2 4.5-6 4.5-8.5-.2-2.6-2.2-4.6-4.8-4.6zm0 6.6c-1.1 0-2-.9-2-2s.9-2 2-2 2 .9 2 2-.9 2-2 2zM84.1 92.3v-9.7h.7v9.1h3.9l.1.6h-4.7zm8.5.1c-1.6 0-2.9-1.3-2.9-3.4 0-2.2 1.3-3.4 2.9-3.4 1.7 0 2.9 1.2 2.9 3.4s-1.3 3.4-2.9 3.4zm0-6.3c-1.4 0-2.2 1.2-2.2 2.9s.8 2.9 2.2 2.9c1.4 0 2.2-1.1 2.2-2.9 0-1.6-.8-2.9-2.2-2.9zm10.1-.5l.1.7-1.4.2c.3.4.4.8.4 1.3 0 1.4-1.1 2.2-2.4 2.2-.2 0-.4 0-.6-.1-.4.2-.5.4-.5.5 0 .3.3.4 1.5.7l.5.1c1.5.3 2.3.7 2.3 1.6 0 1.2-1.4 1.9-3.1 1.9-1.7 0-2.9-.6-2.9-1.7 0-.7.5-1.3 1.6-1.8-.4-.2-.6-.4-.6-.7 0-.3.2-.6.7-.9-.7-.3-1.2-1-1.2-1.9 0-1.4 1.1-2.2 2.4-2.2.6 0 1.2.2 1.6.6l1.6-.5zm-5.4 7.5c0 .8 1 1.2 2.3 1.2 1.4 0 2.4-.6 2.4-1.3 0-.6-.5-.9-1.9-1.1l-.5-.1-.8-.2c-1 .4-1.5.9-1.5 1.5zm2.1-7c-1 0-1.7.7-1.7 1.7 0 .9.7 1.7 1.7 1.7 1.1 0 1.7-.7 1.7-1.7.1-.9-.6-1.7-1.7-1.7zm5.4-2.2c-.3 0-.6-.3-.6-.6s.3-.6.6-.6.6.3.6.6c0 .4-.3.6-.6.6zm-.3 8.4v-6.6h.6v6.6h-.6zm7.4 0v-4.6c0-1-.5-1.5-1.4-1.5-.7 0-1.5.4-2.3 1.2v4.9h-.7v-6.6h.5l.2 1c.8-.7 1.5-1.1 2.4-1.1 1.4 0 2 .8 2 2.1v4.6h-.7zm12.5-.1l-.7.2-3.3-4.5h-1.4v4.4h-.7v-9.7h2.3c1.8 0 3 .9 3 2.5 0 1.5-1.1 2.4-2.5 2.6 0 .1 3.3 4.5 3.3 4.5zm-3.8-9h-1.6v4h1.4c1.5 0 2.5-.7 2.5-2.1 0-1.2-.8-1.9-2.3-1.9zm10 5.8h-4.7c0 1.7.8 2.9 2.3 2.9.8 0 1.6-.4 2.3-1l.1.6c-.6.5-1.5 1-2.4 1-1.7 0-2.9-1.3-2.9-3.4 0-2.1 1.2-3.4 2.8-3.4 1.7 0 2.5 1.5 2.5 3.3zm-2.6-2.9c-1.2 0-1.9 1-2.1 2.3h3.9c0-1.2-.6-2.3-1.8-2.3zm8.8 8.7v-3.5c-.5.6-1.1 1.1-2.1 1.1-1.4 0-2.7-1-2.7-3.2 0-2.4 1.4-3.6 3.2-3.6.9 0 1.6.2 2.3.4v8.6l-.7.2zm0-8.3c-.4-.2-1-.3-1.7-.3-1.3 0-2.4.9-2.4 3 0 1.7.9 2.7 2 2.7.8 0 1.4-.5 2.1-1.2v-4.2zm7.5 5.8l-.2-1c-.8.7-1.5 1.1-2.4 1.1-1.4 0-2-.8-2-2.1v-4.6h.7v4.6c0 1 .5 1.5 1.4 1.5.7 0 1.5-.4 2.3-1.2v-4.9h.7v6.6h-.5zm7.7-3.3h-4.7c0 1.7.8 2.9 2.3 2.9.8 0 1.6-.4 2.3-1l.1.6c-.6.5-1.5 1-2.4 1-1.7 0-2.9-1.3-2.9-3.4 0-2.1 1.2-3.4 2.8-3.4 1.7 0 2.5 1.5 2.5 3.3zm-2.6-2.9c-1.2 0-1.9 1-2.1 2.3h3.9c0-1.2-.6-2.3-1.8-2.3zm6.3 6.3c-.9 0-1.8-.3-2.3-.6l.1-.6c.6.3 1.4.6 2.3.6 1 0 1.6-.4 1.6-1.2 0-.7-.4-1-1.8-1.4-1.4-.4-2-.9-2-1.9 0-1 .9-1.7 2.2-1.7.7 0 1.4.2 1.9.4l-.1.6c-.6-.3-1.2-.5-1.8-.5-1 0-1.5.5-1.5 1.1 0 .6.4.9 1.6 1.2 1.5.4 2.3.9 2.3 2-.2 1.4-1.1 2-2.5 2zm6.1 0c-.9 0-1.6-.4-1.6-1.5v-4.6h-1v-.6h1v-2.3l.7-.1v2.5h1.6l.1.6h-1.7v4.5c0 .8.3 1 1 1l.7-.1.1.5c-.2 0-.6.1-.9.1z"/></svg>